<?xml version="1.0" encoding="UTF-8"?>
<svg id="Layer_1" xmlns="http://www.w3.org/2000/svg" xmlns:xlink="http://www.w3.org/1999/xlink" version="1.1" viewBox="0 0 563.915736 563.915736">
  <!-- Generator: Adobe Illustrator 30.3.0, SVG Export Plug-In . SVG Version: 2.1.3 Build 182)  -->
  <defs>
    <style>
      .st0 {
        fill: none;
      }

      .st1 {
        fill: #47c66e;
      }

      .st2 {
        fill: #47a166;
      }

      .st3 {
        fill: #67ea94;
      }

      .st4 {
        fill: #2e2f3d;
      }

      .st5 {
        fill: #2d7d46;
      }

      .st6 {
        fill: #56d87e;
      }

      .st7 {
        fill: #398f53;
      }

      .st8 {
        fill: #2e2f3c;
      }

      .st9 {
        clip-path: url(#clippath);
      }

      .st10 {
        fill: #2c2d3c;
      }
    </style>
    <clipPath id="clippath">
      <rect class="st0" width="563.915736" height="563.915736"/>
    </clipPath>
  </defs>
  <rect class="st10" width="563.915736" height="563.915736"/>
  <g class="st9">
    <path class="st2" d="M258.799118,154.777763l-53.030641-118.073123-1.879203-4.167363-2.614826-5.883483c-.327165-.735124-.57204-1.470746-.980497-2.20587-16.914327-32.684574-54.746761-105.816408-75.501785-143.567051-7.108855-12.910546-22.797311-18.303282-36.36119-12.665173-23.451142,9.886764-58.750542,24.186266-76.890739,29.497708,0,0-45.513329,14.21771-79.096609,20.264276-.57204.081791-1.062289.245374-1.552537.408457-6.210149,1.71612-10.540596,6.537314-11.92955,12.338506l-3.186866,7.680895-40.855717,99.606259c-5.14786,12.502089-5.311443,26.474425-.653831,39.058305.081791.163084.081791.326666.163582.408457.326666.816915.653332,1.71612,1.062289,2.533035.408457.980497.898706,1.960995,1.388955,2.941492l90.046161,175.271127c4.003781,7.92577,10.785471,13.563879,18.466365,16.587162.245374.081791.490249.163582.735622.327165,1.225871.490249,2.614826.980497,4.085572,1.388955.57204.163582,1.307164.326666,2.042786.490249,5.7199.898706,11.766467.490249,17.568158-1.470746l94.866856-32.684574,136.294613-46.902284c3.758906-1.307662,7.108855-3.268657,9.968556-5.801691.490249-.408457,1.062289-.898706,1.552537-1.388955,0-.081791.081791-.081791.081791-.081791.327165-.326666.653831-.653831.898706-.980497,7.926269-8.579601,10.459303-21.490147,5.311443-32.929449Z"/>
    <path class="st7" d="M253.487675,187.707212c4.330945-5.801691-.081293-17.486367-.081293-17.486367l-53.112433-121.667947c-.57204.653332-1.225871,1.307164-1.961493,1.879203-.081293.081791-.163084.163582-.244875.244875-.735622.653831-1.634328,1.225871-2.533035,1.71612-15.607163,8.824975-41.754423,22.143978-77.135614,35.626066-3.677114,1.389453-7.272437,2.696617-10.86776,3.922488-3.595323,1.225372-7.190646,2.451243-10.704178,3.513532-7.027064,2.20587-13.809252,4.167363-20.346067,5.801193-3.268657.817414-6.455024,1.552537-9.560098,2.28816-4.003781.898706-7.844477,1.715621-11.521592,2.451243-4.657612.898706-9.151641,1.71612-13.237213,2.369452-.326666.081791-.57204.081791-.898706.163582-5.229652.816915-9.968556,1.552537-14.21771,2.042786-3.840697.490249-7.680895.245374-11.276218-.735124-.490249-.081791-.980497-.245374-1.470746-.490747-.898706-.244875-1.71612-.490249-2.614826-.898706-.326666-.081791-.653831-.244875-.980497-.408457-1.062289-.490249-2.124577-1.062289-3.105074-1.71612-1.225871-.653332-2.369452-1.470746-3.431741-2.369452s-2.042786-1.797412-3.023283-2.859701c-.899205-.899205-1.634328-1.879702-2.451742-2.860199l-24.431639,155.415309s-.081791.244875-.081791.816915c-.163084,1.470746-.326666,4.902985.899205,8.743183.571541,1.71612,1.388955,3.513532,2.533035,5.229652,0,0,0,.081791.081293.163582.57204.816915,1.225871,1.552537,2.042786,2.287661.408956.408457.899205.817414,1.389453,1.307662.490249.326666.898706.653332,1.388955.980497.816915.57204,1.797911,1.143581,2.859701,1.63383-7.680895-3.023283-14.462585-8.661392-18.466365-16.587162L-123.120049,82.953093c-.490249-.980497-.980497-1.960995-1.388955-2.941492-.408956-.816915-.735622-1.71612-1.062289-2.533035-.081791-.081791-.081791-.245374-.163582-.408457-5.14786-15.93383,1.634328-33.420196,1.634328-33.420196l41.182384-101.975711,1.307662-3.268657.408457-.081791c.244875,1.470746.816915,2.941991,1.552537,4.412737L-2.269016,91.696276c.899205,1.797911,1.960995,3.431741,3.350448,4.984278,6.210149,8.00806,16.342287,12.256715,26.7193,11.031343,3.514031-.408956,7.517811-.980497,11.766467-1.634328,20.101193-3.186866,47.719697-9.06985,77.462779-20.427859,34.563777-13.155421,60.057705-26.22955,75.337704-34.72736,2.614826-1.470746,4.821194-3.513532,6.455523-5.801691,2.451243-3.431741,3.758407-7.599104,3.676616-11.848258,0-2.20587-.408457-4.412238-1.225372-6.618606l2.614826,5.883483,1.879203,4.167363,53.030641,118.073123c5.14786,11.439302,2.614826,24.349848-5.311443,32.929449Z"/>
    <path class="st5" d="M253.487675,187.707212c-.244875.326666-.571541.653831-.898706.980497,0,0-.081791,0-.081791.081791-.490249.490249-1.062289.980497-1.552537,1.388955-2.859701,2.533035-6.20965,4.494029-9.968556,5.801691l-136.294613,46.902284-94.866856,32.684574c-5.801691,1.960995-11.848258,2.369452-17.568158,1.470746-.735622-.163582-1.470746-.326666-2.042786-.490249-1.470746-.408457-2.859701-.898706-4.085572-1.388955-.245374-.163582-.490249-.245374-.735622-.327165-1.06179-.490249-2.042786-1.06179-2.859701-1.63383-.490249-.327165-.898706-.653831-1.388955-.980497-.490249-.490249-.980497-.899205-1.389453-1.307662-.816915-.735124-1.470746-1.470746-2.042786-2.287661-.081293-.081791-.081293-.163582-.081293-.163582-1.14408-1.71612-1.961493-3.513532-2.533035-5.229652-1.225871-3.840198-1.062289-7.272437-.899205-8.743183,0-.57204.081791-.816915.081791-.816915L-1.288519,98.233091c.817414.980497,1.552537,1.960995,2.451742,2.860199.980497,1.062289,1.960995,1.960995,3.023283,2.859701s2.20587,1.71612,3.431741,2.369452c.980497.653831,2.042786,1.225871,3.105074,1.71612.326666.163582.653831.326666.980497.408457.898706.408457,1.71612.653831,2.614826.898706.490249.245374.980497.408956,1.470746.490747,3.595323.980497,7.435521,1.225372,11.276218.735124,4.249154-.490249,8.988058-1.225871,14.21771-2.042786.326666-.081791.57204-.081791.898706-.163582,4.085572-.653332,8.579601-1.470746,13.237213-2.369452,3.677114-.735622,7.517811-1.552537,11.521592-2.451243,3.105074-.653831,6.291441-1.470746,9.560098-2.28816,6.536815-1.63383,13.319004-3.595323,20.346067-5.801193,3.513532-1.062289,7.108855-2.206368,10.704178-3.513532,3.595323-1.225871,7.190646-2.533035,10.86776-3.922488,35.381191-13.482088,61.528451-26.801091,77.135614-35.626066.898706-.490249,1.797412-1.062289,2.533035-1.71612.081791-.081293.163582-.163084.244875-.244875.735622-.57204,1.471245-1.225871,1.961493-1.879203l53.112433,121.667947s4.412238,11.684675.081293,17.486367Z"/>
    <path class="st2" d="M202.49982,33.272401c.081791,4.249154-1.225372,8.416517-3.676616,11.848258-1.634328,2.28816-3.840697,4.330945-6.455523,5.801691-15.279998,8.49781-40.773926,21.571938-75.337704,34.72736-29.743082,11.358009-57.361587,17.240993-77.462779,20.427859-4.248655.653831-8.252436,1.225372-11.766467,1.634328-10.377013,1.225372-20.509151-3.023283-26.7193-11.031343-1.389453-1.552537-2.451243-3.186367-3.350448-4.984278L-79.649505-57.26351c-.735622-1.470746-1.307662-2.941991-1.552537-4.412737l-.408457.081791-1.307662,3.268657-41.182384,101.975711s-6.782189,17.486367-1.634328,33.420196c-4.657612-12.58388-4.494029-26.556216.653831-39.058305l40.855717-99.606259,3.186866-7.680895c1.388955-5.801193,5.719401-10.622387,11.92955-12.338506.490249-.163084.980497-.326666,1.552537-.408457,33.58328-6.046566,79.096609-20.264276,79.096609-20.264276,18.140198-5.311443,53.439598-19.610944,76.890739-29.497708,13.563879-5.638109,29.252335-.245374,36.36119,12.665173,20.755024,37.750643,58.587458,110.882477,75.501785,143.567051.408457.735124.653332,1.470746.980497,2.20587.816915,2.206368,1.225372,4.412737,1.225372,6.618606Z"/>
    <path class="st2" d="M567.255968,39.564053l-53.030641-118.073123-1.879203-4.167363-2.614826-5.883483c-.327165-.735124-.57204-1.470746-.980497-2.20587-16.914327-32.684574-54.746761-105.816408-75.501785-143.567051-7.108855-12.910546-22.797311-18.303282-36.36119-12.665173-23.451142,9.886764-58.750542,24.186266-76.890739,29.497708,0,0-45.513329,14.21771-79.096609,20.264276-.57204.081791-1.062289.245374-1.552537.408457-6.210149,1.71612-10.540596,6.537314-11.92955,12.338506l-3.186866,7.680895-40.855717,99.606259c-5.14786,12.502089-5.311443,26.474425-.653831,39.058305.081791.163084.081791.326666.163582.408457.326666.816915.653332,1.71612,1.062289,2.533035.408457.980497.898706,1.960995,1.388955,2.941492l90.046161,175.271127c4.003781,7.92577,10.785471,13.563879,18.466365,16.587162.245374.081791.490249.163582.735622.327165,1.225871.490249,2.614826.980497,4.085572,1.388955.57204.163582,1.307164.326666,2.042786.490249,5.7199.898706,11.766467.490249,17.568158-1.470746l94.866856-32.684574,136.294613-46.902284c3.758906-1.307662,7.108855-3.268657,9.968556-5.801691.490249-.408457,1.062289-.898706,1.552537-1.388955,0-.081791.081791-.081791.081791-.081791.327165-.326666.653831-.653831.898706-.980497,7.926269-8.579601,10.459303-21.490147,5.311443-32.929449Z"/>
    <path class="st7" d="M561.944525,72.493502c4.330945-5.801691-.081293-17.486367-.081293-17.486367l-53.112433-121.667947c-.57204.653332-1.225871,1.307164-1.961493,1.879203-.081293.081791-.163084.163582-.244875.244875-.735622.653831-1.634328,1.225871-2.533035,1.71612-15.607163,8.824975-41.754423,22.143978-77.135614,35.626066-3.677114,1.389453-7.272437,2.696617-10.86776,3.922488-3.595323,1.225372-7.190646,2.451243-10.704178,3.513532-7.027064,2.20587-13.809252,4.167363-20.346067,5.801193-3.268657.817414-6.455024,1.552537-9.560098,2.28816-4.003781.898706-7.844477,1.715621-11.521592,2.451243-4.657612.898706-9.151641,1.71612-13.237213,2.369452-.326666.081791-.57204.081791-.898706.163582-5.229652.816915-9.968556,1.552537-14.21771,2.042786-3.840697.490249-7.680895.245374-11.276218-.735124-.490249-.081791-.980497-.245374-1.470746-.490747-.898706-.244875-1.71612-.490249-2.614826-.898706-.326666-.081791-.653831-.244875-.980497-.408457-1.062289-.490249-2.124577-1.062289-3.105074-1.71612-1.225871-.653332-2.369452-1.470746-3.431741-2.369452s-2.042786-1.797412-3.023283-2.859701c-.899205-.899205-1.634328-1.879702-2.451742-2.860199l-24.431639,155.415309s-.081791.244875-.081791.816915c-.163084,1.470746-.326666,4.902985.899205,8.743183.571541,1.71612,1.388955,3.513532,2.533035,5.229652,0,0,0,.081791.081293.163582.57204.816915,1.225871,1.552537,2.042786,2.287661.408956.408457.899205.817414,1.389453,1.307662.490249.326666.898706.653332,1.388955.980497.816915.57204,1.797911,1.143581,2.859701,1.63383-7.680895-3.023283-14.462585-8.661392-18.466365-16.587162L185.336801-32.260617c-.490249-.980497-.980497-1.960995-1.388955-2.941492-.408956-.816915-.735622-1.71612-1.062289-2.533035-.081791-.081791-.081791-.245374-.163582-.408457-5.14786-15.93383,1.634328-33.420196,1.634328-33.420196l41.182384-101.975711,1.307662-3.268657.408457-.081791c.244875,1.470746.816915,2.941991,1.552537,4.412737L306.187834-23.517434c.899205,1.797911,1.960995,3.431741,3.350448,4.984278,6.210149,8.00806,16.342287,12.256715,26.7193,11.031343,3.514031-.408956,7.517811-.980497,11.766467-1.634328,20.101193-3.186866,47.719697-9.06985,77.462779-20.427859,34.563777-13.155421,60.057705-26.22955,75.337704-34.72736,2.614826-1.470746,4.821194-3.513532,6.455523-5.801691,2.451243-3.431741,3.758407-7.599104,3.676616-11.848258,0-2.20587-.408457-4.412238-1.225372-6.618606l2.614826,5.883483,1.879203,4.167363,53.030641,118.073123c5.14786,11.439302,2.614826,24.349848-5.311443,32.929449Z"/>
    <path class="st5" d="M561.944525,72.493502c-.244875.326666-.571541.653831-.898706.980497,0,0-.081791,0-.081791.081791-.490249.490249-1.062289.980497-1.552537,1.388955-2.859701,2.533035-6.20965,4.494029-9.968556,5.801691l-136.294613,46.902284-94.866856,32.684574c-5.801691,1.960995-11.848258,2.369452-17.568158,1.470746-.735622-.163582-1.470746-.326666-2.042786-.490249-1.470746-.408457-2.859701-.898706-4.085572-1.388955-.245374-.163582-.490249-.245374-.735622-.327165-1.06179-.490249-2.042786-1.06179-2.859701-1.63383-.490249-.327165-.898706-.653831-1.388955-.980497-.490249-.490249-.980497-.899205-1.389453-1.307662-.816915-.735124-1.470746-1.470746-2.042786-2.287661-.081293-.081791-.081293-.163582-.081293-.163582-1.14408-1.71612-1.961493-3.513532-2.533035-5.229652-1.225871-3.840198-1.062289-7.272437-.899205-8.743183,0-.57204.081791-.816915.081791-.816915l24.431639-155.415309c.817414.980497,1.552537,1.960995,2.451742,2.860199.980497,1.062289,1.960995,1.960995,3.023283,2.859701s2.20587,1.71612,3.431741,2.369452c.980497.653831,2.042786,1.225871,3.105074,1.71612.326666.163582.653831.326666.980497.408457.898706.408457,1.71612.653831,2.614826.898706.490249.245374.980497.408956,1.470746.490747,3.595323.980497,7.435521,1.225372,11.276218.735124,4.249154-.490249,8.988058-1.225871,14.21771-2.042786.326666-.081791.57204-.081791.898706-.163582,4.085572-.653332,8.579601-1.470746,13.237213-2.369452,3.677114-.735622,7.517811-1.552537,11.521592-2.451243,3.105074-.653831,6.291441-1.470746,9.560098-2.28816,6.536815-1.63383,13.319004-3.595323,20.346067-5.801193,3.513532-1.062289,7.108855-2.206368,10.704178-3.513532,3.595323-1.225871,7.190646-2.533035,10.86776-3.922488,35.381191-13.482088,61.528451-26.801091,77.135614-35.626066.898706-.490249,1.797412-1.062289,2.533035-1.71612.081791-.081293.163582-.163084.244875-.244875.735622-.57204,1.471245-1.225871,1.961493-1.879203l53.112433,121.667947s4.412238,11.684675.081293,17.486367Z"/>
    <path class="st2" d="M786.729157,257.163357l-53.030641-118.073123-1.879203-4.167363-2.614826-5.883483c-.327165-.735124-.57204-1.470746-.980497-2.20587-16.914327-32.684574-54.746761-105.816408-75.501785-143.567051-7.108855-12.910546-22.797311-18.303282-36.36119-12.665173-23.451142,9.886764-58.750542,24.186266-76.890739,29.497708,0,0-45.513329,14.21771-79.096609,20.264276-.57204.081791-1.062289.245374-1.552537.408457-6.210149,1.71612-10.540596,6.537314-11.92955,12.338506l-3.186866,7.680895-40.855717,99.606259c-5.14786,12.502089-5.311443,26.474425-.653831,39.058305.081791.163084.081791.326666.163582.408457.326666.816915.653332,1.71612,1.062289,2.533035.408457.980497.898706,1.960995,1.388955,2.941492l90.046161,175.271127c4.003781,7.92577,10.785471,13.563879,18.466365,16.587162.245374.081791.490249.163582.735622.327165,1.225871.490249,2.614826.980497,4.085572,1.388955.57204.163582,1.307164.326666,2.042786.490249,5.7199.898706,11.766467.490249,17.568158-1.470746l94.866856-32.684574,136.294613-46.902284c3.758906-1.307662,7.108855-3.268657,9.968556-5.801691.490249-.408457,1.062289-.898706,1.552537-1.388955,0-.081791.081791-.081791.081791-.081791.327165-.326666.653831-.653831.898706-.980497,7.926269-8.579601,10.459303-21.490147,5.311443-32.929449Z"/>
    <path class="st7" d="M781.417714,290.092806c4.330945-5.801691-.081293-17.486367-.081293-17.486367l-53.112433-121.667947c-.57204.653332-1.225871,1.307164-1.961493,1.879203-.081293.081791-.163084.163582-.244875.244875-.735622.653831-1.634328,1.225871-2.533035,1.71612-15.607163,8.824975-41.754423,22.143978-77.135614,35.626066-3.677114,1.389453-7.272437,2.696617-10.86776,3.922488-3.595323,1.225372-7.190646,2.451243-10.704178,3.513532-7.027064,2.20587-13.809252,4.167363-20.346067,5.801193-3.268657.817414-6.455024,1.552537-9.560098,2.28816-4.003781.898706-7.844477,1.715621-11.521592,2.451243-4.657612.898706-9.151641,1.71612-13.237213,2.369452-.326666.081791-.57204.081791-.898706.163582-5.229652.816915-9.968556,1.552537-14.21771,2.042786-3.840697.490249-7.680895.245374-11.276218-.735124-.490249-.081791-.980497-.245374-1.470746-.490747-.898706-.244875-1.71612-.490249-2.614826-.898706-.326666-.081791-.653831-.244875-.980497-.408457-1.062289-.490249-2.124577-1.062289-3.105074-1.71612-1.225871-.653332-2.369452-1.470746-3.431741-2.369452s-2.042786-1.797412-3.023283-2.859701c-.899205-.899205-1.634328-1.879702-2.451742-2.860199l-24.431639,155.415309s-.081791.244875-.081791.816915c-.163084,1.470746-.326666,4.902985.899205,8.743183.571541,1.71612,1.388955,3.513532,2.533035,5.229652,0,0,0,.081791.081293.163582.57204.816915,1.225871,1.552537,2.042786,2.287661.408956.408457.899205.817414,1.389453,1.307662.490249.326666.898706.653332,1.388955.980497.816915.57204,1.797911,1.143581,2.859701,1.63383-7.680895-3.023283-14.462585-8.661392-18.466365-16.587162l-90.046161-175.271127c-.490249-.980497-.980497-1.960995-1.388955-2.941492-.408956-.816915-.735622-1.71612-1.062289-2.533035-.081791-.081791-.081791-.245374-.163582-.408457-5.14786-15.93383,1.634328-33.420196,1.634328-33.420196l41.182384-101.975711,1.307662-3.268657.408457-.081791c.244875,1.470746.816915,2.941991,1.552537,4.412737l77.380489,148.959786c.899205,1.797911,1.960995,3.431741,3.350448,4.984278,6.210149,8.00806,16.342287,12.256715,26.7193,11.031343,3.514031-.408956,7.517811-.980497,11.766467-1.634328,20.101193-3.186866,47.719697-9.06985,77.462779-20.427859,34.563777-13.155421,60.057705-26.22955,75.337704-34.72736,2.614826-1.470746,4.821194-3.513532,6.455523-5.801691,2.451243-3.431741,3.758407-7.599104,3.676616-11.848258,0-2.20587-.408457-4.412238-1.225372-6.618606l2.614826,5.883483,1.879203,4.167363,53.030641,118.073123c5.14786,11.439302,2.614826,24.349848-5.311443,32.929449Z"/>
    <path class="st5" d="M781.417714,290.092806c-.244875.326666-.571541.653831-.898706.980497,0,0-.081791,0-.081791.081791-.490249.490249-1.062289.980497-1.552537,1.388955-2.859701,2.533035-6.20965,4.494029-9.968556,5.801691l-136.294613,46.902284-94.866856,32.684574c-5.801691,1.960995-11.848258,2.369452-17.568158,1.470746-.735622-.163582-1.470746-.326666-2.042786-.490249-1.470746-.408457-2.859701-.898706-4.085572-1.388955-.245374-.163582-.490249-.245374-.735622-.327165-1.06179-.490249-2.042786-1.06179-2.859701-1.63383-.490249-.327165-.898706-.653831-1.388955-.980497-.490249-.490249-.980497-.899205-1.389453-1.307662-.816915-.735124-1.470746-1.470746-2.042786-2.287661-.081293-.081791-.081293-.163582-.081293-.163582-1.14408-1.71612-1.961493-3.513532-2.533035-5.229652-1.225871-3.840198-1.062289-7.272437-.899205-8.743183,0-.57204.081791-.816915.081791-.816915l24.431639-155.415309c.817414.980497,1.552537,1.960995,2.451742,2.860199.980497,1.062289,1.960995,1.960995,3.023283,2.859701s2.20587,1.71612,3.431741,2.369452c.980497.653831,2.042786,1.225871,3.105074,1.71612.326666.163582.653831.326666.980497.408457.898706.408457,1.71612.653831,2.614826.898706.490249.245374.980497.408956,1.470746.490747,3.595323.980497,7.435521,1.225372,11.276218.735124,4.249154-.490249,8.988058-1.225871,14.21771-2.042786.326666-.081791.57204-.081791.898706-.163582,4.085572-.653332,8.579601-1.470746,13.237213-2.369452,3.677114-.735622,7.517811-1.552537,11.521592-2.451243,3.105074-.653831,6.291441-1.470746,9.560098-2.28816,6.536815-1.63383,13.319004-3.595323,20.346067-5.801193,3.513532-1.062289,7.108855-2.206368,10.704178-3.513532,3.595323-1.225871,7.190646-2.533035,10.86776-3.922488,35.381191-13.482088,61.528451-26.801091,77.135614-35.626066.898706-.490249,1.797412-1.062289,2.533035-1.71612.081791-.081293.163582-.163084.244875-.244875.735622-.57204,1.471245-1.225871,1.961493-1.879203l53.112433,121.667947s4.412238,11.684675.081293,17.486367Z"/>
    <path class="st2" d="M730.429858,135.657995c.081791,4.249154-1.225372,8.416517-3.676616,11.848258-1.634328,2.28816-3.840697,4.330945-6.455523,5.801691-15.279998,8.49781-40.773926,21.571938-75.337704,34.72736-29.743082,11.358009-57.361587,17.240993-77.462779,20.427859-4.248655.653831-8.252436,1.225372-11.766467,1.634328-10.377013,1.225372-20.509151-3.023283-26.7193-11.031343-1.389453-1.552537-2.451243-3.186367-3.350448-4.984278l-77.380489-148.959786c-.735622-1.470746-1.307662-2.941991-1.552537-4.412737l-.408457.081791-1.307662,3.268657-41.182384,101.975711s-6.782189,17.486367-1.634328,33.420196c-4.657612-12.58388-4.494029-26.556216.653831-39.058305l40.855717-99.606259,3.186866-7.680895c1.388955-5.801193,5.719401-10.622387,11.92955-12.338506.490249-.163084.980497-.326666,1.552537-.408457C493.956946,14.316714,539.470275.099004,539.470275.099004c18.140198-5.311443,53.439598-19.610944,76.890739-29.497708,13.563879-5.638109,29.252335-.245374,36.36119,12.665173,20.755024,37.750643,58.587458,110.882477,75.501785,143.567051.408457.735124.653332,1.470746.980497,2.20587.816915,2.206368,1.225372,4.412737,1.225372,6.618606Z"/>
    <path class="st2" d="M162.396201,473.924391l-53.030641-118.073123-1.879203-4.167363-2.614826-5.883483c-.327165-.735124-.57204-1.470746-.980497-2.20587-16.914327-32.684574-54.746761-105.816408-75.501785-143.567051-7.108855-12.910546-22.797311-18.303282-36.36119-12.665173-23.451142,9.886764-58.750542,24.186266-76.890739,29.497708,0,0-45.513329,14.21771-79.096609,20.264276-.57204.081791-1.062289.245374-1.552537.408457-6.210149,1.71612-10.540596,6.537314-11.92955,12.338506l-3.186866,7.680895-40.855717,99.606259c-5.14786,12.502089-5.311443,26.474425-.653831,39.058305.081791.163084.081791.326666.163582.408457.326666.816915.653332,1.71612,1.062289,2.533035.408457.980497.898706,1.960995,1.388955,2.941492l90.046161,175.271127c4.003781,7.92577,10.785471,13.563879,18.466365,16.587162.245374.081791.490249.163582.735622.327165,1.225871.490249,2.614826.980497,4.085572,1.388955.57204.163582,1.307164.326666,2.042786.490249,5.7199.898706,11.766467.490249,17.568158-1.470746l94.866856-32.684574,136.294613-46.902284c3.758906-1.307662,7.108855-3.268657,9.968556-5.801691.490249-.408457,1.062289-.898706,1.552537-1.388955,0-.081791.081791-.081791.081791-.081791.327165-.326666.653831-.653831.898706-.980497,7.926269-8.579601,10.459303-21.490147,5.311443-32.929449Z"/>
    <path class="st7" d="M157.084758,506.85384c4.330945-5.801691-.081293-17.486367-.081293-17.486367l-53.112433-121.667947c-.57204.653332-1.225871,1.307164-1.961493,1.879203-.081293.081791-.163084.163582-.244875.244875-.735622.653831-1.634328,1.225871-2.533035,1.71612-15.607163,8.824975-41.754423,22.143978-77.135614,35.626066-3.677114,1.389453-7.272437,2.696617-10.86776,3.922488-3.595323,1.225372-7.190646,2.451243-10.704178,3.513532-7.027064,2.20587-13.809252,4.167363-20.346067,5.801193-3.268657.817414-6.455024,1.552537-9.560098,2.28816-4.003781.898706-7.844477,1.715621-11.521592,2.451243-4.657612.898706-9.151641,1.71612-13.237213,2.369452-.326666.081791-.57204.081791-.898706.163582-5.229652.816915-9.968556,1.552537-14.21771,2.042786-3.840697.490249-7.680895.245374-11.276218-.735124-.490249-.081791-.980497-.245374-1.470746-.490747-.898706-.244875-1.71612-.490249-2.614826-.898706-.326666-.081791-.653831-.244875-.980497-.408457-1.062289-.490249-2.124577-1.062289-3.105074-1.71612-1.225871-.653332-2.369452-1.470746-3.431741-2.369452s-2.042786-1.797412-3.023283-2.859701c-.899205-.899205-1.634328-1.879702-2.451742-2.860199l-24.431639,155.415309s-.081791.244875-.081791.816915c-.163084,1.470746-.326666,4.902985.899205,8.743183.571541,1.71612,1.388955,3.513532,2.533035,5.229652,0,0,0,.081791.081293.163582.57204.816915,1.225871,1.552537,2.042786,2.287661.408956.408457.899205.817414,1.389453,1.307662.490249.326666.898706.653332,1.388955.980497.816915.57204,1.797911,1.143581,2.859701,1.63383-7.680895-3.023283-14.462585-8.661392-18.466365-16.587162l-90.046161-175.271127c-.490249-.980497-.980497-1.960995-1.388955-2.941492-.408956-.816915-.735622-1.71612-1.062289-2.533035-.081791-.081791-.081791-.245374-.163582-.408457-5.14786-15.93383,1.634328-33.420196,1.634328-33.420196l41.182384-101.975711,1.307662-3.268657.408457-.081791c.244875,1.470746.816915,2.941991,1.552537,4.412737l77.380489,148.959786c.899205,1.797911,1.960995,3.431741,3.350448,4.984278,6.210149,8.00806,16.342287,12.256715,26.7193,11.031343,3.514031-.408956,7.517811-.980497,11.766467-1.634328,20.101193-3.186866,47.719697-9.06985,77.462779-20.427859,34.563777-13.155421,60.057705-26.22955,75.337704-34.72736,2.614826-1.470746,4.821194-3.513532,6.455523-5.801691,2.451243-3.431741,3.758407-7.599104,3.676616-11.848258,0-2.20587-.408457-4.412238-1.225372-6.618606l2.614826,5.883483,1.879203,4.167363,53.030641,118.073123c5.14786,11.439302,2.614826,24.349848-5.311443,32.929449Z"/>
    <path class="st5" d="M157.084758,506.85384c-.244875.326666-.571541.653831-.898706.980497,0,0-.081791,0-.081791.081791-.490249.490249-1.062289.980497-1.552537,1.388955-2.859701,2.533035-6.20965,4.494029-9.968556,5.801691l-136.294613,46.902284-94.866856,32.684574c-5.801691,1.960995-11.848258,2.369452-17.568158,1.470746-.735622-.163582-1.470746-.326666-2.042786-.490249-1.470746-.408457-2.859701-.898706-4.085572-1.388955-.245374-.163582-.490249-.245374-.735622-.327165-1.06179-.490249-2.042786-1.06179-2.859701-1.63383-.490249-.327165-.898706-.653831-1.388955-.980497-.490249-.490249-.980497-.899205-1.389453-1.307662-.816915-.735124-1.470746-1.470746-2.042786-2.287661-.081293-.081791-.081293-.163582-.081293-.163582-1.14408-1.71612-1.961493-3.513532-2.533035-5.229652-1.225871-3.840198-1.062289-7.272437-.899205-8.743183,0-.57204.081791-.816915.081791-.816915l24.431639-155.415309c.817414.980497,1.552537,1.960995,2.451742,2.860199.980497,1.062289,1.960995,1.960995,3.023283,2.859701s2.20587,1.71612,3.431741,2.369452c.980497.653831,2.042786,1.225871,3.105074,1.71612.326666.163582.653831.326666.980497.408457.898706.408457,1.71612.653831,2.614826.898706.490249.245374.980497.408956,1.470746.490747,3.595323.980497,7.435521,1.225372,11.276218.735124,4.249154-.490249,8.988058-1.225871,14.21771-2.042786.326666-.081791.57204-.081791.898706-.163582,4.085572-.653332,8.579601-1.470746,13.237213-2.369452,3.677114-.735622,7.517811-1.552537,11.521592-2.451243,3.105074-.653831,6.291441-1.470746,9.560098-2.28816,6.536815-1.63383,13.319004-3.595323,20.346067-5.801193,3.513532-1.062289,7.108855-2.206368,10.704178-3.513532,3.595323-1.225871,7.190646-2.533035,10.86776-3.922488,35.381191-13.482088,61.528451-26.801091,77.135614-35.626066.898706-.490249,1.797412-1.062289,2.533035-1.71612.081791-.081293.163582-.163084.244875-.244875.735622-.57204,1.471245-1.225871,1.961493-1.879203l53.112433,121.667947s4.412238,11.684675.081293,17.486367Z"/>
    <path class="st2" d="M106.096902,352.419029c.081791,4.249154-1.225372,8.416517-3.676616,11.848258-1.634328,2.28816-3.840697,4.330945-6.455523,5.801691-15.279998,8.49781-40.773926,21.571938-75.337704,34.72736-29.743082,11.358009-57.361587,17.240993-77.462779,20.427859-4.248655.653831-8.252436,1.225372-11.766467,1.634328-10.377013,1.225372-20.509151-3.023283-26.7193-11.031343-1.389453-1.552537-2.451243-3.186367-3.350448-4.984278l-77.380489-148.959786c-.735622-1.470746-1.307662-2.941991-1.552537-4.412737l-.408457.081791-1.307662,3.268657-41.182384,101.975711s-6.782189,17.486367-1.634328,33.420196c-4.657612-12.58388-4.494029-26.556216.653831-39.058305l40.855717-99.606259,3.186866-7.680895c1.388955-5.801193,5.719401-10.622387,11.92955-12.338506.490249-.163084.980497-.326666,1.552537-.408457,33.58328-6.046566,79.096609-20.264276,79.096609-20.264276,18.140198-5.311443,53.439598-19.610944,76.890739-29.497708,13.563879-5.638109,29.252335-.245374,36.36119,12.665173,20.755024,37.750643,58.587458,110.882477,75.501785,143.567051.408457.735124.653332,1.470746.980497,2.20587.816915,2.206368,1.225372,4.412737,1.225372,6.618606Z"/>
    <path class="st3" d="M475.588336,365.003886l-53.030641-118.073123-1.879203-4.167363-2.614826-5.883483c-.327165-.735124-.57204-1.470746-.980497-2.20587-16.914327-32.684574-54.746761-105.816408-75.501785-143.567051-7.108855-12.910546-22.797311-18.303282-36.36119-12.665173-23.451142,9.886764-58.750542,24.186266-76.890739,29.497708,0,0-45.513329,14.21771-79.096609,20.264276-.57204.081791-1.062289.245374-1.552537.408457-6.210149,1.71612-10.540596,6.537314-11.92955,12.338506l-3.186866,7.680895-40.855717,99.606259c-5.14786,12.502089-5.311443,26.474425-.653831,39.058305.081791.163084.081791.326666.163582.408457.326666.816915.653332,1.71612,1.062289,2.533035.408457.980497.898706,1.960995,1.388955,2.941492l90.046161,175.271127c4.003781,7.92577,10.785471,13.563879,18.466365,16.587162.245374.081791.490249.163582.735622.327165,1.225871.490249,2.614826.980497,4.085572,1.388955.57204.163582,1.307164.326666,2.042786.490249,5.7199.898706,11.766467.490249,17.568158-1.470746l94.866856-32.684574,136.294613-46.902284c3.758906-1.307662,7.108855-3.268657,9.968556-5.801691.490249-.408457,1.062289-.898706,1.552537-1.388955,0-.081791.081791-.081791.081791-.081791.327165-.326666.653831-.653831.898706-.980497,7.926269-8.579601,10.459303-21.490147,5.311443-32.929449Z"/>
    <path class="st6" d="M470.276893,397.933335c4.330945-5.801691-.081293-17.486367-.081293-17.486367l-53.112433-121.667947c-.57204.653332-1.225871,1.307164-1.961493,1.879203-.081293.081791-.163084.163582-.244875.244875-.735622.653831-1.634328,1.225871-2.533035,1.71612-15.607163,8.824975-41.754423,22.143978-77.135614,35.626066-3.677114,1.389453-7.272437,2.696617-10.86776,3.922488-3.595323,1.225372-7.190646,2.451243-10.704178,3.513532-7.027064,2.20587-13.809252,4.167363-20.346067,5.801193-3.268657.817414-6.455024,1.552537-9.560098,2.28816-4.003781.898706-7.844477,1.715621-11.521592,2.451243-4.657612.898706-9.151641,1.71612-13.237213,2.369452-.326666.081791-.57204.081791-.898706.163582-5.229652.816915-9.968556,1.552537-14.21771,2.042786-3.840697.490249-7.680895.245374-11.276218-.735124-.490249-.081791-.980497-.245374-1.470746-.490747-.898706-.244875-1.71612-.490249-2.614826-.898706-.326666-.081791-.653831-.244875-.980497-.408457-1.062289-.490249-2.124577-1.062289-3.105074-1.71612-1.225871-.653332-2.369452-1.470746-3.431741-2.369452-1.062289-.898706-2.042786-1.797412-3.023283-2.859701-.899205-.899205-1.634328-1.879702-2.451742-2.860199l-24.431639,155.415309s-.081791.244875-.081791.816915c-.163084,1.470746-.326666,4.902985.899205,8.743183.571541,1.71612,1.388955,3.513532,2.533035,5.229652,0,0,0,.081791.081293.163582.57204.816915,1.225871,1.552537,2.042786,2.287661.408956.408457.899205.817414,1.389453,1.307662.490249.326666.898706.653332,1.388955.980497.816915.57204,1.797911,1.143581,2.859701,1.63383-7.680895-3.023283-14.462585-8.661392-18.466365-16.587162l-90.046161-175.271127c-.490249-.980497-.980497-1.960995-1.388955-2.941492-.408956-.816915-.735622-1.71612-1.062289-2.533035-.081791-.081791-.081791-.245374-.163582-.408457-5.14786-15.93383,1.634328-33.420196,1.634328-33.420196l41.182384-101.975711,1.307662-3.268657.408457-.081791c.244875,1.470746.816915,2.941991,1.552537,4.412737l77.380489,148.959786c.899205,1.797911,1.960995,3.431741,3.350448,4.984278,6.210149,8.00806,16.342287,12.256715,26.7193,11.031343,3.514031-.408956,7.517811-.980497,11.766467-1.634328,20.101193-3.186866,47.719697-9.06985,77.462779-20.427859,34.563777-13.155421,60.057705-26.22955,75.337704-34.72736,2.614826-1.470746,4.821194-3.513532,6.455523-5.801691,2.451243-3.431741,3.758407-7.599104,3.676616-11.848258,0-2.20587-.408457-4.412238-1.225372-6.618606l2.614826,5.883483,1.879203,4.167363,53.030641,118.073123c5.14786,11.439302,2.614826,24.349848-5.311443,32.929449Z"/>
    <path class="st1" d="M470.276893,397.933335c-.244875.326666-.571541.653831-.898706.980497,0,0-.081791,0-.081791.081791-.490249.490249-1.062289.980497-1.552537,1.388955-2.859701,2.533035-6.20965,4.494029-9.968556,5.801691l-136.294613,46.902284-94.866856,32.684574c-5.801691,1.960995-11.848258,2.369452-17.568158,1.470746-.735622-.163582-1.470746-.326666-2.042786-.490249-1.470746-.408457-2.859701-.898706-4.085572-1.388955-.245374-.163582-.490249-.245374-.735622-.327165-1.06179-.490249-2.042786-1.06179-2.859701-1.63383-.490249-.327165-.898706-.653831-1.388955-.980497-.490249-.490249-.980497-.899205-1.389453-1.307662-.816915-.735124-1.470746-1.470746-2.042786-2.287661-.081293-.081791-.081293-.163582-.081293-.163582-1.14408-1.71612-1.961493-3.513532-2.533035-5.229652-1.225871-3.840198-1.062289-7.272437-.899205-8.743183,0-.57204.081791-.816915.081791-.816915l24.431639-155.415309c.817414.980497,1.552537,1.960995,2.451742,2.860199.980497,1.062289,1.960995,1.960995,3.023283,2.859701,1.062289.898706,2.20587,1.71612,3.431741,2.369452.980497.653831,2.042786,1.225871,3.105074,1.71612.326666.163582.653831.326666.980497.408457.898706.408457,1.71612.653831,2.614826.898706.490249.245374.980497.408956,1.470746.490747,3.595323.980497,7.435521,1.225372,11.276218.735124,4.249154-.490249,8.988058-1.225871,14.21771-2.042786.326666-.081791.57204-.081791.898706-.163582,4.085572-.653332,8.579601-1.470746,13.237213-2.369452,3.677114-.735622,7.517811-1.552537,11.521592-2.451243,3.105074-.653831,6.291441-1.470746,9.560098-2.28816,6.536815-1.63383,13.319004-3.595323,20.346067-5.801193,3.513532-1.062289,7.108855-2.206368,10.704178-3.513532,3.595323-1.225871,7.190646-2.533035,10.86776-3.922488,35.381191-13.482088,61.528451-26.801091,77.135614-35.626066.898706-.490249,1.797412-1.062289,2.533035-1.71612.081791-.081293.163582-.163084.244875-.244875.735622-.57204,1.471245-1.225871,1.961493-1.879203l53.112433,121.667947s4.412238,11.684675.081293,17.486367Z"/>
    <path class="st3" d="M419.289038,243.498524c.081791,4.249154-1.225372,8.416517-3.676616,11.848258-1.634328,2.28816-3.840697,4.330945-6.455523,5.801691-15.279998,8.49781-40.773926,21.571938-75.337704,34.72736-29.743082,11.358009-57.361587,17.240993-77.462779,20.427859-4.248655.653831-8.252436,1.225372-11.766467,1.634328-10.377013,1.225372-20.509151-3.023283-26.7193-11.031343-1.389453-1.552537-2.451243-3.186367-3.350448-4.984278l-77.380489-148.959786c-.735622-1.470746-1.307662-2.941991-1.552537-4.412737l-.408457.081791-1.307662,3.268657-41.182384,101.975711s-6.782189,17.486367-1.634328,33.420196c-4.657612-12.58388-4.494029-26.556216.653831-39.058305l40.855717-99.606259,3.186866-7.680895c1.388955-5.801193,5.719401-10.622387,11.92955-12.338506.490249-.163084.980497-.326666,1.552537-.408457,33.58328-6.046566,79.096609-20.264276,79.096609-20.264276,18.140198-5.311443,53.439598-19.610944,76.890739-29.497708,13.563879-5.638109,29.252335-.245374,36.36119,12.665173,20.755024,37.750643,58.587458,110.882477,75.501785,143.567051.408457.735124.653332,1.470746.980497,2.20587.816915,2.206368,1.225372,4.412737,1.225372,6.618606Z"/>
    <path class="st8" d="M293.058397,178.046681l-16.319927,66.81008c-1.612859,6.602679-11.388602,7.524985-16.424119,5.120428-4.278324-2.042983-7.081532-6.056645-5.885676-10.970993l19.392677-79.693864c1.964926-8.074828,11.818099-9.51879,18.25817-5.978137l81.845317,44.997312c3.896432,2.142199,5.342265,6.789128,4.32881,10.768499-3.227011,7.430595-11.733987,10.128517-18.509022,5.639711l-66.68623-36.693036Z"/>
    <path class="st4" d="M236.257744,257.122598c-1.345193,5.71594-8.062751,7.222284-12.271529,7.021501-3.798153-.181194-11.863494-4.245458-10.567982-9.644285l19.51246-81.3149c1.337623-5.57432,7.262104-7.874876,11.961679-7.594366,4.213514.251498,11.979704,3.938432,10.544739,10.035829l-19.179368,81.496221Z"/>
    <path class="st2" d="M433.708383,677.004029l-53.030641-118.073123-1.879203-4.167363-2.614826-5.883483c-.327165-.735124-.57204-1.470746-.980497-2.20587-16.914327-32.684574-54.746761-105.816408-75.501785-143.567051-7.108855-12.910546-22.797311-18.303282-36.36119-12.665173-23.451142,9.886764-58.750542,24.186266-76.890739,29.497708,0,0-45.513329,14.21771-79.096609,20.264276-.57204.081791-1.062289.245374-1.552537.408457-6.210149,1.71612-10.540596,6.537314-11.92955,12.338506l-3.186866,7.680895-40.855717,99.606259c-5.14786,12.502089-5.311443,26.474425-.653831,39.058305.081791.163084.081791.326666.163582.408457.326666.816915.653332,1.71612,1.062289,2.533035.408457.980497.898706,1.960995,1.388955,2.941492l90.046161,175.271127c4.003781,7.92577,10.785471,13.563879,18.466365,16.587162.245374.081791.490249.163582.735622.327165,1.225871.490249,2.614826.980497,4.085572,1.388955.57204.163582,1.307164.326666,2.042786.490249,5.7199.898706,11.766467.490249,17.568158-1.470746l94.866856-32.684574,136.294613-46.902284c3.758906-1.307662,7.108855-3.268657,9.968556-5.801691.490249-.408457,1.062289-.898706,1.552537-1.388955,0-.081791.081791-.081791.081791-.081791.327165-.326666.653831-.653831.898706-.980497,7.926269-8.579601,10.459303-21.490147,5.311443-32.929449Z"/>
    <path class="st7" d="M428.396941,709.933478c4.330945-5.801691-.081293-17.486367-.081293-17.486367l-53.112433-121.667947c-.57204.653332-1.225871,1.307164-1.961493,1.879203-.081293.081791-.163084.163582-.244875.244875-.735622.653831-1.634328,1.225871-2.533035,1.71612-15.607163,8.824975-41.754423,22.143978-77.135614,35.626066-3.677114,1.389453-7.272437,2.696617-10.86776,3.922488-3.595323,1.225372-7.190646,2.451243-10.704178,3.513532-7.027064,2.20587-13.809252,4.167363-20.346067,5.801193-3.268657.817414-6.455024,1.552537-9.560098,2.28816-4.003781.898706-7.844477,1.715621-11.521592,2.451243-4.657612.898706-9.151641,1.71612-13.237213,2.369452-.326666.081791-.57204.081791-.898706.163582-5.229652.816915-9.968556,1.552537-14.21771,2.042786-3.840697.490249-7.680895.245374-11.276218-.735124-.490249-.081791-.980497-.245374-1.470746-.490747-.898706-.244875-1.71612-.490249-2.614826-.898706-.326666-.081791-.653831-.244875-.980497-.408457-1.062289-.490249-2.124577-1.062289-3.105074-1.71612-1.225871-.653332-2.369452-1.470746-3.431741-2.369452-1.062289-.898706-2.042786-1.797412-3.023283-2.859701-.899205-.899205-1.634328-1.879702-2.451742-2.860199l-24.431639,155.415309s-.081791.244875-.081791.816915c-.163084,1.470746-.326666,4.902985.899205,8.743183.571541,1.71612,1.388955,3.513532,2.533035,5.229652,0,0,0,.081791.081293.163582.57204.816915,1.225871,1.552537,2.042786,2.287661.408956.408457.899205.817414,1.389453,1.307662.490249.326666.898706.653332,1.388955.980497.816915.57204,1.797911,1.143581,2.859701,1.63383-7.680895-3.023283-14.462585-8.661392-18.466365-16.587162l-90.046161-175.271127c-.490249-.980497-.980497-1.960995-1.388955-2.941492-.408956-.816915-.735622-1.71612-1.062289-2.533035-.081791-.081791-.081791-.245374-.163582-.408457-5.14786-15.93383,1.634328-33.420196,1.634328-33.420196l41.182384-101.975711,1.307662-3.268657.408457-.081791c.244875,1.470746.816915,2.941991,1.552537,4.412737l77.380489,148.959786c.899205,1.797911,1.960995,3.431741,3.350448,4.984278,6.210149,8.00806,16.342287,12.256715,26.7193,11.031343,3.514031-.408956,7.517811-.980497,11.766467-1.634328,20.101193-3.186866,47.719697-9.06985,77.462779-20.427859,34.563777-13.155421,60.057705-26.22955,75.337704-34.72736,2.614826-1.470746,4.821194-3.513532,6.455523-5.801691,2.451243-3.431741,3.758407-7.599104,3.676616-11.848258,0-2.20587-.408457-4.412238-1.225372-6.618606l2.614826,5.883483,1.879203,4.167363,53.030641,118.073123c5.14786,11.439302,2.614826,24.349848-5.311443,32.929449Z"/>
    <path class="st2" d="M377.409085,555.498666c.081791,4.249154-1.225372,8.416517-3.676616,11.848258-1.634328,2.28816-3.840697,4.330945-6.455523,5.801691-15.279998,8.49781-40.773926,21.571938-75.337704,34.72736-29.743082,11.358009-57.361587,17.240993-77.462779,20.427859-4.248655.653831-8.252436,1.225372-11.766467,1.634328-10.377013,1.225372-20.509151-3.023283-26.7193-11.031343-1.389453-1.552537-2.451243-3.186367-3.350448-4.984278l-77.380489-148.959786c-.735622-1.470746-1.307662-2.941991-1.552537-4.412737l-.408457.081791-1.307662,3.268657-41.182384,101.975711s-6.782189,17.486367-1.634328,33.420196c-4.657612-12.58388-4.494029-26.556216.653831-39.058305l40.855717-99.606259,3.186866-7.680895c1.388955-5.801193,5.719401-10.622387,11.92955-12.338506.490249-.163084.980497-.326666,1.552537-.408457,33.58328-6.046566,79.096609-20.264276,79.096609-20.264276,18.140198-5.311443,53.439598-19.610944,76.890739-29.497708,13.563879-5.638109,29.252335-.245374,36.36119,12.665173,20.755024,37.750643,58.587458,110.882477,75.501785,143.567051.408457.735124.653332,1.470746.980497,2.20587.816915,2.206368,1.225372,4.412737,1.225372,6.618606Z"/>
    <path class="st2" d="M742.165233,561.184681l-53.030641-118.073123-1.879203-4.167363-2.614826-5.883483c-.327165-.735124-.57204-1.470746-.980497-2.20587-16.914327-32.684574-54.746761-105.816408-75.501785-143.567051-7.108855-12.910546-22.797311-18.303282-36.36119-12.665173-23.451142,9.886764-58.750542,24.186266-76.890739,29.497708,0,0-45.513329,14.21771-79.096609,20.264276-.57204.081791-1.062289.245374-1.552537.408457-6.210149,1.71612-10.540596,6.537314-11.92955,12.338506l-3.186866,7.680895-40.855717,99.606259c-5.14786,12.502089-5.311443,26.474425-.653831,39.058305.081791.163084.081791.326666.163582.408457.326666.816915.653332,1.71612,1.062289,2.533035.408457.980497.898706,1.960995,1.388955,2.941492l90.046161,175.271127c4.003781,7.92577,10.785471,13.563879,18.466365,16.587162.245374.081791.490249.163582.735622.327165,1.225871.490249,2.614826.980497,4.085572,1.388955.57204.163582,1.307164.326666,2.042786.490249,5.7199.898706,11.766467.490249,17.568158-1.470746l94.866856-32.684574,136.294613-46.902284c3.758906-1.307662,7.108855-3.268657,9.968556-5.801691.490249-.408457,1.062289-.898706,1.552537-1.388955,0-.081791.081791-.081791.081791-.081791.327165-.326666.653831-.653831.898706-.980497,7.926269-8.579601,10.459303-21.490147,5.311443-32.929449Z"/>
    <path class="st7" d="M736.85379,594.11413c4.330945-5.801691-.081293-17.486367-.081293-17.486367l-53.112433-121.667947c-.57204.653332-1.225871,1.307164-1.961493,1.879203-.081293.081791-.163084.163582-.244875.244875-.735622.653831-1.634328,1.225871-2.533035,1.71612-15.607163,8.824975-41.754423,22.143978-77.135614,35.626066-3.677114,1.389453-7.272437,2.696617-10.86776,3.922488-3.595323,1.225372-7.190646,2.451243-10.704178,3.513532-7.027064,2.20587-13.809252,4.167363-20.346067,5.801193-3.268657.817414-6.455024,1.552537-9.560098,2.28816-4.003781.898706-7.844477,1.715621-11.521592,2.451243-4.657612.898706-9.151641,1.71612-13.237213,2.369452-.326666.081791-.57204.081791-.898706.163582-5.229652.816915-9.968556,1.552537-14.21771,2.042786-3.840697.490249-7.680895.245374-11.276218-.735124-.490249-.081791-.980497-.245374-1.470746-.490747-.898706-.244875-1.71612-.490249-2.614826-.898706-.326666-.081791-.653831-.244875-.980497-.408457-1.062289-.490249-2.124577-1.062289-3.105074-1.71612-1.225871-.653332-2.369452-1.470746-3.431741-2.369452s-2.042786-1.797412-3.023283-2.859701c-.899205-.899205-1.634328-1.879702-2.451742-2.860199l-24.431639,155.415309s-.081791.244875-.081791.816915c-.163084,1.470746-.326666,4.902985.899205,8.743183.571541,1.71612,1.388955,3.513532,2.533035,5.229652,0,0,0,.081791.081293.163582.57204.816915,1.225871,1.552537,2.042786,2.287661.408956.408457.899205.817414,1.389453,1.307662.490249.326666.898706.653332,1.388955.980497.816915.57204,1.797911,1.143581,2.859701,1.63383-7.680895-3.023283-14.462585-8.661392-18.466365-16.587162l-90.046161-175.271127c-.490249-.980497-.980497-1.960995-1.388955-2.941492-.408956-.816915-.735622-1.71612-1.062289-2.533035-.081791-.081791-.081791-.245374-.163582-.408457-5.14786-15.93383,1.634328-33.420196,1.634328-33.420196l41.182384-101.975711,1.307662-3.268657.408457-.081791c.244875,1.470746.816915,2.941991,1.552537,4.412737l77.380489,148.959786c.899205,1.797911,1.960995,3.431741,3.350448,4.984278,6.210149,8.00806,16.342287,12.256715,26.7193,11.031343,3.514031-.408956,7.517811-.980497,11.766467-1.634328,20.101193-3.186866,47.719697-9.06985,77.462779-20.427859,34.563777-13.155421,60.057705-26.22955,75.337704-34.72736,2.614826-1.470746,4.821194-3.513532,6.455523-5.801691,2.451243-3.431741,3.758407-7.599104,3.676616-11.848258,0-2.20587-.408457-4.412238-1.225372-6.618606l2.614826,5.883483,1.879203,4.167363,53.030641,118.073123c5.14786,11.439302,2.614826,24.349848-5.311443,32.929449Z"/>
    <path class="st5" d="M736.85379,594.11413c-.244875.326666-.571541.653831-.898706.980497,0,0-.081791,0-.081791.081791-.490249.490249-1.062289.980497-1.552537,1.388955-2.859701,2.533035-6.20965,4.494029-9.968556,5.801691l-136.294613,46.902284-94.866856,32.684574c-5.801691,1.960995-11.848258,2.369452-17.568158,1.470746-.735622-.163582-1.470746-.326666-2.042786-.490249-1.470746-.408457-2.859701-.898706-4.085572-1.388955-.245374-.163582-.490249-.245374-.735622-.327165-1.06179-.490249-2.042786-1.06179-2.859701-1.63383-.490249-.327165-.898706-.653831-1.388955-.980497-.490249-.490249-.980497-.899205-1.389453-1.307662-.816915-.735124-1.470746-1.470746-2.042786-2.287661-.081293-.081791-.081293-.163582-.081293-.163582-1.14408-1.71612-1.961493-3.513532-2.533035-5.229652-1.225871-3.840198-1.062289-7.272437-.899205-8.743183,0-.57204.081791-.816915.081791-.816915l24.431639-155.415309c.817414.980497,1.552537,1.960995,2.451742,2.860199.980497,1.062289,1.960995,1.960995,3.023283,2.859701s2.20587,1.71612,3.431741,2.369452c.980497.653831,2.042786,1.225871,3.105074,1.71612.326666.163582.653831.326666.980497.408457.898706.408457,1.71612.653831,2.614826.898706.490249.245374.980497.408956,1.470746.490747,3.595323.980497,7.435521,1.225372,11.276218.735124,4.249154-.490249,8.988058-1.225871,14.21771-2.042786.326666-.081791.57204-.081791.898706-.163582,4.085572-.653332,8.579601-1.470746,13.237213-2.369452,3.677114-.735622,7.517811-1.552537,11.521592-2.451243,3.105074-.653831,6.291441-1.470746,9.560098-2.28816,6.536815-1.63383,13.319004-3.595323,20.346067-5.801193,3.513532-1.062289,7.108855-2.206368,10.704178-3.513532,3.595323-1.225871,7.190646-2.533035,10.86776-3.922488,35.381191-13.482088,61.528451-26.801091,77.135614-35.626066.898706-.490249,1.797412-1.062289,2.533035-1.71612.081791-.081293.163582-.163084.244875-.244875.735622-.57204,1.471245-1.225871,1.961493-1.879203l53.112433,121.667947s4.412238,11.684675.081293,17.486367Z"/>
    <path class="st2" d="M685.865935,439.679318c.081791,4.249154-1.225372,8.416517-3.676616,11.848258-1.634328,2.28816-3.840697,4.330945-6.455523,5.801691-15.279998,8.49781-40.773926,21.571938-75.337704,34.72736-29.743082,11.358009-57.361587,17.240993-77.462779,20.427859-4.248655.653831-8.252436,1.225372-11.766467,1.634328-10.377013,1.225372-20.509151-3.023283-26.7193-11.031343-1.389453-1.552537-2.451243-3.186367-3.350448-4.984278l-77.380489-148.959786c-.735622-1.470746-1.307662-2.941991-1.552537-4.412737l-.408457.081791-1.307662,3.268657-41.182384,101.975711s-6.782189,17.486367-1.634328,33.420196c-4.657612-12.58388-4.494029-26.556216.653831-39.058305l40.855717-99.606259,3.186866-7.680895c1.388955-5.801193,5.719401-10.622387,11.92955-12.338506.490249-.163084.980497-.326666,1.552537-.408457,33.58328-6.046566,79.096609-20.264276,79.096609-20.264276,18.140198-5.311443,53.439598-19.610944,76.890739-29.497708,13.563879-5.638109,29.252335-.245374,36.36119,12.665173,20.755024,37.750643,58.587458,110.882477,75.501785,143.567051.408457.735124.653332,1.470746.980497,2.20587.816915,2.206368,1.225372,4.412737,1.225372,6.618606Z"/>
  </g>
</svg>