<svg xmlns="http://www.w3.org/2000/svg" viewBox="338.01 658.42 1266.44 629.87"><defs><style>.cls-1{fill:#3a3a3a;}.cls-10,.cls-13,.cls-16,.cls-17,.cls-2,.cls-6,.cls-7,.cls-9{fill:none;stroke-miterlimit:10;}.cls-16,.cls-17,.cls-2,.cls-6,.cls-7,.cls-9{stroke:#050606;}.cls-10,.cls-2{stroke-width:2.34px;}.cls-3{fill:#303a35;}.cls-4{fill:#cbcccb;}.cls-5{fill:#2d2c2b;}.cls-6{stroke-width:1.84px;}.cls-7{stroke-width:2.03px;}.cls-8{fill:#2b2b2b;}.cls-9{stroke-width:2.04px;}.cls-10,.cls-13{stroke:#fff;}.cls-11{fill:#c08c2d;}.cls-12{fill:#fff;}.cls-13{stroke-width:3.04px;}.cls-14{fill:#b7b7b7;}.cls-15{fill:#606161;}.cls-16{stroke-width:1.31px;}.cls-17{stroke-width:1.35px;}.cls-18{opacity:0.34;}.cls-19{fill:#8c8c8c;}.cls-20{fill:#aeadae;}</style></defs><g id="Layer_3" data-name="Layer 3"><path class="cls-1" d="M1572.36,659.6H370.11a30.92,30.92,0,0,0-30.93,30.92V1256.2a30.92,30.92,0,0,0,30.93,30.91H1572.36a30.91,30.91,0,0,0,30.92-30.91V690.52A30.92,30.92,0,0,0,1572.36,659.6ZM382.85,1277.52a34.86,34.86,0,1,1,34.86-34.86A34.86,34.86,0,0,1,382.85,1277.52Zm0-538a34.86,34.86,0,1,1,34.86-34.86A34.87,34.87,0,0,1,382.85,739.47Zm1175.58,538.05a34.86,34.86,0,1,1,34.86-34.86A34.86,34.86,0,0,1,1558.43,1277.52Zm0-538a34.86,34.86,0,1,1,34.86-34.86A34.87,34.87,0,0,1,1558.43,739.47Z"></path><path class="cls-2" d="M417.71,1242.66a34.87,34.87,0,1,1-34.86-34.86A34.86,34.86,0,0,1,417.71,1242.66Z"></path><path class="cls-2" d="M417.71,704.61a34.87,34.87,0,1,1-34.86-34.86A34.86,34.86,0,0,1,417.71,704.61Z"></path><path class="cls-2" d="M1593.29,1242.66a34.87,34.87,0,1,1-34.86-34.86A34.86,34.86,0,0,1,1593.29,1242.66Z"></path><path class="cls-2" d="M1523.55,704.61a34.87,34.87,0,1,1,34.88,34.86A34.87,34.87,0,0,1,1523.55,704.61Z"></path><polygon class="cls-3" points="1603.28 1184.3 1455.19 1184.3 1455.19 1175.78 1455.19 782.04 1455.19 770.75 1603.28 770.75 1603.28 1184.3"></polygon><path class="cls-4" d="M339.18,892H456v41.36H451.3a4.51,4.51,0,0,1-4.51-4.52h0a4.51,4.51,0,0,0-4.51-4.51h-1.95a4.51,4.51,0,0,0-4.51,4.51v24a4.51,4.51,0,0,0,4.51,4.51H456v36.12H440.33a4.51,4.51,0,0,0-4.51,4.51v22.82a4.51,4.51,0,0,0,4.51,4.52h1.42a4.52,4.52,0,0,0,4.52-4.52v0a4.51,4.51,0,0,1,4.51-4.52H456v42.9H339.18"></path><rect class="cls-5" x="374.29" y="913.92" width="23.27" height="10.43"></rect><rect class="cls-5" x="374.29" y="1025.3" width="23.27" height="10.43"></rect><rect class="cls-2" x="339.18" y="659.59" width="1264.1" height="627.53" rx="30.92"></rect><path class="cls-4" d="M382.85,669.75A34.87,34.87,0,1,1,348,704.61a34.86,34.86,0,0,1,34.86-34.86m0-3.17a38,38,0,1,0,38,38,38.07,38.07,0,0,0-38-38Z"></path><path class="cls-6" d="M417.71,704.61a34.87,34.87,0,1,1-34.86-34.86A34.86,34.86,0,0,1,417.71,704.61Z"></path><path class="cls-4" d="M1558.42,669.75a34.87,34.87,0,1,1-34.86,34.86,34.86,34.86,0,0,1,34.86-34.86m0-3.17a38,38,0,1,0,38,38,38.07,38.07,0,0,0-38-38Z"></path><path class="cls-6" d="M1593.29,704.61a34.87,34.87,0,1,1-34.86-34.86A34.86,34.86,0,0,1,1593.29,704.61Z"></path><path class="cls-4" d="M382.85,1207.8A34.86,34.86,0,1,1,348,1242.66a34.86,34.86,0,0,1,34.86-34.86m0-3.17a38,38,0,1,0,38,38,38.07,38.07,0,0,0-38-38Z"></path><path class="cls-6" d="M417.71,1242.66a34.87,34.87,0,1,1-34.86-34.86A34.86,34.86,0,0,1,417.71,1242.66Z"></path><path class="cls-4" d="M1558.42,1207.8a34.86,34.86,0,1,1-34.86,34.86,34.86,34.86,0,0,1,34.86-34.86m0-3.17a38,38,0,1,0,38,38,38.07,38.07,0,0,0-38-38Z"></path><path class="cls-6" d="M1593.29,1242.66a34.87,34.87,0,1,1-34.86-34.86A34.86,34.86,0,0,1,1593.29,1242.66Z"></path><ellipse class="cls-4" cx="499.37" cy="1258.22" rx="19.08" ry="19.3"></ellipse><ellipse class="cls-7" cx="499.37" cy="1258.22" rx="19.08" ry="19.3"></ellipse><ellipse class="cls-4" cx="555.86" cy="1258.22" rx="19.08" ry="19.3"></ellipse><ellipse class="cls-7" cx="555.86" cy="1258.22" rx="19.08" ry="19.3"></ellipse><ellipse class="cls-4" cx="612.36" cy="1258.22" rx="19.08" ry="19.3"></ellipse><ellipse class="cls-7" cx="612.36" cy="1258.22" rx="19.08" ry="19.3"></ellipse><ellipse class="cls-4" cx="668.85" cy="1258.22" rx="19.08" ry="19.3"></ellipse><ellipse class="cls-7" cx="668.85" cy="1258.22" rx="19.08" ry="19.3"></ellipse><ellipse class="cls-4" cx="725.34" cy="1258.22" rx="19.08" ry="19.3"></ellipse><ellipse class="cls-7" cx="725.34" cy="1258.22" rx="19.08" ry="19.3"></ellipse><ellipse class="cls-4" cx="781.83" cy="1258.22" rx="19.08" ry="19.3"></ellipse><ellipse class="cls-7" cx="781.83" cy="1258.22" rx="19.08" ry="19.3"></ellipse><ellipse class="cls-4" cx="838.32" cy="1258.22" rx="19.08" ry="19.3"></ellipse><ellipse class="cls-7" cx="838.32" cy="1258.22" rx="19.08" ry="19.3"></ellipse><ellipse class="cls-4" cx="894.81" cy="1258.22" rx="19.08" ry="19.3"></ellipse><ellipse class="cls-7" cx="894.81" cy="1258.22" rx="19.08" ry="19.3"></ellipse><ellipse class="cls-4" cx="951.31" cy="1258.22" rx="19.08" ry="19.3"></ellipse><ellipse class="cls-7" cx="951.31" cy="1258.22" rx="19.08" ry="19.3"></ellipse><ellipse class="cls-4" cx="1007.8" cy="1258.22" rx="19.08" ry="19.3"></ellipse><ellipse class="cls-7" cx="1007.8" cy="1258.22" rx="19.08" ry="19.3"></ellipse><ellipse class="cls-4" cx="1064.29" cy="1258.22" rx="19.08" ry="19.3"></ellipse><ellipse class="cls-7" cx="1064.29" cy="1258.22" rx="19.08" ry="19.3"></ellipse><ellipse class="cls-4" cx="1120.78" cy="1258.22" rx="19.08" ry="19.3"></ellipse><ellipse class="cls-7" cx="1120.78" cy="1258.22" rx="19.08" ry="19.3"></ellipse><ellipse class="cls-4" cx="1177.27" cy="1258.22" rx="19.08" ry="19.3"></ellipse><ellipse class="cls-7" cx="1177.27" cy="1258.22" rx="19.08" ry="19.3"></ellipse><ellipse class="cls-4" cx="1233.77" cy="1258.22" rx="19.08" ry="19.3"></ellipse><ellipse class="cls-7" cx="1233.77" cy="1258.22" rx="19.08" ry="19.3"></ellipse><ellipse class="cls-4" cx="1290.26" cy="1258.22" rx="19.08" ry="19.3"></ellipse><ellipse class="cls-7" cx="1290.26" cy="1258.22" rx="19.08" ry="19.3"></ellipse><ellipse class="cls-4" cx="1346.75" cy="1258.22" rx="19.08" ry="19.3"></ellipse><ellipse class="cls-7" cx="1346.75" cy="1258.22" rx="19.08" ry="19.3"></ellipse><ellipse class="cls-4" cx="1403.24" cy="1258.22" rx="19.08" ry="19.3"></ellipse><ellipse class="cls-7" cx="1403.24" cy="1258.22" rx="19.08" ry="19.3"></ellipse><rect class="cls-4" x="1438.68" y="1239.64" width="37.89" height="37.89"></rect><rect class="cls-7" x="1438.68" y="1239.64" width="37.89" height="37.89"></rect><ellipse class="cls-4" cx="499.37" cy="689.05" rx="19.08" ry="19.3"></ellipse><ellipse class="cls-7" cx="499.37" cy="689.05" rx="19.08" ry="19.3"></ellipse><ellipse class="cls-4" cx="555.86" cy="689.05" rx="19.08" ry="19.3"></ellipse><ellipse class="cls-7" cx="555.86" cy="689.05" rx="19.08" ry="19.3"></ellipse><ellipse class="cls-4" cx="612.36" cy="689.05" rx="19.08" ry="19.3"></ellipse><ellipse class="cls-7" cx="612.36" cy="689.05" rx="19.08" ry="19.3"></ellipse><ellipse class="cls-4" cx="668.85" cy="689.05" rx="19.08" ry="19.3"></ellipse><ellipse class="cls-7" cx="668.85" cy="689.05" rx="19.08" ry="19.3"></ellipse><ellipse class="cls-4" cx="725.34" cy="689.05" rx="19.08" ry="19.3"></ellipse><ellipse class="cls-7" cx="725.34" cy="689.05" rx="19.08" ry="19.3"></ellipse><ellipse class="cls-4" cx="781.83" cy="689.05" rx="19.08" ry="19.3"></ellipse><ellipse class="cls-7" cx="781.83" cy="689.05" rx="19.08" ry="19.3"></ellipse><ellipse class="cls-4" cx="838.32" cy="689.05" rx="19.08" ry="19.3"></ellipse><ellipse class="cls-7" cx="838.32" cy="689.05" rx="19.08" ry="19.3"></ellipse><ellipse class="cls-4" cx="894.81" cy="689.05" rx="19.08" ry="19.3"></ellipse><ellipse class="cls-7" cx="894.81" cy="689.05" rx="19.08" ry="19.3"></ellipse><ellipse class="cls-4" cx="951.31" cy="689.05" rx="19.08" ry="19.3"></ellipse><ellipse class="cls-7" cx="951.31" cy="689.05" rx="19.08" ry="19.3"></ellipse><ellipse class="cls-4" cx="1007.8" cy="689.05" rx="19.08" ry="19.3"></ellipse><ellipse class="cls-7" cx="1007.8" cy="689.05" rx="19.08" ry="19.3"></ellipse><ellipse class="cls-4" cx="1064.29" cy="689.05" rx="19.08" ry="19.3"></ellipse><ellipse class="cls-7" cx="1064.29" cy="689.05" rx="19.08" ry="19.3"></ellipse><ellipse class="cls-4" cx="1120.78" cy="689.05" rx="19.08" ry="19.3"></ellipse><ellipse class="cls-7" cx="1120.78" cy="689.05" rx="19.08" ry="19.3"></ellipse><ellipse class="cls-4" cx="1177.27" cy="689.05" rx="19.08" ry="19.3"></ellipse><ellipse class="cls-7" cx="1177.27" cy="689.05" rx="19.08" ry="19.3"></ellipse><ellipse class="cls-4" cx="1233.77" cy="689.05" rx="19.08" ry="19.3"></ellipse><ellipse class="cls-7" cx="1233.77" cy="689.05" rx="19.08" ry="19.3"></ellipse><ellipse class="cls-4" cx="1290.26" cy="689.05" rx="19.08" ry="19.3"></ellipse><ellipse class="cls-7" cx="1290.26" cy="689.05" rx="19.08" ry="19.3"></ellipse><ellipse class="cls-4" cx="1346.75" cy="689.05" rx="19.08" ry="19.3"></ellipse><ellipse class="cls-7" cx="1346.75" cy="689.05" rx="19.08" ry="19.3"></ellipse><ellipse class="cls-4" cx="1403.24" cy="689.05" rx="19.08" ry="19.3"></ellipse><ellipse class="cls-7" cx="1403.24" cy="689.05" rx="19.08" ry="19.3"></ellipse><rect class="cls-4" x="1438.68" y="670.46" width="37.89" height="37.89"></rect><rect class="cls-7" x="1438.68" y="670.46" width="37.89" height="37.89"></rect><rect class="cls-8" x="1037.27" y="782.04" width="425.65" height="393.74" rx="7.73"></rect><rect class="cls-9" x="1037.27" y="782.04" width="425.65" height="393.74" rx="7.73"></rect><rect class="cls-4" x="998.22" y="836.67" width="46.99" height="20.88" rx="4.55"></rect><rect class="cls-4" x="998.22" y="864.86" width="46.99" height="20.88" rx="4.55"></rect><rect class="cls-4" x="998.22" y="893.04" width="46.99" height="20.88" rx="4.55"></rect><rect class="cls-4" x="998.22" y="921.22" width="46.99" height="20.88" rx="4.55"></rect><rect class="cls-4" x="998.22" y="949.41" width="46.99" height="20.88" rx="4.55"></rect><rect class="cls-4" x="998.22" y="977.59" width="46.99" height="20.88" rx="4.55"></rect><rect class="cls-4" x="998.22" y="1005.78" width="46.99" height="20.88" rx="4.55"></rect><rect class="cls-4" x="998.22" y="1033.96" width="46.99" height="20.88" rx="4.55"></rect><rect class="cls-4" x="998.22" y="1062.14" width="46.99" height="20.88" rx="4.55"></rect><rect class="cls-4" x="998.22" y="1090.33" width="46.99" height="20.88" rx="4.55"></rect><rect class="cls-4" x="1293.81" y="752.61" width="46.99" height="20.73" rx="4.53" transform="translate(2080.28 -554.34) rotate(90)"></rect><rect class="cls-4" x="1265.83" y="752.61" width="46.99" height="20.73" rx="4.53" transform="translate(2052.3 -526.35) rotate(90)"></rect><rect class="cls-4" x="1237.85" y="752.61" width="46.99" height="20.73" rx="4.53" transform="translate(2024.32 -498.37) rotate(90)"></rect><rect class="cls-4" x="1209.87" y="752.61" width="46.99" height="20.73" rx="4.53" transform="translate(1996.34 -470.39) rotate(90)"></rect><rect class="cls-4" x="1407.43" y="752.61" width="46.99" height="20.73" rx="4.53" transform="translate(2193.9 -667.96) rotate(90)"></rect><rect class="cls-4" x="1379.45" y="752.61" width="46.99" height="20.73" rx="4.53" transform="translate(2165.92 -639.98) rotate(90)"></rect><rect class="cls-4" x="1351.47" y="752.61" width="46.99" height="20.73" rx="4.53" transform="translate(2137.94 -611.99) rotate(90)"></rect><rect class="cls-4" x="1323.49" y="752.61" width="46.99" height="20.73" rx="4.53" transform="translate(2109.96 -584.01) rotate(90)"></rect><rect class="cls-4" x="1181.88" y="752.61" width="46.99" height="20.73" rx="4.53" transform="translate(1968.35 -442.41) rotate(90)"></rect><rect class="cls-4" x="1153.9" y="752.61" width="46.99" height="20.73" rx="4.53" transform="translate(1940.37 -414.43) rotate(90)"></rect><rect class="cls-4" x="1125.92" y="752.61" width="46.99" height="20.73" rx="4.53" transform="translate(1912.39 -386.45) rotate(90)"></rect><rect class="cls-4" x="1097.94" y="752.61" width="46.99" height="20.73" rx="4.53" transform="translate(1884.41 -358.46) rotate(90)"></rect><rect class="cls-4" x="1069.96" y="752.61" width="46.99" height="20.73" rx="4.53" transform="translate(1856.43 -330.48) rotate(90)"></rect><rect class="cls-4" x="1041.98" y="752.61" width="46.99" height="20.73" rx="4.53" transform="translate(1828.45 -302.5) rotate(90)"></rect><rect class="cls-4" x="1293.81" y="1173.94" width="46.99" height="20.73" rx="4.53" transform="translate(2501.61 -133.01) rotate(90)"></rect><rect class="cls-4" x="1265.83" y="1173.94" width="46.99" height="20.73" rx="4.53" transform="translate(2473.63 -105.03) rotate(90)"></rect><rect class="cls-4" x="1237.85" y="1173.94" width="46.99" height="20.73" rx="4.53" transform="translate(2445.65 -77.04) rotate(90)"></rect><rect class="cls-4" x="1209.87" y="1173.94" width="46.99" height="20.73" rx="4.53" transform="translate(2417.66 -49.06) rotate(90)"></rect><rect class="cls-4" x="1407.43" y="1173.94" width="46.99" height="20.73" rx="4.53" transform="translate(2615.23 -246.63) rotate(90)"></rect><rect class="cls-4" x="1379.45" y="1173.94" width="46.99" height="20.73" rx="4.53" transform="translate(2587.25 -218.65) rotate(90)"></rect><rect class="cls-4" x="1351.47" y="1173.94" width="46.99" height="20.73" rx="4.53" transform="translate(2559.27 -190.67) rotate(90)"></rect><rect class="cls-4" x="1323.49" y="1173.94" width="46.99" height="20.73" rx="4.53" transform="translate(2531.28 -162.68) rotate(90)"></rect><rect class="cls-4" x="1181.88" y="1173.94" width="46.99" height="20.73" rx="4.53" transform="translate(2389.68 -21.08) rotate(90)"></rect><rect class="cls-4" x="1153.9" y="1173.94" width="46.99" height="20.73" rx="4.53" transform="translate(2361.7 6.9) rotate(90)"></rect><rect class="cls-4" x="1125.92" y="1173.94" width="46.99" height="20.73" rx="4.53" transform="translate(2333.72 34.88) rotate(90)"></rect><rect class="cls-4" x="1097.94" y="1173.94" width="46.99" height="20.73" rx="4.53" transform="translate(2305.74 62.86) rotate(90)"></rect><rect class="cls-4" x="1069.96" y="1173.94" width="46.99" height="20.73" rx="4.53" transform="translate(2277.76 90.85) rotate(90)"></rect><rect class="cls-4" x="1041.98" y="1173.94" width="46.99" height="20.73" rx="4.53" transform="translate(2249.77 118.83) rotate(90)"></rect><path class="cls-10" d="M1026.88,829.64V779.37a5.61,5.61,0,0,1,5.61-5.61h12.72"></path><line class="cls-10" x1="1026.88" y1="1121.78" x2="1026.88" y2="1175.78"></line><rect class="cls-8" x="574.94" y="809.72" width="139.54" height="60.68"></rect><rect class="cls-8" x="590.84" y="1072.58" width="107.75" height="107.75"></rect><polyline class="cls-10" points="513.91 770.77 513.91 741.68 551.5 741.68 551.5 770.77"></polyline><polyline class="cls-10" points="551.5 785.28 551.5 812.46 513.91 812.46 513.91 785.28"></polyline><rect class="cls-8" x="522.26" y="767.35" width="19.53" height="23.3"></rect><path class="cls-4" d="M525.69,754.53h12.67a3.43,3.43,0,0,1,3.43,3.43v7.69a0,0,0,0,1,0,0H522.26a0,0,0,0,1,0,0V758A3.43,3.43,0,0,1,525.69,754.53Z"></path><path class="cls-4" d="M522.26,792.36h19.53a0,0,0,0,1,0,0v7.21a3.91,3.91,0,0,1-3.91,3.91H526.17a3.91,3.91,0,0,1-3.91-3.91v-7.21A0,0,0,0,1,522.26,792.36Z"></path><polyline class="cls-10" points="513.91 960.75 513.91 931.66 551.5 931.66 551.5 960.75"></polyline><polyline class="cls-10" points="551.5 975.26 551.5 1002.43 513.91 1002.43 513.91 975.26"></polyline><rect class="cls-11" x="522.26" y="957.33" width="19.53" height="23.3"></rect><path class="cls-4" d="M525.69,944.51h12.67a3.43,3.43,0,0,1,3.43,3.43v7.69a0,0,0,0,1,0,0H522.26a0,0,0,0,1,0,0v-7.69A3.43,3.43,0,0,1,525.69,944.51Z"></path><path class="cls-4" d="M522.26,982.33h19.53a0,0,0,0,1,0,0v7.21a3.91,3.91,0,0,1-3.91,3.91H526.17a3.91,3.91,0,0,1-3.91-3.91v-7.21A0,0,0,0,1,522.26,982.33Z"></path><polyline class="cls-10" points="513.91 1076.72 513.91 1047.63 551.5 1047.63 551.5 1076.72"></polyline><polyline class="cls-10" points="551.5 1091.23 551.5 1118.41 513.91 1118.41 513.91 1091.23"></polyline><rect class="cls-8" x="522.26" y="1073.3" width="19.53" height="23.3"></rect><path class="cls-4" d="M525.69,1060.48h12.67a3.43,3.43,0,0,1,3.43,3.43v7.69a0,0,0,0,1,0,0H522.26a0,0,0,0,1,0,0v-7.69A3.43,3.43,0,0,1,525.69,1060.48Z"></path><path class="cls-4" d="M522.26,1098.31h19.53a0,0,0,0,1,0,0v7.21a3.91,3.91,0,0,1-3.91,3.91H526.17a3.91,3.91,0,0,1-3.91-3.91v-7.21A0,0,0,0,1,522.26,1098.31Z"></path><polyline class="cls-10" points="781.68 864.14 810.77 864.14 810.77 901.73 781.68 901.73"></polyline><polyline class="cls-10" points="767.17 901.73 740 901.73 740 864.14 767.17 864.14"></polyline><rect class="cls-8" x="763.69" y="870.6" width="19.53" height="23.3" transform="translate(1655.71 108.79) rotate(90)"></rect><path class="cls-4" d="M786,876.69h12.67a3.43,3.43,0,0,1,3.43,3.43v7.69a0,0,0,0,1,0,0H782.61a0,0,0,0,1,0,0v-7.69A3.43,3.43,0,0,1,786,876.69Z" transform="translate(1674.62 89.88) rotate(90)"></path><path class="cls-4" d="M744.78,876.69h19.53a0,0,0,0,1,0,0v7.21a3.91,3.91,0,0,1-3.91,3.91H748.69a3.91,3.91,0,0,1-3.91-3.91v-7.21A0,0,0,0,1,744.78,876.69Z" transform="translate(1636.79 127.71) rotate(90)"></path><polyline class="cls-10" points="781.68 1174.46 810.77 1174.46 810.77 1212.05 781.68 1212.05"></polyline><polyline class="cls-10" points="767.17 1212.05 740 1212.05 740 1174.46 767.17 1174.46"></polyline><rect class="cls-8" x="763.69" y="1180.92" width="19.53" height="23.3" transform="translate(1966.03 419.12) rotate(90)"></rect><path class="cls-4" d="M786,1187h12.67a3.43,3.43,0,0,1,3.43,3.43v7.69a0,0,0,0,1,0,0H782.61a0,0,0,0,1,0,0v-7.69A3.43,3.43,0,0,1,786,1187Z" transform="translate(1984.94 400.2) rotate(90)"></path><path class="cls-4" d="M744.78,1187h19.53a0,0,0,0,1,0,0v7.21a3.91,3.91,0,0,1-3.91,3.91H748.69a3.91,3.91,0,0,1-3.91-3.91V1187A0,0,0,0,1,744.78,1187Z" transform="translate(1947.12 438.03) rotate(90)"></path><polyline class="cls-10" points="873.93 1043.39 903.02 1043.39 903.02 1080.97 873.93 1080.97"></polyline><polyline class="cls-10" points="859.42 1080.97 832.25 1080.97 832.25 1043.39 859.42 1043.39"></polyline><rect class="cls-8" x="855.94" y="1049.85" width="19.53" height="23.3" transform="translate(1927.2 195.79) rotate(90)"></rect><path class="cls-4" d="M878.28,1055.94H891a3.43,3.43,0,0,1,3.43,3.43v7.69a0,0,0,0,1,0,0H874.85a0,0,0,0,1,0,0v-7.69A3.43,3.43,0,0,1,878.28,1055.94Z" transform="translate(1946.12 176.88) rotate(90)"></path><path class="cls-4" d="M837,1055.94h19.53a0,0,0,0,1,0,0v7.21a3.91,3.91,0,0,1-3.91,3.91H840.94a3.91,3.91,0,0,1-3.91-3.91v-7.21A0,0,0,0,1,837,1055.94Z" transform="translate(1908.29 214.71) rotate(90)"></path><polyline class="cls-10" points="873.93 997.42 903.02 997.42 903.02 1035.01 873.93 1035.01"></polyline><polyline class="cls-10" points="859.42 1035.01 832.25 1035.01 832.25 997.42 859.42 997.42"></polyline><rect class="cls-8" x="855.94" y="1003.88" width="19.53" height="23.3" transform="translate(1881.24 149.83) rotate(90)"></rect><path class="cls-4" d="M878.28,1010H891a3.43,3.43,0,0,1,3.43,3.43v7.69a0,0,0,0,1,0,0H874.85a0,0,0,0,1,0,0v-7.69A3.43,3.43,0,0,1,878.28,1010Z" transform="translate(1900.15 130.91) rotate(90)"></path><path class="cls-4" d="M837,1010h19.53a0,0,0,0,1,0,0v7.21a3.91,3.91,0,0,1-3.91,3.91H840.94a3.91,3.91,0,0,1-3.91-3.91V1010A0,0,0,0,1,837,1010Z" transform="translate(1862.32 168.74) rotate(90)"></path><polyline class="cls-10" points="873.93 951.46 903.02 951.46 903.02 989.04 873.93 989.04"></polyline><polyline class="cls-10" points="859.42 989.04 832.25 989.04 832.25 951.46 859.42 951.46"></polyline><rect class="cls-8" x="855.94" y="957.92" width="19.53" height="23.3" transform="translate(1835.27 103.86) rotate(90)"></rect><path class="cls-4" d="M878.28,964H891a3.43,3.43,0,0,1,3.43,3.43v7.69a0,0,0,0,1,0,0H874.85a0,0,0,0,1,0,0v-7.69A3.43,3.43,0,0,1,878.28,964Z" transform="translate(1854.18 84.95) rotate(90)"></path><path class="cls-4" d="M837,964h19.53a0,0,0,0,1,0,0v7.21a3.91,3.91,0,0,1-3.91,3.91H840.94a3.91,3.91,0,0,1-3.91-3.91V964A0,0,0,0,1,837,964Z" transform="translate(1816.36 122.77) rotate(90)"></path><polyline class="cls-10" points="873.93 905.49 903.02 905.49 903.02 943.08 873.93 943.08"></polyline><polyline class="cls-10" points="859.42 943.08 832.25 943.08 832.25 905.49 859.42 905.49"></polyline><rect class="cls-8" x="855.94" y="911.95" width="19.53" height="23.3" transform="translate(1789.31 57.9) rotate(90)"></rect><path class="cls-4" d="M878.28,918H891a3.43,3.43,0,0,1,3.43,3.43v7.69a0,0,0,0,1,0,0H874.85a0,0,0,0,1,0,0v-7.69A3.43,3.43,0,0,1,878.28,918Z" transform="translate(1808.22 38.98) rotate(90)"></path><path class="cls-4" d="M837,918h19.53a0,0,0,0,1,0,0v7.21a3.91,3.91,0,0,1-3.91,3.91H840.94a3.91,3.91,0,0,1-3.91-3.91V918A0,0,0,0,1,837,918Z" transform="translate(1770.39 76.81) rotate(90)"></path><polyline class="cls-10" points="873.93 859.52 903.02 859.52 903.02 897.11 873.93 897.11"></polyline><polyline class="cls-10" points="859.42 897.11 832.25 897.11 832.25 859.52 859.42 859.52"></polyline><rect class="cls-8" x="855.94" y="865.99" width="19.53" height="23.3" transform="translate(1743.34 11.93) rotate(90)"></rect><path class="cls-4" d="M878.28,872.08H891a3.43,3.43,0,0,1,3.43,3.43v7.69a0,0,0,0,1,0,0H874.85a0,0,0,0,1,0,0v-7.69A3.43,3.43,0,0,1,878.28,872.08Z" transform="translate(1762.25 -6.98) rotate(90)"></path><path class="cls-4" d="M837,872.08h19.53a0,0,0,0,1,0,0v7.21a3.91,3.91,0,0,1-3.91,3.91H840.94a3.91,3.91,0,0,1-3.91-3.91v-7.21A0,0,0,0,1,837,872.08Z" transform="translate(1724.43 30.84) rotate(90)"></path><polyline class="cls-10" points="873.93 813.56 903.02 813.56 903.02 851.15 873.93 851.15"></polyline><polyline class="cls-10" points="859.42 851.15 832.25 851.15 832.25 813.56 859.42 813.56"></polyline><rect class="cls-8" x="855.94" y="820.02" width="19.53" height="23.3" transform="translate(1697.38 -34.03) rotate(90)"></rect><path class="cls-4" d="M878.28,826.11H891a3.43,3.43,0,0,1,3.43,3.43v7.69a0,0,0,0,1,0,0H874.85a0,0,0,0,1,0,0v-7.69A3.43,3.43,0,0,1,878.28,826.11Z" transform="translate(1716.29 -52.95) rotate(90)"></path><path class="cls-4" d="M837,826.11h19.53a0,0,0,0,1,0,0v7.21a3.91,3.91,0,0,1-3.91,3.91H840.94a3.91,3.91,0,0,1-3.91-3.91v-7.21A0,0,0,0,1,837,826.11Z" transform="translate(1678.46 -15.12) rotate(90)"></path><polyline class="cls-10" points="864.63 778.86 864.63 807.95 827.04 807.95 827.04 778.86"></polyline><polyline class="cls-10" points="827.04 764.35 827.04 737.17 864.63 737.17 864.63 764.35"></polyline><rect class="cls-8" x="836.75" y="758.98" width="19.53" height="23.3" transform="translate(1693.04 1541.26) rotate(-180)"></rect><path class="cls-4" d="M840.18,784h12.67a3.43,3.43,0,0,1,3.43,3.43v7.69a0,0,0,0,1,0,0H836.75a0,0,0,0,1,0,0v-7.69A3.43,3.43,0,0,1,840.18,784Z" transform="translate(1693.04 1579.08) rotate(-180)"></path><path class="cls-4" d="M836.75,746.16h19.53a0,0,0,0,1,0,0v7.21a3.91,3.91,0,0,1-3.91,3.91H840.66a3.91,3.91,0,0,1-3.91-3.91v-7.21A0,0,0,0,1,836.75,746.16Z" transform="translate(1693.04 1503.43) rotate(-180)"></path><polyline class="cls-10" points="908.97 778.86 908.97 807.95 871.38 807.95 871.38 778.86"></polyline><polyline class="cls-10" points="871.38 764.35 871.38 737.17 908.97 737.17 908.97 764.35"></polyline><rect class="cls-8" x="881.09" y="758.98" width="19.53" height="23.3" transform="translate(1781.72 1541.26) rotate(-180)"></rect><path class="cls-4" d="M884.52,784h12.67a3.43,3.43,0,0,1,3.43,3.43v7.69a0,0,0,0,1,0,0H881.09a0,0,0,0,1,0,0v-7.69A3.43,3.43,0,0,1,884.52,784Z" transform="translate(1781.72 1579.08) rotate(-180)"></path><path class="cls-4" d="M881.09,746.16h19.53a0,0,0,0,1,0,0v7.21a3.91,3.91,0,0,1-3.91,3.91H885a3.91,3.91,0,0,1-3.91-3.91v-7.21A0,0,0,0,1,881.09,746.16Z" transform="translate(1781.72 1503.43) rotate(-180)"></path><polyline class="cls-10" points="861.06 1182.08 861.06 1211.17 823.47 1211.17 823.47 1182.08"></polyline><polyline class="cls-10" points="823.47 1167.57 823.47 1140.4 861.06 1140.4 861.06 1167.57"></polyline><rect class="cls-8" x="833.18" y="1162.2" width="19.53" height="23.3" transform="translate(1685.89 2347.7) rotate(-180)"></rect><path class="cls-4" d="M836.61,1187.21h12.67a3.43,3.43,0,0,1,3.43,3.43v7.69a0,0,0,0,1,0,0H833.18a0,0,0,0,1,0,0v-7.69A3.43,3.43,0,0,1,836.61,1187.21Z" transform="translate(1685.89 2385.53) rotate(-180)"></path><path class="cls-4" d="M833.18,1149.38h19.53a0,0,0,0,1,0,0v7.21a3.91,3.91,0,0,1-3.91,3.91H837.09a3.91,3.91,0,0,1-3.91-3.91v-7.21a0,0,0,0,1,0,0Z" transform="translate(1685.89 2309.88) rotate(-180)"></path><polyline class="cls-10" points="907.04 1182.08 907.04 1211.17 869.45 1211.17 869.45 1182.08"></polyline><polyline class="cls-10" points="869.45 1167.57 869.45 1140.4 907.04 1140.4 907.04 1167.57"></polyline><rect class="cls-8" x="879.16" y="1162.2" width="19.53" height="23.3" transform="translate(1777.85 2347.7) rotate(-180)"></rect><path class="cls-4" d="M882.59,1187.21h12.67a3.43,3.43,0,0,1,3.43,3.43v7.69a0,0,0,0,1,0,0H879.16a0,0,0,0,1,0,0v-7.69A3.43,3.43,0,0,1,882.59,1187.21Z" transform="translate(1777.85 2385.53) rotate(-180)"></path><path class="cls-4" d="M879.16,1149.38h19.53a0,0,0,0,1,0,0v7.21a3.91,3.91,0,0,1-3.91,3.91H883.07a3.91,3.91,0,0,1-3.91-3.91v-7.21A0,0,0,0,1,879.16,1149.38Z" transform="translate(1777.85 2309.88) rotate(-180)"></path><polyline class="cls-10" points="859.41 1129.12 830.32 1129.12 830.32 1091.53 859.41 1091.53"></polyline><polyline class="cls-10" points="873.92 1091.53 901.09 1091.53 901.09 1129.12 873.92 1129.12"></polyline><rect class="cls-12" x="857.87" y="1099.35" width="19.53" height="23.3" transform="translate(-243.37 1978.64) rotate(-90)"></rect><path class="cls-4" d="M842.39,1105.45h12.67a3.43,3.43,0,0,1,3.43,3.43v7.69a0,0,0,0,1,0,0H839a0,0,0,0,1,0,0v-7.69a3.43,3.43,0,0,1,3.43-3.43Z" transform="translate(-262.28 1959.73) rotate(-90)"></path><path class="cls-4" d="M876.79,1105.45h19.53a0,0,0,0,1,0,0v7.21a3.91,3.91,0,0,1-3.91,3.91H880.69a3.91,3.91,0,0,1-3.91-3.91v-7.21A0,0,0,0,1,876.79,1105.45Z" transform="translate(-224.46 1997.55) rotate(-90)"></path><polyline class="cls-10" points="513.91 1166.12 513.91 1137.03 551.5 1137.03 551.5 1166.12"></polyline><polyline class="cls-10" points="551.5 1180.63 551.5 1207.8 513.91 1207.8 513.91 1180.63"></polyline><rect class="cls-8" x="522.26" y="1162.69" width="19.53" height="23.3"></rect><path class="cls-4" d="M525.69,1149.87h12.67a3.43,3.43,0,0,1,3.43,3.43V1161a0,0,0,0,1,0,0H522.26a0,0,0,0,1,0,0v-7.69A3.43,3.43,0,0,1,525.69,1149.87Z"></path><path class="cls-4" d="M522.26,1187.7h19.53a0,0,0,0,1,0,0v7.21a3.91,3.91,0,0,1-3.91,3.91H526.17a3.91,3.91,0,0,1-3.91-3.91v-7.21A0,0,0,0,1,522.26,1187.7Z"></path><rect class="cls-8" x="518.45" y="842.85" width="26.6" height="63.62"></rect><rect class="cls-4" x="523.29" y="909.46" width="16.92" height="11.37"></rect><rect class="cls-4" x="523.29" y="828.49" width="16.92" height="11.37"></rect><line class="cls-10" x1="513.91" y1="839.87" x2="513.91" y2="907.52"></line><line class="cls-13" x1="551.5" y1="838.21" x2="551.5" y2="907.52"></line><rect class="cls-8" x="756.89" y="756.35" width="37" height="70.01"></rect><line class="cls-10" x1="752.35" y1="756.35" x2="752.35" y2="826.36"></line><line class="cls-13" x1="799.23" y1="756.35" x2="799.23" y2="826.36"></line><path class="cls-4" d="M763.71,831.11h22.42a0,0,0,0,1,0,0v8.12a3.54,3.54,0,0,1-3.54,3.54H767.25a3.54,3.54,0,0,1-3.54-3.54v-8.12A0,0,0,0,1,763.71,831.11Z"></path><path class="cls-4" d="M763.71,739.93h22.42a0,0,0,0,1,0,0v8.12a3.54,3.54,0,0,1-3.54,3.54H767.25a3.54,3.54,0,0,1-3.54-3.54v-8.12A0,0,0,0,1,763.71,739.93Z" transform="translate(1549.85 1491.53) rotate(180)"></path><rect class="cls-4" x="612.36" y="760.09" width="67.16" height="38.78"></rect><rect class="cls-4" x="585.71" y="885.73" width="15.41" height="48.38"></rect><rect class="cls-4" x="637.01" y="885.73" width="15.41" height="48.38"></rect><rect class="cls-4" x="688.3" y="885.73" width="15.41" height="48.38"></rect><polyline class="cls-10" points="574.94 881.75 567.01 881.75 567.01 801.24 603.61 801.24"></polyline><polyline class="cls-10" points="714.08 881.75 722.01 881.75 722.01 801.24 685.41 801.24"></polyline><rect class="cls-8" x="745.38" y="935.68" width="60.04" height="19.57"></rect><rect class="cls-4" x="748.99" y="917.02" width="11.12" height="14.64"></rect><rect class="cls-4" x="765.39" y="959.85" width="21.42" height="14.64"></rect><rect class="cls-4" x="790.67" y="917.02" width="11.12" height="14.64"></rect><polyline class="cls-10" points="757.26 974.49 742.09 974.49 742.09 959.85"></polyline><line class="cls-10" x1="742.09" y1="913.92" x2="760.1" y2="913.92"></line><polyline class="cls-10" points="795.63 974.49 810.79 974.49 810.79 959.85"></polyline><line class="cls-10" x1="810.79" y1="913.92" x2="792.78" y2="913.92"></line><rect class="cls-8" x="747.46" y="1120.01" width="60.04" height="19.57" transform="translate(1554.96 2259.58) rotate(180)"></rect><rect class="cls-4" x="792.78" y="1143.59" width="11.12" height="14.64" transform="translate(1596.68 2301.83) rotate(180)"></rect><rect class="cls-4" x="766.07" y="1100.77" width="21.42" height="14.64" transform="translate(1553.57 2216.18) rotate(180)"></rect><rect class="cls-4" x="751.1" y="1143.59" width="11.12" height="14.64" transform="translate(1513.31 2301.83) rotate(180)"></rect><polyline class="cls-10" points="795.63 1100.77 810.79 1100.77 810.79 1115.41"></polyline><line class="cls-10" x1="810.79" y1="1161.34" x2="792.78" y2="1161.34"></line><polyline class="cls-10" points="757.26 1100.77 742.09 1100.77 742.09 1115.41"></polyline><line class="cls-10" x1="742.09" y1="1161.34" x2="760.1" y2="1161.34"></line><polyline class="cls-10" points="585.43 1084.91 585.43 1066.04 600.54 1066.04"></polyline><polyline class="cls-10" points="686.03 1067.92 704.9 1067.92 704.9 1083.03"></polyline><polyline class="cls-10" points="704.9 1171.19 704.9 1190.06 689.79 1190.06"></polyline><polyline class="cls-10" points="604.3 1188.18 585.43 1188.18 585.43 1173.07"></polyline><rect class="cls-4" x="674.4" y="1061.73" width="10.66" height="5.42" rx="1.27" transform="translate(1744.16 384.71) rotate(90)"></rect><rect class="cls-4" x="664.44" y="1061.73" width="10.66" height="5.42" rx="1.27" transform="translate(1734.2 394.67) rotate(90)"></rect><rect class="cls-4" x="654.48" y="1061.73" width="10.66" height="5.42" rx="1.27" transform="translate(1724.24 404.63) rotate(90)"></rect><rect class="cls-4" x="644.52" y="1061.73" width="10.66" height="5.42" rx="1.27" transform="translate(1714.28 414.59) rotate(90)"></rect><rect class="cls-4" x="634.56" y="1061.73" width="10.66" height="5.42" rx="1.27" transform="translate(1704.33 424.55) rotate(90)"></rect><rect class="cls-4" x="624.6" y="1061.73" width="10.66" height="5.42" rx="1.27" transform="translate(1694.37 434.51) rotate(90)"></rect><rect class="cls-4" x="614.64" y="1061.73" width="10.66" height="5.42" rx="1.27" transform="translate(1684.41 444.47) rotate(90)"></rect><rect class="cls-4" x="604.68" y="1061.73" width="10.66" height="5.42" rx="1.27" transform="translate(1674.45 454.42) rotate(90)"></rect><rect class="cls-4" x="674.4" y="1185.77" width="10.66" height="5.42" rx="1.27" transform="translate(1868.2 508.75) rotate(90)"></rect><rect class="cls-4" x="664.44" y="1185.77" width="10.66" height="5.42" rx="1.27" transform="translate(1858.24 518.71) rotate(90)"></rect><rect class="cls-4" x="654.48" y="1185.77" width="10.66" height="5.42" rx="1.27" transform="translate(1848.29 528.67) rotate(90)"></rect><rect class="cls-4" x="644.52" y="1185.77" width="10.66" height="5.42" rx="1.27" transform="translate(1838.33 538.63) rotate(90)"></rect><rect class="cls-4" x="634.56" y="1185.77" width="10.66" height="5.42" rx="1.27" transform="translate(1828.37 548.59) rotate(90)"></rect><rect class="cls-4" x="624.6" y="1185.77" width="10.66" height="5.42" rx="1.27" transform="translate(1818.41 558.55) rotate(90)"></rect><rect class="cls-4" x="614.64" y="1185.77" width="10.66" height="5.42" rx="1.27" transform="translate(1808.45 568.51) rotate(90)"></rect><rect class="cls-4" x="604.68" y="1185.77" width="10.66" height="5.42" rx="1.27" transform="translate(1798.49 578.47) rotate(90)"></rect><rect class="cls-4" x="577.52" y="1090.4" width="10.66" height="5.42" rx="1.27"></rect><rect class="cls-4" x="577.52" y="1100.36" width="10.66" height="5.42" rx="1.27"></rect><rect class="cls-4" x="577.52" y="1110.32" width="10.66" height="5.42" rx="1.27"></rect><rect class="cls-4" x="577.52" y="1120.28" width="10.66" height="5.42" rx="1.27"></rect><rect class="cls-4" x="577.52" y="1130.24" width="10.66" height="5.42" rx="1.27"></rect><rect class="cls-4" x="577.52" y="1140.2" width="10.66" height="5.42" rx="1.27"></rect><rect class="cls-4" x="577.52" y="1150.16" width="10.66" height="5.42" rx="1.27"></rect><rect class="cls-4" x="577.52" y="1160.12" width="10.66" height="5.42" rx="1.27"></rect><rect class="cls-4" x="701.56" y="1090.4" width="10.66" height="5.42" rx="1.27"></rect><rect class="cls-4" x="701.56" y="1100.36" width="10.66" height="5.42" rx="1.27"></rect><rect class="cls-4" x="701.56" y="1110.32" width="10.66" height="5.42" rx="1.27"></rect><rect class="cls-4" x="701.56" y="1120.28" width="10.66" height="5.42" rx="1.27"></rect><rect class="cls-4" x="701.56" y="1130.24" width="10.66" height="5.42" rx="1.27"></rect><rect class="cls-4" x="701.56" y="1140.2" width="10.66" height="5.42" rx="1.27"></rect><rect class="cls-4" x="701.56" y="1150.16" width="10.66" height="5.42" rx="1.27"></rect><rect class="cls-4" x="701.56" y="1160.12" width="10.66" height="5.42" rx="1.27"></rect><rect class="cls-14" x="367.39" y="764.35" width="88.57" height="57.4"></rect><circle class="cls-15" cx="410.64" cy="793.04" r="22.2"></circle><rect class="cls-16" x="367.39" y="764.35" width="88.57" height="57.4"></rect><circle class="cls-17" cx="410.64" cy="793.04" r="22.2"></circle><path class="cls-4" d="M355.83,767.35h8.08a0,0,0,0,1,0,0v51.86a0,0,0,0,1,0,0h-8.08a2.62,2.62,0,0,1-2.62-2.62V770A2.62,2.62,0,0,1,355.83,767.35Z"></path><path class="cls-4" d="M461.34,767.35h8.08a0,0,0,0,1,0,0v51.86a0,0,0,0,1,0,0h-8.08a2.62,2.62,0,0,1-2.62-2.62V770A2.62,2.62,0,0,1,461.34,767.35Z" transform="translate(928.13 1586.56) rotate(180)"></path><polyline class="cls-10" points="367.39 761.82 367.39 754.53 455.96 754.53 455.96 761.82"></polyline><polyline class="cls-10" points="455.96 824.27 455.96 831.56 367.39 831.56 367.39 824.27"></polyline><rect class="cls-14" x="367.39" y="1129.54" width="88.57" height="57.4"></rect><circle class="cls-15" cx="410.64" cy="1158.23" r="22.2"></circle><rect class="cls-16" x="367.39" y="1129.54" width="88.57" height="57.4"></rect><circle class="cls-17" cx="410.64" cy="1158.23" r="22.2"></circle><path class="cls-4" d="M355.83,1132.54h8.08a0,0,0,0,1,0,0v51.86a0,0,0,0,1,0,0h-8.08a2.62,2.62,0,0,1-2.62-2.62v-46.62A2.62,2.62,0,0,1,355.83,1132.54Z"></path><path class="cls-4" d="M461.34,1132.54h8.08a0,0,0,0,1,0,0v51.86a0,0,0,0,1,0,0h-8.08a2.62,2.62,0,0,1-2.62-2.62v-46.62A2.62,2.62,0,0,1,461.34,1132.54Z" transform="translate(928.13 2316.94) rotate(180)"></path><polyline class="cls-10" points="367.39 1127.01 367.39 1119.72 455.96 1119.72 455.96 1127.01"></polyline><polyline class="cls-10" points="455.96 1189.46 455.96 1196.75 367.39 1196.75 367.39 1189.46"></polyline><path class="cls-2" d="M339.18,892H456v41.36H451.3a4.51,4.51,0,0,1-4.51-4.52h0a4.51,4.51,0,0,0-4.51-4.51h-1.95a4.51,4.51,0,0,0-4.51,4.51v24a4.51,4.51,0,0,0,4.51,4.51H456v36.12H440.33a4.51,4.51,0,0,0-4.51,4.51v22.82a4.51,4.51,0,0,0,4.51,4.52h1.42a4.52,4.52,0,0,0,4.52-4.52v0a4.51,4.51,0,0,1,4.51-4.52H456v42.9H339.18"></path><rect class="cls-2" x="374.29" y="913.92" width="23.27" height="10.43"></rect><rect class="cls-2" x="374.29" y="1025.3" width="23.27" height="10.43"></rect><polyline class="cls-10" points="432.85 882.93 467.5 882.93 467.5 901.73"></polyline><polyline class="cls-10" points="370.68 882.93 347.25 882.93 347.25 889.15"></polyline><polyline class="cls-10" points="432.85 1068.5 467.5 1068.5 467.5 1049.71"></polyline><polyline class="cls-10" points="370.68 1068.5 347.25 1068.5 347.25 1062.28"></polyline><rect class="cls-4" x="461.52" y="940.93" width="21.67" height="7.49"></rect><rect class="cls-4" x="461.52" y="956.1" width="21.67" height="7.49"></rect><rect class="cls-4" x="461.52" y="971.27" width="21.67" height="7.49"></rect><rect class="cls-4" x="461.52" y="986.45" width="21.67" height="7.49"></rect><rect class="cls-4" x="461.52" y="1001.62" width="21.67" height="7.49"></rect><polyline class="cls-9" points="1455.19 782.04 1455.19 770.75 1603.28 770.75"></polyline><polyline class="cls-9" points="1455.19 1175.78 1455.19 1184.3 1603.28 1184.3"></polyline><g class="cls-18"><polygon class="cls-19" points="1527.81 875.04 1527.81 913.95 1586.17 913.95 1586.17 980.96 1531.16 980.96 1531.16 1021.34 1586.17 1021.34 1586.17 1137.18 1462.93 1137.18 1462.93 1121.97 1570.96 1121.97 1570.96 1084.34 1462.93 1084.34 1462.93 1069.12 1570.96 1069.12 1570.96 1036.56 1515.95 1036.56 1515.95 965.75 1570.96 965.75 1570.96 929.16 1512.6 929.16 1512.6 859.82 1570.96 859.82 1570.96 825.57 1479.63 825.57 1479.63 810.36 1586.17 810.36 1586.17 875.04 1527.81 875.04"></polygon></g><path class="cls-12" d="M488.44,710.74h1.93l3,10.94,3-10.94h1.92l-4.12,14h-1.68Z"></path><path class="cls-12" d="M502.05,724.69h-1.77v-14h1.77Z"></path><path class="cls-12" d="M505.18,710.74h1.61L513,721.52l-.21.25v-11h1.75v13.94h-1.62l-6.16-10.62.2-.25v10.87h-1.75Z"></path><path class="cls-12" d="M548.93,717.18v2.43a6.54,6.54,0,0,1-.54,2.74,4.39,4.39,0,0,1-1.55,1.84,4.22,4.22,0,0,1-2.33.64,4.51,4.51,0,0,1-2.35-.6,4.18,4.18,0,0,1-1.57-1.73,5.7,5.7,0,0,1-.56-2.58v-4.11a6.54,6.54,0,0,1,.55-2.74,4.1,4.1,0,0,1,3.88-2.48,4.06,4.06,0,0,1,2,.52,4.43,4.43,0,0,1,1.54,1.45,5.83,5.83,0,0,1,.83,2.18h-1.92a3.14,3.14,0,0,0-.53-1.2,2.47,2.47,0,0,0-.88-.77,2.18,2.18,0,0,0-1-.27,2.29,2.29,0,0,0-1.37.42,2.65,2.65,0,0,0-.92,1.15,4.46,4.46,0,0,0-.32,1.74v4.11a3.57,3.57,0,0,0,.33,1.58,2.46,2.46,0,0,0,.94,1,2.56,2.56,0,0,0,1.39.37,2.49,2.49,0,0,0,1.37-.38,2.54,2.54,0,0,0,.92-1.13,4.46,4.46,0,0,0,.32-1.76v-.6h-2.57v-1.87Z"></path><path class="cls-12" d="M551.63,710.74h1.61l6.17,10.78-.2.25v-11H561v13.94h-1.62l-6.16-10.62.2-.25v10.87h-1.75Z"></path><path class="cls-12" d="M564.09,710.74h1.77v14h-1.77Zm1.2,12.09h2.86a2.9,2.9,0,0,0,2.17-.8,3.16,3.16,0,0,0,.77-2.26v-4.11a3.16,3.16,0,0,0-.77-2.26,2.9,2.9,0,0,0-2.17-.8h-2.86v-1.86h2.81a5.4,5.4,0,0,1,2.6.58,3.93,3.93,0,0,1,1.64,1.71,5.93,5.93,0,0,1,.56,2.71v4a5.93,5.93,0,0,1-.56,2.71,4,4,0,0,1-1.65,1.71,5.4,5.4,0,0,1-2.6.58h-2.8Z"></path><path class="cls-12" d="M596.67,724.19a4.25,4.25,0,0,1-1.54-1.82,6.38,6.38,0,0,1-.55-2.74v-3.82a6.38,6.38,0,0,1,.55-2.74,4.22,4.22,0,0,1,1.54-1.83,4.14,4.14,0,0,1,2.31-.65,4.06,4.06,0,0,1,2,.52,4.29,4.29,0,0,1,1.52,1.45,5.66,5.66,0,0,1,.83,2.18h-1.81a3.25,3.25,0,0,0-.56-1.17,2.81,2.81,0,0,0-.9-.79,2.35,2.35,0,0,0-1.08-.28,2.26,2.26,0,0,0-1.36.42,2.61,2.61,0,0,0-.9,1.15,4.29,4.29,0,0,0-.32,1.74v3.82a4.24,4.24,0,0,0,.32,1.73,2.59,2.59,0,0,0,.9,1.16,2.32,2.32,0,0,0,1.36.4,2.41,2.41,0,0,0,1.08-.25,2.63,2.63,0,0,0,.9-.77,3.14,3.14,0,0,0,.56-1.21h1.81a5.73,5.73,0,0,1-.83,2.18,4.41,4.41,0,0,1-1.53,1.45,4,4,0,0,1-2,.51A4.13,4.13,0,0,1,596.67,724.19Z"></path><path class="cls-12" d="M614.76,710.74h1.66v14h-1.73V714.24l.09.62-3.11,7.89h-1.24l-3.11-7.7.09-.81v10.45h-1.73v-14h1.66l3.71,9.21Z"></path><path class="cls-12" d="M619.55,710.74h1.77v14h-1.77Zm1.2,12.09h2.86a2.9,2.9,0,0,0,2.17-.8,3.16,3.16,0,0,0,.77-2.26v-4.11a3.16,3.16,0,0,0-.77-2.26,2.9,2.9,0,0,0-2.17-.8h-2.86v-1.86h2.81a5.33,5.33,0,0,1,2.59.58A3.9,3.9,0,0,1,627.8,713a6.06,6.06,0,0,1,.56,2.71v4a6.06,6.06,0,0,1-.56,2.71,4,4,0,0,1-1.65,1.71,5.4,5.4,0,0,1-2.6.58h-2.8Z"></path><path class="cls-12" d="M655.08,724.64a6.44,6.44,0,0,1-1.52-.57,6.8,6.8,0,0,1-1.33-1l1.11-1.5a4.91,4.91,0,0,0,1.59,1,5,5,0,0,0,1.88.34,3.53,3.53,0,0,0,2.13-.56,1.84,1.84,0,0,0,.76-1.59h0a1.77,1.77,0,0,0-.35-1.15,2,2,0,0,0-.88-.64,10.51,10.51,0,0,0-1.41-.38H657l-.13,0a11.72,11.72,0,0,1-2.06-.55,2.86,2.86,0,0,1-1.36-1.1,3.88,3.88,0,0,1-.57-2.28h0a4.38,4.38,0,0,1,.53-2.21,3.41,3.41,0,0,1,1.53-1.4,5.6,5.6,0,0,1,2.43-.48,5.45,5.45,0,0,1,1.33.17,6.6,6.6,0,0,1,1.3.48,8.29,8.29,0,0,1,1.25.81l-1,1.56a5.87,5.87,0,0,0-1.44-.88,3.62,3.62,0,0,0-1.43-.29,3.17,3.17,0,0,0-2,.57,2,2,0,0,0-.71,1.61h0a1.65,1.65,0,0,0,.37,1.14,2.29,2.29,0,0,0,.92.61,13.42,13.42,0,0,0,1.53.4l.07,0h.06l.1,0,.09,0a9.22,9.22,0,0,1,1.92.62,3,3,0,0,1,1.29,1.14,4,4,0,0,1,.51,2.17h0a4.12,4.12,0,0,1-.55,2.19,3.51,3.51,0,0,1-1.58,1.38,6,6,0,0,1-2.51.47A7.46,7.46,0,0,1,655.08,724.64Z"></path><path class="cls-12" d="M663.8,710.74h1.77v14H663.8Zm1.2,12.09h2.86A2.9,2.9,0,0,0,670,722a3.16,3.16,0,0,0,.77-2.26v-4.11a3.16,3.16,0,0,0-.77-2.26,2.9,2.9,0,0,0-2.17-.8H665v-1.86h2.81a5.33,5.33,0,0,1,2.59.58,3.9,3.9,0,0,1,1.65,1.71,6.06,6.06,0,0,1,.56,2.71v4a6.06,6.06,0,0,1-.56,2.71,4,4,0,0,1-1.65,1.71,5.4,5.4,0,0,1-2.6.58H665Z"></path><path class="cls-12" d="M676.53,724.41a3.36,3.36,0,0,1-1.3-1.24,4.77,4.77,0,0,1-.62-1.95h1.81a2.19,2.19,0,0,0,.34,1,1.62,1.62,0,0,0,.67.57,2.43,2.43,0,0,0,1,.18,1.79,1.79,0,0,0,1.36-.51,2,2,0,0,0,.49-1.46v-.43a2.49,2.49,0,0,0-.46-1.61,1.58,1.58,0,0,0-1.3-.57h-.9v-1.86h.9a1.42,1.42,0,0,0,1.14-.49,2.08,2.08,0,0,0,.41-1.39v-.43a1.75,1.75,0,0,0-.43-1.27,1.61,1.61,0,0,0-1.22-.45,1.79,1.79,0,0,0-.81.18,1.58,1.58,0,0,0-.6.58,2.58,2.58,0,0,0-.36,1h-1.8a5.22,5.22,0,0,1,.66-2A3.27,3.27,0,0,1,676.7,711a3.72,3.72,0,0,1,4.22.52,3.76,3.76,0,0,1,.89,2.68v.23a3.27,3.27,0,0,1-.51,1.83,3,3,0,0,1-1.45,1.13,2.53,2.53,0,0,1,1.6,1.12,4,4,0,0,1,.57,2.23V721a4.73,4.73,0,0,1-.42,2.08,3,3,0,0,1-1.24,1.31,4.43,4.43,0,0,1-3.83,0Z"></path><path class="cls-12" d="M713.24,724.64a6.44,6.44,0,0,1-1.52-.57,6.51,6.51,0,0,1-1.33-1l1.1-1.5a5.13,5.13,0,0,0,1.59,1A5.08,5.08,0,0,0,715,723a3.53,3.53,0,0,0,2.13-.56,1.87,1.87,0,0,0,.76-1.59h0a1.77,1.77,0,0,0-.35-1.15,2,2,0,0,0-.88-.64,11,11,0,0,0-1.41-.38h-.11l-.13,0a11.48,11.48,0,0,1-2.06-.55,2.86,2.86,0,0,1-1.36-1.1,3.88,3.88,0,0,1-.57-2.28h0a4.28,4.28,0,0,1,.53-2.21,3.41,3.41,0,0,1,1.53-1.4,5.59,5.59,0,0,1,2.42-.48,5.47,5.47,0,0,1,1.34.17,6.29,6.29,0,0,1,1.29.48,7.89,7.89,0,0,1,1.26.81l-1,1.56a5.87,5.87,0,0,0-1.44-.88,3.63,3.63,0,0,0-1.44-.29,3.16,3.16,0,0,0-2,.57,2,2,0,0,0-.71,1.61h0a1.65,1.65,0,0,0,.37,1.14,2.29,2.29,0,0,0,.92.61,12.87,12.87,0,0,0,1.53.4l.07,0h.06l.1,0,.09,0a9.22,9.22,0,0,1,1.92.62,3,3,0,0,1,1.28,1.14,3.89,3.89,0,0,1,.52,2.17h0a4.12,4.12,0,0,1-.55,2.19,3.51,3.51,0,0,1-1.58,1.38,6,6,0,0,1-2.51.47A7.46,7.46,0,0,1,713.24,724.64Z"></path><path class="cls-12" d="M722,710.74h1.77v14H722Zm1.2,12.09H726a2.86,2.86,0,0,0,2.16-.8,3.11,3.11,0,0,0,.77-2.26v-4.11a3.11,3.11,0,0,0-.77-2.26,2.86,2.86,0,0,0-2.16-.8h-2.86v-1.86H726a5.37,5.37,0,0,1,2.6.58,3.9,3.9,0,0,1,1.65,1.71,6.06,6.06,0,0,1,.56,2.71v4a6.06,6.06,0,0,1-.56,2.71,4,4,0,0,1-1.65,1.71,5.4,5.4,0,0,1-2.6.58h-2.8Z"></path><path class="cls-12" d="M733.19,723l4.4-6.48a4.93,4.93,0,0,0,.6-1.16,3.39,3.39,0,0,0,.21-1.12v0a1.8,1.8,0,0,0-.44-1.29,1.67,1.67,0,0,0-1.26-.46,1.61,1.61,0,0,0-1.25.5,2.41,2.41,0,0,0-.59,1.42H733a5.5,5.5,0,0,1,.64-2,3.31,3.31,0,0,1,3-1.75,4.11,4.11,0,0,1,1.93.43,2.92,2.92,0,0,1,1.22,1.24,4.41,4.41,0,0,1,.41,2h0a4.67,4.67,0,0,1-.28,1.55,6.79,6.79,0,0,1-.77,1.55l-3.66,5.49h4.78v1.86h-7.12Z"></path><path class="cls-12" d="M769,710.74h1.77v14H769Zm1.2,12.09H773a2.87,2.87,0,0,0,2.17-.8,3.11,3.11,0,0,0,.77-2.26v-4.11a3.11,3.11,0,0,0-.77-2.26,2.87,2.87,0,0,0-2.17-.8h-2.85v-1.86H773a5.37,5.37,0,0,1,2.6.58,3.82,3.82,0,0,1,1.64,1.71,5.93,5.93,0,0,1,.57,2.71v4a5.93,5.93,0,0,1-.57,2.71,3.87,3.87,0,0,1-1.64,1.71,5.41,5.41,0,0,1-2.61.58h-2.79Z"></path><path class="cls-12" d="M783.45,724.69h-1.78V712.87l-1.8,1.22v-2l1.8-1.32h1.78Z"></path><path class="cls-12" d="M787.71,724.41a3.36,3.36,0,0,1-1.3-1.24,4.92,4.92,0,0,1-.62-1.95h1.81a2.32,2.32,0,0,0,.34,1,1.68,1.68,0,0,0,.67.57,2.43,2.43,0,0,0,1,.18,1.81,1.81,0,0,0,1.37-.51,2.09,2.09,0,0,0,.48-1.46v-.43a2.49,2.49,0,0,0-.46-1.61,1.58,1.58,0,0,0-1.3-.57h-.9v-1.86h.9a1.45,1.45,0,0,0,1.15-.49,2.13,2.13,0,0,0,.4-1.39v-.43a1.75,1.75,0,0,0-.43-1.27,1.59,1.59,0,0,0-1.22-.45,1.79,1.79,0,0,0-.81.18,1.74,1.74,0,0,0-.6.58,3,3,0,0,0-.36,1H786a5.59,5.59,0,0,1,.66-2,3.57,3.57,0,0,1,5.44-.71,3.76,3.76,0,0,1,.9,2.68v.23a3.2,3.2,0,0,1-.52,1.83,3,3,0,0,1-1.45,1.13,2.55,2.55,0,0,1,1.61,1.12,4,4,0,0,1,.57,2.23V721a4.73,4.73,0,0,1-.43,2.08,3,3,0,0,1-1.24,1.31,4,4,0,0,1-2,.45A4,4,0,0,1,787.71,724.41Z"></path><path class="cls-12" d="M826.15,710.74h1.77v14h-1.77Zm1.2,12.09h2.86a2.88,2.88,0,0,0,2.17-.8,3.16,3.16,0,0,0,.77-2.26v-4.11a3.16,3.16,0,0,0-.77-2.26,2.88,2.88,0,0,0-2.17-.8h-2.86v-1.86h2.81a5.4,5.4,0,0,1,2.6.58A3.88,3.88,0,0,1,834.4,713a5.93,5.93,0,0,1,.56,2.71v4a5.93,5.93,0,0,1-.56,2.71,4,4,0,0,1-1.65,1.71,5.4,5.4,0,0,1-2.6.58h-2.8Z"></path><path class="cls-12" d="M840.62,724.69h-1.77V712.87l-1.8,1.22v-2l1.8-1.32h1.77Z"></path><path class="cls-12" d="M843.3,723l4.4-6.48a4.93,4.93,0,0,0,.6-1.16,3.39,3.39,0,0,0,.21-1.12v0a1.76,1.76,0,0,0-.44-1.29,1.67,1.67,0,0,0-1.26-.46,1.62,1.62,0,0,0-1.25.5,2.4,2.4,0,0,0-.58,1.42h-1.84a5.69,5.69,0,0,1,.64-2,3.31,3.31,0,0,1,3-1.75,4.08,4.08,0,0,1,1.93.43,2.92,2.92,0,0,1,1.22,1.24,4.28,4.28,0,0,1,.42,2h0a4.94,4.94,0,0,1-.28,1.55,7.27,7.27,0,0,1-.78,1.55l-3.65,5.49h4.78v1.86H843.3Z"></path><path class="cls-12" d="M882.51,710.74h1.77v14h-1.77Zm1.2,12.09h2.86a2.88,2.88,0,0,0,2.17-.8,3.16,3.16,0,0,0,.77-2.26v-4.11a3.16,3.16,0,0,0-.77-2.26,2.88,2.88,0,0,0-2.17-.8h-2.86v-1.86h2.81a5.4,5.4,0,0,1,2.6.58,3.93,3.93,0,0,1,1.64,1.71,5.93,5.93,0,0,1,.56,2.71v4a5.93,5.93,0,0,1-.56,2.71,4,4,0,0,1-1.65,1.71,5.4,5.4,0,0,1-2.6.58h-2.8Z"></path><path class="cls-12" d="M897,724.69h-1.77V712.87l-1.8,1.22v-2l1.8-1.32H897Z"></path><path class="cls-12" d="M899.68,720.85l4.24-10.1h1.82l-4.14,10h6.2v1.81h-8.12Zm5.44-4.36h1.73v8.21h-1.73Z"></path><path class="cls-12" d="M939.14,710.74h1.77v14h-1.77Zm1.2,12.09h2.86a2.88,2.88,0,0,0,2.17-.8,3.16,3.16,0,0,0,.77-2.26v-4.11a3.16,3.16,0,0,0-.77-2.26,2.88,2.88,0,0,0-2.17-.8h-2.86v-1.86h2.81a5.4,5.4,0,0,1,2.6.58,3.88,3.88,0,0,1,1.64,1.71,5.93,5.93,0,0,1,.56,2.71v4a5.93,5.93,0,0,1-.56,2.71,4,4,0,0,1-1.65,1.71,5.4,5.4,0,0,1-2.6.58h-2.8Z"></path><path class="cls-12" d="M950.37,723l4.41-6.48a5.29,5.29,0,0,0,.59-1.16,3.39,3.39,0,0,0,.21-1.12v0a1.76,1.76,0,0,0-.44-1.29,1.88,1.88,0,0,0-2.51,0,2.4,2.4,0,0,0-.58,1.42h-1.84a5.69,5.69,0,0,1,.64-2,3.31,3.31,0,0,1,3-1.75,4.08,4.08,0,0,1,1.93.43,2.86,2.86,0,0,1,1.22,1.24,4.28,4.28,0,0,1,.42,2h0a4.67,4.67,0,0,1-.28,1.55,7.22,7.22,0,0,1-.77,1.55l-3.66,5.49h4.78v1.86h-7.13Z"></path><path class="cls-12" d="M966.28,712.49,963,724.69h-1.89l3.27-12.09h-3.22v2h-1.77v-3.87h6.87Z"></path><path class="cls-12" d="M996.11,710.74h1.77v14h-1.77Zm1.2,12.09h2.86a2.9,2.9,0,0,0,2.17-.8,3.15,3.15,0,0,0,.76-2.26v-4.11a3.15,3.15,0,0,0-.76-2.26,2.9,2.9,0,0,0-2.17-.8h-2.86v-1.86h2.81a5.33,5.33,0,0,1,2.59.58,3.9,3.9,0,0,1,1.65,1.71,6.06,6.06,0,0,1,.56,2.71v4a6.06,6.06,0,0,1-.56,2.71,4,4,0,0,1-1.65,1.71,5.4,5.4,0,0,1-2.6.58h-2.8Z"></path><path class="cls-12" d="M1007.34,723l4.4-6.48a4.93,4.93,0,0,0,.6-1.16,3.39,3.39,0,0,0,.21-1.12v0a1.8,1.8,0,0,0-.44-1.29,1.67,1.67,0,0,0-1.26-.46,1.62,1.62,0,0,0-1.25.5,2.41,2.41,0,0,0-.59,1.42h-1.83a5.5,5.5,0,0,1,.64-2,3.31,3.31,0,0,1,3-1.75,4.11,4.11,0,0,1,1.93.43,2.92,2.92,0,0,1,1.22,1.24,4.41,4.41,0,0,1,.41,2h0a4.91,4.91,0,0,1-.27,1.55,7.27,7.27,0,0,1-.78,1.55l-3.66,5.49h4.78v1.86h-7.12Z"></path><path class="cls-12" d="M1018.41,724.35a3.29,3.29,0,0,1-1.34-1.35,4.21,4.21,0,0,1-.48-2v-.23a4.19,4.19,0,0,1,.48-2,3.28,3.28,0,0,1,1.26-1.39,2.9,2.9,0,0,1-1.07-1.17,3.37,3.37,0,0,1-.41-1.6v-.34a4,4,0,0,1,.45-1.92,3.05,3.05,0,0,1,1.25-1.29,4.05,4.05,0,0,1,3.75,0,3.05,3.05,0,0,1,1.25,1.29,4,4,0,0,1,.45,1.92v.34a3.32,3.32,0,0,1-.42,1.62,2.82,2.82,0,0,1-1.09,1.15,3.35,3.35,0,0,1,1.28,1.4,4,4,0,0,1,.49,2V721a4.21,4.21,0,0,1-.48,2,3.29,3.29,0,0,1-1.34,1.35,4.47,4.47,0,0,1-4,0Zm3.1-1.67a1.82,1.82,0,0,0,.73-.75,2.34,2.34,0,0,0,.25-1.12v-.13a2.41,2.41,0,0,0-.25-1.13,1.88,1.88,0,0,0-.73-.75,2.32,2.32,0,0,0-2.17,0,1.85,1.85,0,0,0-.73.76,2.38,2.38,0,0,0-.25,1.13v.14a2.34,2.34,0,0,0,.25,1.12,1.86,1.86,0,0,0,.73.74,2.35,2.35,0,0,0,2.17,0Zm-.15-6.28a1.69,1.69,0,0,0,.64-.73,2.45,2.45,0,0,0,.22-1.08v-.14a2.26,2.26,0,0,0-.22-1,1.61,1.61,0,0,0-.64-.7,1.94,1.94,0,0,0-1.87,0,1.61,1.61,0,0,0-.64.7,2.31,2.31,0,0,0-.22,1v.15a2.44,2.44,0,0,0,.22,1.07,1.66,1.66,0,0,0,.64.72,1.87,1.87,0,0,0,1.87,0Z"></path><path class="cls-12" d="M1051,710.74h1.78v14H1051Zm1.2,12.09H1055a2.87,2.87,0,0,0,2.17-.8,3.16,3.16,0,0,0,.77-2.26v-4.11a3.16,3.16,0,0,0-.77-2.26,2.87,2.87,0,0,0-2.17-.8h-2.86v-1.86H1055a5.4,5.4,0,0,1,2.6.58,3.88,3.88,0,0,1,1.64,1.71,5.93,5.93,0,0,1,.57,2.71v4a5.93,5.93,0,0,1-.57,2.71,3.93,3.93,0,0,1-1.64,1.71,5.44,5.44,0,0,1-2.61.58h-2.8Z"></path><path class="cls-12" d="M1062.21,723l4.41-6.48a5.29,5.29,0,0,0,.59-1.16,3.17,3.17,0,0,0,.22-1.12v0a1.76,1.76,0,0,0-.45-1.29,1.88,1.88,0,0,0-2.51,0,2.4,2.4,0,0,0-.58,1.42h-1.83a5.32,5.32,0,0,1,.64-2,3.38,3.38,0,0,1,1.24-1.3,3.43,3.43,0,0,1,1.77-.45,4.13,4.13,0,0,1,1.93.43,2.9,2.9,0,0,1,1.21,1.24,4.28,4.28,0,0,1,.42,2h0a4.67,4.67,0,0,1-.28,1.55,6.79,6.79,0,0,1-.77,1.55l-3.66,5.49h4.78v1.86h-7.13Z"></path><path class="cls-12" d="M1073.43,724.42a3.1,3.1,0,0,1-1.21-1.2,5,5,0,0,1-.62-1.89h1.77a1.94,1.94,0,0,0,.56,1.2,1.7,1.7,0,0,0,1.2.42,1.55,1.55,0,0,0,1.31-.62,3,3,0,0,0,.47-1.78v-1.17a2.92,2.92,0,0,0-.47-1.76,1.54,1.54,0,0,0-1.31-.63,1.57,1.57,0,0,0-.89.29,2.68,2.68,0,0,0-.75.81h-1.61v-7.35h6.44v1.86h-4.67v3.14a2.48,2.48,0,0,1,.74-.46,2.2,2.2,0,0,1,.83-.17,3.45,3.45,0,0,1,1.88.5,3.2,3.2,0,0,1,1.18,1.46,5.93,5.93,0,0,1,.4,2.31v1.17a5.76,5.76,0,0,1-.42,2.32,3.13,3.13,0,0,1-1.21,1.46,3.52,3.52,0,0,1-1.92.5A3.37,3.37,0,0,1,1073.43,724.42Z"></path><path class="cls-12" d="M1107.59,710.74h1.77v14h-1.77Zm1.19,12.09h2.86a2.87,2.87,0,0,0,2.17-.8,3.11,3.11,0,0,0,.77-2.26v-4.11a3.11,3.11,0,0,0-.77-2.26,2.87,2.87,0,0,0-2.17-.8h-2.86v-1.86h2.81a5.37,5.37,0,0,1,2.6.58,3.82,3.82,0,0,1,1.64,1.71,5.93,5.93,0,0,1,.57,2.71v4a5.93,5.93,0,0,1-.57,2.71,3.87,3.87,0,0,1-1.64,1.71,5.44,5.44,0,0,1-2.61.58h-2.8Z"></path><path class="cls-12" d="M1120.32,724.41a3.36,3.36,0,0,1-1.3-1.24,4.62,4.62,0,0,1-.62-1.95h1.8a2.47,2.47,0,0,0,.34,1,1.71,1.71,0,0,0,.68.57,2.37,2.37,0,0,0,1,.18,1.8,1.8,0,0,0,1.36-.51A2.09,2.09,0,0,0,1124,721v-.43a2.55,2.55,0,0,0-.46-1.61,1.6,1.6,0,0,0-1.31-.57h-.89v-1.86h.89a1.44,1.44,0,0,0,1.15-.49,2.13,2.13,0,0,0,.41-1.39v-.43a1.79,1.79,0,0,0-.43-1.27,1.62,1.62,0,0,0-1.22-.45,1.79,1.79,0,0,0-.81.18,1.68,1.68,0,0,0-.61.58,3,3,0,0,0-.36,1h-1.8a5.59,5.59,0,0,1,.66-2,3.58,3.58,0,0,1,5.45-.71,3.8,3.8,0,0,1,.89,2.68v.23a3.27,3.27,0,0,1-.51,1.83,3,3,0,0,1-1.45,1.13,2.53,2.53,0,0,1,1.6,1.12,4,4,0,0,1,.57,2.23V721a4.6,4.6,0,0,1-.43,2.08,2.91,2.91,0,0,1-1.24,1.31,4.41,4.41,0,0,1-3.82,0Z"></path><path class="cls-12" d="M1129.73,724.41a3.36,3.36,0,0,1-1.3-1.24,4.77,4.77,0,0,1-.62-1.95h1.81a2.32,2.32,0,0,0,.33,1,1.71,1.71,0,0,0,.68.57,2.4,2.4,0,0,0,1,.18,1.79,1.79,0,0,0,1.36-.51,2,2,0,0,0,.49-1.46v-.43a2.55,2.55,0,0,0-.46-1.61,1.59,1.59,0,0,0-1.31-.57h-.89v-1.86h.89a1.42,1.42,0,0,0,1.15-.49,2.13,2.13,0,0,0,.41-1.39v-.43a1.75,1.75,0,0,0-.43-1.27,1.61,1.61,0,0,0-1.22-.45,1.79,1.79,0,0,0-.81.18,1.58,1.58,0,0,0-.6.58,2.58,2.58,0,0,0-.36,1H1128a5.39,5.39,0,0,1,.65-2,3.35,3.35,0,0,1,1.22-1.23,3.41,3.41,0,0,1,1.7-.43,3.32,3.32,0,0,1,2.53.95,3.8,3.8,0,0,1,.89,2.68v.23a3.27,3.27,0,0,1-.51,1.83,3,3,0,0,1-1.45,1.13,2.53,2.53,0,0,1,1.6,1.12,4,4,0,0,1,.57,2.23V721a4.73,4.73,0,0,1-.42,2.08,3,3,0,0,1-1.24,1.31,4.43,4.43,0,0,1-3.83,0Z"></path><path class="cls-12" d="M1164.64,710.74h1.77v14h-1.77Zm1.2,12.09h2.86a2.9,2.9,0,0,0,2.17-.8,3.16,3.16,0,0,0,.77-2.26v-4.11a3.16,3.16,0,0,0-.77-2.26,2.9,2.9,0,0,0-2.17-.8h-2.86v-1.86h2.81a5.33,5.33,0,0,1,2.59.58,3.9,3.9,0,0,1,1.65,1.71,6.06,6.06,0,0,1,.56,2.71v4a6.06,6.06,0,0,1-.56,2.71,4,4,0,0,1-1.65,1.71,5.4,5.4,0,0,1-2.6.58h-2.8Z"></path><path class="cls-12" d="M1177.37,724.41a3.36,3.36,0,0,1-1.3-1.24,4.77,4.77,0,0,1-.62-1.95h1.81a2.19,2.19,0,0,0,.34,1,1.62,1.62,0,0,0,.67.57,2.43,2.43,0,0,0,1,.18,1.79,1.79,0,0,0,1.36-.51,2,2,0,0,0,.49-1.46v-.43a2.49,2.49,0,0,0-.46-1.61,1.58,1.58,0,0,0-1.3-.57h-.9v-1.86h.9a1.42,1.42,0,0,0,1.14-.49,2.08,2.08,0,0,0,.41-1.39v-.43a1.75,1.75,0,0,0-.43-1.27,1.61,1.61,0,0,0-1.22-.45,1.79,1.79,0,0,0-.81.18,1.58,1.58,0,0,0-.6.58,2.58,2.58,0,0,0-.36,1h-1.8a5.39,5.39,0,0,1,.65-2,3.29,3.29,0,0,1,2.92-1.66,3.32,3.32,0,0,1,2.53.95,3.76,3.76,0,0,1,.89,2.68v.23a3.27,3.27,0,0,1-.51,1.83,3,3,0,0,1-1.45,1.13,2.53,2.53,0,0,1,1.6,1.12,4,4,0,0,1,.57,2.23V721a4.73,4.73,0,0,1-.42,2.08,3,3,0,0,1-1.24,1.31,4.43,4.43,0,0,1-3.83,0Z"></path><path class="cls-12" d="M1185.19,723l4.41-6.48a5.29,5.29,0,0,0,.59-1.16,3.17,3.17,0,0,0,.22-1.12v0a1.76,1.76,0,0,0-.45-1.29,1.88,1.88,0,0,0-2.51,0,2.4,2.4,0,0,0-.58,1.42H1185a5.32,5.32,0,0,1,.64-2,3.38,3.38,0,0,1,1.24-1.3,3.43,3.43,0,0,1,1.77-.45,4.13,4.13,0,0,1,1.93.43,2.9,2.9,0,0,1,1.21,1.24,4.28,4.28,0,0,1,.42,2h0a4.67,4.67,0,0,1-.28,1.55,6.79,6.79,0,0,1-.77,1.55l-3.66,5.49h4.78v1.86h-7.13Z"></path><path class="cls-12" d="M1222.15,710.74h1.77v14h-1.77Zm1.2,12.09h2.86a2.86,2.86,0,0,0,2.16-.8,3.11,3.11,0,0,0,.77-2.26v-4.11a3.11,3.11,0,0,0-.77-2.26,2.86,2.86,0,0,0-2.16-.8h-2.86v-1.86h2.8a5.37,5.37,0,0,1,2.6.58,3.82,3.82,0,0,1,1.64,1.71,5.93,5.93,0,0,1,.57,2.71v4a5.93,5.93,0,0,1-.57,2.71,3.87,3.87,0,0,1-1.64,1.71,5.41,5.41,0,0,1-2.61.58h-2.79Z"></path><path class="cls-12" d="M1234.88,724.41a3.36,3.36,0,0,1-1.3-1.24,4.77,4.77,0,0,1-.62-1.95h1.81a2.32,2.32,0,0,0,.33,1,1.71,1.71,0,0,0,.68.57,2.4,2.4,0,0,0,1,.18,1.79,1.79,0,0,0,1.36-.51,2,2,0,0,0,.49-1.46v-.43a2.49,2.49,0,0,0-.46-1.61,1.59,1.59,0,0,0-1.31-.57h-.89v-1.86h.89A1.42,1.42,0,0,0,1238,716a2.13,2.13,0,0,0,.41-1.39v-.43a1.75,1.75,0,0,0-.43-1.27,1.61,1.61,0,0,0-1.22-.45,1.79,1.79,0,0,0-.81.18,1.58,1.58,0,0,0-.6.58,2.58,2.58,0,0,0-.36,1h-1.8a5.39,5.39,0,0,1,.65-2A3.35,3.35,0,0,1,1235,711a3.41,3.41,0,0,1,1.7-.43,3.32,3.32,0,0,1,2.53.95,3.8,3.8,0,0,1,.89,2.68v.23a3.27,3.27,0,0,1-.51,1.83,3,3,0,0,1-1.45,1.13,2.53,2.53,0,0,1,1.6,1.12,4,4,0,0,1,.57,2.23V721a4.73,4.73,0,0,1-.42,2.08,3,3,0,0,1-1.24,1.31,4.43,4.43,0,0,1-3.83,0Z"></path><path class="cls-12" d="M1244.72,724.42a3.17,3.17,0,0,1-1.21-1.2,5.13,5.13,0,0,1-.62-1.89h1.77a1.94,1.94,0,0,0,.56,1.2,1.72,1.72,0,0,0,1.2.42,1.56,1.56,0,0,0,1.32-.62,3,3,0,0,0,.46-1.78v-1.17a2.92,2.92,0,0,0-.46-1.76,1.54,1.54,0,0,0-1.32-.63,1.6,1.6,0,0,0-.89.29,2.54,2.54,0,0,0-.74.81h-1.62v-7.35h6.44v1.86h-4.67v3.14a2.48,2.48,0,0,1,.74-.46,2.21,2.21,0,0,1,.84-.17,3.41,3.41,0,0,1,1.87.5,3.14,3.14,0,0,1,1.18,1.46,5.93,5.93,0,0,1,.4,2.31v1.17a5.94,5.94,0,0,1-.41,2.32,3.21,3.21,0,0,1-1.22,1.46,3.48,3.48,0,0,1-1.92.5A3.4,3.4,0,0,1,1244.72,724.42Z"></path><path class="cls-12" d="M1278.29,710.74h1.77v14h-1.77Zm1.2,12.09h2.86a2.88,2.88,0,0,0,2.17-.8,3.16,3.16,0,0,0,.77-2.26v-4.11a3.16,3.16,0,0,0-.77-2.26,2.88,2.88,0,0,0-2.17-.8h-2.86v-1.86h2.81a5.4,5.4,0,0,1,2.6.58,3.93,3.93,0,0,1,1.64,1.71,5.93,5.93,0,0,1,.56,2.71v4a5.93,5.93,0,0,1-.56,2.71,4,4,0,0,1-1.65,1.71,5.4,5.4,0,0,1-2.6.58h-2.8Z"></path><path class="cls-12" d="M1291,724.41a3.36,3.36,0,0,1-1.3-1.24,4.92,4.92,0,0,1-.62-1.95h1.81a2.32,2.32,0,0,0,.34,1,1.68,1.68,0,0,0,.67.57,2.43,2.43,0,0,0,1,.18,1.81,1.81,0,0,0,1.37-.51,2.09,2.09,0,0,0,.48-1.46v-.43a2.49,2.49,0,0,0-.46-1.61,1.58,1.58,0,0,0-1.3-.57h-.9v-1.86h.9a1.45,1.45,0,0,0,1.15-.49,2.13,2.13,0,0,0,.4-1.39v-.43a1.75,1.75,0,0,0-.43-1.27,1.59,1.59,0,0,0-1.22-.45,1.79,1.79,0,0,0-.81.18,1.74,1.74,0,0,0-.6.58,3,3,0,0,0-.36,1h-1.8a5.59,5.59,0,0,1,.66-2,3.57,3.57,0,0,1,5.44-.71,3.76,3.76,0,0,1,.9,2.68v.23a3.2,3.2,0,0,1-.52,1.83,3,3,0,0,1-1.45,1.13,2.55,2.55,0,0,1,1.61,1.12,4,4,0,0,1,.57,2.23V721a4.73,4.73,0,0,1-.43,2.08,3,3,0,0,1-1.24,1.31,4,4,0,0,1-2,.45A4,4,0,0,1,1291,724.41Z"></path><path class="cls-12" d="M1298.86,720.85l4.24-10.1h1.83l-4.14,10h6.2v1.81h-8.13Zm5.45-4.36H1306v8.21h-1.73Z"></path><path class="cls-12" d="M1336.88,710.74h1.93l3,10.94,3-10.94h1.93l-4.12,14H1341Z"></path><path class="cls-12" d="M1348.72,710.74h1.61l6.18,10.78-.21.25v-11h1.75v13.94h-1.62l-6.16-10.62.2-.25v10.87h-1.75Z"></path><path class="cls-12" d="M1392.85,710.74h1.92l3,10.94,3-10.94h1.93l-4.12,14H1397Z"></path><path class="cls-12" d="M1404.68,710.74h1.77v14h-1.77Zm.91,6.68h4.05a1.71,1.71,0,0,0,1-.3,2,2,0,0,0,.68-.84,3.45,3.45,0,0,0,0-2.53,2,2,0,0,0-.68-.85,1.71,1.71,0,0,0-1-.3h-4.05v-1.86h4a3.77,3.77,0,0,1,2,.53,3.66,3.66,0,0,1,1.33,1.5,5,5,0,0,1,.47,2.25,5,5,0,0,1-.47,2.24,3.57,3.57,0,0,1-1.33,1.49,3.77,3.77,0,0,1-2,.53h-4Z"></path><path class="cls-12" d="M1448.73,710.74h1.77v14h-1.77Zm.86,0h7.26v1.86h-7.26Zm0,6.09h6.3v1.86h-6.3Zm0,6h7.26v1.86h-7.26Z"></path><path class="cls-12" d="M1459.37,710.74H1461l6.18,10.78-.21.25v-11h1.75v13.94h-1.62l-6.16-10.62.21-.25v10.87h-1.76Z"></path><path class="cls-12" d="M488.82,1235.27a3.23,3.23,0,0,1-1.3-1.24,4.77,4.77,0,0,1-.63-2h1.81a2.41,2.41,0,0,0,.34,1,1.56,1.56,0,0,0,.68.57,2.19,2.19,0,0,0,1,.19,1.82,1.82,0,0,0,1.37-.52,2.08,2.08,0,0,0,.49-1.46v-.42a2.5,2.5,0,0,0-.47-1.62,1.57,1.57,0,0,0-1.3-.57h-.89v-1.86h.89a1.41,1.41,0,0,0,1.15-.49,2.12,2.12,0,0,0,.41-1.38v-.43a1.82,1.82,0,0,0-.43-1.28,1.86,1.86,0,0,0-2-.26,1.57,1.57,0,0,0-.61.57,3,3,0,0,0-.36,1h-1.8a5.52,5.52,0,0,1,.66-2,3.21,3.21,0,0,1,2.92-1.66,3.32,3.32,0,0,1,2.53,1,3.77,3.77,0,0,1,.89,2.68v.23a3.26,3.26,0,0,1-.51,1.82,2.88,2.88,0,0,1-1.45,1.13,2.57,2.57,0,0,1,1.6,1.12,4,4,0,0,1,.57,2.23v.23a4.57,4.57,0,0,1-.43,2.08,2.89,2.89,0,0,1-1.24,1.32,4,4,0,0,1-2,.45A3.87,3.87,0,0,1,488.82,1235.27Z"></path><path class="cls-12" d="M495.79,1221.6h1.92l3,10.94,3-10.94h1.93l-4.12,14h-1.68Z"></path><path class="cls-12" d="M508.67,1235.27a3.27,3.27,0,0,1-1.29-1.24,4.77,4.77,0,0,1-.63-2h1.81a2.27,2.27,0,0,0,.34,1,1.54,1.54,0,0,0,.67.57,2.27,2.27,0,0,0,1,.19,1.82,1.82,0,0,0,1.37-.52,2.07,2.07,0,0,0,.48-1.46v-.42a2.5,2.5,0,0,0-.46-1.62,1.57,1.57,0,0,0-1.3-.57h-.9v-1.86h.9a1.41,1.41,0,0,0,1.15-.49,2.12,2.12,0,0,0,.41-1.38v-.43a1.82,1.82,0,0,0-.43-1.28,1.63,1.63,0,0,0-1.23-.45,1.6,1.6,0,0,0-.8.19,1.57,1.57,0,0,0-.61.57,3,3,0,0,0-.36,1H507a5.52,5.52,0,0,1,.66-2,3.21,3.21,0,0,1,2.91-1.66,3.31,3.31,0,0,1,2.53,1,3.73,3.73,0,0,1,.9,2.68v.23a3.26,3.26,0,0,1-.51,1.82,2.91,2.91,0,0,1-1.46,1.13,2.59,2.59,0,0,1,1.61,1.12,4,4,0,0,1,.57,2.23v.23a4.7,4.7,0,0,1-.43,2.08,2.94,2.94,0,0,1-1.24,1.32,4,4,0,0,1-2,.45A3.91,3.91,0,0,1,508.67,1235.27Z"></path><path class="cls-12" d="M540.06,1235.06a4.22,4.22,0,0,1-1.54-1.83,6.34,6.34,0,0,1-.55-2.73v-3.83a6.38,6.38,0,0,1,.55-2.74,4.25,4.25,0,0,1,1.54-1.82,4.14,4.14,0,0,1,2.31-.65,4,4,0,0,1,2,.51,4.41,4.41,0,0,1,1.52,1.46,5.62,5.62,0,0,1,.83,2.17H544.9a3.19,3.19,0,0,0-.55-1.16,2.72,2.72,0,0,0-.91-.79,2.17,2.17,0,0,0-1.07-.28,2.33,2.33,0,0,0-1.36.41,2.64,2.64,0,0,0-.9,1.16,4.21,4.21,0,0,0-.32,1.73v3.83a4.19,4.19,0,0,0,.32,1.72,2.59,2.59,0,0,0,.9,1.16,2.33,2.33,0,0,0,1.36.41,2.45,2.45,0,0,0,1.08-.26,2.61,2.61,0,0,0,.9-.77,3.13,3.13,0,0,0,.55-1.21h1.82a5.66,5.66,0,0,1-.83,2.18,4.32,4.32,0,0,1-1.53,1.45,3.92,3.92,0,0,1-2,.52A4.22,4.22,0,0,1,540.06,1235.06Z"></path><path class="cls-12" d="M549.07,1221.6h1.77v14h-1.77Zm.88,12.09h7.23v1.86H550Z"></path><path class="cls-12" d="M559.27,1221.6H561v14h-1.77Zm1.39,7.83,5.58-7.83h2.18l-8,10.77Zm2.1-1.32,1.4-1.43,4.79,8.87h-2.17Z"></path><path class="cls-12" d="M594.84,1235.51a6.05,6.05,0,0,1-1.52-.58,6.41,6.41,0,0,1-1.33-1l1.11-1.5a4.91,4.91,0,0,0,1.59,1,5.07,5.07,0,0,0,1.88.35,3.46,3.46,0,0,0,2.13-.57,1.84,1.84,0,0,0,.76-1.58h0a1.86,1.86,0,0,0-.34-1.16,2.13,2.13,0,0,0-.89-.63,8.29,8.29,0,0,0-1.4-.38h-.12l-.13,0a12.78,12.78,0,0,1-2.06-.54,2.92,2.92,0,0,1-1.36-1.1,3.92,3.92,0,0,1-.57-2.28h0a4.42,4.42,0,0,1,.53-2.22,3.39,3.39,0,0,1,1.53-1.39,5.63,5.63,0,0,1,2.43-.48,5.44,5.44,0,0,1,1.33.16,6.06,6.06,0,0,1,1.3.49,7,7,0,0,1,1.25.81l-1,1.55a6,6,0,0,0-1.43-.88,3.89,3.89,0,0,0-1.44-.29,3.12,3.12,0,0,0-2,.57,2,2,0,0,0-.72,1.62h0a1.6,1.6,0,0,0,.37,1.13,2.1,2.1,0,0,0,.92.61,13.1,13.1,0,0,0,1.53.41h.07l.06,0,.1,0,.09,0a9.26,9.26,0,0,1,1.92.61,3.14,3.14,0,0,1,1.29,1.15,3.94,3.94,0,0,1,.51,2.16v0a4.17,4.17,0,0,1-.54,2.18,3.47,3.47,0,0,1-1.59,1.38,6,6,0,0,1-2.51.48A8.12,8.12,0,0,1,594.84,1235.51Z"></path><path class="cls-12" d="M603.56,1221.6h1.77v14h-1.77Zm1.2,12.09h2.86a2.86,2.86,0,0,0,2.17-.8,3.14,3.14,0,0,0,.77-2.26v-4.1a3.13,3.13,0,0,0-.77-2.26,2.87,2.87,0,0,0-2.17-.81h-2.86v-1.86h2.81a5.4,5.4,0,0,1,2.6.59,3.93,3.93,0,0,1,1.64,1.71,5.89,5.89,0,0,1,.56,2.7v4a5.91,5.91,0,0,1-.56,2.7,3.9,3.9,0,0,1-1.65,1.71,5.4,5.4,0,0,1-2.6.58h-2.8Z"></path><path class="cls-12" d="M615.55,1234.65a4.27,4.27,0,0,1-.92-2.91v-6.35a4.29,4.29,0,0,1,.92-2.92,4,4,0,0,1,5.38,0,4.26,4.26,0,0,1,.92,2.92v6.35a4.29,4.29,0,0,1-.92,2.92,3.42,3.42,0,0,1-2.69,1A3.38,3.38,0,0,1,615.55,1234.65Zm4.08-1.36a2.42,2.42,0,0,0,.44-1.55v-6.35a2.41,2.41,0,0,0-.44-1.56,2.06,2.06,0,0,0-2.78,0,2.41,2.41,0,0,0-.44,1.56v6.35a2.42,2.42,0,0,0,.44,1.55,2,2,0,0,0,2.78,0Z"></path><path class="cls-12" d="M653,1235.51a6,6,0,0,1-1.53-.58,6.35,6.35,0,0,1-1.32-1l1.1-1.5a4.91,4.91,0,0,0,1.59,1,5.08,5.08,0,0,0,1.89.35,3.5,3.5,0,0,0,2.13-.57,1.85,1.85,0,0,0,.75-1.58h0a1.8,1.8,0,0,0-.34-1.16,2.13,2.13,0,0,0-.89-.63,8.29,8.29,0,0,0-1.4-.38h-.11l-.13,0a12.65,12.65,0,0,1-2.07-.54,3,3,0,0,1-1.36-1.1,3.92,3.92,0,0,1-.56-2.28h0a4.42,4.42,0,0,1,.52-2.22,3.37,3.37,0,0,1,1.54-1.39,5.59,5.59,0,0,1,2.42-.48,5.38,5.38,0,0,1,1.33.16,6.06,6.06,0,0,1,1.3.49,7,7,0,0,1,1.26.81l-1,1.55a5.87,5.87,0,0,0-1.44-.88,3.89,3.89,0,0,0-1.44-.29,3.16,3.16,0,0,0-2,.57,2,2,0,0,0-.72,1.62h0a1.6,1.6,0,0,0,.37,1.13,2.16,2.16,0,0,0,.92.61,12.82,12.82,0,0,0,1.54.41h.06l.07,0,.09,0,.1,0a9.35,9.35,0,0,1,1.91.61,3,3,0,0,1,1.29,1.15,3.86,3.86,0,0,1,.52,2.16v0a4.08,4.08,0,0,1-.55,2.18,3.42,3.42,0,0,1-1.59,1.38,5.9,5.9,0,0,1-2.5.48A8,8,0,0,1,653,1235.51Z"></path><path class="cls-12" d="M661.73,1221.6h1.78v14h-1.78Zm1.2,12.09h2.86a2.83,2.83,0,0,0,2.17-.8,3.14,3.14,0,0,0,.77-2.26v-4.1a3.13,3.13,0,0,0-.77-2.26,2.84,2.84,0,0,0-2.17-.81h-2.86v-1.86h2.81a5.4,5.4,0,0,1,2.6.59,3.88,3.88,0,0,1,1.64,1.71,5.88,5.88,0,0,1,.57,2.7v4a5.91,5.91,0,0,1-.57,2.7,3.84,3.84,0,0,1-1.65,1.71,5.4,5.4,0,0,1-2.6.58h-2.8Z"></path><path class="cls-12" d="M676.2,1235.55h-1.77v-11.82l-1.8,1.22v-2l1.8-1.33h1.77Z"></path><path class="cls-12" d="M709.11,1221.6h1.77v14h-1.77Zm1.2,12.09h2.85a2.83,2.83,0,0,0,2.17-.8,3.1,3.1,0,0,0,.77-2.26v-4.1a3.08,3.08,0,0,0-.77-2.26,2.84,2.84,0,0,0-2.17-.81h-2.85v-1.86h2.8a5.37,5.37,0,0,1,2.6.59,3.82,3.82,0,0,1,1.64,1.71,5.88,5.88,0,0,1,.57,2.7v4a5.91,5.91,0,0,1-.57,2.7,3.82,3.82,0,0,1-1.64,1.71,5.41,5.41,0,0,1-2.61.58h-2.79Z"></path><path class="cls-12" d="M721.1,1234.65a4.22,4.22,0,0,1-.92-2.91v-6.35a4.29,4.29,0,0,1,.92-2.92,4,4,0,0,1,5.38,0,4.26,4.26,0,0,1,.91,2.92v6.35a4.29,4.29,0,0,1-.92,2.92,4,4,0,0,1-5.37,0Zm4.07-1.36a2.37,2.37,0,0,0,.45-1.55v-6.35a2.47,2.47,0,0,0-.44-1.56,2.07,2.07,0,0,0-2.79,0,2.47,2.47,0,0,0-.44,1.56v6.35a2.37,2.37,0,0,0,.45,1.55,2,2,0,0,0,2.77,0Z"></path><path class="cls-12" d="M766.91,1221.6h1.77v14h-1.77Zm1.2,12.09H771a2.86,2.86,0,0,0,2.17-.8,3.14,3.14,0,0,0,.77-2.26v-4.1a3.13,3.13,0,0,0-.77-2.26,2.87,2.87,0,0,0-2.17-.81h-2.86v-1.86h2.81a5.4,5.4,0,0,1,2.6.59,3.93,3.93,0,0,1,1.64,1.71,6,6,0,0,1,.56,2.7v4a6,6,0,0,1-.56,2.7,3.9,3.9,0,0,1-1.65,1.71,5.4,5.4,0,0,1-2.6.58h-2.8Z"></path><path class="cls-12" d="M781.38,1235.55h-1.77v-11.82l-1.8,1.22v-2l1.8-1.33h1.77Z"></path><path class="cls-12" d="M786.08,1235.29a3.24,3.24,0,0,1-1.21-1.2,5.07,5.07,0,0,1-.62-1.89H786a1.83,1.83,0,0,0,.56,1.19,1.65,1.65,0,0,0,1.2.43,1.54,1.54,0,0,0,1.31-.63,2.93,2.93,0,0,0,.47-1.77v-1.17a2.9,2.9,0,0,0-.47-1.76,1.54,1.54,0,0,0-1.31-.63,1.57,1.57,0,0,0-.89.29,2.76,2.76,0,0,0-.75.8h-1.61v-7.35H791v1.86H786.3v3.14a2.48,2.48,0,0,1,.74-.46,2.19,2.19,0,0,1,.83-.16,3.31,3.31,0,0,1,1.87.5,3.1,3.1,0,0,1,1.19,1.46,5.93,5.93,0,0,1,.4,2.31v1.17a5.74,5.74,0,0,1-.42,2.31,3.08,3.08,0,0,1-1.21,1.46,3.53,3.53,0,0,1-1.92.51A3.48,3.48,0,0,1,786.08,1235.29Z"></path><path class="cls-12" d="M824.09,1221.6h1.77v14h-1.77Zm1.2,12.09h2.85a2.83,2.83,0,0,0,2.17-.8,3.1,3.1,0,0,0,.77-2.26v-4.1a3.08,3.08,0,0,0-.77-2.26,2.84,2.84,0,0,0-2.17-.81h-2.85v-1.86h2.8a5.37,5.37,0,0,1,2.6.59,3.82,3.82,0,0,1,1.64,1.71,5.88,5.88,0,0,1,.57,2.7v4a5.91,5.91,0,0,1-.57,2.7,3.82,3.82,0,0,1-1.64,1.71,5.41,5.41,0,0,1-2.61.58h-2.79Z"></path><path class="cls-12" d="M835.31,1233.86l4.41-6.49a5.12,5.12,0,0,0,.6-1.16,3.38,3.38,0,0,0,.21-1.11v0a1.83,1.83,0,0,0-.44-1.3,1.89,1.89,0,0,0-2.52,0,2.47,2.47,0,0,0-.58,1.43h-1.83a5.56,5.56,0,0,1,.64-2,3.28,3.28,0,0,1,1.24-1.29,3.43,3.43,0,0,1,1.77-.45,4,4,0,0,1,1.93.43,2.74,2.74,0,0,1,1.21,1.24,4.25,4.25,0,0,1,.42,2h0a4.61,4.61,0,0,1-.28,1.54,6.41,6.41,0,0,1-.77,1.55l-3.66,5.49h4.78v1.86h-7.13Z"></path><path class="cls-12" d="M880.45,1221.6h1.77v14h-1.77Zm1.19,12.09h2.86a2.83,2.83,0,0,0,2.17-.8,3.1,3.1,0,0,0,.77-2.26v-4.1a3.08,3.08,0,0,0-.77-2.26,2.84,2.84,0,0,0-2.17-.81h-2.86v-1.86h2.81a5.37,5.37,0,0,1,2.6.59,3.82,3.82,0,0,1,1.64,1.71,5.88,5.88,0,0,1,.57,2.7v4a5.91,5.91,0,0,1-.57,2.7,3.82,3.82,0,0,1-1.64,1.71,5.41,5.41,0,0,1-2.61.58h-2.8Z"></path><path class="cls-12" d="M891.69,1231.72l4.24-10.11h1.83l-4.14,10h6.2v1.81h-8.13Zm5.45-4.37h1.73v8.21h-1.73Z"></path><path class="cls-12" d="M937.08,1221.59h1.77v14h-1.77Zm.77,6.2h4.31a1.56,1.56,0,0,0,.9-.27,1.7,1.7,0,0,0,.6-.76,2.9,2.9,0,0,0,.21-1.14,2.85,2.85,0,0,0-.21-1.13,1.73,1.73,0,0,0-.6-.77,1.54,1.54,0,0,0-.9-.27h-4.31v-1.86h4.24a3.72,3.72,0,0,1,1.93.5,3.39,3.39,0,0,1,1.28,1.42,4.58,4.58,0,0,1,.46,2.11,4.76,4.76,0,0,1-.46,2.12,3.39,3.39,0,0,1-1.29,1.41,3.6,3.6,0,0,1-1.92.5h-4.24Zm3.44,1.43,1.77-.44,3.23,6.77h-2.1Z"></path><path class="cls-12" d="M951.69,1227.58l3.17-6h2l-4.18,7.55-3.39,6.4h-2Zm.07,1.84-.27-.48-4.1-7.34h2l3,5.68.29.52,4.32,7.75h-2Z"></path><path class="cls-12" d="M958.32,1233.86l4.41-6.49a5.12,5.12,0,0,0,.6-1.16,3.38,3.38,0,0,0,.21-1.11v0a1.83,1.83,0,0,0-.44-1.3,1.67,1.67,0,0,0-1.26-.46,1.64,1.64,0,0,0-1.25.5,2.41,2.41,0,0,0-.59,1.43h-1.83a5.56,5.56,0,0,1,.64-2,3.35,3.35,0,0,1,1.24-1.29,3.43,3.43,0,0,1,1.77-.45,4,4,0,0,1,1.93.43,2.81,2.81,0,0,1,1.22,1.24,4.38,4.38,0,0,1,.41,2h0a4.61,4.61,0,0,1-.28,1.54,6.41,6.41,0,0,1-.77,1.55l-3.66,5.49h4.78v1.86h-7.13Z"></path><path class="cls-12" d="M992.3,1221.6h8.92v1.86H992.3Zm3.58,1.14h1.77v12.81h-1.77Z"></path><path class="cls-12" d="M1006.14,1227.58l3.17-6h2l-4.18,7.55-3.39,6.4h-2Zm.08,1.84-.27-.48-4.1-7.34h2l3,5.68.28.52,4.32,7.75h-2Z"></path><path class="cls-12" d="M1012.78,1233.86l4.41-6.49a5.08,5.08,0,0,0,.59-1.16,3.38,3.38,0,0,0,.21-1.11v0a1.78,1.78,0,0,0-.44-1.3,1.65,1.65,0,0,0-1.26-.46,1.67,1.67,0,0,0-1.25.5,2.4,2.4,0,0,0-.58,1.43h-1.84a5.75,5.75,0,0,1,.64-2,3.31,3.31,0,0,1,1.25-1.29,3.41,3.41,0,0,1,1.76-.45,4,4,0,0,1,1.93.43,2.76,2.76,0,0,1,1.22,1.24,4.25,4.25,0,0,1,.42,2h0a4.88,4.88,0,0,1-.28,1.54,6.79,6.79,0,0,1-.77,1.55l-3.66,5.49h4.78v1.86h-7.13Z"></path><path class="cls-12" d="M1048.92,1221.6h1.77v14h-1.77Zm1.2,12.09H1053a2.86,2.86,0,0,0,2.17-.8,3.14,3.14,0,0,0,.76-2.26v-4.1a3.12,3.12,0,0,0-.76-2.26,2.87,2.87,0,0,0-2.17-.81h-2.86v-1.86h2.81a5.33,5.33,0,0,1,2.59.59,3.9,3.9,0,0,1,1.65,1.71,6,6,0,0,1,.56,2.7v4a6,6,0,0,1-.56,2.7,3.9,3.9,0,0,1-1.65,1.71,5.4,5.4,0,0,1-2.6.58h-2.8Z"></path><path class="cls-12" d="M1062.17,1235.29a3.24,3.24,0,0,1-1.21-1.2,5.07,5.07,0,0,1-.62-1.89h1.77a1.83,1.83,0,0,0,.56,1.19,1.65,1.65,0,0,0,1.2.43,1.54,1.54,0,0,0,1.31-.63,2.93,2.93,0,0,0,.47-1.77v-1.17a2.9,2.9,0,0,0-.47-1.76,1.54,1.54,0,0,0-1.31-.63,1.57,1.57,0,0,0-.89.29,2.76,2.76,0,0,0-.75.8h-1.61v-7.35h6.44v1.86h-4.67v3.14a2.48,2.48,0,0,1,.74-.46,2.19,2.19,0,0,1,.83-.16,3.31,3.31,0,0,1,1.87.5,3.1,3.1,0,0,1,1.19,1.46,5.93,5.93,0,0,1,.4,2.31v1.17a5.74,5.74,0,0,1-.42,2.31,3.08,3.08,0,0,1-1.21,1.46,3.53,3.53,0,0,1-1.92.51A3.48,3.48,0,0,1,1062.17,1235.29Z"></path><path class="cls-12" d="M1105.52,1221.6h1.77v14h-1.77Zm1.2,12.09h2.86a2.86,2.86,0,0,0,2.17-.8,3.14,3.14,0,0,0,.77-2.26v-4.1a3.13,3.13,0,0,0-.77-2.26,2.87,2.87,0,0,0-2.17-.81h-2.86v-1.86h2.81a5.33,5.33,0,0,1,2.59.59,3.9,3.9,0,0,1,1.65,1.71,6,6,0,0,1,.56,2.7v4a6,6,0,0,1-.56,2.7,3.9,3.9,0,0,1-1.65,1.71,5.4,5.4,0,0,1-2.6.58h-2.8Z"></path><path class="cls-12" d="M1120,1235.55h-1.77v-11.82l-1.8,1.22v-2l1.8-1.33H1120Z"></path><path class="cls-12" d="M1124.54,1235.22a3.31,3.31,0,0,1-1.34-1.36,4.15,4.15,0,0,1-.47-2v-.23a4.21,4.21,0,0,1,.47-2,3.48,3.48,0,0,1,1.26-1.39,2.94,2.94,0,0,1-1.07-1.16,3.4,3.4,0,0,1-.4-1.61v-.34a4,4,0,0,1,.44-1.92,3.15,3.15,0,0,1,1.25-1.28,4.07,4.07,0,0,1,3.76,0,3.15,3.15,0,0,1,1.25,1.28,4.09,4.09,0,0,1,.44,1.92v.34a3.36,3.36,0,0,1-.41,1.62,2.89,2.89,0,0,1-1.09,1.15,3.48,3.48,0,0,1,1.28,1.4,4.15,4.15,0,0,1,.48,2v.23a4.27,4.27,0,0,1-.47,2,3.37,3.37,0,0,1-1.34,1.36,4.49,4.49,0,0,1-4,0Zm3.11-1.67a1.86,1.86,0,0,0,.72-.75,2.4,2.4,0,0,0,.26-1.12v-.14a2.37,2.37,0,0,0-.26-1.12,1.82,1.82,0,0,0-.72-.76,2.34,2.34,0,0,0-2.18,0,1.82,1.82,0,0,0-.72.76,2.41,2.41,0,0,0-.26,1.13v.15a2.33,2.33,0,0,0,.26,1.11,1.77,1.77,0,0,0,.72.74,2.34,2.34,0,0,0,2.18,0Zm-.15-6.29a1.68,1.68,0,0,0,.63-.73,2.45,2.45,0,0,0,.23-1.08v-.13a2.31,2.31,0,0,0-.23-1,1.71,1.71,0,0,0-.63-.7,2,2,0,0,0-1.88,0,1.71,1.71,0,0,0-.63.7,2.32,2.32,0,0,0-.23,1v.14a2.44,2.44,0,0,0,.23,1.07,1.71,1.71,0,0,0,.63.72,1.89,1.89,0,0,0,1.88,0Z"></path><path class="cls-12" d="M1162.57,1221.6h1.78v14h-1.78Zm1.2,12.09h2.86a2.85,2.85,0,0,0,2.17-.8,3.14,3.14,0,0,0,.77-2.26v-4.1a3.13,3.13,0,0,0-.77-2.26,2.85,2.85,0,0,0-2.17-.81h-2.86v-1.86h2.81a5.4,5.4,0,0,1,2.6.59,3.88,3.88,0,0,1,1.64,1.71,5.88,5.88,0,0,1,.57,2.7v4a5.91,5.91,0,0,1-.57,2.7,3.9,3.9,0,0,1-1.65,1.71,5.4,5.4,0,0,1-2.6.58h-2.8Z"></path><path class="cls-12" d="M1177,1235.55h-1.77v-11.82l-1.8,1.22v-2l1.8-1.33H1177Z"></path><path class="cls-12" d="M1184.39,1228.63v.34a1.39,1.39,0,0,1-.66.65,2.38,2.38,0,0,1-1,.21,2.6,2.6,0,0,1-1.59-.51,3.24,3.24,0,0,1-1.06-1.44,5.64,5.64,0,0,1-.38-2.14h0a5.93,5.93,0,0,1,.41-2.31,3.14,3.14,0,0,1,1.21-1.46,3.55,3.55,0,0,1,1.91-.5,3.44,3.44,0,0,1,1.9.51,3.2,3.2,0,0,1,1.21,1.48,6,6,0,0,1,.41,2.33h0a7.6,7.6,0,0,1-.18,1.59,10.46,10.46,0,0,1-.49,1.69c0,.08-.07.17-.11.25s-.07.17-.11.26l-2.69,6h-1.91Zm.08-1.21a3,3,0,0,0,.46-1.76h0a2.85,2.85,0,0,0-.46-1.71,1.7,1.7,0,0,0-2.59,0,2.79,2.79,0,0,0-.46,1.72h0a2.85,2.85,0,0,0,.46,1.75,1.5,1.5,0,0,0,1.3.62A1.53,1.53,0,0,0,1184.47,1227.42Z"></path><path class="cls-12" d="M1220.08,1221.6h1.77v14h-1.77Zm1.2,12.09h2.86a2.86,2.86,0,0,0,2.17-.8,3.14,3.14,0,0,0,.77-2.26v-4.1a3.13,3.13,0,0,0-.77-2.26,2.87,2.87,0,0,0-2.17-.81h-2.86v-1.86h2.81a5.4,5.4,0,0,1,2.6.59,3.93,3.93,0,0,1,1.64,1.71,5.89,5.89,0,0,1,.56,2.7v4a5.91,5.91,0,0,1-.56,2.7,3.9,3.9,0,0,1-1.65,1.71,5.4,5.4,0,0,1-2.6.58h-2.8Z"></path><path class="cls-12" d="M1231.31,1233.86l4.41-6.49a5.08,5.08,0,0,0,.59-1.16,3.38,3.38,0,0,0,.21-1.11v0a1.78,1.78,0,0,0-.44-1.3,1.88,1.88,0,0,0-2.51,0,2.4,2.4,0,0,0-.58,1.43h-1.84a5.75,5.75,0,0,1,.64-2,3.31,3.31,0,0,1,1.25-1.29,3.41,3.41,0,0,1,1.76-.45,4,4,0,0,1,1.93.43,2.81,2.81,0,0,1,1.22,1.24,4.25,4.25,0,0,1,.42,2h0a4.88,4.88,0,0,1-.28,1.54,6.44,6.44,0,0,1-.78,1.55l-3.65,5.49h4.78v1.86h-7.13Z"></path><path class="cls-12" d="M1243.75,1235.55H1242v-11.82l-1.8,1.22v-2l1.8-1.33h1.78Z"></path><path class="cls-12" d="M1276.23,1221.6H1278v14h-1.77Zm1.2,12.09h2.85a2.83,2.83,0,0,0,2.17-.8,3.1,3.1,0,0,0,.77-2.26v-4.1a3.08,3.08,0,0,0-.77-2.26,2.84,2.84,0,0,0-2.17-.81h-2.85v-1.86h2.8a5.37,5.37,0,0,1,2.6.59,3.82,3.82,0,0,1,1.64,1.71,5.88,5.88,0,0,1,.57,2.7v4a5.91,5.91,0,0,1-.57,2.7,3.82,3.82,0,0,1-1.64,1.71,5.41,5.41,0,0,1-2.61.58h-2.79Z"></path><path class="cls-12" d="M1290.65,1227.58l3.18-6h2l-4.18,7.55-3.39,6.4h-2Zm.08,1.84-.27-.48-4.1-7.34h2l3.05,5.68.29.52,4.32,7.75h-2Z"></path><path class="cls-12" d="M1297.88,1234.65a4.27,4.27,0,0,1-.92-2.91v-6.35a4.29,4.29,0,0,1,.92-2.92,4,4,0,0,1,5.38,0,4.26,4.26,0,0,1,.92,2.92v6.35a4.29,4.29,0,0,1-.92,2.92,3.42,3.42,0,0,1-2.69,1A3.38,3.38,0,0,1,1297.88,1234.65Zm4.08-1.36a2.42,2.42,0,0,0,.44-1.55v-6.35a2.41,2.41,0,0,0-.44-1.56,2.06,2.06,0,0,0-2.78,0,2.41,2.41,0,0,0-.44,1.56v6.35a2.42,2.42,0,0,0,.44,1.55,2,2,0,0,0,2.78,0Z"></path><path class="cls-12" d="M1334.38,1221.6h8.92v1.86h-8.92Zm3.57,1.14h1.78v12.81H1338Z"></path><path class="cls-12" d="M1348.22,1227.58l3.17-6h2l-4.18,7.55-3.39,6.4h-2Zm.08,1.84-.27-.48-4.11-7.34h2l3,5.68.29.52,4.32,7.75h-2Z"></path><path class="cls-12" d="M1355.44,1234.65a4.26,4.26,0,0,1-.91-2.91v-6.35a4.24,4.24,0,0,1,.92-2.92,4,4,0,0,1,5.37,0,4.26,4.26,0,0,1,.92,2.92v6.35a4.29,4.29,0,0,1-.92,2.92,3.42,3.42,0,0,1-2.69,1A3.38,3.38,0,0,1,1355.44,1234.65Zm4.08-1.36a2.37,2.37,0,0,0,.45-1.55v-6.35a2.42,2.42,0,0,0-.45-1.56,2.06,2.06,0,0,0-2.78,0,2.47,2.47,0,0,0-.44,1.56v6.35a2.37,2.37,0,0,0,.45,1.55,2,2,0,0,0,2.77,0Z"></path><path class="cls-12" d="M1392.08,1221.6h1.78v14h-1.78Zm1.2,12.09h2.86a2.85,2.85,0,0,0,2.17-.8,3.14,3.14,0,0,0,.77-2.26v-4.1a3.13,3.13,0,0,0-.77-2.26,2.85,2.85,0,0,0-2.17-.81h-2.86v-1.86h2.81a5.4,5.4,0,0,1,2.6.59,3.88,3.88,0,0,1,1.64,1.71,5.88,5.88,0,0,1,.57,2.7v4a5.91,5.91,0,0,1-.57,2.7,3.84,3.84,0,0,1-1.65,1.71,5.4,5.4,0,0,1-2.6.58h-2.8Z"></path><path class="cls-12" d="M1403.31,1233.86l4.41-6.49a5.08,5.08,0,0,0,.59-1.16,3.41,3.41,0,0,0,.22-1.11v0a1.79,1.79,0,0,0-.45-1.3,1.64,1.64,0,0,0-1.26-.46,1.67,1.67,0,0,0-1.25.5,2.4,2.4,0,0,0-.58,1.43h-1.83a5.55,5.55,0,0,1,.63-2,3.38,3.38,0,0,1,1.25-1.29,3.43,3.43,0,0,1,1.77-.45,4,4,0,0,1,1.92.43,2.76,2.76,0,0,1,1.22,1.24,4.25,4.25,0,0,1,.42,2h0a4.61,4.61,0,0,1-.28,1.54,6.79,6.79,0,0,1-.77,1.55l-3.66,5.49h4.78v1.86h-7.13Z"></path><path class="cls-12" d="M1412.51,1233.86l4.4-6.49a4.74,4.74,0,0,0,.6-1.16,3.38,3.38,0,0,0,.21-1.11v0a1.83,1.83,0,0,0-.44-1.3,1.67,1.67,0,0,0-1.26-.46,1.64,1.64,0,0,0-1.25.5,2.41,2.41,0,0,0-.59,1.43h-1.83a5.56,5.56,0,0,1,.64-2,3.31,3.31,0,0,1,1.25-1.29,3.39,3.39,0,0,1,1.76-.45,4,4,0,0,1,1.93.43,2.81,2.81,0,0,1,1.22,1.24,4.38,4.38,0,0,1,.41,2h0a4.61,4.61,0,0,1-.28,1.54,6.41,6.41,0,0,1-.77,1.55l-3.66,5.49h4.78v1.86h-7.12Z"></path><path class="cls-12" d="M1446.67,1221.6h1.77v14h-1.77Zm1.19,12.09h2.86a2.83,2.83,0,0,0,2.17-.8,3.1,3.1,0,0,0,.77-2.26v-4.1a3.08,3.08,0,0,0-.77-2.26,2.84,2.84,0,0,0-2.17-.81h-2.86v-1.86h2.81a5.37,5.37,0,0,1,2.6.59,3.82,3.82,0,0,1,1.64,1.71,5.88,5.88,0,0,1,.57,2.7v4a5.91,5.91,0,0,1-.57,2.7,3.82,3.82,0,0,1-1.64,1.71,5.41,5.41,0,0,1-2.61.58h-2.8Z"></path><path class="cls-12" d="M1457.89,1233.86l4.41-6.49a5.56,5.56,0,0,0,.6-1.16,3.38,3.38,0,0,0,.21-1.11v0a1.83,1.83,0,0,0-.44-1.3,1.89,1.89,0,0,0-2.52,0,2.4,2.4,0,0,0-.58,1.43h-1.83a5.38,5.38,0,0,1,.64-2,3.28,3.28,0,0,1,1.24-1.29,3.43,3.43,0,0,1,1.77-.45,4,4,0,0,1,1.93.43,2.74,2.74,0,0,1,1.21,1.24,4.25,4.25,0,0,1,.42,2h0a4.61,4.61,0,0,1-.28,1.54,6.41,6.41,0,0,1-.77,1.55l-3.66,5.49H1465v1.86h-7.13Z"></path><path class="cls-12" d="M1468.68,1235.27a3.29,3.29,0,0,1-1.3-1.24,4.77,4.77,0,0,1-.62-2h1.81a2.27,2.27,0,0,0,.33,1,1.56,1.56,0,0,0,.68.57,2.24,2.24,0,0,0,1,.19,1.79,1.79,0,0,0,1.36-.52,2,2,0,0,0,.49-1.46v-.42a2.5,2.5,0,0,0-.46-1.62,1.59,1.59,0,0,0-1.31-.57h-.89v-1.86h.89a1.39,1.39,0,0,0,1.15-.49,2.12,2.12,0,0,0,.41-1.38v-.43a1.77,1.77,0,0,0-.43-1.28,1.61,1.61,0,0,0-1.22-.45,1.67,1.67,0,0,0-.81.19,1.49,1.49,0,0,0-.6.57,2.64,2.64,0,0,0-.36,1H1467a5.33,5.33,0,0,1,.65-2,3.21,3.21,0,0,1,2.92-1.66,3.32,3.32,0,0,1,2.53,1,3.77,3.77,0,0,1,.89,2.68v.23a3.26,3.26,0,0,1-.51,1.82,2.88,2.88,0,0,1-1.45,1.13,2.57,2.57,0,0,1,1.6,1.12,4,4,0,0,1,.57,2.23v.23a4.7,4.7,0,0,1-.42,2.08,3,3,0,0,1-1.24,1.32,4,4,0,0,1-2,.45A3.88,3.88,0,0,1,1468.68,1235.27Z"></path><path class="cls-12" d="M381.5,1086.37h3.05v24.15H381.5Zm1.81,21h5.92a4.93,4.93,0,0,0,3.4-1,3.52,3.52,0,0,0,1.07-2.76v-.05a5.37,5.37,0,0,0-.38-2.11,2.84,2.84,0,0,0-1.21-1.35,4.18,4.18,0,0,0-2.12-.48h-6.68v-3.05H390a3.43,3.43,0,0,0,2.56-.88,3.58,3.58,0,0,0,.87-2.61,3.5,3.5,0,0,0-1-2.71,4.07,4.07,0,0,0-2.88-.89h-6.26v-3.14h6.81a7.2,7.2,0,0,1,3.55.79,5.08,5.08,0,0,1,2.14,2.26,8,8,0,0,1,.71,3.49,6.28,6.28,0,0,1-.44,2.34,4.9,4.9,0,0,1-1.33,1.86,4.76,4.76,0,0,1-2.22,1,4.68,4.68,0,0,1,2.29,1,5.36,5.36,0,0,1,1.47,2,6.89,6.89,0,0,1,.51,2.66v0a7.38,7.38,0,0,1-.78,3.46,5.52,5.52,0,0,1-2.24,2.3,6.79,6.79,0,0,1-3.4.82h-7.07Z"></path><path class="cls-12" d="M404.14,1109.66a7.25,7.25,0,0,1-2.7-3.12,10.92,10.92,0,0,1-.95-4.68V1095a11,11,0,0,1,.95-4.68,7.37,7.37,0,0,1,2.7-3.12,8,8,0,0,1,8.07,0,7.37,7.37,0,0,1,2.7,3.12,11,11,0,0,1,.95,4.68v6.84a10.92,10.92,0,0,1-.95,4.68,7.25,7.25,0,0,1-2.7,3.12,7.89,7.89,0,0,1-8.07,0Zm6.42-2.9a4.44,4.44,0,0,0,1.6-1.91,7,7,0,0,0,.56-2.87v-7.08a6.92,6.92,0,0,0-.56-2.86,4.38,4.38,0,0,0-1.6-1.91,4.58,4.58,0,0,0-4.77,0,4.3,4.3,0,0,0-1.59,1.91,6.76,6.76,0,0,0-.57,2.86V1102a6.81,6.81,0,0,0,.57,2.87,4.42,4.42,0,0,0,6.36,1.91Z"></path><path class="cls-12" d="M423.43,1109.66a7.25,7.25,0,0,1-2.7-3.12,10.78,10.78,0,0,1-1-4.68V1095a10.81,10.81,0,0,1,1-4.68,7.13,7.13,0,0,1,6.73-4.22,7.46,7.46,0,0,1,4,1.1,7.37,7.37,0,0,1,2.7,3.12,11,11,0,0,1,.95,4.68v6.84a10.92,10.92,0,0,1-.95,4.68,7.25,7.25,0,0,1-2.7,3.12,7.89,7.89,0,0,1-8.07,0Zm6.42-2.9a4.42,4.42,0,0,0,1.59-1.91A6.81,6.81,0,0,0,432,1102v-7.08a6.76,6.76,0,0,0-.57-2.86,4.36,4.36,0,0,0-1.59-1.91,4.58,4.58,0,0,0-4.77,0,4.38,4.38,0,0,0-1.6,1.91,6.92,6.92,0,0,0-.56,2.86V1102a7,7,0,0,0,.56,2.87,4.44,4.44,0,0,0,1.6,1.91,4.58,4.58,0,0,0,4.77,0Z"></path><path class="cls-12" d="M437.11,1086.37h15.43v3.22H437.11Zm6.18,2h3.07v22.18h-3.07Z"></path><path class="cls-12" d="M566.05,1034.4a5.79,5.79,0,0,1-2.55-2.49,8.32,8.32,0,0,1-.88-4h0a12.51,12.51,0,0,1,.35-2.83,15.18,15.18,0,0,1,1-2.9c.07-.17.15-.33.23-.49s.18-.32.26-.48l5.82-10.39h4l-6.82,12,0-.6a3,3,0,0,1,1.34-1.21,4.6,4.6,0,0,1,2.06-.43,7.14,7.14,0,0,1,3.57.84,5.48,5.48,0,0,1,2.26,2.47,8.91,8.91,0,0,1,.77,3.89v0a8.52,8.52,0,0,1-.87,4,5.73,5.73,0,0,1-2.56,2.52,9.82,9.82,0,0,1-8.06,0Zm6.78-3.4a3.92,3.92,0,0,0,1-2.84h0a4.48,4.48,0,0,0-1-3.13,3.72,3.72,0,0,0-2.89-1.11,3.18,3.18,0,0,0-2.59,1.11,4.78,4.78,0,0,0-.92,3.14v0a3.9,3.9,0,0,0,1,2.83,4.28,4.28,0,0,0,5.49,0Z"></path><path class="cls-12" d="M585.38,1034.4a5.79,5.79,0,0,1-2.55-2.49,8.32,8.32,0,0,1-.87-4h0a12.51,12.51,0,0,1,.35-2.83,15.14,15.14,0,0,1,1-2.9,4.44,4.44,0,0,1,.24-.49c.08-.16.17-.32.26-.48l5.81-10.39h4l-6.83,12,0-.6a3.1,3.1,0,0,1,1.34-1.21,4.63,4.63,0,0,1,2.06-.43,7.14,7.14,0,0,1,3.57.84,5.5,5.5,0,0,1,2.27,2.47,9.06,9.06,0,0,1,.77,3.89v0a8.4,8.4,0,0,1-.88,4,5.75,5.75,0,0,1-2.55,2.52,9.84,9.84,0,0,1-8.07,0Zm6.78-3.4a3.92,3.92,0,0,0,1-2.84h0a4.43,4.43,0,0,0-1-3.13,3.69,3.69,0,0,0-2.89-1.11,3.18,3.18,0,0,0-2.59,1.11,4.84,4.84,0,0,0-.92,3.14v0a3.86,3.86,0,0,0,1,2.83,4.27,4.27,0,0,0,5.48,0Z"></path><path class="cls-12" d="M604.71,1034.4a5.82,5.82,0,0,1-2.54-2.49,8.2,8.2,0,0,1-.88-4h0a12.51,12.51,0,0,1,.35-2.83,15.14,15.14,0,0,1,1-2.9l.24-.49.26-.48,5.81-10.39h4l-6.82,12v-.6a3.12,3.12,0,0,1,1.35-1.21,4.57,4.57,0,0,1,2.06-.43,7.19,7.19,0,0,1,3.57.84,5.54,5.54,0,0,1,2.26,2.47,9.06,9.06,0,0,1,.77,3.89v0a8.52,8.52,0,0,1-.87,4,5.83,5.83,0,0,1-2.56,2.52,9.84,9.84,0,0,1-8.07,0Zm6.78-3.4a3.88,3.88,0,0,0,1-2.84h0a4.48,4.48,0,0,0-1-3.13,3.72,3.72,0,0,0-2.89-1.11A3.2,3.2,0,0,0,606,1025a4.84,4.84,0,0,0-.92,3.14v0a3.9,3.9,0,0,0,1,2.83,4.27,4.27,0,0,0,5.48,0Z"></path><path class="cls-12" d="M635,1013.88,628.08,1035h-4l6.92-20.93h-6.8v3.47h-3.76v-6.69H635Z"></path><path class="cls-12" d="M642.08,1033.45a6.58,6.58,0,0,1-1.94-5v-11a6.55,6.55,0,0,1,2-5.06,9.92,9.92,0,0,1,11.38,0,6.55,6.55,0,0,1,1.94,5.07v11a6.53,6.53,0,0,1-1.95,5,8,8,0,0,1-5.68,1.81A8.12,8.12,0,0,1,642.08,1033.45Zm8.63-2.35a3.66,3.66,0,0,0,.95-2.7v-11a3.62,3.62,0,0,0-.94-2.7,5.07,5.07,0,0,0-5.88,0,3.62,3.62,0,0,0-.94,2.7v11a3.65,3.65,0,0,0,.94,2.7,5.1,5.1,0,0,0,5.87,0Z"></path><path class="cls-12" d="M664.8,1034.54a6.25,6.25,0,0,1-2.55-2.07,7.72,7.72,0,0,1-1.32-3.28h3.75a3.07,3.07,0,0,0,1.18,2.07,4.12,4.12,0,0,0,2.54.74,3.57,3.57,0,0,0,2.79-1.09,4.41,4.41,0,0,0,1-3.06v-2a4.44,4.44,0,0,0-1-3,3.59,3.59,0,0,0-2.79-1.08,3.85,3.85,0,0,0-1.88.49,5.1,5.1,0,0,0-1.58,1.4h-3.42v-12.72h13.63v3.22h-9.88v5.43a5.67,5.67,0,0,1,1.57-.8,5.54,5.54,0,0,1,1.76-.28,8.53,8.53,0,0,1,4,.86,5.82,5.82,0,0,1,2.5,2.53,8.65,8.65,0,0,1,.85,4v2a8.41,8.41,0,0,1-.88,4,5.92,5.92,0,0,1-2.57,2.53,8.7,8.7,0,0,1-4.07.88A8.57,8.57,0,0,1,664.8,1034.54Z"></path><path class="cls-12" d="M689.28,1010.86h3.2l9.86,24.15h-4.05l-7.41-19.49L683.47,1035h-4.05ZM684,1026.49H698v3.22H684Z"></path><path class="cls-12" d="M718.93,1035v3.22h-15.3V1035Z"></path><path class="cls-12" d="M730.83,1025.19V1035h-3.75v-9.82l-8.15-14.33h4.18l5.85,10.89,5.85-10.89H739Z"></path><path class="cls-12" d="M747.65,1035H743.9v-20.47l-3.81,2.11v-3.5l3.81-2.29h3.75Z"></path><path class="cls-12" d="M766.8,1034.52a6.63,6.63,0,0,1-2.75-2.15,7.22,7.22,0,0,1-1.32-3.38h3.83a3.43,3.43,0,0,0,.72,1.7,3.32,3.32,0,0,0,1.42,1,6,6,0,0,0,2,.32,4.24,4.24,0,0,0,2.89-.9,3.14,3.14,0,0,0,1-2.52v-.73a3.81,3.81,0,0,0-1-2.8,3.7,3.7,0,0,0-2.76-1H769v-3.22h1.9a3.32,3.32,0,0,0,2.43-.85,3.21,3.21,0,0,0,.86-2.39v-.75a2.75,2.75,0,0,0-.91-2.21,3.87,3.87,0,0,0-2.59-.78,4.27,4.27,0,0,0-1.71.33,3.12,3.12,0,0,0-1.27,1,4.32,4.32,0,0,0-.77,1.69h-3.81a8.35,8.35,0,0,1,1.39-3.39,6.55,6.55,0,0,1,2.59-2.14,8.33,8.33,0,0,1,3.58-.73,7.92,7.92,0,0,1,5.36,1.64,5.82,5.82,0,0,1,1.89,4.64v.39a4.9,4.9,0,0,1-1.08,3.16,6.18,6.18,0,0,1-3.07,2,5.55,5.55,0,0,1,3.39,1.94,6,6,0,0,1,1.2,3.86v.4a6.87,6.87,0,0,1-.9,3.6,5.69,5.69,0,0,1-2.62,2.28,11.17,11.17,0,0,1-8.1,0Z"></path><path class="cls-12" d="M785.7,1033.45a6.58,6.58,0,0,1-1.94-5v-11a6.55,6.55,0,0,1,2-5.06,9.92,9.92,0,0,1,11.38,0,6.59,6.59,0,0,1,1.94,5.07v11a6.53,6.53,0,0,1-1.95,5,9.85,9.85,0,0,1-11.38,0Zm8.63-2.35a3.66,3.66,0,0,0,.95-2.7v-11a3.66,3.66,0,0,0-.94-2.7,5.08,5.08,0,0,0-5.89,0,3.62,3.62,0,0,0-.94,2.7v11a3.66,3.66,0,0,0,1,2.7,5.1,5.1,0,0,0,5.87,0Z"></path><path class="cls-12" d="M391.14,846.25h3.07V870.4h-3.07Zm1.49,0H405.2v3.22H392.63Zm0,10.55h10.91V860H392.63Zm0,10.38H405.2v3.22H392.63Z"></path><path class="cls-12" d="M409.56,846.25h2.78L423,864.92l-.36.43v-19.1h3v24.13H422.9L412.24,852l.36-.44v18.82h-3Z"></path><rect class="cls-4" x="1055.11" y="797.91" width="389.99" height="350.87" rx="9.49"></rect><rect class="cls-20" x="1066.26" y="807.95" width="367.69" height="330.8" rx="8.94"></rect><path class="cls-12" d="M1181.3,849.72h2.89v22.77h-2.89Zm1.4,0h11.84v3H1182.7Zm0,9.94H1193v3H1182.7Zm0,9.79h11.84v3H1182.7Z"></path><path class="cls-12" d="M1202,872.41a9.93,9.93,0,0,1-2.49-.94,10.44,10.44,0,0,1-2.16-1.57l1.8-2.44a7.93,7.93,0,0,0,2.59,1.69,8.22,8.22,0,0,0,3.08.56,5.76,5.76,0,0,0,3.48-.91,3,3,0,0,0,1.23-2.59v0a3,3,0,0,0-.56-1.89,3.41,3.41,0,0,0-1.45-1,15.43,15.43,0,0,0-2.29-.62h-.09l-.09,0-.21,0a20.13,20.13,0,0,1-3.37-.88,4.77,4.77,0,0,1-2.22-1.8,6.35,6.35,0,0,1-.92-3.72v0a7.13,7.13,0,0,1,.85-3.6,5.57,5.57,0,0,1,2.51-2.28,9.12,9.12,0,0,1,4-.79,8.86,8.86,0,0,1,2.18.27,10,10,0,0,1,2.11.79,11.85,11.85,0,0,1,2,1.32l-1.64,2.54A9.44,9.44,0,0,0,1208,853a6.13,6.13,0,0,0-2.35-.48,5.16,5.16,0,0,0-3.28.93,3.18,3.18,0,0,0-1.17,2.64v0a2.65,2.65,0,0,0,.6,1.84,3.74,3.74,0,0,0,1.51,1,21.77,21.77,0,0,0,2.5.66l.11,0,.1,0,.16,0,.16,0a16.12,16.12,0,0,1,3.12,1,4.94,4.94,0,0,1,2.1,1.87,6.42,6.42,0,0,1,.84,3.53v0a6.72,6.72,0,0,1-.89,3.56,5.68,5.68,0,0,1-2.59,2.26,9.88,9.88,0,0,1-4.09.77A12.25,12.25,0,0,1,1202,872.41Z"></path><path class="cls-12" d="M1216.26,849.72h2.89v22.77h-2.89Zm1.48,10.9h6.6a2.79,2.79,0,0,0,1.64-.49,3.06,3.06,0,0,0,1.1-1.38,5.61,5.61,0,0,0,0-4.11,3.14,3.14,0,0,0-1.1-1.39,2.79,2.79,0,0,0-1.64-.49h-6.6v-3h6.5a6.05,6.05,0,0,1,3.25.87,5.76,5.76,0,0,1,2.17,2.45,9,9,0,0,1,0,7.32,5.71,5.71,0,0,1-2.17,2.43,6.05,6.05,0,0,1-3.25.87h-6.5Z"></path><path class="cls-12" d="M1234.05,849.7h2.9v22.79h-2.9Zm1.27,10.12h7a2.52,2.52,0,0,0,1.46-.44,2.87,2.87,0,0,0,1-1.24,5.26,5.26,0,0,0,0-3.72,2.92,2.92,0,0,0-1-1.24,2.53,2.53,0,0,0-1.47-.44h-7v-3h6.92a6,6,0,0,1,3.14.82,5.48,5.48,0,0,1,2.1,2.31,7.72,7.72,0,0,1,.74,3.45,7.56,7.56,0,0,1-.75,3.45,5.44,5.44,0,0,1-2.11,2.31,5.86,5.86,0,0,1-3.12.82h-6.92Zm5.61,2.33,2.88-.72,5.28,11.06h-3.44Z"></path><path class="cls-12" d="M1253,849.72h2.89v22.77H1253Zm1.4,0h11.84v3h-11.84Zm0,9.94h10.28v3h-10.28Zm0,9.79h11.84v3h-11.84Z"></path><path class="cls-12" d="M1273.72,872.41a9.93,9.93,0,0,1-2.49-.94,10.44,10.44,0,0,1-2.16-1.57l1.8-2.44a8,8,0,0,0,2.6,1.69,8.14,8.14,0,0,0,3.07.56,5.74,5.74,0,0,0,3.48-.91,3,3,0,0,0,1.23-2.59v0a2.92,2.92,0,0,0-.56-1.89,3.35,3.35,0,0,0-1.45-1,15.43,15.43,0,0,0-2.29-.62h-.09l-.09,0-.21,0a20.13,20.13,0,0,1-3.37-.88,4.77,4.77,0,0,1-2.22-1.8,6.43,6.43,0,0,1-.92-3.72v0a7,7,0,0,1,.86-3.6,5.49,5.49,0,0,1,2.5-2.28,9.17,9.17,0,0,1,4-.79,8.84,8.84,0,0,1,2.17.27,10.29,10.29,0,0,1,2.12.79,12.66,12.66,0,0,1,2,1.32l-1.65,2.54a9.26,9.26,0,0,0-2.35-1.43,6.12,6.12,0,0,0-2.34-.48,5.17,5.17,0,0,0-3.29.93,3.18,3.18,0,0,0-1.17,2.64v0a2.6,2.6,0,0,0,.61,1.84,3.64,3.64,0,0,0,1.5,1,21.77,21.77,0,0,0,2.5.66l.11,0,.11,0,.15,0,.16,0a15.9,15.9,0,0,1,3.12,1,4.94,4.94,0,0,1,2.1,1.87,6.34,6.34,0,0,1,.85,3.53v0a6.72,6.72,0,0,1-.9,3.56,5.71,5.71,0,0,1-2.58,2.26,9.93,9.93,0,0,1-4.1.77A12.25,12.25,0,0,1,1273.72,872.41Z"></path><path class="cls-12" d="M1291,872.41a9.93,9.93,0,0,1-2.49-.94,10.44,10.44,0,0,1-2.16-1.57l1.8-2.44a7.93,7.93,0,0,0,2.59,1.69,8.19,8.19,0,0,0,3.08.56,5.73,5.73,0,0,0,3.47-.91,3,3,0,0,0,1.24-2.59v0a3,3,0,0,0-.56-1.89,3.47,3.47,0,0,0-1.45-1,15.43,15.43,0,0,0-2.29-.62h-.09l-.09,0-.22,0a20,20,0,0,1-3.36-.88,4.77,4.77,0,0,1-2.22-1.8,6.35,6.35,0,0,1-.93-3.72v0a7.13,7.13,0,0,1,.86-3.6,5.52,5.52,0,0,1,2.51-2.28,9.12,9.12,0,0,1,4-.79,8.92,8.92,0,0,1,2.18.27,10.21,10.21,0,0,1,2.11.79,11.85,11.85,0,0,1,2,1.32l-1.64,2.54A9.44,9.44,0,0,0,1297,853a6.13,6.13,0,0,0-2.35-.48,5.14,5.14,0,0,0-3.28.93,3.18,3.18,0,0,0-1.17,2.64v0a2.65,2.65,0,0,0,.6,1.84,3.71,3.71,0,0,0,1.5,1,22,22,0,0,0,2.51.66l.11,0,.1,0,.16,0,.15,0a16.24,16.24,0,0,1,3.13,1,4.94,4.94,0,0,1,2.1,1.87,6.42,6.42,0,0,1,.84,3.53v0a6.72,6.72,0,0,1-.89,3.56A5.74,5.74,0,0,1,1298,872a9.88,9.88,0,0,1-4.09.77A12.25,12.25,0,0,1,1291,872.41Z"></path><path class="cls-12" d="M1308.16,872.49h-2.9V849.72h2.9Z"></path><path class="cls-12" d="M1313.26,849.72h2.89v22.77h-2.89Zm1.42,0h11.56v3h-11.56Zm0,10.15h10v3h-10Z"></path><path class="cls-12" d="M1124.08,888.2H1127V911h-2.89Zm1.4,0h11.84v3h-11.84Zm0,9.94h10.28v3h-10.28Zm0,9.79h11.84v3h-11.84Z"></path><path class="cls-12" d="M1144.81,910.89a9.93,9.93,0,0,1-2.49-.94,10.44,10.44,0,0,1-2.16-1.57l1.8-2.44a8,8,0,0,0,2.6,1.69,8.14,8.14,0,0,0,3.07.57,5.74,5.74,0,0,0,3.48-.92,3,3,0,0,0,1.23-2.59v0a2.87,2.87,0,0,0-.56-1.88,3.31,3.31,0,0,0-1.44-1,16.15,16.15,0,0,0-2.29-.62h-.1l-.09,0-.21,0a20.29,20.29,0,0,1-3.37-.89,4.87,4.87,0,0,1-2.22-1.8,6.43,6.43,0,0,1-.92-3.72h0A7,7,0,0,1,1142,891a5.49,5.49,0,0,1,2.5-2.28,9.2,9.2,0,0,1,4-.78,9.33,9.33,0,0,1,2.17.26,10.29,10.29,0,0,1,2.12.79,12.1,12.1,0,0,1,2,1.33l-1.65,2.53a9.56,9.56,0,0,0-2.35-1.43,6.12,6.12,0,0,0-2.34-.48,5.17,5.17,0,0,0-3.29.93,3.19,3.19,0,0,0-1.17,2.64v0a2.65,2.65,0,0,0,.61,1.85,3.62,3.62,0,0,0,1.5,1,21.45,21.45,0,0,0,2.5.67l.11,0,.11,0,.15,0,.16,0a15.3,15.3,0,0,1,3.12,1,4.94,4.94,0,0,1,2.1,1.87,6.34,6.34,0,0,1,.85,3.53v0a6.7,6.7,0,0,1-.9,3.56,5.66,5.66,0,0,1-2.58,2.26,9.93,9.93,0,0,1-4.1.77A12.25,12.25,0,0,1,1144.81,910.89Z"></path><path class="cls-12" d="M1159,888.2h2.89V911H1159Zm1.49,10.9h6.59a2.82,2.82,0,0,0,1.65-.49,3.15,3.15,0,0,0,1.1-1.37,5.64,5.64,0,0,0,0-4.12,3.21,3.21,0,0,0-1.1-1.39,2.82,2.82,0,0,0-1.65-.49h-6.59v-3H1167a6.05,6.05,0,0,1,3.25.87,5.84,5.84,0,0,1,2.18,2.45,9.08,9.08,0,0,1,0,7.32,5.81,5.81,0,0,1-2.18,2.44,6.14,6.14,0,0,1-3.25.86h-6.49Z"></path><path class="cls-12" d="M1179,910.51a5.41,5.41,0,0,1-2.12-2,7.74,7.74,0,0,1-1-3.19h3a3.65,3.65,0,0,0,.56,1.6,2.72,2.72,0,0,0,1.09.93,3.89,3.89,0,0,0,1.59.3,2.91,2.91,0,0,0,2.22-.84,3.36,3.36,0,0,0,.8-2.38v-.69a4.11,4.11,0,0,0-.75-2.64,2.61,2.61,0,0,0-2.13-.93h-1.46v-3h1.46a2.28,2.28,0,0,0,1.87-.8,3.43,3.43,0,0,0,.67-2.25v-.71a2.9,2.9,0,0,0-.71-2.08,2.61,2.61,0,0,0-2-.74,2.86,2.86,0,0,0-1.32.31,2.66,2.66,0,0,0-1,.94,4.44,4.44,0,0,0-.59,1.59h-2.94a9,9,0,0,1,1.07-3.2A5.3,5.3,0,0,1,1182,888a5.37,5.37,0,0,1,4.13,1.55,6.13,6.13,0,0,1,1.46,4.36v.38a5.28,5.28,0,0,1-.84,3,4.68,4.68,0,0,1-2.37,1.84,4.22,4.22,0,0,1,2.62,1.84,6.52,6.52,0,0,1,.93,3.63v.37a7.66,7.66,0,0,1-.69,3.4,4.86,4.86,0,0,1-2,2.15,7.21,7.21,0,0,1-6.24,0Z"></path><path class="cls-12" d="M1191.74,908.2l7.19-10.59a7.69,7.69,0,0,0,1-1.89,5.51,5.51,0,0,0,.35-1.82v0a2.92,2.92,0,0,0-.72-2.11,3,3,0,0,0-4.1.07,3.86,3.86,0,0,0-1,2.32v0h-3v0a9,9,0,0,1,1-3.34,5.53,5.53,0,0,1,2-2.12,5.7,5.7,0,0,1,2.88-.72,6.66,6.66,0,0,1,3.15.69,4.7,4.7,0,0,1,2,2,7,7,0,0,1,.68,3.21v0a7.57,7.57,0,0,1-.46,2.52,11.07,11.07,0,0,1-1.26,2.53l-6,9h7.8v3h-11.63Z"></path><path class="cls-12" d="M1216.73,901.29v3h-9.53v-3Z"></path><path class="cls-12" d="M1229.74,888.2h2l4.23,17.85,3.64-17.85h3l-5,22.77h-3l-3.8-15.91-4,15.91h-2.95l-5-22.77h3l3.65,17.85Z"></path><path class="cls-12" d="M1245.72,888.19h2.89V911h-2.89ZM1247,898.3h7a2.56,2.56,0,0,0,1.46-.44,2.85,2.85,0,0,0,1-1.24,4.71,4.71,0,0,0,.35-1.86,4.62,4.62,0,0,0-.35-1.85,2.82,2.82,0,0,0-1-1.25,2.52,2.52,0,0,0-1.46-.44h-7v-3h6.92a6,6,0,0,1,3.14.81,5.35,5.35,0,0,1,2.1,2.31,7.61,7.61,0,0,1,.75,3.45,7.43,7.43,0,0,1-.76,3.45,5.48,5.48,0,0,1-2.1,2.31,5.9,5.9,0,0,1-3.13.82H1247Zm5.62,2.33,2.88-.72,5.27,11.06h-3.43Z"></path><path class="cls-12" d="M1267.1,910.16a6.85,6.85,0,0,1-2.54-2.94,10.22,10.22,0,0,1-.9-4.41v-6.45a10.22,10.22,0,0,1,.9-4.41,6.85,6.85,0,0,1,2.54-2.94,7.48,7.48,0,0,1,7.61,0,6.85,6.85,0,0,1,2.54,2.94,10.22,10.22,0,0,1,.9,4.41v6.45a10.22,10.22,0,0,1-.9,4.41,6.85,6.85,0,0,1-2.54,2.94,7.48,7.48,0,0,1-7.61,0Zm6.05-2.74a4.14,4.14,0,0,0,1.51-1.8,6.54,6.54,0,0,0,.53-2.7v-6.67a6.54,6.54,0,0,0-.53-2.7,4.14,4.14,0,0,0-1.51-1.8,4.26,4.26,0,0,0-4.49,0,4.14,4.14,0,0,0-1.51,1.8,6.54,6.54,0,0,0-.53,2.7v6.67a6.54,6.54,0,0,0,.53,2.7,4.14,4.14,0,0,0,1.51,1.8,4.26,4.26,0,0,0,4.49,0Z"></path><path class="cls-12" d="M1285.29,910.16a6.8,6.8,0,0,1-2.55-2.94,10.22,10.22,0,0,1-.9-4.41v-6.45a10.22,10.22,0,0,1,.9-4.41,6.8,6.8,0,0,1,2.55-2.94,7.46,7.46,0,0,1,7.6,0,6.78,6.78,0,0,1,2.54,2.94,10.22,10.22,0,0,1,.9,4.41v6.45a10.22,10.22,0,0,1-.9,4.41,6.78,6.78,0,0,1-2.54,2.94,7.46,7.46,0,0,1-7.6,0Zm6-2.74a4.19,4.19,0,0,0,1.5-1.8,6.54,6.54,0,0,0,.53-2.7v-6.67a6.54,6.54,0,0,0-.53-2.7,4.19,4.19,0,0,0-1.5-1.8,4.28,4.28,0,0,0-4.5,0,4.05,4.05,0,0,0-1.5,1.8,6.38,6.38,0,0,0-.54,2.7v6.67a6.38,6.38,0,0,0,.54,2.7,4.15,4.15,0,0,0,6,1.8Z"></path><path class="cls-12" d="M1315.55,888.2h2.71V911h-2.82V893.92l.14,1-5.08,12.88h-2l-5.08-12.57.14-1.31V911h-2.82V888.2h2.71l6.06,15Z"></path><path class="cls-12" d="M1332.61,901.29v3h-9.53v-3Z"></path><path class="cls-12" d="M1339.15,910.51a5.48,5.48,0,0,1-2.12-2,7.89,7.89,0,0,1-1-3.19h3a3.65,3.65,0,0,0,.55,1.6,2.68,2.68,0,0,0,1.1.93,3.84,3.84,0,0,0,1.58.3,2.92,2.92,0,0,0,2.23-.84,3.35,3.35,0,0,0,.79-2.38v-.69a4.11,4.11,0,0,0-.75-2.64,2.58,2.58,0,0,0-2.13-.93h-1.46v-3h1.46a2.26,2.26,0,0,0,1.87-.8,3.38,3.38,0,0,0,.67-2.25v-.71a2.89,2.89,0,0,0-.7-2.08,2.63,2.63,0,0,0-2-.74,2.8,2.8,0,0,0-1.32.31,2.61,2.61,0,0,0-1,.94,4.63,4.63,0,0,0-.59,1.59h-2.93a8.82,8.82,0,0,1,1.07-3.2,5.41,5.41,0,0,1,2-2,5.47,5.47,0,0,1,2.77-.69,5.36,5.36,0,0,1,4.12,1.55,6.08,6.08,0,0,1,1.46,4.36v.38a5.36,5.36,0,0,1-.83,3,4.77,4.77,0,0,1-2.37,1.84,4.2,4.2,0,0,1,2.61,1.84,6.52,6.52,0,0,1,.93,3.63v.37a7.66,7.66,0,0,1-.69,3.4,4.84,4.84,0,0,1-2,2.15,7.23,7.23,0,0,1-6.25,0Z"></path><path class="cls-12" d="M1351.91,908.2l7.19-10.59a8.1,8.1,0,0,0,1-1.89,5.48,5.48,0,0,0,.34-1.82v0a2.92,2.92,0,0,0-.72-2.11,3,3,0,0,0-4.1.07,3.86,3.86,0,0,0-.95,2.32v0h-3v0a9.18,9.18,0,0,1,1-3.34,5.56,5.56,0,0,1,2-2.12,5.65,5.65,0,0,1,2.88-.72,6.65,6.65,0,0,1,3.14.69,4.65,4.65,0,0,1,2,2,7,7,0,0,1,.68,3.21v0a7.81,7.81,0,0,1-.45,2.52,11.53,11.53,0,0,1-1.27,2.53l-6,9h7.8v3h-11.63Z"></path><path class="cls-12" d="M1367.66,888.2h2.89V911h-2.89Zm1.95,19.73h4.67a4.69,4.69,0,0,0,3.54-1.31,5.13,5.13,0,0,0,1.25-3.68v-6.71a5.13,5.13,0,0,0-1.25-3.68,4.66,4.66,0,0,0-3.54-1.31h-4.67v-3h4.58a8.71,8.71,0,0,1,4.24,1,6.22,6.22,0,0,1,2.68,2.78,9.68,9.68,0,0,1,.93,4.42v6.45a9.71,9.71,0,0,1-.93,4.42,6.27,6.27,0,0,1-2.68,2.78,8.81,8.81,0,0,1-4.25,1h-4.57Z"></path></g></svg>