<svg xmlns="http://www.w3.org/2000/svg" viewBox="404.68 390.65 1217.15 959.26"><defs><style>.cls-1{fill:#dfeaf7;}.cls-2{fill:#17907f;}.cls-3{fill:#2b2b2b;}.cls-4,.cls-5{fill:none;stroke:#050606;stroke-miterlimit:10;}.cls-4{stroke-width:2.25px;}.cls-5{stroke-width:4px;}.cls-6{fill:#050606;}</style></defs><g id="Layer_5" data-name="Layer 5"><path class="cls-1" d="M1517.73,392.65h0a102.1,102.1,0,0,0-102.1,102.1V770.37A40.62,40.62,0,0,1,1375,811H455.16a48.49,48.49,0,0,0-48.48,48.48v126a11.85,11.85,0,0,0,3.46,8.37l15.34,15.34a11.81,11.81,0,0,1,3.47,8.37v137.16a11.81,11.81,0,0,1-3.47,8.37l-15.34,15.34a11.85,11.85,0,0,0-3.46,8.37v112.67a48.49,48.49,0,0,0,48.48,48.49H1571.34a48.51,48.51,0,0,0,48.49-48.5V494.75A102.1,102.1,0,0,0,1517.73,392.65Zm-110.61,815V954a33.14,33.14,0,0,1,66.27,0v253.65a33.14,33.14,0,0,1-66.27,0Z"></path><path class="cls-2" d="M1516,439.16c-30.23.91-53.92,26.54-53.92,56.79V770.37A87.11,87.11,0,0,1,1375,857.48H732.31A27.51,27.51,0,0,0,704.8,885v388.93a27.51,27.51,0,0,0,27.51,27.51h828.38a12.7,12.7,0,0,0,12.65-12.65v-794A55.69,55.69,0,0,0,1516,439.16Zm-108.9,768.47V954a33.14,33.14,0,0,1,66.27,0v253.65a33.14,33.14,0,0,1-66.27,0Z"></path><rect class="cls-3" x="787.14" y="943.38" width="429.45" height="224.42"></rect><path class="cls-1" d="M1478.6,915.35A54.23,54.23,0,0,0,1386,953.69v254.23a54.23,54.23,0,1,0,108.45,0V953.69A54,54,0,0,0,1478.6,915.35Zm-5.21,292.28a33.14,33.14,0,0,1-66.27,0V954a33.14,33.14,0,0,1,66.27,0Z"></path></g><g id="Layer_2" data-name="Layer 2"><path class="cls-4" d="M1573.34,494.75v794a12.68,12.68,0,0,1-12.65,12.65H732.31a27.51,27.51,0,0,1-27.51-27.51V885a27.51,27.51,0,0,1,27.51-27.51H1375a87.11,87.11,0,0,0,87.11-87.11V496c0-30.25,23.69-55.88,53.92-56.79A55.69,55.69,0,0,1,1573.34,494.75Z"></path><path class="cls-5" d="M410.14,1178.39,425.49,1163a11.78,11.78,0,0,0,3.46-8.35V1017.5a11.8,11.8,0,0,0-3.46-8.35l-15.35-15.36a11.77,11.77,0,0,1-3.46-8.35v-126A48.47,48.47,0,0,1,455.16,811H1375a40.63,40.63,0,0,0,40.63-40.63V494.75a102.1,102.1,0,0,1,102.1-102.1h0a102.1,102.1,0,0,1,102.1,102.1v804.66a48.51,48.51,0,0,1-48.49,48.5H455.16a48.48,48.48,0,0,1-48.48-48.49V1186.74A11.78,11.78,0,0,1,410.14,1178.39Z"></path><rect class="cls-4" x="1407.12" y="920.85" width="66.26" height="319.9" rx="33.13"></rect><rect class="cls-4" x="1386.03" y="899.46" width="108.46" height="362.69" rx="54.23"></rect><path class="cls-6" d="M639.76,1070.55a2.91,2.91,0,0,1-2.91-2.91v-30.53a5.42,5.42,0,0,0-1.6-3.86l-32.44-32.44a11.86,11.86,0,0,1-3.5-8.44V901a12.52,12.52,0,0,0-12.51-12.51H483.92a12.7,12.7,0,0,0-12.68,12.69v76.78a24.13,24.13,0,0,0,7.11,17.18l14.33,14.33a24.13,24.13,0,0,0,17.18,7.11h50.75a11.86,11.86,0,0,1,8.44,3.5l24.26,24.26a12.47,12.47,0,0,1,3.68,8.88v14.46a2.91,2.91,0,1,1-5.81,0v-14.46a6.72,6.72,0,0,0-2-4.77l-24.26-24.26a6.09,6.09,0,0,0-4.33-1.8H509.86a29.91,29.91,0,0,1-21.29-8.81l-14.33-14.33a29.87,29.87,0,0,1-8.81-21.29V901.14a18.51,18.51,0,0,1,18.49-18.5H586.8A18.34,18.34,0,0,1,605.12,901v91.41a6.09,6.09,0,0,0,1.8,4.33l32.44,32.44a11.19,11.19,0,0,1,3.3,8v30.53A2.9,2.9,0,0,1,639.76,1070.55Z"></path><path class="cls-6" d="M586.8,1289.46H483.92a18.51,18.51,0,0,1-18.49-18.5v-76.78a29.87,29.87,0,0,1,8.81-21.29l14.33-14.34a29.91,29.91,0,0,1,21.29-8.81h50.75a6.09,6.09,0,0,0,4.33-1.8l24.26-24.25a6.74,6.74,0,0,0,2-4.78v-14.46a2.91,2.91,0,0,1,5.81,0v14.46a12.51,12.51,0,0,1-3.68,8.89l-24.26,24.25a11.86,11.86,0,0,1-8.44,3.5H509.86a24.17,24.17,0,0,0-17.18,7.11L478.35,1177a24.09,24.09,0,0,0-7.11,17.18V1271a12.71,12.71,0,0,0,12.68,12.69H586.8a12.53,12.53,0,0,0,12.51-12.52v-91.4a11.83,11.83,0,0,1,3.5-8.44l32.44-32.44a5.46,5.46,0,0,0,1.6-3.87v-30.53a2.91,2.91,0,0,1,5.81,0V1135a11.19,11.19,0,0,1-3.3,8l-32.44,32.45a6.06,6.06,0,0,0-1.8,4.33v91.4A18.35,18.35,0,0,1,586.8,1289.46Z"></path><rect class="cls-4" x="787.14" y="943.38" width="429.45" height="224.42"></rect></g></svg>