<svg xmlns="http://www.w3.org/2000/svg" viewBox="528.89 806.04 942.22 446.84"><defs><style>.cls-1{fill:#e8eae8;}.cls-2{fill:#dbdddb;}.cls-3{fill:#c6842a;}.cls-4,.cls-5,.cls-7,.cls-9{fill:none;stroke-miterlimit:10;}.cls-4,.cls-5{stroke:#050606;}.cls-4,.cls-9{stroke-width:2.44px;}.cls-5,.cls-7{stroke-width:1.22px;}.cls-6{fill:#b7b7b7;}.cls-7,.cls-9{stroke:#b7b7b7;}.cls-8{fill:#cbcccb;}.cls-10{fill:#434543;}</style></defs><g id="Layer_4" data-name="Layer 4"><path class="cls-1" d="M1469.9,826.68v390.94a19.43,19.43,0,0,1-19.43,19.43H549.53a19.43,19.43,0,0,1-19.43-19.43V826.68a19.42,19.42,0,0,1,19.43-19.42h900.94A19.42,19.42,0,0,1,1469.9,826.68Z"></path><path class="cls-2" d="M574.23,807.26v429.79h-24.7a19.43,19.43,0,0,1-19.43-19.43V826.68a19.42,19.42,0,0,1,19.43-19.42Z"></path><path class="cls-2" d="M1469.9,826.68v390.94a19.43,19.43,0,0,1-19.43,19.43h-37.56V807.26h37.56A19.42,19.42,0,0,1,1469.9,826.68Z"></path><path class="cls-3" d="M574.23,1129.8h-7.47a4.55,4.55,0,0,1-4.55-4.54V919.05a4.55,4.55,0,0,1,4.55-4.55h7.47"></path><rect class="cls-4" x="530.11" y="807.26" width="939.78" height="429.79" rx="19.42"></rect><line class="cls-5" x1="574.23" y1="807.26" x2="574.23" y2="1237.05"></line><path class="cls-5" d="M574.23,1129.8h-7.47a4.55,4.55,0,0,1-4.55-4.54V919.05a4.55,4.55,0,0,1,4.55-4.55h7.47"></path><rect class="cls-6" x="599.01" y="970.1" width="11.52" height="104.11"></rect><rect class="cls-5" x="599.01" y="970.1" width="11.52" height="104.11"></rect><path class="cls-2" d="M610.53,816.78V935.32l38.37,11.55a7.85,7.85,0,0,1,5.6,7.53V1107a7.87,7.87,0,0,1-7.87,7.87h-36.1v110.58H1406V816.78Zm775.41,384.75H631.43a3.66,3.66,0,0,1-3.66-3.66V1138a3.65,3.65,0,0,1,3.66-3.65h28.3a14.7,14.7,0,0,0,14.71-14.71V931a14.7,14.7,0,0,0-14.71-14.71h-28.3a3.65,3.65,0,0,1-3.66-3.66V844.11a3.66,3.66,0,0,1,3.66-3.66h754.51Z"></path><path class="cls-1" d="M1385.94,840.45v361.08H631.43a3.66,3.66,0,0,1-3.66-3.66V1138a3.65,3.65,0,0,1,3.66-3.65h28.3a14.7,14.7,0,0,0,14.71-14.71V931a14.7,14.7,0,0,0-14.71-14.71h-28.3a3.65,3.65,0,0,1-3.66-3.66V844.11a3.66,3.66,0,0,1,3.66-3.66Z"></path><path class="cls-7" d="M610.53,816.78V935.32l38.37,11.55a7.85,7.85,0,0,1,5.6,7.53V1107a7.87,7.87,0,0,1-7.87,7.87h-36.1v110.58H1406V816.78Zm775.41,384.75H631.43a3.66,3.66,0,0,1-3.66-3.66V1138a3.65,3.65,0,0,1,3.66-3.65h28.3a14.7,14.7,0,0,0,14.71-14.71V931a14.7,14.7,0,0,0-14.71-14.71h-28.3a3.65,3.65,0,0,1-3.66-3.66V844.11a3.66,3.66,0,0,1,3.66-3.66h754.51Z"></path><path class="cls-7" d="M1385.94,840.45v361.08H631.43a3.66,3.66,0,0,1-3.66-3.66V1138a3.65,3.65,0,0,1,3.66-3.65h28.3a14.7,14.7,0,0,0,14.71-14.71V931a14.7,14.7,0,0,0-14.71-14.71h-28.3a3.65,3.65,0,0,1-3.66-3.66V844.11a3.66,3.66,0,0,1,3.66-3.66Z"></path><path class="cls-7" d="M1385.94,840.45v361.08H631.43a3.66,3.66,0,0,1-3.66-3.66V1138a3.65,3.65,0,0,1,3.66-3.65h28.3a14.7,14.7,0,0,0,14.71-14.71V931a14.7,14.7,0,0,0-14.71-14.71h-28.3a3.65,3.65,0,0,1-3.66-3.66V844.11a3.66,3.66,0,0,1,3.66-3.66Z"></path><line class="cls-7" x1="666.4" y1="1132.79" x2="666.4" y2="1201.53"></line><line class="cls-7" x1="663.66" y1="916.86" x2="663.66" y2="840.45"></line><circle class="cls-8" cx="644.99" cy="878.66" r="10.7"></circle><circle class="cls-8" cx="644.99" cy="1171.55" r="10.7"></circle><circle class="cls-9" cx="644.99" cy="878.66" r="10.7"></circle><circle class="cls-9" cx="644.99" cy="1171.55" r="10.7"></circle><path class="cls-10" d="M1225,1237.05l2.23,11.19a4.25,4.25,0,0,0,4.17,3.42H1249a4.26,4.26,0,0,0,4.18-3.42l2.22-11.19"></path><path class="cls-10" d="M1306.87,1237.05l2.22,11.19a4.26,4.26,0,0,0,4.18,3.42h17.62a4.25,4.25,0,0,0,4.17-3.42l2.22-11.19"></path><path class="cls-10" d="M1388.77,1237.05l2.23,11.19a4.24,4.24,0,0,0,4.17,3.42h17.62a4.25,4.25,0,0,0,4.17-3.42l2.23-11.19"></path><path class="cls-4" d="M1225,1237.05l2.23,11.19a4.25,4.25,0,0,0,4.17,3.42H1249a4.26,4.26,0,0,0,4.18-3.42l2.22-11.19"></path><path class="cls-4" d="M1306.87,1237.05l2.22,11.19a4.26,4.26,0,0,0,4.18,3.42h17.62a4.25,4.25,0,0,0,4.17-3.42l2.22-11.19"></path><path class="cls-4" d="M1388.77,1237.05l2.23,11.19a4.24,4.24,0,0,0,4.17,3.42h17.62a4.25,4.25,0,0,0,4.17-3.42l2.23-11.19"></path><line class="cls-4" x1="1412.9" y1="807.26" x2="1412.9" y2="1237.05"></line></g></svg>