<svg xmlns="http://www.w3.org/2000/svg" viewBox="479.87 739.66 1073.46 452.36"><defs><style>.cls-1{fill:#e8eae8;}.cls-2{fill:#2b2b2b;}.cls-3,.cls-5,.cls-7,.cls-8{fill:none;stroke-miterlimit:10;}.cls-3,.cls-5{stroke:#050606;}.cls-3,.cls-7{stroke-width:2.44px;}.cls-4{fill:#cbcccb;}.cls-5{stroke-width:1.73px;}.cls-6{fill:#434543;}.cls-7,.cls-8{stroke:#b7b7b7;}.cls-8{stroke-width:1.22px;}.cls-9{fill:#dbdddb;}.cls-10{fill:#b7b7b7;}</style></defs><g id="Layer_4" data-name="Layer 4"><rect class="cls-1" x="541.37" y="740.89" width="950.47" height="441.77"></rect><path class="cls-2" d="M1511.86,740.89h-20V907.47h13.88a4.83,4.83,0,1,1,0,9.65h-13.88v87h13.88a4.82,4.82,0,0,1,4.82,4.83,4.81,4.81,0,0,1-4.82,4.82h-13.88v168.83h20a40.25,40.25,0,0,0,40.25-40.25V781.15A40.25,40.25,0,0,0,1511.86,740.89Zm22.9,400.64a10.68,10.68,0,0,1-21.36,0v-17.4a10.68,10.68,0,1,1,21.36,0Zm0-343.24a10.68,10.68,0,1,1-21.36,0v-17.4a10.68,10.68,0,0,1,21.36,0Z"></path><path class="cls-3" d="M1532.09,740.89h20a0,0,0,0,1,0,0v441.77a0,0,0,0,1,0,0h-20a40.25,40.25,0,0,1-40.25-40.25V781.14a40.25,40.25,0,0,1,40.25-40.25Z" transform="translate(3043.95 1923.54) rotate(-180)"></path><path class="cls-4" d="M1508.36,780.88V798.3a15.89,15.89,0,0,0,31.78,0V780.88a15.89,15.89,0,1,0-31.78,0Zm5,0a10.68,10.68,0,0,1,21.36,0v17.4a10.68,10.68,0,1,1-21.36,0Z"></path><path class="cls-4" d="M1508.36,1124.11v17.42a15.89,15.89,0,1,0,31.78,0v-17.42a15.89,15.89,0,0,0-31.78,0Zm5,0a10.68,10.68,0,1,1,21.36,0v17.4a10.68,10.68,0,0,1-21.36,0Z"></path><rect class="cls-5" x="1513.41" y="770.21" width="21.36" height="38.76" rx="10.68" transform="translate(3048.18 1579.19) rotate(-180)"></rect><rect class="cls-5" x="1508.36" y="764.99" width="31.78" height="49.2" rx="15.89" transform="translate(3048.5 1579.18) rotate(-180)"></rect><rect class="cls-5" x="1513.41" y="1113.44" width="21.36" height="38.76" rx="10.68" transform="translate(3048.18 2265.65) rotate(-180)"></rect><rect class="cls-5" x="1508.36" y="1108.22" width="31.78" height="49.2" rx="15.89" transform="translate(3048.5 2265.65) rotate(-180)"></rect><path class="cls-4" d="M1513.13,912.3a6.95,6.95,0,0,1-7,7h-14.33v-2.15h13.88a4.83,4.83,0,0,0,0-9.65h-13.88v-2.14h14.33A7,7,0,0,1,1513.13,912.3Z"></path><path class="cls-4" d="M1513.13,1009a6.95,6.95,0,0,1-7,7h-14.33v-2.15h13.88a4.83,4.83,0,0,0,0-9.65h-13.88V1002h14.33A7,7,0,0,1,1513.13,1009Z"></path><path class="cls-2" d="M521.33,740.89a40.26,40.26,0,0,0-40.25,40.26V1142.4a40.26,40.26,0,0,0,40.25,40.25h20V740.89Zm-1.53,400.64a10.68,10.68,0,0,1-21.36,0v-17.4a10.68,10.68,0,1,1,21.36,0ZM498.44,780.89a10.68,10.68,0,0,1,21.36,0v17.4a10.68,10.68,0,1,1-21.36,0Z"></path><rect class="cls-3" x="541.37" y="740.89" width="950.47" height="441.77"></rect><path class="cls-3" d="M521.34,740.89h20a0,0,0,0,1,0,0v441.77a0,0,0,0,1,0,0h-20a40.25,40.25,0,0,1-40.25-40.25V781.14A40.25,40.25,0,0,1,521.34,740.89Z"></path><path class="cls-4" d="M520.19,769.64a15.9,15.9,0,0,0-27.13,11.24V798.3a15.89,15.89,0,0,0,31.78,0V780.88A15.87,15.87,0,0,0,520.19,769.64Zm-.39,28.65a10.68,10.68,0,1,1-21.36,0v-17.4a10.68,10.68,0,0,1,21.36,0Z"></path><path class="cls-4" d="M520.19,1112.88a15.89,15.89,0,0,0-27.13,11.23v17.42a15.89,15.89,0,1,0,31.78,0v-17.42A15.85,15.85,0,0,0,520.19,1112.88Zm-.39,28.65a10.68,10.68,0,0,1-21.36,0v-17.4a10.68,10.68,0,1,1,21.36,0Z"></path><rect class="cls-5" x="498.43" y="770.21" width="21.36" height="38.76" rx="10.68"></rect><rect class="cls-5" x="493.06" y="764.99" width="31.78" height="49.2" rx="15.89"></rect><rect class="cls-5" x="498.43" y="1113.44" width="21.36" height="38.76" rx="10.68"></rect><rect class="cls-5" x="493.06" y="1108.22" width="31.78" height="49.2" rx="15.89"></rect><rect class="cls-4" x="501.66" y="859.82" width="14.3" height="198.79" rx="7.15"></rect><rect class="cls-5" x="501.66" y="859.82" width="14.3" height="198.79" rx="7.15"></rect><path class="cls-6" d="M528.29,869.68h13.07a0,0,0,0,1,0,0v179.06a0,0,0,0,1,0,0H528.29a3.45,3.45,0,0,1-3.45-3.45V873.13A3.45,3.45,0,0,1,528.29,869.68Z"></path><path class="cls-5" d="M528.29,869.68h13.07a0,0,0,0,1,0,0v179.06a0,0,0,0,1,0,0H528.29a3.45,3.45,0,0,1-3.45-3.45V873.13A3.45,3.45,0,0,1,528.29,869.68Z"></path><path class="cls-6" d="M1213.75,1182.65h22.83a0,0,0,0,1,0,0v6.15a2,2,0,0,1-2,2h-18.8a2,2,0,0,1-2-2v-6.15A0,0,0,0,1,1213.75,1182.65Z"></path><path class="cls-6" d="M1297.35,1182.65h22.83a0,0,0,0,1,0,0v6.15a2,2,0,0,1-2,2h-18.8a2,2,0,0,1-2-2v-6.15A0,0,0,0,1,1297.35,1182.65Z"></path><path class="cls-6" d="M1381,1182.65h22.83a0,0,0,0,1,0,0v6.15a2,2,0,0,1-2,2H1383a2,2,0,0,1-2-2v-6.15A0,0,0,0,1,1381,1182.65Z"></path><path class="cls-3" d="M1213.75,1182.65h22.83a0,0,0,0,1,0,0v6.15a2,2,0,0,1-2,2h-18.8a2,2,0,0,1-2-2v-6.15A0,0,0,0,1,1213.75,1182.65Z"></path><path class="cls-3" d="M1297.35,1182.65h22.83a0,0,0,0,1,0,0v6.15a2,2,0,0,1-2,2h-18.8a2,2,0,0,1-2-2v-6.15A0,0,0,0,1,1297.35,1182.65Z"></path><path class="cls-3" d="M1381,1182.65h22.83a0,0,0,0,1,0,0v6.15a2,2,0,0,1-2,2H1383a2,2,0,0,1-2-2v-6.15A0,0,0,0,1,1381,1182.65Z"></path><path class="cls-7" d="M1465.76,777.61v370.21H637.27V831.44a9.18,9.18,0,0,0-9.18-9.18H605.76a4.34,4.34,0,0,1-4.34-4.33V782a4.34,4.34,0,0,1,4.34-4.34Z"></path><line class="cls-8" x1="637.28" y1="831.44" x2="637.28" y2="777.61"></line><path class="cls-9" d="M1472.8,766.19H588.58a2.34,2.34,0,0,0-2.34,2.34v63.55a2.34,2.34,0,0,0,2.34,2.34h29.94a4.74,4.74,0,0,1,4.74,4.74v312.71a5.55,5.55,0,0,0,5.57,5.55h844a4.87,4.87,0,0,0,4.88-4.87V771.07A4.87,4.87,0,0,0,1472.8,766.19Zm-7,381.63H637.27V831.44a9.18,9.18,0,0,0-9.18-9.18H605.76a4.34,4.34,0,0,1-4.34-4.33V782a4.34,4.34,0,0,1,4.34-4.34h860Z"></path><circle class="cls-4" cx="620.54" cy="798.13" r="8.42"></circle><circle class="cls-7" cx="620.54" cy="798.13" r="8.42"></circle><rect class="cls-10" x="564.75" y="905.43" width="11.84" height="114.57" rx="2.32"></rect><rect class="cls-5" x="564.75" y="905.43" width="11.84" height="114.57" rx="2.32"></rect><path class="cls-8" d="M1472.8,766.19H588.58a2.34,2.34,0,0,0-2.34,2.34v63.55a2.34,2.34,0,0,0,2.34,2.34h29.94a4.74,4.74,0,0,1,4.74,4.74v312.71a5.55,5.55,0,0,0,5.57,5.55h844a4.87,4.87,0,0,0,4.88-4.87V771.07A4.87,4.87,0,0,0,1472.8,766.19Zm-7,381.63H637.27V831.44a9.18,9.18,0,0,0-9.18-9.18H605.76a4.34,4.34,0,0,1-4.34-4.33V782a4.34,4.34,0,0,1,4.34-4.34h860Z"></path></g></svg>