<svg xmlns="http://www.w3.org/2000/svg" viewBox="795.27 277.13 409.46 1319.35"><defs><style>.cls-1{fill:#353535;}.cls-2{fill:#1e1e1d;}.cls-3{fill:#b1a368;}.cls-10,.cls-11,.cls-4,.cls-6,.cls-8,.cls-9{fill:none;}.cls-4,.cls-6{stroke:#050606;}.cls-10,.cls-11,.cls-4,.cls-6,.cls-8{stroke-miterlimit:10;}.cls-4{stroke-width:2.41px;}.cls-5{fill:#30c2db;}.cls-6{stroke-width:3.91px;}.cls-7{fill:#dcf0f2;}.cls-10,.cls-11,.cls-8{stroke:#dcf0f2;}.cls-8{stroke-width:1.81px;}.cls-9{stroke:#17afbf;stroke-linecap:round;stroke-linejoin:round;stroke-width:7.23px;}.cls-10{stroke-width:1.78px;}.cls-11{stroke-width:1.81px;}</style></defs><g id="Layer_7" data-name="Layer 7"><path class="cls-1" d="M915.62,278.34h22.61a35,35,0,0,1,35,35V715.74a0,0,0,0,1,0,0H880.6a0,0,0,0,1,0,0V313.36A35,35,0,0,1,915.62,278.34Z"></path><rect class="cls-2" x="880.6" y="340.15" width="92.65" height="7.54"></rect><rect class="cls-2" x="880.6" y="356.68" width="92.65" height="7.54"></rect><rect class="cls-3" x="885.8" y="844.3" width="84.14" height="19.02"></rect><rect class="cls-3" x="880.6" y="819.07" width="92.65" height="25.23"></rect><rect class="cls-3" x="885.8" y="790.65" width="84.14" height="28.41"></rect><rect class="cls-3" x="880.6" y="723.02" width="92.65" height="67.63"></rect><rect class="cls-3" x="885.8" y="715.74" width="84.14" height="7.28"></rect><rect class="cls-4" x="885.8" y="844.3" width="84.14" height="19.02"></rect><rect class="cls-4" x="880.6" y="819.07" width="92.65" height="25.23"></rect><rect class="cls-4" x="885.8" y="790.65" width="84.14" height="28.41"></rect><rect class="cls-4" x="880.6" y="723.02" width="92.65" height="67.63"></rect><rect class="cls-4" x="885.8" y="715.74" width="84.14" height="7.28"></rect><path class="cls-4" d="M915.62,278.34h22.61a35,35,0,0,1,35,35V715.74a0,0,0,0,1,0,0H880.6a0,0,0,0,1,0,0V313.36A35,35,0,0,1,915.62,278.34Z"></path><rect class="cls-4" x="880.6" y="340.15" width="92.65" height="7.54"></rect><rect class="cls-4" x="880.6" y="356.68" width="92.65" height="7.54"></rect><rect class="cls-5" x="796.48" y="856.3" width="407.05" height="738.98" rx="47.74"></rect><rect class="cls-1" x="900.05" y="973.19" width="202.03" height="354.65" rx="16.4"></rect><rect class="cls-6" x="900.05" y="973.19" width="202.03" height="354.65" rx="16.4"></rect><rect class="cls-7" x="871.51" y="890.41" width="55.42" height="31.12" rx="15.56"></rect><rect class="cls-7" x="1070.16" y="890.41" width="55.42" height="31.12" rx="15.56"></rect><rect class="cls-4" x="871.51" y="890.41" width="55.42" height="31.12" rx="15.56"></rect><rect class="cls-4" x="1070.16" y="890.41" width="55.42" height="31.12" rx="15.56"></rect><circle class="cls-8" cx="841.7" cy="1537.01" r="16.25"></circle><circle class="cls-8" cx="841.7" cy="913.26" r="16.25"></circle><circle class="cls-8" cx="1157.32" cy="913.26" r="16.25"></circle><circle class="cls-8" cx="1157.32" cy="1504.51" r="16.25"></circle><line class="cls-9" x1="942.51" y1="1592.42" x2="942.51" y2="1381.55"></line><line class="cls-9" x1="966.52" y1="1592.42" x2="966.52" y2="1381.55"></line><line class="cls-9" x1="990.57" y1="1592.42" x2="990.57" y2="1381.55"></line><line class="cls-9" x1="1014.59" y1="1592.42" x2="1014.59" y2="1381.55"></line><line class="cls-9" x1="1038.63" y1="1592.42" x2="1038.63" y2="1381.55"></line><line class="cls-9" x1="1062.65" y1="1592.42" x2="1062.65" y2="1381.55"></line><rect class="cls-4" x="796.48" y="856.3" width="407.05" height="738.98" rx="47.74"></rect><path class="cls-10" d="M1040.1,947.74H960.65A13.93,13.93,0,0,1,947,936.64l-10.23-49.2a13.93,13.93,0,0,1,13.64-16.77h97.72a13.93,13.93,0,0,1,13.75,16.18l-8,49.2A13.94,13.94,0,0,1,1040.1,947.74Z"></path><rect class="cls-11" x="816.35" y="870.67" width="365.51" height="703.12" rx="32.37"></rect><rect class="cls-11" x="888.77" y="963.84" width="223.2" height="374.66" rx="25.21"></rect></g></svg>