<svg xmlns="http://www.w3.org/2000/svg" viewBox="479.57 786.58 1040.84 433.17"><defs><style>.cls-1{fill:#cccccb;}.cls-2{fill:#2b2b2b;}.cls-3,.cls-6,.cls-7,.cls-8{fill:none;stroke-miterlimit:10;}.cls-3,.cls-6,.cls-7{stroke:#050606;}.cls-3,.cls-8{stroke-width:1.65px;}.cls-4{fill:#40403f;}.cls-5{fill:#ddd;}.cls-6{stroke-width:1.62px;}.cls-7{stroke-width:1.64px;}.cls-8{stroke:#fff;}.cls-9{fill:#353535;}.cls-10{fill:#c08c2d;}</style></defs><g id="Layer_4" data-name="Layer 4"><path class="cls-1" d="M595,923.44H519.6A10.46,10.46,0,0,1,509.14,913V802.7a15.28,15.28,0,0,1,15.28-15.28h979.89a15.29,15.29,0,0,1,15.29,15.29v400.93a15.3,15.3,0,0,1-15.29,15.29H524.42a15.28,15.28,0,0,1-15.28-15.28V1102.1a10.46,10.46,0,0,1,10.46-10.46H595"></path><rect class="cls-2" x="611.37" y="796.48" width="819.83" height="411.47"></rect><line class="cls-3" x1="1441.99" y1="787.41" x2="1441.99" y2="1218.92"></line><path class="cls-4" d="M620.91,851.7v302.78a1.87,1.87,0,0,1-1.87,1.87h-13.8a8.7,8.7,0,0,1-.89,0,10.23,10.23,0,0,1-9.35-10.2v-286a10.24,10.24,0,0,1,9.35-10.2,8.7,8.7,0,0,1,.89,0H619A1.87,1.87,0,0,1,620.91,851.7Z"></path><rect class="cls-5" x="480.4" y="942.42" width="114.6" height="127.58"></rect><rect class="cls-3" x="480.4" y="942.42" width="114.6" height="127.58"></rect><path class="cls-6" d="M595,923.44H519.6A10.46,10.46,0,0,1,509.14,913V802.7a15.28,15.28,0,0,1,15.28-15.28h979.89a15.29,15.29,0,0,1,15.29,15.29v400.93a15.3,15.3,0,0,1-15.29,15.29H524.42a15.28,15.28,0,0,1-15.28-15.28V1102.1a10.46,10.46,0,0,1,10.46-10.46H595"></path><path class="cls-2" d="M584.65,970.14H595a0,0,0,0,1,0,0v24.44a0,0,0,0,1,0,0H584.65a3,3,0,0,1-3-3V973.11A3,3,0,0,1,584.65,970.14Z"></path><rect class="cls-2" x="560.58" y="976.5" width="9.04" height="16.58" rx="2.72"></rect><path class="cls-2" d="M584.65,1026.63H595a0,0,0,0,1,0,0v24.44a0,0,0,0,1,0,0H584.65a3,3,0,0,1-3-3v-18.49A3,3,0,0,1,584.65,1026.63Z"></path><rect class="cls-2" x="560.58" y="1028.91" width="9.04" height="16.58" rx="2.72"></rect><path class="cls-3" d="M584.65,970.14H595a0,0,0,0,1,0,0v24.44a0,0,0,0,1,0,0H584.65a3,3,0,0,1-3-3V973.11A3,3,0,0,1,584.65,970.14Z"></path><rect class="cls-3" x="560.58" y="976.5" width="9.04" height="16.58" rx="2.72"></rect><path class="cls-3" d="M584.65,1026.63H595a0,0,0,0,1,0,0v24.44a0,0,0,0,1,0,0H584.65a3,3,0,0,1-3-3v-18.49A3,3,0,0,1,584.65,1026.63Z"></path><rect class="cls-3" x="560.58" y="1028.91" width="9.04" height="16.58" rx="2.72"></rect><polyline class="cls-7" points="611.37 1156.35 611.37 1207.95 1431.2 1207.95 1431.2 796.48 611.37 796.48 611.37 849.83"></polyline><line class="cls-3" x1="611.37" y1="1207.95" x2="611.37" y2="1218.93"></line><line class="cls-3" x1="611.37" y1="796.48" x2="611.37" y2="787.42"></line><rect class="cls-8" x="560.58" y="1107.17" width="18.37" height="41.67" rx="4.91"></rect><rect class="cls-8" x="528.51" y="1107.17" width="18.37" height="41.67" rx="4.91"></rect><rect class="cls-8" x="560.58" y="1166.28" width="18.37" height="41.67" rx="4.91"></rect><rect class="cls-8" x="528.51" y="1166.28" width="18.37" height="41.67" rx="4.91"></rect><rect class="cls-8" x="560.58" y="804.46" width="18.37" height="41.67" rx="4.91"></rect><rect class="cls-8" x="528.51" y="804.46" width="18.37" height="41.67" rx="4.91"></rect><rect class="cls-8" x="560.58" y="863.57" width="18.37" height="41.67" rx="4.91"></rect><rect class="cls-8" x="528.51" y="863.57" width="18.37" height="41.67" rx="4.91"></rect><circle class="cls-8" cx="1476.63" cy="831.74" r="27.15"></circle><circle class="cls-8" cx="1476.63" cy="1173.49" r="27.15"></circle><rect class="cls-9" x="676.15" y="804.6" width="742.79" height="396.03"></rect><path class="cls-10" d="M604.35,849.87v306.44a10.23,10.23,0,0,1-9.35-10.2v-286A10.24,10.24,0,0,1,604.35,849.87Z"></path><path class="cls-3" d="M605.24,849.83H619a1.87,1.87,0,0,1,1.87,1.87v302.78a1.87,1.87,0,0,1-1.87,1.87h-13.8A10.24,10.24,0,0,1,595,1146.11v-286A10.24,10.24,0,0,1,605.24,849.83Z"></path><rect class="cls-6" x="676.15" y="804.6" width="742.79" height="396.03"></rect></g></svg>