<svg xmlns="http://www.w3.org/2000/svg" viewBox="470.48 772.4 1199.17 553.88"><defs><style>.cls-1{fill:#317452;}.cls-11,.cls-14,.cls-16,.cls-2,.cls-4,.cls-8,.cls-9{fill:none;}.cls-2{stroke:#314443;stroke-width:18.16px;}.cls-2,.cls-4{stroke-linecap:round;stroke-linejoin:round;}.cls-3{fill:#314443;}.cls-4{stroke:#346c4d;stroke-width:6.6px;}.cls-5{fill:#b0b0b0;}.cls-6{fill:#cbcccb;}.cls-7{fill:#333;}.cls-11,.cls-16,.cls-8,.cls-9{stroke:#050606;}.cls-11,.cls-14,.cls-16,.cls-8,.cls-9{stroke-miterlimit:10;}.cls-14,.cls-8{stroke-width:1.91px;}.cls-9{stroke-width:3.3px;}.cls-10{fill:#a5782e;}.cls-11{stroke-width:2.68px;}.cls-12{fill:#fff;}.cls-13{fill:#eecc42;}.cls-14{stroke:#eecc42;}.cls-15{fill:#f2e3c2;}.cls-16{stroke-width:2.1px;}.cls-17{fill:#231f20;}</style></defs><g id="Layer_7" data-name="Layer 7"><path class="cls-1" d="M1651.73,774h-1171a8.62,8.62,0,0,0-8.61,8.62V1316a8.6,8.6,0,0,0,8.61,8.61h1171a8.61,8.61,0,0,0,8.62-8.61V782.66A8.62,8.62,0,0,0,1651.73,774Zm-19.15,370.61a6,6,0,0,1-4.42,1.95h-18.47a6.48,6.48,0,0,1-6.26-6.7,6.91,6.91,0,0,1,1.84-4.74,6,6,0,0,1,4.42-2h18.47a6.49,6.49,0,0,1,6.26,6.69A6.92,6.92,0,0,1,1632.58,1144.65Zm-27.31-182.86a6,6,0,0,1,4.42-1.95h18.47a6.49,6.49,0,0,1,6.26,6.7,6.88,6.88,0,0,1-1.84,4.74,6,6,0,0,1-4.42,2h-18.47a6.47,6.47,0,0,1-6.26-6.7A6.94,6.94,0,0,1,1605.27,961.79ZM1552.66,1146a8,8,0,0,1-5.65,2.33h-23.55a8,8,0,1,1,0-16H1547a8,8,0,0,1,5.65,13.65Zm-34.85-184.69a8,8,0,0,1,5.65-2.33H1547a8,8,0,1,1,0,16h-23.55a8,8,0,0,1-5.65-13.65Z"></path><polyline class="cls-2" points="601.08 1094.34 686.72 1179.55 788.45 1179.55"></polyline><line class="cls-2" x1="727.31" y1="1119.03" x2="825.95" y2="1119.03"></line><polyline class="cls-2" points="1247.1 1184.39 1247.1 1008.29 1395.92 859.55 1480.17 859.55"></polyline><polyline class="cls-2" points="1616.17 898.67 1507.04 898.67 1489.25 880.88 1457.12 880.88 1433.08 904.93 1433.08 1009.77"></polyline><polyline class="cls-2" points="1433.47 971.01 1476.71 971.01 1514.02 1008.32 1514.02 1108.28 1484.6 1140.37 1538.8 1194.56 1633.51 1194.56 1633.51 1289.68 1617.59 1305.6 1474.81 1305.6"></polyline><polyline class="cls-2" points="1462.82 1289.68 1462.82 1197.85 1427.74 1197.85 1427.74 1070.72"></polyline><polyline class="cls-2" points="1388.57 1090.96 1388.57 1225.99 1324.19 1290.38 912.5 1290.38 867.48 1245.35 867.48 1211.05"></polyline><polyline class="cls-2" points="1141.22 1065.22 1184.47 1021.97 1184.47 921.74 1084.37 821.63"></polyline><polyline class="cls-2" points="698.51 827.96 698.51 852.86 743.24 897.59 859.03 897.59"></polyline><ellipse class="cls-3" cx="498.85" cy="857.98" rx="4.89" ry="5.12"></ellipse><ellipse class="cls-3" cx="549.81" cy="857.98" rx="4.89" ry="5.12"></ellipse><ellipse class="cls-3" cx="549.81" cy="907.4" rx="4.89" ry="5.12"></ellipse><ellipse class="cls-3" cx="549.81" cy="956.83" rx="4.89" ry="5.12"></ellipse><ellipse class="cls-3" cx="549.81" cy="1006.25" rx="4.89" ry="5.12"></ellipse><ellipse class="cls-3" cx="503.53" cy="909.56" rx="4.68" ry="4.89"></ellipse><ellipse class="cls-3" cx="498.85" cy="956.83" rx="4.89" ry="5.12"></ellipse><ellipse class="cls-3" cx="498.85" cy="1006.25" rx="4.89" ry="5.12"></ellipse><ellipse class="cls-3" cx="601.29" cy="909.56" rx="4.68" ry="4.89"></ellipse><ellipse class="cls-3" cx="601.29" cy="956.83" rx="4.68" ry="4.89"></ellipse><ellipse class="cls-3" cx="601.29" cy="1004.09" rx="4.68" ry="4.89"></ellipse><ellipse class="cls-3" cx="1200.66" cy="1055.8" rx="4.68" ry="4.89"></ellipse><ellipse class="cls-3" cx="1195.99" cy="1103.07" rx="4.89" ry="5.12"></ellipse><ellipse class="cls-3" cx="1195.99" cy="1152.5" rx="4.89" ry="5.12"></ellipse><ellipse class="cls-3" cx="1298.43" cy="1055.8" rx="4.68" ry="4.89"></ellipse><ellipse class="cls-3" cx="1298.43" cy="1103.07" rx="4.68" ry="4.89"></ellipse><ellipse class="cls-3" cx="1298.43" cy="1150.34" rx="4.68" ry="4.89"></ellipse><ellipse class="cls-3" cx="498.85" cy="1055.68" rx="4.89" ry="5.12"></ellipse><ellipse class="cls-3" cx="498.85" cy="1106.31" rx="4.89" ry="5.12"></ellipse><ellipse class="cls-3" cx="498.85" cy="1206.36" rx="4.89" ry="5.12"></ellipse><ellipse class="cls-3" cx="498.85" cy="1256.99" rx="4.89" ry="5.12"></ellipse><ellipse class="cls-3" cx="549.81" cy="1055.68" rx="4.89" ry="5.12"></ellipse><ellipse class="cls-3" cx="549.81" cy="1069.96" rx="3.26" ry="3.41"></ellipse><ellipse class="cls-3" cx="549.81" cy="1082.53" rx="3.26" ry="3.41"></ellipse><ellipse class="cls-3" cx="549.81" cy="1095.1" rx="3.26" ry="3.41"></ellipse><ellipse class="cls-3" cx="549.81" cy="1107.67" rx="3.26" ry="3.41"></ellipse><ellipse class="cls-3" cx="549.81" cy="1120.24" rx="3.26" ry="3.41"></ellipse><ellipse class="cls-3" cx="655.53" cy="1082.53" rx="3.26" ry="3.41"></ellipse><ellipse class="cls-3" cx="655.53" cy="1095.1" rx="3.26" ry="3.41"></ellipse><ellipse class="cls-3" cx="655.53" cy="1107.67" rx="3.26" ry="3.41"></ellipse><ellipse class="cls-3" cx="655.53" cy="1120.24" rx="3.26" ry="3.41"></ellipse><ellipse class="cls-3" cx="549.81" cy="1132.81" rx="3.26" ry="3.41"></ellipse><ellipse class="cls-3" cx="549.81" cy="1145.38" rx="3.26" ry="3.41"></ellipse><ellipse class="cls-3" cx="549.81" cy="1157.95" rx="3.26" ry="3.41"></ellipse><ellipse class="cls-3" cx="563.11" cy="1069.96" rx="3.26" ry="3.41"></ellipse><ellipse class="cls-3" cx="576.41" cy="1069.96" rx="3.26" ry="3.41"></ellipse><ellipse class="cls-3" cx="589.7" cy="1069.96" rx="3.26" ry="3.41"></ellipse><ellipse class="cls-3" cx="603" cy="1069.96" rx="3.26" ry="3.41"></ellipse><ellipse class="cls-3" cx="616.3" cy="1069.96" rx="3.26" ry="3.41"></ellipse><ellipse class="cls-3" cx="629.6" cy="1069.96" rx="3.26" ry="3.41"></ellipse><ellipse class="cls-3" cx="642.9" cy="1069.96" rx="3.26" ry="3.41"></ellipse><ellipse class="cls-3" cx="656.2" cy="1069.96" rx="3.26" ry="3.41"></ellipse><ellipse class="cls-3" cx="549.81" cy="1170.37" rx="3.26" ry="3.41"></ellipse><ellipse class="cls-3" cx="563.11" cy="1170.37" rx="3.26" ry="3.41"></ellipse><ellipse class="cls-3" cx="576.41" cy="1170.37" rx="3.26" ry="3.41"></ellipse><ellipse class="cls-3" cx="589.7" cy="1170.37" rx="3.26" ry="3.41"></ellipse><polyline class="cls-4" points="601.08 1094.34 686.72 1179.55 788.45 1179.55"></polyline><line class="cls-4" x1="727.31" y1="1119.03" x2="825.95" y2="1119.03"></line><polyline class="cls-4" points="1247.1 1184.39 1247.1 1008.29 1395.92 859.55 1480.17 859.55"></polyline><polyline class="cls-4" points="1616.17 898.67 1507.04 898.67 1489.25 880.88 1457.12 880.88 1433.08 904.93 1433.08 1009.77"></polyline><polyline class="cls-4" points="1433.47 971.01 1476.71 971.01 1514.02 1008.32 1514.02 1108.28 1484.6 1140.37 1538.8 1194.56 1633.51 1194.56 1633.51 1289.68 1617.59 1305.6 1474.81 1305.6"></polyline><polyline class="cls-4" points="1462.82 1289.68 1462.82 1197.85 1427.74 1197.85 1427.74 1070.72"></polyline><polyline class="cls-4" points="1388.57 1090.96 1388.57 1225.99 1324.19 1290.38 912.5 1290.38 867.48 1245.35 867.48 1211.05"></polyline><polyline class="cls-4" points="1141.22 1065.22 1184.47 1021.97 1184.47 921.74 1084.37 821.63"></polyline><polyline class="cls-4" points="698.51 827.96 698.51 852.86 743.24 897.59 859.03 897.59"></polyline><rect class="cls-3" x="665.33" y="864.66" width="77.06" height="55.49" transform="translate(-424.87 759.08) rotate(-45)"></rect><path class="cls-5" d="M1646.85,991.11V1108.5l-26.68,19.89h-62.53V979h67.71a9.19,9.19,0,0,1,4.94,1.45l16.47,10.6A.28.28,0,0,1,1646.85,991.11Z"></path><rect class="cls-6" x="1555.87" y="1008.29" width="94.96" height="89.34"></rect><path class="cls-6" d="M1650.82,998.47v9.82h-32.2V993.65h-37.14v-7.71a6.94,6.94,0,0,1,6.93-7h36.94a9.19,9.19,0,0,1,4.94,1.45l16.47,10.6a.28.28,0,0,1,.09.07A8.75,8.75,0,0,1,1650.82,998.47Z"></path><path class="cls-6" d="M1650.82,1097.63v9.82a8.79,8.79,0,0,1-4.06,7.43l-16.47,10.59a9.12,9.12,0,0,1-4.94,1.46h-36.94a6.94,6.94,0,0,1-6.93-7v-7.71h37.14v-14.64Z"></path><rect class="cls-7" x="791.1" y="881.77" width="357.61" height="344.23" rx="4.39"></rect><rect class="cls-8" x="791.1" y="881.77" width="357.61" height="344.23" rx="4.39"></rect><path class="cls-6" d="M1548.85,955h-26.32a12,12,0,0,0,0,24h26.32a12,12,0,0,0,0-24Zm3.81,17.61A8,8,0,0,1,1547,975h-23.55a8,8,0,1,1,0-16H1547a8,8,0,0,1,5.65,13.65Z"></path><rect class="cls-9" x="472.13" y="774.05" width="1188.23" height="550.58" rx="8.62"></rect><rect class="cls-7" x="1349.63" y="1005.82" width="98.41" height="98.41"></rect><rect class="cls-6" x="1338.84" y="1020.8" width="9.84" height="4.39"></rect><rect class="cls-6" x="1338.84" y="1030.34" width="9.84" height="4.39"></rect><rect class="cls-6" x="1338.84" y="1039.89" width="9.84" height="4.39"></rect><rect class="cls-6" x="1338.84" y="1049.43" width="9.84" height="4.39"></rect><rect class="cls-6" x="1338.84" y="1058.98" width="9.84" height="4.39"></rect><rect class="cls-6" x="1338.84" y="1068.52" width="9.84" height="4.39"></rect><rect class="cls-6" x="1338.84" y="1078.07" width="9.84" height="4.39"></rect><rect class="cls-6" x="1419.64" y="997.27" width="9.84" height="4.39" transform="translate(2424.03 -425.09) rotate(90)"></rect><rect class="cls-6" x="1410.09" y="997.27" width="9.84" height="4.39" transform="translate(2414.48 -415.54) rotate(90)"></rect><rect class="cls-6" x="1400.55" y="997.27" width="9.84" height="4.39" transform="translate(2404.94 -406) rotate(90)"></rect><rect class="cls-6" x="1391" y="997.27" width="9.84" height="4.39" transform="translate(2395.39 -396.45) rotate(90)"></rect><rect class="cls-6" x="1381.46" y="997.27" width="9.84" height="4.39" transform="translate(2385.85 -386.91) rotate(90)"></rect><rect class="cls-6" x="1371.91" y="997.27" width="9.84" height="4.39" transform="translate(2376.3 -377.36) rotate(90)"></rect><rect class="cls-6" x="1362.36" y="997.27" width="9.84" height="4.39" transform="translate(2366.75 -367.82) rotate(90)"></rect><path class="cls-6" d="M1417,966.1h3.63a0,0,0,0,1,0,0v8.29a0,0,0,0,1,0,0H1417a1.35,1.35,0,0,1-1.35-1.35v-5.6A1.35,1.35,0,0,1,1417,966.1Z"></path><path class="cls-6" d="M1431,966.1h3.63a1.35,1.35,0,0,1,1.35,1.35V973a1.35,1.35,0,0,1-1.35,1.35H1431a0,0,0,0,1,0,0V966.1A0,0,0,0,1,1431,966.1Z"></path><rect class="cls-10" x="1422.3" y="966.1" width="6.55" height="8.2"></rect><path class="cls-6" d="M1417,949.51h3.63a0,0,0,0,1,0,0v8.29a0,0,0,0,1,0,0H1417a1.35,1.35,0,0,1-1.35-1.35v-5.6A1.35,1.35,0,0,1,1417,949.51Z"></path><path class="cls-6" d="M1431,949.51h3.63a1.35,1.35,0,0,1,1.35,1.35v5.6a1.35,1.35,0,0,1-1.35,1.35H1431a0,0,0,0,1,0,0v-8.29A0,0,0,0,1,1431,949.51Z"></path><rect class="cls-10" x="1422.3" y="949.51" width="6.55" height="8.2"></rect><path class="cls-6" d="M1422.43,1197.25h3.63a0,0,0,0,1,0,0v8.29a0,0,0,0,1,0,0h-3.63a1.35,1.35,0,0,1-1.35-1.35v-5.6A1.35,1.35,0,0,1,1422.43,1197.25Z"></path><path class="cls-6" d="M1436.42,1197.25H1440a1.35,1.35,0,0,1,1.35,1.35v5.6a1.35,1.35,0,0,1-1.35,1.35h-3.63a0,0,0,0,1,0,0v-8.29A0,0,0,0,1,1436.42,1197.25Z"></path><rect class="cls-10" x="1427.74" y="1197.25" width="6.55" height="8.2"></rect><path class="cls-6" d="M1476.16,1197.25h3.63a0,0,0,0,1,0,0v8.29a0,0,0,0,1,0,0h-3.63a1.35,1.35,0,0,1-1.35-1.35v-5.6A1.35,1.35,0,0,1,1476.16,1197.25Z"></path><path class="cls-6" d="M1490.15,1197.25h3.63a1.35,1.35,0,0,1,1.35,1.35v5.6a1.35,1.35,0,0,1-1.35,1.35h-3.63a0,0,0,0,1,0,0v-8.29A0,0,0,0,1,1490.15,1197.25Z"></path><rect class="cls-10" x="1481.46" y="1197.25" width="6.55" height="8.2"></rect><path class="cls-6" d="M1520.61,1269.86h6.21a0,0,0,0,1,0,0V1284a0,0,0,0,1,0,0h-6.21a2.31,2.31,0,0,1-2.31-2.31v-9.58A2.31,2.31,0,0,1,1520.61,1269.86Z" transform="translate(2799.51 -245.61) rotate(90)"></path><path class="cls-6" d="M1518.3,1296.1h6.21a2.31,2.31,0,0,1,2.31,2.31V1308a2.31,2.31,0,0,1-2.31,2.31h-6.21a0,0,0,0,1,0,0V1296.1A0,0,0,0,1,1518.3,1296.1Z" transform="translate(2825.75 -219.36) rotate(90)"></path><rect class="cls-10" x="1517.02" y="1282.66" width="11.21" height="14.04" transform="translate(2812.31 -232.95) rotate(90)"></rect><path class="cls-6" d="M1460.64,1199.46h3.63a0,0,0,0,1,0,0v8.29a0,0,0,0,1,0,0h-3.63a1.35,1.35,0,0,1-1.35-1.35v-5.6A1.35,1.35,0,0,1,1460.64,1199.46Z" transform="translate(2665.38 -258.17) rotate(90)"></path><path class="cls-6" d="M1459.29,1214.8h3.63a1.35,1.35,0,0,1,1.35,1.35v5.6a1.35,1.35,0,0,1-1.35,1.35h-3.63a0,0,0,0,1,0,0v-8.29A0,0,0,0,1,1459.29,1214.8Z" transform="translate(2680.72 -242.83) rotate(90)"></path><rect class="cls-7" x="1458.54" y="1206.94" width="6.55" height="8.2" transform="translate(2672.87 -250.77) rotate(90)"></rect><path class="cls-6" d="M1558.87,1172.81h3.63a0,0,0,0,1,0,0v8.29a0,0,0,0,1,0,0h-3.63a1.35,1.35,0,0,1-1.35-1.35v-5.6A1.35,1.35,0,0,1,1558.87,1172.81Z" transform="translate(2736.97 -383.06) rotate(90)"></path><path class="cls-6" d="M1557.53,1188.14h3.63a1.35,1.35,0,0,1,1.35,1.35v5.6a1.35,1.35,0,0,1-1.35,1.35h-3.63a0,0,0,0,1,0,0v-8.29A0,0,0,0,1,1557.53,1188.14Z" transform="translate(2752.3 -367.73) rotate(90)"></path><rect class="cls-7" x="1556.78" y="1180.29" width="6.55" height="8.2" transform="translate(2744.45 -375.67) rotate(90)"></rect><path class="cls-6" d="M1483.82,1008.69h3.63a0,0,0,0,1,0,0V1017a0,0,0,0,1,0,0h-3.63a1.35,1.35,0,0,1-1.35-1.35V1010A1.35,1.35,0,0,1,1483.82,1008.69Z" transform="translate(2969.93 2025.67) rotate(-180)"></path><path class="cls-6" d="M1467.14,1008.69h3.63a1.35,1.35,0,0,1,1.35,1.35v5.6a1.35,1.35,0,0,1-1.35,1.35h-3.63a0,0,0,0,1,0,0v-8.29A0,0,0,0,1,1467.14,1008.69Z" transform="translate(2939.26 2025.67) rotate(-180)"></path><rect class="cls-7" x="1474.25" y="1008.78" width="6.55" height="8.2" transform="translate(2955.05 2025.76) rotate(-180)"></rect><path class="cls-6" d="M1576.7,894.49h3.63a0,0,0,0,1,0,0v8.29a0,0,0,0,1,0,0h-3.63a1.35,1.35,0,0,1-1.35-1.35v-5.6A1.35,1.35,0,0,1,1576.7,894.49Z" transform="translate(3155.68 1797.27) rotate(-180)"></path><path class="cls-6" d="M1560,894.49h3.63a1.35,1.35,0,0,1,1.35,1.35v5.6a1.35,1.35,0,0,1-1.35,1.35H1560a0,0,0,0,1,0,0v-8.29A0,0,0,0,1,1560,894.49Z" transform="translate(3125 1797.27) rotate(-180)"></path><rect class="cls-7" x="1567.12" y="894.57" width="6.55" height="8.2" transform="translate(3140.8 1797.35) rotate(-180)"></rect><path class="cls-6" d="M649.79,1141.18h3.63a0,0,0,0,1,0,0v8.29a0,0,0,0,1,0,0h-3.63a1.35,1.35,0,0,1-1.35-1.35v-5.6a1.35,1.35,0,0,1,1.35-1.35Z" transform="translate(301.34 2415.47) rotate(-135)"></path><path class="cls-6" d="M637.6,1130.34h3.63a1.35,1.35,0,0,1,1.35,1.35v5.6a1.35,1.35,0,0,1-1.35,1.35H637.6a0,0,0,0,1,0,0v-8.29A0,0,0,0,1,637.6,1130.34Z" transform="translate(290.49 2389.29) rotate(-135)"></path><rect class="cls-7" x="642.36" y="1135.99" width="6.55" height="8.2" transform="translate(296 2402.8) rotate(-135)"></rect><path class="cls-6" d="M1535,855.36h3.63a0,0,0,0,1,0,0v8.29a0,0,0,0,1,0,0H1535a1.35,1.35,0,0,1-1.35-1.35v-5.6A1.35,1.35,0,0,1,1535,855.36Z" transform="translate(3072.21 1719.01) rotate(-180)"></path><path class="cls-6" d="M1518.28,855.36h3.63a1.35,1.35,0,0,1,1.35,1.35v5.6a1.35,1.35,0,0,1-1.35,1.35h-3.63a0,0,0,0,1,0,0v-8.29a0,0,0,0,1,0,0Z" transform="translate(3041.54 1719.01) rotate(-180)"></path><rect class="cls-7" x="1525.39" y="855.44" width="6.55" height="8.2" transform="translate(3057.33 1719.09) rotate(-180)"></rect><path class="cls-6" d="M1648,1259.12h3.63a0,0,0,0,1,0,0v8.29a0,0,0,0,1,0,0H1648a1.35,1.35,0,0,1-1.35-1.35v-5.6A1.35,1.35,0,0,1,1648,1259.12Z" transform="translate(3298.27 2526.53) rotate(-180)"></path><path class="cls-6" d="M1631.31,1259.12h3.63a1.35,1.35,0,0,1,1.35,1.35v5.6a1.35,1.35,0,0,1-1.35,1.35h-3.63a0,0,0,0,1,0,0v-8.29A0,0,0,0,1,1631.31,1259.12Z" transform="translate(3267.59 2526.53) rotate(-180)"></path><rect class="cls-7" x="1638.42" y="1259.21" width="6.55" height="8.2" transform="translate(3283.39 2526.62) rotate(-180)"></rect><path class="cls-6" d="M1500.91,1283.48h3.63a0,0,0,0,1,0,0v8.29a0,0,0,0,1,0,0h-3.63a1.35,1.35,0,0,1-1.35-1.35v-5.6A1.35,1.35,0,0,1,1500.91,1283.48Z" transform="translate(2789.67 -214.43) rotate(90)"></path><path class="cls-6" d="M1499.56,1298.81h3.63a1.35,1.35,0,0,1,1.35,1.35v5.6a1.35,1.35,0,0,1-1.35,1.35h-3.63a0,0,0,0,1,0,0v-8.29A0,0,0,0,1,1499.56,1298.81Z" transform="translate(2805.01 -199.09) rotate(90)"></path><rect class="cls-7" x="1498.82" y="1290.96" width="6.55" height="8.2" transform="translate(2797.15 -207.03) rotate(90)"></rect><rect class="cls-7" x="1416.89" y="1152.35" width="35.64" height="19.19"></rect><rect class="cls-7" x="1581.48" y="1169.84" width="15.98" height="19.19"></rect><rect class="cls-7" x="1622.71" y="1206.02" width="21.59" height="27.15"></rect><rect class="cls-7" x="1570.02" y="1259.68" width="21.59" height="52.49"></rect><rect class="cls-7" x="1611.92" y="888.89" width="21.59" height="52.49"></rect><rect class="cls-6" x="1418.4" y="1146.71" width="3.97" height="3.97"></rect><rect class="cls-6" x="1431.24" y="1146.71" width="3.97" height="3.97"></rect><rect class="cls-6" x="1444.08" y="1146.71" width="3.97" height="3.97"></rect><rect class="cls-6" x="1418.4" y="1172.48" width="3.97" height="3.97"></rect><rect class="cls-6" x="1431.24" y="1172.48" width="3.97" height="3.97"></rect><rect class="cls-6" x="1444.08" y="1172.48" width="3.97" height="3.97"></rect><rect class="cls-6" x="1573.41" y="1161.36" width="14.8" height="6.39" rx="2.07"></rect><rect class="cls-6" x="1573.41" y="1191.12" width="14.8" height="6.39" rx="2.07"></rect><rect class="cls-6" x="1615.31" y="1197.51" width="14.8" height="6.39" rx="2.07"></rect><rect class="cls-6" x="1541.07" y="1302.54" width="14.8" height="6.39" rx="2.07"></rect><rect class="cls-6" x="1615.31" y="1238" width="14.8" height="6.39" rx="2.07"></rect><rect class="cls-6" x="1541.07" y="1263.27" width="14.8" height="6.39" rx="2.07"></rect><rect class="cls-6" x="1599.33" y="1267.85" width="14.8" height="6.39" rx="2.07"></rect><rect class="cls-6" x="1599.33" y="1284.42" width="14.8" height="6.39" rx="2.07"></rect><rect class="cls-6" x="1599.33" y="1300.99" width="14.8" height="6.39" rx="2.07"></rect><path class="cls-6" d="M1502.78,801.81H1509a0,0,0,0,1,0,0V816a0,0,0,0,1,0,0h-6.21a2.31,2.31,0,0,1-2.31-2.31v-9.58A2.31,2.31,0,0,1,1502.78,801.81Z" transform="translate(2313.64 -695.83) rotate(90)"></path><path class="cls-6" d="M1500.48,828.06h6.21a2.31,2.31,0,0,1,2.31,2.31v9.58a2.31,2.31,0,0,1-2.31,2.31h-6.21a0,0,0,0,1,0,0V828.06A0,0,0,0,1,1500.48,828.06Z" transform="translate(2339.88 -669.58) rotate(90)"></path><rect class="cls-10" x="1499.2" y="814.61" width="11.21" height="14.04" transform="translate(2326.44 -683.17) rotate(90)"></rect><path class="cls-6" d="M1640.47,792.71h6.21a0,0,0,0,1,0,0V806.9a0,0,0,0,1,0,0h-6.21a2.31,2.31,0,0,1-2.31-2.31V795A2.31,2.31,0,0,1,1640.47,792.71Z" transform="translate(3284.84 1599.61) rotate(-180)"></path><path class="cls-6" d="M1611.92,792.71h6.21a2.31,2.31,0,0,1,2.31,2.31v9.58a2.31,2.31,0,0,1-2.31,2.31h-6.21a0,0,0,0,1,0,0V792.71A0,0,0,0,1,1611.92,792.71Z" transform="translate(3232.35 1599.61) rotate(-180)"></path><rect class="cls-10" x="1624.08" y="792.86" width="11.21" height="14.04" transform="translate(3259.38 1599.75) rotate(-180)"></rect><path class="cls-6" d="M1483.09,815.43h3.63a0,0,0,0,1,0,0v8.29a0,0,0,0,1,0,0h-3.63a1.35,1.35,0,0,1-1.35-1.35v-5.6A1.35,1.35,0,0,1,1483.09,815.43Z" transform="translate(2303.8 -664.65) rotate(90)"></path><path class="cls-6" d="M1481.74,830.76h3.63a1.35,1.35,0,0,1,1.35,1.35v5.6a1.35,1.35,0,0,1-1.35,1.35h-3.63a0,0,0,0,1,0,0v-8.29A0,0,0,0,1,1481.74,830.76Z" transform="translate(2319.13 -649.32) rotate(90)"></path><rect class="cls-7" x="1480.99" y="822.91" width="6.55" height="8.2" transform="translate(2311.28 -657.26) rotate(90)"></rect><rect class="cls-7" x="1552.19" y="791.64" width="21.59" height="52.49"></rect><rect class="cls-6" x="1523.25" y="834.49" width="14.8" height="6.39" rx="2.07"></rect><rect class="cls-6" x="1523.25" y="795.22" width="14.8" height="6.39" rx="2.07"></rect><rect class="cls-6" x="1581.51" y="799.8" width="14.8" height="6.39" rx="2.07"></rect><rect class="cls-6" x="1581.51" y="816.37" width="14.8" height="6.39" rx="2.07"></rect><rect class="cls-6" x="1581.51" y="832.95" width="14.8" height="6.39" rx="2.07"></rect><rect class="cls-6" x="1601.67" y="895.23" width="8.42" height="6.81"></rect><rect class="cls-6" x="1601.67" y="931.96" width="8.42" height="6.81"></rect><circle class="cls-6" cx="1457.12" cy="881.77" r="10.04"></circle><circle class="cls-7" cx="1457.12" cy="881.77" r="7.1"></circle><circle class="cls-6" cx="1247.1" cy="1184.39" r="10.04"></circle><circle class="cls-7" cx="1247.1" cy="1184.39" r="7.1"></circle><circle class="cls-6" cx="601.08" cy="1094.34" r="5.74"></circle><circle class="cls-7" cx="601.08" cy="1094.34" r="4.06"></circle><circle class="cls-6" cx="727.31" cy="1119.03" r="5.74"></circle><circle class="cls-7" cx="727.31" cy="1119.03" r="4.06"></circle><circle class="cls-6" cx="1541.07" cy="993.64" r="7.1"></circle><circle class="cls-7" cx="1541.07" cy="993.64" r="5.02"></circle><circle class="cls-6" cx="1541.07" cy="1108.28" r="7.1"></circle><circle class="cls-7" cx="1541.07" cy="1108.28" r="5.02"></circle><circle class="cls-6" cx="1480.17" cy="857.19" r="10.04"></circle><circle class="cls-7" cx="1480.17" cy="857.19" r="7.1"></circle><rect class="cls-7" x="1571.74" y="1041.28" width="13.32" height="23.86"></rect><rect class="cls-7" x="1555.86" y="1046.85" width="25.8" height="10.23"></rect><rect class="cls-9" x="1555.86" y="1008.29" width="94.96" height="89.33"></rect><path class="cls-9" d="M1618.62,1008.29V993.65h-37.14v-7.71a6.94,6.94,0,0,1,6.93-7h36.94a9.19,9.19,0,0,1,4.94,1.45l16.47,10.6a8.77,8.77,0,0,1,4.06,7.43v9.82"></path><path class="cls-9" d="M1650.82,1097.63v9.82a8.79,8.79,0,0,1-4.06,7.43l-16.47,10.59a9.12,9.12,0,0,1-4.94,1.46h-36.94a6.94,6.94,0,0,1-6.93-7v-7.71h37.14v-14.64"></path><path class="cls-9" d="M1555,967a8,8,0,0,1-8,8h-23.55a8,8,0,1,1,0-16H1547A8,8,0,0,1,1555,967Z"></path><path class="cls-6" d="M1629.6,956.52H1609a9.08,9.08,0,0,0-6.63,2.94,10.31,10.31,0,0,0-2.76,7.12c0,5.54,4.21,10,9.39,10h20.64a9,9,0,0,0,6.63-2.94,10.25,10.25,0,0,0,2.76-7.09C1639,961,1634.78,956.52,1629.6,956.52Zm3,14.76a6,6,0,0,1-4.42,2h-18.47a6.47,6.47,0,0,1-6.26-6.7,6.94,6.94,0,0,1,1.84-4.75,6,6,0,0,1,4.42-1.95h18.47a6.49,6.49,0,0,1,6.26,6.7A6.88,6.88,0,0,1,1632.58,971.28Z"></path><path class="cls-11" d="M1634.42,966.54a6.91,6.91,0,0,1-1.83,4.75,6.1,6.1,0,0,1-4.43,2h-18.47a6.48,6.48,0,0,1-6.26-6.7,7,7,0,0,1,1.83-4.75,6.08,6.08,0,0,1,4.43-1.95h18.47A6.48,6.48,0,0,1,1634.42,966.54Z"></path><path class="cls-6" d="M1548.85,1128.39h-26.32a12,12,0,0,0,0,24h26.32a12,12,0,0,0,0-24Zm3.81,17.61a8,8,0,0,1-5.65,2.33h-23.55a8,8,0,1,1,0-16H1547a8,8,0,0,1,5.65,13.65Z"></path><path class="cls-9" d="M1555,1140.34a8,8,0,0,1-8,8h-23.55a8,8,0,1,1,0-16H1547A8,8,0,0,1,1555,1140.34Z"></path><path class="cls-6" d="M1629.6,1129.88H1609a9,9,0,0,0-6.63,2.95,10.29,10.29,0,0,0-2.76,7.1c0,5.55,4.21,10,9.39,10h20.64a9,9,0,0,0,6.63-3,10.26,10.26,0,0,0,2.76-7.1C1639,1134.38,1634.78,1129.88,1629.6,1129.88Zm3,14.77a6,6,0,0,1-4.42,1.95h-18.47a6.48,6.48,0,0,1-6.26-6.7,6.91,6.91,0,0,1,1.84-4.74,6,6,0,0,1,4.42-2h18.47a6.49,6.49,0,0,1,6.26,6.69A6.92,6.92,0,0,1,1632.58,1144.65Z"></path><path class="cls-11" d="M1634.42,1139.9a6.91,6.91,0,0,1-1.83,4.75,6.1,6.1,0,0,1-4.43,1.95h-18.47a6.48,6.48,0,0,1-6.26-6.7,6.93,6.93,0,0,1,1.83-4.74,6,6,0,0,1,4.43-2h18.47A6.47,6.47,0,0,1,1634.42,1139.9Z"></path><rect class="cls-10" x="684.09" y="889.03" width="62.6" height="22.12" rx="3.15" transform="translate(1857.7 1030.68) rotate(135)"></rect><rect class="cls-6" x="684.59" y="899.11" width="7.72" height="7.72" transform="translate(840.14 -222.33) rotate(45)"></rect><rect class="cls-6" x="675.33" y="876.94" width="7.72" height="22.07" rx="2.15" transform="translate(826.82 -220.18) rotate(45)"></rect><rect class="cls-6" x="699.26" y="853.01" width="7.72" height="22.07" rx="2.15" transform="translate(816.91 -244.11) rotate(45)"></rect><rect class="cls-6" x="715.17" y="868.54" width="7.72" height="7.72" transform="translate(827.48 -252.91) rotate(45)"></rect><path class="cls-6" d="M835.48,1135.27h4.17a0,0,0,0,1,0,0v44.43a0,0,0,0,1,0,0h-4.17a3.46,3.46,0,0,1-3.46-3.46v-37.51A3.46,3.46,0,0,1,835.48,1135.27Z" transform="translate(1993.32 321.66) rotate(90)"></path><rect class="cls-12" x="807.31" y="1161.31" width="57.05" height="57.05" rx="3.2" transform="translate(2025.66 354) rotate(90)"></rect><rect class="cls-8" x="807.31" y="1161.31" width="57.05" height="57.05" rx="3.2" transform="translate(2025.66 354) rotate(90)"></rect><circle class="cls-13" cx="835.83" cy="1189.83" r="11.19"></circle><circle class="cls-14" cx="835.83" cy="1189.83" r="22.22"></circle><path class="cls-8" d="M835.48,1135.27h4.17a0,0,0,0,1,0,0v44.43a0,0,0,0,1,0,0h-4.17a3.46,3.46,0,0,1-3.46-3.46v-37.51A3.46,3.46,0,0,1,835.48,1135.27Z" transform="translate(1993.32 321.66) rotate(90)"></path><path class="cls-6" d="M835.48,1200h4.17a0,0,0,0,1,0,0v44.43a0,0,0,0,1,0,0h-4.17a3.46,3.46,0,0,1-3.46-3.46v-37.51A3.46,3.46,0,0,1,835.48,1200Z" transform="translate(-386.34 2058.01) rotate(-90)"></path><path class="cls-8" d="M835.48,1200h4.17a0,0,0,0,1,0,0v44.43a0,0,0,0,1,0,0h-4.17a3.46,3.46,0,0,1-3.46-3.46v-37.51A3.46,3.46,0,0,1,835.48,1200Z" transform="translate(-386.34 2058.01) rotate(-90)"></path><path class="cls-6" d="M1095.2,870.92h4.17a0,0,0,0,1,0,0v44.43a0,0,0,0,1,0,0h-4.17a3.46,3.46,0,0,1-3.46-3.46V874.38A3.46,3.46,0,0,1,1095.2,870.92Z" transform="translate(1988.69 -202.43) rotate(90)"></path><rect class="cls-12" x="1067.03" y="896.95" width="57.05" height="57.05" rx="3.2" transform="translate(2021.03 -170.08) rotate(90)"></rect><rect class="cls-8" x="1067.03" y="896.95" width="57.05" height="57.05" rx="3.2" transform="translate(2021.03 -170.08) rotate(90)"></rect><circle class="cls-13" cx="1095.56" cy="925.47" r="11.19"></circle><circle class="cls-14" cx="1095.56" cy="925.47" r="22.22"></circle><path class="cls-8" d="M1095.2,870.92h4.17a0,0,0,0,1,0,0v44.43a0,0,0,0,1,0,0h-4.17a3.46,3.46,0,0,1-3.46-3.46V874.38A3.46,3.46,0,0,1,1095.2,870.92Z" transform="translate(1988.69 -202.43) rotate(90)"></path><path class="cls-6" d="M1095.2,935.6h4.17a0,0,0,0,1,0,0V980a0,0,0,0,1,0,0h-4.17a3.46,3.46,0,0,1-3.46-3.46V939.06A3.46,3.46,0,0,1,1095.2,935.6Z" transform="translate(137.74 2053.37) rotate(-90)"></path><path class="cls-8" d="M1095.2,935.6h4.17a0,0,0,0,1,0,0V980a0,0,0,0,1,0,0h-4.17a3.46,3.46,0,0,1-3.46-3.46V939.06A3.46,3.46,0,0,1,1095.2,935.6Z" transform="translate(137.74 2053.37) rotate(-90)"></path><path class="cls-15" d="M1124.08,967.62v241.76a9.56,9.56,0,0,1-9.57,9.57H876v-78.57h-68.7V903.77a5.1,5.1,0,0,1,5.11-5.1h239.9v69Z"></path><path class="cls-8" d="M1124.08,967.62v241.76a9.56,9.56,0,0,1-9.57,9.57H876v-78.57h-68.7V903.77a5.1,5.1,0,0,1,5.11-5.1h239.9v69Z"></path><rect class="cls-6" x="1137.63" y="918.32" width="31.22" height="18.35" rx="5.63"></rect><rect class="cls-6" x="1137.63" y="944.44" width="31.22" height="18.35" rx="5.63"></rect><rect class="cls-6" x="1137.63" y="970.55" width="31.22" height="18.35" rx="5.63"></rect><rect class="cls-6" x="1137.63" y="996.67" width="31.22" height="18.35" rx="5.63"></rect><rect class="cls-6" x="1137.63" y="1075.03" width="31.22" height="18.35" rx="5.63"></rect><rect class="cls-6" x="1137.63" y="1048.91" width="31.22" height="18.35" rx="5.63"></rect><rect class="cls-6" x="1137.63" y="1022.79" width="31.22" height="18.35" rx="5.63"></rect><rect class="cls-6" x="1137.63" y="1101.14" width="31.22" height="18.35" rx="5.63"></rect><rect class="cls-6" x="1137.63" y="1127.26" width="31.22" height="18.35" rx="5.63"></rect><rect class="cls-6" x="1137.63" y="1153.38" width="31.22" height="18.35" rx="5.63"></rect><rect class="cls-6" x="1137.63" y="1179.5" width="31.22" height="18.35" rx="5.63"></rect><rect class="cls-6" x="766.04" y="1092.02" width="31.22" height="18.35" rx="5.63"></rect><rect class="cls-6" x="766.04" y="1065.9" width="31.22" height="18.35" rx="5.63"></rect><rect class="cls-6" x="766.04" y="1039.78" width="31.22" height="18.35" rx="5.63"></rect><rect class="cls-6" x="766.04" y="1118.14" width="31.22" height="18.35" rx="5.63"></rect><rect class="cls-6" x="766.04" y="1144.25" width="31.22" height="18.35" rx="5.63"></rect><rect class="cls-6" x="766.04" y="1170.37" width="31.22" height="18.35" rx="5.63"></rect><rect class="cls-6" x="766.04" y="936.75" width="31.22" height="18.35" rx="5.63"></rect><rect class="cls-6" x="766.04" y="910.63" width="31.22" height="18.35" rx="5.63"></rect><rect class="cls-6" x="766.04" y="962.87" width="31.22" height="18.35" rx="5.63"></rect><rect class="cls-6" x="766.04" y="988.99" width="31.22" height="18.35" rx="5.63"></rect><rect class="cls-6" x="766.04" y="1015.1" width="31.22" height="18.35" rx="5.63"></rect><rect class="cls-6" x="882.8" y="884.82" width="159.71" height="10.55"></rect><rect class="cls-7" x="479.12" y="798.55" width="34.43" height="34.43" rx="3.39"></rect><rect class="cls-16" x="479.12" y="798.55" width="34.43" height="34.43" rx="3.39"></rect><circle class="cls-6" cx="496.33" cy="815.76" r="7.23"></circle><circle class="cls-16" cx="496.33" cy="815.76" r="7.23"></circle><rect class="cls-7" x="525.36" y="798.55" width="34.43" height="34.43" rx="3.39"></rect><rect class="cls-16" x="525.36" y="798.55" width="34.43" height="34.43" rx="3.39"></rect><circle class="cls-6" cx="542.57" cy="815.76" r="7.23"></circle><circle class="cls-16" cx="542.57" cy="815.76" r="7.23"></circle><rect class="cls-7" x="571.6" y="798.55" width="34.43" height="34.43" rx="3.39"></rect><rect class="cls-16" x="571.6" y="798.55" width="34.43" height="34.43" rx="3.39"></rect><circle class="cls-6" cx="588.81" cy="815.76" r="7.23"></circle><circle class="cls-16" cx="588.81" cy="815.76" r="7.23"></circle><rect class="cls-7" x="617.84" y="798.55" width="34.43" height="34.43" rx="3.39"></rect><rect class="cls-16" x="617.84" y="798.55" width="34.43" height="34.43" rx="3.39"></rect><circle class="cls-6" cx="635.05" cy="815.76" r="7.23"></circle><circle class="cls-16" cx="635.05" cy="815.76" r="7.23"></circle><rect class="cls-7" x="664.08" y="798.55" width="34.43" height="34.43" rx="3.39"></rect><rect class="cls-16" x="664.08" y="798.55" width="34.43" height="34.43" rx="3.39"></rect><circle class="cls-6" cx="681.3" cy="815.76" r="7.23"></circle><circle class="cls-16" cx="681.3" cy="815.76" r="7.23"></circle><rect class="cls-7" x="710.32" y="798.55" width="34.43" height="34.43" rx="3.39"></rect><rect class="cls-16" x="710.32" y="798.55" width="34.43" height="34.43" rx="3.39"></rect><circle class="cls-6" cx="727.54" cy="815.76" r="7.23"></circle><circle class="cls-16" cx="727.54" cy="815.76" r="7.23"></circle><rect class="cls-7" x="756.56" y="798.55" width="34.43" height="34.43" rx="3.39"></rect><rect class="cls-16" x="756.56" y="798.55" width="34.43" height="34.43" rx="3.39"></rect><circle class="cls-6" cx="773.78" cy="815.76" r="7.23"></circle><circle class="cls-16" cx="773.78" cy="815.76" r="7.23"></circle><rect class="cls-7" x="802.8" y="798.55" width="34.43" height="34.43" rx="3.39"></rect><rect class="cls-16" x="802.8" y="798.55" width="34.43" height="34.43" rx="3.39"></rect><circle class="cls-6" cx="820.02" cy="815.76" r="7.23"></circle><circle class="cls-16" cx="820.02" cy="815.76" r="7.23"></circle><rect class="cls-7" x="849.05" y="798.55" width="34.43" height="34.43" rx="3.39"></rect><rect class="cls-16" x="849.05" y="798.55" width="34.43" height="34.43" rx="3.39"></rect><circle class="cls-6" cx="866.26" cy="815.76" r="7.23"></circle><circle class="cls-16" cx="866.26" cy="815.76" r="7.23"></circle><rect class="cls-7" x="895.29" y="798.55" width="34.43" height="34.43" rx="3.39"></rect><rect class="cls-16" x="895.29" y="798.55" width="34.43" height="34.43" rx="3.39"></rect><circle class="cls-6" cx="912.5" cy="815.76" r="7.23"></circle><circle class="cls-16" cx="912.5" cy="815.76" r="7.23"></circle><rect class="cls-7" x="941.53" y="798.55" width="34.43" height="34.43" rx="3.39"></rect><rect class="cls-16" x="941.53" y="798.55" width="34.43" height="34.43" rx="3.39"></rect><circle class="cls-6" cx="958.74" cy="815.76" r="7.23"></circle><circle class="cls-16" cx="958.74" cy="815.76" r="7.23"></circle><rect class="cls-7" x="987.77" y="798.55" width="34.43" height="34.43" rx="3.39"></rect><rect class="cls-16" x="987.77" y="798.55" width="34.43" height="34.43" rx="3.39"></rect><circle class="cls-6" cx="1004.98" cy="815.76" r="7.23"></circle><circle class="cls-16" cx="1004.98" cy="815.76" r="7.23"></circle><rect class="cls-7" x="1034.01" y="798.55" width="34.43" height="34.43" rx="3.39"></rect><rect class="cls-16" x="1034.01" y="798.55" width="34.43" height="34.43" rx="3.39"></rect><circle class="cls-6" cx="1051.22" cy="815.76" r="7.23"></circle><circle class="cls-16" cx="1051.22" cy="815.76" r="7.23"></circle><rect class="cls-7" x="1080.25" y="798.55" width="34.43" height="34.43" rx="3.39"></rect><rect class="cls-16" x="1080.25" y="798.55" width="34.43" height="34.43" rx="3.39"></rect><circle class="cls-6" cx="1097.46" cy="815.76" r="7.23"></circle><circle class="cls-16" cx="1097.46" cy="815.76" r="7.23"></circle><rect class="cls-7" x="1126.49" y="798.55" width="34.43" height="34.43" rx="3.39"></rect><rect class="cls-16" x="1126.49" y="798.55" width="34.43" height="34.43" rx="3.39"></rect><circle class="cls-6" cx="1143.7" cy="815.76" r="7.23"></circle><circle class="cls-16" cx="1143.7" cy="815.76" r="7.23"></circle><rect class="cls-7" x="1172.73" y="798.55" width="34.43" height="34.43" rx="3.39"></rect><rect class="cls-16" x="1172.73" y="798.55" width="34.43" height="34.43" rx="3.39"></rect><circle class="cls-6" cx="1189.94" cy="815.76" r="7.23"></circle><circle class="cls-16" cx="1189.94" cy="815.76" r="7.23"></circle><rect class="cls-7" x="1218.97" y="798.55" width="34.43" height="34.43" rx="3.39"></rect><rect class="cls-16" x="1218.97" y="798.55" width="34.43" height="34.43" rx="3.39"></rect><circle class="cls-6" cx="1236.19" cy="815.76" r="7.23"></circle><circle class="cls-16" cx="1236.19" cy="815.76" r="7.23"></circle><rect class="cls-7" x="1265.21" y="798.55" width="34.43" height="34.43" rx="3.39"></rect><rect class="cls-16" x="1265.21" y="798.55" width="34.43" height="34.43" rx="3.39"></rect><circle class="cls-6" cx="1282.43" cy="815.76" r="7.23"></circle><circle class="cls-16" cx="1282.43" cy="815.76" r="7.23"></circle><rect class="cls-7" x="1311.45" y="798.55" width="34.43" height="34.43" rx="3.39"></rect><rect class="cls-16" x="1311.45" y="798.55" width="34.43" height="34.43" rx="3.39"></rect><circle class="cls-6" cx="1328.67" cy="815.76" r="7.23"></circle><circle class="cls-16" cx="1328.67" cy="815.76" r="7.23"></circle><rect class="cls-7" x="1357.69" y="798.55" width="34.43" height="34.43" rx="3.39"></rect><rect class="cls-16" x="1357.69" y="798.55" width="34.43" height="34.43" rx="3.39"></rect><circle class="cls-6" cx="1374.91" cy="815.76" r="7.23"></circle><circle class="cls-16" cx="1374.91" cy="815.76" r="7.23"></circle><rect class="cls-7" x="1403.93" y="798.55" width="34.43" height="34.43" rx="3.39"></rect><rect class="cls-16" x="1403.93" y="798.55" width="34.43" height="34.43" rx="3.39"></rect><circle class="cls-6" cx="1421.15" cy="815.76" r="7.23"></circle><circle class="cls-16" cx="1421.15" cy="815.76" r="7.23"></circle><rect class="cls-7" x="1450.18" y="798.55" width="34.43" height="34.43" rx="3.39"></rect><rect class="cls-16" x="1450.18" y="798.55" width="34.43" height="34.43" rx="3.39"></rect><circle class="cls-6" cx="1467.39" cy="815.76" r="7.23"></circle><circle class="cls-16" cx="1467.39" cy="815.76" r="7.23"></circle><rect class="cls-7" x="479.12" y="1278.07" width="34.43" height="34.43" rx="3.39"></rect><rect class="cls-16" x="479.12" y="1278.07" width="34.43" height="34.43" rx="3.39"></rect><circle class="cls-6" cx="496.33" cy="1295.29" r="7.23"></circle><circle class="cls-16" cx="496.33" cy="1295.29" r="7.23"></circle><rect class="cls-7" x="525.36" y="1278.07" width="34.43" height="34.43" rx="3.39"></rect><rect class="cls-16" x="525.36" y="1278.07" width="34.43" height="34.43" rx="3.39"></rect><circle class="cls-6" cx="542.57" cy="1295.29" r="7.23"></circle><circle class="cls-16" cx="542.57" cy="1295.29" r="7.23"></circle><rect class="cls-7" x="571.6" y="1278.07" width="34.43" height="34.43" rx="3.39"></rect><rect class="cls-16" x="571.6" y="1278.07" width="34.43" height="34.43" rx="3.39"></rect><circle class="cls-6" cx="588.81" cy="1295.29" r="7.23"></circle><circle class="cls-16" cx="588.81" cy="1295.29" r="7.23"></circle><rect class="cls-7" x="617.84" y="1278.07" width="34.43" height="34.43" rx="3.39"></rect><rect class="cls-16" x="617.84" y="1278.07" width="34.43" height="34.43" rx="3.39"></rect><circle class="cls-6" cx="635.05" cy="1295.29" r="7.23"></circle><circle class="cls-16" cx="635.05" cy="1295.29" r="7.23"></circle><rect class="cls-7" x="664.08" y="1278.07" width="34.43" height="34.43" rx="3.39"></rect><rect class="cls-16" x="664.08" y="1278.07" width="34.43" height="34.43" rx="3.39"></rect><circle class="cls-6" cx="681.3" cy="1295.29" r="7.23"></circle><circle class="cls-16" cx="681.3" cy="1295.29" r="7.23"></circle><rect class="cls-7" x="710.32" y="1278.07" width="34.43" height="34.43" rx="3.39"></rect><rect class="cls-16" x="710.32" y="1278.07" width="34.43" height="34.43" rx="3.39"></rect><circle class="cls-6" cx="727.54" cy="1295.29" r="7.23"></circle><circle class="cls-16" cx="727.54" cy="1295.29" r="7.23"></circle><rect class="cls-7" x="756.56" y="1278.07" width="34.43" height="34.43" rx="3.39"></rect><rect class="cls-16" x="756.56" y="1278.07" width="34.43" height="34.43" rx="3.39"></rect><circle class="cls-6" cx="773.78" cy="1295.29" r="7.23"></circle><circle class="cls-16" cx="773.78" cy="1295.29" r="7.23"></circle><rect class="cls-7" x="802.8" y="1278.07" width="34.43" height="34.43" rx="3.39"></rect><rect class="cls-16" x="802.8" y="1278.07" width="34.43" height="34.43" rx="3.39"></rect><circle class="cls-6" cx="820.02" cy="1295.29" r="7.23"></circle><circle class="cls-16" cx="820.02" cy="1295.29" r="7.23"></circle><rect class="cls-7" x="849.05" y="1278.07" width="34.43" height="34.43" rx="3.39"></rect><rect class="cls-16" x="849.05" y="1278.07" width="34.43" height="34.43" rx="3.39"></rect><circle class="cls-6" cx="866.26" cy="1295.29" r="7.23"></circle><circle class="cls-16" cx="866.26" cy="1295.29" r="7.23"></circle><rect class="cls-7" x="895.29" y="1278.07" width="34.43" height="34.43" rx="3.39"></rect><rect class="cls-16" x="895.29" y="1278.07" width="34.43" height="34.43" rx="3.39"></rect><circle class="cls-6" cx="912.5" cy="1295.29" r="7.23"></circle><circle class="cls-16" cx="912.5" cy="1295.29" r="7.23"></circle><rect class="cls-7" x="941.53" y="1278.07" width="34.43" height="34.43" rx="3.39"></rect><rect class="cls-16" x="941.53" y="1278.07" width="34.43" height="34.43" rx="3.39"></rect><circle class="cls-6" cx="958.74" cy="1295.29" r="7.23"></circle><circle class="cls-16" cx="958.74" cy="1295.29" r="7.23"></circle><rect class="cls-7" x="987.77" y="1278.07" width="34.43" height="34.43" rx="3.39"></rect><rect class="cls-16" x="987.77" y="1278.07" width="34.43" height="34.43" rx="3.39"></rect><circle class="cls-6" cx="1004.98" cy="1295.29" r="7.23"></circle><circle class="cls-16" cx="1004.98" cy="1295.29" r="7.23"></circle><rect class="cls-7" x="1034.01" y="1278.07" width="34.43" height="34.43" rx="3.39"></rect><rect class="cls-16" x="1034.01" y="1278.07" width="34.43" height="34.43" rx="3.39"></rect><circle class="cls-6" cx="1051.22" cy="1295.29" r="7.23"></circle><circle class="cls-16" cx="1051.22" cy="1295.29" r="7.23"></circle><rect class="cls-7" x="1080.25" y="1278.07" width="34.43" height="34.43" rx="3.39"></rect><rect class="cls-16" x="1080.25" y="1278.07" width="34.43" height="34.43" rx="3.39"></rect><circle class="cls-6" cx="1097.46" cy="1295.29" r="7.23"></circle><circle class="cls-16" cx="1097.46" cy="1295.29" r="7.23"></circle><rect class="cls-7" x="1126.49" y="1278.07" width="34.43" height="34.43" rx="3.39"></rect><rect class="cls-16" x="1126.49" y="1278.07" width="34.43" height="34.43" rx="3.39"></rect><circle class="cls-6" cx="1143.7" cy="1295.29" r="7.23"></circle><circle class="cls-16" cx="1143.7" cy="1295.29" r="7.23"></circle><rect class="cls-7" x="1172.73" y="1278.07" width="34.43" height="34.43" rx="3.39"></rect><rect class="cls-16" x="1172.73" y="1278.07" width="34.43" height="34.43" rx="3.39"></rect><circle class="cls-6" cx="1189.94" cy="1295.29" r="7.23"></circle><circle class="cls-16" cx="1189.94" cy="1295.29" r="7.23"></circle><rect class="cls-7" x="1218.97" y="1278.07" width="34.43" height="34.43" rx="3.39"></rect><rect class="cls-16" x="1218.97" y="1278.07" width="34.43" height="34.43" rx="3.39"></rect><circle class="cls-6" cx="1236.19" cy="1295.29" r="7.23"></circle><circle class="cls-16" cx="1236.19" cy="1295.29" r="7.23"></circle><rect class="cls-7" x="1265.21" y="1278.07" width="34.43" height="34.43" rx="3.39"></rect><rect class="cls-16" x="1265.21" y="1278.07" width="34.43" height="34.43" rx="3.39"></rect><circle class="cls-6" cx="1282.43" cy="1295.29" r="7.23"></circle><circle class="cls-16" cx="1282.43" cy="1295.29" r="7.23"></circle><rect class="cls-7" x="1311.45" y="1278.07" width="34.43" height="34.43" rx="3.39"></rect><rect class="cls-16" x="1311.45" y="1278.07" width="34.43" height="34.43" rx="3.39"></rect><circle class="cls-6" cx="1328.67" cy="1295.29" r="7.23"></circle><circle class="cls-16" cx="1328.67" cy="1295.29" r="7.23"></circle><rect class="cls-7" x="1357.69" y="1278.07" width="34.43" height="34.43" rx="3.39"></rect><rect class="cls-16" x="1357.69" y="1278.07" width="34.43" height="34.43" rx="3.39"></rect><circle class="cls-6" cx="1374.91" cy="1295.29" r="7.23"></circle><circle class="cls-16" cx="1374.91" cy="1295.29" r="7.23"></circle><rect class="cls-7" x="1403.93" y="1278.07" width="34.43" height="34.43" rx="3.39"></rect><rect class="cls-16" x="1403.93" y="1278.07" width="34.43" height="34.43" rx="3.39"></rect><circle class="cls-6" cx="1421.15" cy="1295.29" r="7.23"></circle><circle class="cls-16" cx="1421.15" cy="1295.29" r="7.23"></circle><rect class="cls-7" x="1450.18" y="1278.07" width="34.43" height="34.43" rx="3.39"></rect><rect class="cls-16" x="1450.18" y="1278.07" width="34.43" height="34.43" rx="3.39"></rect><circle class="cls-6" cx="1467.39" cy="1295.29" r="7.23"></circle><circle class="cls-16" cx="1467.39" cy="1295.29" r="7.23"></circle><path class="cls-7" d="M1660.35,967h2.91a4.74,4.74,0,0,1,4.74,4.74v151.93a4.74,4.74,0,0,1-4.74,4.74h-2.91a0,0,0,0,1,0,0V967A0,0,0,0,1,1660.35,967Z"></path><path class="cls-9" d="M1660.35,967h2.91a4.74,4.74,0,0,1,4.74,4.74v151.93a4.74,4.74,0,0,1-4.74,4.74h-2.91a0,0,0,0,1,0,0V967A0,0,0,0,1,1660.35,967Z"></path><rect class="cls-5" x="1578.41" y="1016.32" width="60.58" height="4.62"></rect><rect class="cls-5" x="1578.41" y="1083.16" width="60.58" height="4.62"></rect><path class="cls-17" d="M859.33,923.12s0,.06,0,.08l-.47,1.89-13.69,55.16a8.48,8.48,0,0,0,1.34,7l.1.14a30.44,30.44,0,0,1-3-.8,18.52,18.52,0,0,1-7.5-4.27A12.08,12.08,0,0,1,833,970.8l1.27-5.14,6.58-26.49h-9.06L828.6,952c-1,4-1.15,5.66.47,9.44a3,3,0,0,1,.09.46l-4.72-2.5a10.59,10.59,0,0,1-5.6-12.19l7.81-31.52a.11.11,0,0,0,0-.08,9,9,0,0,0-1.63-7.82l3.22,1.43,1.43.64a11,11,0,0,1,6.22,12.69L834,930.14h9.05L847,914.26a8.44,8.44,0,0,0,.09-3.74,12.09,12.09,0,0,0-2.22-5.11,25.53,25.53,0,0,1,4,1.34C853.77,908.84,861.24,913.62,859.33,923.12Z"></path><path class="cls-17" d="M878.55,933.12l-1.12,4.49H887l-2.14,8.65h-9.53l-1.44,5.81h9.53l-2.14,8.63H862.45l2.16-8.63,1.43-5.81,2.15-8.65,1.11-4.49,1.35-5.44a4.23,4.23,0,0,1,2.42-2.85h0a4.32,4.32,0,0,1,1.66-.34h15.49l-2.14,8.63Z"></path><path class="cls-17" d="M956,933.12l-1.12,4.49h9.53l-2.14,8.65h-9.53l-1.44,5.81h9.53l-2.14,8.63H939.85l2.16-8.63,1.44-5.81,2.14-8.65,1.11-4.49,1.35-5.44a4.21,4.21,0,0,1,2.43-2.85h0a4.24,4.24,0,0,1,1.65-.34h15.49l-2.14,8.63Z"></path><polygon class="cls-17" points="941.67 924.49 939.86 931.88 933.19 931.88 932.88 933.12 931.76 937.61 926.04 960.7 916.78 960.7 918.94 952.07 920.38 946.26 922.52 937.61 923.63 933.12 923.94 931.88 917.09 931.88 918.64 925.65 918.92 924.49 941.67 924.49"></polygon><polygon class="cls-17" points="909.54 952.07 907.4 960.7 888.62 960.7 890.77 952.07 892.21 946.26 894.35 937.61 895.47 933.12 897.32 925.65 897.61 924.49 906.85 924.49 904.71 933.12 903.59 937.61 900.01 952.07 909.54 952.07"></polygon><path class="cls-17" d="M1000.09,926.61l-2.85,11.9a6.64,6.64,0,0,0-2.48-4.5c-3.53-2.66-9.28-1-12.88,3.76s-3.66,10.76-.14,13.41,9.28,1,12.87-3.76c.28-.38.54-.76.78-1.15l-3.29,13.78a14.52,14.52,0,0,1-12.88,1.71c-8.19-3.07-11.73-13.82-7.91-24C975,927.85,987.17,918.4,1000.09,926.61Z"></path><path class="cls-17" d="M867.15,978.11h-4l-1.05,1.94H858.4l7.26-11.72h3.89L871,980.05h-3.75Zm-.11-2.53-.23-4.22-2.31,4.22Z"></path><path class="cls-17" d="M882,968.33h3.57l-1.73,7a7,7,0,0,1-.81,2,5.85,5.85,0,0,1-1.4,1.62,5.71,5.71,0,0,1-1.67,1,8,8,0,0,1-2.6.39,14.87,14.87,0,0,1-1.82-.12,3.88,3.88,0,0,1-1.55-.48,3.11,3.11,0,0,1-1.4-2.36,7.23,7.23,0,0,1,.16-2l1.73-7h3.57l-1.77,7.15a1.74,1.74,0,0,0,.15,1.49,1.52,1.52,0,0,0,1.32.54,2.4,2.4,0,0,0,1.58-.53,2.65,2.65,0,0,0,.9-1.5Z"></path><path class="cls-17" d="M887.13,968.33H898l-.72,2.89h-3.65l-2.18,8.83h-3.58l2.19-8.83h-3.65Z"></path><path class="cls-17" d="M897.16,974.2a8.05,8.05,0,0,1,2.68-4.48,7.43,7.43,0,0,1,4.8-1.6c1.92,0,3.27.53,4.06,1.58s.93,2.51.47,4.4a9.13,9.13,0,0,1-1.52,3.37,7,7,0,0,1-2.48,2,7.66,7.66,0,0,1-3.4.73,6.34,6.34,0,0,1-3.08-.63,3.42,3.42,0,0,1-1.58-2A6.12,6.12,0,0,1,897.16,974.2Zm3.57,0a3.52,3.52,0,0,0,0,2.55,1.67,1.67,0,0,0,1.58.78,2.84,2.84,0,0,0,2-.76,5.59,5.59,0,0,0,1.3-2.73,3.26,3.26,0,0,0-.05-2.42,1.73,1.73,0,0,0-1.6-.76,2.8,2.8,0,0,0-1.93.77A5,5,0,0,0,900.73,974.21Z"></path><path class="cls-17" d="M912.48,968.33h4.7l.05,7.13,3.57-7.13h4.69l-2.9,11.72h-2.93l2.22-8.94-4.47,8.94h-2.66l0-8.94-2.22,8.94h-2.92Z"></path><path class="cls-17" d="M932.46,978.11H928.4l-1,1.94h-3.65L931,968.33h3.9l1.44,11.72h-3.74Zm-.11-2.53-.24-4.22-2.3,4.22Z"></path><path class="cls-17" d="M938.42,968.33h10.86l-.72,2.89h-3.64l-2.19,8.83h-3.57l2.18-8.83H937.7Z"></path><path class="cls-17" d="M951,968.33h3.58l-2.9,11.72h-3.59Z"></path><path class="cls-17" d="M955.28,974.2a8.07,8.07,0,0,1,2.69-4.48,7.4,7.4,0,0,1,4.79-1.6c1.93,0,3.28.53,4.06,1.58s.94,2.51.47,4.4a9,9,0,0,1-1.52,3.37,7,7,0,0,1-2.48,2,7.62,7.62,0,0,1-3.39.73,6.36,6.36,0,0,1-3.09-.63,3.45,3.45,0,0,1-1.58-2A6.22,6.22,0,0,1,955.28,974.2Zm3.57,0a3.63,3.63,0,0,0,0,2.55,1.68,1.68,0,0,0,1.58.78,2.81,2.81,0,0,0,2-.76,5.59,5.59,0,0,0,1.31-2.73,3.3,3.3,0,0,0-.06-2.42,1.72,1.72,0,0,0-1.6-.76,2.82,2.82,0,0,0-1.93.77A5.19,5.19,0,0,0,958.85,974.21Z"></path><path class="cls-17" d="M970.67,968.33H974l2.75,6.48,1.6-6.48h3.37l-2.9,11.72h-3.37l-2.74-6.44-1.59,6.44h-3.37Z"></path><path class="cls-17" d="M850.26,1023.56h20.07V1028H857.76v3.31h11.66v4.25H857.76v4.1H870.7v4.71H850.26Z"></path><path class="cls-17" d="M873.42,1037.49l7.13-.39a3.81,3.81,0,0,0,4.25,3.54,4.06,4.06,0,0,0,2.47-.65,1.85,1.85,0,0,0,.87-1.5,1.78,1.78,0,0,0-.83-1.44,10.48,10.48,0,0,0-3.83-1.21c-3.29-.63-5.63-1.48-7-2.53a4.81,4.81,0,0,1-2.12-4,4.88,4.88,0,0,1,1.09-3,7.1,7.1,0,0,1,3.25-2.25,17.64,17.64,0,0,1,6-.81q4.64,0,7.08,1.48a6.21,6.21,0,0,1,2.9,4.72l-7.06.35a3.12,3.12,0,0,0-1.18-2,4.21,4.21,0,0,0-2.49-.64,3.37,3.37,0,0,0-2,.48,1.39,1.39,0,0,0-.66,1.15,1.11,1.11,0,0,0,.55.9,6.9,6.9,0,0,0,2.51.77,35.05,35.05,0,0,1,7,1.83,7.16,7.16,0,0,1,3.09,2.31,5.19,5.19,0,0,1,1,3.08,6,6,0,0,1-1.29,3.69,7.85,7.85,0,0,1-3.61,2.56,16.51,16.51,0,0,1-5.84.88c-4.12,0-7-.69-8.56-2A7.58,7.58,0,0,1,873.42,1037.49Z"></path><path class="cls-17" d="M899.16,1023.56h12.45q4.07,0,6.09,1.66a5.78,5.78,0,0,1,2,4.73,6,6,0,0,1-2.21,4.92q-2.21,1.79-6.74,1.78h-4.1v7.72h-7.52Zm7.52,8.87h1.84a5.34,5.34,0,0,0,3-.64,2,2,0,0,0,.88-1.66,2.16,2.16,0,0,0-.77-1.66,4.42,4.42,0,0,0-2.86-.68h-2.13Z"></path><path class="cls-17" d="M929.09,1029.58l-6.37-1a6.89,6.89,0,0,1,3-4,12.22,12.22,0,0,1,6.39-1.39c3.17,0,5.45.5,6.87,1.52a4.53,4.53,0,0,1,2.11,3.81,3.85,3.85,0,0,1-.86,2.44,7.11,7.11,0,0,1-2.59,1.92,8.43,8.43,0,0,1,2.15.7,4.77,4.77,0,0,1,1.87,1.68,4.5,4.5,0,0,1,.67,2.49,6.18,6.18,0,0,1-1.11,3.48,7,7,0,0,1-3.19,2.57,13.76,13.76,0,0,1-5.47.91,16.45,16.45,0,0,1-5.22-.67,8,8,0,0,1-3.14-2,8.65,8.65,0,0,1-1.89-3.23l6.73-.77a4.17,4.17,0,0,0,1.23,2.42,3.24,3.24,0,0,0,2.12.67,3.14,3.14,0,0,0,2.26-.85,3,3,0,0,0,.9-2.27,2.89,2.89,0,0,0-.87-2.24,3.33,3.33,0,0,0-2.35-.79,9.69,9.69,0,0,0-2.19.34l.35-4.13c.38,0,.67.07.88.07a3.4,3.4,0,0,0,2.21-.73,2.15,2.15,0,0,0,.88-1.72,1.88,1.88,0,0,0-.66-1.51,2.7,2.7,0,0,0-1.82-.57,2.87,2.87,0,0,0-1.93.62A3.42,3.42,0,0,0,929.09,1029.58Z"></path><path class="cls-17" d="M964.86,1044.37H944.65a9.91,9.91,0,0,1,2.11-4.83,27,27,0,0,1,6.6-5.35,18.62,18.62,0,0,0,3.79-2.86,3,3,0,0,0,.83-1.86,2.06,2.06,0,0,0-.82-1.63,3.13,3.13,0,0,0-2.06-.67,3.17,3.17,0,0,0-2.11.69,4,4,0,0,0-1.1,2.46l-6.75-.47a8.35,8.35,0,0,1,1.46-3.81,6.65,6.65,0,0,1,3-2.1,15.53,15.53,0,0,1,5.34-.73,17.46,17.46,0,0,1,5.53.69,6.71,6.71,0,0,1,3.11,2.14,5.13,5.13,0,0,1,1.13,3.23,5.92,5.92,0,0,1-1.3,3.63,16.93,16.93,0,0,1-4.72,3.81c-1.36.8-2.26,1.36-2.72,1.68s-1,.75-1.61,1.27h10.52Z"></path><path class="cls-17" d="M985,1035.85l6.57,1.71a9.75,9.75,0,0,1-2.09,4,8.88,8.88,0,0,1-3.53,2.4,15.08,15.08,0,0,1-5.36.81,17.79,17.79,0,0,1-6.46-1,9.77,9.77,0,0,1-4.32-3.47,10.41,10.41,0,0,1-1.82-6.35c0-3.45,1.06-6.09,3.2-7.94s5.15-2.77,9.05-2.77a13.88,13.88,0,0,1,7.2,1.59,9.45,9.45,0,0,1,3.9,4.88l-6.62,1.26a4.4,4.4,0,0,0-.73-1.39,4.1,4.1,0,0,0-1.53-1.13,5,5,0,0,0-2-.4,4.63,4.63,0,0,0-3.9,1.76,6.62,6.62,0,0,0-1,4.09c0,2.31.41,3.89,1.23,4.75a4.55,4.55,0,0,0,3.44,1.28,4.6,4.6,0,0,0,3.25-1A6,6,0,0,0,985,1035.85Z"></path><path class="cls-17" d="M1000.61,1029.58l-6.37-1a6.89,6.89,0,0,1,3-4,12.22,12.22,0,0,1,6.39-1.39c3.17,0,5.46.5,6.87,1.52a4.53,4.53,0,0,1,2.11,3.81,3.79,3.79,0,0,1-.86,2.44,7.11,7.11,0,0,1-2.59,1.92,8.43,8.43,0,0,1,2.15.7,4.77,4.77,0,0,1,1.87,1.68,4.5,4.5,0,0,1,.67,2.49,6.18,6.18,0,0,1-1.11,3.48,7,7,0,0,1-3.19,2.57,13.76,13.76,0,0,1-5.47.91,16.49,16.49,0,0,1-5.22-.67,8,8,0,0,1-3.14-2,8.65,8.65,0,0,1-1.89-3.23l6.73-.77a4.17,4.17,0,0,0,1.23,2.42,3.26,3.26,0,0,0,2.12.67,3.14,3.14,0,0,0,2.26-.85,3,3,0,0,0,.9-2.27,2.89,2.89,0,0,0-.87-2.24,3.33,3.33,0,0,0-2.35-.79,9.54,9.54,0,0,0-2.18.34l.34-4.13c.38,0,.67.07.88.07a3.4,3.4,0,0,0,2.21-.73,2.15,2.15,0,0,0,.88-1.72,1.88,1.88,0,0,0-.66-1.51,2.7,2.7,0,0,0-1.82-.57,2.87,2.87,0,0,0-1.93.62A3.42,3.42,0,0,0,1000.61,1029.58Z"></path><path class="cls-17" d="M949.28,1107.63l7-.41a4.81,4.81,0,0,0,.92,2.46,3.93,3.93,0,0,0,3.22,1.37,3.66,3.66,0,0,0,2.41-.7,2.06,2.06,0,0,0,.85-1.62,2,2,0,0,0-.81-1.57,9.37,9.37,0,0,0-3.74-1.31c-3.2-.69-5.49-1.6-6.85-2.74a5.39,5.39,0,0,1-2.06-4.36,5.78,5.78,0,0,1,1.05-3.29,7,7,0,0,1,3.18-2.43,15.46,15.46,0,0,1,5.81-.88c3,0,5.32.53,6.91,1.61a6.86,6.86,0,0,1,2.83,5.11l-6.89.39a3.44,3.44,0,0,0-1.15-2.22,3.81,3.81,0,0,0-2.42-.69,3.05,3.05,0,0,0-1.92.51,1.58,1.58,0,0,0-.65,1.26,1.25,1.25,0,0,0,.53,1,6.22,6.22,0,0,0,2.46.83,32.28,32.28,0,0,1,6.86,2,7.15,7.15,0,0,1,3,2.51,6.1,6.1,0,0,1,.94,3.34,7,7,0,0,1-1.25,4,7.8,7.8,0,0,1-3.52,2.78,14.8,14.8,0,0,1-5.69.94c-4,0-6.8-.73-8.35-2.21A8.56,8.56,0,0,1,949.28,1107.63Z"></path><path class="cls-17" d="M972.79,1092.53h8l4.19,6.94,4.07-6.94h8l-7.35,10.93,8,11.64h-8.21l-4.67-7.25-4.67,7.25H972l8.16-11.76Z"></path><path class="cls-17" d="M1013.9,1092.15v22.95h-6.64v-15a20.61,20.61,0,0,1-3.12,1.89,25.59,25.59,0,0,1-3.78,1.39v-5.14a16.54,16.54,0,0,0,5.21-2.48,10.37,10.37,0,0,0,2.9-3.57Z"></path><path class="cls-17" d="M1040.26,1115.1h-19.7a11.45,11.45,0,0,1,2.06-5.24,27.06,27.06,0,0,1,6.44-5.8,18.83,18.83,0,0,0,3.69-3.11,3.39,3.39,0,0,0,.81-2,2.32,2.32,0,0,0-.8-1.76,3.14,3.14,0,0,0-4.06,0,4.49,4.49,0,0,0-1.08,2.66l-6.58-.51a9.84,9.84,0,0,1,1.42-4.13,6.57,6.57,0,0,1,2.91-2.28,13.75,13.75,0,0,1,5.2-.79,15.45,15.45,0,0,1,5.4.75,6.55,6.55,0,0,1,3,2.32,6,6,0,0,1,1.1,3.5,7,7,0,0,1-1.26,3.94,17.16,17.16,0,0,1-4.61,4.13c-1.32.87-2.2,1.48-2.65,1.83s-1,.8-1.57,1.37h10.25Z"></path><path class="cls-17" d="M1062.08,1097.61l-6.53.77a3.3,3.3,0,0,0-.86-1.85,2.22,2.22,0,0,0-1.49-.54,2.76,2.76,0,0,0-2.49,1.54,13.52,13.52,0,0,0-1,4.75,8.32,8.32,0,0,1,2.42-1.69,7.13,7.13,0,0,1,2.87-.55,7.43,7.43,0,0,1,7.53,7.62,7.76,7.76,0,0,1-1.11,4.08,7,7,0,0,1-3.06,2.8,11.28,11.28,0,0,1-4.91.94,12,12,0,0,1-5.69-1.15,8.29,8.29,0,0,1-3.43-3.69,15,15,0,0,1-1.28-6.7q0-6.12,2.69-9a9.79,9.79,0,0,1,7.47-2.84,12.79,12.79,0,0,1,4.46.62,6.91,6.91,0,0,1,2.72,1.82A8.18,8.18,0,0,1,1062.08,1097.61ZM1050,1107.66a4,4,0,0,0,1,2.87,3.1,3.1,0,0,0,2.37,1,2.81,2.81,0,0,0,2.16-.94,4,4,0,0,0,.88-2.8,4.23,4.23,0,0,0-.91-2.91,2.92,2.92,0,0,0-2.24-1,3.09,3.09,0,0,0-2.3,1A3.89,3.89,0,0,0,1050,1107.66Z"></path><path class="cls-17" d="M1084.31,1115.1h-19.7a11.45,11.45,0,0,1,2.06-5.24,27.06,27.06,0,0,1,6.44-5.8,18.83,18.83,0,0,0,3.69-3.11,3.39,3.39,0,0,0,.81-2,2.32,2.32,0,0,0-.8-1.76,3.15,3.15,0,0,0-4.07,0,4.49,4.49,0,0,0-1.07,2.66l-6.58-.51a9.84,9.84,0,0,1,1.42-4.13,6.57,6.57,0,0,1,2.91-2.28,13.75,13.75,0,0,1,5.2-.79,15.45,15.45,0,0,1,5.4.75,6.55,6.55,0,0,1,3,2.32,6,6,0,0,1,1.1,3.5,7,7,0,0,1-1.26,3.94,17.16,17.16,0,0,1-4.61,4.13c-1.32.87-2.2,1.48-2.65,1.83s-1,.8-1.57,1.37h10.25Z"></path><path class="cls-17" d="M974.53,1066.51h6v-5h5.09v5h6.07v4.21h-6.07v5h-5.09v-5h-6Z"></path><path d="M1059.93,1168.7a1.2,1.2,0,0,0,1-.46,1.81,1.81,0,0,0,.37-1.18,1.85,1.85,0,0,0-.39-1.23,1.3,1.3,0,0,0-2,0,2.08,2.08,0,0,0,0,2.41A1.3,1.3,0,0,0,1059.93,1168.7Z"></path><path d="M1059.87,1171.08a1.38,1.38,0,0,0-1.1.59,2.57,2.57,0,0,0-.47,1.61,2.48,2.48,0,0,0,.49,1.58,1.41,1.41,0,0,0,1.12.61,1.36,1.36,0,0,0,1.08-.62,2.46,2.46,0,0,0,.48-1.58,2.5,2.5,0,0,0-.48-1.58A1.4,1.4,0,0,0,1059.87,1171.08Z"></path><path d="M1071.46,1170.49a1.45,1.45,0,0,0-1.18.63,3,3,0,0,0-.47,1.79,3,3,0,0,0,.5,1.85,1.45,1.45,0,0,0,1.21.67,1.33,1.33,0,0,0,1.11-.61,3,3,0,0,0,.45-1.8,3.26,3.26,0,0,0-.46-1.88A1.4,1.4,0,0,0,1071.46,1170.49Z"></path><path d="M1082.55,1168.7a1.2,1.2,0,0,0,1-.46,1.81,1.81,0,0,0,.37-1.18,1.85,1.85,0,0,0-.39-1.23,1.3,1.3,0,0,0-2,0,1.8,1.8,0,0,0-.39,1.2,1.75,1.75,0,0,0,.4,1.21A1.3,1.3,0,0,0,1082.55,1168.7Z"></path><path d="M1082.5,1171.08a1.38,1.38,0,0,0-1.1.59,2.57,2.57,0,0,0-.47,1.61,2.43,2.43,0,0,0,.49,1.58,1.41,1.41,0,0,0,1.12.61,1.37,1.37,0,0,0,1.08-.62,2.84,2.84,0,0,0,0-3.16A1.41,1.41,0,0,0,1082.5,1171.08Z"></path><path d="M1083.31,1150.8H1029.4a12.13,12.13,0,0,0-12.13,12.13v14.82a12.14,12.14,0,0,0,12.13,12.14h53.91a12.14,12.14,0,0,0,12.13-12.14v-14.82A12.13,12.13,0,0,0,1083.31,1150.8Zm-44,26.9H1029.1v-14.56h10.06v3.11h-6.3v2.32h5.84v3h-5.84v2.87h6.48Zm13.66-5.88a8.7,8.7,0,0,1-.33,2.43,5.67,5.67,0,0,1-1.05,2,4.21,4.21,0,0,1-1.51,1.2,6.32,6.32,0,0,1-2.62.49,13.82,13.82,0,0,1-1.94-.15,4.41,4.41,0,0,1-1.75-.59,4.61,4.61,0,0,1-1.29-1.25,4.93,4.93,0,0,1-.79-1.68,9.94,9.94,0,0,1-.35-2.46v-8.68h3.74V1172a2.86,2.86,0,0,0,.55,1.87,1.89,1.89,0,0,0,1.53.66,1.86,1.86,0,0,0,1.52-.65,2.85,2.85,0,0,0,.55-1.88v-8.88H1053Zm11.44,3.66a4,4,0,0,1-1,1.47,4,4,0,0,1-1.52.76,7.5,7.5,0,0,1-1.93.24,6.29,6.29,0,0,1-3-.55,3.53,3.53,0,0,1-1.55-1.6,5.3,5.3,0,0,1-.53-2.38,4.41,4.41,0,0,1,.5-2.17,3.27,3.27,0,0,1,1.53-1.37,3.49,3.49,0,0,1-1.16-1.13,3.87,3.87,0,0,1-.5-2,3.66,3.66,0,0,1,1.44-3,4.55,4.55,0,0,1,3-.89,5,5,0,0,1,3.6,1.11,3.68,3.68,0,0,1,1.16,2.8,3.81,3.81,0,0,1-.46,1.84,4.2,4.2,0,0,1-1.09,1.23,3.6,3.6,0,0,1,1.47,1.5,4.43,4.43,0,0,1,.48,2.06A5,5,0,0,1,1064.44,1175.48Zm11.27.06a4.14,4.14,0,0,1-1.57,1.8,4.81,4.81,0,0,1-2.53.61,5.2,5.2,0,0,1-2.92-.74,5.08,5.08,0,0,1-1.76-2.38,11.76,11.76,0,0,1-.66-4.33q0-3.95,1.39-5.77a4.53,4.53,0,0,1,3.83-1.83,5.35,5.35,0,0,1,2.29.4,3.68,3.68,0,0,1,1.4,1.17,5.63,5.63,0,0,1,.84,2l-3.35.5a2.31,2.31,0,0,0-.45-1.19,1,1,0,0,0-.76-.35,1.41,1.41,0,0,0-1.28,1,10.78,10.78,0,0,0-.49,3.06,4.57,4.57,0,0,1,1.25-1.09,3,3,0,0,1,1.47-.35,3.38,3.38,0,0,1,2.74,1.39,5.43,5.43,0,0,1,1.13,3.53A6,6,0,0,1,1075.71,1175.54Zm11.36-.06a3.57,3.57,0,0,1-2.54,2.23,7.56,7.56,0,0,1-1.93.24,6.29,6.29,0,0,1-2.95-.55,3.53,3.53,0,0,1-1.55-1.6,5.17,5.17,0,0,1-.53-2.38,4.3,4.3,0,0,1,.5-2.17,3.27,3.27,0,0,1,1.53-1.37,3.49,3.49,0,0,1-1.16-1.13,3.87,3.87,0,0,1-.5-2,3.68,3.68,0,0,1,1.43-3,4.58,4.58,0,0,1,3-.89,5.07,5.07,0,0,1,3.6,1.11,3.68,3.68,0,0,1,1.16,2.8,3.81,3.81,0,0,1-.46,1.84,4.35,4.35,0,0,1-1.09,1.23,3.72,3.72,0,0,1,1.47,1.5,4.43,4.43,0,0,1,.48,2.06A5,5,0,0,1,1087.07,1175.48Z"></path><path class="cls-12" d="M505.25,842.08l-2.14.18a4.19,4.19,0,0,0-.9-2,2.81,2.81,0,0,0-2.07-.87,3.4,3.4,0,0,0-3,2,10.7,10.7,0,0,0-1,5.1,5.16,5.16,0,0,1,1.87-1.82,4.9,4.9,0,0,1,6,1,6,6,0,0,1,1.55,4.33,7.11,7.11,0,0,1-.78,3.33,5.06,5.06,0,0,1-4.7,2.92,5.45,5.45,0,0,1-4.37-2c-1.14-1.37-1.72-3.65-1.72-6.84,0-3.54.59-6.07,1.76-7.57a5.5,5.5,0,0,1,4.51-2.26,4.9,4.9,0,0,1,3.34,1.17A5.19,5.19,0,0,1,505.25,842.08ZM496.48,850a4.56,4.56,0,0,0,1.09,3.19,3.33,3.33,0,0,0,2.54,1.21,3,3,0,0,0,2.26-1.14,4.56,4.56,0,0,0,1-3.13,4.31,4.31,0,0,0-1-3A3.16,3.16,0,0,0,500,846a3.32,3.32,0,0,0-2.44,1.07A4,4,0,0,0,496.48,850Z"></path><path class="cls-12" d="M539.26,840v-2.16h11.32v1.75a26.22,26.22,0,0,0-4.46,7.35,27.48,27.48,0,0,0-2.21,9h-2.2a23.17,23.17,0,0,1,.85-5.37,28.92,28.92,0,0,1,2.21-5.84,24.8,24.8,0,0,1,3-4.72Z"></path><path class="cls-12" d="M589.81,846.9c0-3.08.49-5.41,1.45-7a5,5,0,0,1,8.23-.45q1.74,2.32,1.74,7.44,0,4.59-1.44,7a4.71,4.71,0,0,1-4.28,2.38,4.93,4.93,0,0,1-4.1-2.1C590.35,852.75,589.81,850.33,589.81,846.9Zm2.2,0c0,3,.34,5,1,6a3,3,0,0,0,2.57,1.52,2.88,2.88,0,0,0,2.46-1.54q1-1.54,1-6c0-3-.33-5-1-6a3,3,0,0,0-2.59-1.52,2.88,2.88,0,0,0-2.44,1.54Q592,842.47,592,846.89Z"></path><path class="cls-12" d="M641.41,855.94h-2.16V841.6a10.93,10.93,0,0,1-2,1.53,14.42,14.42,0,0,1-2.3,1.18v-2.18a12.89,12.89,0,0,0,3.13-2.13,8.13,8.13,0,0,0,1.92-2.47h1.4Z"></path><path class="cls-12" d="M687.26,846a4.12,4.12,0,0,1-2-1.43,3.9,3.9,0,0,1-.66-2.32,4.39,4.39,0,0,1,1.43-3.39,5.56,5.56,0,0,1,7.22,0,4.46,4.46,0,0,1,1.45,3.45,3.87,3.87,0,0,1-.64,2.24,4.17,4.17,0,0,1-1.94,1.43,4.77,4.77,0,0,1,2.44,1.74,5,5,0,0,1,.85,3,5.22,5.22,0,0,1-1.65,4,6.22,6.22,0,0,1-8.22,0,5.3,5.3,0,0,1-1.65-4.06,5,5,0,0,1,.88-3A4.32,4.32,0,0,1,687.26,846Zm-1.12,4.66a3.65,3.65,0,0,0,1.05,2.72,3.54,3.54,0,0,0,6.07-2.65A3.62,3.62,0,0,0,692.2,848a3.54,3.54,0,0,0-2.54-1,3.4,3.4,0,0,0-2.5,1A3.58,3.58,0,0,0,686.14,850.65Zm.71-8.47a2.83,2.83,0,0,0,.83,2.14,3,3,0,0,0,4,0,2.71,2.71,0,0,0,.83-2,2.87,2.87,0,0,0-4.86-2.12A2.64,2.64,0,0,0,686.85,842.18Z"></path><path class="cls-12" d="M731.08,854.25h-2.16V839.91a10.93,10.93,0,0,1-2,1.53,14.07,14.07,0,0,1-2.31,1.18v-2.17a13.08,13.08,0,0,0,3.14-2.14,8.11,8.11,0,0,0,1.92-2.46h1.4Z"></path><path class="cls-12" d="M736.9,850l2.07-.2c.33,1.93,1.3,2.9,2.91,2.9a3.27,3.27,0,0,0,2-.63,4.75,4.75,0,0,0,1.5-2.25,10.7,10.7,0,0,0,.61-3.76v-.45a4.93,4.93,0,0,1-1.81,1.76,4.57,4.57,0,0,1-2.31.66,5,5,0,0,1-3.7-1.61,6.09,6.09,0,0,1-1.55-4.4,6.26,6.26,0,0,1,1.61-4.53,5.26,5.26,0,0,1,3.91-1.65,5.43,5.43,0,0,1,3,.92,6,6,0,0,1,2.18,2.73,13.54,13.54,0,0,1,.77,5.18,16.29,16.29,0,0,1-.83,5.87A6.35,6.35,0,0,1,745,853.6a5.52,5.52,0,0,1-3.18,1,4.87,4.87,0,0,1-3.33-1.17A5.07,5.07,0,0,1,736.9,850Zm8.81-8.1a4.43,4.43,0,0,0-1-3.09,3.08,3.08,0,0,0-2.35-1.12,3.26,3.26,0,0,0-2.47,1.2,4.57,4.57,0,0,0-1.09,3.2,4,4,0,0,0,1,2.88,3.35,3.35,0,0,0,2.48,1.07,3.16,3.16,0,0,0,2.42-1.08A4.37,4.37,0,0,0,745.71,841.91Z"></path><path class="cls-12" d="M907.26,855.94H905.1V841.6a10.93,10.93,0,0,1-2,1.53,14,14,0,0,1-2.3,1.18v-2.18a12.89,12.89,0,0,0,3.13-2.13,8.13,8.13,0,0,0,1.92-2.47h1.4Z"></path><path class="cls-12" d="M916.08,846a4.09,4.09,0,0,1-1.94-1.43,3.9,3.9,0,0,1-.66-2.32,4.35,4.35,0,0,1,1.43-3.39,5.08,5.08,0,0,1,3.59-1.32,5.17,5.17,0,0,1,3.63,1.34,4.49,4.49,0,0,1,1.44,3.45,3.79,3.79,0,0,1-.64,2.24A4.12,4.12,0,0,1,921,846a4.77,4.77,0,0,1,2.44,1.74,5,5,0,0,1,.85,3,5.22,5.22,0,0,1-1.65,4,6.21,6.21,0,0,1-8.21,0,5.27,5.27,0,0,1-1.66-4.06,5,5,0,0,1,.89-3A4.26,4.26,0,0,1,916.08,846ZM915,850.65a3.62,3.62,0,0,0,1.06,2.72,3.62,3.62,0,0,0,5,0,3.56,3.56,0,0,0,1-2.68A3.63,3.63,0,0,0,921,848a3.53,3.53,0,0,0-2.54-1,3.36,3.36,0,0,0-2.49,1A3.59,3.59,0,0,0,915,850.65Zm.72-8.47a2.89,2.89,0,0,0,4.86,2.16,2.68,2.68,0,0,0,.83-2,2.79,2.79,0,0,0-.85-2.1,2.84,2.84,0,0,0-2-.82,2.8,2.8,0,0,0-2,.8A2.67,2.67,0,0,0,915.68,842.18Z"></path><path class="cls-12" d="M996.78,851.7l2.07-.2c.33,1.93,1.3,2.9,2.91,2.9a3.3,3.3,0,0,0,2-.63,4.67,4.67,0,0,0,1.49-2.25,10.51,10.51,0,0,0,.62-3.76v-.45a4.93,4.93,0,0,1-1.81,1.76,4.56,4.56,0,0,1-2.32.65,5,5,0,0,1-3.69-1.6,6.09,6.09,0,0,1-1.55-4.4,6.24,6.24,0,0,1,1.61-4.53,5.23,5.23,0,0,1,3.91-1.66,5.41,5.41,0,0,1,3,.93,5.89,5.89,0,0,1,2.19,2.72,13.76,13.76,0,0,1,.77,5.19,16.46,16.46,0,0,1-.83,5.86,6.39,6.39,0,0,1-2.25,3.06,5.57,5.57,0,0,1-3.18,1,4.91,4.91,0,0,1-3.34-1.17A5.13,5.13,0,0,1,996.78,851.7Zm8.81-8.1a4.43,4.43,0,0,0-1-3.09,3.09,3.09,0,0,0-2.35-1.13,3.26,3.26,0,0,0-2.47,1.2,4.59,4.59,0,0,0-1.09,3.21,4,4,0,0,0,1,2.87,3.29,3.29,0,0,0,2.48,1.07,3.15,3.15,0,0,0,2.42-1.07A4.37,4.37,0,0,0,1005.59,843.6Z"></path><path class="cls-12" d="M1049.43,851.14l2.26-.2a4.31,4.31,0,0,0,1.19,2.6,3.07,3.07,0,0,0,2.15.86,3.47,3.47,0,0,0,2.63-1.21,4.69,4.69,0,0,0,1.11-3.3,4.17,4.17,0,0,0-1.07-3,3.62,3.62,0,0,0-2.69-1.08,3.78,3.78,0,0,0-1.83.47,3.51,3.51,0,0,0-1.34,1.31l-2-.28,1.71-9.41h8.69V840h-7l-.93,4.93a5.46,5.46,0,0,1,3.3-1.16,5.29,5.29,0,0,1,3.83,1.61,5.84,5.84,0,0,1,1.62,4.34,6.92,6.92,0,0,1-1.62,4.61,5.43,5.43,0,0,1-4.36,1.92,5.62,5.62,0,0,1-3.84-1.36A5.37,5.37,0,0,1,1049.43,851.14Z"></path><path class="cls-12" d="M1103.6,855.94v-4.39H1096v-2.07l8-11.87h1.76v11.87h2.38v2.07h-2.38v4.39Zm0-6.46v-8.26l-5.47,8.26Z"></path><path class="cls-12" d="M1369.4,855.94h-2.16V841.6a10.93,10.93,0,0,1-2,1.53,14,14,0,0,1-2.3,1.18v-2.18a13.15,13.15,0,0,0,3.14-2.13,8.09,8.09,0,0,0,1.91-2.47h1.4Z"></path><path class="cls-12" d="M1374.91,846.9q0-4.62,1.44-7a5,5,0,0,1,8.23-.45q1.74,2.32,1.74,7.44,0,4.59-1.44,7a4.71,4.71,0,0,1-4.28,2.38,4.93,4.93,0,0,1-4.1-2.1Q1374.91,852.05,1374.91,846.9Zm2.2,0c0,3,.33,5,1,6a3,3,0,0,0,2.57,1.52,2.88,2.88,0,0,0,2.46-1.54c.66-1,1-3,1-6s-.34-5-1-6a3,3,0,0,0-2.59-1.52,2.88,2.88,0,0,0-2.44,1.54C1377.43,842,1377.11,843.94,1377.11,846.89Z"></path><path class="cls-12" d="M549.67,1269v2.16H538.09a5.5,5.5,0,0,1,.93-2.94,17.2,17.2,0,0,1,3.55-3.84,22.92,22.92,0,0,0,3.94-4,4.83,4.83,0,0,0,.93-2.62,3,3,0,0,0-1-2.29,3.37,3.37,0,0,0-2.35-.88,3.33,3.33,0,0,0-2.46,1,3.67,3.67,0,0,0-1,2.73l-2.21-.24a5.26,5.26,0,0,1,5.71-5.3,5,5,0,0,1,5.43,5.08,6,6,0,0,1-1.07,3.35,25.84,25.84,0,0,1-4.1,4.28c-1.28,1.13-2.11,1.9-2.48,2.31a6.55,6.55,0,0,0-.91,1.22Z"></path><path class="cls-12" d="M588.28,1266.3l2.15-.3c.44,2.41,1.58,3.62,3.4,3.62a3.52,3.52,0,0,0,2.55-1.07,3.75,3.75,0,0,0,1.08-2.78,3.46,3.46,0,0,0-1-2.58,3.33,3.33,0,0,0-2.43-1,5.8,5.8,0,0,0-1.52.25l.25-2,.34,0a3.85,3.85,0,0,0,2.58-.84,2.75,2.75,0,0,0,1-2.23,2.72,2.72,0,0,0-.83-2.07,2.88,2.88,0,0,0-2-.78,3,3,0,0,0-2.1.82,4.18,4.18,0,0,0-1.09,2.48l-2.14-.4a5.74,5.74,0,0,1,1.84-3.55,5.53,5.53,0,0,1,7.06.15,4.4,4.4,0,0,1,1.49,3.4,3.94,3.94,0,0,1-.63,2.21,4.27,4.27,0,0,1-1.76,1.51,3.89,3.89,0,0,1,2.83,2.36,5.75,5.75,0,0,1-1.32,6.28,5.88,5.88,0,0,1-4.15,1.61,5.51,5.51,0,0,1-3.8-1.4A5.57,5.57,0,0,1,588.28,1266.3Z"></path><path class="cls-12" d="M1215.31,1265.93v-16.17h-5.77v-2.16h13.88v2.16h-5.8v16.17Z"></path><path class="cls-12" d="M1224,1265.93l6.78-9.56-6-8.77h2.75l3.2,4.7a19.52,19.52,0,0,1,1.39,2.26,21.56,21.56,0,0,1,1.39-2.09l3.54-4.87h2.5l-6.14,8.62,6.62,9.71h-2.86l-4.42-6.54c-.24-.36-.49-.77-.74-1.23-.4.67-.69,1.13-.86,1.38l-4.39,6.39Z"></path><path class="cls-12" d="M1249.24,1265.93v-2.56h2.45v2.56Z"></path><path class="cls-12" d="M1262.47,1265.93V1247.6h7.76a9.44,9.44,0,0,1,3.59.51,4.21,4.21,0,0,1,1.9,1.71,5.08,5.08,0,0,1,.74,2.77,4.64,4.64,0,0,1-1.25,3.36,6.27,6.27,0,0,1-3.67,1.63,6.17,6.17,0,0,1,1.49,1,13.09,13.09,0,0,1,1.82,2.34l3.06,5H1275l-2.33-3.81a24.58,24.58,0,0,0-2.05-3,4,4,0,0,0-1.34-1,4.82,4.82,0,0,0-1.81-.27h-2.68v8.14Zm2.31-10.24h5a6.87,6.87,0,0,0,2.48-.34,2.87,2.87,0,0,0,1.34-1.06,2.93,2.93,0,0,0,.5-1.69,2.71,2.71,0,0,0-.95-2.18,4.28,4.28,0,0,0-2.81-.79h-5.54Z"></path><path class="cls-12" d="M1278.36,1265.93l6.78-9.56-6-8.77h2.75l3.2,4.7a19.52,19.52,0,0,1,1.39,2.26,21.56,21.56,0,0,1,1.39-2.09l3.54-4.87h2.5l-6.14,8.62,6.62,9.71h-2.86l-4.42-6.54c-.24-.36-.49-.77-.74-1.23-.4.67-.69,1.13-.86,1.38l-4.39,6.39Z"></path></g></svg>