<svg id="Layer_1" xmlns="http://www.w3.org/2000/svg" viewBox="0 0 641.63 268.74"><defs><style>.cls-1,.cls-2,.cls-3,.cls-4,.cls-5,.cls-6,.cls-7,.cls-8,.cls-9,.cls-10,.cls-11,.cls-12,.cls-13,.cls-14,.cls-15,.cls-16{stroke-linecap:round;stroke-linejoin:round;}.cls-1,.cls-2,.cls-3,.cls-4,.cls-9,.cls-10,.cls-17,.cls-18,.cls-14,.cls-15,.cls-16,.cls-19{fill-rule:evenodd;}.cls-1,.cls-2,.cls-4,.cls-5,.cls-6,.cls-7,.cls-8,.cls-9,.cls-11,.cls-14,.cls-15{stroke-width:1px;}.cls-1,.cls-3,.cls-4,.cls-5,.cls-6,.cls-7,.cls-8,.cls-9,.cls-14,.cls-15,.cls-16{stroke:#000;}.cls-1,.cls-3,.cls-11,.cls-12,.cls-13,.cls-16{fill:none;}.cls-2{fill:#c18b30;}.cls-2,.cls-10{stroke:#c18b30;}.cls-3,.cls-10{stroke-width:1.5px;}.cls-5,.cls-9,.cls-18,.cls-20{fill:#ccc;}.cls-6,.cls-17,.cls-15,.cls-21{fill:gray;}.cls-7,.cls-10{fill:#fbf8f2;}.cls-11,.cls-12{stroke:gray;}.cls-12,.cls-13{stroke-width:.5px;}.cls-13{stroke:#ccc;}.cls-17,.cls-18,.cls-22,.cls-21,.cls-23,.cls-20,.cls-24,.cls-25,.cls-19{stroke-width:0px;}.cls-14,.cls-23{fill:#242424;}.cls-24{fill:#fff;}.cls-25{fill:#e5ed93;}.cls-16{stroke-width:2px;}</style></defs><path class="cls-14" d="M.5,10.38h624.67c8.78,0,15.96,7.18,15.96,15.96v216.05c0,8.78-7.18,15.96-15.96,15.96H.5V10.38Z"></path><polygon class="cls-9" points="575.62 59 635.61 59 635.61 212.55 575.62 212.55 575.62 150.13 607.73 150.13 617.24 150.13 617.24 140.62 617.24 78.62 617.24 78.62 617.24 73.87 612.49 73.87 607.73 73.87 588.5 73.87 588.5 83.37 607.73 83.37 607.73 140.62 575.62 140.62 575.62 59"></polygon><path class="cls-17" d="M641.14,44.85v2.15h-79.77s-.05.01-.06.03c-.02.02-.03.04-.03.06v174.56s.01.05.03.06c.02.02.04.03.06.03h79.77v2.15h-79.77c-.62,0-1.18-.25-1.58-.66-.41-.41-.66-.97-.66-1.58V47.09c0-.62.25-1.18.66-1.58.41-.41.97-.66,1.58-.66h79.77Z"></path><polygon class="cls-9" points="150.17 205.59 509.59 205.59 509.59 168.41 546.04 168.41 546.04 56.91 189.07 56.91 189.07 98.7 150.17 98.7 150.17 205.59"></polygon><circle class="cls-5" cx="608.94" cy="23.49" r="7.84"></circle><path class="cls-15" d="M608.94,26.94c1.9,0,3.45-1.55,3.45-3.45s-1.55-3.45-3.45-3.45-3.45,1.55-3.45,3.45,1.55,3.45,3.45,3.45Z"></path><circle class="cls-5" cx="581.04" cy="23.49" r="7.84"></circle><path class="cls-15" d="M581.04,26.94c1.9,0,3.45-1.55,3.45-3.45s-1.55-3.45-3.45-3.45-3.45,1.55-3.45,3.45,1.55,3.45,3.45,3.45Z"></path><path class="cls-9" d="M553.14,31.33c4.32,0,7.84-3.52,7.84-7.84s-3.52-7.84-7.84-7.84-7.84,3.52-7.84,7.84,3.52,7.84,7.84,7.84Z"></path><path class="cls-15" d="M553.14,26.94c1.9,0,3.45-1.55,3.45-3.45s-1.55-3.45-3.45-3.45-3.45,1.55-3.45,3.45,1.55,3.45,3.45,3.45Z"></path><circle class="cls-5" cx="525.23" cy="23.49" r="7.84" transform="translate(8.73 121.71) rotate(-13.33)"></circle><path class="cls-15" d="M525.23,26.94c1.9,0,3.45-1.55,3.45-3.45s-1.55-3.45-3.45-3.45-3.45,1.55-3.45,3.45,1.55,3.45,3.45,3.45Z"></path><circle class="cls-5" cx="497.33" cy="23.49" r="7.84" transform="translate(7.98 115.28) rotate(-13.33)"></circle><path class="cls-15" d="M497.33,26.94c1.9,0,3.45-1.55,3.45-3.45s-1.55-3.45-3.45-3.45-3.45,1.55-3.45,3.45,1.55,3.45,3.45,3.45Z"></path><circle class="cls-5" cx="469.43" cy="23.49" r="7.84" transform="translate(7.23 108.85) rotate(-13.33)"></circle><path class="cls-15" d="M469.43,26.94c1.9,0,3.45-1.55,3.45-3.45s-1.55-3.45-3.45-3.45-3.45,1.55-3.45,3.45,1.55,3.45,3.45,3.45Z"></path><circle class="cls-5" cx="441.53" cy="23.49" r="7.84" transform="translate(112.71 319.09) rotate(-45)"></circle><path class="cls-15" d="M441.53,26.94c1.9,0,3.45-1.55,3.45-3.45s-1.55-3.45-3.45-3.45-3.45,1.55-3.45,3.45,1.55,3.45,3.45,3.45Z"></path><path class="cls-9" d="M413.63,31.33c4.32,0,7.84-3.52,7.84-7.84s-3.52-7.84-7.84-7.84-7.84,3.52-7.84,7.84,3.52,7.84,7.84,7.84Z"></path><path class="cls-15" d="M413.63,26.94c1.9,0,3.45-1.55,3.45-3.45s-1.55-3.45-3.45-3.45-3.45,1.55-3.45,3.45,1.55,3.45,3.45,3.45Z"></path><circle class="cls-5" cx="385.72" cy="23.49" r="7.84" transform="translate(96.37 279.63) rotate(-45)"></circle><path class="cls-15" d="M385.72,26.94c1.9,0,3.45-1.55,3.45-3.45s-1.55-3.45-3.45-3.45-3.45,1.55-3.45,3.45,1.55,3.45,3.45,3.45Z"></path><circle class="cls-5" cx="357.82" cy="23.49" r="7.84"></circle><path class="cls-15" d="M357.82,26.94c1.9,0,3.45-1.55,3.45-3.45s-1.55-3.45-3.45-3.45-3.45,1.55-3.45,3.45,1.55,3.45,3.45,3.45Z"></path><circle class="cls-5" cx="329.92" cy="23.49" r="7.84"></circle><path class="cls-15" d="M329.92,26.94c1.9,0,3.45-1.55,3.45-3.45s-1.55-3.45-3.45-3.45-3.45,1.55-3.45,3.45,1.55,3.45,3.45,3.45Z"></path><circle class="cls-5" cx="302.02" cy="23.49" r="7.84" transform="translate(71.85 220.44) rotate(-45)"></circle><path class="cls-15" d="M302.02,26.94c1.9,0,3.45-1.55,3.45-3.45s-1.55-3.45-3.45-3.45-3.45,1.55-3.45,3.45,1.55,3.45,3.45,3.45Z"></path><path class="cls-9" d="M274.12,31.33c4.32,0,7.84-3.52,7.84-7.84s-3.52-7.84-7.84-7.84-7.84,3.52-7.84,7.84,3.52,7.84,7.84,7.84Z"></path><path class="cls-15" d="M274.12,26.94c1.9,0,3.45-1.55,3.45-3.45s-1.55-3.45-3.45-3.45-3.45,1.55-3.45,3.45,1.55,3.45,3.45,3.45Z"></path><circle class="cls-5" cx="246.22" cy="23.49" r="7.84"></circle><path class="cls-15" d="M246.22,26.94c1.9,0,3.45-1.55,3.45-3.45s-1.55-3.45-3.45-3.45-3.45,1.55-3.45,3.45,1.55,3.45,3.45,3.45Z"></path><circle class="cls-5" cx="218.31" cy="23.49" r="7.84"></circle><path class="cls-15" d="M218.31,26.94c1.9,0,3.45-1.55,3.45-3.45s-1.55-3.45-3.45-3.45-3.45,1.55-3.45,3.45,1.55,3.45,3.45,3.45Z"></path><circle class="cls-5" cx="190.41" cy="23.49" r="7.84"></circle><path class="cls-15" d="M190.41,26.94c1.9,0,3.45-1.55,3.45-3.45s-1.55-3.45-3.45-3.45-3.45,1.55-3.45,3.45,1.55,3.45,3.45,3.45Z"></path><circle class="cls-5" cx="162.51" cy="23.49" r="7.84" transform="translate(-1.04 38.1) rotate(-13.33)"></circle><path class="cls-15" d="M162.51,26.94c1.9,0,3.45-1.55,3.45-3.45s-1.55-3.45-3.45-3.45-3.45,1.55-3.45,3.45,1.55,3.45,3.45,3.45Z"></path><path class="cls-9" d="M134.61,31.33c4.32,0,7.84-3.52,7.84-7.84s-3.52-7.84-7.84-7.84-7.84,3.52-7.84,7.84,3.52,7.84,7.84,7.84Z"></path><path class="cls-15" d="M134.61,26.94c1.9,0,3.45-1.55,3.45-3.45s-1.55-3.45-3.45-3.45-3.45,1.55-3.45,3.45,1.55,3.45,3.45,3.45Z"></path><circle class="cls-5" cx="106.71" cy="23.49" r="7.84" transform="translate(-2.54 25.23) rotate(-13.33)"></circle><path class="cls-15" d="M106.71,26.94c1.9,0,3.45-1.55,3.45-3.45s-1.55-3.45-3.45-3.45-3.45,1.55-3.45,3.45,1.55,3.45,3.45,3.45Z"></path><circle class="cls-5" cx="78.8" cy="23.49" r="7.84" transform="translate(6.47 62.6) rotate(-45)"></circle><path class="cls-15" d="M78.8,26.94c1.9,0,3.45-1.55,3.45-3.45s-1.55-3.45-3.45-3.45-3.45,1.55-3.45,3.45,1.55,3.45,3.45,3.45Z"></path><circle class="cls-5" cx="608.94" cy="245.25" r="7.84"></circle><path class="cls-15" d="M608.94,248.7c1.9,0,3.45-1.55,3.45-3.45s-1.55-3.45-3.45-3.45-3.45,1.55-3.45,3.45,1.55,3.45,3.45,3.45Z"></path><circle class="cls-5" cx="581.04" cy="245.25" r="7.84"></circle><path class="cls-15" d="M581.04,248.7c1.9,0,3.45-1.55,3.45-3.45s-1.55-3.45-3.45-3.45-3.45,1.55-3.45,3.45,1.55,3.45,3.45,3.45Z"></path><path class="cls-9" d="M553.14,253.1c4.32,0,7.84-3.52,7.84-7.84s-3.52-7.84-7.84-7.84-7.84,3.52-7.84,7.84,3.52,7.84,7.84,7.84Z"></path><path class="cls-15" d="M553.14,248.7c1.9,0,3.45-1.55,3.45-3.45s-1.55-3.45-3.45-3.45-3.45,1.55-3.45,3.45,1.55,3.45,3.45,3.45Z"></path><circle class="cls-5" cx="525.23" cy="245.25" r="7.84" transform="translate(-19.58 443.23) rotate(-45)"></circle><path class="cls-15" d="M525.23,248.7c1.9,0,3.45-1.55,3.45-3.45s-1.55-3.45-3.45-3.45-3.45,1.55-3.45,3.45,1.55,3.45,3.45,3.45Z"></path><circle class="cls-5" cx="497.33" cy="245.25" r="7.84" transform="translate(-27.76 423.5) rotate(-45)"></circle><path class="cls-15" d="M497.33,248.7c1.9,0,3.45-1.55,3.45-3.45s-1.55-3.45-3.45-3.45-3.45,1.55-3.45,3.45,1.55,3.45,3.45,3.45Z"></path><circle class="cls-5" cx="469.43" cy="245.25" r="7.84" transform="translate(-35.93 403.77) rotate(-45)"></circle><path class="cls-15" d="M469.43,248.7c1.9,0,3.45-1.55,3.45-3.45s-1.55-3.45-3.45-3.45-3.45,1.55-3.45,3.45,1.55,3.45,3.45,3.45Z"></path><circle class="cls-5" cx="441.53" cy="245.25" r="7.84" transform="translate(-44.43 107.62) rotate(-13.24)"></circle><path class="cls-15" d="M441.53,248.7c1.9,0,3.45-1.55,3.45-3.45s-1.55-3.45-3.45-3.45-3.45,1.55-3.45,3.45,1.55,3.45,3.45,3.45Z"></path><path class="cls-9" d="M413.63,253.1c4.32,0,7.84-3.52,7.84-7.84s-3.52-7.84-7.84-7.84-7.84,3.52-7.84,7.84,3.52,7.84,7.84,7.84Z"></path><path class="cls-15" d="M413.63,248.7c1.9,0,3.45-1.55,3.45-3.45s-1.55-3.45-3.45-3.45-3.45,1.55-3.45,3.45,1.55,3.45,3.45,3.45Z"></path><circle class="cls-5" cx="385.72" cy="245.25" r="7.84" transform="translate(-45.91 94.84) rotate(-13.24)"></circle><path class="cls-15" d="M385.72,248.7c1.9,0,3.45-1.55,3.45-3.45s-1.55-3.45-3.45-3.45-3.45,1.55-3.45,3.45,1.55,3.45,3.45,3.45Z"></path><circle class="cls-5" cx="357.82" cy="245.25" r="7.84"></circle><path class="cls-15" d="M357.82,248.7c1.9,0,3.45-1.55,3.45-3.45s-1.55-3.45-3.45-3.45-3.45,1.55-3.45,3.45,1.55,3.45,3.45,3.45Z"></path><circle class="cls-5" cx="329.92" cy="245.25" r="7.84"></circle><path class="cls-15" d="M329.92,248.7c1.9,0,3.45-1.55,3.45-3.45s-1.55-3.45-3.45-3.45-3.45,1.55-3.45,3.45,1.55,3.45,3.45,3.45Z"></path><circle class="cls-5" cx="302.02" cy="245.25" r="7.84" transform="translate(-48.13 75.67) rotate(-13.24)"></circle><path class="cls-15" d="M302.02,248.7c1.9,0,3.45-1.55,3.45-3.45s-1.55-3.45-3.45-3.45-3.45,1.55-3.45,3.45,1.55,3.45,3.45,3.45Z"></path><path class="cls-9" d="M274.12,253.1c4.32,0,7.84-3.52,7.84-7.84s-3.52-7.84-7.84-7.84-7.84,3.52-7.84,7.84,3.52,7.84,7.84,7.84Z"></path><path class="cls-15" d="M274.12,248.7c1.9,0,3.45-1.55,3.45-3.45s-1.55-3.45-3.45-3.45-3.45,1.55-3.45,3.45,1.55,3.45,3.45,3.45Z"></path><circle class="cls-5" cx="246.22" cy="245.25" r="7.84"></circle><path class="cls-15" d="M246.22,248.7c1.9,0,3.45-1.55,3.45-3.45s-1.55-3.45-3.45-3.45-3.45,1.55-3.45,3.45,1.55,3.45,3.45,3.45Z"></path><circle class="cls-5" cx="218.31" cy="245.25" r="7.84"></circle><path class="cls-15" d="M218.31,248.7c1.9,0,3.45-1.55,3.45-3.45s-1.55-3.45-3.45-3.45-3.45,1.55-3.45,3.45,1.55,3.45,3.45,3.45Z"></path><circle class="cls-5" cx="190.41" cy="245.25" r="7.84"></circle><path class="cls-15" d="M190.41,248.7c1.9,0,3.45-1.55,3.45-3.45s-1.55-3.45-3.45-3.45-3.45,1.55-3.45,3.45,1.55,3.45,3.45,3.45Z"></path><circle class="cls-5" cx="162.51" cy="245.25" r="7.84" transform="translate(-125.82 186.75) rotate(-45)"></circle><path class="cls-15" d="M162.51,248.7c1.9,0,3.45-1.55,3.45-3.45s-1.55-3.45-3.45-3.45-3.45,1.55-3.45,3.45,1.55,3.45,3.45,3.45Z"></path><path class="cls-9" d="M134.61,253.1c4.32,0,7.84-3.52,7.84-7.84s-3.52-7.84-7.84-7.84-7.84,3.52-7.84,7.84,3.52,7.84,7.84,7.84Z"></path><path class="cls-15" d="M134.61,248.7c1.9,0,3.45-1.55,3.45-3.45s-1.55-3.45-3.45-3.45-3.45,1.55-3.45,3.45,1.55,3.45,3.45,3.45Z"></path><circle class="cls-5" cx="106.71" cy="245.25" r="7.84" transform="translate(-142.17 147.29) rotate(-45)"></circle><path class="cls-15" d="M106.71,248.7c1.9,0,3.45-1.55,3.45-3.45s-1.55-3.45-3.45-3.45-3.45,1.55-3.45,3.45,1.55,3.45,3.45,3.45Z"></path><circle class="cls-5" cx="78.8" cy="245.25" r="7.84" transform="translate(-54.07 24.56) rotate(-13.24)"></circle><path class="cls-15" d="M78.8,248.7c1.9,0,3.45-1.55,3.45-3.45s-1.55-3.45-3.45-3.45-3.45,1.55-3.45,3.45,1.55,3.45,3.45,3.45Z"></path><rect class="cls-5" x=".74" y="10.38" width="48.68" height="25.31"></rect><rect class="cls-6" x="3.93" y="35.69" width="8.62" height="9.25"></rect><rect class="cls-6" x="37.6" y="35.69" width="8.62" height="9.25"></rect><path class="cls-4" d="M14.56,10.38h21.04V1.05c0-.3-.25-.55-.55-.55H15.11c-.3,0-.55.25-.55.55v9.33Z"></path><path class="cls-9" d="M.51,258.36h47.26c.78,0,1.41-.64,1.41-1.41v-22.49c0-.78-.64-1.41-1.41-1.41H1.93c-.78,0-1.41.64-1.41,1.41v23.9Z"></path><rect class="cls-6" x="3.71" y="223.8" width="8.62" height="9.25"></rect><rect class="cls-6" x="37.38" y="223.8" width="8.62" height="9.25"></rect><path class="cls-4" d="M14.33,258.36h21.04v9.33c0,.3-.25.55-.55.55H14.89c-.3,0-.55-.25-.55-.55v-9.33Z"></path><rect class="cls-5" x="515.85" y="202.78" width="37.9" height="12.94" rx=".86" ry=".86"></rect><path class="cls-7" d="M521.77,195.7h26.07c.99,0,1.8.8,1.8,1.8v23.51c0,.99-.8,1.8-1.8,1.8h-26.07c-.99,0-1.8-.8-1.8-1.8v-23.51c0-.99.8-1.8,1.8-1.8Z"></path><path class="cls-10" d="M534.8,219.76c5.79,0,10.52-4.72,10.52-10.52s-4.72-10.52-10.52-10.52-10.52,4.72-10.52,10.52,4.72,10.52,10.52,10.52Z"></path><path class="cls-2" d="M534.8,212.1c1.57,0,2.85-1.28,2.85-2.85s-1.28-2.85-2.85-2.85-2.85,1.28-2.85,2.85,1.28,2.85,2.85,2.85Z"></path><rect class="cls-6" x="539.6" y="168.41" width="6.44" height="9.26"></rect><rect class="cls-6" x="282.91" y="205.59" width="27.02" height="9.77"></rect><rect class="cls-6" x="213.5" y="205.59" width="37.99" height="9.77"></rect><polygon class="cls-15" points="140.82 215.37 182.02 215.37 182.02 205.59 150.17 205.59 150.17 178.36 140.82 178.36 140.82 215.37"></polygon><rect class="cls-5" x="461.07" y="33.07" width="7.87" height="18.8" rx=".86" ry=".86"></rect><rect class="cls-5" x="495.14" y="33.07" width="7.87" height="18.8" rx=".86" ry=".86"></rect><path class="cls-5" d="M476.9,33.07h10.29c.8,0,1.44.65,1.44,1.44v15.91c0,.8-.65,1.44-1.44,1.44h-10.29c-.8,0-1.44-.65-1.44-1.44v-15.91c0-.8.65-1.44,1.44-1.44Z"></path><path class="cls-6" d="M465.9,35.88h32.28c.8,0,1.44.65,1.44,1.44v10.29c0,.8-.65,1.44-1.44,1.44h-32.28c-.8,0-1.44-.65-1.44-1.44v-10.29c0-.8.65-1.44,1.44-1.44Z"></path><rect class="cls-20" x="60.72" y="196.51" width="20.16" height="2.88"></rect><rect class="cls-20" x="60.72" y="203.93" width="20.16" height="2.88"></rect><rect class="cls-20" x="60.72" y="211.36" width="20.16" height="2.88"></rect><rect class="cls-22" x="65.54" y="195.02" width="10.53" height="20.41"></rect><path class="cls-21" d="M91.27,114.98h15.98c1.97,0,3.56,1.6,3.56,3.56v28.54c0,1.97-1.6,3.56-3.56,3.56h-15.98c-1.97,0-3.56-1.6-3.56-3.56v-28.54c0-1.97,1.6-3.56,3.56-3.56Z"></path><rect class="cls-23" x="88.65" y="116.09" width="21.22" height="33.44" rx="3.27" ry="3.27"></rect><rect class="cls-20" x="90.98" y="117.96" width="16.57" height="3.4"></rect><rect class="cls-20" x="90.98" y="126.73" width="16.57" height="3.4"></rect><rect class="cls-20" x="90.98" y="135.5" width="16.57" height="3.4"></rect><rect class="cls-20" x="90.98" y="144.26" width="16.57" height="3.4"></rect><rect class="cls-22" x="103.59" y="117.96" width="3.96" height="3.4"></rect><rect class="cls-22" x="90.91" y="117.96" width="3.96" height="3.4"></rect><rect class="cls-22" x="94.94" y="122.35" width="8.65" height="25.81"></rect><path class="cls-13" d="M118.8,151.91h7.56c.48,0,.88.39.88.88v16.89c0,.48-.39.88-.88.88h-7.56c-.48,0-.88-.39-.88-.88v-16.89c0-.48.39-.88.88-.88Z"></path><rect class="cls-20" x="119.68" y="154.89" width="5.81" height="4.55"></rect><rect class="cls-22" x="119.68" y="159.44" width="5.81" height="4.55"></rect><rect class="cls-20" x="119.68" y="163.99" width="5.81" height="4.55"></rect><rect class="cls-22" x="106.36" y="188.58" width="4.79" height="11.16"></rect><rect class="cls-22" x="123" y="188.58" width="4.79" height="11.16"></rect><rect class="cls-25" x="111.15" y="190.06" width="11.85" height="8.22"></rect><rect class="cls-20" x="102.45" y="171.16" width="2.52" height="30.7"></rect><rect class="cls-20" x="129.21" y="171.16" width="2.52" height="30.7"></rect><rect class="cls-22" x="106.36" y="176.08" width="4.79" height="11.16"></rect><rect class="cls-22" x="123" y="176.08" width="4.79" height="11.16"></rect><rect class="cls-24" x="111.15" y="177.55" width="11.85" height="8.22"></rect><rect class="cls-20" x="81.47" y="63.15" width="30.42" height="4.13" rx=".77" ry=".77"></rect><rect class="cls-22" x="87.43" y="56.5" width="14.96" height="11.7"></rect><rect class="cls-21" x="69.03" y="59.52" width="7.7" height="13.58" rx=".85" ry=".85"></rect><rect class="cls-11" x="86.82" y="82.68" width="28.04" height="29.26"></rect><rect class="cls-20" x="91.33" y="100.35" width="19.02" height="8.09"></rect><rect class="cls-22" x="95.26" y="100.35" width="8.41" height="8.09"></rect><rect class="cls-20" x="91.33" y="87.69" width="19.02" height="8.09"></rect><rect class="cls-22" x="94.64" y="87.69" width="12.16" height="8.09"></rect><path class="cls-1" d="M122.63,109.8c2.97,0,5.39-2.42,5.39-5.39s-2.42-5.39-5.39-5.39-5.39,2.42-5.39,5.39,2.42,5.39,5.39,5.39Z"></path><path class="cls-1" d="M122.63,106.6c1.21,0,2.19-.99,2.19-2.19s-.98-2.19-2.19-2.19-2.19.98-2.19,2.19.98,2.19,2.19,2.19Z"></path><path class="cls-1" d="M122.63,77.45c2.97,0,5.39-2.42,5.39-5.39s-2.42-5.39-5.39-5.39-5.39,2.42-5.39,5.39,2.42,5.39,5.39,5.39Z"></path><path class="cls-1" d="M122.63,74.25c1.21,0,2.19-.98,2.19-2.19s-.98-2.19-2.19-2.19-2.19.99-2.19,2.19.98,2.19,2.19,2.19Z"></path><path class="cls-1" d="M108.87,163.65c2.97,0,5.39-2.42,5.39-5.39s-2.42-5.39-5.39-5.39-5.39,2.42-5.39,5.39,2.42,5.39,5.39,5.39Z"></path><path class="cls-1" d="M108.87,160.45c1.21,0,2.19-.98,2.19-2.19s-.98-2.19-2.19-2.19-2.19.98-2.19,2.19.99,2.19,2.19,2.19Z"></path><polyline class="cls-16" points="111.37 137.05 134.74 115.52 134.74 50.44 146.54 39.05 342.31 39.05 352.28 29.05"></polyline><polyline class="cls-16" points="159.3 30.65 143.33 30.65 127.66 46.24 127.66 69.02"></polyline><rect class="cls-6" x="282.27" y="49.41" width="27.02" height="7.5"></rect><rect class="cls-6" x="150.17" y="89.43" width="6.44" height="9.26"></rect><path class="cls-13" d="M118.8,202.46h7.56c.48,0,.88.39.88.88v16.89c0,.48-.39.88-.88.88h-7.56c-.48,0-.88-.39-.88-.88v-16.89c0-.48.39-.88.88-.88Z"></path><rect class="cls-20" x="119.68" y="205.43" width="5.81" height="4.55"></rect><rect class="cls-22" x="119.68" y="209.98" width="5.81" height="4.55"></rect><rect class="cls-20" x="119.68" y="214.53" width="5.81" height="4.55"></rect><path class="cls-12" d="M83.05,39.62h21.8c.52,0,.94.42.94.94v11.59c0,.52-.42.94-.94.94h-21.8c-.52,0-.94-.42-.94-.94v-11.59c0-.52.42-.94.94-.94Z"></path><rect class="cls-22" x="90.18" y="42.16" width="7.53" height="8.39"></rect><path class="cls-18" d="M97.7,42.16v8.39h3.49c1.27,0,2.31-1.04,2.31-2.31v-3.77c0-1.27-1.04-2.31-2.31-2.31h-3.49Z"></path><path class="cls-18" d="M90.18,42.16v8.39h-3.49c-1.27,0-2.31-1.04-2.31-2.31v-3.77c0-1.27,1.04-2.31,2.31-2.31h3.49Z"></path><rect class="cls-12" x="42.58" y="193.84" width="13.47" height="23.68" rx=".94" ry=".94"></rect><rect class="cls-22" x="45.13" y="201.9" width="8.39" height="7.53"></rect><path class="cls-18" d="M53.52,209.43h-8.39v3.49c0,1.27,1.04,2.31,2.31,2.31h3.77c1.27,0,2.31-1.04,2.31-2.31v-3.49Z"></path><path class="cls-18" d="M53.52,201.9h-8.39v-3.49c0-1.27,1.04-2.31,2.31-2.31h3.77c1.27,0,2.31,1.04,2.31,2.31v3.49Z"></path><rect class="cls-12" x="496.95" y="208.41" width="11.89" height="20.91" rx=".83" ry=".83"></rect><rect class="cls-22" x="499.2" y="215.52" width="7.4" height="6.65"></rect><path class="cls-18" d="M506.6,222.17h-7.4v3.08c0,1.12.92,2.04,2.04,2.04h3.33c1.12,0,2.04-.92,2.04-2.04v-3.08Z"></path><path class="cls-18" d="M506.6,215.52h-7.4v-3.08c0-1.12.92-2.04,2.04-2.04h3.33c1.12,0,2.04.92,2.04,2.04v3.08Z"></path><path class="cls-12" d="M476.87,217.42h19.25c.46,0,.83.37.83.83v10.23c0,.46-.37.83-.83.83h-19.25c-.46,0-.83-.37-.83-.83v-10.23c0-.46.37-.83.83-.83Z"></path><rect class="cls-22" x="483.19" y="219.67" width="6.65" height="7.4"></rect><path class="cls-18" d="M483.19,227.07v-7.4h-3.08c-1.12,0-2.04.92-2.04,2.04v3.33c0,1.12.92,2.04,2.04,2.04h3.08Z"></path><path class="cls-18" d="M489.83,227.07v-7.4h3.08c1.12,0,2.04.92,2.04,2.04v3.33c0,1.12-.92,2.04-2.04,2.04h-3.08Z"></path><path class="cls-12" d="M436.74,36.57h21.8c.52,0,.94.42.94.94v11.59c0,.52-.42.94-.94.94h-21.8c-.52,0-.94-.42-.94-.94v-11.59c0-.52.42-.94.94-.94Z"></path><rect class="cls-22" x="443.87" y="39.11" width="7.53" height="8.39"></rect><path class="cls-18" d="M451.39,39.11v8.39h3.49c1.27,0,2.31-1.04,2.31-2.31v-3.77c0-1.27-1.04-2.31-2.31-2.31h-3.49Z"></path><path class="cls-18" d="M443.87,39.11v8.39h-3.49c-1.27,0-2.31-1.04-2.31-2.31v-3.77c0-1.27,1.04-2.31,2.31-2.31h3.49Z"></path><rect class="cls-12" x="504.81" y="36.57" width="23.68" height="13.47" rx=".94" ry=".94"></rect><rect class="cls-22" x="512.87" y="39.11" width="7.53" height="8.39"></rect><path class="cls-18" d="M520.39,39.11v8.39h3.49c1.27,0,2.31-1.04,2.31-2.31v-3.77c0-1.27-1.04-2.31-2.31-2.31h-3.49Z"></path><path class="cls-18" d="M512.87,39.11v8.39h-3.49c-1.27,0-2.31-1.04-2.31-2.31v-3.77c0-1.27,1.04-2.31,2.31-2.31h3.49Z"></path><path class="cls-19" d="M431.37,93.22s-1.25-2.92-.23-6.63c.44-1.6,1.39-4.44,2.38-7.54h7.2c-2,6.38-4.33,13.39-5.42,17.38-.71,2.58-.32,5.95,1.25,8.08,2.12,2.87,5.74,4.12,5.74,4.12,0,0-.04-5.23,1.47-10.71,1.51-5.49,7.06-20.85,7.95-27.84.89-7-9.74-9.67-9.74-9.67,0,0,3.22,2.47,1.37,9.67-.34,1.33-.77,2.85-1.26,4.5h-7.19c.77-2.62,1.4-5.08,1.62-6.79.6-4.73-6.58-6.53-6.58-6.53,0,0,2.18,1.67.93,6.53-1.25,4.87-4.32,13.71-5.44,17.81-1.12,4.1,5.95,7.63,5.95,7.63Z"></path><polygon class="cls-19" points="454.55 91.29 460.61 70.69 474.89 70.69 473.88 74.15 463.55 74.15 462.15 78.81 472.15 78.81 471.14 82.26 461.11 82.26 459.42 87.84 470.62 87.84 469.61 91.29 454.55 91.29"></polygon><polygon class="cls-19" points="472.63 91.29 478.69 70.69 482.65 70.69 477.61 87.84 487.44 87.84 486.43 91.29 472.63 91.29"></polygon><polygon class="cls-19" points="495.38 91.29 491.41 91.29 496.45 74.15 490.79 74.15 491.78 70.69 506.97 70.69 505.99 74.15 500.42 74.15 495.38 91.29"></polygon><polygon class="cls-19" points="503.44 91.29 509.5 70.69 523.78 70.69 522.77 74.15 512.45 74.15 511.04 78.81 521.05 78.81 520.04 82.26 510 82.26 508.31 87.84 519.52 87.84 518.51 91.29 503.44 91.29"></polygon><path class="cls-19" d="M536.1,83.9l3.92.65c-1,2.31-2.35,4.07-4.03,5.29-1.67,1.22-3.56,1.83-5.65,1.83-2.35,0-4.12-.76-5.3-2.28-1.18-1.52-1.63-3.73-1.34-6.62.23-2.34.88-4.49,1.96-6.43,1.08-1.95,2.46-3.44,4.14-4.47,1.68-1.03,3.44-1.55,5.3-1.55,2.09,0,3.71.6,4.89,1.79,1.17,1.2,1.77,2.82,1.79,4.89l-3.84.39c-.09-1.2-.41-2.07-.96-2.61-.54-.54-1.31-.81-2.31-.81-1.09,0-2.15.35-3.16,1.07-1.02.71-1.88,1.83-2.6,3.35-.72,1.52-1.15,3.03-1.3,4.55-.16,1.65.08,2.93.73,3.84.65.9,1.52,1.35,2.62,1.35,1.02,0,1.99-.35,2.91-1.07.92-.71,1.66-1.76,2.21-3.16Z"></path><path class="cls-19" d="M456.99,103.3h-3.29l-1.19,1.95h-1.77l5.54-8.84h1.93l.47,8.84h-1.62l-.08-1.95h0ZM456.93,101.82l-.14-3.56-2.18,3.56h2.32Z"></path><path class="cls-19" d="M462.4,96.41h1.7l-1.45,4.81-.36,1.18c-.02.1-.05.23-.09.39-.03.32.07.59.31.8.24.21.61.31,1.1.31.45,0,.82-.08,1.13-.25.31-.16.56-.41.75-.74.19-.33.41-.88.65-1.67l1.42-4.83h1.7l-1.47,5.01c-.3.98-.61,1.72-.93,2.24-.32.52-.77.94-1.35,1.26-.58.33-1.29.49-2.12.49-1,0-1.74-.25-2.22-.76-.48-.51-.68-1.16-.61-1.95.02-.16.06-.34.11-.53.03-.13.13-.49.31-1.1l1.43-4.66Z"></path><polygon class="cls-19" points="471.68 105.25 469.97 105.25 472.14 97.89 469.71 97.89 470.13 96.41 476.66 96.41 476.23 97.89 473.84 97.89 471.68 105.25"></polygon><path class="cls-19" d="M475.8,101.78c.05-.52.18-1.07.38-1.65.27-.78.63-1.45,1.08-2.02.45-.57.99-1.02,1.62-1.36.63-.33,1.33-.5,2.09-.5,1.03,0,1.82.34,2.38,1.02.56.68.79,1.58.68,2.71-.09.93-.38,1.84-.88,2.71-.5.87-1.12,1.55-1.87,2.02-.75.47-1.57.71-2.46.71-.77,0-1.4-.19-1.89-.56-.49-.37-.81-.84-.98-1.39-.16-.55-.22-1.11-.16-1.68h0ZM477.5,101.75c-.06.61.06,1.12.37,1.53.31.41.74.62,1.31.62.46,0,.92-.16,1.37-.49.46-.33.85-.82,1.2-1.48.34-.66.54-1.3.6-1.93.07-.7-.05-1.25-.36-1.64-.31-.4-.74-.6-1.28-.6-.83,0-1.55.42-2.15,1.25-.6.83-.95,1.74-1.05,2.73Z"></path><polygon class="cls-19" points="488.71 105.25 487.09 105.25 487.5 97.86 485.47 105.25 483.93 105.25 486.53 96.41 488.96 96.41 488.62 102.49 491.82 96.41 494.27 96.41 491.89 105.25 490.35 105.25 492.51 97.92 488.71 105.25"></polygon><path class="cls-19" d="M499.19,103.3h-3.29l-1.19,1.95h-1.77l5.54-8.84h1.93l.47,8.84h-1.62l-.08-1.95h0ZM499.13,101.82l-.14-3.56-2.18,3.56h2.32Z"></path><polygon class="cls-19" points="504.67 105.25 502.96 105.25 505.13 97.89 502.7 97.89 503.12 96.41 509.64 96.41 509.22 97.89 506.83 97.89 504.67 105.25"></polygon><polygon class="cls-19" points="508.06 105.25 510.66 96.41 512.36 96.41 509.76 105.25 508.06 105.25"></polygon><path class="cls-19" d="M512.21,101.78c.05-.52.18-1.07.38-1.65.27-.78.63-1.45,1.08-2.02s.99-1.02,1.62-1.36c.63-.33,1.33-.5,2.09-.5,1.03,0,1.82.34,2.38,1.02.56.68.79,1.58.68,2.71-.09.93-.38,1.84-.88,2.71-.5.87-1.12,1.55-1.87,2.02-.75.47-1.57.71-2.46.71-.77,0-1.4-.19-1.89-.56-.49-.37-.81-.84-.98-1.39-.16-.55-.22-1.11-.16-1.68h0ZM513.91,101.75c-.06.61.06,1.12.37,1.53.31.41.74.62,1.31.62.46,0,.92-.16,1.37-.49.46-.33.85-.82,1.2-1.48.34-.66.54-1.3.6-1.93.07-.7-.05-1.25-.36-1.64-.31-.4-.74-.6-1.28-.6-.83,0-1.55.42-2.15,1.25-.6.83-.95,1.74-1.05,2.73Z"></path><polygon class="cls-19" points="526.96 105.25 525.37 105.25 523.72 99.31 521.97 105.25 520.39 105.25 522.99 96.41 524.57 96.41 526.24 102.32 527.97 96.41 529.56 96.41 526.96 105.25"></polygon><polygon class="cls-19" points="228.74 140.71 228.54 123.72 240.42 123.72 240.46 126.59 231.83 126.59 231.87 130.36 239.9 130.36 239.93 133.23 231.9 133.23 231.96 137.84 240.9 137.84 240.94 140.71 228.74 140.71"></polygon><path class="cls-19" d="M246.23,135.2l3.16-.33c.2,1.12.59,1.94,1.18,2.46.59.53,1.37.79,2.35.79,1.04,0,1.82-.23,2.34-.7.52-.47.78-1.01.77-1.64,0-.4-.12-.74-.34-1.03-.22-.28-.62-.53-1.17-.73-.38-.14-1.24-.39-2.59-.74-1.74-.46-2.96-1.02-3.66-1.69-.99-.94-1.5-2.08-1.51-3.43,0-.87.21-1.68.66-2.44.45-.76,1.11-1.33,1.98-1.72.87-.4,1.91-.59,3.14-.59,2.01,0,3.53.47,4.55,1.42,1.03.95,1.57,2.2,1.64,3.78l-3.25.12c-.15-.88-.45-1.51-.91-1.89-.46-.38-1.14-.58-2.04-.58s-1.66.21-2.19.62c-.34.27-.5.62-.5,1.06,0,.4.17.75.49,1.03.41.37,1.41.75,2.98,1.14,1.58.39,2.74.8,3.5,1.22.76.42,1.36,1,1.79,1.73.43.73.66,1.63.67,2.7.01.97-.23,1.89-.73,2.74s-1.22,1.48-2.15,1.89c-.93.42-2.09.62-3.49.62-2.03,0-3.59-.49-4.69-1.49-1.1-.99-1.76-2.43-2-4.33Z"></path><path class="cls-19" d="M265.54,140.71l-.2-16.99h5.2c1.97,0,3.25.08,3.85.25.92.26,1.7.81,2.33,1.66.63.85.95,1.96.97,3.31.01,1.04-.16,1.92-.5,2.63-.35.71-.8,1.27-1.34,1.68-.54.4-1.1.67-1.67.8-.77.16-1.89.25-3.35.25h-2.11l.07,6.41h-3.25ZM268.63,126.59l.06,4.84h1.77c1.27,0,2.12-.09,2.55-.27.43-.18.76-.45,1-.84.24-.38.36-.82.35-1.32,0-.62-.19-1.13-.53-1.53-.35-.4-.78-.66-1.31-.76-.39-.08-1.16-.11-2.33-.11h-1.56Z"></path><path class="cls-19" d="M283.11,136.2l2.98-.38c.1.81.36,1.42.78,1.85.42.43.92.64,1.51.64.63,0,1.16-.26,1.59-.77.42-.51.63-1.2.62-2.07,0-.82-.22-1.47-.64-1.95-.42-.48-.93-.72-1.53-.72-.39,0-.86.08-1.4.24l.31-2.64c.83.02,1.46-.17,1.89-.58.43-.4.64-.95.64-1.62,0-.57-.17-1.03-.5-1.37-.33-.34-.75-.51-1.29-.51s-.97.19-1.34.58c-.37.39-.59.95-.66,1.7l-2.83-.51c.19-1.04.47-1.86.86-2.48.39-.62.94-1.1,1.65-1.46.71-.35,1.5-.53,2.38-.53,1.51,0,2.73.51,3.65,1.53.76.84,1.15,1.79,1.16,2.84.02,1.49-.74,2.69-2.27,3.58.92.21,1.66.68,2.22,1.4.56.73.84,1.61.86,2.63.02,1.49-.48,2.76-1.5,3.82-1.02,1.05-2.29,1.58-3.82,1.58-1.45,0-2.66-.44-3.62-1.33-.97-.89-1.53-2.04-1.7-3.48Z"></path><path class="cls-19" d="M309.54,137.69l.04,3.01h-10.78c.1-1.15.44-2.23,1.01-3.25.57-1.02,1.71-2.38,3.41-4.08,1.37-1.37,2.21-2.3,2.52-2.78.41-.67.62-1.34.61-2,0-.73-.2-1.28-.57-1.68-.37-.39-.88-.59-1.53-.59s-1.15.21-1.52.62c-.37.41-.58,1.09-.63,2.04l-3.08-.32c.16-1.8.72-3.08,1.67-3.87.95-.78,2.15-1.17,3.6-1.17,1.58,0,2.83.45,3.75,1.36.91.91,1.38,2.03,1.4,3.38,0,.77-.11,1.49-.36,2.19-.25.69-.65,1.42-1.21,2.17-.36.51-1.03,1.23-1.99,2.17-.96.95-1.57,1.57-1.83,1.88-.26.31-.46.61-.62.91h6.12Z"></path><path class="cls-19" d="M314.87,135.2l3.16-.33c.2,1.12.59,1.94,1.18,2.46s1.37.79,2.35.79c1.04,0,1.82-.23,2.34-.7.52-.47.78-1.01.77-1.64,0-.4-.12-.74-.34-1.03-.22-.28-.62-.53-1.17-.73-.38-.14-1.24-.39-2.59-.74-1.74-.46-2.96-1.02-3.66-1.69-.99-.94-1.5-2.08-1.51-3.43-.01-.87.21-1.68.66-2.44.45-.76,1.11-1.33,1.98-1.72.87-.4,1.91-.59,3.14-.59,2.01,0,3.53.47,4.55,1.42,1.03.95,1.57,2.2,1.64,3.78l-3.25.12c-.15-.88-.45-1.51-.91-1.89-.46-.38-1.14-.58-2.04-.58s-1.66.21-2.19.62c-.34.27-.5.62-.5,1.06,0,.4.17.75.49,1.03.41.37,1.41.75,2.98,1.14,1.58.39,2.74.8,3.5,1.22.76.42,1.36,1,1.79,1.73.43.73.66,1.63.67,2.7.01.97-.23,1.89-.73,2.74-.5.85-1.22,1.48-2.15,1.89-.93.42-2.09.62-3.49.62-2.03,0-3.59-.49-4.69-1.49-1.1-.99-1.76-2.43-2-4.33Z"></path><path class="cls-19" d="M333.35,136.2l2.98-.38c.1.81.36,1.42.78,1.85.42.43.92.64,1.51.64.63,0,1.16-.26,1.59-.77.42-.51.63-1.2.62-2.07,0-.82-.22-1.47-.64-1.95-.42-.48-.93-.72-1.53-.72-.39,0-.86.08-1.4.24l.31-2.64c.83.02,1.46-.17,1.89-.58.43-.4.64-.95.63-1.62,0-.57-.17-1.03-.5-1.37-.33-.34-.75-.51-1.29-.51s-.97.19-1.34.58c-.37.39-.59.95-.66,1.7l-2.83-.51c.19-1.04.47-1.86.86-2.48.39-.62.94-1.1,1.65-1.46.71-.35,1.5-.53,2.39-.53,1.51,0,2.73.51,3.65,1.53.76.84,1.15,1.79,1.16,2.84.02,1.49-.74,2.69-2.27,3.58.92.21,1.66.68,2.22,1.4.56.73.84,1.61.86,2.63.02,1.49-.48,2.76-1.5,3.82-1.02,1.05-2.29,1.58-3.82,1.58-1.45,0-2.66-.44-3.62-1.33-.97-.89-1.53-2.04-1.7-3.48Z"></path><polygon class="cls-19" points="353.57 138.26 353.52 133.85 349.3 133.85 349.27 130.81 353.48 130.81 353.43 126.4 356.24 126.4 356.29 130.81 360.5 130.81 360.54 133.85 356.32 133.85 356.37 138.26 353.57 138.26"></polygon><path class="cls-19" d="M365.73,135.2l3.16-.33c.2,1.12.59,1.94,1.18,2.46.59.53,1.37.79,2.35.79,1.04,0,1.82-.23,2.34-.7.52-.47.78-1.01.77-1.64,0-.4-.12-.74-.34-1.03-.22-.28-.62-.53-1.17-.73-.38-.14-1.24-.39-2.59-.74-1.74-.46-2.96-1.02-3.66-1.69-.99-.94-1.5-2.08-1.51-3.43,0-.87.21-1.68.66-2.44.45-.76,1.11-1.33,1.98-1.72s1.91-.59,3.14-.59c2.01,0,3.53.47,4.55,1.42,1.03.95,1.57,2.2,1.64,3.78l-3.25.12c-.15-.88-.45-1.51-.91-1.89-.46-.38-1.14-.58-2.04-.58s-1.66.21-2.19.62c-.34.27-.5.62-.5,1.06,0,.4.17.75.49,1.03.41.37,1.41.75,2.98,1.14,1.58.39,2.74.8,3.5,1.22.76.42,1.36,1,1.79,1.73.43.73.66,1.63.67,2.7.01.97-.23,1.89-.73,2.74-.5.85-1.22,1.48-2.15,1.89-.93.42-2.09.62-3.49.62-2.03,0-3.59-.49-4.69-1.49-1.1-.99-1.76-2.43-2-4.33Z"></path><polygon class="cls-19" points="383.42 140.71 388.86 131.85 383.74 123.72 387.52 123.72 390.74 128.78 393.85 123.72 397.64 123.72 392.7 131.85 398.33 140.71 394.44 140.71 390.81 134.95 387.32 140.71 383.42 140.71"></polygon><path class="cls-19" d="M410.62,140.71h-3.07l-.14-12.3c-1.11,1.12-2.42,1.94-3.94,2.48l-.03-2.97c.8-.28,1.66-.8,2.59-1.58.93-.77,1.56-1.68,1.9-2.71h2.49l.2,17.08Z"></path><path class="cls-19" d="M429.04,137.69l.04,3.01h-10.78c.1-1.15.44-2.23,1.01-3.25.57-1.02,1.71-2.38,3.41-4.08,1.37-1.37,2.21-2.3,2.52-2.78.41-.67.62-1.34.61-2,0-.73-.2-1.28-.57-1.68-.37-.39-.88-.59-1.53-.59s-1.15.21-1.52.62c-.37.41-.58,1.09-.63,2.04l-3.08-.32c.16-1.8.72-3.08,1.67-3.87.96-.78,2.15-1.17,3.6-1.17,1.58,0,2.83.45,3.75,1.36.91.91,1.38,2.03,1.4,3.38,0,.77-.11,1.49-.36,2.19-.25.69-.65,1.42-1.21,2.17-.36.51-1.03,1.23-1.99,2.17-.96.95-1.57,1.57-1.83,1.88-.26.31-.46.61-.62.91h6.12Z"></path><path class="cls-19" d="M444.87,127.88l-2.98.35c-.08-.65-.27-1.13-.58-1.44-.31-.31-.71-.46-1.2-.46-.65,0-1.2.31-1.64.93-.44.62-.71,1.9-.8,3.86.75-.96,1.7-1.44,2.84-1.44,1.28,0,2.39.52,3.32,1.55.93,1.04,1.4,2.38,1.42,4.02.02,1.74-.45,3.14-1.4,4.19-.95,1.05-2.18,1.58-3.69,1.58-1.62,0-2.96-.67-4.02-2-1.06-1.34-1.61-3.52-1.64-6.57-.04-3.12.48-5.37,1.55-6.75s2.48-2.07,4.21-2.07c1.22,0,2.23.36,3.04,1.09.81.72,1.33,1.78,1.57,3.16h0ZM437.98,134.99c.01,1.06.25,1.88.72,2.46.47.58.99.87,1.59.87s1.04-.24,1.42-.71c.37-.47.55-1.25.54-2.32-.01-1.11-.23-1.92-.64-2.44-.42-.51-.93-.77-1.54-.77s-1.09.25-1.49.74c-.4.49-.6,1.22-.59,2.18Z"></path><path class="cls-19" d="M460.88,137.69l.04,3.01h-10.78c.1-1.15.44-2.23,1.01-3.25.57-1.02,1.71-2.38,3.41-4.08,1.37-1.37,2.21-2.3,2.52-2.78.41-.67.62-1.34.61-2,0-.73-.2-1.28-.57-1.68-.37-.39-.88-.59-1.53-.59s-1.15.21-1.52.62c-.37.41-.58,1.09-.63,2.04l-3.08-.32c.16-1.8.72-3.08,1.67-3.87.95-.78,2.15-1.17,3.6-1.17,1.58,0,2.83.45,3.75,1.36.91.91,1.38,2.03,1.4,3.38,0,.77-.11,1.49-.36,2.19-.25.69-.65,1.42-1.21,2.17-.36.51-1.03,1.23-1.99,2.17-.96.95-1.57,1.57-1.83,1.88-.26.31-.46.61-.62.91h6.12Z"></path><rect class="cls-22" x="424.62" y="161.56" width="70.82" height="31.16" rx="10.28" ry="10.28"></rect><path class="cls-18" d="M445.75,170.31h2.58l.08,7.3c.01,1.16.05,1.91.12,2.25.12.55.38,1,.79,1.33.42.34.98.5,1.69.5s1.26-.16,1.63-.47c.36-.32.58-.7.65-1.16.07-.46.1-1.22.09-2.29l-.09-7.46h2.58l.08,7.09c.02,1.62-.04,2.76-.17,3.43-.13.67-.38,1.23-.75,1.69-.37.46-.86.83-1.48,1.1-.62.27-1.43.41-2.44.41-1.21,0-2.13-.15-2.76-.45-.63-.3-1.13-.68-1.5-1.16-.37-.48-.61-.97-.73-1.5-.18-.77-.27-1.91-.29-3.42l-.08-7.2h0ZM434.3,183.79l-.16-13.48h9.43l.03,2.28h-6.85l.03,2.99h6.37l.03,2.28h-6.37l.04,3.65h7.1l.03,2.28h-9.68ZM460.1,176.5c-.63-.28-1.1-.67-1.39-1.16-.29-.49-.44-1.04-.45-1.62-.01-1.01.31-1.84.96-2.49.65-.66,1.59-.98,2.81-.98s2.15.33,2.83.98c.68.66,1.02,1.49,1.03,2.49,0,.62-.14,1.18-.44,1.67-.3.49-.73.86-1.28,1.12.71.3,1.25.74,1.63,1.32.37.58.57,1.25.57,2,.01,1.25-.35,2.26-1.09,3.04-.74.78-1.73,1.17-2.98,1.17-1.16,0-2.12-.32-2.9-.97-.92-.76-1.38-1.81-1.4-3.13,0-.73.16-1.4.49-2.01.33-.61.86-1.08,1.59-1.42h0ZM460.58,173.91c0,.51.15.92.42,1.21.28.29.65.43,1.1.43s.83-.15,1.1-.44c.27-.29.41-.7.4-1.21,0-.49-.15-.88-.42-1.17-.28-.29-.64-.44-1.09-.44s-.84.15-1.11.44c-.27.29-.41.69-.4,1.17h0ZM460.42,179.69c0,.72.19,1.28.54,1.68.35.4.78.6,1.29.6s.92-.19,1.24-.58c.32-.39.48-.94.47-1.67,0-.64-.18-1.15-.52-1.53-.34-.39-.77-.58-1.28-.58-.6,0-1.03.22-1.32.66-.29.44-.43.91-.42,1.43h0ZM476.01,173.61l-2.36.28c-.06-.51-.22-.89-.46-1.14-.25-.24-.56-.37-.95-.37-.52,0-.95.24-1.3.73-.35.49-.56,1.51-.63,3.06.6-.76,1.35-1.14,2.25-1.14,1.02,0,1.9.41,2.63,1.23.74.83,1.11,1.89,1.13,3.19.02,1.38-.35,2.49-1.11,3.33-.76.83-1.73,1.25-2.93,1.25-1.28,0-2.35-.53-3.19-1.59-.84-1.06-1.27-2.8-1.3-5.21-.03-2.48.38-4.26,1.23-5.36.85-1.09,1.96-1.64,3.34-1.64.97,0,1.77.29,2.41.87.64.57,1.05,1.41,1.24,2.51h0ZM470.54,179.26c0,.84.2,1.49.57,1.95.37.46.79.69,1.26.69s.82-.19,1.12-.56c.29-.38.44-.99.43-1.84-.01-.88-.18-1.52-.51-1.93-.33-.41-.74-.61-1.22-.61s-.86.19-1.18.59c-.32.39-.48.97-.47,1.73h0ZM479.65,176.5c-.63-.28-1.1-.67-1.39-1.16-.29-.49-.44-1.04-.45-1.62-.01-1.01.31-1.84.96-2.49.65-.66,1.59-.98,2.81-.98s2.15.33,2.83.98c.68.66,1.02,1.49,1.03,2.49,0,.62-.14,1.18-.44,1.67-.3.49-.73.86-1.28,1.12.71.3,1.25.74,1.63,1.32.37.58.57,1.25.58,2,.01,1.25-.35,2.26-1.09,3.04-.74.78-1.73,1.17-2.98,1.17-1.16,0-2.12-.32-2.9-.97-.92-.76-1.38-1.81-1.4-3.13,0-.73.16-1.4.49-2.01.33-.61.86-1.08,1.59-1.42h0ZM480.13,173.91c0,.51.15.92.42,1.21.28.29.65.43,1.1.43s.83-.15,1.1-.44c.27-.29.41-.7.4-1.21,0-.49-.15-.88-.42-1.17-.28-.29-.64-.44-1.09-.44s-.84.15-1.11.44c-.27.29-.41.69-.4,1.17h0ZM479.96,179.69c0,.72.19,1.28.54,1.68.35.4.78.6,1.29.6s.92-.19,1.24-.58c.32-.39.48-.94.47-1.67,0-.64-.18-1.15-.52-1.53-.34-.39-.77-.58-1.28-.58-.6,0-1.03.22-1.32.66-.29.44-.43.91-.42,1.43Z"></path><rect class="cls-22" x="203.09" y="68.86" width="37.75" height="27.48" rx="6.37" ry="6.37"></rect><polygon class="cls-18" points="215.09 91.83 211.15 91.83 209.83 72.7 213.49 72.7 214.33 87.18 223.17 72.7 226.83 72.7 215.09 91.83"></polygon><path class="cls-18" d="M223.54,86.87l3.4-.43c.04,1.02.22,1.72.54,2.11.32.39.79.59,1.39.59.8,0,1.49-.29,2.07-.86.58-.58.92-1.32,1.01-2.22.08-.79-.07-1.41-.45-1.87-.38-.46-.93-.69-1.64-.69-.18,0-.37.02-.57.05l.92-3.13c.12.02.24.03.35.03.93,0,1.67-.25,2.21-.77.54-.51.85-1.2.93-2.07.06-.62-.06-1.1-.35-1.47-.29-.36-.71-.53-1.24-.53s-.98.2-1.42.59c-.44.4-.82,1.07-1.15,2.03l-3.14-.68c.55-1.41,1.22-2.48,2.02-3.24,1.21-1.13,2.62-1.69,4.22-1.69s2.85.49,3.61,1.47c.76.98,1.07,2.16.94,3.52-.1.99-.46,1.89-1.08,2.69-.62.8-1.43,1.39-2.42,1.76.71.43,1.22.98,1.51,1.66.29.68.4,1.39.33,2.13-.14,1.41-.73,2.71-1.79,3.89-1.44,1.62-3.17,2.43-5.19,2.43-1.51,0-2.72-.46-3.61-1.39-.89-.92-1.36-2.23-1.41-3.92Z"></path><path class="cls-3" d="M246.33,161.37h65.83c5.71,0,15.42,4.67,15.42,10.38v10.71c0,5.71-8.32,10.38-14.03,10.38h-134.45c-5.71,0-14.03-4.67-14.03-10.38v-10.71c0-5.71,9.71-10.38,15.42-10.38h65.83Z"></path><polygon class="cls-19" points="173.04 182.57 172.91 171.52 175.04 171.52 175.15 180.69 180.43 180.69 180.45 182.57 173.04 182.57"></polygon><path class="cls-19" d="M183.69,178.43c0-.71.15-1.4.47-2.06.32-.67.79-1.17,1.39-1.52.6-.35,1.27-.53,2.02-.53,1.15,0,2.1.4,2.85,1.19.75.8,1.13,1.8,1.14,3.01.01,1.22-.35,2.24-1.08,3.04-.74.8-1.67,1.21-2.8,1.21-.7,0-1.37-.17-2.01-.5-.64-.33-1.13-.82-1.46-1.47-.34-.65-.51-1.43-.52-2.36h0ZM185.76,178.55c0,.8.2,1.42.56,1.84.37.43.81.64,1.34.64s.96-.21,1.31-.64c.35-.43.52-1.05.51-1.86,0-.79-.2-1.4-.56-1.83-.36-.43-.8-.64-1.33-.64s-.97.21-1.32.64c-.35.43-.52,1.04-.52,1.84Z"></path><path class="cls-19" d="M195.47,182.57l-.13-11.14h4.48c1.13,0,1.94.1,2.46.3.51.2.93.55,1.24,1.07.31.51.47,1.1.48,1.76,0,.84-.21,1.53-.67,2.07-.46.54-1.14.89-2.06,1.03.46.28.84.59,1.14.93.3.34.71.94,1.23,1.81l1.31,2.17h-2.54l-1.55-2.43c-.56-.86-.94-1.41-1.14-1.63-.2-.22-.42-.38-.65-.46-.23-.08-.59-.12-1.08-.12h-.43l.05,4.65h-2.13ZM197.53,176.14h1.57c1.02,0,1.65-.05,1.91-.14.25-.09.45-.25.59-.47.14-.22.21-.5.21-.84,0-.38-.1-.68-.3-.91-.19-.23-.46-.38-.8-.44-.17-.03-.69-.04-1.55-.04h-1.66l.03,2.83Z"></path><path class="cls-19" d="M209.78,176.98l-1.83-.34c.2-.79.55-1.37,1.04-1.75.5-.38,1.24-.57,2.23-.57.9,0,1.57.11,2.02.34.44.23.76.51.94.86.18.35.28.98.29,1.91v2.49c0,.71.05,1.23.11,1.57.07.34.19.7.37,1.08h-2c-.05-.14-.12-.35-.2-.62-.03-.13-.06-.21-.07-.25-.34.36-.7.63-1.09.8-.39.18-.81.27-1.25.27-.78,0-1.4-.23-1.86-.68-.46-.45-.69-1.02-.7-1.71,0-.45.09-.86.29-1.22.2-.36.49-.63.86-.82.37-.19.9-.36,1.6-.5.94-.19,1.59-.36,1.95-.52v-.22c0-.41-.11-.71-.3-.89-.2-.18-.56-.26-1.09-.26-.36,0-.64.08-.84.23-.2.15-.36.42-.48.8h0ZM212.5,178.71c-.26.09-.66.2-1.22.33-.56.13-.92.25-1.09.37-.26.2-.39.45-.39.75,0,.3.11.56.33.78.21.22.48.33.81.33.36,0,.71-.13,1.04-.38.24-.19.4-.43.47-.71.05-.18.07-.53.07-1.04v-.43Z"></path><polygon class="cls-19" points="221.07 180.97 221.04 178.07 218.27 178.07 218.25 176.08 221.02 176.08 220.98 173.19 222.82 173.19 222.86 176.08 225.62 176.08 225.64 178.07 222.88 178.07 222.91 180.97 221.07 180.97"></polygon><polygon class="cls-19" points="231.1 182.57 228.49 171.43 230.68 171.43 232.34 179.08 234.17 171.43 236.71 171.43 238.63 179.21 240.15 171.43 242.29 171.43 239.88 182.57 237.6 182.57 235.43 174.24 233.44 182.57 231.1 182.57"></polygon><path class="cls-19" d="M245.54,173.4l-.02-1.98h2.02l.02,1.98h-2.02ZM245.65,182.57l-.09-8.08h2.02l.09,8.08h-2.02Z"></path><polygon class="cls-19" points="251.73 179.6 251.7 177.47 255.68 177.47 255.7 179.6 251.73 179.6"></polygon><polygon class="cls-19" points="259.17 182.57 259.04 171.43 266.28 171.43 266.3 173.31 261.2 173.31 261.23 175.96 265.64 175.96 265.66 177.84 261.25 177.84 261.31 182.57 259.17 182.57"></polygon><path class="cls-19" d="M270.3,173.4l-.02-1.98h2.02l.02,1.98h-2.02ZM270.41,182.57l-.09-8.08h2.02l.09,8.08h-2.02Z"></path><polygon class="cls-19" points="279.04 180.97 279.01 178.07 276.25 178.07 276.22 176.08 278.99 176.08 278.95 173.19 280.79 173.19 280.83 176.08 283.59 176.08 283.62 178.07 280.85 178.07 280.88 180.97 279.04 180.97"></polygon><path class="cls-19" d="M287.49,171.43h4.21c.84,0,1.46.04,1.87.11.41.08.78.23,1.11.46.33.23.6.54.82.93.22.39.33.82.34,1.3,0,.52-.12,1-.38,1.43-.26.44-.62.76-1.07.98.64.2,1.14.54,1.49,1.01.35.48.53,1.04.53,1.68,0,.51-.1,1-.32,1.48-.22.48-.52.86-.9,1.15-.38.29-.86.46-1.42.53-.35.04-1.21.06-2.56.08h-3.59l-.13-11.14h0ZM289.65,173.28l.03,2.57h1.39c.83,0,1.34-.01,1.54-.04.36-.04.65-.18.85-.4s.31-.51.3-.87c0-.34-.1-.62-.28-.84-.18-.22-.45-.34-.8-.39-.21-.03-.82-.04-1.81-.04h-1.22ZM289.7,177.7l.03,2.99h1.97c.76,0,1.25-.02,1.46-.07.32-.06.57-.21.77-.45.2-.24.29-.55.29-.95,0-.34-.08-.62-.24-.85-.15-.23-.38-.4-.67-.51-.29-.11-.92-.16-1.89-.16h-1.72Z"></path><polygon class="cls-19" points="300.56 182.57 300.44 171.52 302.57 171.52 302.68 180.69 307.96 180.69 307.98 182.57 300.56 182.57"></polygon><polygon class="cls-19" points="311.75 182.57 311.62 171.43 319.42 171.43 319.44 173.31 313.78 173.31 313.81 175.79 319.07 175.79 319.09 177.67 313.83 177.67 313.86 180.69 319.73 180.69 319.75 182.57 311.75 182.57"></polygon><path class="cls-16" d="M65.94,73.57s-5.99-2.18-5.92-7.54c.07-5.36,5.85-9.52,5.85-9.52h-21.78l-4.51-4.51h-9.94l-3.1-1.48H6.31"></path><path class="cls-18" d="M16.02,214.29v-8.61h3.66c.92,0,1.59.08,2.01.23.42.15.75.43,1,.82.25.4.38.85.38,1.36,0,.65-.19,1.18-.57,1.6-.38.42-.94.69-1.7.8.38.22.68.46.93.72.24.26.57.73.99,1.4l1.05,1.68h-2.08l-1.25-1.88c-.45-.67-.75-1.09-.92-1.26-.16-.17-.34-.29-.52-.36-.19-.06-.48-.1-.88-.1h-.35v3.6h-1.74ZM17.77,209.32h1.29c.83,0,1.35-.04,1.56-.11.21-.07.37-.19.49-.36.12-.17.18-.39.18-.65,0-.29-.08-.52-.23-.7-.15-.18-.37-.29-.65-.34-.14-.02-.57-.03-1.27-.03h-1.36v2.19Z"></path><path class="cls-18" d="M24.25,211.5l1.7-.17c.1.57.31.98.62,1.25.31.27.73.4,1.26.4.56,0,.98-.12,1.26-.35.28-.24.42-.51.42-.83,0-.2-.06-.38-.18-.52-.12-.14-.33-.27-.62-.37-.2-.07-.66-.2-1.38-.38-.93-.23-1.58-.52-1.95-.86-.53-.48-.79-1.05-.79-1.74,0-.44.12-.85.37-1.23.25-.38.61-.67,1.07-.87.47-.2,1.03-.3,1.69-.3,1.08,0,1.89.24,2.43.72.55.48.83,1.12.86,1.92l-1.74.06c-.07-.45-.23-.76-.48-.96-.24-.19-.61-.29-1.09-.29s-.89.1-1.18.31c-.18.13-.27.31-.27.54,0,.2.09.38.26.52.22.19.75.38,1.59.58.84.2,1.47.41,1.87.62.41.21.72.51.95.88.23.37.34.83.34,1.37,0,.49-.14.96-.41,1.39-.27.43-.66.75-1.16.96-.5.21-1.13.31-1.87.31-1.09,0-1.92-.25-2.51-.75-.58-.5-.93-1.23-1.04-2.19Z"></path><polygon class="cls-18" points="34.67 214.29 34.67 207.13 32.12 207.13 32.12 205.68 38.95 205.68 38.95 207.13 36.41 207.13 36.41 214.29 34.67 214.29"></polygon><rect class="cls-5" x="143.92" y="55.74" width="37.9" height="12.94" rx=".86" ry=".86"></rect><path class="cls-7" d="M149.83,48.66h26.07c.99,0,1.8.8,1.8,1.8v23.51c0,.99-.8,1.8-1.8,1.8h-26.07c-.99,0-1.8-.8-1.8-1.8v-23.51c0-.99.8-1.8,1.8-1.8Z"></path><path class="cls-10" d="M162.87,72.72c5.79,0,10.52-4.72,10.52-10.52s-4.72-10.52-10.52-10.52-10.52,4.72-10.52,10.52,4.72,10.52,10.52,10.52Z"></path><path class="cls-2" d="M162.87,65.06c1.57,0,2.85-1.28,2.85-2.85s-1.28-2.85-2.85-2.85-2.85,1.28-2.85,2.85,1.28,2.85,2.85,2.85Z"></path><path class="cls-9" d="M.5,86.96h67.14v17.6h-14.62c-.54,0-.98.44-.98.98v16c0,.54.44.98.98.98h14.62v23.68h-14.62c-.54,0-.98.44-.98.98v16c0,.54.44.98.98.98h14.62v17.6H.5v-94.79Z"></path><rect class="cls-8" x="34.68" y="108.28" width="8.92" height="13.8" rx=".49" ry=".49"></rect><rect class="cls-8" x="34.68" y="146.63" width="8.92" height="13.8" rx=".49" ry=".49"></rect><path class="cls-18" d="M16.46,61.5h2.18v5.82c0,.93.03,1.52.08,1.8.09.44.31.8.66,1.06.35.27.82.4,1.42.4s1.07-.12,1.38-.38c.31-.25.5-.56.56-.93.06-.37.09-.98.09-1.83v-5.95h2.18v5.65c0,1.29-.06,2.2-.17,2.74-.12.53-.33.98-.65,1.35-.31.37-.73.66-1.26.88-.53.22-1.21.33-2.06.33-1.02,0-1.8-.12-2.33-.36-.53-.24-.95-.55-1.25-.92-.31-.38-.51-.78-.61-1.19-.14-.62-.21-1.53-.21-2.73v-5.74Z"></path><path class="cls-18" d="M26.72,68.76l2.12-.21c.13.71.38,1.23.77,1.56.39.33.91.5,1.57.5.69,0,1.22-.15,1.57-.44.35-.3.53-.64.53-1.04,0-.26-.08-.47-.22-.65-.15-.18-.41-.33-.78-.46-.25-.09-.83-.24-1.73-.47-1.16-.29-1.97-.65-2.44-1.07-.66-.59-.99-1.32-.99-2.17,0-.55.16-1.06.46-1.54.31-.48.76-.84,1.34-1.09.58-.25,1.28-.38,2.11-.38,1.34,0,2.36.3,3.03.9.68.6,1.04,1.39,1.07,2.39l-2.18.08c-.09-.55-.29-.95-.59-1.2-.3-.24-.76-.37-1.36-.37s-1.12.13-1.47.39c-.23.17-.34.39-.34.67,0,.25.11.47.32.65.27.23.94.47,1.99.72,1.05.25,1.83.51,2.33.77.51.27.9.63,1.19,1.09.28.46.43,1.03.43,1.71,0,.62-.17,1.19-.51,1.73-.34.54-.83.94-1.45,1.2-.62.26-1.41.39-2.34.39-1.36,0-2.4-.31-3.13-.94-.73-.62-1.16-1.54-1.3-2.74Z"></path><polygon class="cls-18" points="37.3 72.24 37.3 61.5 45.25 61.5 45.25 63.32 39.48 63.32 39.48 65.7 44.85 65.7 44.85 67.52 39.48 67.52 39.48 70.43 45.46 70.43 45.46 72.24 37.3 72.24"></polygon><path class="cls-18" d="M47.31,72.24v-10.74h4.57c1.15,0,1.98.1,2.5.29.52.19.94.53,1.25,1.03.31.5.47,1.06.47,1.69,0,.81-.23,1.47-.71,2-.47.53-1.18.86-2.12.99.47.27.85.57,1.16.9.31.33.72.91,1.23,1.75l1.31,2.1h-2.59l-1.56-2.35c-.56-.83-.94-1.36-1.15-1.58-.2-.21-.42-.36-.65-.45-.23-.08-.6-.12-1.1-.12h-.44v4.49h-2.18ZM49.48,66.05h1.61c1.04,0,1.69-.05,1.95-.13.26-.09.46-.24.61-.46.15-.21.22-.49.22-.81,0-.36-.1-.65-.29-.88-.19-.22-.47-.36-.82-.42-.18-.03-.71-.04-1.58-.04h-1.69v2.73Z"></path></svg>