<svg xmlns="http://www.w3.org/2000/svg" viewBox="502.65 765.65 1000.06 433.43"><defs><style>.cls-1{fill:#8e8d8e;}.cls-2{fill:#cccccb;}.cls-3{fill:#ddd;}.cls-4{fill:#2b2b2b;}.cls-5{fill:#383839;}.cls-6{fill:#599cbd;}.cls-10,.cls-11,.cls-14,.cls-7,.cls-9{fill:none;stroke-miterlimit:10;}.cls-7{stroke:#fff;}.cls-10,.cls-14,.cls-7{stroke-width:1.65px;}.cls-8{fill:#cbcccb;}.cls-10,.cls-11,.cls-9{stroke:#050606;}.cls-9{stroke-width:2px;}.cls-11{stroke-width:1.67px;}.cls-12{fill:#fff;}.cls-13{fill:#eecc42;}.cls-14{stroke:#eecc42;}</style></defs><g id="Layer_4" data-name="Layer 4"><path class="cls-1" d="M554.23,774h907.26a0,0,0,0,1,0,0v415.1a0,0,0,0,1,0,0H554.23a32.53,32.53,0,0,1-32.53-32.53v-350A32.53,32.53,0,0,1,554.23,774Z"></path><path class="cls-2" d="M1363,985.65v82.44a8.42,8.42,0,0,0,8.42,8.42h75.41a18.61,18.61,0,0,1,18.61,18.62v82.15a20.79,20.79,0,0,1-20.79,20.79h-37.14a15,15,0,0,1-15-15v-40.46a23.46,23.46,0,0,0-23.46-23.47h-22.26a4.57,4.57,0,0,0-4.57,4.58h0a4.57,4.57,0,0,0,4.57,4.57h22.31a15.19,15.19,0,0,1,15.19,15.19V1181a17.08,17.08,0,0,1-17.08,17.08H549a45.49,45.49,0,0,1-45.35-42h37.39a57.24,57.24,0,0,0,57.24-57.23V864.62a57.24,57.24,0,0,0-57.24-57.23H503.79A45.49,45.49,0,0,1,549,766.65h818.24a17.08,17.08,0,0,1,17.08,17.08v37.46a15.19,15.19,0,0,1-15.19,15.18h-22.31a4.57,4.57,0,0,0-4.57,4.58h0a4.57,4.57,0,0,0,4.57,4.57h22.26a23.46,23.46,0,0,0,23.46-23.46V781.6a15,15,0,0,1,15-15h37.14a20.79,20.79,0,0,1,20.79,20.79v82.15a18.62,18.62,0,0,1-18.61,18.62h-75.41a8.41,8.41,0,0,0-8.42,8.41v89Z"></path><path class="cls-3" d="M1363,897.36h130.87a8,8,0,0,1,8,8v155.38a8,8,0,0,1-8,8H1363a0,0,0,0,1,0,0V897.36A0,0,0,0,1,1363,897.36Z"></path><rect class="cls-4" x="1404.64" y="937.34" width="10.03" height="22.38"></rect><rect class="cls-4" x="1404.64" y="1003.72" width="10.03" height="22.38"></rect><rect class="cls-4" x="1363.01" y="1001.56" width="23.63" height="34.15"></rect><rect class="cls-4" x="1363.01" y="930.05" width="23.63" height="34.15"></rect><path class="cls-5" d="M598.31,864.62v234.21a57.24,57.24,0,0,1-57.24,57.23H521.7V807.39h19.37A57.24,57.24,0,0,1,598.31,864.62Z"></path><rect class="cls-5" x="728.25" y="817.13" width="158.2" height="330.36"></rect><path class="cls-6" d="M572.27,1146.81v-26.49a1.33,1.33,0,0,0-1.33-1.33H540.27a1.33,1.33,0,0,0-1.33,1.33v35.74a43.86,43.86,0,0,0,15.13-1.49C561.47,1152.31,572.27,1146.81,572.27,1146.81Z"></path><path class="cls-7" d="M538.94,1156.06v-35.74a1.33,1.33,0,0,1,1.33-1.33h30.67a1.33,1.33,0,0,1,1.33,1.33v26.49"></path><path class="cls-8" d="M528.57,837.41h3.59a0,0,0,0,1,0,0v38.22a0,0,0,0,1,0,0h-3.59a3,3,0,0,1-3-3V840.39A3,3,0,0,1,528.57,837.41Z"></path><path class="cls-9" d="M503.68,1156.06h37.39a57.24,57.24,0,0,0,57.24-57.23V864.62a57.24,57.24,0,0,0-57.24-57.23H503.79"></path><line class="cls-10" x1="521.7" y1="807.39" x2="521.7" y2="1156.06"></line><path class="cls-9" d="M1363,979.06V896.62a8.41,8.41,0,0,1,8.42-8.41h75.41a18.62,18.62,0,0,0,18.61-18.62V787.44a20.79,20.79,0,0,0-20.79-20.79h-37.14a15,15,0,0,0-15,15v40.46a23.46,23.46,0,0,1-23.46,23.46h-22.26a4.57,4.57,0,0,1-4.57-4.57h0a4.57,4.57,0,0,1,4.57-4.58h22.31a15.19,15.19,0,0,0,15.19-15.18V783.73a17.08,17.08,0,0,0-17.08-17.08H549a45.49,45.49,0,0,0-45.24,40.74"></path><path class="cls-9" d="M1363,985.65v82.44a8.42,8.42,0,0,0,8.42,8.42h75.41a18.61,18.61,0,0,1,18.61,18.62v82.15a20.79,20.79,0,0,1-20.79,20.79h-37.14a15,15,0,0,1-15-15v-40.46a23.46,23.46,0,0,0-23.46-23.47h-22.26a4.57,4.57,0,0,0-4.57,4.58h0a4.57,4.57,0,0,0,4.57,4.57h22.31a15.19,15.19,0,0,1,15.19,15.19V1181a17.08,17.08,0,0,1-17.08,17.08H549a45.49,45.49,0,0,1-45.35-42"></path><path class="cls-7" d="M618.9,981.73V862.12a6.16,6.16,0,0,1,6.16-6.17h87.49A10.48,10.48,0,0,0,723,845.48v-28a7.08,7.08,0,0,1,7.08-7.08H833.83A14.5,14.5,0,0,0,844,806.25l23.23-22.52a15.93,15.93,0,0,1,11.11-4.5h273.84a16,16,0,0,1,11.73,5.13l19.69,21.32a14.55,14.55,0,0,0,10.69,4.68h122.44a5.85,5.85,0,0,1,5.86,5.85v331.55a5.86,5.86,0,0,1-5.86,5.86H730.11a7.08,7.08,0,0,1-7.08-7.08v-74A10.48,10.48,0,0,0,712.55,1062H625.06a6.16,6.16,0,0,1-6.16-6.16V982.25"></path><circle class="cls-7" cx="1012.63" cy="1176.42" r="15.95"></circle><circle class="cls-7" cx="1347.86" cy="1165.18" r="15.95"></circle><circle class="cls-7" cx="1347.86" cy="801.82" r="15.95"></circle><rect class="cls-7" x="1406.28" y="1109.79" width="43.15" height="63.43" rx="21.58"></rect><rect class="cls-7" x="1406.28" y="796.41" width="43.15" height="63.43" rx="21.58"></rect><path class="cls-11" d="M1363,897.36h130.87a8,8,0,0,1,8,8v155.38a8,8,0,0,1-8,8H1363a0,0,0,0,1,0,0V897.36A0,0,0,0,1,1363,897.36Z"></path><rect class="cls-11" x="1404.64" y="937.34" width="10.03" height="22.38"></rect><rect class="cls-11" x="1404.64" y="1003.72" width="10.03" height="22.38"></rect><rect class="cls-11" x="1363.01" y="1001.56" width="23.63" height="34.15"></rect><rect class="cls-11" x="1363.01" y="930.05" width="23.63" height="34.15"></rect><line class="cls-11" x1="1461.49" y1="881.06" x2="1461.49" y2="897.36"></line><line class="cls-11" x1="1461.49" y1="1068.83" x2="1461.49" y2="1083.65"></line><line class="cls-11" x1="1381.33" y1="774.04" x2="1394.21" y2="774.04"></line><line class="cls-11" x1="1382.28" y1="1189.14" x2="1394.21" y2="1189.14"></line><rect class="cls-12" x="532.16" y="831.98" width="49.07" height="49.07" rx="2.75"></rect><rect class="cls-10" x="532.16" y="831.98" width="49.07" height="49.07" rx="2.75"></rect><circle class="cls-13" cx="556.69" cy="856.52" r="9.63"></circle><circle class="cls-14" cx="556.69" cy="856.52" r="19.11"></circle><path class="cls-10" d="M528.57,837.41h3.59a0,0,0,0,1,0,0v38.22a0,0,0,0,1,0,0h-3.59a3,3,0,0,1-3-3V840.39A3,3,0,0,1,528.57,837.41Z"></path><path class="cls-8" d="M584.21,837.41h3.59a0,0,0,0,1,0,0v38.22a0,0,0,0,1,0,0h-3.59a3,3,0,0,1-3-3V840.39A3,3,0,0,1,584.21,837.41Z" transform="translate(1169.02 1713.04) rotate(-180)"></path><path class="cls-10" d="M584.21,837.41h3.59a0,0,0,0,1,0,0v38.22a0,0,0,0,1,0,0h-3.59a3,3,0,0,1-3-3V840.39A3,3,0,0,1,584.21,837.41Z" transform="translate(1169.02 1713.04) rotate(-180)"></path><rect class="cls-7" x="525.59" y="961.1" width="31.1" height="17.96" rx="0.79"></rect><rect class="cls-7" x="525.59" y="985.65" width="31.1" height="17.96" rx="0.79"></rect><path class="cls-12" d="M576.68,978.9h-2V962h2Zm8.64-7.59H575.6v-1.93h9.72Zm1.3,7.59h-2V962h2Z"></path><path class="cls-12" d="M569.32,978.9h-9.47V977h9.47Zm0-7.7h-8.19v-1.9h8.19Zm1.16,7.7h-2V962h2Z"></path><path class="cls-12" d="M585.44,988.92h-9.67V987h9.67Zm1.18,15h-2V987h2Z"></path><path class="cls-12" d="M571.82,1003.9h-9.46V1002h9.46Zm0-7.7h-8.19v-1.9h8.19Zm1.17,7.7h-2V987h2Z"></path><rect class="cls-8" x="530.71" y="989.79" width="5.58" height="9.68" rx="1.05"></rect><rect class="cls-8" x="546" y="989.79" width="5.58" height="9.68" rx="1.05"></rect><rect class="cls-8" x="530.71" y="965.24" width="5.58" height="9.68" rx="1.05"></rect><rect class="cls-8" x="556.69" y="913.16" width="5.58" height="9.68" rx="1.05"></rect><rect class="cls-8" x="583.14" y="913.16" width="5.58" height="9.68" rx="1.05"></rect><rect class="cls-8" x="546" y="965.24" width="5.58" height="9.68" rx="1.05"></rect><path class="cls-7" d="M552.28,913.61v-5.5a1.36,1.36,0,0,1,1.36-1.36H590.7a1.36,1.36,0,0,1,1.36,1.36v5.5"></path><path class="cls-7" d="M565.9,922.84v5.63a1.36,1.36,0,0,1-1.37,1.36H553.64a1.36,1.36,0,0,1-1.36-1.36v-5.63"></path><rect class="cls-8" x="541.49" y="1082.41" width="5.58" height="9.68" rx="1.05" transform="translate(1697.94 1471.19) rotate(135)"></rect><path class="cls-7" d="M536.32,1088.36l-4-4a1.36,1.36,0,0,1,0-1.92l7.7-7.7a1.35,1.35,0,0,1,1.93,0l4,4"></path><rect class="cls-8" x="571.96" y="1050.39" width="5.58" height="9.68" rx="1.05" transform="translate(1727.32 1394.99) rotate(135)"></rect><rect class="cls-8" x="583.85" y="1059.62" width="5.58" height="9.68" rx="1.05" transform="translate(1754.13 1402.34) rotate(135)"></rect><rect class="cls-8" x="574.63" y="1068.83" width="5.58" height="9.68" rx="1.05" transform="translate(1744.92 1424.58) rotate(135)"></rect><rect class="cls-8" x="561.03" y="1083.6" width="5.58" height="9.68" rx="1.05" transform="translate(1732.15 1459.41) rotate(135)"></rect><rect class="cls-8" x="551.82" y="1092.82" width="5.58" height="9.68" rx="1.05" transform="translate(1722.93 1481.65) rotate(135)"></rect><path class="cls-7" d="M566.79,1056.35l-4-4a1.36,1.36,0,0,1,0-1.92l7.71-7.71a1.36,1.36,0,0,1,1.92,0l4,4"></path><path class="cls-7" d="M592.06,922.84v5.63a1.36,1.36,0,0,1-1.36,1.36H581a1.36,1.36,0,0,1-1.36-1.36v-5.63"></path><line class="cls-7" x1="565.9" y1="918.69" x2="579.63" y2="918.69"></line><path class="cls-7" d="M551,1103.25l3.72,3.21a3.16,3.16,0,0,0,4.33-.19l35.69-36.8a3.15,3.15,0,0,0,0-4.44l-3.79-3.76"></path><line class="cls-7" x1="573.31" y1="1065.02" x2="553.89" y2="1084.25"></line><path class="cls-7" d="M569.42,1116.78V1115a1.89,1.89,0,0,0-1.89-1.89h-23.2a1.88,1.88,0,0,0-1.89,1.89v1.8"></path><rect class="cls-12" x="542.44" y="1121.36" width="26.13" height="7.79"></rect><rect class="cls-4" x="790.91" y="817.13" width="522.47" height="330.36"></rect></g></svg>