<svg xmlns="http://www.w3.org/2000/svg" viewBox="414.94 705.08 1261.67 601.22"><defs><style>.cls-1{fill:#e8eae8;}.cls-2{fill:#cbcccb;}.cls-3{fill:#232323;}.cls-4{fill:#808181;}.cls-5{fill:#2b2b2b;}.cls-6{fill:#434143;}.cls-7{fill:#231f20;}.cls-10,.cls-12,.cls-17,.cls-18,.cls-19,.cls-22,.cls-23,.cls-8{fill:none;stroke-miterlimit:10;}.cls-10,.cls-17,.cls-18,.cls-8{stroke:#050606;}.cls-8{stroke-width:2.67px;}.cls-9{fill:#b7b7b7;}.cls-10{stroke-width:1.74px;}.cls-11{fill:#fdfaf5;}.cls-12,.cls-23{stroke:#c08c2d;}.cls-12{stroke-width:2.3px;}.cls-13{fill:#c08c2d;}.cls-14{fill:#574841;}.cls-15{fill:#2d2c2b;}.cls-16{fill:#606161;}.cls-17{stroke-width:1.15px;}.cls-18{stroke-width:1.45px;}.cls-19{stroke:#848484;}.cls-19,.cls-22{stroke-width:1.72px;}.cls-20{fill:#353535;}.cls-21{fill:#e4ea95;}.cls-22{stroke:#212121;}.cls-23{stroke-width:3.78px;}</style></defs><g id="Layer_5" data-name="Layer 5"><polyline class="cls-1" points="1583.53 1216.42 1675.28 1124.65 1675.28 886.76 1583.53 794.99"></polyline><polyline class="cls-1" points="465.37 897.59 440.68 872.9 440.68 770.16 504.4 706.42 1583.53 706.42 1583.53 1304.97 504.4 1304.97 440.68 1241.23 440.68 1133.27 460.13 1113.82"></polyline><polygon class="cls-2" points="416.28 897.59 605.46 897.59 605.46 936.72 560.81 936.72 560.81 977.86 605.46 977.86 605.46 1033.53 560.81 1033.53 560.81 1074.67 605.46 1074.67 605.46 1113.82 416.28 1113.82 416.28 897.59"></polygon><rect class="cls-3" x="521.82" y="946.65" width="16.32" height="31.18"></rect><rect class="cls-3" x="560.81" y="936.72" width="44.65" height="41.11"></rect><rect class="cls-3" x="560.81" y="1033.54" width="44.65" height="41.11"></rect><rect class="cls-3" x="521.82" y="1033.29" width="16.32" height="31.18"></rect><rect class="cls-3" x="766.53" y="1081.65" width="16.24" height="12.94"></rect><rect class="cls-3" x="745" y="1135.95" width="27.89" height="44.76"></rect><path class="cls-4" d="M605.46,1088.11h14.46a3.37,3.37,0,0,1,3.37,3.37v0a3.37,3.37,0,0,1-3.37,3.37H605.46a0,0,0,0,1,0,0v-6.75A0,0,0,0,1,605.46,1088.11Z"></path><path class="cls-4" d="M605.46,1072.23h14.46a3.37,3.37,0,0,1,3.37,3.37v0a3.37,3.37,0,0,1-3.37,3.37H605.46a0,0,0,0,1,0,0v-6.75A0,0,0,0,1,605.46,1072.23Z"></path><path class="cls-4" d="M605.46,1056.34h14.46a3.37,3.37,0,0,1,3.37,3.37v0a3.37,3.37,0,0,1-3.37,3.37H605.46a0,0,0,0,1,0,0v-6.75A0,0,0,0,1,605.46,1056.34Z"></path><path class="cls-4" d="M605.46,1040.45h14.46a3.37,3.37,0,0,1,3.37,3.37v0a3.37,3.37,0,0,1-3.37,3.37H605.46a0,0,0,0,1,0,0v-6.75a0,0,0,0,1,0,0Z"></path><path class="cls-4" d="M605.46,1024.56h14.46a3.37,3.37,0,0,1,3.37,3.37v0a3.37,3.37,0,0,1-3.37,3.37H605.46a0,0,0,0,1,0,0v-6.75A0,0,0,0,1,605.46,1024.56Z"></path><path class="cls-4" d="M605.46,1008.67h14.46a3.37,3.37,0,0,1,3.37,3.37v0a3.37,3.37,0,0,1-3.37,3.37H605.46a0,0,0,0,1,0,0v-6.75A0,0,0,0,1,605.46,1008.67Z"></path><path class="cls-4" d="M605.46,992.78h14.46a3.37,3.37,0,0,1,3.37,3.37v0a3.37,3.37,0,0,1-3.37,3.37H605.46a0,0,0,0,1,0,0v-6.75A0,0,0,0,1,605.46,992.78Z"></path><path class="cls-4" d="M605.46,976.89h14.46a3.37,3.37,0,0,1,3.37,3.37v0a3.37,3.37,0,0,1-3.37,3.37H605.46a0,0,0,0,1,0,0v-6.75A0,0,0,0,1,605.46,976.89Z"></path><path class="cls-4" d="M605.46,961h14.46a3.37,3.37,0,0,1,3.37,3.37v0a3.37,3.37,0,0,1-3.37,3.37H605.46a0,0,0,0,1,0,0V961a0,0,0,0,1,0,0Z"></path><path class="cls-4" d="M605.46,945.12h14.46a3.37,3.37,0,0,1,3.37,3.37v0a3.37,3.37,0,0,1-3.37,3.37H605.46a0,0,0,0,1,0,0v-6.75a0,0,0,0,1,0,0Z"></path><path class="cls-4" d="M605.46,929.23h14.46a3.37,3.37,0,0,1,3.37,3.37v0a3.37,3.37,0,0,1-3.37,3.37H605.46a0,0,0,0,1,0,0v-6.75A0,0,0,0,1,605.46,929.23Z"></path><path class="cls-4" d="M605.46,913.34h14.46a3.37,3.37,0,0,1,3.37,3.37v0a3.37,3.37,0,0,1-3.37,3.37H605.46a0,0,0,0,1,0,0v-6.75a0,0,0,0,1,0,0Z"></path><rect class="cls-5" x="868.04" y="794.99" width="630.2" height="338.54"></rect><rect class="cls-5" x="1057.51" y="1241.44" width="254.32" height="51.78"></rect><path class="cls-5" d="M1001.46,1151.05v74a9,9,0,0,0,9,9h39.93a7.17,7.17,0,0,1,7.16,7.16v.3h254.32a7.15,7.15,0,0,1,7.16-7.16h39.93a9,9,0,0,0,9-9v-74.26Z"></path><rect class="cls-6" x="868.32" y="1133.56" width="629.91" height="17.49"></rect><rect class="cls-6" x="868.32" y="775.89" width="629.91" height="17.49"></rect><rect class="cls-5" x="1594.48" y="896.56" width="65.82" height="52.15"></rect><circle class="cls-5" cx="531.52" cy="1138.97" r="7.77"></circle><circle class="cls-5" cx="470.12" cy="861.48" r="7.77"></circle><circle class="cls-5" cx="675.84" cy="1101.29" r="7.78"></circle><circle class="cls-5" cx="675.84" cy="945.12" r="7.78"></circle><path class="cls-7" d="M497.33,880.24V856.59h8.92a21.56,21.56,0,0,1,3.6.23,7.15,7.15,0,0,1,2.92,1.1,5.87,5.87,0,0,1,1.89,2.28,7.69,7.69,0,0,1-1.2,8.33c-1.28,1.4-3.59,2.09-6.93,2.09h-6.07v9.62Zm3.13-12.41h6.11c2,0,3.46-.37,4.31-1.13a4,4,0,0,0,1.27-3.17,4.26,4.26,0,0,0-.75-2.54,3.48,3.48,0,0,0-2-1.4,13.37,13.37,0,0,0-2.92-.21h-6.05Z"></path><path class="cls-7" d="M519.41,880.24V856.59H529.9a13.78,13.78,0,0,1,4.8.64,5.18,5.18,0,0,1,2.63,2.25,6.66,6.66,0,0,1,1,3.56,6,6,0,0,1-1.63,4.24,8.21,8.21,0,0,1-5,2.2,8.07,8.07,0,0,1,1.89,1.18,15.8,15.8,0,0,1,2.6,3.14l4.11,6.44h-3.93l-3.13-4.92c-.92-1.42-1.67-2.51-2.26-3.26a7.05,7.05,0,0,0-1.59-1.58,4.74,4.74,0,0,0-1.43-.63,9,9,0,0,0-1.74-.11h-3.63v10.5ZM522.54,867h6.73a9.9,9.9,0,0,0,3.35-.45,3.54,3.54,0,0,0,1.84-1.42,3.81,3.81,0,0,0,.63-2.12,3.53,3.53,0,0,0-1.22-2.76A5.68,5.68,0,0,0,530,859.2h-7.49Z"></path><path class="cls-7" d="M554.28,871v-2.77l10,0V877a17.82,17.82,0,0,1-4.76,2.76,14,14,0,0,1-5,.93,13.49,13.49,0,0,1-6.33-1.49,9.86,9.86,0,0,1-4.3-4.32,13.53,13.53,0,0,1-1.45-6.3,14.71,14.71,0,0,1,1.44-6.45,9.61,9.61,0,0,1,4.16-4.44,13,13,0,0,1,6.24-1.45,12.29,12.29,0,0,1,4.64.83,7.59,7.59,0,0,1,3.24,2.31,10.23,10.23,0,0,1,1.8,3.87l-2.83.78a8.55,8.55,0,0,0-1.32-2.84,5.39,5.39,0,0,0-2.26-1.65,8.17,8.17,0,0,0-3.26-.63,9.53,9.53,0,0,0-3.71.66,6.87,6.87,0,0,0-2.52,1.72,8,8,0,0,0-1.49,2.33,12.45,12.45,0,0,0-.9,4.76,11.62,11.62,0,0,0,1.08,5.29,7,7,0,0,0,3.17,3.16,9.8,9.8,0,0,0,4.42,1,11.56,11.56,0,0,0,6.91-2.45V871Z"></path><path class="cls-7" d="M550.39,1151.05V1127.4h8.92a21.56,21.56,0,0,1,3.6.23,7.15,7.15,0,0,1,2.92,1.1,5.79,5.79,0,0,1,1.89,2.28,7.69,7.69,0,0,1-1.2,8.33c-1.28,1.4-3.59,2.09-6.93,2.09h-6.07v9.62Zm3.13-12.41h6.12c2,0,3.45-.37,4.3-1.13a4,4,0,0,0,1.28-3.17,4.26,4.26,0,0,0-.75-2.54,3.51,3.51,0,0,0-2-1.4,13.37,13.37,0,0,0-2.92-.21h-6.05Z"></path><path class="cls-7" d="M571.36,1143.45l2.95-.26a6.46,6.46,0,0,0,1,2.91,5.3,5.3,0,0,0,2.38,1.84,8.94,8.94,0,0,0,3.63.7,8.58,8.58,0,0,0,3.16-.53,4.38,4.38,0,0,0,2-1.46,3.36,3.36,0,0,0,.67-2,3.12,3.12,0,0,0-.65-2,4.77,4.77,0,0,0-2.12-1.39,41,41,0,0,0-4.22-1.15,22.07,22.07,0,0,1-4.56-1.48,6.39,6.39,0,0,1-2.52-2.2,5.36,5.36,0,0,1-.83-3,6,6,0,0,1,1-3.34,6.33,6.33,0,0,1,3-2.37,11.41,11.41,0,0,1,4.34-.8,11.78,11.78,0,0,1,4.64.85,6.65,6.65,0,0,1,3.08,2.49,7.21,7.21,0,0,1,1.17,3.72l-3,.23a4.87,4.87,0,0,0-1.64-3.39,6.4,6.4,0,0,0-4.12-1.14,6.58,6.58,0,0,0-4.14,1,3.1,3.1,0,0,0-1.3,2.5,2.71,2.71,0,0,0,.92,2.1c.6.55,2.18,1.11,4.72,1.69a30.73,30.73,0,0,1,5.23,1.5,7.18,7.18,0,0,1,3.05,2.42,5.83,5.83,0,0,1,1,3.36,6.47,6.47,0,0,1-1.09,3.56,7.11,7.11,0,0,1-3.1,2.59,10.8,10.8,0,0,1-4.56.93,13.51,13.51,0,0,1-5.38-.94,7.53,7.53,0,0,1-3.4-2.81A8.06,8.06,0,0,1,571.36,1143.45Z"></path><path class="cls-7" d="M600.48,1151.05v-20.86h-7.79v-2.79h18.74v2.79h-7.82v20.86Z"></path></g><g id="Layer_2" data-name="Layer 2"><polyline class="cls-8" points="1583.53 1216.42 1675.28 1124.65 1675.28 886.76 1583.53 794.99"></polyline><circle class="cls-9" cx="1551.3" cy="1277.88" r="15.34"></circle><circle class="cls-4" cx="1551.3" cy="1277.88" r="7.58"></circle><circle class="cls-10" cx="1551.3" cy="1277.88" r="15.34"></circle><circle class="cls-10" cx="1551.3" cy="1277.88" r="7.58"></circle><circle class="cls-9" cx="1490.66" cy="1277.88" r="15.34"></circle><circle class="cls-4" cx="1490.66" cy="1277.88" r="7.58"></circle><circle class="cls-10" cx="1490.66" cy="1277.88" r="15.34"></circle><circle class="cls-10" cx="1490.66" cy="1277.88" r="7.58"></circle><circle class="cls-9" cx="1430.03" cy="1277.88" r="15.34"></circle><circle class="cls-4" cx="1430.03" cy="1277.88" r="7.58"></circle><circle class="cls-10" cx="1430.03" cy="1277.88" r="15.34"></circle><circle class="cls-10" cx="1430.03" cy="1277.88" r="7.58"></circle><circle class="cls-9" cx="1369.39" cy="1277.88" r="15.34"></circle><circle class="cls-4" cx="1369.39" cy="1277.88" r="7.58"></circle><circle class="cls-10" cx="1369.39" cy="1277.88" r="15.34"></circle><circle class="cls-10" cx="1369.39" cy="1277.88" r="7.58"></circle><circle class="cls-9" cx="1009.03" cy="1277.88" r="15.34"></circle><circle class="cls-4" cx="1009.03" cy="1277.88" r="7.58"></circle><circle class="cls-10" cx="1009.03" cy="1277.88" r="15.34"></circle><circle class="cls-10" cx="1009.03" cy="1277.88" r="7.58"></circle><circle class="cls-9" cx="948.39" cy="1277.88" r="15.34"></circle><circle class="cls-4" cx="948.39" cy="1277.88" r="7.58"></circle><circle class="cls-10" cx="948.39" cy="1277.88" r="15.34"></circle><circle class="cls-10" cx="948.39" cy="1277.88" r="7.58"></circle><circle class="cls-9" cx="887.76" cy="1277.88" r="15.34"></circle><circle class="cls-4" cx="887.76" cy="1277.88" r="7.58"></circle><circle class="cls-10" cx="887.76" cy="1277.88" r="15.34"></circle><circle class="cls-10" cx="887.76" cy="1277.88" r="7.58"></circle><circle class="cls-9" cx="827.12" cy="1277.88" r="15.34"></circle><circle class="cls-4" cx="827.12" cy="1277.88" r="7.58"></circle><circle class="cls-10" cx="827.12" cy="1277.88" r="15.34"></circle><circle class="cls-10" cx="827.12" cy="1277.88" r="7.58"></circle><circle class="cls-9" cx="766.49" cy="1277.88" r="15.34"></circle><circle class="cls-4" cx="766.49" cy="1277.88" r="7.58"></circle><circle class="cls-10" cx="766.49" cy="1277.88" r="15.34"></circle><circle class="cls-10" cx="766.49" cy="1277.88" r="7.58"></circle><circle class="cls-9" cx="705.85" cy="1277.88" r="15.34"></circle><circle class="cls-4" cx="705.85" cy="1277.88" r="7.58"></circle><circle class="cls-10" cx="705.85" cy="1277.88" r="15.34"></circle><circle class="cls-10" cx="705.85" cy="1277.88" r="7.58"></circle><circle class="cls-9" cx="645.22" cy="1277.88" r="15.34"></circle><circle class="cls-4" cx="645.22" cy="1277.88" r="7.58"></circle><circle class="cls-10" cx="645.22" cy="1277.88" r="15.34"></circle><circle class="cls-10" cx="645.22" cy="1277.88" r="7.58"></circle><circle class="cls-9" cx="584.58" cy="1277.88" r="15.34"></circle><circle class="cls-4" cx="584.58" cy="1277.88" r="7.58"></circle><circle class="cls-10" cx="584.58" cy="1277.88" r="15.34"></circle><circle class="cls-10" cx="584.58" cy="1277.88" r="7.58"></circle><circle class="cls-9" cx="523.95" cy="1277.88" r="15.34"></circle><circle class="cls-4" cx="523.95" cy="1277.88" r="7.58"></circle><circle class="cls-10" cx="523.95" cy="1277.88" r="15.34"></circle><circle class="cls-10" cx="523.95" cy="1277.88" r="7.58"></circle><circle class="cls-9" cx="1551.3" cy="729.41" r="15.34"></circle><circle class="cls-4" cx="1551.3" cy="729.41" r="7.58"></circle><circle class="cls-10" cx="1551.3" cy="729.41" r="15.34"></circle><circle class="cls-10" cx="1551.3" cy="729.41" r="7.58"></circle><circle class="cls-9" cx="1490.66" cy="729.41" r="15.34"></circle><circle class="cls-4" cx="1490.66" cy="729.41" r="7.58"></circle><circle class="cls-10" cx="1490.66" cy="729.41" r="15.34"></circle><circle class="cls-10" cx="1490.66" cy="729.41" r="7.58"></circle><circle class="cls-9" cx="1430.03" cy="729.41" r="15.34"></circle><circle class="cls-4" cx="1430.03" cy="729.41" r="7.58"></circle><circle class="cls-10" cx="1430.03" cy="729.41" r="15.34"></circle><circle class="cls-10" cx="1430.03" cy="729.41" r="7.58"></circle><circle class="cls-9" cx="1369.39" cy="729.41" r="15.34"></circle><circle class="cls-4" cx="1369.39" cy="729.41" r="7.58"></circle><circle class="cls-10" cx="1369.39" cy="729.41" r="15.34"></circle><circle class="cls-10" cx="1369.39" cy="729.41" r="7.58"></circle><circle class="cls-9" cx="1308.76" cy="729.41" r="15.34"></circle><circle class="cls-4" cx="1308.76" cy="729.41" r="7.58"></circle><circle class="cls-10" cx="1308.76" cy="729.41" r="15.34"></circle><circle class="cls-10" cx="1308.76" cy="729.41" r="7.58"></circle><circle class="cls-9" cx="1248.12" cy="729.41" r="15.34"></circle><circle class="cls-4" cx="1248.12" cy="729.41" r="7.58"></circle><circle class="cls-10" cx="1248.12" cy="729.41" r="15.34"></circle><circle class="cls-10" cx="1248.12" cy="729.41" r="7.58"></circle><circle class="cls-9" cx="1187.49" cy="729.41" r="15.34"></circle><circle class="cls-4" cx="1187.49" cy="729.41" r="7.58"></circle><circle class="cls-10" cx="1187.49" cy="729.41" r="15.34"></circle><circle class="cls-10" cx="1187.49" cy="729.41" r="7.58"></circle><circle class="cls-9" cx="1126.85" cy="729.41" r="15.34"></circle><circle class="cls-4" cx="1126.85" cy="729.41" r="7.58"></circle><circle class="cls-10" cx="1126.85" cy="729.41" r="15.34"></circle><circle class="cls-10" cx="1126.85" cy="729.41" r="7.58"></circle><circle class="cls-9" cx="1066.22" cy="729.41" r="15.34"></circle><circle class="cls-4" cx="1066.22" cy="729.41" r="7.58"></circle><circle class="cls-10" cx="1066.22" cy="729.41" r="15.34"></circle><circle class="cls-10" cx="1066.22" cy="729.41" r="7.58"></circle><circle class="cls-9" cx="1009.03" cy="729.41" r="15.34"></circle><circle class="cls-4" cx="1009.03" cy="729.41" r="7.58"></circle><circle class="cls-10" cx="1009.03" cy="729.41" r="15.34"></circle><circle class="cls-10" cx="1009.03" cy="729.41" r="7.58"></circle><circle class="cls-9" cx="948.39" cy="729.41" r="15.34"></circle><circle class="cls-4" cx="948.39" cy="729.41" r="7.58"></circle><circle class="cls-10" cx="948.39" cy="729.41" r="15.34"></circle><circle class="cls-10" cx="948.39" cy="729.41" r="7.58"></circle><circle class="cls-9" cx="887.76" cy="729.41" r="15.34"></circle><circle class="cls-4" cx="887.76" cy="729.41" r="7.58"></circle><circle class="cls-10" cx="887.76" cy="729.41" r="15.34"></circle><circle class="cls-10" cx="887.76" cy="729.41" r="7.58"></circle><circle class="cls-9" cx="827.12" cy="729.41" r="15.34"></circle><circle class="cls-4" cx="827.12" cy="729.41" r="7.58"></circle><circle class="cls-10" cx="827.12" cy="729.41" r="15.34"></circle><circle class="cls-10" cx="827.12" cy="729.41" r="7.58"></circle><circle class="cls-9" cx="766.49" cy="729.41" r="15.34"></circle><circle class="cls-4" cx="766.49" cy="729.41" r="7.58"></circle><circle class="cls-10" cx="766.49" cy="729.41" r="15.34"></circle><circle class="cls-10" cx="766.49" cy="729.41" r="7.58"></circle><circle class="cls-9" cx="705.85" cy="729.41" r="15.34"></circle><circle class="cls-4" cx="705.85" cy="729.41" r="7.58"></circle><circle class="cls-10" cx="705.85" cy="729.41" r="15.34"></circle><circle class="cls-10" cx="705.85" cy="729.41" r="7.58"></circle><circle class="cls-9" cx="645.22" cy="729.41" r="15.34"></circle><circle class="cls-4" cx="645.22" cy="729.41" r="7.58"></circle><circle class="cls-10" cx="645.22" cy="729.41" r="15.34"></circle><circle class="cls-10" cx="645.22" cy="729.41" r="7.58"></circle><circle class="cls-9" cx="584.58" cy="729.41" r="15.34"></circle><circle class="cls-4" cx="584.58" cy="729.41" r="7.58"></circle><circle class="cls-10" cx="584.58" cy="729.41" r="15.34"></circle><circle class="cls-10" cx="584.58" cy="729.41" r="7.58"></circle><circle class="cls-9" cx="523.95" cy="729.41" r="15.34"></circle><circle class="cls-4" cx="523.95" cy="729.41" r="7.58"></circle><circle class="cls-10" cx="523.95" cy="729.41" r="15.34"></circle><circle class="cls-10" cx="523.95" cy="729.41" r="7.58"></circle><rect class="cls-8" x="416.28" y="897.59" width="189.18" height="216.23"></rect><rect class="cls-11" x="1601.47" y="980.51" width="64.59" height="64.62" rx="1.66"></rect><path class="cls-9" d="M1648.61,980.51h-29.68v-6.07a5,5,0,0,1,4.94-5h19.8a5,5,0,0,1,4.94,5Z"></path><path class="cls-9" d="M1643.67,1056.16h-19.8a5,5,0,0,1-4.94-5v-6.07h29.68v6.07A5,5,0,0,1,1643.67,1056.16Z"></path><rect class="cls-10" x="1601.47" y="980.51" width="64.59" height="64.62" rx="1.66"></rect><circle class="cls-12" cx="1633.77" cy="1012.82" r="25.35"></circle><circle class="cls-13" cx="1633.77" cy="1012.82" r="7.69"></circle><path class="cls-10" d="M1648.61,980.51h-29.68v-6.07a5,5,0,0,1,4.94-5h19.8a5,5,0,0,1,4.94,5Z"></path><path class="cls-10" d="M1643.67,1056.16h-19.8a5,5,0,0,1-4.94-5v-6.07h29.68v6.07A5,5,0,0,1,1643.67,1056.16Z"></path><rect class="cls-8" x="560.81" y="936.72" width="44.65" height="41.14"></rect><rect class="cls-8" x="560.81" y="1033.53" width="44.65" height="41.14"></rect><rect class="cls-8" x="521.82" y="1033.53" width="16.92" height="30.7"></rect><rect class="cls-8" x="521.82" y="947.16" width="16.92" height="30.7"></rect><rect class="cls-10" x="1594.48" y="896.56" width="65.82" height="52.15"></rect><rect class="cls-10" x="868.04" y="794.99" width="630.19" height="338.53"></rect><rect class="cls-14" x="475.15" y="776.16" width="98.69" height="64.75" rx="2.83"></rect><path class="cls-9" d="M462.84,790.34h12.29a0,0,0,0,1,0,0v36.38a0,0,0,0,1,0,0H462.84a4.75,4.75,0,0,1-4.75-4.75V795.09A4.75,4.75,0,0,1,462.84,790.34Z"></path><path class="cls-9" d="M578.6,790.34H590.9a0,0,0,0,1,0,0v36.38a0,0,0,0,1,0,0H578.6a4.75,4.75,0,0,1-4.75-4.75V795.09A4.75,4.75,0,0,1,578.6,790.34Z" transform="translate(1164.75 1617.07) rotate(-180)"></path><circle class="cls-15" cx="523.95" cy="808.53" r="23.9"></circle><rect class="cls-15" x="561.02" y="793.49" width="5.34" height="32.56" rx="1.38"></rect><path class="cls-16" d="M552.62,776.16v1.61a2.71,2.71,0,0,1-2.69,2.71H492.49a2.72,2.72,0,0,1-2.72-2.71v-1.61Z"></path><path class="cls-16" d="M489.77,840.91V839.3a2.71,2.71,0,0,1,2.69-2.71h57.45a2.71,2.71,0,0,1,2.71,2.71v1.61Z"></path><rect class="cls-17" x="475.15" y="776.16" width="98.69" height="64.75" rx="2.83"></rect><path class="cls-17" d="M462.84,790.34h12.29a0,0,0,0,1,0,0v36.38a0,0,0,0,1,0,0H462.84a4.75,4.75,0,0,1-4.75-4.75V795.09A4.75,4.75,0,0,1,462.84,790.34Z"></path><path class="cls-17" d="M578.6,790.34H590.9a0,0,0,0,1,0,0v36.38a0,0,0,0,1,0,0H578.6a4.75,4.75,0,0,1-4.75-4.75V795.09A4.75,4.75,0,0,1,578.6,790.34Z" transform="translate(1164.75 1617.07) rotate(-180)"></path><circle class="cls-17" cx="523.95" cy="808.53" r="23.9"></circle><rect class="cls-17" x="561.02" y="793.49" width="5.34" height="32.56" rx="1.38"></rect><path class="cls-17" d="M552.62,776.16v1.61a2.71,2.71,0,0,1-2.69,2.71H492.49a2.72,2.72,0,0,1-2.72-2.71v-1.61Z"></path><path class="cls-17" d="M489.77,840.91V839.3a2.71,2.71,0,0,1,2.69-2.71h57.45a2.71,2.71,0,0,1,2.71,2.71v1.61Z"></path><rect class="cls-14" x="475.15" y="1158.98" width="98.69" height="64.75" rx="2.83"></rect><path class="cls-9" d="M462.84,1173.17h12.29a0,0,0,0,1,0,0v36.38a0,0,0,0,1,0,0H462.84a4.75,4.75,0,0,1-4.75-4.75v-26.88A4.75,4.75,0,0,1,462.84,1173.17Z"></path><path class="cls-9" d="M578.6,1173.17H590.9a0,0,0,0,1,0,0v36.38a0,0,0,0,1,0,0H578.6a4.75,4.75,0,0,1-4.75-4.75v-26.88A4.75,4.75,0,0,1,578.6,1173.17Z" transform="translate(1164.75 2382.71) rotate(-180)"></path><circle class="cls-15" cx="523.95" cy="1191.36" r="23.9"></circle><rect class="cls-15" x="561.02" y="1176.32" width="5.34" height="32.56" rx="1.38"></rect><path class="cls-16" d="M552.62,1159v1.61a2.72,2.72,0,0,1-2.69,2.72H492.49a2.72,2.72,0,0,1-2.72-2.72V1159Z"></path><path class="cls-16" d="M489.77,1223.73v-1.61a2.71,2.71,0,0,1,2.69-2.71h57.45a2.72,2.72,0,0,1,2.71,2.71v1.61Z"></path><rect class="cls-17" x="475.15" y="1158.98" width="98.69" height="64.75" rx="2.83"></rect><path class="cls-17" d="M462.84,1173.17h12.29a0,0,0,0,1,0,0v36.38a0,0,0,0,1,0,0H462.84a4.75,4.75,0,0,1-4.75-4.75v-26.88A4.75,4.75,0,0,1,462.84,1173.17Z"></path><path class="cls-17" d="M578.6,1173.17H590.9a0,0,0,0,1,0,0v36.38a0,0,0,0,1,0,0H578.6a4.75,4.75,0,0,1-4.75-4.75v-26.88A4.75,4.75,0,0,1,578.6,1173.17Z" transform="translate(1164.75 2382.71) rotate(-180)"></path><circle class="cls-17" cx="523.95" cy="1191.36" r="23.9"></circle><rect class="cls-17" x="561.02" y="1176.32" width="5.34" height="32.56" rx="1.38"></rect><path class="cls-17" d="M552.62,1159v1.61a2.72,2.72,0,0,1-2.69,2.72H492.49a2.72,2.72,0,0,1-2.72-2.72V1159Z"></path><path class="cls-17" d="M489.77,1223.73v-1.61a2.71,2.71,0,0,1,2.69-2.71h57.45a2.72,2.72,0,0,1,2.71,2.71v1.61Z"></path><rect class="cls-10" x="1057.52" y="1241.44" width="254.3" height="51.78"></rect><path class="cls-10" d="M1367.88,1151.05v75.12a7.63,7.63,0,0,1-7.63,7.64h-40.8a7.64,7.64,0,0,0-7.63,7.63h-254.3a7.64,7.64,0,0,0-7.64-7.63h-40.79a7.63,7.63,0,0,1-7.63-7.64v-75.12Z"></path><path class="cls-13" d="M1051.75,1241.44h5.76a0,0,0,0,1,0,0v51.78a0,0,0,0,1,0,0h-5.76a5.71,5.71,0,0,1-5.71-5.71v-40.36A5.71,5.71,0,0,1,1051.75,1241.44Z"></path><path class="cls-13" d="M1317.54,1241.44h5.76a0,0,0,0,1,0,0v51.78a0,0,0,0,1,0,0h-5.76a5.71,5.71,0,0,1-5.71-5.71v-40.36A5.71,5.71,0,0,1,1317.54,1241.44Z" transform="translate(2635.12 2534.66) rotate(-180)"></path><path class="cls-10" d="M1051.75,1241.44h5.76a0,0,0,0,1,0,0v51.78a0,0,0,0,1,0,0h-5.76a5.71,5.71,0,0,1-5.71-5.71v-40.36A5.71,5.71,0,0,1,1051.75,1241.44Z"></path><path class="cls-10" d="M1317.54,1241.44h5.76a0,0,0,0,1,0,0v51.78a0,0,0,0,1,0,0h-5.76a5.71,5.71,0,0,1-5.71-5.71v-40.36A5.71,5.71,0,0,1,1317.54,1241.44Z" transform="translate(2635.12 2534.66) rotate(-180)"></path><rect class="cls-10" x="868.04" y="1133.52" width="630.2" height="17.52"></rect><rect class="cls-10" x="868.04" y="777.47" width="630.2" height="17.52"></rect><rect class="cls-10" x="798.4" y="777.47" width="69.64" height="115.32"></rect><rect class="cls-10" x="798.4" y="1118.66" width="69.64" height="115.32"></rect><rect class="cls-10" x="1498.26" y="777.47" width="69.64" height="115.32" transform="translate(3066.17 1670.26) rotate(-180)"></rect><rect class="cls-10" x="1498.26" y="1118.66" width="69.64" height="115.32" transform="translate(3066.17 2352.64) rotate(-180)"></rect><rect class="cls-10" x="754.25" y="1075.6" width="32.01" height="25.7"></rect><rect class="cls-10" x="745" y="1135.95" width="27.89" height="45.15"></rect><polyline class="cls-10" points="733.08 1136.35 733.08 1126.37 783.35 1126.37 783.35 1136.35"></polyline><polyline class="cls-10" points="783.35 1180.71 783.35 1190.69 733.08 1190.69 733.08 1180.71"></polyline><polyline class="cls-18" points="665.86 1143.68 675.84 1143.68 675.84 1178.74 665.86 1178.74"></polyline><polyline class="cls-18" points="621.5 1178.74 611.52 1178.74 611.52 1143.68 621.5 1143.68"></polyline><polyline class="cls-18" points="665.86 1204.04 675.84 1204.04 675.84 1239.1 665.86 1239.1"></polyline><polyline class="cls-18" points="621.5 1239.1 611.52 1239.1 611.52 1204.04 621.5 1204.04"></polyline><path class="cls-10" d="M730.83,1139H745a0,0,0,0,1,0,0v7.68a0,0,0,0,1,0,0H730.83a2.18,2.18,0,0,1-2.18-2.18v-3.31A2.18,2.18,0,0,1,730.83,1139Z"></path><path class="cls-10" d="M730.83,1153.8H745a0,0,0,0,1,0,0v7.68a0,0,0,0,1,0,0H730.83a2.18,2.18,0,0,1-2.18-2.18V1156A2.18,2.18,0,0,1,730.83,1153.8Z"></path><path class="cls-10" d="M730.83,1168.64H745a0,0,0,0,1,0,0v7.68a0,0,0,0,1,0,0H730.83a2.18,2.18,0,0,1-2.18-2.18v-3.31A2.18,2.18,0,0,1,730.83,1168.64Z"></path><path class="cls-10" d="M775.62,1139h14.17a0,0,0,0,1,0,0v7.68a0,0,0,0,1,0,0H775.62a2.18,2.18,0,0,1-2.18-2.18v-3.31A2.18,2.18,0,0,1,775.62,1139Z" transform="translate(1563.22 2285.61) rotate(-180)"></path><path class="cls-10" d="M775.62,1153.8h14.17a0,0,0,0,1,0,0v7.68a0,0,0,0,1,0,0H775.62a2.18,2.18,0,0,1-2.18-2.18V1156a2.18,2.18,0,0,1,2.18-2.18Z" transform="translate(1563.22 2315.28) rotate(-180)"></path><path class="cls-10" d="M775.62,1168.64h14.17a0,0,0,0,1,0,0v7.68a0,0,0,0,1,0,0H775.62a2.18,2.18,0,0,1-2.18-2.18v-3.31A2.18,2.18,0,0,1,775.62,1168.64Z" transform="translate(1563.22 2344.96) rotate(-180)"></path><rect class="cls-10" x="766.18" y="1081.65" width="16.59" height="13.21"></rect><rect class="cls-19" x="679.56" y="1212.53" width="37.42" height="21.45"></rect><path class="cls-2" d="M688.88,1215.91h3.22a0,0,0,0,1,0,0v14.7a0,0,0,0,1,0,0h-3.22a5.26,5.26,0,0,1-5.26-5.26v-4.17A5.26,5.26,0,0,1,688.88,1215.91Z"></path><path class="cls-2" d="M709.72,1215.91h3.22a0,0,0,0,1,0,0v14.7a0,0,0,0,1,0,0h-3.22a5.26,5.26,0,0,1-5.26-5.26v-4.17A5.26,5.26,0,0,1,709.72,1215.91Z" transform="translate(1417.39 2446.51) rotate(-180)"></path><rect class="cls-3" x="692.1" y="1215.91" width="12.36" height="14.7"></rect><rect class="cls-20" x="634.08" y="1032.64" width="37.42" height="21.45"></rect><rect class="cls-19" x="634.08" y="1032.64" width="37.42" height="21.45"></rect><path class="cls-2" d="M643.4,1036h3.22a0,0,0,0,1,0,0v14.7a0,0,0,0,1,0,0H643.4a5.26,5.26,0,0,1-5.26-5.26v-4.17A5.26,5.26,0,0,1,643.4,1036Z"></path><path class="cls-2" d="M664.23,1036h3.22a0,0,0,0,1,0,0v14.7a0,0,0,0,1,0,0h-3.22a5.26,5.26,0,0,1-5.26-5.26v-4.17A5.26,5.26,0,0,1,664.23,1036Z" transform="translate(1326.42 2086.74) rotate(-180)"></path><rect class="cls-3" x="646.61" y="1036.02" width="12.36" height="14.7"></rect><rect class="cls-19" x="634.08" y="1011.19" width="37.42" height="21.45"></rect><path class="cls-2" d="M643.4,1014.57h3.22a0,0,0,0,1,0,0v14.7a0,0,0,0,1,0,0H643.4a5.26,5.26,0,0,1-5.26-5.26v-4.17A5.26,5.26,0,0,1,643.4,1014.57Z"></path><path class="cls-2" d="M664.23,1014.57h3.22a0,0,0,0,1,0,0v14.7a0,0,0,0,1,0,0h-3.22A5.26,5.26,0,0,1,659,1024v-4.17A5.26,5.26,0,0,1,664.23,1014.57Z" transform="translate(1326.42 2043.83) rotate(-180)"></path><rect class="cls-3" x="646.61" y="1014.57" width="12.36" height="14.7"></rect><rect class="cls-2" x="640.61" y="1070.09" width="8.48" height="14.7" transform="translate(1722.3 432.59) rotate(90)"></rect><rect class="cls-2" x="640.61" y="1091.75" width="8.48" height="14.7" transform="translate(1743.95 454.25) rotate(90)"></rect><rect class="cls-20" x="709.18" y="956.41" width="37.42" height="21.45"></rect><rect class="cls-19" x="709.18" y="956.41" width="37.42" height="21.45"></rect><path class="cls-2" d="M718.49,959.79h3.22a0,0,0,0,1,0,0v14.7a0,0,0,0,1,0,0h-3.22a5.26,5.26,0,0,1-5.26-5.26v-4.17A5.26,5.26,0,0,1,718.49,959.79Z"></path><path class="cls-2" d="M739.33,959.79h3.22a0,0,0,0,1,0,0v14.7a0,0,0,0,1,0,0h-3.22a5.26,5.26,0,0,1-5.26-5.26v-4.17A5.26,5.26,0,0,1,739.33,959.79Z" transform="translate(1476.61 1934.27) rotate(-180)"></path><rect class="cls-3" x="721.71" y="959.79" width="12.36" height="14.7"></rect><path class="cls-2" d="M695,912.58h3.22a0,0,0,0,1,0,0v14.7a0,0,0,0,1,0,0H695A5.26,5.26,0,0,1,689.7,922v-4.17A5.26,5.26,0,0,1,695,912.58Z"></path><path class="cls-2" d="M735.72,934.52h3.22a0,0,0,0,1,0,0v14.7a0,0,0,0,1,0,0h-3.22a5.26,5.26,0,0,1-5.26-5.26v-4.17a5.26,5.26,0,0,1,5.26-5.26Z" transform="translate(1469.38 1883.73) rotate(-180)"></path><path class="cls-2" d="M649.08,912.58h3.22a0,0,0,0,1,0,0v14.7a0,0,0,0,1,0,0h-3.22a5.26,5.26,0,0,1-5.26-5.26v-4.17A5.26,5.26,0,0,1,649.08,912.58Z" transform="translate(-271.87 1567.99) rotate(-90)"></path><path class="cls-2" d="M649.08,864h3.22a0,0,0,0,1,0,0v14.7a0,0,0,0,1,0,0h-3.22a5.26,5.26,0,0,1-5.26-5.26v-4.17A5.26,5.26,0,0,1,649.08,864Z" transform="translate(1519.39 223.27) rotate(90)"></path><path class="cls-2" d="M735.09,890.24h3.22a0,0,0,0,1,0,0v14.7a0,0,0,0,1,0,0h-3.22a5.26,5.26,0,0,1-5.26-5.26v-4.17A5.26,5.26,0,0,1,735.09,890.24Z" transform="translate(1468.13 1795.18) rotate(-180)"></path><rect class="cls-20" x="600.08" y="792.62" width="37.42" height="21.45" transform="translate(1422.14 184.56) rotate(90)"></rect><rect class="cls-19" x="600.08" y="792.62" width="37.42" height="21.45" transform="translate(1422.14 184.56) rotate(90)"></rect><path class="cls-2" d="M619.81,785.58H623a0,0,0,0,1,0,0v14.7a0,0,0,0,1,0,0h-3.22a5.26,5.26,0,0,1-5.26-5.26v-4.17A5.26,5.26,0,0,1,619.81,785.58Z" transform="translate(1411.72 174.14) rotate(90)"></path><path class="cls-2" d="M619.81,806.42H623a0,0,0,0,1,0,0v14.7a0,0,0,0,1,0,0h-3.22a5.26,5.26,0,0,1-5.26-5.26v-4.17A5.26,5.26,0,0,1,619.81,806.42Z" transform="translate(-194.98 1432.56) rotate(-90)"></path><rect class="cls-3" x="612.61" y="796" width="12.36" height="14.7" transform="translate(1422.14 184.56) rotate(90)"></rect><rect class="cls-19" x="600.08" y="844.57" width="37.42" height="21.45" transform="translate(1474.09 236.51) rotate(90)"></rect><path class="cls-2" d="M619.81,837.53H623a0,0,0,0,1,0,0v14.7a0,0,0,0,1,0,0h-3.22a5.26,5.26,0,0,1-5.26-5.26v-4.17A5.26,5.26,0,0,1,619.81,837.53Z" transform="translate(1463.67 226.09) rotate(90)"></path><path class="cls-2" d="M619.81,858.37H623a0,0,0,0,1,0,0v14.7a0,0,0,0,1,0,0h-3.22a5.26,5.26,0,0,1-5.26-5.26v-4.17A5.26,5.26,0,0,1,619.81,858.37Z" transform="translate(-246.93 1484.51) rotate(-90)"></path><rect class="cls-3" x="612.61" y="847.95" width="12.36" height="14.7" transform="translate(1474.09 236.51) rotate(90)"></rect><rect class="cls-20" x="634.08" y="956.41" width="37.42" height="21.45" transform="translate(1305.58 1934.27) rotate(180)"></rect><rect class="cls-19" x="634.08" y="956.41" width="37.42" height="21.45" transform="translate(1305.58 1934.27) rotate(180)"></rect><path class="cls-2" d="M664.23,959.79h3.22a0,0,0,0,1,0,0v14.7a0,0,0,0,1,0,0h-3.22a5.26,5.26,0,0,1-5.26-5.26v-4.17A5.26,5.26,0,0,1,664.23,959.79Z" transform="translate(1326.42 1934.27) rotate(180)"></path><path class="cls-2" d="M643.4,959.79h3.22a0,0,0,0,1,0,0v14.7a0,0,0,0,1,0,0H643.4a5.26,5.26,0,0,1-5.26-5.26v-4.17A5.26,5.26,0,0,1,643.4,959.79Z"></path><rect class="cls-3" x="646.61" y="959.79" width="12.36" height="14.7" transform="translate(1305.58 1934.27) rotate(180)"></rect><rect class="cls-19" x="634.08" y="977.86" width="37.42" height="21.45" transform="translate(1305.58 1977.18) rotate(180)"></rect><path class="cls-2" d="M664.23,981.24h3.22a0,0,0,0,1,0,0v14.7a0,0,0,0,1,0,0h-3.22a5.26,5.26,0,0,1-5.26-5.26v-4.17A5.26,5.26,0,0,1,664.23,981.24Z" transform="translate(1326.42 1977.18) rotate(180)"></path><path class="cls-2" d="M643.4,981.24h3.22a0,0,0,0,1,0,0v14.7a0,0,0,0,1,0,0H643.4a5.26,5.26,0,0,1-5.26-5.26v-4.17A5.26,5.26,0,0,1,643.4,981.24Z"></path><rect class="cls-3" x="646.61" y="981.24" width="12.36" height="14.7" transform="translate(1305.58 1977.18) rotate(180)"></rect><rect class="cls-21" x="617.97" y="1148.91" width="50.18" height="23.57"></rect><rect class="cls-13" x="617.97" y="1209.79" width="50.18" height="23.57"></rect><rect class="cls-22" x="629.29" y="1061.9" width="31.13" height="51.92"></rect><rect class="cls-13" x="637.51" y="1081.68" width="14.7" height="13.18"></rect><rect class="cls-3" x="630.94" y="875.57" width="32.27" height="40.8"></rect><rect class="cls-3" x="698.18" y="887.99" width="32.27" height="63.87"></rect><circle class="cls-23" cx="682.39" cy="838.75" r="41.68"></circle><circle class="cls-23" cx="688.75" cy="838.75" r="41.68"></circle><circle class="cls-23" cx="695.12" cy="838.75" r="41.68"></circle><circle class="cls-23" cx="701.49" cy="838.75" r="41.68"></circle><circle class="cls-23" cx="707.85" cy="838.75" r="41.68"></circle><circle class="cls-4" cx="833.22" cy="835.13" r="31.54"></circle><circle class="cls-4" cx="833.22" cy="1176.32" r="31.54"></circle><circle class="cls-4" cx="1533.08" cy="835.13" r="31.54"></circle><circle class="cls-4" cx="1533.08" cy="1176.32" r="31.54"></circle><polyline class="cls-8" points="465.37 897.59 440.68 872.9 440.68 770.16 504.4 706.42 1583.53 706.42 1583.53 1304.97 504.4 1304.97 440.68 1241.23 440.68 1133.27 460.13 1113.82"></polyline></g><g id="Layer_4" data-name="Layer 4"><path class="cls-11" d="M1611.6,938.53a2.24,2.24,0,0,1-.68-.1c-1.63-.5-2.24-.69-7.43-29a2.3,2.3,0,1,1,4.52-.83c1.49,8.1,3.21,16.84,4.37,22,3.31-5.65,9.07-15.77,13-22.72a2.3,2.3,0,1,1,4,2.26c-15.12,26.71-15.84,27.43-16.11,27.7A2.39,2.39,0,0,1,1611.6,938.53Z"></path><path class="cls-11" d="M1637.3,940a9.55,9.55,0,0,1-2.34-.28,8.17,8.17,0,0,1-5.75-5.32,6.79,6.79,0,0,1,.52-6.1,2.3,2.3,0,1,1,3.84,2.52,2.36,2.36,0,0,0,0,2,3.56,3.56,0,0,0,2.56,2.43,7.13,7.13,0,0,0,6-1.75c2-1.76,3.4-4.73,2.28-6.68a5.5,5.5,0,0,0-3.28-2.73,2.3,2.3,0,0,1,0-4.54,7.32,7.32,0,0,0,4.67-3.22,3.56,3.56,0,0,0,.54-3c-.69-2.24-3-2.37-4-2.35-2.13.09-4.65,1.32-5.12,3.44a2.3,2.3,0,1,1-4.49-1c1-4.42,5.48-6.89,9.43-7,4.14-.2,7.44,2,8.55,5.59a8.23,8.23,0,0,1-1,6.78,12,12,0,0,1-3.17,3.34,12.77,12.77,0,0,1,1.86,2.42c2.41,4.18.21,9.42-3.22,12.44A12.13,12.13,0,0,1,1637.3,940Z"></path></g></svg>