<svg xmlns="http://www.w3.org/2000/svg" viewBox="450.03 745.38 1105.54 469.47"><defs><style>.cls-1{fill:#383838;}.cls-2{fill:#cbcccb;}.cls-3{fill:#68b9c1;}.cls-4{fill:#333;}.cls-5{fill:#2b2b2b;}.cls-6{fill:#fffffd;}.cls-10,.cls-11,.cls-14,.cls-15,.cls-16,.cls-18,.cls-7,.cls-8,.cls-9{fill:none;}.cls-15,.cls-16,.cls-7{stroke:#fff;stroke-linejoin:round;}.cls-7{stroke-width:1.38px;}.cls-10,.cls-11,.cls-14,.cls-8,.cls-9{stroke:#050606;}.cls-10,.cls-11,.cls-14,.cls-18,.cls-8,.cls-9{stroke-miterlimit:10;}.cls-8{stroke-width:1.74px;}.cls-9{stroke-width:1.73px;}.cls-10{stroke-width:1.67px;}.cls-11{stroke-width:1.65px;}.cls-12{fill:#535454;}.cls-13{fill:#fff;}.cls-14{stroke-width:1.2px;}.cls-15{stroke-width:1.4px;}.cls-16{stroke-width:1.37px;}.cls-17{fill:#e4ea95;}.cls-18{stroke:#c08c2d;stroke-width:3.78px;}.cls-19{fill:#75d1f7;}</style></defs><g id="Layer_6" data-name="Layer 6"><polygon class="cls-1" points="1539.81 1137.77 1539.81 1213.98 483.12 1213.98 483.12 1052.53 483.12 905.21 483.12 746.25 1539.81 746.25 1539.81 817.83 1539.81 1137.77"></polygon><path class="cls-2" d="M580.52,949.13v45a4.13,4.13,0,0,1-2.84,3.92l-7.94,2.61-5.66-5.13a4.5,4.5,0,0,0-4.76-.83,4.67,4.67,0,0,0-2.78,4.37v19.41a4.54,4.54,0,0,0,4.54,4.54H576.4a4.12,4.12,0,0,1,4.12,4.12v25.36h-126a3.66,3.66,0,0,1-3.66-3.67v-140a3.66,3.66,0,0,1,3.66-3.66h126v24.88a3,3,0,0,1-3,3H561.27a4.73,4.73,0,0,0-4.73,4.73V959a4.15,4.15,0,0,0,4.15,4.15h1.84a4.15,4.15,0,0,0,4.15-4.15v-9.47l9.93-3.26A3,3,0,0,1,580.52,949.13Z"></path><rect class="cls-3" x="657.85" y="842.77" width="541.23" height="276.17"></rect><rect class="cls-4" x="681.55" y="874.06" width="385.74" height="210.22"></rect><rect class="cls-5" x="1226.85" y="816.06" width="327.86" height="323.48" rx="23.94"></rect><rect class="cls-6" x="1270.92" y="859.06" width="241.83" height="241.83"></rect></g><g id="Layer_3" data-name="Layer 3"><polygon class="cls-5" points="1199.11 1049.79 1199.08 1070.52 1142.61 1045.63 1142.61 1023.85 1199.11 1049.79"></polygon><path class="cls-7" d="M1539.81,1146.64H1211.89a2.67,2.67,0,0,1-2.67-2.66V812.74a2.68,2.68,0,0,1,2.67-2.67h327.92"></path><polyline class="cls-8" points="483.12 905.21 483.12 746.25 1539.81 746.25 1539.81 817.83"></polyline><polyline class="cls-8" points="1539.81 1137.77 1539.81 1213.98 483.12 1213.98 483.12 1052.53"></polyline><rect class="cls-9" x="1226.85" y="816.06" width="327.86" height="323.48" rx="23.94"></rect><rect class="cls-10" x="1271.42" y="859.06" width="241.83" height="241.83"></rect><rect class="cls-10" x="657.85" y="842.77" width="541.23" height="276.17"></rect><rect class="cls-10" x="681.55" y="874.61" width="385.74" height="209.53"></rect><path class="cls-11" d="M580.52,949.13v45a4.13,4.13,0,0,1-2.84,3.92l-7.94,2.61-5.66-5.13a4.5,4.5,0,0,0-4.76-.83,4.67,4.67,0,0,0-2.78,4.37v19.41a4.54,4.54,0,0,0,4.54,4.54H576.4a4.12,4.12,0,0,1,4.12,4.12v25.36h-126a3.66,3.66,0,0,1-3.66-3.67v-140a3.66,3.66,0,0,1,3.66-3.66h126v24.88a3,3,0,0,1-3,3H561.27a4.73,4.73,0,0,0-4.73,4.73V959a4.15,4.15,0,0,0,4.15,4.15h1.84a4.15,4.15,0,0,0,4.15-4.15v-9.47l9.93-3.26A3,3,0,0,1,580.52,949.13Z"></path><circle class="cls-11" cx="537.14" cy="947.96" r="8.65"></circle><circle class="cls-11" cx="537.14" cy="1009.22" r="8.65"></circle><circle class="cls-12" cx="503.15" cy="766.6" r="11.05"></circle><circle class="cls-13" cx="503.15" cy="766.6" r="5.69"></circle><circle class="cls-14" cx="503.15" cy="766.6" r="11.05"></circle><circle class="cls-14" cx="503.15" cy="766.6" r="5.69"></circle><circle class="cls-12" cx="547.56" cy="766.6" r="11.05"></circle><circle class="cls-13" cx="547.56" cy="766.6" r="5.69"></circle><circle class="cls-14" cx="547.56" cy="766.6" r="11.05"></circle><circle class="cls-14" cx="547.56" cy="766.6" r="5.69"></circle><circle class="cls-12" cx="591.37" cy="766.6" r="11.05"></circle><circle class="cls-13" cx="591.37" cy="766.6" r="5.69"></circle><circle class="cls-14" cx="591.37" cy="766.6" r="11.05"></circle><circle class="cls-14" cx="591.37" cy="766.6" r="5.69"></circle><circle class="cls-12" cx="635.19" cy="766.6" r="11.05"></circle><circle class="cls-13" cx="635.19" cy="766.6" r="5.69"></circle><circle class="cls-14" cx="635.19" cy="766.6" r="11.05"></circle><circle class="cls-14" cx="635.19" cy="766.6" r="5.69"></circle><circle class="cls-12" cx="679" cy="766.6" r="11.05"></circle><circle class="cls-13" cx="679" cy="766.6" r="5.69"></circle><circle class="cls-14" cx="679" cy="766.6" r="11.05"></circle><circle class="cls-14" cx="679" cy="766.6" r="5.69"></circle><circle class="cls-12" cx="722.82" cy="766.6" r="11.05"></circle><circle class="cls-13" cx="722.82" cy="766.6" r="5.69"></circle><circle class="cls-14" cx="722.82" cy="766.6" r="11.05"></circle><circle class="cls-14" cx="722.82" cy="766.6" r="5.69"></circle><circle class="cls-12" cx="766.63" cy="766.6" r="11.05"></circle><circle class="cls-13" cx="766.63" cy="766.6" r="5.69"></circle><circle class="cls-14" cx="766.63" cy="766.6" r="11.05"></circle><circle class="cls-14" cx="766.63" cy="766.6" r="5.69"></circle><circle class="cls-12" cx="810.45" cy="766.6" r="11.05"></circle><circle class="cls-13" cx="810.45" cy="766.6" r="5.69"></circle><circle class="cls-14" cx="810.45" cy="766.6" r="11.05"></circle><circle class="cls-14" cx="810.45" cy="766.6" r="5.69"></circle><circle class="cls-12" cx="890.48" cy="766.6" r="11.05"></circle><circle class="cls-13" cx="890.48" cy="766.6" r="5.69"></circle><circle class="cls-14" cx="890.48" cy="766.6" r="11.05"></circle><circle class="cls-14" cx="890.48" cy="766.6" r="5.69"></circle><circle class="cls-12" cx="933.01" cy="766.6" r="11.05"></circle><circle class="cls-13" cx="933.01" cy="766.6" r="5.69"></circle><circle class="cls-14" cx="933.01" cy="766.6" r="11.05"></circle><circle class="cls-14" cx="933.01" cy="766.6" r="5.69"></circle><circle class="cls-12" cx="975.53" cy="766.6" r="11.05"></circle><circle class="cls-13" cx="975.53" cy="766.6" r="5.69"></circle><circle class="cls-14" cx="975.53" cy="766.6" r="11.05"></circle><circle class="cls-14" cx="975.53" cy="766.6" r="5.69"></circle><circle class="cls-12" cx="1018.06" cy="766.6" r="11.05"></circle><circle class="cls-13" cx="1018.06" cy="766.6" r="5.69"></circle><circle class="cls-14" cx="1018.06" cy="766.6" r="11.05"></circle><circle class="cls-14" cx="1018.06" cy="766.6" r="5.69"></circle><circle class="cls-12" cx="1060.58" cy="766.6" r="11.05"></circle><circle class="cls-13" cx="1060.58" cy="766.6" r="5.69"></circle><circle class="cls-14" cx="1060.58" cy="766.6" r="11.05"></circle><circle class="cls-14" cx="1060.58" cy="766.6" r="5.69"></circle><circle class="cls-12" cx="1103.11" cy="766.6" r="11.05"></circle><circle class="cls-13" cx="1103.11" cy="766.6" r="5.69"></circle><circle class="cls-14" cx="1103.11" cy="766.6" r="11.05"></circle><circle class="cls-14" cx="1103.11" cy="766.6" r="5.69"></circle><circle class="cls-12" cx="1145.63" cy="766.6" r="11.05"></circle><circle class="cls-13" cx="1145.63" cy="766.6" r="5.69"></circle><circle class="cls-14" cx="1145.63" cy="766.6" r="11.05"></circle><circle class="cls-14" cx="1145.63" cy="766.6" r="5.69"></circle><circle class="cls-12" cx="1188.16" cy="766.6" r="11.05"></circle><circle class="cls-13" cx="1188.16" cy="766.6" r="5.69"></circle><circle class="cls-14" cx="1188.16" cy="766.6" r="11.05"></circle><circle class="cls-14" cx="1188.16" cy="766.6" r="5.69"></circle><circle class="cls-12" cx="1230.68" cy="766.6" r="11.05"></circle><circle class="cls-13" cx="1230.68" cy="766.6" r="5.69"></circle><circle class="cls-14" cx="1230.68" cy="766.6" r="11.05"></circle><circle class="cls-14" cx="1230.68" cy="766.6" r="5.69"></circle><circle class="cls-12" cx="1273.21" cy="766.6" r="11.05"></circle><circle class="cls-13" cx="1273.21" cy="766.6" r="5.69"></circle><circle class="cls-14" cx="1273.21" cy="766.6" r="11.05"></circle><circle class="cls-14" cx="1273.21" cy="766.6" r="5.69"></circle><circle class="cls-12" cx="1315.73" cy="766.6" r="11.05"></circle><circle class="cls-13" cx="1315.73" cy="766.6" r="5.69"></circle><circle class="cls-14" cx="1315.73" cy="766.6" r="11.05"></circle><circle class="cls-14" cx="1315.73" cy="766.6" r="5.69"></circle><circle class="cls-12" cx="1358.26" cy="766.6" r="11.05"></circle><circle class="cls-13" cx="1358.26" cy="766.6" r="5.69"></circle><circle class="cls-14" cx="1358.26" cy="766.6" r="11.05"></circle><circle class="cls-14" cx="1358.26" cy="766.6" r="5.69"></circle><circle class="cls-12" cx="1400.78" cy="766.6" r="11.05"></circle><circle class="cls-13" cx="1400.78" cy="766.6" r="5.69"></circle><circle class="cls-14" cx="1400.78" cy="766.6" r="11.05"></circle><circle class="cls-14" cx="1400.78" cy="766.6" r="5.69"></circle><circle class="cls-12" cx="1443.3" cy="766.6" r="11.05"></circle><circle class="cls-13" cx="1443.3" cy="766.6" r="5.69"></circle><circle class="cls-14" cx="1443.3" cy="766.6" r="11.05"></circle><circle class="cls-14" cx="1443.3" cy="766.6" r="5.69"></circle><circle class="cls-12" cx="1485.83" cy="766.6" r="11.05"></circle><circle class="cls-13" cx="1485.83" cy="766.6" r="5.69"></circle><circle class="cls-14" cx="1485.83" cy="766.6" r="11.05"></circle><circle class="cls-14" cx="1485.83" cy="766.6" r="5.69"></circle><circle class="cls-12" cx="1523" cy="766.6" r="11.05"></circle><circle class="cls-13" cx="1523" cy="766.6" r="5.69"></circle><circle class="cls-14" cx="1523" cy="766.6" r="11.05"></circle><circle class="cls-14" cx="1523" cy="766.6" r="5.69"></circle><circle class="cls-12" cx="503.15" cy="1195.12" r="11.05"></circle><circle class="cls-13" cx="503.15" cy="1195.12" r="5.69"></circle><circle class="cls-14" cx="503.15" cy="1195.12" r="11.05"></circle><circle class="cls-14" cx="503.15" cy="1195.12" r="5.69"></circle><circle class="cls-12" cx="547.56" cy="1195.12" r="11.05"></circle><circle class="cls-13" cx="547.56" cy="1195.12" r="5.69"></circle><circle class="cls-14" cx="547.56" cy="1195.12" r="11.05"></circle><circle class="cls-14" cx="547.56" cy="1195.12" r="5.69"></circle><circle class="cls-12" cx="591.37" cy="1195.12" r="11.05"></circle><circle class="cls-13" cx="591.37" cy="1195.12" r="5.69"></circle><circle class="cls-14" cx="591.37" cy="1195.12" r="11.05"></circle><circle class="cls-14" cx="591.37" cy="1195.12" r="5.69"></circle><circle class="cls-12" cx="635.19" cy="1195.12" r="11.05"></circle><circle class="cls-13" cx="635.19" cy="1195.12" r="5.69"></circle><circle class="cls-14" cx="635.19" cy="1195.12" r="11.05"></circle><circle class="cls-14" cx="635.19" cy="1195.12" r="5.69"></circle><circle class="cls-12" cx="679" cy="1195.12" r="11.05"></circle><circle class="cls-13" cx="679" cy="1195.12" r="5.69"></circle><circle class="cls-14" cx="679" cy="1195.12" r="11.05"></circle><circle class="cls-14" cx="679" cy="1195.12" r="5.69"></circle><circle class="cls-12" cx="722.82" cy="1195.12" r="11.05"></circle><circle class="cls-13" cx="722.82" cy="1195.12" r="5.69"></circle><circle class="cls-14" cx="722.82" cy="1195.12" r="11.05"></circle><circle class="cls-14" cx="722.82" cy="1195.12" r="5.69"></circle><circle class="cls-12" cx="766.63" cy="1195.12" r="11.05"></circle><circle class="cls-13" cx="766.63" cy="1195.12" r="5.69"></circle><circle class="cls-14" cx="766.63" cy="1195.12" r="11.05"></circle><circle class="cls-14" cx="766.63" cy="1195.12" r="5.69"></circle><circle class="cls-12" cx="810.45" cy="1195.12" r="11.05"></circle><circle class="cls-13" cx="810.45" cy="1195.12" r="5.69"></circle><circle class="cls-14" cx="810.45" cy="1195.12" r="11.05"></circle><circle class="cls-14" cx="810.45" cy="1195.12" r="5.69"></circle><circle class="cls-12" cx="890.48" cy="1195.12" r="11.05"></circle><circle class="cls-13" cx="890.48" cy="1195.12" r="5.69"></circle><circle class="cls-14" cx="890.48" cy="1195.12" r="11.05"></circle><circle class="cls-14" cx="890.48" cy="1195.12" r="5.69"></circle><circle class="cls-12" cx="933.01" cy="1195.12" r="11.05"></circle><circle class="cls-13" cx="933.01" cy="1195.12" r="5.69"></circle><circle class="cls-14" cx="933.01" cy="1195.12" r="11.05"></circle><circle class="cls-14" cx="933.01" cy="1195.12" r="5.69"></circle><circle class="cls-12" cx="975.53" cy="1195.12" r="11.05"></circle><circle class="cls-13" cx="975.53" cy="1195.12" r="5.69"></circle><circle class="cls-14" cx="975.53" cy="1195.12" r="11.05"></circle><circle class="cls-14" cx="975.53" cy="1195.12" r="5.69"></circle><circle class="cls-12" cx="1018.06" cy="1195.12" r="11.05"></circle><circle class="cls-13" cx="1018.06" cy="1195.12" r="5.69"></circle><circle class="cls-14" cx="1018.06" cy="1195.12" r="11.05"></circle><circle class="cls-14" cx="1018.06" cy="1195.12" r="5.69"></circle><circle class="cls-12" cx="1060.58" cy="1195.12" r="11.05"></circle><circle class="cls-13" cx="1060.58" cy="1195.12" r="5.69"></circle><circle class="cls-14" cx="1060.58" cy="1195.12" r="11.05"></circle><circle class="cls-14" cx="1060.58" cy="1195.12" r="5.69"></circle><circle class="cls-12" cx="1103.11" cy="1195.12" r="11.05"></circle><circle class="cls-13" cx="1103.11" cy="1195.12" r="5.69"></circle><circle class="cls-14" cx="1103.11" cy="1195.12" r="11.05"></circle><circle class="cls-14" cx="1103.11" cy="1195.12" r="5.69"></circle><circle class="cls-12" cx="1145.63" cy="1195.12" r="11.05"></circle><circle class="cls-13" cx="1145.63" cy="1195.12" r="5.69"></circle><circle class="cls-14" cx="1145.63" cy="1195.12" r="11.05"></circle><circle class="cls-14" cx="1145.63" cy="1195.12" r="5.69"></circle><circle class="cls-12" cx="1188.16" cy="1195.12" r="11.05"></circle><circle class="cls-13" cx="1188.16" cy="1195.12" r="5.69"></circle><circle class="cls-14" cx="1188.16" cy="1195.12" r="11.05"></circle><circle class="cls-14" cx="1188.16" cy="1195.12" r="5.69"></circle><circle class="cls-12" cx="1230.68" cy="1195.12" r="11.05"></circle><circle class="cls-13" cx="1230.68" cy="1195.12" r="5.69"></circle><circle class="cls-14" cx="1230.68" cy="1195.12" r="11.05"></circle><circle class="cls-14" cx="1230.68" cy="1195.12" r="5.69"></circle><circle class="cls-12" cx="1273.21" cy="1195.12" r="11.05"></circle><circle class="cls-13" cx="1273.21" cy="1195.12" r="5.69"></circle><circle class="cls-14" cx="1273.21" cy="1195.12" r="11.05"></circle><circle class="cls-14" cx="1273.21" cy="1195.12" r="5.69"></circle><circle class="cls-12" cx="1315.73" cy="1195.12" r="11.05"></circle><circle class="cls-13" cx="1315.73" cy="1195.12" r="5.69"></circle><circle class="cls-14" cx="1315.73" cy="1195.12" r="11.05"></circle><circle class="cls-14" cx="1315.73" cy="1195.12" r="5.69"></circle><circle class="cls-12" cx="1358.26" cy="1195.12" r="11.05"></circle><circle class="cls-13" cx="1358.26" cy="1195.12" r="5.69"></circle><circle class="cls-14" cx="1358.26" cy="1195.12" r="11.05"></circle><circle class="cls-14" cx="1358.26" cy="1195.12" r="5.69"></circle><circle class="cls-12" cx="1400.78" cy="1195.12" r="11.05"></circle><circle class="cls-13" cx="1400.78" cy="1195.12" r="5.69"></circle><circle class="cls-14" cx="1400.78" cy="1195.12" r="11.05"></circle><circle class="cls-14" cx="1400.78" cy="1195.12" r="5.69"></circle><circle class="cls-12" cx="1443.3" cy="1195.12" r="11.05"></circle><circle class="cls-13" cx="1443.3" cy="1195.12" r="5.69"></circle><circle class="cls-14" cx="1443.3" cy="1195.12" r="11.05"></circle><circle class="cls-14" cx="1443.3" cy="1195.12" r="5.69"></circle><circle class="cls-12" cx="1485.83" cy="1195.12" r="11.05"></circle><circle class="cls-13" cx="1485.83" cy="1195.12" r="5.69"></circle><circle class="cls-14" cx="1485.83" cy="1195.12" r="11.05"></circle><circle class="cls-14" cx="1485.83" cy="1195.12" r="5.69"></circle><circle class="cls-12" cx="1523" cy="1195.12" r="11.05"></circle><circle class="cls-13" cx="1523" cy="1195.12" r="5.69"></circle><circle class="cls-14" cx="1523" cy="1195.12" r="11.05"></circle><circle class="cls-14" cx="1523" cy="1195.12" r="5.69"></circle><path class="cls-2" d="M510.88,866.9h65.55a2,2,0,0,0,2-2v-2.93a2,2,0,0,0-1.24-1.87l-3.49-1.49a2,2,0,0,1-1.24-1.87V835.09a2,2,0,0,1,1.31-1.9l3.35-1.28a2,2,0,0,0,1.31-1.91v-1.88a2,2,0,0,0-2-2H510.88a2,2,0,0,0-2,2v2a2,2,0,0,0,1.24,1.87l3.49,1.49a2,2,0,0,1,1.24,1.87V857a2,2,0,0,1-1.31,1.91l-3.35,1.28a2,2,0,0,0-1.31,1.9v2.78A2,2,0,0,0,510.88,866.9Z"></path><rect class="cls-2" x="491.93" y="834.5" width="16.18" height="23.56" rx="2.84"></rect><rect class="cls-2" x="578.46" y="834.5" width="16.18" height="23.56" rx="2.84"></rect><circle class="cls-4" cx="541.87" cy="843.82" r="14.24"></circle><circle class="cls-11" cx="541.87" cy="843.82" r="14.24"></circle><path class="cls-11" d="M510.88,866.9h65.55a2,2,0,0,0,2-2v-2.93a2,2,0,0,0-1.24-1.87l-3.49-1.49a2,2,0,0,1-1.24-1.87V835.09a2,2,0,0,1,1.31-1.9l3.35-1.28a2,2,0,0,0,1.31-1.91v-1.88a2,2,0,0,0-2-2H510.88a2,2,0,0,0-2,2v2a2,2,0,0,0,1.24,1.87l3.49,1.49a2,2,0,0,1,1.24,1.87V857a2,2,0,0,1-1.31,1.91l-3.35,1.28a2,2,0,0,0-1.31,1.9v2.78A2,2,0,0,0,510.88,866.9Z"></path><rect class="cls-11" x="491.93" y="834.5" width="16.18" height="23.56" rx="2.84"></rect><rect class="cls-11" x="578.46" y="834.5" width="16.18" height="23.56" rx="2.84"></rect><path class="cls-15" d="M506,825v-.78a2.78,2.78,0,0,1,2.88-2.67H579a2.79,2.79,0,0,1,2.88,2.67V825"></path><path class="cls-15" d="M581.87,868.12v1.17A2.79,2.79,0,0,1,579,872H508.83a2.78,2.78,0,0,1-2.88-2.67v-1.17"></path><path class="cls-2" d="M510.88,1134.47h65.55a2,2,0,0,0,2-2v-2.93a2,2,0,0,0-1.24-1.87l-3.49-1.49a2,2,0,0,1-1.24-1.87v-21.62a2,2,0,0,1,1.31-1.9l3.35-1.28a2,2,0,0,0,1.31-1.91v-1.88a2,2,0,0,0-2-2H510.88a2,2,0,0,0-2,2v2a2,2,0,0,0,1.24,1.87l3.49,1.49a2,2,0,0,1,1.24,1.87v21.62a2,2,0,0,1-1.31,1.91l-3.35,1.28a2,2,0,0,0-1.31,1.9v2.78A2,2,0,0,0,510.88,1134.47Z"></path><rect class="cls-2" x="491.93" y="1102.07" width="16.18" height="23.56" rx="2.84"></rect><rect class="cls-2" x="578.46" y="1102.07" width="16.18" height="23.56" rx="2.84"></rect><circle class="cls-4" cx="541.87" cy="1111.39" r="14.24"></circle><circle class="cls-11" cx="541.87" cy="1111.39" r="14.24"></circle><path class="cls-11" d="M510.88,1134.47h65.55a2,2,0,0,0,2-2v-2.93a2,2,0,0,0-1.24-1.87l-3.49-1.49a2,2,0,0,1-1.24-1.87v-21.62a2,2,0,0,1,1.31-1.9l3.35-1.28a2,2,0,0,0,1.31-1.91v-1.88a2,2,0,0,0-2-2H510.88a2,2,0,0,0-2,2v2a2,2,0,0,0,1.24,1.87l3.49,1.49a2,2,0,0,1,1.24,1.87v21.62a2,2,0,0,1-1.31,1.91l-3.35,1.28a2,2,0,0,0-1.31,1.9v2.78A2,2,0,0,0,510.88,1134.47Z"></path><rect class="cls-11" x="491.93" y="1102.07" width="16.18" height="23.56" rx="2.84"></rect><rect class="cls-11" x="578.46" y="1102.07" width="16.18" height="23.56" rx="2.84"></rect><path class="cls-15" d="M506,1092.51v-.78a2.78,2.78,0,0,1,2.88-2.67H579a2.79,2.79,0,0,1,2.88,2.67v.78"></path><path class="cls-15" d="M581.87,1135.69v1.17a2.79,2.79,0,0,1-2.88,2.67H508.83a2.78,2.78,0,0,1-2.88-2.67v-1.17"></path><polyline class="cls-16" points="643.15 873.14 652.44 873.14 652.44 899.35 643.15 899.35"></polyline><polyline class="cls-16" points="616.8 899.35 606.14 899.35 606.14 873.14 616.8 873.14"></polyline><rect class="cls-13" x="619.78" y="878.59" width="20.24" height="14.93" rx="2.52"></rect><rect class="cls-2" x="612.56" y="878.59" width="5.75" height="14.93" rx="1.4"></rect><rect class="cls-2" x="641.5" y="878.59" width="5.75" height="14.93" rx="1.4"></rect><polyline class="cls-16" points="643.15 1062.85 652.44 1062.85 652.44 1089.06 643.15 1089.06"></polyline><polyline class="cls-16" points="616.8 1089.06 606.14 1089.06 606.14 1062.85 616.8 1062.85"></polyline><rect class="cls-17" x="619.78" y="1068.31" width="20.24" height="14.93" rx="2.52"></rect><rect class="cls-2" x="612.56" y="1068.31" width="5.75" height="14.93" rx="1.4"></rect><rect class="cls-2" x="641.5" y="1068.31" width="5.75" height="14.93" rx="1.4"></rect><polyline class="cls-16" points="624.53 1138.57 624.53 1145.42 605.21 1145.42 605.21 1138.57"></polyline><polyline class="cls-16" points="605.21 1119.15 605.21 1111.29 624.53 1111.29 624.53 1119.15"></polyline><rect class="cls-13" x="607.54" y="1123.3" width="14.92" height="11.01" rx="1.86" transform="translate(1743.81 513.8) rotate(90)"></rect><rect class="cls-2" x="612.89" y="1112.64" width="4.24" height="11.01" rx="1.03" transform="translate(1733.15 503.14) rotate(90)"></rect><rect class="cls-2" x="612.89" y="1133.97" width="4.24" height="11.01" rx="1.03" transform="translate(1754.48 524.47) rotate(90)"></rect><polyline class="cls-16" points="1176.1 1144.59 1169.25 1144.59 1169.25 1125.27 1176.1 1125.27"></polyline><polyline class="cls-16" points="1195.52 1125.27 1203.38 1125.27 1203.38 1144.59 1195.52 1144.59"></polyline><rect class="cls-13" x="1178.4" y="1129.56" width="14.92" height="11.01" rx="1.86" transform="translate(2371.73 2270.13) rotate(-180)"></rect><rect class="cls-2" x="1194.41" y="1129.56" width="4.24" height="11.01" rx="1.03" transform="translate(2393.06 2270.13) rotate(-180)"></rect><rect class="cls-2" x="1173.08" y="1129.56" width="4.24" height="11.01" rx="1.03" transform="translate(2350.4 2270.13) rotate(-180)"></rect><rect class="cls-16" x="609.49" y="951.17" width="32.01" height="61.09" rx="2.61"></rect><rect class="cls-13" x="616.97" y="956.63" width="5.5" height="8.13" rx="0.96"></rect><rect class="cls-13" x="628.81" y="956.63" width="5.5" height="8.13" rx="0.96"></rect><rect class="cls-13" x="616.97" y="970.73" width="5.5" height="8.13" rx="0.96"></rect><rect class="cls-13" x="628.81" y="970.73" width="5.5" height="8.13" rx="0.96"></rect><rect class="cls-13" x="616.97" y="984.84" width="5.5" height="8.13" rx="0.96"></rect><rect class="cls-13" x="628.81" y="984.84" width="5.5" height="8.13" rx="0.96"></rect><rect class="cls-13" x="616.97" y="998.94" width="5.5" height="8.13" rx="0.96"></rect><rect class="cls-13" x="628.81" y="998.94" width="5.5" height="8.13" rx="0.96"></rect><rect class="cls-13" x="581.87" y="1071.89" width="5.5" height="8.13" rx="0.96"></rect><rect class="cls-13" x="596.46" y="1071.89" width="5.5" height="8.13" rx="0.96"></rect><path class="cls-16" d="M603.21,1067.74H577.82a2.07,2.07,0,0,0-2.07,2.07v13.83a2.07,2.07,0,0,0,2.07,2.07h25.39"></path><rect class="cls-13" x="639.06" y="849.14" width="5.5" height="8.13" rx="0.96" transform="translate(1495.01 211.39) rotate(90)"></rect><rect class="cls-13" x="639.06" y="863.73" width="5.5" height="8.13" rx="0.96" transform="translate(1509.6 225.98) rotate(90)"></rect><path class="cls-16" d="M650,871.79V846.4a2.07,2.07,0,0,0-2.07-2.06H634.13a2.07,2.07,0,0,0-2.07,2.06v25.39"></path><rect class="cls-2" x="581.87" y="1030.98" width="11.04" height="8.39" rx="0.56"></rect><rect class="cls-2" x="581.87" y="1016.89" width="11.04" height="8.39" rx="0.56"></rect><rect class="cls-2" x="581.87" y="1008.07" width="11.04" height="4.2" rx="0.56"></rect><rect class="cls-2" x="581.87" y="999.8" width="11.04" height="4.2" rx="0.56"></rect><rect class="cls-2" x="581.87" y="991.54" width="11.04" height="4.2" rx="0.56"></rect><rect class="cls-2" x="581.87" y="983.27" width="11.04" height="4.2" rx="0.56"></rect><rect class="cls-2" x="581.87" y="975.01" width="11.04" height="4.2" rx="0.56"></rect><rect class="cls-2" x="581.87" y="966.74" width="11.04" height="4.2" rx="0.56"></rect><rect class="cls-2" x="581.87" y="958.48" width="11.04" height="4.2" rx="0.56"></rect><rect class="cls-2" x="581.87" y="950.22" width="11.04" height="4.2" rx="0.56"></rect><rect class="cls-2" x="581.87" y="941.95" width="11.04" height="4.2" rx="0.56"></rect><rect class="cls-2" x="581.87" y="933.69" width="11.04" height="4.2" rx="0.56"></rect><rect class="cls-2" x="581.87" y="925.42" width="11.04" height="4.2" rx="0.56"></rect><circle class="cls-18" cx="829.63" cy="802.81" r="31.81"></circle><circle class="cls-18" cx="833.68" cy="802.78" r="31.81"></circle><circle class="cls-2" cx="606.14" cy="940.92" r="5.33"></circle><circle class="cls-2" cx="606.14" cy="1022.51" r="5.33"></circle></g><g id="Layer_2" data-name="Layer 2"><polygon class="cls-5" points="1142.61 998.36 1142.61 1074.1 1122.68 1066.63 1122.68 990.89 1142.61 998.36"></polygon><path class="cls-13" d="M870.19,1152.4h2.23v15.86h-2.23Zm1,7h5.41a2.11,2.11,0,0,0,1.12-.3,2,2,0,0,0,.76-.87,3.33,3.33,0,0,0,0-2.58,2,2,0,0,0-1.88-1.17h-5.41v-2.12h5.32a4.91,4.91,0,0,1,2.41.57,4,4,0,0,1,1.62,1.61,4.89,4.89,0,0,1,.57,2.4,4.79,4.79,0,0,1-.58,2.4,4,4,0,0,1-1.62,1.61,4.89,4.89,0,0,1-2.4.57h-5.32Zm4.32,1.63,2.21-.51,4,7.7h-2.63Z"></path><path class="cls-13" d="M886.9,1168.2a7.9,7.9,0,0,1-1.92-.65,8.49,8.49,0,0,1-1.66-1.09l1.39-1.7a6.18,6.18,0,0,0,2,1.17,6.72,6.72,0,0,0,2.36.4,4.79,4.79,0,0,0,2.67-.64,2.05,2.05,0,0,0,.95-1.8h0a1.91,1.91,0,0,0-.43-1.32,2.68,2.68,0,0,0-1.11-.72,15.17,15.17,0,0,0-1.76-.43h-.14l-.17,0a16.36,16.36,0,0,1-2.58-.62,3.53,3.53,0,0,1-1.71-1.25,4.14,4.14,0,0,1-.71-2.59h0a4.6,4.6,0,0,1,.66-2.51,4.14,4.14,0,0,1,1.92-1.58,7.57,7.57,0,0,1,3-.55,7.27,7.27,0,0,1,1.68.19,7.75,7.75,0,0,1,1.62.55,9,9,0,0,1,1.57.92l-1.26,1.76a7.32,7.32,0,0,0-1.8-1,5.22,5.22,0,0,0-1.81-.34,4.27,4.27,0,0,0-2.52.65,2.14,2.14,0,0,0-.9,1.84h0a1.74,1.74,0,0,0,.47,1.28,2.75,2.75,0,0,0,1.15.7,17.22,17.22,0,0,0,1.92.46l.09,0H890l.12,0,.12,0a13.22,13.22,0,0,1,2.4.7,3.82,3.82,0,0,1,1.61,1.3,4.15,4.15,0,0,1,.65,2.46v0a4.35,4.35,0,0,1-.69,2.48,4.24,4.24,0,0,1-2,1.57,8.23,8.23,0,0,1-3.15.54A10,10,0,0,1,886.9,1168.2Z"></path><path class="cls-13" d="M895.86,1152.42H907v2.11H895.86Zm4.48,1.29h2.22v14.55h-2.22Z"></path><path class="cls-13" d="M524,1067.82h2.52v18H524Zm1.1,8h6.12a2.3,2.3,0,0,0,1.28-.35,2.21,2.21,0,0,0,.85-1,3.59,3.59,0,0,0,0-2.92,2.21,2.21,0,0,0-.85-1,2.34,2.34,0,0,0-1.28-.35h-6.12v-2.39h6a5.62,5.62,0,0,1,2.73.64,4.52,4.52,0,0,1,1.83,1.82,5.55,5.55,0,0,1,.64,2.72,5.45,5.45,0,0,1-.65,2.72,4.52,4.52,0,0,1-1.83,1.82,5.61,5.61,0,0,1-2.72.64h-6Zm4.89,1.84,2.51-.57,4.59,8.72h-3Z"></path><path class="cls-13" d="M542.92,1085.71a9,9,0,0,1-2.17-.74,9.22,9.22,0,0,1-1.88-1.23l1.57-1.93a7,7,0,0,0,2.25,1.34,8.06,8.06,0,0,0,2.68.44,5.43,5.43,0,0,0,3-.72,2.32,2.32,0,0,0,1.07-2v0a2.12,2.12,0,0,0-.49-1.48,2.85,2.85,0,0,0-1.26-.82,15.21,15.21,0,0,0-2-.49h-.16l-.19,0a20,20,0,0,1-2.93-.69,4.22,4.22,0,0,1-1.93-1.42,4.74,4.74,0,0,1-.8-2.94h0a5.16,5.16,0,0,1,.75-2.84,4.63,4.63,0,0,1,2.17-1.8,8.75,8.75,0,0,1,3.45-.62,8.55,8.55,0,0,1,1.89.21,9.1,9.1,0,0,1,1.84.63,10.24,10.24,0,0,1,1.79,1l-1.44,2a8.32,8.32,0,0,0-2-1.13,5.88,5.88,0,0,0-2-.38,4.82,4.82,0,0,0-2.86.74,2.41,2.41,0,0,0-1,2.08h0a2,2,0,0,0,.53,1.46,3.18,3.18,0,0,0,1.31.78,19,19,0,0,0,2.17.52l.1,0,.09,0,.13,0,.14,0a15,15,0,0,1,2.72.79,4.29,4.29,0,0,1,1.83,1.48,4.66,4.66,0,0,1,.73,2.78v0a5,5,0,0,1-.77,2.81,4.85,4.85,0,0,1-2.26,1.78,9.23,9.23,0,0,1-3.56.61A11.37,11.37,0,0,1,542.92,1085.71Z"></path><path class="cls-13" d="M553.07,1067.83h12.67v2.39H553.07Zm5.08,1.47h2.51v16.48h-2.51Z"></path><path class="cls-13" d="M517.61,892.92a5.11,5.11,0,0,1-2.15-2.28,8.12,8.12,0,0,1-.74-3.61V875.57h2.52v11.54a4.33,4.33,0,0,0,1,3,3.55,3.55,0,0,0,2.78,1.07,3.62,3.62,0,0,0,2.81-1.07,4.33,4.33,0,0,0,1-3V875.57h2.51V887a8,8,0,0,1-.74,3.61,5.08,5.08,0,0,1-2.16,2.28,7.75,7.75,0,0,1-6.82,0Z"></path><path class="cls-13" d="M534,893.46a9.49,9.49,0,0,1-2.16-.74,8.87,8.87,0,0,1-1.88-1.24l1.56-1.92a7.12,7.12,0,0,0,2.26,1.33,7.77,7.77,0,0,0,2.68.45,5.29,5.29,0,0,0,3-.73,2.31,2.31,0,0,0,1.08-2h0a2.14,2.14,0,0,0-.49-1.49,2.84,2.84,0,0,0-1.26-.81,13.75,13.75,0,0,0-2-.49h-.08l-.08,0-.19,0a19.55,19.55,0,0,1-2.93-.7,4.1,4.1,0,0,1-1.93-1.42,4.64,4.64,0,0,1-.8-2.93h0a5.3,5.3,0,0,1,.74-2.85A4.74,4.74,0,0,1,533.7,876a8.75,8.75,0,0,1,3.45-.62,8.55,8.55,0,0,1,1.89.21,9.72,9.72,0,0,1,1.84.62,10.91,10.91,0,0,1,1.78,1l-1.43,2a8,8,0,0,0-2-1.13,5.66,5.66,0,0,0-2-.38,4.82,4.82,0,0,0-2.86.73,2.42,2.42,0,0,0-1,2.08v0a2,2,0,0,0,.53,1.45,3.12,3.12,0,0,0,1.3.79c.53.16,1.25.34,2.18.52l.09,0,.1,0,.13,0,.14,0a14.47,14.47,0,0,1,2.72.79,4.2,4.2,0,0,1,1.83,1.47,4.68,4.68,0,0,1,.73,2.78v0a5,5,0,0,1-.78,2.81A4.77,4.77,0,0,1,540,893.1a9.42,9.42,0,0,1-3.56.61A12.21,12.21,0,0,1,534,893.46Z"></path><path class="cls-13" d="M546.35,875.57h2.52v17.95h-2.52Zm1.23,0h10.3V878h-10.3Zm0,7.84h8.95v2.4h-8.95Zm0,7.72h10.3v2.39h-10.3Z"></path><path class="cls-13" d="M561.46,875.56H564v18h-2.52Zm1.1,8h6.12a2.35,2.35,0,0,0,1.27-.35,2.29,2.29,0,0,0,.86-1,3.73,3.73,0,0,0,0-2.93,2.26,2.26,0,0,0-.85-1,2.36,2.36,0,0,0-1.28-.34h-6.12v-2.4h6a5.74,5.74,0,0,1,2.74.64,4.64,4.64,0,0,1,1.83,1.82,6.08,6.08,0,0,1,0,5.45,4.64,4.64,0,0,1-1.83,1.82,5.62,5.62,0,0,1-2.73.64h-6Zm4.89,1.83,2.5-.56,4.6,8.71h-3Z"></path><path class="cls-13" d="M928.24,1167.23a4.53,4.53,0,0,1-1.15-3.31v-7.2a4.56,4.56,0,0,1,1.15-3.32,4.53,4.53,0,0,1,7.89,3.32v7.2a4.08,4.08,0,0,1-4.52,4.5A4.48,4.48,0,0,1,928.24,1167.23Zm5.11-1.54a2.56,2.56,0,0,0,.56-1.77v-7.2a2.56,2.56,0,0,0-.56-1.77,2.75,2.75,0,0,0-3.48,0,2.56,2.56,0,0,0-.56,1.77v7.2a2.56,2.56,0,0,0,.56,1.77,2.23,2.23,0,0,0,1.74.62A2.26,2.26,0,0,0,933.35,1165.69Z"></path><path class="cls-13" d="M977.32,1168.26H975.1v-13.43l-2.26,1.39v-2.3l2.26-1.5h2.22Z"></path><path class="cls-13" d="M1012.92,1166.16l5.52-7.37a5.59,5.59,0,0,0,.75-1.31,3.43,3.43,0,0,0,.26-1.27v0a1.92,1.92,0,0,0-.55-1.47,2.21,2.21,0,0,0-1.58-.52,2.18,2.18,0,0,0-1.57.57,2.61,2.61,0,0,0-.73,1.62h-2.3a6,6,0,0,1,.8-2.33,4.17,4.17,0,0,1,1.57-1.47,4.62,4.62,0,0,1,2.21-.51,5.58,5.58,0,0,1,2.42.49,3.41,3.41,0,0,1,1.52,1.41,4.46,4.46,0,0,1,.52,2.23h0a5,5,0,0,1-.34,1.76,7.81,7.81,0,0,1-1,1.76l-4.59,6.23h6v2.12h-8.93Z"></path><path class="cls-13" d="M1055.9,1167.93a4,4,0,0,1-1.62-1.4,4.94,4.94,0,0,1-.78-2.22h2.26a2.42,2.42,0,0,0,.43,1.11,1.93,1.93,0,0,0,.84.65,3.25,3.25,0,0,0,1.22.21,2.38,2.38,0,0,0,1.71-.58,2.24,2.24,0,0,0,.61-1.66v-.48a2.72,2.72,0,0,0-.58-1.84,2.09,2.09,0,0,0-1.64-.64h-1.12V1159h1.12a1.85,1.85,0,0,0,1.44-.55,2.25,2.25,0,0,0,.51-1.57v-.49a1.93,1.93,0,0,0-.53-1.45,2.15,2.15,0,0,0-1.54-.51,2.37,2.37,0,0,0-1,.21,2,2,0,0,0-.76.65,3.31,3.31,0,0,0-.45,1.11h-2.25a5.7,5.7,0,0,1,.82-2.22,4,4,0,0,1,1.53-1.41,4.57,4.57,0,0,1,2.12-.48,4.37,4.37,0,0,1,3.17,1.08,4,4,0,0,1,1.13,3v.26a3.42,3.42,0,0,1-.65,2.07,3.62,3.62,0,0,1-1.82,1.29,3.2,3.2,0,0,1,2,1.27,4.21,4.21,0,0,1,.72,2.53v.26a4.81,4.81,0,0,1-.54,2.36,3.46,3.46,0,0,1-1.55,1.5,5.44,5.44,0,0,1-2.45.51A5.31,5.31,0,0,1,1055.9,1167.93Z"></path><path class="cls-13" d="M1097.52,1168.26h-2.23v-13.43l-2.25,1.39v-2.3l2.25-1.5h2.23Z"></path><path class="cls-13" d="M1106.72,1160.39v.39a1.65,1.65,0,0,1-.82.74,3.43,3.43,0,0,1-1.3.23,3.48,3.48,0,0,1-2-.58,3.7,3.7,0,0,1-1.33-1.62,5.84,5.84,0,0,1-.48-2.44h0a6.2,6.2,0,0,1,.52-2.63,3.69,3.69,0,0,1,1.52-1.65,4.72,4.72,0,0,1,2.39-.57,4.59,4.59,0,0,1,2.38.58,3.69,3.69,0,0,1,1.51,1.68,6.06,6.06,0,0,1,.52,2.64v0a8,8,0,0,1-.22,1.81,10.63,10.63,0,0,1-.62,1.91c0,.1-.09.19-.13.29s-.09.19-.14.29l-3.38,6.79h-2.4Zm.1-1.37a3.06,3.06,0,0,0,.58-2h0a2.92,2.92,0,0,0-.58-1.94,2.27,2.27,0,0,0-3.24,0,3,3,0,0,0-.57,2h0a3.08,3.08,0,0,0,.57,2,2.2,2.2,0,0,0,3.24,0Z"></path><path class="cls-13" d="M499.65,805.34h-2.22V791.92l-2.26,1.39V791l2.26-1.5h2.22Z"></path><path class="cls-13" d="M505.36,805a3.86,3.86,0,0,1-1.68-1.54,4.37,4.37,0,0,1-.6-2.31v-.26a4.43,4.43,0,0,1,.6-2.24,3.94,3.94,0,0,1,1.58-1.58,3.34,3.34,0,0,1-1.34-1.32,3.56,3.56,0,0,1-.51-1.83v-.38a4.24,4.24,0,0,1,.56-2.18,3.73,3.73,0,0,1,1.56-1.46,5.59,5.59,0,0,1,4.71,0,3.7,3.7,0,0,1,1.57,1.46,4.23,4.23,0,0,1,.55,2.18v.38a3.52,3.52,0,0,1-.51,1.84,3.45,3.45,0,0,1-1.37,1.31,4.17,4.17,0,0,1,1.61,1.59,4.36,4.36,0,0,1,.6,2.23v.26a4.46,4.46,0,0,1-.59,2.31,3.94,3.94,0,0,1-1.69,1.54,5.44,5.44,0,0,1-2.52.55A5.51,5.51,0,0,1,505.36,805Zm3.89-1.89a2.29,2.29,0,0,0,.91-.86,2.49,2.49,0,0,0,.32-1.27v-.15a2.53,2.53,0,0,0-.32-1.28,2.2,2.2,0,0,0-.91-.85,3.14,3.14,0,0,0-2.72,0,2.1,2.1,0,0,0-.91.86,2.44,2.44,0,0,0-.33,1.28V801a2.39,2.39,0,0,0,.33,1.26,2.12,2.12,0,0,0,.91.84,3.23,3.23,0,0,0,2.72,0Zm-.19-7.14a2.06,2.06,0,0,0,.8-.83,2.54,2.54,0,0,0,.28-1.23v-.15a2.42,2.42,0,0,0-.28-1.18,2,2,0,0,0-.8-.79,2.69,2.69,0,0,0-2.35,0,2,2,0,0,0-.79.79,2.44,2.44,0,0,0-.29,1.19v.16a2.53,2.53,0,0,0,.29,1.22,2.08,2.08,0,0,0,.79.82,2.53,2.53,0,0,0,2.35,0Z"></path><path class="cls-13" d="M544.46,805.34h-2.22V791.92L540,793.31V791l2.26-1.5h2.22Z"></path><path class="cls-13" d="M556.23,791.49l-4.09,13.85h-2.36l4.09-13.72h-4v2.27h-2.22v-4.38h8.61Z"></path><path class="cls-13" d="M587.12,805.35H584.9V791.92l-2.26,1.39V791l2.26-1.5h2.22Z"></path><path class="cls-13" d="M592.41,805a3.62,3.62,0,0,1-1.5-1.64,5.79,5.79,0,0,1-.52-2.58h0a8.84,8.84,0,0,1,.21-1.86,10.17,10.17,0,0,1,.59-1.9l.15-.32.15-.31,3.44-6.82h2.4l-4,7.89V797a1.88,1.88,0,0,1,.79-.79,2.53,2.53,0,0,1,1.22-.29,3.92,3.92,0,0,1,2.12.56,3.54,3.54,0,0,1,1.34,1.62,6.5,6.5,0,0,1,.45,2.55h0a6.15,6.15,0,0,1-.51,2.62,3.69,3.69,0,0,1-1.52,1.65,4.72,4.72,0,0,1-2.39.57A4.85,4.85,0,0,1,592.41,805Zm4-2.23a2.76,2.76,0,0,0,.57-1.86h0a3.16,3.16,0,0,0-.6-2.06,2.1,2.1,0,0,0-1.71-.72,1.78,1.78,0,0,0-1.53.73,3.32,3.32,0,0,0-.55,2.06h0a2.71,2.71,0,0,0,.57,1.85,2.36,2.36,0,0,0,3.25,0Z"></path><path class="cls-13" d="M631.72,805.34H629.5V791.92l-2.26,1.39V791l2.26-1.5h2.22Z"></path><path class="cls-13" d="M640.93,797.48v.39a1.67,1.67,0,0,1-.83.74,3.39,3.39,0,0,1-1.3.23,3.45,3.45,0,0,1-2-.58,3.79,3.79,0,0,1-1.34-1.62,6,6,0,0,1-.47-2.44h0a6,6,0,0,1,.52-2.63,3.67,3.67,0,0,1,1.51-1.65,4.75,4.75,0,0,1,2.39-.57,4.63,4.63,0,0,1,2.39.58,3.7,3.7,0,0,1,1.51,1.68,6.22,6.22,0,0,1,.51,2.64h0a8.55,8.55,0,0,1-.21,1.82A12.5,12.5,0,0,1,643,798a2.55,2.55,0,0,0-.13.29l-.15.29-3.37,6.78h-2.4Zm.1-1.37a3.13,3.13,0,0,0,.57-2h0a3,3,0,0,0-.57-1.94,2,2,0,0,0-1.62-.68,2,2,0,0,0-1.63.68,3,3,0,0,0-.57,2h0a3.08,3.08,0,0,0,.57,2,2,2,0,0,0,1.63.7A2,2,0,0,0,641,796.11Z"></path><path class="cls-13" d="M679.67,791.49l-4.1,13.85h-2.36l4.1-13.72h-4v2.27h-2.23v-4.38h8.62Z"></path><path class="cls-13" d="M716.93,805a3.64,3.64,0,0,1-1.51-1.64,5.84,5.84,0,0,1-.52-2.59h0a8.82,8.82,0,0,1,.21-1.85,11,11,0,0,1,.6-1.9,3.09,3.09,0,0,1,.14-.32l.15-.32,3.44-6.81h2.4l-4,7.89V797a1.85,1.85,0,0,1,.8-.79,2.47,2.47,0,0,1,1.22-.29,3.88,3.88,0,0,1,2.11.56,3.49,3.49,0,0,1,1.34,1.62,6.49,6.49,0,0,1,.46,2.55h0a6.15,6.15,0,0,1-.52,2.62,3.69,3.69,0,0,1-1.52,1.65,4.72,4.72,0,0,1-2.39.57A4.79,4.79,0,0,1,716.93,805Zm4-2.23a2.76,2.76,0,0,0,.57-1.86h0a3.14,3.14,0,0,0-.6-2.06,2.09,2.09,0,0,0-1.71-.72,1.78,1.78,0,0,0-1.53.73,3.39,3.39,0,0,0-.55,2.06h0a2.67,2.67,0,0,0,.58,1.85,2,2,0,0,0,1.61.65A2.06,2.06,0,0,0,720.94,802.72Z"></path><path class="cls-13" d="M760.7,805a3.8,3.8,0,0,1-1.51-1.36,5.39,5.39,0,0,1-.78-2.15h2.22a2.07,2.07,0,0,0,.7,1.36,2.25,2.25,0,0,0,1.5.48,2,2,0,0,0,1.65-.71,3.1,3.1,0,0,0,.58-2v-1.33a3.07,3.07,0,0,0-.58-2,2,2,0,0,0-1.65-.71,2.13,2.13,0,0,0-1.11.32,3.16,3.16,0,0,0-.94.92h-2v-8.34h8.08v2.11H761v3.56a3.09,3.09,0,0,1,.92-.52,2.91,2.91,0,0,1,1.05-.19,4.6,4.6,0,0,1,2.35.57,3.66,3.66,0,0,1,1.48,1.65,6.2,6.2,0,0,1,.5,2.63v1.33a6,6,0,0,1-.52,2.62,3.8,3.8,0,0,1-1.52,1.67,4.8,4.8,0,0,1-2.41.57A4.7,4.7,0,0,1,760.7,805Z"></path><path class="cls-13" d="M878.91,801l5.32-11.47h2.29l-5.19,11.34h7.77v2H878.91Zm6.83-5h2.17v9.32h-2.17Z"></path><path class="cls-13" d="M893.52,805a3.7,3.7,0,0,1-1.51-1.64,6,6,0,0,1-.52-2.59h0a8.82,8.82,0,0,1,.21-1.85,11,11,0,0,1,.6-1.9,3.09,3.09,0,0,1,.14-.32l.15-.32,3.45-6.81h2.39l-4,7.89V797a1.85,1.85,0,0,1,.8-.79,2.5,2.5,0,0,1,1.22-.29,3.88,3.88,0,0,1,2.11.56,3.43,3.43,0,0,1,1.34,1.62,6.32,6.32,0,0,1,.46,2.55h0a6,6,0,0,1-.52,2.62,3.67,3.67,0,0,1-1.51,1.65,4.75,4.75,0,0,1-2.39.57A4.83,4.83,0,0,1,893.52,805Zm4-2.23a2.71,2.71,0,0,0,.58-1.86h0a3.14,3.14,0,0,0-.6-2.06,2.1,2.1,0,0,0-1.71-.72,1.8,1.8,0,0,0-1.54.73,3.39,3.39,0,0,0-.54,2.06h0a2.71,2.71,0,0,0,.57,1.85,2,2,0,0,0,1.62.65A2.05,2.05,0,0,0,897.53,802.72Z"></path><path class="cls-13" d="M921.65,801,927,789.52h2.29l-5.19,11.34h7.77v2H921.65Zm6.83-5h2.17v9.32h-2.17Z"></path><path class="cls-13" d="M936.86,805a3.9,3.9,0,0,1-1.52-1.36,5.39,5.39,0,0,1-.78-2.15h2.23a2.1,2.1,0,0,0,.69,1.36,2.3,2.3,0,0,0,1.51.48,2,2,0,0,0,1.65-.71,3.1,3.1,0,0,0,.58-2v-1.33a3.07,3.07,0,0,0-.58-2,2,2,0,0,0-1.65-.71,2.19,2.19,0,0,0-1.12.32,3.25,3.25,0,0,0-.93.92h-2v-8.34H943v2.11h-5.85v3.56a3.27,3.27,0,0,1,.93-.52,2.91,2.91,0,0,1,1.05-.19,4.56,4.56,0,0,1,2.34.57,3.68,3.68,0,0,1,1.49,1.65,6.36,6.36,0,0,1,.5,2.63v1.33a6,6,0,0,1-.52,2.62,3.76,3.76,0,0,1-1.53,1.67,4.76,4.76,0,0,1-2.4.57A4.7,4.7,0,0,1,936.86,805Z"></path><path class="cls-13" d="M964,801l5.31-11.47h2.29l-5.18,11.34h7.76v2H964Zm6.83-5H973v9.32h-2.17Z"></path><path class="cls-13" d="M976.71,801,982,789.52h2.28l-5.18,11.34h7.77v2H976.71Zm6.83-5h2.17v9.32h-2.17Z"></path><path class="cls-13" d="M1010.4,805.34h-2.23V791.92l-2.25,1.39V791l2.25-1.5h2.23Z"></path><path class="cls-13" d="M1015.74,805a4,4,0,0,1-1.62-1.4,5,5,0,0,1-.78-2.22h2.26a2.42,2.42,0,0,0,.43,1.11,1.93,1.93,0,0,0,.84.65,3.25,3.25,0,0,0,1.22.21,2.34,2.34,0,0,0,1.71-.59,2.2,2.2,0,0,0,.61-1.65v-.48a2.72,2.72,0,0,0-.58-1.84,2.09,2.09,0,0,0-1.64-.64h-1.12v-2.12h1.12a1.85,1.85,0,0,0,1.44-.55,2.25,2.25,0,0,0,.52-1.57v-.49a1.89,1.89,0,0,0-.54-1.45,2.15,2.15,0,0,0-1.54-.51,2.37,2.37,0,0,0-1,.21,1.87,1.87,0,0,0-.75.65,3.12,3.12,0,0,0-.46,1.11h-2.25a5.64,5.64,0,0,1,.82-2.22,4,4,0,0,1,1.53-1.41,4.57,4.57,0,0,1,2.12-.48,4.37,4.37,0,0,1,3.17,1.08,4,4,0,0,1,1.13,3v.26a3.42,3.42,0,0,1-.65,2.07,3.58,3.58,0,0,1-1.82,1.29,3.25,3.25,0,0,1,2,1.27,4.25,4.25,0,0,1,.71,2.53v.26a4.93,4.93,0,0,1-.53,2.36,3.59,3.59,0,0,1-1.56,1.5,5.44,5.44,0,0,1-2.45.51A5.31,5.31,0,0,1,1015.74,805Z"></path><path class="cls-13" d="M1052.58,805.34h-2.22V791.92l-2.26,1.39V791l2.26-1.5h2.22Z"></path><path class="cls-13" d="M1056,801l5.32-11.47h2.29l-5.19,11.34h7.77v2H1056Zm6.83-5H1065v9.32h-2.17Z"></path><path class="cls-13" d="M1097.31,805.34h-2.22V791.92l-2.26,1.39V791l2.26-1.5h2.22Z"></path><path class="cls-13" d="M1102.66,805a4,4,0,0,1-1.63-1.4,5.1,5.1,0,0,1-.78-2.22h2.27a2.31,2.31,0,0,0,.42,1.11,2,2,0,0,0,.85.65,3.19,3.19,0,0,0,1.21.21,2.34,2.34,0,0,0,1.71-.59,2.17,2.17,0,0,0,.61-1.65v-.48a2.67,2.67,0,0,0-.58-1.84,2.07,2.07,0,0,0-1.63-.64H1104v-2.12h1.12a1.85,1.85,0,0,0,1.44-.55,2.25,2.25,0,0,0,.51-1.57v-.49a1.89,1.89,0,0,0-.54-1.45,2.14,2.14,0,0,0-1.53-.51,2.31,2.31,0,0,0-1,.21,2,2,0,0,0-.76.65,2.94,2.94,0,0,0-.45,1.11h-2.26a5.8,5.8,0,0,1,.82-2.22,4.12,4.12,0,0,1,1.53-1.41,4.58,4.58,0,0,1,2.13-.48,4.4,4.4,0,0,1,3.17,1.08,4,4,0,0,1,1.12,3v.26a3.42,3.42,0,0,1-.64,2.07,3.66,3.66,0,0,1-1.82,1.29,3.25,3.25,0,0,1,2,1.27,4.18,4.18,0,0,1,.71,2.53v.26a4.93,4.93,0,0,1-.53,2.36,3.57,3.57,0,0,1-1.55,1.5,5.45,5.45,0,0,1-2.46.51A5.23,5.23,0,0,1,1102.66,805Z"></path><path class="cls-13" d="M1137.8,805.34h-2.22V791.92l-2.26,1.39V791l2.26-1.5h2.22Z"></path><path class="cls-13" d="M1141.15,803.42l5.53-7.37a5.54,5.54,0,0,0,.74-1.31,3.46,3.46,0,0,0,.27-1.27v0a1.93,1.93,0,0,0-.56-1.47,2.2,2.2,0,0,0-1.58-.53,2.18,2.18,0,0,0-1.56.58,2.55,2.55,0,0,0-.73,1.61v0H1141v0a6,6,0,0,1,.8-2.32,4.07,4.07,0,0,1,1.56-1.47,4.65,4.65,0,0,1,2.21-.51,5.41,5.41,0,0,1,2.42.49,3.38,3.38,0,0,1,1.53,1.41,4.54,4.54,0,0,1,.52,2.23h0a5,5,0,0,1-.35,1.75,7.16,7.16,0,0,1-1,1.77l-4.58,6.23h6v2.11h-8.94Z"></path><path class="cls-13" d="M1181.35,805.34h-2.22V791.92l-2.26,1.39V791l2.26-1.5h2.22Z"></path><path class="cls-13" d="M1188.77,805.34h-2.22V791.92l-2.26,1.39V791l2.26-1.5h2.22Z"></path><path class="cls-13" d="M1222.74,805.34h-2.22V791.92l-2.26,1.39V791l2.26-1.5h2.22Z"></path><path class="cls-13" d="M1227.49,804.32a4.55,4.55,0,0,1-1.15-3.31v-7.2a4.54,4.54,0,0,1,1.15-3.32,4.53,4.53,0,0,1,7.89,3.32V801a4.08,4.08,0,0,1-4.52,4.5A4.48,4.48,0,0,1,1227.49,804.32Zm5.11-1.54a2.56,2.56,0,0,0,.56-1.77v-7.2a2.56,2.56,0,0,0-.56-1.77,2.23,2.23,0,0,0-1.74-.62,2.26,2.26,0,0,0-1.75.62,2.55,2.55,0,0,0-.55,1.77V801a2.56,2.56,0,0,0,.56,1.77,2.23,2.23,0,0,0,1.74.61A2.26,2.26,0,0,0,1232.6,802.78Z"></path><path class="cls-13" d="M1268,797.48v.39a1.67,1.67,0,0,1-.83.74,3.39,3.39,0,0,1-1.3.23,3.45,3.45,0,0,1-2-.58,3.72,3.72,0,0,1-1.34-1.62,6,6,0,0,1-.47-2.44h0a6,6,0,0,1,.52-2.63,3.67,3.67,0,0,1,1.51-1.65,4.75,4.75,0,0,1,2.39-.57,4.63,4.63,0,0,1,2.39.58,3.7,3.7,0,0,1,1.51,1.68,6.22,6.22,0,0,1,.51,2.64h0a8.55,8.55,0,0,1-.21,1.82,12.5,12.5,0,0,1-.62,1.91,2.55,2.55,0,0,0-.13.29l-.15.29-3.37,6.78H1264Zm.1-1.37a3.13,3.13,0,0,0,.57-2h0a3,3,0,0,0-.57-1.94,2,2,0,0,0-1.62-.68,2,2,0,0,0-1.63.68,3,3,0,0,0-.57,2h0a3.08,3.08,0,0,0,.57,2,2,2,0,0,0,1.63.7A2,2,0,0,0,1268.13,796.11Z"></path><path class="cls-13" d="M1306.51,805a3.86,3.86,0,0,1-1.68-1.54,4.37,4.37,0,0,1-.6-2.31v-.26a4.43,4.43,0,0,1,.6-2.24,3.94,3.94,0,0,1,1.58-1.58,3.34,3.34,0,0,1-1.34-1.32,3.56,3.56,0,0,1-.51-1.83v-.38a4.23,4.23,0,0,1,.55-2.18,3.82,3.82,0,0,1,1.57-1.46,5.59,5.59,0,0,1,4.71,0,3.7,3.7,0,0,1,1.57,1.46,4.23,4.23,0,0,1,.55,2.18v.38a3.52,3.52,0,0,1-.51,1.84,3.45,3.45,0,0,1-1.37,1.31,4.17,4.17,0,0,1,1.61,1.59,4.36,4.36,0,0,1,.6,2.23v.26a4.46,4.46,0,0,1-.59,2.31,3.94,3.94,0,0,1-1.69,1.54,5.44,5.44,0,0,1-2.52.55A5.51,5.51,0,0,1,1306.51,805Zm3.89-1.89a2.29,2.29,0,0,0,.91-.86,2.49,2.49,0,0,0,.32-1.27v-.15a2.53,2.53,0,0,0-.32-1.28,2.2,2.2,0,0,0-.91-.85,3.14,3.14,0,0,0-2.72,0,2.1,2.1,0,0,0-.91.86,2.44,2.44,0,0,0-.33,1.28V801a2.39,2.39,0,0,0,.33,1.26,2.12,2.12,0,0,0,.91.84,3.23,3.23,0,0,0,2.72,0Zm-.19-7.14a2.06,2.06,0,0,0,.8-.83,2.54,2.54,0,0,0,.28-1.23v-.15a2.42,2.42,0,0,0-.28-1.18,2,2,0,0,0-.8-.79,2.69,2.69,0,0,0-2.35,0,1.94,1.94,0,0,0-.79.79,2.44,2.44,0,0,0-.29,1.19v.16a2.53,2.53,0,0,0,.29,1.22,2,2,0,0,0,.79.82,2.53,2.53,0,0,0,2.35,0Z"></path><path class="cls-13" d="M1345.89,801l5.32-11.47h2.28l-5.18,11.34h7.77v2h-10.19Zm6.83-5h2.17v9.32h-2.17Z"></path><path class="cls-13" d="M1358.56,803.42l5.52-7.37a5.59,5.59,0,0,0,.75-1.31,3.46,3.46,0,0,0,.27-1.27v0a1.93,1.93,0,0,0-.56-1.47,2.22,2.22,0,0,0-1.58-.53,2.19,2.19,0,0,0-1.57.58,2.61,2.61,0,0,0-.73,1.61v0h-2.3v0a6,6,0,0,1,.8-2.32,4.17,4.17,0,0,1,1.57-1.47,4.62,4.62,0,0,1,2.21-.51,5.44,5.44,0,0,1,2.42.49,3.36,3.36,0,0,1,1.52,1.41,4.43,4.43,0,0,1,.53,2.23h0a5,5,0,0,1-.35,1.75,7.88,7.88,0,0,1-1,1.77l-4.59,6.23h6v2.11h-8.93Z"></path><path class="cls-13" d="M1389.14,801l5.32-11.47h2.29l-5.19,11.34h7.77v2h-10.19Zm6.83-5h2.17v9.32H1396Z"></path><path class="cls-13" d="M1405.33,805.34h-2.22V791.92l-2.25,1.39V791l2.25-1.5h2.22Z"></path><path class="cls-13" d="M1430.17,801l5.32-11.47h2.29l-5.19,11.34h7.77v2h-10.19Zm6.83-5h2.17v9.32H1437Z"></path><path class="cls-13" d="M1444.23,804.32a4.59,4.59,0,0,1-1.15-3.31v-7.2a4.55,4.55,0,0,1,1.16-3.32,5.4,5.4,0,0,1,6.74,0,4.57,4.57,0,0,1,1.15,3.32V801a4.08,4.08,0,0,1-4.52,4.5A4.5,4.5,0,0,1,1444.23,804.32Zm5.11-1.54a2.51,2.51,0,0,0,.56-1.77v-7.2a2.55,2.55,0,0,0-.55-1.77,2.77,2.77,0,0,0-3.49,0,2.55,2.55,0,0,0-.55,1.77V801a2.51,2.51,0,0,0,.56,1.77,2.77,2.77,0,0,0,3.47,0Z"></path><path class="cls-13" d="M1478,805a4,4,0,0,1-1.63-1.4,5,5,0,0,1-.77-2.22h2.26a2.42,2.42,0,0,0,.43,1.11,1.88,1.88,0,0,0,.84.65,3.25,3.25,0,0,0,1.22.21,2.34,2.34,0,0,0,1.71-.59,2.2,2.2,0,0,0,.61-1.65v-.48a2.72,2.72,0,0,0-.58-1.84,2.09,2.09,0,0,0-1.64-.64h-1.12v-2.12h1.12a1.85,1.85,0,0,0,1.44-.55,2.25,2.25,0,0,0,.51-1.57v-.49a1.89,1.89,0,0,0-.54-1.45,2.13,2.13,0,0,0-1.53-.51,2.37,2.37,0,0,0-1,.21,2,2,0,0,0-.76.65,3.31,3.31,0,0,0-.45,1.11h-2.25a5.64,5.64,0,0,1,.82-2.22,4,4,0,0,1,1.53-1.41,4.54,4.54,0,0,1,2.12-.48,4.37,4.37,0,0,1,3.17,1.08,4,4,0,0,1,1.13,3v.26a3.42,3.42,0,0,1-.65,2.07,3.62,3.62,0,0,1-1.82,1.29,3.2,3.2,0,0,1,2,1.27,4.19,4.19,0,0,1,.72,2.53v.26a4.81,4.81,0,0,1-.54,2.36,3.51,3.51,0,0,1-1.55,1.5,5.44,5.44,0,0,1-2.45.51A5.31,5.31,0,0,1,1478,805Z"></path><path class="cls-13" d="M1493.62,797.48v.39a1.67,1.67,0,0,1-.83.74,3.39,3.39,0,0,1-1.3.23,3.45,3.45,0,0,1-2-.58,3.72,3.72,0,0,1-1.34-1.62,6,6,0,0,1-.47-2.44h0a6,6,0,0,1,.52-2.63,3.67,3.67,0,0,1,1.51-1.65,4.75,4.75,0,0,1,2.39-.57,4.63,4.63,0,0,1,2.39.58,3.7,3.7,0,0,1,1.51,1.68,6.22,6.22,0,0,1,.51,2.64h0a8.55,8.55,0,0,1-.21,1.82,12.5,12.5,0,0,1-.62,1.91,2.55,2.55,0,0,0-.13.29l-.15.29-3.37,6.78h-2.4Zm.1-1.37a3.13,3.13,0,0,0,.57-2h0a3,3,0,0,0-.57-1.94,2,2,0,0,0-1.62-.68,2,2,0,0,0-1.63.68,3,3,0,0,0-.57,2h0a3.08,3.08,0,0,0,.57,2,2,2,0,0,0,1.63.7A2,2,0,0,0,1493.72,796.11Z"></path><path class="cls-13" d="M1513.71,805a4,4,0,0,1-1.63-1.4,5.1,5.1,0,0,1-.78-2.22h2.26a2.42,2.42,0,0,0,.43,1.11,2,2,0,0,0,.84.65,3.25,3.25,0,0,0,1.22.21,2.34,2.34,0,0,0,1.71-.59,2.2,2.2,0,0,0,.61-1.65v-.48a2.67,2.67,0,0,0-.58-1.84,2.07,2.07,0,0,0-1.63-.64H1515v-2.12h1.13a1.88,1.88,0,0,0,1.44-.55,2.25,2.25,0,0,0,.51-1.57v-.49a1.89,1.89,0,0,0-.54-1.45,2.14,2.14,0,0,0-1.53-.51,2.38,2.38,0,0,0-1,.21,1.94,1.94,0,0,0-.75.65,2.94,2.94,0,0,0-.45,1.11h-2.26a5.64,5.64,0,0,1,.82-2.22,4.12,4.12,0,0,1,1.53-1.41,4.58,4.58,0,0,1,2.13-.48,4.4,4.4,0,0,1,3.17,1.08,4,4,0,0,1,1.12,3v.26a3.48,3.48,0,0,1-.64,2.07,3.66,3.66,0,0,1-1.82,1.29,3.25,3.25,0,0,1,2,1.27,4.25,4.25,0,0,1,.71,2.53v.26a4.93,4.93,0,0,1-.53,2.36,3.59,3.59,0,0,1-1.56,1.5,5.38,5.38,0,0,1-2.45.51A5.23,5.23,0,0,1,1513.71,805Z"></path><path class="cls-13" d="M1525.86,805a4,4,0,0,1-1.68-1.54,4.36,4.36,0,0,1-.59-2.31v-.26a4.42,4.42,0,0,1,.59-2.24,4,4,0,0,1,1.59-1.58,3.42,3.42,0,0,1-1.35-1.32,3.56,3.56,0,0,1-.51-1.83v-.38a4.24,4.24,0,0,1,.56-2.18,3.7,3.7,0,0,1,1.57-1.46,5.57,5.57,0,0,1,4.7,0,3.7,3.7,0,0,1,1.57,1.46,4.24,4.24,0,0,1,.56,2.18v.38a3.53,3.53,0,0,1-.52,1.84A3.38,3.38,0,0,1,1531,797a4.1,4.1,0,0,1,1.61,1.59,4.36,4.36,0,0,1,.6,2.23v.26a4.36,4.36,0,0,1-.59,2.31,4,4,0,0,1-1.68,1.54,6.09,6.09,0,0,1-5.06,0Zm3.89-1.89a2.22,2.22,0,0,0,.91-.86,2.4,2.4,0,0,0,.32-1.27v-.15a2.44,2.44,0,0,0-.32-1.28,2.14,2.14,0,0,0-.91-.85,3.14,3.14,0,0,0-2.72,0,2.16,2.16,0,0,0-.91.86,2.44,2.44,0,0,0-.32,1.28V801a2.39,2.39,0,0,0,.32,1.26,2.18,2.18,0,0,0,.91.84,3.23,3.23,0,0,0,2.72,0Zm-.18-7.14a2,2,0,0,0,.79-.83,2.54,2.54,0,0,0,.29-1.23v-.15a2.43,2.43,0,0,0-.29-1.18,2,2,0,0,0-.79-.79,2.5,2.5,0,0,0-1.18-.27,2.53,2.53,0,0,0-1.18.27,2,2,0,0,0-.79.79,2.43,2.43,0,0,0-.28,1.19v.16a2.53,2.53,0,0,0,.28,1.22,2.08,2.08,0,0,0,.79.82,2.43,2.43,0,0,0,1.18.29A2.4,2.4,0,0,0,1529.57,795.93Z"></path><path class="cls-13" d="M1133.94,1166.33l5.52-7.37a5.59,5.59,0,0,0,.75-1.31,3.46,3.46,0,0,0,.27-1.27v0a1.93,1.93,0,0,0-.56-1.47,2.55,2.55,0,0,0-3.15,0,2.61,2.61,0,0,0-.73,1.62h-2.29a5.79,5.79,0,0,1,.8-2.33,4.07,4.07,0,0,1,1.56-1.47,4.65,4.65,0,0,1,2.21-.51,5.41,5.41,0,0,1,2.42.49,3.31,3.31,0,0,1,1.52,1.41,4.46,4.46,0,0,1,.53,2.23h0a5,5,0,0,1-.35,1.76,7.64,7.64,0,0,1-1,1.76l-4.59,6.23h6v2.12h-8.93Z"></path><path class="cls-13" d="M1146.86,1167.23a4.53,4.53,0,0,1-1.15-3.31v-7.2a4.56,4.56,0,0,1,1.15-3.32,4.53,4.53,0,0,1,7.89,3.32v7.2a4.08,4.08,0,0,1-4.52,4.5A4.48,4.48,0,0,1,1146.86,1167.23Zm5.11-1.54a2.56,2.56,0,0,0,.56-1.77v-7.2a2.56,2.56,0,0,0-.56-1.77,2.23,2.23,0,0,0-1.74-.62,2.27,2.27,0,0,0-1.75.62,2.55,2.55,0,0,0-.55,1.77v7.2a2.56,2.56,0,0,0,.56,1.77,2.23,2.23,0,0,0,1.74.62A2.26,2.26,0,0,0,1152,1165.69Z"></path><path class="cls-13" d="M1177.49,1166.33,1183,1159a5.59,5.59,0,0,0,.75-1.31,3.46,3.46,0,0,0,.27-1.27v0a1.93,1.93,0,0,0-.56-1.47,2.55,2.55,0,0,0-3.15,0,2.61,2.61,0,0,0-.73,1.62h-2.29a5.79,5.79,0,0,1,.8-2.33,4.07,4.07,0,0,1,1.56-1.47,4.65,4.65,0,0,1,2.21-.51,5.41,5.41,0,0,1,2.42.49,3.31,3.31,0,0,1,1.52,1.41,4.46,4.46,0,0,1,.53,2.23h0a5,5,0,0,1-.35,1.76,7.64,7.64,0,0,1-1,1.76l-4.59,6.23h6v2.12h-8.93Z"></path><path class="cls-13" d="M1193.08,1168.26h-2.22v-13.43l-2.26,1.39v-2.3l2.26-1.5h2.22Z"></path><path class="cls-13" d="M1221,1166.33l5.52-7.37a5.59,5.59,0,0,0,.75-1.31,3.64,3.64,0,0,0,.26-1.27v0a1.92,1.92,0,0,0-.55-1.47,2.21,2.21,0,0,0-1.58-.52,2.18,2.18,0,0,0-1.57.57,2.61,2.61,0,0,0-.73,1.62h-2.3a6,6,0,0,1,.8-2.33,4.14,4.14,0,0,1,1.56-1.47,4.66,4.66,0,0,1,2.22-.51,5.37,5.37,0,0,1,2.41.49,3.38,3.38,0,0,1,1.53,1.41,4.46,4.46,0,0,1,.52,2.23h0a4.79,4.79,0,0,1-.35,1.76,7.28,7.28,0,0,1-1,1.76l-4.58,6.23h6v2.12H1221Z"></path><path class="cls-13" d="M1233.84,1167.86a3.64,3.64,0,0,1-1.51-1.64,5.79,5.79,0,0,1-.52-2.58h0a8.84,8.84,0,0,1,.21-1.86,11,11,0,0,1,.6-1.9,3.09,3.09,0,0,1,.14-.32l.15-.31,3.44-6.82h2.4l-4,7.89v-.39a1.91,1.91,0,0,1,.8-.79,2.47,2.47,0,0,1,1.22-.29,3.88,3.88,0,0,1,2.11.56,3.49,3.49,0,0,1,1.34,1.62,6.49,6.49,0,0,1,.46,2.55h0a6.15,6.15,0,0,1-.52,2.62,3.69,3.69,0,0,1-1.52,1.65,4.72,4.72,0,0,1-2.39.57A4.79,4.79,0,0,1,1233.84,1167.86Zm4-2.23a2.76,2.76,0,0,0,.57-1.86h0a3.16,3.16,0,0,0-.6-2.06,2.07,2.07,0,0,0-1.71-.72,1.78,1.78,0,0,0-1.53.73,3.39,3.39,0,0,0-.55,2.06h0a2.71,2.71,0,0,0,.58,1.86,2.36,2.36,0,0,0,3.24,0Z"></path><path class="cls-13" d="M1260.73,1163.9l5.32-11.47h2.29l-5.19,11.34h7.77v2.06h-10.19Zm6.83-5h2.17v9.33h-2.17Z"></path><path class="cls-13" d="M1275.75,1167.87a4,4,0,0,1-1.68-1.54,4.46,4.46,0,0,1-.59-2.31v-.26a4.55,4.55,0,0,1,.59-2.24,4.09,4.09,0,0,1,1.59-1.58,3.42,3.42,0,0,1-1.35-1.32,3.54,3.54,0,0,1-.5-1.82v-.39a4.23,4.23,0,0,1,.55-2.18,3.7,3.7,0,0,1,1.57-1.46,5.59,5.59,0,0,1,4.71,0,3.73,3.73,0,0,1,1.56,1.46,4.24,4.24,0,0,1,.56,2.18v.39a3.49,3.49,0,0,1-.52,1.84,3.36,3.36,0,0,1-1.37,1.3,4.17,4.17,0,0,1,1.61,1.59,4.4,4.4,0,0,1,.61,2.23v.26a4.37,4.37,0,0,1-.6,2.31,3.86,3.86,0,0,1-1.68,1.54,6.09,6.09,0,0,1-5.06,0Zm3.89-1.89a2.16,2.16,0,0,0,.91-.86,2.4,2.4,0,0,0,.32-1.27v-.15a2.46,2.46,0,0,0-.32-1.28,2.14,2.14,0,0,0-.91-.85,3.14,3.14,0,0,0-2.72,0,2.22,2.22,0,0,0-.91.86,2.56,2.56,0,0,0-.32,1.28v.17a2.46,2.46,0,0,0,.32,1.26,2.24,2.24,0,0,0,.91.84,3.23,3.23,0,0,0,2.72,0Zm-.18-7.14a2,2,0,0,0,.79-.82,2.61,2.61,0,0,0,.29-1.24v-.15a2.36,2.36,0,0,0-.29-1.17,1.83,1.83,0,0,0-.79-.79,2.61,2.61,0,0,0-2.35,0,1.85,1.85,0,0,0-.8.79,2.37,2.37,0,0,0-.28,1.18v.17a2.51,2.51,0,0,0,.28,1.21,2,2,0,0,0,.8.82,2.53,2.53,0,0,0,2.35,0Z"></path><path class="cls-13" d="M1348.07,1167.93a4,4,0,0,1-1.63-1.4,5.06,5.06,0,0,1-.78-2.22h2.27a2.31,2.31,0,0,0,.42,1.11,2,2,0,0,0,.85.65,3.19,3.19,0,0,0,1.21.21,2.36,2.36,0,0,0,1.71-.58,2.2,2.2,0,0,0,.61-1.66v-.48a2.67,2.67,0,0,0-.58-1.84,2.07,2.07,0,0,0-1.63-.64h-1.12V1159h1.12a1.85,1.85,0,0,0,1.44-.55,2.25,2.25,0,0,0,.51-1.57v-.49a1.89,1.89,0,0,0-.54-1.45,2.14,2.14,0,0,0-1.53-.51,2.34,2.34,0,0,0-1,.21,2,2,0,0,0-.76.65,2.94,2.94,0,0,0-.45,1.11h-2.26a5.71,5.71,0,0,1,.83-2.22,4,4,0,0,1,1.53-1.41,4.51,4.51,0,0,1,2.12-.48,4.38,4.38,0,0,1,3.17,1.08,4,4,0,0,1,1.12,3v.26a3.42,3.42,0,0,1-.64,2.07,3.62,3.62,0,0,1-1.82,1.29,3.25,3.25,0,0,1,2,1.27,4.2,4.2,0,0,1,.71,2.53v.26a4.81,4.81,0,0,1-.53,2.36,3.51,3.51,0,0,1-1.55,1.5,5.45,5.45,0,0,1-2.46.51A5.26,5.26,0,0,1,1348.07,1167.93Z"></path><path class="cls-13" d="M1359.87,1167.93a4,4,0,0,1-1.63-1.4,5.06,5.06,0,0,1-.78-2.22h2.27a2.31,2.31,0,0,0,.42,1.11,2,2,0,0,0,.84.65,3.25,3.25,0,0,0,1.22.21,2.38,2.38,0,0,0,1.71-.58,2.2,2.2,0,0,0,.61-1.66v-.48a2.67,2.67,0,0,0-.58-1.84,2.07,2.07,0,0,0-1.63-.64h-1.12V1159h1.12a1.87,1.87,0,0,0,1.44-.55,2.25,2.25,0,0,0,.51-1.57v-.49a1.89,1.89,0,0,0-.54-1.45,2.14,2.14,0,0,0-1.53-.51,2.31,2.31,0,0,0-1,.21,2,2,0,0,0-.76.65,2.94,2.94,0,0,0-.45,1.11h-2.26a5.86,5.86,0,0,1,.82-2.22,4.12,4.12,0,0,1,1.53-1.41,4.58,4.58,0,0,1,2.13-.48,4.4,4.4,0,0,1,3.17,1.08,4,4,0,0,1,1.12,3v.26a3.42,3.42,0,0,1-.64,2.07A3.66,3.66,0,0,1,1364,1160a3.25,3.25,0,0,1,2,1.27,4.27,4.27,0,0,1,.71,2.53v.26a4.93,4.93,0,0,1-.53,2.36,3.56,3.56,0,0,1-1.55,1.5,5.45,5.45,0,0,1-2.46.51A5.23,5.23,0,0,1,1359.87,1167.93Z"></path><path class="cls-13" d="M1304.39,1163.9l5.31-11.47H1312l-5.19,11.34h7.77v2.06h-10.18Zm6.83-5h2.16v9.33h-2.16Z"></path><path class="cls-13" d="M1325.48,1154.4l-4.1,13.86H1319l4.09-13.73h-4v2.28h-2.22v-4.39h8.62Z"></path><path class="cls-13" d="M1391.32,1167.93a4.09,4.09,0,0,1-1.63-1.4,5.05,5.05,0,0,1-.77-2.22h2.26a2.42,2.42,0,0,0,.43,1.11,1.93,1.93,0,0,0,.84.65,3.25,3.25,0,0,0,1.22.21,2.38,2.38,0,0,0,1.71-.58,2.24,2.24,0,0,0,.61-1.66v-.48a2.72,2.72,0,0,0-.58-1.84,2.09,2.09,0,0,0-1.64-.64h-1.12V1159h1.12a1.85,1.85,0,0,0,1.44-.55,2.25,2.25,0,0,0,.51-1.57v-.49a1.93,1.93,0,0,0-.53-1.45,2.15,2.15,0,0,0-1.54-.51,2.37,2.37,0,0,0-1,.21,2,2,0,0,0-.76.65,3.31,3.31,0,0,0-.45,1.11h-2.25a5.7,5.7,0,0,1,.82-2.22,4,4,0,0,1,1.53-1.41,4.57,4.57,0,0,1,2.12-.48,4.37,4.37,0,0,1,3.17,1.08,4,4,0,0,1,1.13,3v.26a3.42,3.42,0,0,1-.65,2.07,3.62,3.62,0,0,1-1.82,1.29,3.2,3.2,0,0,1,2,1.27,4.21,4.21,0,0,1,.72,2.53v.26a4.81,4.81,0,0,1-.54,2.36,3.46,3.46,0,0,1-1.55,1.5,5.44,5.44,0,0,1-2.45.51A5.31,5.31,0,0,1,1391.32,1167.93Z"></path><path class="cls-13" d="M1401.15,1163.9l5.32-11.47h2.28l-5.18,11.34h7.76v2.06h-10.18Zm6.83-5h2.17v9.33H1408Z"></path><path class="cls-13" d="M1476.64,1167.93a4,4,0,0,1-1.63-1.4,5.06,5.06,0,0,1-.78-2.22h2.26a2.42,2.42,0,0,0,.43,1.11,2,2,0,0,0,.84.65,3.25,3.25,0,0,0,1.22.21,2.38,2.38,0,0,0,1.71-.58,2.2,2.2,0,0,0,.61-1.66v-.48a2.67,2.67,0,0,0-.58-1.84,2.07,2.07,0,0,0-1.63-.64H1478V1159h1.12a1.88,1.88,0,0,0,1.44-.55,2.25,2.25,0,0,0,.51-1.57v-.49a1.89,1.89,0,0,0-.54-1.45,2.14,2.14,0,0,0-1.53-.51,2.38,2.38,0,0,0-1,.21,1.94,1.94,0,0,0-.75.65,2.94,2.94,0,0,0-.45,1.11h-2.26a5.86,5.86,0,0,1,.82-2.22,4.12,4.12,0,0,1,1.53-1.41,4.58,4.58,0,0,1,2.13-.48,4.4,4.4,0,0,1,3.17,1.08,4,4,0,0,1,1.12,3v.26a3.42,3.42,0,0,1-.64,2.07,3.66,3.66,0,0,1-1.82,1.29,3.25,3.25,0,0,1,2,1.27,4.27,4.27,0,0,1,.71,2.53v.26a4.93,4.93,0,0,1-.53,2.36,3.56,3.56,0,0,1-1.55,1.5,5.45,5.45,0,0,1-2.46.51A5.23,5.23,0,0,1,1476.64,1167.93Z"></path><path class="cls-13" d="M1488.38,1167.86a3.7,3.7,0,0,1-1.51-1.64,5.93,5.93,0,0,1-.52-2.58h0a8.84,8.84,0,0,1,.21-1.86,11,11,0,0,1,.6-1.9,3.09,3.09,0,0,1,.14-.32l.15-.31,3.45-6.82h2.39l-4,7.89v-.39a1.91,1.91,0,0,1,.8-.79,2.5,2.5,0,0,1,1.22-.29,3.88,3.88,0,0,1,2.11.56,3.43,3.43,0,0,1,1.34,1.62,6.32,6.32,0,0,1,.46,2.55h0a6,6,0,0,1-.52,2.62,3.67,3.67,0,0,1-1.51,1.65,4.78,4.78,0,0,1-2.39.57A4.83,4.83,0,0,1,1488.38,1167.86Zm4-2.23a2.71,2.71,0,0,0,.58-1.86h0a3.16,3.16,0,0,0-.6-2.06,2.1,2.1,0,0,0-1.71-.72,1.8,1.8,0,0,0-1.54.73,3.39,3.39,0,0,0-.54,2.06h0a2.76,2.76,0,0,0,.57,1.86,2,2,0,0,0,1.62.64A2,2,0,0,0,1492.39,1165.63Z"></path><path class="cls-13" d="M1433.77,1167.93a4,4,0,0,1-1.63-1.4,5.06,5.06,0,0,1-.78-2.22h2.27a2.31,2.31,0,0,0,.42,1.11,2,2,0,0,0,.85.65,3.19,3.19,0,0,0,1.21.21,2.38,2.38,0,0,0,1.71-.58,2.2,2.2,0,0,0,.61-1.66v-.48a2.67,2.67,0,0,0-.58-1.84,2.07,2.07,0,0,0-1.63-.64h-1.12V1159h1.12a1.85,1.85,0,0,0,1.44-.55,2.25,2.25,0,0,0,.51-1.57v-.49a1.89,1.89,0,0,0-.54-1.45,2.14,2.14,0,0,0-1.53-.51,2.31,2.31,0,0,0-1,.21,2,2,0,0,0-.76.65,2.94,2.94,0,0,0-.45,1.11h-2.26a5.86,5.86,0,0,1,.82-2.22,4.07,4.07,0,0,1,1.54-1.41,4.51,4.51,0,0,1,2.12-.48,4.4,4.4,0,0,1,3.17,1.08,4,4,0,0,1,1.12,3v.26a3.42,3.42,0,0,1-.64,2.07,3.66,3.66,0,0,1-1.82,1.29,3.25,3.25,0,0,1,2,1.27,4.2,4.2,0,0,1,.71,2.53v.26a4.81,4.81,0,0,1-.53,2.36,3.51,3.51,0,0,1-1.55,1.5,5.45,5.45,0,0,1-2.46.51A5.23,5.23,0,0,1,1433.77,1167.93Z"></path><path class="cls-13" d="M1446.11,1168a3.83,3.83,0,0,1-1.52-1.36,5.39,5.39,0,0,1-.78-2.15H1446a2.09,2.09,0,0,0,.7,1.36,2.29,2.29,0,0,0,1.5.48,2,2,0,0,0,1.66-.71,3.16,3.16,0,0,0,.58-2v-1.33a3.13,3.13,0,0,0-.58-2,2,2,0,0,0-1.66-.71,2.1,2.1,0,0,0-1.11.33,3.09,3.09,0,0,0-.93.91h-2v-8.34h8.07v2.11h-5.85v3.56a3.27,3.27,0,0,1,.93-.52,3.14,3.14,0,0,1,1-.19,4.56,4.56,0,0,1,2.34.57,3.58,3.58,0,0,1,1.48,1.66,6.12,6.12,0,0,1,.51,2.62v1.33a6,6,0,0,1-.52,2.63,3.73,3.73,0,0,1-1.53,1.66,4.8,4.8,0,0,1-2.41.57A4.69,4.69,0,0,1,1446.11,1168Z"></path><path class="cls-13" d="M1516.64,1167.93a4,4,0,0,1-1.63-1.4,5.06,5.06,0,0,1-.78-2.22h2.26a2.42,2.42,0,0,0,.43,1.11,2,2,0,0,0,.84.65,3.25,3.25,0,0,0,1.22.21,2.38,2.38,0,0,0,1.71-.58,2.2,2.2,0,0,0,.61-1.66v-.48a2.67,2.67,0,0,0-.58-1.84,2.07,2.07,0,0,0-1.63-.64H1518V1159h1.12a1.88,1.88,0,0,0,1.44-.55,2.25,2.25,0,0,0,.51-1.57v-.49a1.89,1.89,0,0,0-.54-1.45,2.14,2.14,0,0,0-1.53-.51,2.38,2.38,0,0,0-1,.21,1.94,1.94,0,0,0-.75.65,2.94,2.94,0,0,0-.45,1.11h-2.26a5.86,5.86,0,0,1,.82-2.22,4.12,4.12,0,0,1,1.53-1.41,4.58,4.58,0,0,1,2.13-.48,4.4,4.4,0,0,1,3.17,1.08,4,4,0,0,1,1.12,3v.26a3.42,3.42,0,0,1-.64,2.07,3.66,3.66,0,0,1-1.82,1.29,3.25,3.25,0,0,1,2,1.27,4.27,4.27,0,0,1,.71,2.53v.26a4.93,4.93,0,0,1-.53,2.36,3.56,3.56,0,0,1-1.55,1.5,5.45,5.45,0,0,1-2.46.51A5.23,5.23,0,0,1,1516.64,1167.93Z"></path><path class="cls-13" d="M1534.86,1154.4l-4.09,13.86h-2.37l4.1-13.73h-4v2.28h-2.23v-4.39h8.62Z"></path><path class="cls-13" d="M965.41,1126.73h2.83l2.45,9.85,3.44-9.85H976l3.44,9.85,2.45-9.85h2.83l-4.25,13.8h-2l-3.36-9.53-3.37,9.53h-2Z"></path><path class="cls-13" d="M986.47,1126.73h2.83l2.44,9.85,3.45-9.85h1.88l3.45,9.85,2.44-9.85h2.83l-4.25,13.8h-2l-3.36-9.53-3.36,9.53h-2Z"></path><path class="cls-13" d="M1007.52,1126.73h2.83l2.45,9.85,3.44-9.85h1.89l3.44,9.85,2.45-9.85h2.83l-4.25,13.8h-2.05l-3.36-9.53-3.37,9.53h-2Z"></path><path class="cls-13" d="M1027.71,1137.68h2.85v2.85h-2.85Z"></path><path class="cls-13" d="M1034.35,1121.2h2.71v19.33h-2.71Zm8.37,11a3.12,3.12,0,0,0-.76-2.26,2.75,2.75,0,0,0-2.13-.8,2.86,2.86,0,0,0-2,.69,2.57,2.57,0,0,0-.72,2l-.28-2.65a4.85,4.85,0,0,1,1.67-1.9,4,4,0,0,1,2.28-.67,4.28,4.28,0,0,1,3.47,1.47,6.28,6.28,0,0,1,1.23,4.15v8.38h-2.71Z"></path><path class="cls-13" d="M1051.93,1140a4.85,4.85,0,0,1-2.07-2.11,7.3,7.3,0,0,1-.71-3.35V1133a8.12,8.12,0,0,1,.69-3.5,4.88,4.88,0,0,1,2-2.2,6.11,6.11,0,0,1,3.14-.76,5,5,0,0,1,3,.86,5.37,5.37,0,0,1,1.87,2.5,10.7,10.7,0,0,1,.64,3.92v.91h-9.3v-2.18h6.73a4.6,4.6,0,0,0-.88-2.63,2.45,2.45,0,0,0-2-.93,2.93,2.93,0,0,0-2.39,1,4.33,4.33,0,0,0-.84,2.85v1.76a3.6,3.6,0,0,0,.9,2.63,3.47,3.47,0,0,0,2.57.92,4.19,4.19,0,0,0,1.64-.34,4.72,4.72,0,0,0,1.44-.92l1.79,1.78a7.74,7.74,0,0,1-2.3,1.52,6.59,6.59,0,0,1-2.57.54A6.87,6.87,0,0,1,1051.93,1140Z"></path><path class="cls-13" d="M1066.86,1137a1.19,1.19,0,0,0,.22.78.74.74,0,0,0,.61.28H1069v2.57h-1.59a3,3,0,0,1-2.39-.95,4,4,0,0,1-.84-2.7V1121.2h2.71Z"></path><path class="cls-13" d="M1071,1126.73h6.23v2.45H1071Zm2.2,12.94a4.21,4.21,0,0,1-.77-2.73v-14.22h2.71V1137a1.25,1.25,0,0,0,.2.78.68.68,0,0,0,.58.28h1.31v2.57h-1.57A3,3,0,0,1,1073.16,1139.67Z"></path><path class="cls-13" d="M1083.29,1140a4.75,4.75,0,0,1-2.07-2.11,7.18,7.18,0,0,1-.71-3.35V1133a8.28,8.28,0,0,1,.68-3.5,4.9,4.9,0,0,1,2-2.2,6.09,6.09,0,0,1,3.14-.76,5,5,0,0,1,3,.86,5.42,5.42,0,0,1,1.86,2.5,10.69,10.69,0,0,1,.65,3.92v.91h-9.3v-2.18h6.72a4.67,4.67,0,0,0-.87-2.63,2.45,2.45,0,0,0-2-.93,2.92,2.92,0,0,0-2.39,1,4.33,4.33,0,0,0-.84,2.85v1.76a3.6,3.6,0,0,0,.9,2.63,3.45,3.45,0,0,0,2.57.92,4.11,4.11,0,0,0,1.63-.34,4.89,4.89,0,0,0,1.45-.92l1.78,1.78a7.61,7.61,0,0,1-2.3,1.52,6.54,6.54,0,0,1-2.56.54A6.87,6.87,0,0,1,1083.29,1140Z"></path><path class="cls-13" d="M1097.85,1140a4.75,4.75,0,0,1-2-2,6.86,6.86,0,0,1-.71-3.24v-2.27a6.72,6.72,0,0,1,.71-3.2,4.71,4.71,0,0,1,2-2,6.81,6.81,0,0,1,3.22-.7,7.84,7.84,0,0,1,2,.26,6,6,0,0,1,1.71.75,4.81,4.81,0,0,1,1.26,1.2l-2,1.75a4.09,4.09,0,0,0-1.36-1,3.91,3.91,0,0,0-1.64-.36,3.23,3.23,0,0,0-2.43.88,3.34,3.34,0,0,0-.87,2.47v2.27a3.52,3.52,0,0,0,.86,2.53,3.25,3.25,0,0,0,2.44.89,3.64,3.64,0,0,0,1.65-.39,3.92,3.92,0,0,0,1.35-1.09l2,1.89a5,5,0,0,1-1.28,1.18,5.74,5.74,0,0,1-1.71.73,7.69,7.69,0,0,1-2,.26A6.81,6.81,0,0,1,1097.85,1140Z"></path><path class="cls-13" d="M1108.06,1137.68h2.85v2.85h-2.85Z"></path><path class="cls-13" d="M1116.38,1140a4.59,4.59,0,0,1-1.94-2,7.19,7.19,0,0,1-.68-3.25v-2.25a7,7,0,0,1,.68-3.21,4.54,4.54,0,0,1,1.94-2,7.08,7.08,0,0,1,6.14,0,4.61,4.61,0,0,1,2,2,7,7,0,0,1,.67,3.21v2.29a7.06,7.06,0,0,1-.67,3.22,4.69,4.69,0,0,1-2,2,7,7,0,0,1-6.14,0Zm5.27-2.76a3.69,3.69,0,0,0,.78-2.5v-2.29a3.6,3.6,0,0,0-.78-2.48,2.76,2.76,0,0,0-2.2-.88,2.78,2.78,0,0,0-2.2.88,3.6,3.6,0,0,0-.77,2.48v2.29a3.69,3.69,0,0,0,.77,2.5,2.79,2.79,0,0,0,2.2.89A2.76,2.76,0,0,0,1121.65,1137.26Z"></path><path class="cls-13" d="M1129,1126.73h2.71v13.8H1129Zm6.68,2.61a3.08,3.08,0,0,0-1.26-.23,2.71,2.71,0,0,0-2,.71,2.63,2.63,0,0,0-.71,2l-.28-2.65a4.88,4.88,0,0,1,1.65-1.92,3.85,3.85,0,0,1,2.23-.69,5.11,5.11,0,0,1,1.71.27,3.69,3.69,0,0,1,1.33.81l-1.76,2.39A2.26,2.26,0,0,0,1135.68,1129.34Z"></path><path class="cls-13" d="M1142.14,1140.11a4.12,4.12,0,0,1-1.63-1.92,7.48,7.48,0,0,1-.56-3v-3.05a7.72,7.72,0,0,1,.54-3,4.22,4.22,0,0,1,1.59-1.92,4.6,4.6,0,0,1,2.51-.66,4.11,4.11,0,0,1,2.24.64,4.67,4.67,0,0,1,1.64,1.79l-.28,2.82a3.32,3.32,0,0,0-.32-1.5,2.17,2.17,0,0,0-.92-1,3.07,3.07,0,0,0-1.47-.33,2.61,2.61,0,0,0-2.08.84,3.45,3.45,0,0,0-.74,2.35v3a3.37,3.37,0,0,0,.74,2.32,2.66,2.66,0,0,0,2.08.81,3,3,0,0,0,1.47-.34,2.21,2.21,0,0,0,.92-1,3.45,3.45,0,0,0,.32-1.53l.19,2.91a4,4,0,0,1-1.35,1.71,3.75,3.75,0,0,1-2.31.7A4.8,4.8,0,0,1,1142.14,1140.11Zm0,5.45a4.5,4.5,0,0,1-1.91-1.63l1.84-1.66a3.7,3.7,0,0,0,1.27,1.13,3.54,3.54,0,0,0,3.95-.46,3.28,3.28,0,0,0,.85-2.43v-13.78h2.71v13.38a7,7,0,0,1-.7,3.26,4.73,4.73,0,0,1-2,2.06,6.79,6.79,0,0,1-3.21.71A6.55,6.55,0,0,1,1142.19,1145.56Z"></path><path class="cls-13" d="M493.56,1171a4.1,4.1,0,0,1-1.57-1.55,6.57,6.57,0,0,1-.81-2.43h2.3a2.46,2.46,0,0,0,.73,1.54,2.21,2.21,0,0,0,1.55.55,2,2,0,0,0,1.71-.81,3.77,3.77,0,0,0,.61-2.28v-1.5a3.76,3.76,0,0,0-.61-2.27,2,2,0,0,0-1.71-.81,2.09,2.09,0,0,0-1.15.37,3.48,3.48,0,0,0-1,1h-2.1v-9.45h8.36v2.39h-6.06v4a3.22,3.22,0,0,1,1-.6,3,3,0,0,1,1.09-.21,4.41,4.41,0,0,1,2.43.65,4,4,0,0,1,1.53,1.87,7.6,7.6,0,0,1,.53,3v1.5a7.45,7.45,0,0,1-.54,3,4.08,4.08,0,0,1-1.58,1.88,4.65,4.65,0,0,1-2.5.65A4.53,4.53,0,0,1,493.56,1171Z"></path><path class="cls-13" d="M502.41,1153.41h2.5l3.94,14.07,3.94-14.07h2.51L510,1171.35h-2.19Z"></path><path class="cls-13" d="M535.09,1161.69v3.13a8.33,8.33,0,0,1-.71,3.53,5.48,5.48,0,0,1-2,2.35,5.41,5.41,0,0,1-3,.84,5.81,5.81,0,0,1-3.06-.79,5.3,5.3,0,0,1-2-2.21,7.31,7.31,0,0,1-.73-3.32v-5.3a8.32,8.32,0,0,1,.71-3.52,5.34,5.34,0,0,1,5-3.18,5.26,5.26,0,0,1,2.6.66,5.63,5.63,0,0,1,2,1.87,7.28,7.28,0,0,1,1.08,2.8h-2.49a4,4,0,0,0-.69-1.55,3.22,3.22,0,0,0-1.14-1,2.85,2.85,0,0,0-1.35-.34,3,3,0,0,0-1.79.53,3.43,3.43,0,0,0-1.18,1.48,5.51,5.51,0,0,0-.42,2.23v5.3a4.63,4.63,0,0,0,.43,2,3.24,3.24,0,0,0,1.21,1.35,3.43,3.43,0,0,0,1.82.48,3.08,3.08,0,0,0,3-1.95,5.56,5.56,0,0,0,.42-2.26v-.78H529.4v-2.4Z"></path><path class="cls-13" d="M538.59,1153.41h2.09l8,13.87-.27.32v-14.19h2.28v17.93H548.6l-8-13.66.27-.33v14h-2.28Z"></path><path class="cls-13" d="M557.15,1170.71a5.41,5.41,0,0,1-2-2.35,8.24,8.24,0,0,1-.71-3.51v-4.93a8.32,8.32,0,0,1,.71-3.52,5.52,5.52,0,0,1,2-2.35,5.44,5.44,0,0,1,3-.83,5.26,5.26,0,0,1,2.6.66,5.61,5.61,0,0,1,2,1.87,7.44,7.44,0,0,1,1.08,2.8h-2.36a4.35,4.35,0,0,0-.72-1.5,3.57,3.57,0,0,0-1.18-1,3.06,3.06,0,0,0-1.4-.35,3,3,0,0,0-1.76.53,3.49,3.49,0,0,0-1.17,1.48,5.51,5.51,0,0,0-.42,2.23v4.93a5.49,5.49,0,0,0,.42,2.22,3.46,3.46,0,0,0,1.17,1.49,3,3,0,0,0,1.76.52,3.17,3.17,0,0,0,1.41-.33,3.32,3.32,0,0,0,1.17-1,4.23,4.23,0,0,0,.72-1.56h2.36a7.28,7.28,0,0,1-1.09,2.81,5.7,5.7,0,0,1-2,1.87,5.25,5.25,0,0,1-2.59.66A5.44,5.44,0,0,1,557.15,1170.71Z"></path><path class="cls-13" d="M569.47,1170.19a5.43,5.43,0,0,1-1.19-3.75v-8.16a5.51,5.51,0,0,1,1.19-3.76,5.21,5.21,0,0,1,7,0,5.4,5.4,0,0,1,1.19,3.76v8.16a5.49,5.49,0,0,1-1.19,3.76,5.2,5.2,0,0,1-7,0Zm5.29-1.75a3,3,0,0,0,.58-2v-8.16a3.12,3.12,0,0,0-.57-2,2.72,2.72,0,0,0-3.62,0,3.12,3.12,0,0,0-.57,2v8.16a3,3,0,0,0,.58,2,2.66,2.66,0,0,0,3.6,0Z"></path><path class="cls-13" d="M582.73,1171a4.28,4.28,0,0,1-1.68-1.59,6,6,0,0,1-.81-2.52h2.35a2.73,2.73,0,0,0,.44,1.26,2,2,0,0,0,.87.74,3.08,3.08,0,0,0,1.26.24,2.3,2.3,0,0,0,1.77-.67,2.61,2.61,0,0,0,.63-1.87V1166a3.22,3.22,0,0,0-.6-2.08,2,2,0,0,0-1.69-.73h-1.16v-2.4h1.16a1.84,1.84,0,0,0,1.49-.63,2.69,2.69,0,0,0,.53-1.77v-.56a2.24,2.24,0,0,0-.56-1.64,2.08,2.08,0,0,0-1.58-.58,2.26,2.26,0,0,0-1,.24,2.14,2.14,0,0,0-.79.74,3.47,3.47,0,0,0-.46,1.25h-2.34a6.82,6.82,0,0,1,.85-2.51,4.18,4.18,0,0,1,3.79-2.14,4.32,4.32,0,0,1,3.28,1.22,4.79,4.79,0,0,1,1.16,3.45v.29a4.18,4.18,0,0,1-.66,2.35A3.8,3.8,0,0,1,587,1162a3.38,3.38,0,0,1,2.09,1.45,5.12,5.12,0,0,1,.73,2.86v.3a6,6,0,0,1-.55,2.68,3.82,3.82,0,0,1-1.61,1.69,5.75,5.75,0,0,1-5,0Z"></path><path class="cls-13" d="M591.78,1153.41h2.51l3.94,14.07,3.94-14.07h2.5l-5.35,17.94h-2.19Z"></path><path class="cls-13" d="M608.52,1171a4.37,4.37,0,0,1-1.69-1.59,6.34,6.34,0,0,1-.81-2.52h2.35a3,3,0,0,0,.44,1.26,2.1,2.1,0,0,0,.88.74,3,3,0,0,0,1.25.24,2.34,2.34,0,0,0,1.78-.67,2.61,2.61,0,0,0,.63-1.87V1166a3.22,3.22,0,0,0-.6-2.08,2.05,2.05,0,0,0-1.69-.73h-1.17v-2.4h1.17a1.85,1.85,0,0,0,1.49-.63,2.69,2.69,0,0,0,.53-1.77v-.56a2.28,2.28,0,0,0-.56-1.64,2.08,2.08,0,0,0-1.59-.58,2.26,2.26,0,0,0-1,.24,2,2,0,0,0-.78.74,3.47,3.47,0,0,0-.47,1.25h-2.34a6.83,6.83,0,0,1,.86-2.51,4.33,4.33,0,0,1,1.58-1.6,4.43,4.43,0,0,1,2.2-.54,4.35,4.35,0,0,1,3.29,1.22,4.83,4.83,0,0,1,1.16,3.45v.29a4.1,4.1,0,0,1-.67,2.35,3.77,3.77,0,0,1-1.88,1.45,3.35,3.35,0,0,1,2.08,1.45,5.13,5.13,0,0,1,.74,2.86v.3a6,6,0,0,1-.55,2.68,3.87,3.87,0,0,1-1.61,1.69,5.31,5.31,0,0,1-2.55.58A5.23,5.23,0,0,1,608.52,1171Z"></path><path class="cls-13" d="M630.48,1161.69v3.13a8.33,8.33,0,0,1-.71,3.53,5.36,5.36,0,0,1-5,3.19,5.8,5.8,0,0,1-3.05-.79,5.3,5.3,0,0,1-2-2.21,7.18,7.18,0,0,1-.73-3.32v-5.3a8.32,8.32,0,0,1,.71-3.52,5.34,5.34,0,0,1,5-3.18,5.29,5.29,0,0,1,2.6.66,5.63,5.63,0,0,1,2,1.87,7.44,7.44,0,0,1,1.08,2.8h-2.49a4.15,4.15,0,0,0-.69-1.55,3.22,3.22,0,0,0-1.14-1,2.88,2.88,0,0,0-1.35-.34,3,3,0,0,0-1.79.53,3.43,3.43,0,0,0-1.18,1.48,5.51,5.51,0,0,0-.42,2.23v5.3a4.49,4.49,0,0,0,.43,2,3.24,3.24,0,0,0,1.21,1.35,3.42,3.42,0,0,0,1.81.48,3.08,3.08,0,0,0,3-1.95,5.56,5.56,0,0,0,.42-2.26v-.78h-3.33v-2.4Z"></path><path class="cls-13" d="M634,1153.41h2.08l8,13.87-.27.32v-14.19h2.28v17.93H644l-8-13.66.28-.33v14H634Z"></path><path class="cls-13" d="M651,1170.19a5.48,5.48,0,0,1-1.19-3.75v-8.16a5.46,5.46,0,0,1,1.2-3.76,5.21,5.21,0,0,1,7,0,5.45,5.45,0,0,1,1.19,3.76v8.16a5.44,5.44,0,0,1-1.2,3.76,5.2,5.2,0,0,1-7,0Zm5.29-1.75a3,3,0,0,0,.58-2v-8.16a3.12,3.12,0,0,0-.57-2,2.71,2.71,0,0,0-3.61,0,3.07,3.07,0,0,0-.58,2v8.16a3.08,3.08,0,0,0,.58,2,2.2,2.2,0,0,0,1.8.7A2.18,2.18,0,0,0,656.3,1168.44Z"></path><path class="cls-13" d="M664.28,1171a4.3,4.3,0,0,1-1.69-1.59,6.19,6.19,0,0,1-.81-2.52h2.35a2.85,2.85,0,0,0,.44,1.26,2.07,2.07,0,0,0,.87.74,3.08,3.08,0,0,0,1.26.24,2.3,2.3,0,0,0,1.77-.67,2.57,2.57,0,0,0,.64-1.87V1166a3.22,3.22,0,0,0-.6-2.08,2.06,2.06,0,0,0-1.69-.73h-1.17v-2.4h1.17a1.83,1.83,0,0,0,1.48-.63,2.64,2.64,0,0,0,.53-1.77v-.56a2.28,2.28,0,0,0-.55-1.64,2.11,2.11,0,0,0-1.59-.58,2.26,2.26,0,0,0-1.05.24,2,2,0,0,0-.78.74,3.47,3.47,0,0,0-.47,1.25h-2.34a7,7,0,0,1,.85-2.51,4.18,4.18,0,0,1,3.79-2.14,4.31,4.31,0,0,1,3.28,1.22,4.79,4.79,0,0,1,1.17,3.45v.29a4.18,4.18,0,0,1-.67,2.35,3.77,3.77,0,0,1-1.88,1.45,3.35,3.35,0,0,1,2.08,1.45,5.13,5.13,0,0,1,.74,2.86v.3a6.1,6.1,0,0,1-.55,2.68,3.87,3.87,0,0,1-1.61,1.69,5.34,5.34,0,0,1-2.55.58A5.2,5.2,0,0,1,664.28,1171Z"></path><path class="cls-13" d="M673.33,1153.41h2.5l3.94,14.07,3.94-14.07h2.5l-5.35,17.94h-2.19Z"></path><path class="cls-13" d="M690.06,1171a4.37,4.37,0,0,1-1.69-1.59,6.19,6.19,0,0,1-.8-2.52h2.34a3,3,0,0,0,.44,1.26,2.1,2.1,0,0,0,.88.74,3.08,3.08,0,0,0,1.26.24,2.3,2.3,0,0,0,1.77-.67,2.61,2.61,0,0,0,.63-1.87V1166a3.22,3.22,0,0,0-.6-2.08,2.05,2.05,0,0,0-1.69-.73h-1.16v-2.4h1.16a1.84,1.84,0,0,0,1.49-.63,2.69,2.69,0,0,0,.53-1.77v-.56a2.28,2.28,0,0,0-.56-1.64,2.08,2.08,0,0,0-1.58-.58,2.2,2.2,0,0,0-1.05.24,2.14,2.14,0,0,0-.79.74,3.67,3.67,0,0,0-.47,1.25h-2.33a6.82,6.82,0,0,1,.85-2.51,4.43,4.43,0,0,1,1.59-1.6,4.91,4.91,0,0,1,5.48.68,4.83,4.83,0,0,1,1.16,3.45v.29a4.18,4.18,0,0,1-.66,2.35,3.84,3.84,0,0,1-1.89,1.45,3.33,3.33,0,0,1,2.08,1.45,5,5,0,0,1,.74,2.86v.3a6,6,0,0,1-.55,2.68A3.87,3.87,0,0,1,695,1171a5.75,5.75,0,0,1-5,0Z"></path><path class="cls-13" d="M712,1161.69v3.13a8.33,8.33,0,0,1-.71,3.53,5.36,5.36,0,0,1-5,3.19,5.81,5.81,0,0,1-3.06-.79,5.3,5.3,0,0,1-2-2.21,7.31,7.31,0,0,1-.73-3.32v-5.3a8.17,8.17,0,0,1,.72-3.52,5.45,5.45,0,0,1,2-2.35,5.54,5.54,0,0,1,3-.83,5.26,5.26,0,0,1,2.6.66,5.63,5.63,0,0,1,2,1.87,7.12,7.12,0,0,1,1.08,2.8h-2.49a3.85,3.85,0,0,0-.69-1.55,3.22,3.22,0,0,0-1.14-1,2.82,2.82,0,0,0-1.35-.34,3,3,0,0,0-1.78.53,3.38,3.38,0,0,0-1.19,1.48,5.51,5.51,0,0,0-.42,2.23v5.3a4.63,4.63,0,0,0,.43,2,3.2,3.2,0,0,0,1.22,1.35,3.37,3.37,0,0,0,1.81.48,3.22,3.22,0,0,0,1.78-.5,3.17,3.17,0,0,0,1.18-1.45,5.56,5.56,0,0,0,.42-2.26v-.78h-3.33v-2.4Z"></path><path class="cls-13" d="M715.52,1153.41h2.09l8,13.87-.27.32v-14.19h2.28v17.93h-2.11l-8-13.66.27-.33v14h-2.28Z"></path><path class="cls-13" d="M731.7,1153.41H734v17.94h-2.3Zm1.56,15.55H737a3.79,3.79,0,0,0,2.82-1,4,4,0,0,0,1-2.91v-5.28a4,4,0,0,0-1-2.91,3.75,3.75,0,0,0-2.82-1h-3.71v-2.39h3.64a7.09,7.09,0,0,1,3.38.75,5,5,0,0,1,2.13,2.19,7.65,7.65,0,0,1,.73,3.49v5.08a7.58,7.58,0,0,1-.73,3.48,5,5,0,0,1-2.14,2.2,7.09,7.09,0,0,1-3.38.75h-3.63Z"></path><path class="cls-13" d="M751.38,1153.41h2.51l3.93,14.07,3.94-14.07h2.51l-5.35,17.94h-2.19Z"></path><path class="cls-13" d="M767.42,1170.87a4.26,4.26,0,0,1-1.76-2,7.31,7.31,0,0,1-.6-3.11v-1.45a8.09,8.09,0,0,1,.58-3.24,4.43,4.43,0,0,1,1.69-2,4.82,4.82,0,0,1,2.66-.71,3.93,3.93,0,0,1,2.5.81,4.94,4.94,0,0,1,1.59,2.32,10.85,10.85,0,0,1,.55,3.64v.84h-7.9v-2h5.71a4.63,4.63,0,0,0-.74-2.43,2,2,0,0,0-1.71-.87,2.42,2.42,0,0,0-2,.93,4.3,4.3,0,0,0-.71,2.66v1.63a3.53,3.53,0,0,0,.76,2.44,2.79,2.79,0,0,0,2.18.85,3.3,3.3,0,0,0,1.39-.31,3.86,3.86,0,0,0,1.23-.86l1.51,1.65a6.51,6.51,0,0,1-2,1.42,5.21,5.21,0,0,1-2.18.5A5.46,5.46,0,0,1,767.42,1170.87Z"></path><path class="cls-13" d="M795.44,1161.69v3.13a8.18,8.18,0,0,1-.72,3.53,5.4,5.4,0,0,1-2,2.35,5.46,5.46,0,0,1-3,.84,5.78,5.78,0,0,1-3.05-.79,5.26,5.26,0,0,1-2-2.21,7.31,7.31,0,0,1-.72-3.32v-5.3a8.32,8.32,0,0,1,.71-3.52,5.54,5.54,0,0,1,2-2.35,5.48,5.48,0,0,1,3-.83,5.33,5.33,0,0,1,2.61.66,5.72,5.72,0,0,1,2,1.87,7.44,7.44,0,0,1,1.08,2.8h-2.49a4.15,4.15,0,0,0-.69-1.55,3.4,3.4,0,0,0-1.14-1,2.89,2.89,0,0,0-1.36-.34,3,3,0,0,0-1.78.53,3.36,3.36,0,0,0-1.18,1.48,5.51,5.51,0,0,0-.42,2.23v5.3a4.49,4.49,0,0,0,.43,2,3.18,3.18,0,0,0,1.21,1.35,3.4,3.4,0,0,0,1.81.48,3.1,3.1,0,0,0,3-1.95,5.56,5.56,0,0,0,.42-2.26v-.78h-3.33v-2.4Z"></path><path class="cls-13" d="M798.93,1153.41H801l8,13.87-.28.32v-14.19h2.28v17.93h-2.11l-8-13.66.27-.33v14h-2.28Z"></path><path class="cls-13" d="M815.12,1153.41h2.3v17.94h-2.3Zm1.55,15.55h3.72a3.75,3.75,0,0,0,2.81-1,4,4,0,0,0,1-2.91v-5.28a4,4,0,0,0-1-2.91,3.71,3.71,0,0,0-2.81-1h-3.72v-2.39h3.65a7,7,0,0,1,3.37.75,5,5,0,0,1,2.13,2.19,7.65,7.65,0,0,1,.74,3.49v5.08a7.58,7.58,0,0,1-.74,3.48,5,5,0,0,1-2.13,2.2,7.12,7.12,0,0,1-3.38.75h-3.64Z"></path><path class="cls-13" d="M904,820.39h2.84v18H904Zm1.76,7.92H917v2.39H905.8Zm9.74-7.92h2.84v18h-2.84Z"></path><path class="cls-13" d="M921.72,820.39H936v2.4H921.72Zm5.72,1.47h2.84v16.48h-2.84Z"></path><path class="cls-13" d="M941.63,838.34h-2.84v-18h2.84Z"></path><path class="cls-13" d="M945,820.39h14.28v2.4H945Zm5.72,1.47h2.84v16.48h-2.84Z"></path><path class="cls-13" d="M970.56,828.42v2.39H961.2v-2.39Z"></path><path class="cls-13" d="M972.37,820.39h14.28v2.4H972.37Zm5.72,1.47h2.84v16.48h-2.84Z"></path><path class="cls-13" d="M987.49,825.53h2.84v12.81h-2.84Zm7,2.42a3.81,3.81,0,0,0-1.32-.21,3.07,3.07,0,0,0-2.1.66,2.34,2.34,0,0,0-.74,1.83l-.3-2.47a5,5,0,0,1,1.73-1.78,4.52,4.52,0,0,1,2.34-.64,5.86,5.86,0,0,1,1.79.26,4.36,4.36,0,0,1,1.4.74l-1.85,2.23A2.31,2.31,0,0,0,994.49,828Z"></path><path class="cls-13" d="M1000.28,837.55a3.49,3.49,0,0,1-1.32-3,3.41,3.41,0,0,1,1.21-2.85,5.91,5.91,0,0,1,3.66-1h4.11l.19,2h-4.28a2.67,2.67,0,0,0-1.67.43,1.64,1.64,0,0,0-.55,1.34,1.62,1.62,0,0,0,.73,1.45,4.22,4.22,0,0,0,2.22.47,7.29,7.29,0,0,0,2.43-.31c.54-.21.8-.53.8-1l.3,1.8a3.15,3.15,0,0,1-.93.85,4.37,4.37,0,0,1-1.27.5,7.42,7.42,0,0,1-1.63.17A6.71,6.71,0,0,1,1000.28,837.55Zm7.53-7.33a2.52,2.52,0,0,0-.76-2,3.07,3.07,0,0,0-2.15-.69,6,6,0,0,0-1.69.23,5.8,5.8,0,0,0-1.47.65l-2.07-1.25a5.49,5.49,0,0,1,2.16-1.37,8.89,8.89,0,0,1,3-.49,7.56,7.56,0,0,1,3.08.57,4.24,4.24,0,0,1,2,1.62,4.83,4.83,0,0,1,.66,2.58v8.23h-2.7Z"></path><path class="cls-13" d="M1017.29,837.87a4.73,4.73,0,0,1-2.14-1.9,5.81,5.81,0,0,1-.74-3v-2.11a5.75,5.75,0,0,1,.74-3,4.74,4.74,0,0,1,2.14-1.88,8,8,0,0,1,3.37-.65,9.08,9.08,0,0,1,2.13.24,7.34,7.34,0,0,1,1.79.7,4.81,4.81,0,0,1,1.32,1.11l-2.05,1.63a4.21,4.21,0,0,0-1.43-.95,4.56,4.56,0,0,0-1.71-.33,3.68,3.68,0,0,0-2.55.81,2.93,2.93,0,0,0-.91,2.3V833a3.05,3.05,0,0,0,.9,2.35,3.65,3.65,0,0,0,2.56.82,4.24,4.24,0,0,0,1.72-.36,4,4,0,0,0,1.42-1l2.05,1.75a4.85,4.85,0,0,1-1.34,1.1,6.46,6.46,0,0,1-1.79.68,8.91,8.91,0,0,1-2.11.24A7.85,7.85,0,0,1,1017.29,837.87Z"></path><path class="cls-13" d="M1029,820.39h2.84v18H1029Zm1.23,13.09,7.43-8H1041l-11,10.94Zm3.35-2.53,1.83-1.68,6.3,9.07h-3.09Z"></path><path class="cls-13" d="M1046.6,837.86a4.69,4.69,0,0,1-2.16-2,6.1,6.1,0,0,1-.75-3.11v-1.45a6.77,6.77,0,0,1,.72-3.24,4.79,4.79,0,0,1,2.08-2.05,7.07,7.07,0,0,1,3.29-.71,5.69,5.69,0,0,1,3.09.81,5,5,0,0,1,2,2.32,8.89,8.89,0,0,1,.68,3.64V833h-9.75v-2h7a4,4,0,0,0-.92-2.43,2.68,2.68,0,0,0-2.1-.87,3.28,3.28,0,0,0-2.5.93,3.73,3.73,0,0,0-.89,2.66v1.63a3.12,3.12,0,0,0,.95,2.44,3.88,3.88,0,0,0,2.69.85,4.91,4.91,0,0,0,1.71-.31,5.07,5.07,0,0,0,1.52-.86l1.86,1.65a8.11,8.11,0,0,1-2.41,1.42,7.65,7.65,0,0,1-2.68.5A8.1,8.1,0,0,1,1046.6,837.86Z"></path><path class="cls-13" d="M1059.4,825.53h2.84v12.81h-2.84Zm7,2.42a3.81,3.81,0,0,0-1.32-.21,3.07,3.07,0,0,0-2.1.66,2.3,2.3,0,0,0-.74,1.83l-.3-2.47a4.93,4.93,0,0,1,1.73-1.78,4.49,4.49,0,0,1,2.34-.64,5.91,5.91,0,0,1,1.79.26,4.36,4.36,0,0,1,1.4.74l-1.85,2.23A2.31,2.31,0,0,0,1066.4,828Z"></path><path class="cls-13" d="M1095.15,820.39h3.09l4.86,14.08,4.85-14.08h3.1l-6.6,18h-2.71Z"></path><path class="cls-13" d="M1117,838.34h-2.84v-18H1117Z"></path><path class="cls-13" d="M1121.19,835.7h3v2.64h-3Z"></path><path class="cls-13" d="M1128.64,837.18a4.84,4.84,0,0,1-1.47-3.75v-8.16a4.83,4.83,0,0,1,1.47-3.76,7.59,7.59,0,0,1,8.61,0,4.8,4.8,0,0,1,1.47,3.76v8.16a4.84,4.84,0,0,1-1.47,3.76,6.23,6.23,0,0,1-4.31,1.34A6.13,6.13,0,0,1,1128.64,837.18Zm6.53-1.75a2.68,2.68,0,0,0,.71-2v-8.16a2.68,2.68,0,0,0-.71-2,3.93,3.93,0,0,0-4.45,0,2.68,2.68,0,0,0-.71,2v8.16a2.68,2.68,0,0,0,.71,2,3.89,3.89,0,0,0,4.45,0Z"></path><path class="cls-13" d="M1078.09,1087.79v-2.24l19.33-6.89v2.83l-15.6,5.18,15.6,5.18v2.83Zm12.51,3.71v-9.83h2.58v9.83Z"></path><path class="cls-13" d="M1086.23,1069.62a2.92,2.92,0,0,0-.23,1.22,2.6,2.6,0,0,0,.71,1.94,2.74,2.74,0,0,0,2,.68l-2.65.27a4.92,4.92,0,0,1-1.92-1.59,3.65,3.65,0,0,1-.69-2.16,4.76,4.76,0,0,1,.27-1.65,3.53,3.53,0,0,1,.81-1.29l2.39,1.71A2.19,2.19,0,0,0,1086.23,1069.62Zm-2.61,6.47v-2.63h13.8v2.63Z"></path><path class="cls-13" d="M1078.09,1057.52v-2.62h19.33v2.62Zm18.91,5.86a4.12,4.12,0,0,1-1.92,1.57,7.67,7.67,0,0,1-3,.54h-3a7.92,7.92,0,0,1-3-.52,4.13,4.13,0,0,1-1.92-1.54,4.32,4.32,0,0,1-.66-2.42,3.88,3.88,0,0,1,.64-2.17,4.63,4.63,0,0,1,1.79-1.59l2.82.27a3.46,3.46,0,0,0-1.5.31,2.21,2.21,0,0,0-1,.89,2.91,2.91,0,0,0-.33,1.43,2.5,2.5,0,0,0,.84,2,3.55,3.55,0,0,0,2.35.71h3a3.46,3.46,0,0,0,2.32-.71,2.55,2.55,0,0,0,.81-2,2.8,2.8,0,0,0-.34-1.43,2.27,2.27,0,0,0-1-.89,3.6,3.6,0,0,0-1.53-.31l2.91-.18a3.91,3.91,0,0,1,1.71,1.31,3.52,3.52,0,0,1,.7,2.23A4.55,4.55,0,0,1,1097,1063.38Z"></path><path class="cls-13" d="M1083.62,1042.87v-2.61h13.8v2.61Zm8.39,5.42a3.27,3.27,0,0,0,2.24-.71,2.61,2.61,0,0,0,.79-2,2.46,2.46,0,0,0-2.71-2.7l2.88-.18a4,4,0,0,1,1.71,1.33,3.66,3.66,0,0,1,.7,2.28,4.16,4.16,0,0,1-1.47,3.41,6.38,6.38,0,0,1-4.14,1.21h-8.39v-2.63Z"></path><path class="cls-13" d="M1093.85,1033.65a1.25,1.25,0,0,0,.78-.21.72.72,0,0,0,.27-.6v-1.24h2.58v1.55a2.91,2.91,0,0,1-1,2.31,4.07,4.07,0,0,1-2.7.81h-15.74v-2.62Z"></path><path class="cls-13" d="M1089.06,1020.68a3.2,3.2,0,0,0-2.26.73,2.62,2.62,0,0,0-.8,2.06,2.44,2.44,0,0,0,2.68,2.68l-2.65.27a4.84,4.84,0,0,1-1.93-1.61,3.84,3.84,0,0,1-.68-2.2,4.1,4.1,0,0,1,1.47-3.37,6.45,6.45,0,0,1,4.15-1.19h8.38v2.63Zm-5.44,8.1v-2.63h13.8v2.63Z"></path><path class="cls-13" d="M1096.91,1011.92a4.65,4.65,0,0,1-2.05,1.89,7.48,7.48,0,0,1-3.25.64h-2.25a7.32,7.32,0,0,1-3.21-.64,4.6,4.6,0,0,1-2-1.89,6.65,6.65,0,0,1,0-5.94,4.52,4.52,0,0,1,2-1.88,7.32,7.32,0,0,1,3.21-.65h2.29a7.34,7.34,0,0,1,3.22.65,4.6,4.6,0,0,1,2,1.88,6.57,6.57,0,0,1,0,5.94Zm-2.76-5.1a3.79,3.79,0,0,0-2.5-.75h-2.29a3.69,3.69,0,0,0-2.48.75,3,3,0,0,0,0,4.26,3.69,3.69,0,0,0,2.48.75h2.29a3.79,3.79,0,0,0,2.5-.75,3,3,0,0,0,0-4.26Z"></path><path class="cls-13" d="M1094.57,1000.68v-2.75h2.85v2.75Z"></path><path class="cls-13" d="M1096.73,992.08a6,6,0,0,1-2.53,2.28,8.42,8.42,0,0,1-3.79.81h-5.3a8.42,8.42,0,0,1-3.79-.81,6,6,0,0,1-2.53-2.28,6.42,6.42,0,0,1-.9-3.42,6.27,6.27,0,0,1,.71-2.95,6.42,6.42,0,0,1,2-2.26,7.78,7.78,0,0,1,3-1.23v2.69a4.31,4.31,0,0,0-1.61.82,4,4,0,0,0-1.1,1.34,3.48,3.48,0,0,0-.38,1.59,3.54,3.54,0,0,0,.57,2,3.79,3.79,0,0,0,1.6,1.34,5.81,5.81,0,0,0,2.4.47h5.3a5.76,5.76,0,0,0,2.39-.47,3.76,3.76,0,0,0,1.61-1.34,3.61,3.61,0,0,0,.56-2,3.73,3.73,0,0,0-1.42-2.93,4.26,4.26,0,0,0-1.68-.82v-2.69a7.69,7.69,0,0,1,3,1.24,6.29,6.29,0,0,1,2,2.26,6.15,6.15,0,0,1,.72,2.94A6.5,6.5,0,0,1,1096.73,992.08Z"></path><path class="cls-13" d="M1096.91,976.61a4.57,4.57,0,0,1-2.05,1.88,7.47,7.47,0,0,1-3.25.65h-2.25a7.32,7.32,0,0,1-3.21-.65,4.52,4.52,0,0,1-2-1.88,6.65,6.65,0,0,1,0-5.94,4.54,4.54,0,0,1,2-1.89,7.32,7.32,0,0,1,3.21-.65h2.29a7.34,7.34,0,0,1,3.22.65,4.62,4.62,0,0,1,2,1.89,6.57,6.57,0,0,1,0,5.94Zm-2.76-5.1a3.79,3.79,0,0,0-2.5-.75h-2.29a3.69,3.69,0,0,0-2.48.75,3,3,0,0,0,0,4.25,3.64,3.64,0,0,0,2.48.76h2.29a3.73,3.73,0,0,0,2.5-.76,3,3,0,0,0,0-4.25Z"></path><path class="cls-13" d="M1089.06,948.46a3.2,3.2,0,0,0-2.26.74,2.6,2.6,0,0,0-.8,2,2.36,2.36,0,0,0,.77,1.89,3.2,3.2,0,0,0,2.18.67l-2.66.53a5.29,5.29,0,0,1-2.12-1.67,3.8,3.8,0,0,1-.75-2.28,4.43,4.43,0,0,1,.66-2.46,4.16,4.16,0,0,1,1.92-1.56,7.91,7.91,0,0,1,3-.53h8.38v2.62Zm0,8a3.34,3.34,0,0,0-2.26.7,2.44,2.44,0,0,0-.8,2,2.44,2.44,0,0,0,2.68,2.68l-2.65.27a4.84,4.84,0,0,1-1.93-1.61,3.87,3.87,0,0,1-.68-2.21,4.22,4.22,0,0,1,.66-2.39,4.14,4.14,0,0,1,1.92-1.51,8.12,8.12,0,0,1,3-.52h8.38v2.62Zm-5.44,8v-2.63h13.8v2.63Z"></path><path class="cls-13" d="M1097,938.05a3.58,3.58,0,0,1-1.75,1.36l-2.88-.18a3.33,3.33,0,0,0,1.51-.31,2.13,2.13,0,0,0,1-.89,2.84,2.84,0,0,0,.33-1.42,2.5,2.5,0,0,0-.82-2,3.35,3.35,0,0,0-2.3-.72h-3a3.52,3.52,0,0,0-2.36.72,2.5,2.5,0,0,0-.83,2,2.84,2.84,0,0,0,.32,1.42,2.06,2.06,0,0,0,.93.89,3.23,3.23,0,0,0,1.48.31l-2.65.27a4.72,4.72,0,0,1-1.87-1.58,3.78,3.78,0,0,1-.66-2.17,4.32,4.32,0,0,1,.66-2.42,4.07,4.07,0,0,1,1.92-1.54,7.91,7.91,0,0,1,3-.53h3a7.52,7.52,0,0,1,3,.54,4.16,4.16,0,0,1,1.91,1.58,4.59,4.59,0,0,1,.66,2.5A3.84,3.84,0,0,1,1097,938.05Zm-13.38,3.81v-2.63H1103v2.63Z"></path><path class="cls-13" d="M1088.67,920a3,3,0,0,0-2.11.7,2.59,2.59,0,0,0-.75,2,4.91,4.91,0,0,0,.26,1.56,4.33,4.33,0,0,0,.7,1.35l-1.36,1.92a5,5,0,0,1-1.47-2,7.22,7.22,0,0,1-.52-2.76,6.11,6.11,0,0,1,.61-2.84,4.06,4.06,0,0,1,1.75-1.8,5.81,5.81,0,0,1,2.77-.61h8.87V920Zm7.89,7a4.79,4.79,0,0,1-6.28.11,4.9,4.9,0,0,1-1-3.38v-3.8l2.18-.18v4a2.17,2.17,0,0,0,.47,1.54,1.86,1.86,0,0,0,1.44.51,1.8,1.8,0,0,0,1.55-.68,3.38,3.38,0,0,0,.51-2,5.77,5.77,0,0,0-.33-2.24,1.1,1.1,0,0,0-1-.74l1.94-.27a3.26,3.26,0,0,1,.92.85,3.65,3.65,0,0,1,.54,1.18,5.84,5.84,0,0,1,.18,1.51A5.52,5.52,0,0,1,1096.56,927Z"></path><path class="cls-13" d="M1096.56,912.42a4.27,4.27,0,0,1-2.73.75h-14.22v-2.62h14.24a1.32,1.32,0,0,0,.78-.19.66.66,0,0,0,.27-.57v-1.26h2.58v1.52A2.86,2.86,0,0,1,1096.56,912.42Zm-12.94,2.13v-6h2.45v6Z"></path><path class="cls-13" d="M1078.09,904.93v-2.62h2.71v2.62Zm5.53,0v-2.62h13.8v2.62Z"></path><path class="cls-13" d="M1078.09,898.32V895.7h19.33v2.62Zm18.91-3.8a3.58,3.58,0,0,1-1.75,1.36l-2.88-.18a3.33,3.33,0,0,0,1.51-.31,2.13,2.13,0,0,0,1-.89,2.84,2.84,0,0,0,.33-1.42,2.5,2.5,0,0,0-.82-2,3.35,3.35,0,0,0-2.3-.72h-3a3.52,3.52,0,0,0-2.36.72,2.5,2.5,0,0,0-.83,2,2.84,2.84,0,0,0,.32,1.42,2.06,2.06,0,0,0,.93.89,3.23,3.23,0,0,0,1.48.31L1086,896a4.72,4.72,0,0,1-1.87-1.58,3.78,3.78,0,0,1-.66-2.17,4.35,4.35,0,0,1,.66-2.43,4.11,4.11,0,0,1,1.92-1.53,7.91,7.91,0,0,1,3-.53h3a7.52,7.52,0,0,1,3,.54,4.16,4.16,0,0,1,1.91,1.58,4.59,4.59,0,0,1,.66,2.5A3.84,3.84,0,0,1,1097,894.52Z"></path><path class="cls-13" d="M1093.85,881.38a1.25,1.25,0,0,0,.78-.21.72.72,0,0,0,.27-.6v-1.23h2.58v1.54a2.91,2.91,0,0,1-1,2.31,4.07,4.07,0,0,1-2.7.81h-15.74v-2.62Z"></path><path class="cls-13" d="M1096.9,874.08a4.75,4.75,0,0,1-2.11,2,7.58,7.58,0,0,1-3.35.68h-1.56a8.44,8.44,0,0,1-3.5-.66,4.82,4.82,0,0,1-2.2-1.92,5.73,5.73,0,0,1-.76-3,4.75,4.75,0,0,1,.86-2.86,5.4,5.4,0,0,1,2.5-1.81,11.16,11.16,0,0,1,3.92-.62h.91v9h-2.18v-6.5a4.67,4.67,0,0,0-2.63.84,2.34,2.34,0,0,0-.93,1.95,2.76,2.76,0,0,0,1,2.3,4.38,4.38,0,0,0,2.85.82h1.76a3.64,3.64,0,0,0,2.63-.88,3.25,3.25,0,0,0,.92-2.48,3.91,3.91,0,0,0-.34-1.58,4.66,4.66,0,0,0-.92-1.4l1.78-1.72a7.38,7.38,0,0,1,1.52,2.22,6.17,6.17,0,0,1,.54,2.48A6.51,6.51,0,0,1,1096.9,874.08Z"></path><path class="cls-5" d="M1172.58,1001.27a3.74,3.74,0,0,0-.2,1.3,3,3,0,0,0,1.07,2.49,4.57,4.57,0,0,0,3,.88l-5.4.4a7.31,7.31,0,0,1-2.89-2.15,4.65,4.65,0,0,1-1-2.92,5.92,5.92,0,0,1,.41-2.27,4.87,4.87,0,0,1,1.21-1.77l4.46,3.1A2.37,2.37,0,0,0,1172.58,1001.27Zm-5.18,10.35v-5.68h20.76v5.68Z"></path><path class="cls-5" d="M1175,983.67a2.74,2.74,0,0,0-2.22.93,4,4,0,0,0-.78,2.63,6.66,6.66,0,0,0,.38,2.23,6.34,6.34,0,0,0,1.06,1.95l-3.34,3.29a7.8,7.8,0,0,1-2.21-3.18,11.57,11.57,0,0,1-.79-4.37,10,10,0,0,1,.91-4.48,6.32,6.32,0,0,1,2.64-2.84,8.35,8.35,0,0,1,4.17-1h13.34v4.82Zm11.87,10.42a6.57,6.57,0,0,1-4.83,1.59,5.72,5.72,0,0,1-4.62-1.79,8,8,0,0,1-1.54-5.36v-5l4.18-.27v5.28a2.78,2.78,0,0,0,.49,1.8,1.8,1.8,0,0,0,1.49.6,1.69,1.69,0,0,0,1.51-.76,4.29,4.29,0,0,0,.49-2.28,7.65,7.65,0,0,0-.5-3.16,1.66,1.66,0,0,0-1.56-1l3-.4a2.87,2.87,0,0,1,1.9,1,5.69,5.69,0,0,1,1.17,2.21,9.8,9.8,0,0,1,.39,2.79A6.58,6.58,0,0,1,1186.87,994.09Z"></path><path class="cls-5" d="M1159.08,973.63v-5.3h29.08v5.3Zm21.6-2.47-13.28-9.37v-5.61l19.32,14.26Zm-3.24-4.76-2.72-4.37,13.44-6.83v6.13Z"></path><path class="cls-5" d="M1187.37,949a7.36,7.36,0,0,1-3.18,3.14,10.86,10.86,0,0,1-5,1.08h-2.34a12.15,12.15,0,0,1-5.26-1,7.34,7.34,0,0,1-3.32-3,9.46,9.46,0,0,1-1.14-4.79,7.43,7.43,0,0,1,1.36-4.5,8.31,8.31,0,0,1,4-2.86,17.76,17.76,0,0,1,6.25-1H1180v13.73h-3.7v-8.9l-.48.06a5,5,0,0,0-2.78,1.09,3,3,0,0,0-1,2.35,3.76,3.76,0,0,0,1.18,3,4.8,4.8,0,0,0,3.34,1.06h2.64a4.5,4.5,0,0,0,3.28-1.15,4.37,4.37,0,0,0,1.16-3.23,6,6,0,0,0-.39-2.1,6.36,6.36,0,0,0-1.11-1.9l3.18-3.46a11.61,11.61,0,0,1,2.29,3.52,10.22,10.22,0,0,1,.81,3.94A10.6,10.6,0,0,1,1187.37,949Z"></path><path class="cls-5" d="M1172.58,921.09a3.74,3.74,0,0,0-.2,1.3,3,3,0,0,0,1.07,2.49,4.57,4.57,0,0,0,3,.88l-5.4.4a7.31,7.31,0,0,1-2.89-2.15,4.65,4.65,0,0,1-1-2.92,5.92,5.92,0,0,1,.41-2.27,4.78,4.78,0,0,1,1.21-1.77l4.46,3.1A2.3,2.3,0,0,0,1172.58,921.09Zm-5.18,10.35v-5.68h20.76v5.68Z"></path><path class="cls-19" d="M1132.5,984.19v-2.9l16,4.51v2.91Zm13.06,2.4v-9l2.89.82v9Z"></path><path class="cls-19" d="M1148,974.48a2.55,2.55,0,0,1-1.69,1.14,5.43,5.43,0,0,1-2.68-.2l-1.86-.52a7.56,7.56,0,0,1-2.65-1.31,5.88,5.88,0,0,1-1.68-2.1,6.41,6.41,0,0,1-.57-2.73,4.51,4.51,0,0,1,.57-2.42,2.63,2.63,0,0,1,1.68-1.15,5.55,5.55,0,0,1,2.65.2l1.89.53a7.7,7.7,0,0,1,2.66,1.31,5.78,5.78,0,0,1,1.68,2.1,6.32,6.32,0,0,1,.59,2.74A4.39,4.39,0,0,1,1148,974.48Zm-2.84-4.74a3,3,0,0,0-1.5-.91l-1.89-.53a1.82,1.82,0,0,0-1.48.06,1.36,1.36,0,0,0-.53,1.23,2.27,2.27,0,0,0,.53,1.5,2.91,2.91,0,0,0,1.48.9l1.89.53a1.84,1.84,0,0,0,1.5,0,1.31,1.31,0,0,0,.53-1.21A2.33,2.33,0,0,0,1145.19,969.74Z"></path><path class="cls-19" d="M1139.14,960.61v-5.37a1.63,1.63,0,0,0-.24-.85,2.18,2.18,0,0,0-.65-.71,3.25,3.25,0,0,0-1-.48,2.5,2.5,0,0,0-1-.09,1.06,1.06,0,0,0-.66.34,1.1,1.1,0,0,0-.23.73v5.37l-2.9-.82v-5.6a3.4,3.4,0,0,1,.6-2.08,2.66,2.66,0,0,1,1.67-1,5.29,5.29,0,0,1,2.51.18,7.28,7.28,0,0,1,2.51,1.24,6.13,6.13,0,0,1,1.67,2,5.2,5.2,0,0,1,.59,2.41v5.6Zm-6.66-.72V957l16,4.51v2.91Zm9.06-1.85-.51-3.25,7.42-2.06v3.52Z"></path><path class="cls-19" d="M1141.23,942.66a1.22,1.22,0,0,0-1.22.17,1.74,1.74,0,0,0-.43,1.32,4.23,4.23,0,0,0,.21,1.28,5.61,5.61,0,0,0,.58,1.24l-1.83,1.28a6.29,6.29,0,0,1-1.21-2.08,7.42,7.42,0,0,1-.43-2.52,4.63,4.63,0,0,1,.5-2.33,2.34,2.34,0,0,1,1.44-1.14,4.24,4.24,0,0,1,2.29.11l7.32,2.07v2.64Zm6.51,7.56a3.09,3.09,0,0,1-2.65.13,4.43,4.43,0,0,1-2.53-1.7,5.54,5.54,0,0,1-.85-3.19V942.7l2.3.5v2.9a1.87,1.87,0,0,0,.27,1.06,1.38,1.38,0,0,0,.81.56.71.71,0,0,0,.83-.18,1.9,1.9,0,0,0,.27-1.17,4.82,4.82,0,0,0-.27-1.81,1.3,1.3,0,0,0-.86-.81l1.66.24a2.32,2.32,0,0,1,1,.84,4.54,4.54,0,0,1,.64,1.39,6.23,6.23,0,0,1,.22,1.6A2.8,2.8,0,0,1,1147.74,950.22Z"></path><path class="cls-5" d="M1139.53,925.49l3.12.88a8.73,8.73,0,0,1,3.13,1.58,7.55,7.55,0,0,1,2.09,2.56,6.9,6.9,0,0,1,.75,3.16,5.11,5.11,0,0,1-.7,2.78,3.28,3.28,0,0,1-2,1.44,5.48,5.48,0,0,1-3-.13l-4.71-1.33a8.89,8.89,0,0,1-3.13-1.58,7.66,7.66,0,0,1-2.09-2.56,7,7,0,0,1-.74-3.16,4.62,4.62,0,0,1,.59-2.38,3.52,3.52,0,0,1,1.66-1.48,4.9,4.9,0,0,1,2.49-.35v3.14a1.5,1.5,0,0,0-.87.28,1.62,1.62,0,0,0-.56.7,2.33,2.33,0,0,0-.19,1,3.21,3.21,0,0,0,.35,1.46,3.57,3.57,0,0,0,1,1.2,4.25,4.25,0,0,0,1.49.74l4.71,1.33a2.28,2.28,0,0,0,1.31,0,1.45,1.45,0,0,0,.88-.69,2.47,2.47,0,0,0,.31-1.31,3.32,3.32,0,0,0-1.31-2.65,4.4,4.4,0,0,0-1.5-.75l-.26-.07v2.33l-2.9-.82Z"></path><path class="cls-5" d="M1132.5,920.63v-3.56l12.22-2.28.29.34-12.51-3.54v-2.78l15.94,4.51v3.57l-12,2.32-.28-.34,12.32,3.49v2.78Z"></path><path class="cls-5" d="M1148.39,907.22a7.07,7.07,0,0,1-.68,1.79,5.2,5.2,0,0,1-1.07,1.36l-2.48-2a4.46,4.46,0,0,0,1.17-1.73,6.28,6.28,0,0,0,.41-2.28,5,5,0,0,0-.5-2.35,2.29,2.29,0,0,0-1.41-1.19h0a1.22,1.22,0,0,0-1,.06,1.47,1.47,0,0,0-.55.76,10.69,10.69,0,0,0-.32,1.36s0,0,0,0a.13.13,0,0,1,0,.06l0,.22a11.59,11.59,0,0,1-.63,2.39,2.56,2.56,0,0,1-1.33,1.36,4,4,0,0,1-2.69-.06h0a6.56,6.56,0,0,1-2.65-1.41,6.37,6.37,0,0,1-1.67-2.42,8.54,8.54,0,0,1-.58-3.24,7,7,0,0,1,.2-1.64,6.7,6.7,0,0,1,1.47-2.85l2.55,2a5.29,5.29,0,0,0-1,1.59,4.57,4.57,0,0,0-.35,1.76,4.73,4.73,0,0,0,.45,2.2,2.07,2.07,0,0,0,1.28,1.09h0a1.27,1.27,0,0,0,1.09-.08,1.48,1.48,0,0,0,.59-.78,12.48,12.48,0,0,0,.4-1.46s0-.06,0-.08,0-.06,0-.09a.45.45,0,0,1,0-.11.36.36,0,0,0,0-.11,10.29,10.29,0,0,1,.72-2.25,2.57,2.57,0,0,1,1.36-1.25,4,4,0,0,1,2.56.06h0a6.23,6.23,0,0,1,4.26,3.91,9,9,0,0,1,.58,3.34A9.52,9.52,0,0,1,1148.39,907.22Z"></path><path class="cls-5" d="M1148.39,894.26a7.07,7.07,0,0,1-.68,1.79,5.2,5.2,0,0,1-1.07,1.36l-2.48-2a4.46,4.46,0,0,0,1.17-1.73,6.28,6.28,0,0,0,.41-2.28,5,5,0,0,0-.5-2.35,2.29,2.29,0,0,0-1.41-1.19h0a1.18,1.18,0,0,0-1,.07,1.4,1.4,0,0,0-.55.75,11.13,11.13,0,0,0-.32,1.36s0,0,0,0a.13.13,0,0,1,0,.06l0,.22a11.59,11.59,0,0,1-.63,2.39,2.56,2.56,0,0,1-1.33,1.36,4,4,0,0,1-2.69-.05h0a6.56,6.56,0,0,1-2.65-1.41,6.37,6.37,0,0,1-1.67-2.42,8.54,8.54,0,0,1-.58-3.24,7,7,0,0,1,.2-1.64,6.7,6.7,0,0,1,1.47-2.85l2.55,2a5.13,5.13,0,0,0-1,1.58,4.57,4.57,0,0,0-.35,1.76,4.73,4.73,0,0,0,.45,2.2,2.07,2.07,0,0,0,1.28,1.09h0A1.27,1.27,0,0,0,1138,891a1.45,1.45,0,0,0,.59-.77,12.75,12.75,0,0,0,.4-1.47s0-.06,0-.08,0-.06,0-.08a.53.53,0,0,1,0-.12.36.36,0,0,0,0-.11,10.29,10.29,0,0,1,.72-2.25,2.57,2.57,0,0,1,1.36-1.25,4,4,0,0,1,2.56.07h0a6.23,6.23,0,0,1,4.26,3.91,9,9,0,0,1,.58,3.34A9.45,9.45,0,0,1,1148.39,894.26Z"></path><polygon class="cls-7" points="1142.61 998.36 1142.61 1074.1 1122.68 1066.63 1122.68 990.89 1142.61 998.36"></polygon></g></svg>