<svg xmlns="http://www.w3.org/2000/svg" viewBox="340.47 241 263.8 451.32"><defs><style>.cls-1{fill:#434143;}.cls-2,.cls-6,.cls-7{fill:none;}.cls-2{stroke:#050606;stroke-miterlimit:10;}.cls-3{fill:#2b2b2b;}.cls-4{fill:#181818;}.cls-5{fill:#e8eae8;}.cls-6,.cls-7{stroke:#e8eae8;stroke-linecap:round;stroke-linejoin:round;}.cls-7{stroke-width:2px;}</style></defs><g id="Layer_2" data-name="Layer 2"><rect class="cls-1" x="340.97" y="241.5" width="262.8" height="450.32" rx="27.43"></rect><rect class="cls-2" x="340.97" y="241.5" width="262.8" height="450.32" rx="27.43"></rect><circle class="cls-3" cx="364.66" cy="264.01" r="10.92"></circle><circle class="cls-2" cx="364.66" cy="264.01" r="10.92"></circle><path class="cls-4" d="M372.05,264a2.39,2.39,0,0,1-2.39,2.38h-2.61V269a2.38,2.38,0,1,1-4.76,0v-2.62h-2.63a2.39,2.39,0,1,1,0-4.77h2.63V259a2.38,2.38,0,0,1,2.37-2.38,2.39,2.39,0,0,1,2.39,2.38v2.62h2.61A2.4,2.4,0,0,1,372.05,264Z"></path><circle class="cls-3" cx="579.41" cy="264.01" r="10.92"></circle><circle class="cls-2" cx="579.41" cy="264.01" r="10.92"></circle><path class="cls-4" d="M586.79,264a2.39,2.39,0,0,1-2.38,2.38h-2.62V269a2.38,2.38,0,1,1-4.76,0v-2.62h-2.62a2.39,2.39,0,1,1,0-4.77H577V259a2.38,2.38,0,0,1,4.76,0v2.62h2.62A2.39,2.39,0,0,1,586.79,264Z"></path><circle class="cls-3" cx="364.66" cy="666.6" r="10.92"></circle><circle class="cls-2" cx="364.66" cy="666.6" r="10.92"></circle><path class="cls-4" d="M372.05,666.61a2.39,2.39,0,0,1-2.39,2.38h-2.61v2.62a2.38,2.38,0,1,1-4.76,0V669h-2.63a2.39,2.39,0,1,1,0-4.77h2.63V661.6a2.38,2.38,0,0,1,2.37-2.38,2.39,2.39,0,0,1,2.39,2.38v2.62h2.61A2.4,2.4,0,0,1,372.05,666.61Z"></path><circle class="cls-3" cx="579.41" cy="666.6" r="10.92"></circle><circle class="cls-2" cx="579.41" cy="666.6" r="10.92"></circle><path class="cls-4" d="M586.79,666.61a2.39,2.39,0,0,1-2.38,2.38h-2.62v2.62a2.38,2.38,0,0,1-4.76,0V669h-2.62a2.39,2.39,0,1,1,0-4.77H577V661.6a2.38,2.38,0,0,1,4.76,0v2.62h2.62A2.39,2.39,0,0,1,586.79,666.61Z"></path><circle class="cls-3" cx="579.41" cy="440.79" r="10.92"></circle><circle class="cls-2" cx="579.41" cy="440.79" r="10.92"></circle><path class="cls-4" d="M586.79,440.79a2.39,2.39,0,0,1-2.38,2.38h-2.62v2.62a2.38,2.38,0,1,1-4.76,0v-2.62h-2.62a2.39,2.39,0,1,1,0-4.77H577v-2.62a2.38,2.38,0,0,1,4.76,0v2.62h2.62A2.39,2.39,0,0,1,586.79,440.79Z"></path><circle class="cls-3" cx="361.13" cy="442.81" r="10.92"></circle><circle class="cls-2" cx="361.13" cy="442.81" r="10.92"></circle><path class="cls-4" d="M368.51,442.81a2.39,2.39,0,0,1-2.38,2.38h-2.62v2.62a2.38,2.38,0,1,1-4.76,0v-2.62h-2.62a2.39,2.39,0,1,1,0-4.77h2.62V437.8a2.38,2.38,0,0,1,4.76,0v2.62h2.62A2.39,2.39,0,0,1,368.51,442.81Z"></path><rect class="cls-5" x="442.52" y="591.7" width="6.5" height="54.62" transform="translate(432.79 -143.7) rotate(34.78)"></rect><path class="cls-5" d="M521.39,639.18l-5.34,3.71L489,604.34l-26.94,39-5.34-3.71,28.32-41,1.06-1.53a3.53,3.53,0,0,1,5.8,0l1.06,1.53Z"></path><rect class="cls-3" x="407.64" y="511.78" width="135.85" height="67.27" rx="3.52"></rect><rect class="cls-2" x="407.64" y="511.78" width="135.85" height="67.27" rx="3.52"></rect><circle class="cls-6" cx="586.93" cy="479.19" r="9.9"></circle><rect class="cls-5" x="581.12" y="478.38" width="9.09" height="1.63" rx="0.82"></rect><circle class="cls-5" cx="591.91" cy="479.19" r="0.83"></circle><path class="cls-7" d="M592.84,629.48a7.9,7.9,0,1,1-.29-6.3"></path><line class="cls-7" x1="586.78" y1="626.67" x2="594.43" y2="626.67"></line><path class="cls-5" d="M408.88,655.16h3.51l4.58,7.29v-7.29h3.55v13.18H417l-4.56-7.24v7.24h-3.53Z"></path><path class="cls-5" d="M425.87,661.88l-3.23-.37a4.06,4.06,0,0,1,.53-1.44,3,3,0,0,1,1-.91,3.82,3.82,0,0,1,1.28-.43,8.86,8.86,0,0,1,1.76-.16,13.09,13.09,0,0,1,2.44.19,3,3,0,0,1,1.54.77,2.86,2.86,0,0,1,.68,1.14,4.67,4.67,0,0,1,.25,1.42v4.22a5.74,5.74,0,0,0,.07,1.05,5.4,5.4,0,0,0,.35,1h-3.17a3.65,3.65,0,0,1-.25-.56,4.32,4.32,0,0,1-.12-.61,4.38,4.38,0,0,1-1.32,1,5.18,5.18,0,0,1-2.08.39,3.32,3.32,0,0,1-2.4-.79,2.61,2.61,0,0,1-.81-2A2.71,2.71,0,0,1,423,664a3.89,3.89,0,0,1,2.18-1c1.27-.28,2.09-.47,2.47-.58a11.09,11.09,0,0,0,1.19-.44,1.35,1.35,0,0,0-.26-.94,1.21,1.21,0,0,0-.9-.27,2.22,2.22,0,0,0-1.25.29A1.6,1.6,0,0,0,425.87,661.88Zm2.93,1.93a12.94,12.94,0,0,1-1.45.47,3.35,3.35,0,0,0-1.31.59,1,1,0,0,0,0,1.38,1.14,1.14,0,0,0,.82.27,2,2,0,0,0,1.05-.3,1.7,1.7,0,0,0,.69-.72,2.66,2.66,0,0,0,.2-1.11Z"></path><path class="cls-5" d="M434.13,658.79h3.15v1.55A5,5,0,0,1,438.7,659a3.58,3.58,0,0,1,1.76-.41,2.75,2.75,0,0,1,2.2.91,4.13,4.13,0,0,1,.79,2.79v6.07h-3.39v-5.25a2,2,0,0,0-.31-1.27,1,1,0,0,0-.86-.38,1.2,1.2,0,0,0-1,.51,3.12,3.12,0,0,0-.38,1.8v4.59h-3.38Z"></path><path class="cls-5" d="M445.06,663.59a5,5,0,0,1,1.36-3.6,5.55,5.55,0,0,1,7.68.25,5.08,5.08,0,0,1,1.08,3.3,5,5,0,0,1-1.35,3.61,5.64,5.64,0,0,1-7.16.23A4.81,4.81,0,0,1,445.06,663.59Zm3.38,0a3.06,3.06,0,0,0,.48,1.89,1.49,1.49,0,0,0,2.4,0,3.18,3.18,0,0,0,.47-1.93,3,3,0,0,0-.47-1.85,1.43,1.43,0,0,0-1.17-.61,1.51,1.51,0,0,0-1.23.62A3,3,0,0,0,448.44,663.58Z"></path><path class="cls-5" d="M468.82,663.56v-2.74h5.81v5.62a11.64,11.64,0,0,1-2.95,1.68,9.47,9.47,0,0,1-3,.44,6.86,6.86,0,0,1-3.53-.8,5.31,5.31,0,0,1-2.12-2.38,8.38,8.38,0,0,1-.75-3.63,8.11,8.11,0,0,1,.82-3.76,5.53,5.53,0,0,1,2.41-2.42,7.36,7.36,0,0,1,3.33-.64,8.56,8.56,0,0,1,3,.4,3.89,3.89,0,0,1,1.66,1.23,5.54,5.54,0,0,1,1,2.1l-3.63.71a2.15,2.15,0,0,0-.76-1.15,2.26,2.26,0,0,0-1.36-.39,2.39,2.39,0,0,0-2,.93,4.74,4.74,0,0,0-.73,2.94,4.94,4.94,0,0,0,.74,3.06,2.53,2.53,0,0,0,2.07.92,3.74,3.74,0,0,0,1.21-.2,6.12,6.12,0,0,0,1.31-.68v-1.24Z"></path><path class="cls-5" d="M486.22,668.34H476.07a7.23,7.23,0,0,1,1.06-3.06,14.61,14.61,0,0,1,3.32-3.39,10.56,10.56,0,0,0,1.9-1.81,2.21,2.21,0,0,0,.41-1.18,1.4,1.4,0,0,0-.41-1,1.35,1.35,0,0,0-1-.43,1.39,1.39,0,0,0-1.06.44,2.84,2.84,0,0,0-.55,1.56l-3.39-.3a6.13,6.13,0,0,1,.73-2.41,3.41,3.41,0,0,1,1.5-1.33,6.28,6.28,0,0,1,2.68-.47,7.05,7.05,0,0,1,2.77.44,3.44,3.44,0,0,1,1.56,1.36,3.76,3.76,0,0,1,.57,2,4.36,4.36,0,0,1-.65,2.3,9.09,9.09,0,0,1-2.37,2.41c-.68.51-1.13.87-1.36,1.07s-.5.47-.81.8h5.28Z"></path><path class="cls-5" d="M501.8,655.16h3.75V663a7,7,0,0,1-.34,2.21,4.76,4.76,0,0,1-1,1.81,4.16,4.16,0,0,1-1.51,1.09,6.89,6.89,0,0,1-2.63.44,15.27,15.27,0,0,1-1.94-.13,4.69,4.69,0,0,1-1.75-.54,4.38,4.38,0,0,1-1.29-1.13,4.22,4.22,0,0,1-.8-1.52,8.17,8.17,0,0,1-.35-2.23v-7.85h3.75v8a2.38,2.38,0,0,0,.55,1.68,2,2,0,0,0,1.53.61,2,2,0,0,0,1.53-.6,2.44,2.44,0,0,0,.55-1.69Z"></path><path class="cls-5" d="M507.93,655.16h3.39v13.18h-3.39Z"></path><path class="cls-5" d="M517.56,655.16v3.63h1.86v2.68h-1.86v3.38a2,2,0,0,0,.1.81.61.61,0,0,0,.58.3,3.33,3.33,0,0,0,1-.23l.25,2.53a10.1,10.1,0,0,1-2.34.29,3.74,3.74,0,0,1-1.86-.35,2,2,0,0,1-.88-1.06,6.52,6.52,0,0,1-.29-2.31v-3.36h-1.25v-2.68h1.25V657Z"></path><path class="cls-5" d="M521.06,658.79h3.16v1.56a3.81,3.81,0,0,1,.94-1.39,1.88,1.88,0,0,1,1.2-.39,3.33,3.33,0,0,1,1.64.51l-1,2.6a2.43,2.43,0,0,0-.94-.26,1.12,1.12,0,0,0-1,.59,6.43,6.43,0,0,0-.53,3.13v3.2h-3.39Z"></path><path class="cls-5" d="M531.94,661.88l-3.23-.37a4.06,4.06,0,0,1,.53-1.44,3,3,0,0,1,1-.91,3.82,3.82,0,0,1,1.28-.43,8.86,8.86,0,0,1,1.76-.16,13.09,13.09,0,0,1,2.44.19,3,3,0,0,1,1.54.77,2.86,2.86,0,0,1,.68,1.14,4.67,4.67,0,0,1,.25,1.42v4.22a4.85,4.85,0,0,0,.08,1.05,4.6,4.6,0,0,0,.34,1h-3.17a3.65,3.65,0,0,1-.25-.56,4.32,4.32,0,0,1-.12-.61,4.38,4.38,0,0,1-1.32,1,5.15,5.15,0,0,1-2.08.39,3.28,3.28,0,0,1-2.39-.79,2.58,2.58,0,0,1-.82-2A2.67,2.67,0,0,1,529,664a3.86,3.86,0,0,1,2.17-1c1.27-.28,2.09-.47,2.47-.58a11.09,11.09,0,0,0,1.19-.44,1.36,1.36,0,0,0-.25-.94,1.25,1.25,0,0,0-.91-.27,2.18,2.18,0,0,0-1.24.29A1.6,1.6,0,0,0,531.94,661.88Zm2.93,1.93a12.94,12.94,0,0,1-1.45.47,3.21,3.21,0,0,0-1.3.59,1,1,0,0,0-.29.67,1,1,0,0,0,.28.71,1.14,1.14,0,0,0,.82.27,1.94,1.94,0,0,0,1.05-.3,1.7,1.7,0,0,0,.69-.72,2.51,2.51,0,0,0,.2-1.11Z"></path><path class="cls-6" d="M579.88,583.57v16l.41-.47a7.4,7.4,0,0,1,5.54-2.48h.24a8.27,8.27,0,0,0,6.37-3l.18-.21a3.11,3.11,0,0,0,.14-3.78l-.24-.34a8.29,8.29,0,0,0-6.76-3.49h-.57a7.4,7.4,0,0,1-4.87-1.83Z"></path><path class="cls-6" d="M579.87,594.24a2.68,2.68,0,1,1,0-5.35"></path><path class="cls-5" d="M588.69,547.89a6.85,6.85,0,0,0-3.84,1.17l-.15.11-8,5.63,8,5.63.15.11a6.91,6.91,0,1,0,3.84-12.65Zm0,9.72a2.81,2.81,0,1,1,2.81-2.81A2.81,2.81,0,0,1,588.69,557.61Z"></path><polygon class="cls-6" points="582.55 520.31 588.06 528.85 577.03 528.85 577.03 511.78 588.06 511.78 582.55 520.31"></polygon><polygon class="cls-6" points="594.05 520.03 588.06 528.85 582.55 520.31 588.06 511.78 594.05 520.03"></polygon></g></svg>