<svg xmlns="http://www.w3.org/2000/svg" viewBox="698.81 273.15 504.69 1330.55"><defs><style>.cls-1{fill:#e8eae8;}.cls-1,.cls-18,.cls-19,.cls-20,.cls-22,.cls-7,.cls-9{stroke:#050606;}.cls-1,.cls-11,.cls-18,.cls-19,.cls-20,.cls-22,.cls-7,.cls-9{stroke-miterlimit:10;}.cls-1,.cls-7{stroke-width:3px;}.cls-2{fill:#353535;}.cls-3{fill:#cbcccb;}.cls-11,.cls-16,.cls-18,.cls-19,.cls-20,.cls-21,.cls-22,.cls-4,.cls-7,.cls-9{fill:none;}.cls-16,.cls-21,.cls-4{stroke:#fff;stroke-linecap:round;stroke-linejoin:round;}.cls-4{stroke-width:1.07px;}.cls-5{fill:#b4b4b5;}.cls-6{fill:#f2e3c2;}.cls-8{fill:#202121;}.cls-9{stroke-width:2px;}.cls-10{fill:#c6c6c5;}.cls-11{stroke:#dfac52;stroke-width:4px;}.cls-12{fill:#ee2526;}.cls-13{fill:#fff;}.cls-14{fill:#2c2d2d;}.cls-15{fill:#dfac52;}.cls-16{stroke-width:0.57px;}.cls-17{fill:#f3d8a5;}.cls-18{stroke-width:2.93px;}.cls-19{stroke-width:1.95px;}.cls-20{stroke-width:0.98px;}.cls-21{stroke-width:1.04px;}.cls-22{stroke-width:2.8px;}</style></defs><g id="Layer_2" data-name="Layer 2"><path class="cls-1" d="M1125.21,598.39,1047,520.13H855.37l-78.26,78.26h-76.8v909.4l35.61,35.62h430.47l35.61-35.62V598.39ZM710.87,633.81a22.1,22.1,0,1,1,22.1,22.1A22.09,22.09,0,0,1,710.87,633.81Zm34.25,881.66a22.1,22.1,0,1,1,22.1-22.09A22.09,22.09,0,0,1,745.12,1515.47Zm414.42,0a22.1,22.1,0,1,1,22.1-22.09A22.09,22.09,0,0,1,1159.54,1515.47Zm6.2-859.56a22.1,22.1,0,1,1,22.09-22.1A22.1,22.1,0,0,1,1165.74,655.91Z"></path><polyline class="cls-2" points="1039.51 1572.06 1129.18 1572.06 1129.18 898.81 775.93 898.81 775.93 1572.06 863.9 1572.06"></polyline><rect class="cls-2" x="796.67" y="570.19" width="305.89" height="326.7" rx="10.43"></rect><path class="cls-3" d="M835.94,1455.85a4.06,4.06,0,0,1,4,4.05v18a4.06,4.06,0,0,1-4,4.05h-2.1a4.05,4.05,0,0,1-4.05-4.05v-18a4.05,4.05,0,0,1,4.05-4.05h2.1m0-5h-2.1a9,9,0,0,0-9.05,9.05v18a9,9,0,0,0,9.05,9.05h2.1a9,9,0,0,0,9-9.05v-18a9,9,0,0,0-9-9.05Z"></path><rect class="cls-4" x="824.79" y="1450.85" width="20.2" height="36.07" rx="9.05"></rect><rect class="cls-5" x="895.42" y="905.18" width="108.78" height="40.41" rx="5.47"></rect><rect class="cls-6" x="819.61" y="1211.98" width="62.72" height="48.2" rx="5.2"></rect><polyline class="cls-7" points="1039.51 1572.06 1129.18 1572.06 1129.18 898.81 775.93 898.81 775.93 1572.06 863.9 1572.06"></polyline><path class="cls-3" d="M1039.51,1471.65V1596a6.2,6.2,0,0,1-6.2,6.2H870.1a6.2,6.2,0,0,1-6.2-6.2V1471.65a3.57,3.57,0,0,1,3.57-3.57H891a3.57,3.57,0,0,1,3.57,3.57v13.89a3.57,3.57,0,0,0,3.57,3.57h24.38a3.57,3.57,0,0,0,3.57-3.57v-13.89a3.57,3.57,0,0,1,3.57-3.57h43.06a3.57,3.57,0,0,1,3.57,3.57v13.89a3.57,3.57,0,0,0,3.57,3.57h24.4a3.57,3.57,0,0,0,3.57-3.57v-13.89a3.57,3.57,0,0,1,3.57-3.57h24.52A3.57,3.57,0,0,1,1039.51,1471.65Z"></path><path class="cls-7" d="M1039.51,1471.65V1596a6.2,6.2,0,0,1-6.2,6.2H870.1a6.2,6.2,0,0,1-6.2-6.2V1471.65a3.57,3.57,0,0,1,3.57-3.57H891a3.57,3.57,0,0,1,3.57,3.57v13.89a3.57,3.57,0,0,0,3.57,3.57h24.38a3.57,3.57,0,0,0,3.57-3.57v-13.89a3.57,3.57,0,0,1,3.57-3.57h43.06a3.57,3.57,0,0,1,3.57,3.57v13.89a3.57,3.57,0,0,0,3.57,3.57h24.4a3.57,3.57,0,0,0,3.57-3.57v-13.89a3.57,3.57,0,0,1,3.57-3.57h24.52A3.57,3.57,0,0,1,1039.51,1471.65Z"></path><rect class="cls-8" x="865.41" y="1056.92" width="144.67" height="144.67" transform="translate(1073.16 -332.34) rotate(45)"></rect><rect class="cls-7" x="865.41" y="1056.92" width="144.67" height="144.67" transform="translate(1073.16 -332.34) rotate(45)"></rect><circle class="cls-3" cx="1105.76" cy="1549.4" r="14.28"></circle><circle class="cls-5" cx="1105.76" cy="1549.4" r="8.92"></circle><circle class="cls-9" cx="1105.76" cy="1549.4" r="14.28"></circle><circle class="cls-3" cx="1105.76" cy="1501.2" r="14.28"></circle><circle class="cls-5" cx="1105.76" cy="1501.2" r="8.92"></circle><circle class="cls-9" cx="1105.76" cy="1501.2" r="14.28"></circle><circle class="cls-3" cx="1105.76" cy="1452.99" r="14.28"></circle><circle class="cls-5" cx="1105.76" cy="1452.99" r="8.92"></circle><circle class="cls-9" cx="1105.76" cy="1452.99" r="14.28"></circle><circle class="cls-3" cx="1105.76" cy="1404.79" r="14.28"></circle><circle class="cls-5" cx="1105.76" cy="1404.79" r="8.92"></circle><circle class="cls-9" cx="1105.76" cy="1404.79" r="14.28"></circle><circle class="cls-3" cx="1105.76" cy="1356.59" r="14.28"></circle><circle class="cls-5" cx="1105.76" cy="1356.59" r="8.92"></circle><circle class="cls-9" cx="1105.76" cy="1356.59" r="14.28"></circle><circle class="cls-3" cx="1105.76" cy="1308.39" r="14.28"></circle><circle class="cls-5" cx="1105.76" cy="1308.39" r="8.92"></circle><circle class="cls-9" cx="1105.76" cy="1308.39" r="14.28"></circle><circle class="cls-3" cx="1105.76" cy="1260.18" r="14.28"></circle><circle class="cls-5" cx="1105.76" cy="1260.18" r="8.92"></circle><circle class="cls-9" cx="1105.76" cy="1260.18" r="14.28"></circle><circle class="cls-3" cx="1105.76" cy="1211.98" r="14.28"></circle><circle class="cls-5" cx="1105.76" cy="1211.98" r="8.92"></circle><circle class="cls-9" cx="1105.76" cy="1211.98" r="14.28"></circle><circle class="cls-3" cx="1105.76" cy="1163.78" r="14.28"></circle><circle class="cls-5" cx="1105.76" cy="1163.78" r="8.92"></circle><circle class="cls-9" cx="1105.76" cy="1163.78" r="14.28"></circle><circle class="cls-3" cx="1105.76" cy="1115.58" r="14.28"></circle><circle class="cls-5" cx="1105.76" cy="1115.58" r="8.92"></circle><circle class="cls-9" cx="1105.76" cy="1115.58" r="14.28"></circle><circle class="cls-3" cx="1105.76" cy="1067.37" r="14.28"></circle><circle class="cls-5" cx="1105.76" cy="1067.37" r="8.92"></circle><circle class="cls-9" cx="1105.76" cy="1067.37" r="14.28"></circle><circle class="cls-3" cx="1105.76" cy="1019.17" r="14.28"></circle><circle class="cls-5" cx="1105.76" cy="1019.17" r="8.92"></circle><circle class="cls-9" cx="1105.76" cy="1019.17" r="14.28"></circle><circle class="cls-3" cx="1105.76" cy="970.97" r="14.28"></circle><circle class="cls-5" cx="1105.76" cy="970.97" r="8.92"></circle><circle class="cls-9" cx="1105.76" cy="970.97" r="14.28"></circle><circle class="cls-3" cx="1105.76" cy="922.76" r="14.28"></circle><circle class="cls-5" cx="1105.76" cy="922.76" r="8.92"></circle><circle class="cls-9" cx="1105.76" cy="922.76" r="14.28"></circle><circle class="cls-3" cx="797.1" cy="1549.4" r="14.28"></circle><circle class="cls-5" cx="797.1" cy="1549.4" r="8.92"></circle><circle class="cls-9" cx="797.1" cy="1549.4" r="14.28"></circle><circle class="cls-3" cx="797.1" cy="1501.2" r="14.28"></circle><circle class="cls-5" cx="797.1" cy="1501.2" r="8.92"></circle><circle class="cls-9" cx="797.1" cy="1501.2" r="14.28"></circle><circle class="cls-3" cx="797.1" cy="1452.99" r="14.28"></circle><circle class="cls-5" cx="797.1" cy="1452.99" r="8.92"></circle><circle class="cls-9" cx="797.1" cy="1452.99" r="14.28"></circle><circle class="cls-3" cx="797.1" cy="1404.79" r="14.28"></circle><circle class="cls-5" cx="797.1" cy="1404.79" r="8.92"></circle><circle class="cls-9" cx="797.1" cy="1404.79" r="14.28"></circle><circle class="cls-3" cx="797.1" cy="1356.59" r="14.28"></circle><circle class="cls-5" cx="797.1" cy="1356.59" r="8.92"></circle><circle class="cls-9" cx="797.1" cy="1356.59" r="14.28"></circle><circle class="cls-3" cx="797.1" cy="1308.39" r="14.28"></circle><circle class="cls-5" cx="797.1" cy="1308.39" r="8.92"></circle><circle class="cls-9" cx="797.1" cy="1308.39" r="14.28"></circle><circle class="cls-3" cx="797.1" cy="1260.18" r="14.28"></circle><circle class="cls-5" cx="797.1" cy="1260.18" r="8.92"></circle><circle class="cls-9" cx="797.1" cy="1260.18" r="14.28"></circle><circle class="cls-3" cx="797.1" cy="1211.98" r="14.28"></circle><circle class="cls-5" cx="797.1" cy="1211.98" r="8.92"></circle><circle class="cls-9" cx="797.1" cy="1211.98" r="14.28"></circle><circle class="cls-3" cx="797.1" cy="1163.78" r="14.28"></circle><circle class="cls-5" cx="797.1" cy="1163.78" r="8.92"></circle><circle class="cls-9" cx="797.1" cy="1163.78" r="14.28"></circle><circle class="cls-3" cx="797.1" cy="1115.58" r="14.28"></circle><circle class="cls-5" cx="797.1" cy="1115.58" r="8.92"></circle><circle class="cls-9" cx="797.1" cy="1115.58" r="14.28"></circle><circle class="cls-3" cx="797.1" cy="1067.37" r="14.28"></circle><circle class="cls-5" cx="797.1" cy="1067.37" r="8.92"></circle><circle class="cls-9" cx="797.1" cy="1067.37" r="14.28"></circle><circle class="cls-3" cx="797.1" cy="1019.17" r="14.28"></circle><circle class="cls-5" cx="797.1" cy="1019.17" r="8.92"></circle><circle class="cls-9" cx="797.1" cy="1019.17" r="14.28"></circle><circle class="cls-3" cx="797.1" cy="970.97" r="14.28"></circle><circle class="cls-5" cx="797.1" cy="970.97" r="8.92"></circle><circle class="cls-9" cx="797.1" cy="970.97" r="14.28"></circle><circle class="cls-3" cx="797.1" cy="922.76" r="14.28"></circle><circle class="cls-5" cx="797.1" cy="922.76" r="8.92"></circle><circle class="cls-9" cx="797.1" cy="922.76" r="14.28"></circle><rect class="cls-10" x="823.43" y="1215.95" width="55.07" height="40.68" rx="0.88"></rect><rect class="cls-6" x="1012.66" y="1260.18" width="33.39" height="68.82" rx="5.59"></rect><rect class="cls-10" x="1017.07" y="1265.79" width="24.78" height="56.64"></rect><circle class="cls-11" cx="930.99" cy="985.25" r="12.71"></circle><circle class="cls-11" cx="983.87" cy="985.25" r="12.71"></circle><circle class="cls-11" cx="1036.74" cy="985.25" r="12.71"></circle><rect class="cls-12" x="918.28" y="905.18" width="67.89" height="40.41"></rect><path class="cls-13" d="M950.36,928l2.95.94a6.63,6.63,0,0,1-2.26,3.66,7.08,7.08,0,0,1-8.93-.85,7.86,7.86,0,0,1-1.94-5.61,8.21,8.21,0,0,1,2-5.84,6.63,6.63,0,0,1,5.1-2.08,6.29,6.29,0,0,1,4.5,1.63,6.08,6.08,0,0,1,1.54,2.78l-3,.72a3.18,3.18,0,0,0-1.12-1.85,3.14,3.14,0,0,0-2.06-.68,3.44,3.44,0,0,0-2.72,1.2,5.93,5.93,0,0,0-1,3.9,6.3,6.3,0,0,0,1,4.07,3.34,3.34,0,0,0,2.67,1.21,3,3,0,0,0,2.08-.77A4.49,4.49,0,0,0,950.36,928Z"></path><path class="cls-13" d="M955.18,929.49l2.79-.34a2.66,2.66,0,0,0,.72,1.64,2.06,2.06,0,0,0,2.93-.11,2.65,2.65,0,0,0,.61-1.83,2.45,2.45,0,0,0-.59-1.73,1.87,1.87,0,0,0-1.42-.64,4.82,4.82,0,0,0-1.33.22l.32-2.36a2.49,2.49,0,0,0,1.79-.5,1.82,1.82,0,0,0,.61-1.44,1.65,1.65,0,0,0-.45-1.21,1.62,1.62,0,0,0-1.2-.45,1.75,1.75,0,0,0-1.27.51,2.36,2.36,0,0,0-.63,1.5l-2.67-.45a6.05,6.05,0,0,1,.84-2.18,3.79,3.79,0,0,1,1.57-1.29,5.22,5.22,0,0,1,2.24-.47,4.48,4.48,0,0,1,3.41,1.36,3.43,3.43,0,0,1-1.11,5.67,3.47,3.47,0,0,1,2.07,1.25,3.58,3.58,0,0,1,.78,2.33,4.51,4.51,0,0,1-1.45,3.38,5,5,0,0,1-3.61,1.4,5,5,0,0,1-3.39-1.18A4.58,4.58,0,0,1,955.18,929.49Z"></path><rect class="cls-4" x="973.95" y="1019.68" width="14.28" height="27.53" rx="2.06" transform="translate(2405.58 1070.47) rotate(135)"></rect><rect class="cls-3" x="981.89" y="1037.13" width="9.03" height="4.59" rx="1.14" transform="translate(2418.88 1076.91) rotate(135)"></rect><rect class="cls-14" x="976.32" y="1029.72" width="9.03" height="8.28" rx="1.54" transform="translate(2405.44 1071.36) rotate(135)"></rect><rect class="cls-3" x="970.8" y="1025.8" width="9.03" height="5.06" rx="1.2" transform="translate(2392.09 1065.81) rotate(135)"></rect><rect class="cls-4" x="994.06" y="1201.3" width="14.28" height="27.53" rx="2.06" transform="translate(2568.33 1366.29) rotate(135)"></rect><rect class="cls-3" x="1001.99" y="1218.74" width="9.03" height="4.59" rx="1.14" transform="translate(2581.62 1372.73) rotate(135)"></rect><rect class="cls-14" x="996.43" y="1211.34" width="9.03" height="8.28" rx="1.54" transform="translate(2568.19 1367.18) rotate(135)"></rect><rect class="cls-3" x="990.9" y="1207.41" width="9.03" height="5.06" rx="1.2" transform="translate(2554.84 1361.64) rotate(135)"></rect><rect class="cls-4" x="915.18" y="1229.53" width="14.28" height="27.53" rx="2.06" transform="translate(1844.65 2486.59) rotate(180)"></rect><rect class="cls-3" x="917.34" y="1248.98" width="9.03" height="4.59" rx="1.14" transform="translate(1843.72 2502.54) rotate(180)"></rect><rect class="cls-14" x="917.33" y="1239.27" width="9.03" height="8.28" rx="1.54" transform="translate(1843.7 2486.81) rotate(180)"></rect><rect class="cls-3" x="917.34" y="1233.06" width="9.03" height="5.06" rx="1.2" transform="translate(1843.71 2471.17) rotate(180)"></rect><rect class="cls-4" x="929.42" y="1362.98" width="14.28" height="27.53" rx="2.06" transform="translate(1873.12 2753.5) rotate(-180)"></rect><rect class="cls-3" x="931.58" y="1382.43" width="9.03" height="4.59" rx="1.14" transform="translate(1872.19 2769.46) rotate(-180)"></rect><rect class="cls-14" x="931.58" y="1372.72" width="9.03" height="8.28" rx="1.54" transform="translate(1872.17 2753.73) rotate(-180)"></rect><rect class="cls-3" x="931.58" y="1366.51" width="9.03" height="5.06" rx="1.2" transform="translate(1872.18 2738.08) rotate(-180)"></rect><rect class="cls-4" x="819.12" y="1299.46" width="14.28" height="27.53" rx="2.06" transform="translate(1652.51 2626.46) rotate(-180)"></rect><rect class="cls-3" x="821.28" y="1318.91" width="9.03" height="4.59" rx="1.14" transform="translate(1651.58 2642.42) rotate(-180)"></rect><rect class="cls-14" x="821.27" y="1309.2" width="9.03" height="8.28" rx="1.54" transform="translate(1651.56 2626.69) rotate(-180)"></rect><rect class="cls-3" x="821.28" y="1302.99" width="9.03" height="5.06" rx="1.2" transform="translate(1651.58 2611.04) rotate(-180)"></rect><rect class="cls-4" x="825.98" y="1333.9" width="14.28" height="27.53" rx="2.06" transform="translate(-514.56 2180.77) rotate(-90)"></rect><rect class="cls-3" x="820.62" y="1344.91" width="9.03" height="4.59" rx="1.14" transform="translate(-522.07 2172.33) rotate(-90)"></rect><rect class="cls-14" x="828.49" y="1343.05" width="9.03" height="8.28" rx="1.54" transform="translate(-514.2 2180.19) rotate(-90)"></rect><rect class="cls-3" x="836.31" y="1344.67" width="9.03" height="5.06" rx="1.2" transform="translate(-506.38 2188.02) rotate(-90)"></rect><rect class="cls-4" x="951.16" y="1362.98" width="14.28" height="27.53" rx="2.06" transform="translate(1916.58 2753.5) rotate(-180)"></rect><rect class="cls-3" x="953.32" y="1382.43" width="9.03" height="4.59" rx="1.14" transform="translate(1915.65 2769.46) rotate(-180)"></rect><rect class="cls-14" x="953.31" y="1372.72" width="9.03" height="8.28" rx="1.54" transform="translate(1915.64 2753.73) rotate(-180)"></rect><rect class="cls-3" x="953.31" y="1366.51" width="9.03" height="5.06" rx="1.2" transform="translate(1915.65 2738.08) rotate(-180)"></rect><rect class="cls-4" x="860.1" y="991.13" width="14.28" height="27.53" rx="2.06" transform="translate(1872.14 137.65) rotate(90)"></rect><rect class="cls-3" x="870.71" y="1003.07" width="9.03" height="4.59" rx="1.14" transform="translate(1880.58 130.14) rotate(90)"></rect><rect class="cls-13" x="862.84" y="1001.23" width="9.03" height="8.28" rx="1.54" transform="matrix(0, 1, -1, 0, 1872.72, 138.01)"></rect><rect class="cls-3" x="855.02" y="1002.83" width="9.03" height="5.06" rx="1.2" transform="matrix(0, 1, -1, 0, 1864.89, 145.82)"></rect><rect class="cls-4" x="851.26" y="1022.75" width="14.28" height="27.53" rx="2.06" transform="translate(1716.81 2073.04) rotate(180)"></rect><rect class="cls-3" x="853.42" y="1042.21" width="9.03" height="4.59" rx="1.14" transform="translate(1715.88 2088.99) rotate(180)"></rect><rect class="cls-13" x="853.42" y="1032.49" width="9.03" height="8.28" rx="1.54" transform="translate(1715.87 2073.26) rotate(180)"></rect><rect class="cls-3" x="853.42" y="1026.28" width="9.03" height="5.06" rx="1.2" transform="translate(1715.88 2057.62) rotate(180)"></rect><rect class="cls-4" x="821.63" y="1087.53" width="14.28" height="27.53" rx="2.06" transform="translate(2193.53 1294) rotate(135)"></rect><rect class="cls-3" x="829.57" y="1104.98" width="9.03" height="4.59" rx="1.14" transform="translate(2206.83 1300.44) rotate(135)"></rect><rect class="cls-13" x="824" y="1097.57" width="9.03" height="8.28" rx="1.54" transform="translate(2193.39 1294.89) rotate(135)"></rect><rect class="cls-3" x="818.47" y="1093.65" width="9.03" height="5.06" rx="1.2" transform="translate(2180.04 1289.35) rotate(135)"></rect><rect class="cls-4" x="825.98" y="1260.7" width="14.28" height="27.53" rx="2.06" transform="translate(2107.59 441.36) rotate(90)"></rect><rect class="cls-3" x="836.58" y="1272.63" width="9.03" height="4.59" rx="1.14" transform="translate(2116.03 433.84) rotate(90)"></rect><rect class="cls-13" x="828.72" y="1270.8" width="9.03" height="8.28" rx="1.54" transform="translate(2108.18 441.72) rotate(90)"></rect><rect class="cls-3" x="820.89" y="1272.4" width="9.03" height="5.06" rx="1.2" transform="matrix(0, 1, -1, 0, 2100.35, 449.53)"></rect><rect class="cls-4" x="891.61" y="1229.53" width="14.28" height="27.53" rx="2.06" transform="translate(1797.5 2486.6) rotate(-180)"></rect><rect class="cls-3" x="893.77" y="1248.98" width="9.03" height="4.59" rx="1.14" transform="translate(1796.57 2502.55) rotate(-180)"></rect><rect class="cls-13" x="893.76" y="1239.27" width="9.03" height="8.28" rx="1.54" transform="translate(1796.55 2486.82) rotate(-180)"></rect><rect class="cls-3" x="893.77" y="1233.06" width="9.03" height="5.06" rx="1.2" transform="translate(1796.57 2471.18) rotate(-180)"></rect><rect class="cls-4" x="860.1" y="966.12" width="14.28" height="27.53" rx="2.06" transform="translate(1847.13 112.65) rotate(90)"></rect><rect class="cls-3" x="870.71" y="978.06" width="9.03" height="4.59" rx="1.14" transform="translate(1855.58 105.13) rotate(90)"></rect><rect class="cls-14" x="862.84" y="976.22" width="9.03" height="8.28" rx="1.54" transform="matrix(0, 1, -1, 0, 1847.72, 113.01)"></rect><rect class="cls-3" x="855.02" y="977.83" width="9.03" height="5.06" rx="1.2" transform="matrix(0, 1, -1, 0, 1839.89, 120.82)"></rect><rect class="cls-4" x="881.22" y="1033.8" width="14.28" height="27.53" rx="2.06" transform="translate(1000.93 -321.34) rotate(45)"></rect><rect class="cls-3" x="889.82" y="1039.96" width="9.03" height="4.59" rx="1.14" transform="translate(998.93 -327.12) rotate(45)"></rect><rect class="cls-15" x="884.26" y="1043.68" width="9.03" height="8.28" rx="1.54" transform="translate(1001.24 -321.56) rotate(45)"></rect><rect class="cls-3" x="878.72" y="1050.82" width="9.03" height="5.06" rx="1.2" transform="translate(1003.52 -316.03) rotate(45)"></rect><rect class="cls-4" x="1007.06" y="1020.1" width="14.28" height="27.53" rx="2.06" transform="translate(1028.1 -414.34) rotate(45)"></rect><rect class="cls-3" x="1015.66" y="1026.26" width="9.03" height="4.59" rx="1.14" transform="translate(1026.09 -420.12) rotate(45)"></rect><rect class="cls-15" x="1010.1" y="1029.98" width="9.03" height="8.28" rx="1.54" transform="translate(1028.41 -414.56) rotate(45)"></rect><rect class="cls-3" x="1004.56" y="1037.11" width="9.03" height="5.06" rx="1.2" transform="translate(1030.69 -409.02) rotate(45)"></rect><rect class="cls-4" x="846.34" y="1069.35" width="14.28" height="27.53" rx="2.06" transform="translate(1015.86 -286.26) rotate(45)"></rect><rect class="cls-3" x="854.94" y="1075.51" width="9.03" height="4.59" rx="1.14" transform="translate(1013.85 -292.04) rotate(45)"></rect><rect class="cls-15" x="849.38" y="1079.23" width="9.03" height="8.28" rx="1.54" transform="translate(1016.16 -286.48) rotate(45)"></rect><rect class="cls-3" x="843.84" y="1086.36" width="9.03" height="5.06" rx="1.2" transform="translate(1018.44 -280.95) rotate(45)"></rect><rect class="cls-4" x="824.24" y="1145.01" width="14.28" height="27.53" rx="2.06" transform="translate(1062.88 -248.48) rotate(45)"></rect><rect class="cls-3" x="832.84" y="1151.17" width="9.03" height="4.59" rx="1.14" transform="translate(1060.87 -254.26) rotate(45)"></rect><rect class="cls-15" x="827.28" y="1154.89" width="9.03" height="8.28" rx="1.54" transform="translate(1063.18 -248.7) rotate(45)"></rect><rect class="cls-3" x="821.75" y="1162.02" width="9.03" height="5.06" rx="1.2" transform="translate(1065.47 -243.16) rotate(45)"></rect><rect class="cls-4" x="838.58" y="1159.19" width="14.28" height="27.53" rx="2.06" transform="translate(1077.11 -254.47) rotate(45)"></rect><rect class="cls-3" x="847.18" y="1165.35" width="9.03" height="4.59" rx="1.14" transform="translate(1075.1 -260.25) rotate(45)"></rect><rect class="cls-15" x="841.63" y="1169.07" width="9.03" height="8.28" rx="1.54" transform="translate(1077.41 -254.69) rotate(45)"></rect><rect class="cls-3" x="836.09" y="1176.21" width="9.03" height="5.06" rx="1.2" transform="translate(1079.7 -249.15) rotate(45)"></rect><rect class="cls-4" x="1044.03" y="1151.17" width="14.28" height="27.53" rx="2.06" transform="translate(2618.19 1245.37) rotate(135)"></rect><rect class="cls-3" x="1051.97" y="1168.61" width="9.03" height="4.59" rx="1.14" transform="translate(2631.48 1251.81) rotate(135)"></rect><rect class="cls-15" x="1046.4" y="1161.21" width="9.03" height="8.28" rx="1.54" transform="translate(2618.05 1246.26) rotate(135)"></rect><rect class="cls-3" x="1040.88" y="1157.28" width="9.03" height="5.06" rx="1.2" transform="translate(2604.7 1240.72) rotate(135)"></rect><rect class="cls-4" x="1028.93" y="1166.11" width="14.28" height="27.53" rx="2.06" transform="translate(2602.98 1281.56) rotate(135)"></rect><rect class="cls-3" x="1036.87" y="1183.55" width="9.03" height="4.59" rx="1.14" transform="translate(2616.27 1287.99) rotate(135)"></rect><rect class="cls-15" x="1031.3" y="1176.15" width="9.03" height="8.28" rx="1.54" transform="translate(2602.84 1282.45) rotate(135)"></rect><rect class="cls-3" x="1025.77" y="1172.22" width="9.03" height="5.06" rx="1.2" transform="translate(2589.49 1276.9) rotate(135)"></rect><rect class="cls-4" x="1013.03" y="1181.84" width="14.28" height="27.53" rx="2.06" transform="translate(2586.97 1319.66) rotate(135)"></rect><rect class="cls-3" x="1020.97" y="1199.29" width="9.03" height="4.59" rx="1.14" transform="translate(2600.26 1326.1) rotate(135)"></rect><rect class="cls-15" x="1015.4" y="1191.89" width="9.03" height="8.28" rx="1.54" transform="translate(2586.83 1320.55) rotate(135)"></rect><rect class="cls-3" x="1009.88" y="1187.96" width="9.03" height="5.06" rx="1.2" transform="translate(2573.48 1315.01) rotate(135)"></rect><rect class="cls-4" x="977.67" y="1282.12" width="14.28" height="27.53" rx="2.06" transform="translate(1969.62 2591.79) rotate(-180)"></rect><rect class="cls-3" x="979.83" y="1301.58" width="9.03" height="4.59" rx="1.14" transform="translate(1968.69 2607.74) rotate(-180)"></rect><rect class="cls-15" x="979.83" y="1291.87" width="9.03" height="8.28" rx="1.54" transform="translate(1968.68 2592.01) rotate(-180)"></rect><rect class="cls-3" x="979.83" y="1285.65" width="9.03" height="5.06" rx="1.2" transform="translate(1968.69 2576.37) rotate(-180)"></rect><rect class="cls-4" x="821.95" y="1393.49" width="14.28" height="27.53" rx="2.06" transform="translate(1658.18 2814.51) rotate(-180)"></rect><rect class="cls-3" x="824.11" y="1412.94" width="9.03" height="4.59" rx="1.14" transform="translate(1657.25 2830.47) rotate(-180)"></rect><rect class="cls-15" x="824.1" y="1403.23" width="9.03" height="8.28" rx="1.54" transform="translate(1657.23 2814.74) rotate(-180)"></rect><rect class="cls-3" x="824.11" y="1397.01" width="9.03" height="5.06" rx="1.2" transform="translate(1657.24 2799.09) rotate(-180)"></rect><rect class="cls-4" x="1059.04" y="1393.49" width="14.28" height="27.53" rx="2.06" transform="translate(2132.35 2814.51) rotate(-180)"></rect><rect class="cls-3" x="1061.2" y="1412.94" width="9.03" height="4.59" rx="1.14" transform="translate(2131.42 2830.47) rotate(-180)"></rect><rect class="cls-15" x="1061.19" y="1403.23" width="9.03" height="8.28" rx="1.54" transform="translate(2131.41 2814.74) rotate(-180)"></rect><rect class="cls-3" x="1061.2" y="1397.01" width="9.03" height="5.06" rx="1.2" transform="translate(2131.42 2799.09) rotate(-180)"></rect><rect class="cls-4" x="1059.04" y="1341.04" width="14.28" height="27.53" rx="2.06" transform="translate(2132.35 2709.62) rotate(-180)"></rect><rect class="cls-3" x="1061.2" y="1360.49" width="9.03" height="4.59" rx="1.14" transform="translate(2131.42 2725.58) rotate(-180)"></rect><rect class="cls-15" x="1061.19" y="1350.78" width="9.03" height="8.28" rx="1.54" transform="translate(2131.41 2709.85) rotate(-180)"></rect><rect class="cls-3" x="1061.2" y="1344.57" width="9.03" height="5.06" rx="1.2" transform="translate(2131.42 2694.2) rotate(-180)"></rect><rect class="cls-4" x="1059.04" y="1284.41" width="14.28" height="27.53" rx="2.06" transform="translate(2132.35 2596.35) rotate(-180)"></rect><rect class="cls-3" x="1061.2" y="1303.86" width="9.03" height="4.59" rx="1.14" transform="translate(2131.42 2612.31) rotate(-180)"></rect><rect class="cls-15" x="1061.19" y="1294.15" width="9.03" height="8.28" rx="1.54" transform="translate(2131.41 2596.58) rotate(-180)"></rect><rect class="cls-3" x="1061.2" y="1287.93" width="9.03" height="5.06" rx="1.2" transform="translate(2131.42 2580.93) rotate(-180)"></rect><rect class="cls-16" x="975.92" y="1229.38" width="7.69" height="14.82" rx="1.11" transform="translate(2547.1 1418.53) rotate(135)"></rect><rect class="cls-3" x="980.19" y="1238.77" width="4.86" height="2.47" rx="0.62" transform="translate(2554.26 1421.99) rotate(135)"></rect><rect class="cls-14" x="977.2" y="1234.78" width="4.86" height="4.45" rx="0.83" transform="translate(2547.03 1419.01) rotate(135)"></rect><rect class="cls-3" x="974.22" y="1232.67" width="4.86" height="2.72" rx="0.65" transform="translate(2539.84 1416.02) rotate(135)"></rect><rect class="cls-16" x="929.74" y="1399.85" width="7.69" height="14.82" rx="1.11" transform="translate(1867.16 2814.51) rotate(-180)"></rect><rect class="cls-3" x="930.91" y="1410.31" width="4.86" height="2.47" rx="0.62" transform="translate(1866.66 2823.1) rotate(-180)"></rect><rect class="cls-14" x="930.9" y="1405.09" width="4.86" height="4.45" rx="0.83" transform="translate(1866.66 2814.64) rotate(-180)"></rect><rect class="cls-3" x="930.91" y="1401.74" width="4.86" height="2.72" rx="0.65" transform="translate(1866.66 2806.21) rotate(-180)"></rect><rect class="cls-16" x="844.92" y="1399.85" width="7.69" height="14.82" rx="1.11" transform="translate(1697.51 2814.51) rotate(-180)"></rect><rect class="cls-3" x="846.08" y="1410.31" width="4.86" height="2.47" rx="0.62" transform="translate(1697.01 2823.1) rotate(-180)"></rect><rect class="cls-14" x="846.08" y="1405.09" width="4.86" height="4.45" rx="0.83" transform="translate(1697 2814.64) rotate(-180)"></rect><rect class="cls-3" x="846.08" y="1401.74" width="4.86" height="2.72" rx="0.65" transform="translate(1697.01 2806.21) rotate(-180)"></rect><rect class="cls-16" x="1042.2" y="1399.85" width="7.69" height="14.82" rx="1.11" transform="translate(2092.08 2814.51) rotate(-180)"></rect><rect class="cls-3" x="1043.36" y="1410.31" width="4.86" height="2.47" rx="0.62" transform="translate(2091.58 2823.1) rotate(-180)"></rect><rect class="cls-14" x="1043.36" y="1405.09" width="4.86" height="4.45" rx="0.83" transform="translate(2091.57 2814.64) rotate(-180)"></rect><rect class="cls-3" x="1043.36" y="1401.74" width="4.86" height="2.72" rx="0.65" transform="translate(2091.58 2806.22) rotate(-180)"></rect><rect class="cls-16" x="943.47" y="1399.85" width="7.69" height="14.82" rx="1.11" transform="translate(1894.62 2814.51) rotate(-180)"></rect><rect class="cls-3" x="944.63" y="1410.31" width="4.86" height="2.47" rx="0.62" transform="translate(1894.11 2823.1) rotate(-180)"></rect><rect class="cls-14" x="944.63" y="1405.09" width="4.86" height="4.45" rx="0.83" transform="translate(1894.11 2814.64) rotate(-180)"></rect><rect class="cls-3" x="944.63" y="1401.74" width="4.86" height="2.72" rx="0.65" transform="translate(1894.11 2806.21) rotate(-180)"></rect><rect class="cls-16" x="855.19" y="1423.38" width="7.69" height="14.82" rx="1.11" transform="translate(-571.75 2289.81) rotate(-90)"></rect><rect class="cls-3" x="852.31" y="1429.3" width="4.86" height="2.47" rx="0.62" transform="translate(-575.8 2285.27) rotate(-90)"></rect><rect class="cls-14" x="856.54" y="1428.3" width="4.86" height="4.45" rx="0.83" transform="translate(-571.56 2289.5) rotate(-90)"></rect><rect class="cls-3" x="860.75" y="1429.17" width="4.86" height="2.72" rx="0.65" transform="translate(-567.35 2293.71) rotate(-90)"></rect><rect class="cls-16" x="1032.92" y="1423.38" width="7.69" height="14.82" rx="1.11" transform="translate(-394.03 2467.54) rotate(-90)"></rect><rect class="cls-3" x="1030.04" y="1429.3" width="4.86" height="2.47" rx="0.62" transform="translate(-398.07 2463) rotate(-90)"></rect><rect class="cls-14" x="1034.27" y="1428.3" width="4.86" height="4.45" rx="0.83" transform="translate(-393.84 2467.22) rotate(-90)"></rect><rect class="cls-3" x="1038.48" y="1429.17" width="4.86" height="2.72" rx="0.65" transform="translate(-389.63 2471.44) rotate(-90)"></rect><rect class="cls-16" x="957.2" y="1399.85" width="7.69" height="14.82" rx="1.11" transform="translate(1922.07 2814.51) rotate(-180)"></rect><rect class="cls-3" x="958.36" y="1410.31" width="4.86" height="2.47" rx="0.62" transform="translate(1921.57 2823.1) rotate(-180)"></rect><rect class="cls-14" x="958.35" y="1405.09" width="4.86" height="4.45" rx="0.83" transform="translate(1921.56 2814.64) rotate(-180)"></rect><rect class="cls-3" x="958.36" y="1401.74" width="4.86" height="2.72" rx="0.65" transform="translate(1921.57 2806.21) rotate(-180)"></rect><rect class="cls-16" x="986.13" y="1218.91" width="7.69" height="14.82" rx="1.11" transform="translate(2557.13 1393.44) rotate(135)"></rect><rect class="cls-3" x="990.41" y="1228.3" width="4.86" height="2.47" rx="0.62" transform="translate(2564.29 1396.9) rotate(135)"></rect><rect class="cls-15" x="987.41" y="1224.31" width="4.86" height="4.45" rx="0.83" transform="translate(2557.06 1393.91) rotate(135)"></rect><rect class="cls-3" x="984.44" y="1222.2" width="4.86" height="2.72" rx="0.65" transform="translate(2549.87 1390.93) rotate(135)"></rect><rect class="cls-16" x="960.05" y="1245.99" width="7.69" height="14.82" rx="1.11" transform="translate(2531.75 1458.12) rotate(135)"></rect><rect class="cls-3" x="964.32" y="1255.38" width="4.86" height="2.47" rx="0.62" transform="translate(2538.9 1461.58) rotate(135)"></rect><rect class="cls-15" x="961.32" y="1251.4" width="4.86" height="4.45" rx="0.83" transform="translate(2531.68 1458.6) rotate(135)"></rect><rect class="cls-3" x="958.35" y="1249.28" width="4.86" height="2.72" rx="0.65" transform="translate(2524.49 1455.61) rotate(135)"></rect><rect class="cls-4" x="853.69" y="1174.14" width="14.28" height="27.53" rx="2.06" transform="translate(1092.1 -260.77) rotate(45)"></rect><rect class="cls-3" x="862.29" y="1180.3" width="9.03" height="4.59" rx="1.14" transform="translate(1090.09 -266.55) rotate(45)"></rect><rect class="cls-6" x="856.73" y="1184.02" width="9.03" height="8.28" rx="1.54" transform="translate(1092.41 -260.99) rotate(45)"></rect><rect class="cls-3" x="851.2" y="1191.15" width="9.03" height="5.06" rx="1.2" transform="translate(1094.69 -255.46) rotate(45)"></rect><rect class="cls-8" x="1030.35" y="1037.2" width="25.3" height="32.62" rx="1.84" transform="translate(1050.43 -428.94) rotate(45)"></rect><rect class="cls-3" x="1055.95" y="1055.71" width="9.03" height="4.59" rx="1.14" transform="translate(1058.73 -439.98) rotate(45)"></rect><rect class="cls-3" x="1049.46" y="1062.2" width="9.03" height="4.59" rx="1.14" transform="translate(1061.41 -433.49) rotate(45)"></rect><rect class="cls-3" x="1042.98" y="1068.69" width="9.03" height="4.59" rx="1.14" transform="translate(1064.1 -427) rotate(45)"></rect><rect class="cls-3" x="1034.14" y="1033.9" width="9.03" height="4.59" rx="1.14" transform="translate(1036.91 -430.95) rotate(45)"></rect><rect class="cls-3" x="1027.65" y="1040.39" width="9.03" height="4.59" rx="1.14" transform="translate(1039.6 -424.46) rotate(45)"></rect><rect class="cls-3" x="1021.16" y="1046.88" width="9.03" height="4.59" rx="1.14" transform="translate(1042.29 -417.97) rotate(45)"></rect><rect class="cls-8" x="869.71" y="1360.87" width="40.13" height="51.76" rx="2.92" transform="translate(2276.54 496.98) rotate(90)"></rect><rect class="cls-3" x="897.18" y="1407.76" width="14.32" height="7.28" rx="1.82" transform="translate(2315.74 507.07) rotate(90)"></rect><rect class="cls-3" x="882.62" y="1407.76" width="14.32" height="7.28" rx="1.82" transform="translate(2301.19 521.63) rotate(90)"></rect><rect class="cls-3" x="868.06" y="1407.76" width="14.32" height="7.28" rx="1.82" transform="translate(2286.63 536.18) rotate(90)"></rect><rect class="cls-3" x="897.18" y="1358.82" width="14.32" height="7.28" rx="1.82" transform="translate(2266.8 458.13) rotate(90)"></rect><rect class="cls-3" x="868.06" y="1358.82" width="14.32" height="7.28" rx="1.82" transform="translate(2237.69 487.24) rotate(90)"></rect><rect class="cls-8" x="986.44" y="1360.87" width="40.13" height="51.76" rx="2.92" transform="translate(2393.27 380.25) rotate(90)"></rect><rect class="cls-8" x="922.42" y="1292.29" width="40.13" height="20.14" rx="1.82" transform="translate(2244.85 359.87) rotate(90)"></rect><rect class="cls-3" x="1013.9" y="1407.76" width="14.32" height="7.28" rx="1.82" transform="translate(2432.47 390.34) rotate(90)"></rect><rect class="cls-3" x="999.35" y="1407.76" width="14.32" height="7.28" rx="1.82" transform="translate(2417.91 404.9) rotate(90)"></rect><rect class="cls-3" x="984.79" y="1407.76" width="14.32" height="7.28" rx="1.82" transform="translate(2403.36 419.45) rotate(90)"></rect><rect class="cls-3" x="1013.9" y="1358.82" width="14.32" height="7.28" rx="1.82" transform="translate(2383.53 341.4) rotate(90)"></rect><rect class="cls-3" x="984.79" y="1358.82" width="14.32" height="7.28" rx="1.82" transform="translate(2354.41 370.51) rotate(90)"></rect><rect class="cls-3" x="935.47" y="1269.67" width="14.32" height="17.05" rx="2.78" transform="translate(2220.82 335.56) rotate(90)"></rect><rect class="cls-3" x="935.47" y="1318.01" width="14.32" height="17.05" rx="2.78" transform="translate(2269.16 383.89) rotate(90)"></rect><rect class="cls-8" x="858.17" y="1292.28" width="50.81" height="22.64" rx="2.18" transform="translate(2187.18 420.03) rotate(90)"></rect><rect class="cls-3" x="896.5" y="1312.69" width="8.37" height="17.05" rx="2.12" transform="translate(2221.89 420.51) rotate(90)"></rect><rect class="cls-3" x="896.5" y="1276.83" width="8.37" height="17.05" rx="2.12" transform="translate(2186.04 384.66) rotate(90)"></rect><rect class="cls-3" x="862.62" y="1293.84" width="8.37" height="17.05" rx="2.12" transform="translate(2169.16 435.55) rotate(90)"></rect><rect class="cls-10" x="875.22" y="1437.36" width="4.87" height="26.98" rx="1.21"></rect><rect class="cls-10" x="884.56" y="1437.36" width="4.87" height="26.98" rx="1.21"></rect><rect class="cls-10" x="893.9" y="1437.36" width="4.87" height="26.98" rx="1.21"></rect><rect class="cls-10" x="903.24" y="1437.36" width="4.87" height="26.98" rx="1.21"></rect><rect class="cls-10" x="912.58" y="1437.36" width="4.87" height="26.98" rx="1.21"></rect><rect class="cls-10" x="921.92" y="1437.36" width="4.87" height="26.98" rx="1.21"></rect><rect class="cls-10" x="931.26" y="1437.36" width="4.87" height="26.98" rx="1.21"></rect><rect class="cls-10" x="940.59" y="1437.36" width="4.87" height="26.98" rx="1.21"></rect><rect class="cls-10" x="949.93" y="1437.36" width="4.87" height="26.98" rx="1.21"></rect><rect class="cls-10" x="959.27" y="1437.36" width="4.87" height="26.98" rx="1.21"></rect><rect class="cls-10" x="968.61" y="1437.36" width="4.87" height="26.98" rx="1.21"></rect><rect class="cls-10" x="977.95" y="1437.36" width="4.87" height="26.98" rx="1.21"></rect><rect class="cls-10" x="987.29" y="1437.36" width="4.87" height="26.98" rx="1.21"></rect><rect class="cls-10" x="996.63" y="1437.36" width="4.87" height="26.98" rx="1.21"></rect><rect class="cls-10" x="1005.96" y="1437.36" width="4.87" height="26.98" rx="1.21"></rect><rect class="cls-10" x="1015.3" y="1437.36" width="4.87" height="26.98" rx="1.21"></rect><rect class="cls-8" x="894.89" y="1505.43" width="29.46" height="14.21" rx="4.18"></rect><rect class="cls-8" x="977.42" y="1505.43" width="29.46" height="14.21" rx="4.18"></rect><rect class="cls-5" x="833.22" y="1468.08" width="27.26" height="12.55" rx="4.57"></rect><path class="cls-3" d="M835.94,1536.36a4.06,4.06,0,0,1,4,4.05v18a4.05,4.05,0,0,1-4,4h-2.1a4,4,0,0,1-4.05-4v-18a4.05,4.05,0,0,1,4.05-4.05h2.1m0-5h-2.1a9.05,9.05,0,0,0-9.05,9.05v18a9,9,0,0,0,9.05,9h2.1a9,9,0,0,0,9-9v-18a9.05,9.05,0,0,0-9-9.05Z"></path><rect class="cls-4" x="824.79" y="1531.36" width="20.2" height="36.07" rx="9.05"></rect><rect class="cls-5" x="833.22" y="1548.6" width="27.26" height="12.55" rx="4.57"></rect><path class="cls-3" d="M1066.82,1455.85h2.11a4.06,4.06,0,0,1,4,4.05v18a4.06,4.06,0,0,1-4,4.05h-2.11a4.06,4.06,0,0,1-4-4.05v-18a4.06,4.06,0,0,1,4-4.05m0-5a9.05,9.05,0,0,0-9,9.05v18a9.05,9.05,0,0,0,9,9.05h2.11a9.05,9.05,0,0,0,9-9.05v-18a9.05,9.05,0,0,0-9-9.05Z"></path><rect class="cls-4" x="1057.77" y="1450.85" width="20.2" height="36.07" rx="9.05" transform="translate(2135.75 2937.77) rotate(-180)"></rect><rect class="cls-5" x="1042.29" y="1468.08" width="27.26" height="12.55" rx="4.57" transform="translate(2111.83 2948.71) rotate(-180)"></rect><path class="cls-3" d="M1066.82,1536.36h2.11a4.06,4.06,0,0,1,4,4.05v18a4.05,4.05,0,0,1-4,4h-2.11a4.05,4.05,0,0,1-4-4v-18a4.06,4.06,0,0,1,4-4.05m0-5a9.06,9.06,0,0,0-9,9.05v18a9.05,9.05,0,0,0,9,9h2.11a9.05,9.05,0,0,0,9-9v-18a9.06,9.06,0,0,0-9-9.05Z"></path><rect class="cls-4" x="1057.77" y="1531.36" width="20.2" height="36.07" rx="9.05" transform="translate(2135.75 3098.8) rotate(-180)"></rect><rect class="cls-5" x="1042.29" y="1548.6" width="27.26" height="12.55" rx="4.57" transform="translate(2111.83 3109.74) rotate(-180)"></rect><rect class="cls-10" x="774.15" y="852.53" width="35.52" height="24.12" rx="5.7"></rect><rect class="cls-10" x="774.15" y="814.38" width="35.52" height="24.12" rx="5.7"></rect><rect class="cls-10" x="774.15" y="776.23" width="35.52" height="24.12" rx="5.7"></rect><rect class="cls-10" x="774.15" y="738.09" width="35.52" height="24.12" rx="5.7"></rect><rect class="cls-10" x="774.15" y="699.94" width="35.52" height="24.12" rx="5.7"></rect><rect class="cls-10" x="774.15" y="661.79" width="35.52" height="24.12" rx="5.7"></rect><rect class="cls-10" x="774.15" y="623.65" width="35.52" height="24.12" rx="5.7"></rect><path class="cls-10" d="M809.67,591.2v12.72a5.71,5.71,0,0,1-5.7,5.7H779.85a5.7,5.7,0,0,1-5.7-5.7v-5.53h3L790,585.5h14A5.7,5.7,0,0,1,809.67,591.2Z"></path><rect class="cls-10" x="1088.03" y="852.53" width="35.52" height="24.12" rx="5.7"></rect><rect class="cls-10" x="1088.03" y="814.38" width="35.52" height="24.12" rx="5.7"></rect><rect class="cls-10" x="1088.03" y="776.23" width="35.52" height="24.12" rx="5.7"></rect><rect class="cls-10" x="1088.03" y="738.09" width="35.52" height="24.12" rx="5.7"></rect><rect class="cls-10" x="1088.03" y="699.94" width="35.52" height="24.12" rx="5.7"></rect><rect class="cls-10" x="1088.03" y="661.79" width="35.52" height="24.12" rx="5.7"></rect><rect class="cls-10" x="1088.03" y="623.65" width="35.52" height="24.12" rx="5.7"></rect><path class="cls-10" d="M1123.55,596.73v7.19a5.7,5.7,0,0,1-5.7,5.7h-24.12a5.7,5.7,0,0,1-5.7-5.7V591.2a5.7,5.7,0,0,1,5.7-5.7h18.59Z"></path><path class="cls-6" d="M1084.18,573.8H900.35a12.5,12.5,0,0,0-12.49,12.49v77.34a3.7,3.7,0,0,1-3.7,3.7h-70a12.5,12.5,0,0,0-12.48,12.49V880.65a12.5,12.5,0,0,0,12.48,12.48h270a12.5,12.5,0,0,0,12.49-12.48V586.29A12.51,12.51,0,0,0,1084.18,573.8Zm3.71,306.85a3.72,3.72,0,0,1-3.71,3.7h-270a3.71,3.71,0,0,1-3.7-3.7V679.82a3.71,3.71,0,0,1,3.7-3.71h70a12.5,12.5,0,0,0,12.48-12.48V586.29a3.72,3.72,0,0,1,3.71-3.71h183.83a3.72,3.72,0,0,1,3.71,3.71Z"></path><path class="cls-17" d="M1087.89,586.29V880.65a3.72,3.72,0,0,1-3.71,3.7h-270a3.71,3.71,0,0,1-3.7-3.7V679.82a3.71,3.71,0,0,1,3.7-3.71h70a12.5,12.5,0,0,0,12.48-12.48V586.29a3.72,3.72,0,0,1,3.71-3.71h183.83A3.72,3.72,0,0,1,1087.89,586.29Z"></path><path class="cls-5" d="M1084.18,573.8H900.35a12.5,12.5,0,0,0-12.49,12.49v77.34a3.7,3.7,0,0,1-3.7,3.7h-70a12.5,12.5,0,0,0-12.48,12.49V880.65a12.5,12.5,0,0,0,12.48,12.48h270a12.5,12.5,0,0,0,12.49-12.48V586.29A12.51,12.51,0,0,0,1084.18,573.8Zm3.71,306.85a3.72,3.72,0,0,1-3.71,3.7h-270a3.71,3.71,0,0,1-3.7-3.7V679.82a3.71,3.71,0,0,1,3.7-3.71h70a12.5,12.5,0,0,0,12.48-12.48V586.29a3.72,3.72,0,0,1,3.71-3.71h183.83a3.72,3.72,0,0,1,3.71,3.71Z"></path><path class="cls-10" d="M1087.89,586.29V880.65a3.72,3.72,0,0,1-3.71,3.7h-270a3.71,3.71,0,0,1-3.7-3.7V679.82a3.71,3.71,0,0,1,3.7-3.71h70a12.5,12.5,0,0,0,12.48-12.48V586.29a3.72,3.72,0,0,1,3.71-3.71h183.83A3.72,3.72,0,0,1,1087.89,586.29Z"></path><path class="cls-17" d="M878.83,577.72a3.84,3.84,0,0,1,1.12,2.72V600.5a3.11,3.11,0,0,1-1.31,2.53l-3.56,2.51a3.11,3.11,0,0,0-1.3,2.53v.1a3.07,3.07,0,0,0,3.07,3.08,3.07,3.07,0,0,1,2.19.91,3,3,0,0,1,.91,2.17v11.49a5.25,5.25,0,0,1-5.25,5.24H835.39a5.25,5.25,0,0,1-5.25-5.24V614.33a3.1,3.1,0,0,1,3.09-3.08h.54a3.09,3.09,0,0,0,3.08-3.08v-.1a3.11,3.11,0,0,0-1.3-2.53l-4.1-2.88a3.11,3.11,0,0,1-1.31-2.53V580.44a3.85,3.85,0,0,1,1.13-2.72l8.27-8.28,2.13-2.14V535.54h26.75V567.3l2.14,2.14Z"></path><path class="cls-18" d="M878.83,577.72a3.84,3.84,0,0,1,1.12,2.72V600.5a3.11,3.11,0,0,1-1.31,2.53l-3.56,2.51a3.11,3.11,0,0,0-1.3,2.53v.1a3.07,3.07,0,0,0,3.07,3.08,3.07,3.07,0,0,1,2.19.91,3,3,0,0,1,.91,2.17v11.49a5.25,5.25,0,0,1-5.25,5.24H835.39a5.25,5.25,0,0,1-5.25-5.24V614.33a3.1,3.1,0,0,1,3.09-3.08h.54a3.09,3.09,0,0,0,3.08-3.08v-.1a3.11,3.11,0,0,0-1.3-2.53l-4.1-2.88a3.11,3.11,0,0,1-1.31-2.53V580.44a3.85,3.85,0,0,1,1.13-2.72l8.27-8.28,2.13-2.14V535.54h26.75V567.3l2.14,2.14Z"></path><path class="cls-19" d="M1096.67,586.29V880.65a12.5,12.5,0,0,1-12.49,12.48h-270a12.5,12.5,0,0,1-12.48-12.48V679.82a12.5,12.5,0,0,1,12.48-12.49h70a3.7,3.7,0,0,0,3.7-3.7V586.29a12.5,12.5,0,0,1,12.49-12.49h183.83A12.51,12.51,0,0,1,1096.67,586.29Z"></path><circle class="cls-5" cx="1160.55" cy="1014.7" r="15.19"></circle><circle class="cls-8" cx="1160.55" cy="1014.7" r="8.34"></circle><circle class="cls-20" cx="1160.55" cy="1014.7" r="15.19"></circle><circle class="cls-5" cx="1160.55" cy="965.17" r="15.19"></circle><circle class="cls-8" cx="1160.55" cy="965.17" r="8.34"></circle><circle class="cls-20" cx="1160.55" cy="965.17" r="15.19"></circle><circle class="cls-5" cx="1160.55" cy="915.65" r="15.19"></circle><circle class="cls-8" cx="1160.55" cy="915.65" r="8.34"></circle><circle class="cls-20" cx="1160.55" cy="915.65" r="15.19"></circle><circle class="cls-5" cx="1160.55" cy="866.12" r="15.19"></circle><circle class="cls-8" cx="1160.55" cy="866.12" r="8.34"></circle><circle class="cls-20" cx="1160.55" cy="866.12" r="15.19"></circle><rect class="cls-5" x="812.35" y="640.68" width="7.08" height="7.08" rx="1.78"></rect><rect class="cls-5" x="829.05" y="640.68" width="7.08" height="7.08" rx="1.78"></rect><rect class="cls-5" x="812.35" y="623.98" width="7.08" height="7.08" rx="1.78"></rect><path class="cls-13" d="M856.44,788.13h-.05l-1.11-.28-32.53-8.07a5,5,0,0,0-4.13.79l-.08.06c.13-.64.29-1.23.46-1.78a11.14,11.14,0,0,1,2.52-4.42,7.15,7.15,0,0,1,6.8-1.83l3,.76L847,777.22v-5.34L839.42,770c-2.35-.59-3.34-.68-5.56.27l-.28.06,1.48-2.78a6.26,6.26,0,0,1,7.19-3.31l18.58,4.61h0a5.32,5.32,0,0,0,4.61-1l-.85,1.89-.37.85a6.48,6.48,0,0,1-7.49,3.67l-4.48-1.12v5.34l9.36,2.32a5,5,0,0,0,2.21,0,7,7,0,0,0,3-1.31,14.53,14.53,0,0,1-.79,2.36C864.86,784.85,862,789.26,856.44,788.13Z"></path><path class="cls-13" d="M850.54,799.46l-2.65-.66v5.62l-5.09-1.26v-5.62l-3.43-.85v5.62l-5.09-1.26V790l5.09,1.27,3.43.85,5.09,1.26,2.65.66,3.21.79a2.51,2.51,0,0,1,1.68,1.43h0a2.53,2.53,0,0,1,.2,1v9.13l-5.09-1.26Z"></path><path class="cls-13" d="M850.54,845.1l-2.65-.66v5.62l-5.09-1.26v-5.62l-3.43-.85V848l-5.09-1.26V835.61l5.09,1.27,3.43.85,5.09,1.26,2.65.66,3.21.79a2.51,2.51,0,0,1,1.68,1.43h0a2.53,2.53,0,0,1,.2,1V852l-5.09-1.26Z"></path><polygon class="cls-13" points="855.63 836.68 851.27 835.61 851.27 831.68 850.54 831.49 847.89 830.84 834.28 827.46 834.28 822 839.37 823.27 842.79 824.12 847.89 825.38 850.54 826.04 851.27 826.23 851.27 822.19 854.95 823.1 855.63 823.27 855.63 836.68"></polygon><polygon class="cls-13" points="839.37 817.74 834.28 816.47 834.28 805.4 839.37 806.66 842.79 807.51 847.89 808.78 850.54 809.43 854.95 810.53 855.63 810.7 855.63 816.15 850.54 814.88 847.89 814.23 839.37 812.12 839.37 817.74"></polygon><path class="cls-13" d="M854.38,871.13l-7-1.68A3.92,3.92,0,0,0,850,868c1.56-2.07.57-5.47-2.22-7.59s-6.34-2.16-7.91-.08-.58,5.47,2.22,7.59c.22.16.45.31.68.46l-8.13-1.94a8.6,8.6,0,0,1-1-7.6c1.81-4.83,8.15-6.92,14.17-4.66C853.65,856.34,859.22,863.51,854.38,871.13Z"></path><path class="cls-13" d="M824,792.74v-2.39l-1.14-.62v-2.15l6.91,4.28v2.3l-6.91.85V792.8Zm1.5-.07,2.48-.13-2.48-1.36Z"></path><path class="cls-13" d="M829.78,801.5v2.1l-4.12-1a4.42,4.42,0,0,1-1.15-.47,3.43,3.43,0,0,1-1-.83,3,3,0,0,1-.58-1,4.73,4.73,0,0,1-.23-1.53,10.45,10.45,0,0,1,.07-1.07,2.33,2.33,0,0,1,.28-.91,1.76,1.76,0,0,1,.6-.58,1.82,1.82,0,0,1,.8-.25,3.83,3.83,0,0,1,1.16.1l4.12,1v2.1l-4.21-1a1,1,0,0,0-.89.1.9.9,0,0,0-.32.78,1.44,1.44,0,0,0,.32.93,1.66,1.66,0,0,0,.89.53Z"></path><path class="cls-13" d="M829.78,804.52v6.41l-1.7-.43v-2.15l-5.21-1.29V805l5.21,1.29V804.1Z"></path><path class="cls-13" d="M826.32,810.43A4.73,4.73,0,0,1,829,812a4.31,4.31,0,0,1,.94,2.82,2.8,2.8,0,0,1-.93,2.4,3,3,0,0,1-2.59.27,5.46,5.46,0,0,1-2-.89,4.25,4.25,0,0,1-1.21-1.46,4.57,4.57,0,0,1-.43-2,3.79,3.79,0,0,1,.37-1.81,2,2,0,0,1,1.18-.94A3.65,3.65,0,0,1,826.32,810.43Zm0,2.11a2.06,2.06,0,0,0-1.5,0,1,1,0,0,0-.46.93,1.64,1.64,0,0,0,.45,1.16,3.25,3.25,0,0,0,1.61.77,1.94,1.94,0,0,0,1.42,0,1,1,0,0,0,.45-.94,1.64,1.64,0,0,0-.45-1.14A3,3,0,0,0,826.31,812.54Z"></path><path class="cls-13" d="M829.78,819.47v2.77l-4.2,0,4.2,2.1v2.77l-6.91-1.71V823.7l5.27,1.31-5.27-2.64v-1.56l5.27,0-5.27-1.31v-1.72Z"></path><path class="cls-13" d="M824,831.25v-2.39l-1.14-.62v-2.15l6.91,4.28v2.29l-6.91.85v-2.2Zm1.5-.07L828,831l-2.48-1.36Z"></path><path class="cls-13" d="M829.78,834.76v6.41l-1.7-.43V838.6l-5.21-1.29V835.2l5.21,1.29v-2.15Z"></path><path class="cls-13" d="M829.78,842.21v2.11l-6.91-1.72v-2.11Z"></path><path class="cls-13" d="M826.32,844.71a4.72,4.72,0,0,1,2.64,1.58,4.35,4.35,0,0,1,.94,2.83,2.79,2.79,0,0,1-.93,2.39,3,3,0,0,1-2.59.28,5.31,5.31,0,0,1-2-.9,4.07,4.07,0,0,1-1.21-1.46,4.56,4.56,0,0,1-.43-2,3.83,3.83,0,0,1,.37-1.82,2.06,2.06,0,0,1,1.18-.93A3.65,3.65,0,0,1,826.32,844.71Zm0,2.1a2.11,2.11,0,0,0-1.5,0,1,1,0,0,0-.46.93,1.66,1.66,0,0,0,.45,1.17,3.25,3.25,0,0,0,1.61.77,1.88,1.88,0,0,0,1.42,0,1,1,0,0,0,.45-.94,1.68,1.68,0,0,0-.45-1.14A3.09,3.09,0,0,0,826.31,846.81Z"></path><path class="cls-13" d="M829.78,853.78v2L826,857.37l3.82,1v2l-6.91-1.71v-2l3.8-1.61-3.8-.94v-2Z"></path><path class="cls-13" d="M1075.13,590.82v5.4H1069v5.9h6.11v5.42h-17.47v-5.42h7.07v-5.9h-7.07v-5.4Z"></path><path class="cls-13" d="M1075.13,609.9v16.42h-4.31v-5.51h-13.16v-5.4h13.16V609.9Z"></path><path class="cls-13" d="M1065.91,625.85v7.06h-3.76v-7.06Z"></path><path class="cls-13" d="M1057.66,635.31h17.47v9a13.28,13.28,0,0,1-.42,3.82,4.1,4.1,0,0,1-1.6,2.14,4.82,4.82,0,0,1-2.83.81,4.92,4.92,0,0,1-2.51-.62,5,5,0,0,1-1.71-1.71,6.35,6.35,0,0,1-.69-1.9,5.27,5.27,0,0,1-.64,1.41,5.38,5.38,0,0,1-.92.86,6.72,6.72,0,0,1-1.09.76l-5.06,2.62v-6.11l5.34-2.88a4.15,4.15,0,0,0,1.35-1,2.26,2.26,0,0,0,.4-1.32v-.48h-7.09Zm10.39,5.42V643a8.21,8.21,0,0,0,.24,1.43,1.43,1.43,0,0,0,.55.87,1.58,1.58,0,0,0,1,.34,1.62,1.62,0,0,0,1.3-.53,3.27,3.27,0,0,0,.46-2v-2.37Z"></path><path class="cls-13" d="M1060.54,665v-6.13l-2.88-.86v-5.51l17.47,6.57v5.89l-17.47,6.57v-5.66Zm3.78-1.12,6.28-1.93-6.28-1.91Z"></path><path class="cls-13" d="M1071.2,686.48l-.6-4.83A2.61,2.61,0,0,0,1072,681a1.6,1.6,0,0,0,.41-1.11,2,2,0,0,0-1.19-1.83,10.64,10.64,0,0,0-3.67-.71,6.11,6.11,0,0,1,1.3,1.79,4.9,4.9,0,0,1,.43,2.12,5.32,5.32,0,0,1-1.67,4,5.85,5.85,0,0,1-4.23,1.61,6.18,6.18,0,0,1-3.16-.82,5.31,5.31,0,0,1-2.17-2.26,8.15,8.15,0,0,1-.73-3.63,8.63,8.63,0,0,1,.89-4.21,6.27,6.27,0,0,1,2.86-2.53,12.06,12.06,0,0,1,5.19-.95q4.74,0,6.93,2a7.06,7.06,0,0,1,2.2,5.52,9.21,9.21,0,0,1-.48,3.3,5.05,5.05,0,0,1-1.41,2A6.19,6.19,0,0,1,1071.2,686.48Zm-7.78-8.94a3.23,3.23,0,0,0-2.23.72,2.26,2.26,0,0,0-.8,1.75,2,2,0,0,0,.73,1.6,3.21,3.21,0,0,0,2.17.64,3.34,3.34,0,0,0,2.25-.67,2.11,2.11,0,0,0,.77-1.66,2.19,2.19,0,0,0-.75-1.69A3,3,0,0,0,1063.42,677.54Z"></path><path class="cls-13" d="M1057.66,702.92V688.35a9.25,9.25,0,0,1,4.06,1.52,20.77,20.77,0,0,1,4.49,4.76,13.8,13.8,0,0,0,2.4,2.73,2.7,2.7,0,0,0,1.57.6,1.83,1.83,0,0,0,1.36-.59,2.23,2.23,0,0,0,0-3,3.54,3.54,0,0,0-2.06-.8l.39-4.86a7.66,7.66,0,0,1,3.2,1,4.84,4.84,0,0,1,1.77,2.15,9.77,9.77,0,0,1,.61,3.85,10.83,10.83,0,0,1-.58,4,4.82,4.82,0,0,1-1.8,2.24,4.68,4.68,0,0,1-2.71.82,5.52,5.52,0,0,1-3-.94,12.65,12.65,0,0,1-3.19-3.4c-.68-1-1.15-1.63-1.42-2s-.63-.72-1.06-1.16v7.58Z"></path><path class="cls-13" d="M994.28,598.78v5.4h-6.12v5.91h6.12v5.42H976.8v-5.42h7.07v-5.91H976.8v-5.4Z"></path><path class="cls-13" d="M994.28,619.12v13.35h-3.76v-7.93h-3v6.78h-3.53v-6.78H976.8v-5.42Z"></path><rect class="cls-21" x="972.23" y="590.82" width="26.61" height="45.86" rx="5.09"></rect><rect class="cls-2" x="844.81" y="274.55" width="19.52" height="261"></rect><rect class="cls-22" x="844.81" y="274.55" width="19.52" height="261"></rect><path d="M1154.66,1076.3v-16.49h5.68a13.59,13.59,0,0,1,2.94.24,5.55,5.55,0,0,1,2.42,1.18,6.66,6.66,0,0,1,2,2.81,11.11,11.11,0,0,1,.64,3.92,11.65,11.65,0,0,1-.43,3.33,8.12,8.12,0,0,1-1.13,2.4,6.09,6.09,0,0,1-1.5,1.5,6,6,0,0,1-2,.82,11.08,11.08,0,0,1-2.65.29Zm2.19-2h3.52a8.57,8.57,0,0,0,2.55-.3,3.67,3.67,0,0,0,1.48-.86,5.2,5.2,0,0,0,1.21-2.08,10.21,10.21,0,0,0,.44-3.18,7.75,7.75,0,0,0-.85-4,4.35,4.35,0,0,0-2.07-1.86,8.6,8.6,0,0,0-2.82-.34h-3.46Z"></path><path d="M1181,1063.85l-2,.15a3.83,3.83,0,0,0-.77-1.73,2.65,2.65,0,0,0-2-.86,2.78,2.78,0,0,0-1.7.54,4.58,4.58,0,0,0-1.51,2,10.68,10.68,0,0,0-.57,3.81,4.69,4.69,0,0,1,1.79-1.65,4.78,4.78,0,0,1,2.21-.54,4.61,4.61,0,0,1,3.45,1.49,5.34,5.34,0,0,1,1.42,3.85,6.3,6.3,0,0,1-.67,2.89,4.81,4.81,0,0,1-1.84,2,5,5,0,0,1-2.65.71,5.2,5.2,0,0,1-4.13-1.86c-1.06-1.25-1.59-3.29-1.59-6.14,0-3.19.59-5.5,1.76-6.95a5.08,5.08,0,0,1,4.15-1.89,4.69,4.69,0,0,1,3.19,1.09A4.6,4.6,0,0,1,1181,1063.85Zm-8.27,7.1a4.68,4.68,0,0,0,.45,2,3.28,3.28,0,0,0,1.24,1.45,3,3,0,0,0,1.68.5,2.84,2.84,0,0,0,2.2-1,4.05,4.05,0,0,0,.92-2.81,3.82,3.82,0,0,0-.91-2.7,3,3,0,0,0-2.29-1,3.14,3.14,0,0,0-2.33,1A3.55,3.55,0,0,0,1172.71,1071Z"></path><path d="M1154.66,1124.5V1108h5.68a13.59,13.59,0,0,1,2.94.24,5.55,5.55,0,0,1,2.42,1.18,6.63,6.63,0,0,1,2,2.82,11.06,11.06,0,0,1,.64,3.91,11.55,11.55,0,0,1-.43,3.33,8.12,8.12,0,0,1-1.13,2.4,5.93,5.93,0,0,1-1.5,1.5,6.22,6.22,0,0,1-2,.83,11.65,11.65,0,0,1-2.65.28Zm2.19-2h3.52a8.57,8.57,0,0,0,2.55-.3,3.56,3.56,0,0,0,1.48-.86,5.13,5.13,0,0,0,1.21-2.08,10.17,10.17,0,0,0,.44-3.18,7.71,7.71,0,0,0-.85-4,4.33,4.33,0,0,0-2.07-1.87,8.66,8.66,0,0,0-2.82-.33h-3.46Z"></path><path d="M1170.48,1120.18l2.12-.18a3.79,3.79,0,0,0,1.1,2.33,3,3,0,0,0,2.07.78,3.22,3.22,0,0,0,2.48-1.1,4.16,4.16,0,0,0,1-2.92,3.72,3.72,0,0,0-1-2.73,3.39,3.39,0,0,0-2.55-1,3.49,3.49,0,0,0-3,1.59l-1.9-.25,1.59-8.46h8.2v1.93h-6.58l-.89,4.43a5.37,5.37,0,0,1,3.12-1,5,5,0,0,1,3.64,1.49,5.24,5.24,0,0,1,1.49,3.85,6,6,0,0,1-1.31,3.87,5.23,5.23,0,0,1-4.33,2,5.33,5.33,0,0,1-3.67-1.26A4.88,4.88,0,0,1,1170.48,1120.18Z"></path><path d="M1154.66,1170.9v-16.48h5.68a13.72,13.72,0,0,1,2.94.23,5.66,5.66,0,0,1,2.42,1.18,6.76,6.76,0,0,1,2,2.82,11.08,11.08,0,0,1,.64,3.92,11.65,11.65,0,0,1-.43,3.33,8.12,8.12,0,0,1-1.13,2.4,5.48,5.48,0,0,1-3.47,2.32,11.11,11.11,0,0,1-2.65.28Zm2.19-1.94h3.52a8.21,8.21,0,0,0,2.55-.31,3.55,3.55,0,0,0,1.48-.85,5.18,5.18,0,0,0,1.21-2.09,10.1,10.1,0,0,0,.44-3.17,7.75,7.75,0,0,0-.85-4,4.25,4.25,0,0,0-2.07-1.86,8.33,8.33,0,0,0-2.82-.34h-3.46Z"></path><path d="M1177,1170.9V1167h-7.16v-1.86l7.53-10.68H1179v10.68h2.23V1167H1179v3.94Zm0-5.8v-7.43l-5.17,7.43Z"></path><path d="M1154.66,1220.9v-16.48h5.68a14.41,14.41,0,0,1,2.94.23,5.66,5.66,0,0,1,2.42,1.18,6.76,6.76,0,0,1,2,2.82,11.08,11.08,0,0,1,.64,3.92,11.65,11.65,0,0,1-.43,3.33,8.12,8.12,0,0,1-1.13,2.4,6.27,6.27,0,0,1-1.5,1.5,6,6,0,0,1-2,.82,11.11,11.11,0,0,1-2.65.28Zm2.19-1.94h3.52a8.21,8.21,0,0,0,2.55-.31,3.55,3.55,0,0,0,1.48-.85,5.18,5.18,0,0,0,1.21-2.09,10.1,10.1,0,0,0,.44-3.17,7.75,7.75,0,0,0-.85-4,4.25,4.25,0,0,0-2.07-1.86,8.33,8.33,0,0,0-2.82-.34h-3.46Z"></path><path d="M1170.49,1216.55l2-.27a4.44,4.44,0,0,0,1.19,2.48,2.92,2.92,0,0,0,2,.76,3.26,3.26,0,0,0,2.41-1,3.33,3.33,0,0,0,1-2.45,3.13,3.13,0,0,0-.91-2.3,3.17,3.17,0,0,0-2.32-.91,5.88,5.88,0,0,0-1.43.23l.23-1.78a2,2,0,0,0,.32,0,4.18,4.18,0,0,0,2.33-.67,2.3,2.3,0,0,0,1-2.08,2.49,2.49,0,0,0-.75-1.85,3,3,0,0,0-3.91,0,3.67,3.67,0,0,0-1,2.22l-2-.36a5.2,5.2,0,0,1,1.69-3.15,4.85,4.85,0,0,1,3.27-1.12,5.37,5.37,0,0,1,2.49.58,4.15,4.15,0,0,1,1.73,1.58,4.05,4.05,0,0,1,.6,2.12,3.5,3.5,0,0,1-.57,1.95,1.51,1.51,0,1,0,.57,2.79,4.27,4.27,0,0,1,.81,2.66,4.86,4.86,0,0,1-1.57,3.66,5.51,5.51,0,0,1-4,1.51,5.21,5.21,0,0,1-3.61-1.3A5,5,0,0,1,1170.49,1216.55Z"></path><path d="M721.91,1076.3v-16.49h5.68a13.66,13.66,0,0,1,2.94.24,5.55,5.55,0,0,1,2.42,1.18,6.66,6.66,0,0,1,1.95,2.81,11.11,11.11,0,0,1,.64,3.92,11.65,11.65,0,0,1-.43,3.33,8.12,8.12,0,0,1-1.13,2.4,6.09,6.09,0,0,1-1.5,1.5,6,6,0,0,1-2,.82,11.08,11.08,0,0,1-2.65.29Zm2.19-2h3.52a8.57,8.57,0,0,0,2.55-.3,3.67,3.67,0,0,0,1.48-.86,5.2,5.2,0,0,0,1.21-2.08,10.23,10.23,0,0,0,.43-3.18,7.75,7.75,0,0,0-.84-4,4.35,4.35,0,0,0-2.07-1.86,8.6,8.6,0,0,0-2.82-.34H724.1Z"></path><path d="M745.35,1076.3h-2v-12.9a10.62,10.62,0,0,1-1.92,1.39,13.81,13.81,0,0,1-2.13,1v-2a12.46,12.46,0,0,0,3-1.93,8,8,0,0,0,1.8-2.21h1.3Z"></path><path d="M750.54,1072l2.12-.18a3.79,3.79,0,0,0,1.1,2.33,3,3,0,0,0,2.07.78,3.22,3.22,0,0,0,2.48-1.1,4.16,4.16,0,0,0,1-2.92,3.8,3.8,0,0,0-1-2.74,3.43,3.43,0,0,0-2.55-1,3.53,3.53,0,0,0-1.77.45,3.41,3.41,0,0,0-1.23,1.15l-1.91-.25,1.6-8.47h8.2V1062h-6.58l-.89,4.43a5.38,5.38,0,0,1,3.12-1,4.92,4.92,0,0,1,3.64,1.5,5.24,5.24,0,0,1,1.49,3.85,6,6,0,0,1-1.31,3.86,5.22,5.22,0,0,1-4.33,2,5.33,5.33,0,0,1-3.67-1.26A4.9,4.9,0,0,1,750.54,1072Z"></path><path d="M721.91,1124.5V1108h5.68a13.66,13.66,0,0,1,2.94.24,5.55,5.55,0,0,1,2.42,1.18,6.63,6.63,0,0,1,1.95,2.82,11.06,11.06,0,0,1,.64,3.91,11.55,11.55,0,0,1-.43,3.33,8.12,8.12,0,0,1-1.13,2.4,5.93,5.93,0,0,1-1.5,1.5,6.22,6.22,0,0,1-2,.83,11.65,11.65,0,0,1-2.65.28Zm2.19-2h3.52a8.57,8.57,0,0,0,2.55-.3,3.56,3.56,0,0,0,1.48-.86,5.13,5.13,0,0,0,1.21-2.08,10.19,10.19,0,0,0,.43-3.18,7.71,7.71,0,0,0-.84-4,4.33,4.33,0,0,0-2.07-1.87,8.66,8.66,0,0,0-2.82-.33H724.1Z"></path><path d="M745.35,1124.5h-2v-12.9a10.62,10.62,0,0,1-1.92,1.39,13,13,0,0,1-2.13,1v-2a12.16,12.16,0,0,0,3-1.93,7.81,7.81,0,0,0,1.8-2.21h1.3Z"></path><path d="M753.65,1115.56a3.86,3.86,0,0,1-1.87-1.32,3.47,3.47,0,0,1-.6-2,4,4,0,0,1,1.29-3,5.43,5.43,0,0,1,6.92,0,4.06,4.06,0,0,1,1.31,3,3.38,3.38,0,0,1-.6,2,3.84,3.84,0,0,1-1.83,1.31,4.21,4.21,0,0,1,3.11,4.23,4.72,4.72,0,0,1-1.5,3.55,6.08,6.08,0,0,1-7.87,0,4.78,4.78,0,0,1-1.5-3.6,4.31,4.31,0,0,1,.82-2.69A4,4,0,0,1,753.65,1115.56Zm-1.06,4.18a3.72,3.72,0,0,0,.41,1.68,2.94,2.94,0,0,0,1.22,1.25,3.53,3.53,0,0,0,1.75.44,3.27,3.27,0,0,0,2.39-.93,3.19,3.19,0,0,0,.95-2.37,3.25,3.25,0,0,0-1-2.42,3.31,3.31,0,0,0-2.43-1,3.23,3.23,0,0,0-3.31,3.31Zm.66-7.61A2.58,2.58,0,0,0,754,1114a2.68,2.68,0,0,0,2,.74,2.6,2.6,0,0,0,1.91-.73,2.46,2.46,0,0,0,.75-1.81,2.53,2.53,0,0,0-.77-1.87,2.6,2.6,0,0,0-1.92-.76,2.66,2.66,0,0,0-1.92.74A2.4,2.4,0,0,0,753.25,1112.13Z"></path><path d="M721.91,1170.9v-16.48h5.68a13.78,13.78,0,0,1,2.94.23,5.66,5.66,0,0,1,2.42,1.18,6.76,6.76,0,0,1,1.95,2.82,11.08,11.08,0,0,1,.64,3.92,11.65,11.65,0,0,1-.43,3.33,8.12,8.12,0,0,1-1.13,2.4,5.48,5.48,0,0,1-3.47,2.32,11.11,11.11,0,0,1-2.65.28Zm2.19-1.94h3.52a8.21,8.21,0,0,0,2.55-.31,3.55,3.55,0,0,0,1.48-.85,5.18,5.18,0,0,0,1.21-2.09,10.12,10.12,0,0,0,.43-3.17,7.75,7.75,0,0,0-.84-4,4.25,4.25,0,0,0-2.07-1.86,8.33,8.33,0,0,0-2.82-.34H724.1Z"></path><path d="M745.35,1170.9h-2V1158a10.62,10.62,0,0,1-1.92,1.4,13.67,13.67,0,0,1-2.13,1v-2a12.19,12.19,0,0,0,3-1.94,7.79,7.79,0,0,0,1.8-2.2h1.3Z"></path><path d="M750.84,1167.09l1.94-.18a3.36,3.36,0,0,0,1,2,2.6,2.6,0,0,0,1.79.62,3,3,0,0,0,1.63-.43,3.42,3.42,0,0,0,1.16-1.14,6.69,6.69,0,0,0,.75-1.93,10.25,10.25,0,0,0,.3-2.47c0-.09,0-.23,0-.41a4.56,4.56,0,0,1-1.66,1.57,4.51,4.51,0,0,1-2.27.6,4.61,4.61,0,0,1-3.47-1.48,5.46,5.46,0,0,1-1.41-3.91,5.58,5.58,0,0,1,1.47-4,5,5,0,0,1,3.71-1.53,5.28,5.28,0,0,1,5,3.33,12,12,0,0,1,.7,4.64,14.87,14.87,0,0,1-.69,5,6,6,0,0,1-2,2.86,5.28,5.28,0,0,1-3.18,1,4.34,4.34,0,0,1-4.63-4.09Zm8.29-7.28a3.94,3.94,0,0,0-.93-2.76,2.92,2.92,0,0,0-2.23-1,3.06,3.06,0,0,0-2.35,1.11,4,4,0,0,0-1,2.85,3.5,3.5,0,0,0,1,2.56,3.11,3.11,0,0,0,2.34,1,3,3,0,0,0,2.31-1A3.83,3.83,0,0,0,759.13,1159.81Z"></path><path d="M721.91,1220.9v-16.48h5.68a14.47,14.47,0,0,1,2.94.23,5.66,5.66,0,0,1,2.42,1.18,6.76,6.76,0,0,1,1.95,2.82,11.08,11.08,0,0,1,.64,3.92,11.65,11.65,0,0,1-.43,3.33,8.12,8.12,0,0,1-1.13,2.4,6.27,6.27,0,0,1-1.5,1.5,6,6,0,0,1-2,.82,11.11,11.11,0,0,1-2.65.28Zm2.19-1.94h3.52a8.21,8.21,0,0,0,2.55-.31,3.55,3.55,0,0,0,1.48-.85,5.18,5.18,0,0,0,1.21-2.09,10.12,10.12,0,0,0,.43-3.17,7.75,7.75,0,0,0-.84-4,4.25,4.25,0,0,0-2.07-1.86,8.33,8.33,0,0,0-2.82-.34H724.1Z"></path><path d="M748.36,1219v1.94H737.47a3.52,3.52,0,0,1,.23-1.4,7.39,7.39,0,0,1,1.34-2.2,21.36,21.36,0,0,1,2.64-2.49,22.64,22.64,0,0,0,3.64-3.49,4.18,4.18,0,0,0,.94-2.44,2.72,2.72,0,0,0-.86-2,3.09,3.09,0,0,0-2.24-.82,3.16,3.16,0,0,0-2.34.87,3.33,3.33,0,0,0-.89,2.43l-2.08-.21a5.11,5.11,0,0,1,1.61-3.55,5.5,5.5,0,0,1,3.74-1.22,5.22,5.22,0,0,1,3.76,1.32,4.31,4.31,0,0,1,1.38,3.26,4.92,4.92,0,0,1-.4,1.94,7.37,7.37,0,0,1-1.35,2,30.62,30.62,0,0,1-3.12,2.91q-1.82,1.53-2.34,2.07a6.79,6.79,0,0,0-.85,1.1Z"></path><path d="M750.54,1212.77a15,15,0,0,1,.6-4.7,5.81,5.81,0,0,1,1.78-2.75,4.57,4.57,0,0,1,3-1,4.94,4.94,0,0,1,2.33.53,4.42,4.42,0,0,1,1.65,1.54,8,8,0,0,1,1,2.46,16,16,0,0,1,.38,3.89,15.06,15.06,0,0,1-.6,4.69,5.86,5.86,0,0,1-1.78,2.75,5,5,0,0,1-6.74-.73C751.08,1218.1,750.54,1215.87,750.54,1212.77Zm2.08,0c0,2.71.31,4.51,1,5.41a2.72,2.72,0,0,0,4.69,0q.94-1.35,1-5.4t-1-5.41a2.84,2.84,0,0,0-2.37-1.33,2.6,2.6,0,0,0-2.23,1.18C753,1208.21,752.62,1210.07,752.62,1212.77Z"></path><path d="M721.91,1269.42v-16.49h5.68a13.66,13.66,0,0,1,2.94.24,5.55,5.55,0,0,1,2.42,1.18,6.66,6.66,0,0,1,1.95,2.81,11.11,11.11,0,0,1,.64,3.92,11.55,11.55,0,0,1-.43,3.33,8.12,8.12,0,0,1-1.13,2.4,5.93,5.93,0,0,1-1.5,1.5,6.22,6.22,0,0,1-2,.83,11.65,11.65,0,0,1-2.65.28Zm2.19-2h3.52a8.57,8.57,0,0,0,2.55-.3,3.56,3.56,0,0,0,1.48-.86,5.13,5.13,0,0,0,1.21-2.08,10.23,10.23,0,0,0,.43-3.18,7.78,7.78,0,0,0-.84-4,4.35,4.35,0,0,0-2.07-1.86,8.66,8.66,0,0,0-2.82-.33H724.1Z"></path><path d="M748.36,1267.47v2H737.47a3.54,3.54,0,0,1,.23-1.41,7.35,7.35,0,0,1,1.34-2.19,21.33,21.33,0,0,1,2.64-2.5,22.21,22.21,0,0,0,3.64-3.49,4.17,4.17,0,0,0,.94-2.43,2.74,2.74,0,0,0-.86-2,3.09,3.09,0,0,0-2.24-.82,3.13,3.13,0,0,0-2.34.88,3.29,3.29,0,0,0-.89,2.42l-2.08-.21a5.13,5.13,0,0,1,1.61-3.55,5.5,5.5,0,0,1,3.74-1.22,5.22,5.22,0,0,1,3.76,1.32,4.32,4.32,0,0,1,1.38,3.26,5,5,0,0,1-.4,2,7.68,7.68,0,0,1-1.35,2,32,32,0,0,1-3.12,2.9c-1.21,1-2,1.71-2.34,2.08a6.33,6.33,0,0,0-.85,1.09Z"></path><path d="M758.16,1269.42h-2v-12.9a10.62,10.62,0,0,1-1.92,1.39,13,13,0,0,1-2.13,1v-2a12.46,12.46,0,0,0,3-1.93,7.81,7.81,0,0,0,1.8-2.21h1.3Z"></path><path d="M726.22,1311.75l2-.27a4.44,4.44,0,0,0,1.18,2.48,2.92,2.92,0,0,0,2,.76,3.28,3.28,0,0,0,2.42-1,3.36,3.36,0,0,0,1-2.45,3.09,3.09,0,0,0-.91-2.3,3.13,3.13,0,0,0-2.32-.91,5.88,5.88,0,0,0-1.43.23l.23-1.78a2,2,0,0,0,.32,0,4.15,4.15,0,0,0,2.33-.67,2.32,2.32,0,0,0,1-2.08,2.46,2.46,0,0,0-.76-1.85,2.7,2.7,0,0,0-1.94-.73,2.77,2.77,0,0,0-2,.74,3.78,3.78,0,0,0-1,2.23l-2-.36a5.17,5.17,0,0,1,1.69-3.15,4.86,4.86,0,0,1,3.27-1.12,5.37,5.37,0,0,1,2.49.58,4.17,4.17,0,0,1,1.74,1.58,4,4,0,0,1,.6,2.12,3.46,3.46,0,0,1-.58,2,1.51,1.51,0,1,0,.58,2.79,4.27,4.27,0,0,1,.81,2.66,4.87,4.87,0,0,1-1.58,3.66,5.53,5.53,0,0,1-4,1.5,5.16,5.16,0,0,1-3.6-1.29A5,5,0,0,1,726.22,1311.75Z"></path><path d="M740.11,1316.1v-2.3h2.31v2.3a4.07,4.07,0,0,1-.45,2.05,2.93,2.93,0,0,1-1.43,1.21l-.56-.86a2,2,0,0,0,.94-.83,3.66,3.66,0,0,0,.34-1.57Z"></path><path d="M745.43,1311.75l2-.27a4.51,4.51,0,0,0,1.19,2.48,2.92,2.92,0,0,0,2,.76,3.26,3.26,0,0,0,2.41-1,3.33,3.33,0,0,0,1-2.45,3.11,3.11,0,0,0-3.23-3.21,5.88,5.88,0,0,0-1.43.23l.23-1.78a2,2,0,0,0,.32,0,4.18,4.18,0,0,0,2.33-.67,2.32,2.32,0,0,0,1-2.08,2.5,2.5,0,0,0-.76-1.85,2.7,2.7,0,0,0-1.94-.73,2.77,2.77,0,0,0-2,.74,3.72,3.72,0,0,0-1,2.23l-2-.36a5.17,5.17,0,0,1,1.69-3.15,4.86,4.86,0,0,1,3.27-1.12,5.37,5.37,0,0,1,2.49.58,4.15,4.15,0,0,1,1.73,1.58,4,4,0,0,1,.61,2.12,3.46,3.46,0,0,1-.58,2,3.9,3.9,0,0,1-1.7,1.39,3.85,3.85,0,0,1,2.28,1.4,4.27,4.27,0,0,1,.81,2.66,4.87,4.87,0,0,1-1.58,3.66,5.55,5.55,0,0,1-4,1.5,5.16,5.16,0,0,1-3.6-1.29A5,5,0,0,1,745.43,1311.75Z"></path><path d="M720,1362.79V1346.3h7.31a9.87,9.87,0,0,1,3.35.44,3.69,3.69,0,0,1,1.84,1.57,4.75,4.75,0,0,1,.68,2.49,4.19,4.19,0,0,1-1.13,3,5.79,5.79,0,0,1-3.51,1.53,5.52,5.52,0,0,1,1.31.82,11,11,0,0,1,1.81,2.19l2.87,4.49h-2.74l-2.18-3.43c-.64-1-1.17-1.75-1.58-2.28A4.91,4.91,0,0,0,727,1356a3.34,3.34,0,0,0-1-.44,6.78,6.78,0,0,0-1.22-.08h-2.53v7.33Zm2.18-9.21h4.69a7.18,7.18,0,0,0,2.34-.31,2.52,2.52,0,0,0,1.28-1,2.64,2.64,0,0,0,.44-1.48,2.47,2.47,0,0,0-.85-1.93,4,4,0,0,0-2.68-.75h-5.22Z"></path><path d="M735.9,1357.49l2.06-.18a4.44,4.44,0,0,0,.68,2,3.65,3.65,0,0,0,1.65,1.28,6.26,6.26,0,0,0,2.54.49,6,6,0,0,0,2.2-.37,3.06,3.06,0,0,0,1.42-1,2.37,2.37,0,0,0,.47-1.41,2.11,2.11,0,0,0-.45-1.35,3.31,3.31,0,0,0-1.49-1,29,29,0,0,0-2.93-.8,15.42,15.42,0,0,1-3.18-1,4.33,4.33,0,0,1-1.76-1.54,3.71,3.71,0,0,1-.58-2,4.12,4.12,0,0,1,.71-2.33,4.36,4.36,0,0,1,2.07-1.65,7.89,7.89,0,0,1,3-.56,8.13,8.13,0,0,1,3.23.59,4.59,4.59,0,0,1,2.16,1.74,5,5,0,0,1,.81,2.59l-2.09.16a3.4,3.4,0,0,0-1.15-2.36,4.42,4.42,0,0,0-2.87-.8,4.55,4.55,0,0,0-2.88.73,2.15,2.15,0,0,0-.91,1.75,1.86,1.86,0,0,0,.64,1.46,8.76,8.76,0,0,0,3.29,1.17,21.79,21.79,0,0,1,3.65,1,5.09,5.09,0,0,1,2.13,1.69,4.12,4.12,0,0,1,.68,2.34,4.5,4.5,0,0,1-.75,2.48,4.93,4.93,0,0,1-2.17,1.81,7.55,7.55,0,0,1-3.17.65,9.52,9.52,0,0,1-3.75-.65,5.3,5.3,0,0,1-2.38-2A5.58,5.58,0,0,1,735.9,1357.49Z"></path><path d="M756.2,1362.79v-14.54h-5.43v-2h13.06v2h-5.45v14.54Z"></path><path d="M725.16,1403v-1.93h7v6.12a12.68,12.68,0,0,1-3.32,1.93,9.86,9.86,0,0,1-3.51.64,9.26,9.26,0,0,1-4.41-1,6.77,6.77,0,0,1-3-3,9.49,9.49,0,0,1-1-4.39,10.22,10.22,0,0,1,1-4.5,6.78,6.78,0,0,1,2.9-3.1,9.13,9.13,0,0,1,4.35-1,8.82,8.82,0,0,1,3.24.58,5.42,5.42,0,0,1,2.26,1.62,7.07,7.07,0,0,1,1.25,2.69l-2,.54a5.93,5.93,0,0,0-.92-2,3.82,3.82,0,0,0-1.57-1.16,5.79,5.79,0,0,0-2.28-.43,6.54,6.54,0,0,0-2.58.46,4.75,4.75,0,0,0-1.76,1.19,5.57,5.57,0,0,0-1,1.63,8.65,8.65,0,0,0-.63,3.32,8,8,0,0,0,.76,3.69,4.81,4.81,0,0,0,2.21,2.2,6.8,6.8,0,0,0,3.08.72,7.37,7.37,0,0,0,2.76-.54,6.84,6.84,0,0,0,2-1.17V1403Z"></path><path d="M735.34,1409.47V1393h2.24l8.66,13v-13h2.09v16.49h-2.24l-8.66-13v13Z"></path><path d="M752,1409.47V1393h5.68a13.49,13.49,0,0,1,2.93.24,5.6,5.6,0,0,1,2.42,1.18,6.69,6.69,0,0,1,2,2.82,11.07,11.07,0,0,1,.65,3.92,11.63,11.63,0,0,1-.44,3.33,8.11,8.11,0,0,1-1.13,2.4,5.73,5.73,0,0,1-1.5,1.49,6,6,0,0,1-2,.83,11.17,11.17,0,0,1-2.65.28Zm2.18-1.94h3.52a8.6,8.6,0,0,0,2.56-.31,3.72,3.72,0,0,0,1.48-.85,5.37,5.37,0,0,0,1.21-2.09,10.45,10.45,0,0,0,.43-3.18,7.61,7.61,0,0,0-.85-4,4.24,4.24,0,0,0-2.06-1.86,8.44,8.44,0,0,0-2.83-.34h-3.46Z"></path><path d="M716.63,1456.15v-16.48h7.31a10,10,0,0,1,3.36.44,3.71,3.71,0,0,1,1.83,1.57,4.66,4.66,0,0,1,.68,2.49,4.11,4.11,0,0,1-1.13,2.95,5.68,5.68,0,0,1-3.51,1.53,5.4,5.4,0,0,1,1.32.83,11.35,11.35,0,0,1,1.81,2.19l2.86,4.48h-2.74l-2.18-3.42c-.64-1-1.16-1.75-1.58-2.28a5.12,5.12,0,0,0-1.1-1.1,3.25,3.25,0,0,0-1-.44,6.73,6.73,0,0,0-1.21-.08h-2.53v7.32Zm2.19-9.21h4.69a7.19,7.19,0,0,0,2.33-.3,2.55,2.55,0,0,0,1.29-1,2.71,2.71,0,0,0,.43-1.48,2.49,2.49,0,0,0-.84-1.93,4,4,0,0,0-2.69-.75h-5.21Z"></path><path d="M731.42,1456.15l6.33-16.48h2.35l6.75,16.48h-2.48l-1.93-5h-6.89l-1.81,5Zm4.76-6.76h5.59l-1.72-4.57q-.79-2.08-1.17-3.42a21.16,21.16,0,0,1-.89,3.15Z"></path><path d="M750.62,1456.15l-4.37-16.48h2.23l2.51,10.81c.27,1.13.5,2.25.7,3.37.42-1.76.67-2.78.74-3l3.14-11.13h2.63l2.36,8.34a44.3,44.3,0,0,1,1.28,5.84c.21-1,.49-2.24.82-3.59l2.59-10.59h2.19l-4.52,16.48h-2.1l-3.48-12.56c-.29-1-.46-1.69-.51-1.93-.17.76-.34,1.4-.49,1.93l-3.49,12.56Z"></path><path d="M721.91,931V914.54h5.68a13.66,13.66,0,0,1,2.94.24A5.66,5.66,0,0,1,733,916a6.69,6.69,0,0,1,1.95,2.82,11.08,11.08,0,0,1,.64,3.92,11.65,11.65,0,0,1-.43,3.33,8.37,8.37,0,0,1-1.13,2.4,5.58,5.58,0,0,1-3.47,2.32,11.11,11.11,0,0,1-2.65.28Zm2.19-1.95h3.52a8.57,8.57,0,0,0,2.55-.3,3.66,3.66,0,0,0,1.48-.85,5.25,5.25,0,0,0,1.21-2.09,10.15,10.15,0,0,0,.43-3.18,7.71,7.71,0,0,0-.84-4,4.25,4.25,0,0,0-2.07-1.86,8.33,8.33,0,0,0-2.82-.34H724.1Z"></path><path d="M745.35,931h-2v-12.9a10.62,10.62,0,0,1-1.92,1.4,13.67,13.67,0,0,1-2.13,1v-2a12.16,12.16,0,0,0,3-1.93,7.93,7.93,0,0,0,1.8-2.2h1.3Z"></path><path d="M750.54,922.9a15.15,15.15,0,0,1,.6-4.71,5.86,5.86,0,0,1,1.78-2.75,4.62,4.62,0,0,1,3-1,4.83,4.83,0,0,1,2.33.53,4.42,4.42,0,0,1,1.65,1.54,8,8,0,0,1,1,2.45,16.18,16.18,0,0,1,.38,3.9,15,15,0,0,1-.6,4.68,5.89,5.89,0,0,1-1.78,2.76,4.56,4.56,0,0,1-3,1,4.5,4.5,0,0,1-3.74-1.71Q750.54,927.55,750.54,922.9Zm2.08,0c0,2.71.31,4.51,1,5.4a2.79,2.79,0,0,0,2.34,1.35,2.81,2.81,0,0,0,2.35-1.35q.94-1.35,1-5.4c0-2.71-.32-4.52-1-5.41a2.85,2.85,0,0,0-2.37-1.34,2.62,2.62,0,0,0-2.23,1.18C753,918.34,752.62,920.19,752.62,922.9Z"></path><path d="M721.91,977.44V961h5.68a14.47,14.47,0,0,1,2.94.23,5.67,5.67,0,0,1,2.42,1.19,6.66,6.66,0,0,1,1.95,2.81,11.11,11.11,0,0,1,.64,3.92,11.65,11.65,0,0,1-.43,3.33,8.12,8.12,0,0,1-1.13,2.4,6.09,6.09,0,0,1-1.5,1.5,6,6,0,0,1-2,.82,11.08,11.08,0,0,1-2.65.29Zm2.19-2h3.52a8.57,8.57,0,0,0,2.55-.3,3.67,3.67,0,0,0,1.48-.86,5.2,5.2,0,0,0,1.21-2.08,10.23,10.23,0,0,0,.43-3.18,7.75,7.75,0,0,0-.84-4,4.35,4.35,0,0,0-2.07-1.86,8.6,8.6,0,0,0-2.82-.34H724.1Z"></path><path d="M745.35,977.44h-2v-12.9a10.62,10.62,0,0,1-1.92,1.39,13.81,13.81,0,0,1-2.13,1.05v-2a12.46,12.46,0,0,0,3-1.93,8,8,0,0,0,1.8-2.21h1.3Z"></path><path d="M761,965l-2,.15a3.83,3.83,0,0,0-.77-1.73,2.66,2.66,0,0,0-2-.86,2.78,2.78,0,0,0-1.7.54,4.58,4.58,0,0,0-1.51,2,10.46,10.46,0,0,0-.57,3.81,4.69,4.69,0,0,1,1.79-1.65,4.78,4.78,0,0,1,2.21-.54,4.61,4.61,0,0,1,3.45,1.49,5.34,5.34,0,0,1,1.42,3.85,6.3,6.3,0,0,1-.67,2.89,4.81,4.81,0,0,1-1.84,2,5,5,0,0,1-2.65.71,5.2,5.2,0,0,1-4.13-1.86c-1.06-1.25-1.6-3.29-1.6-6.14,0-3.19.59-5.5,1.77-7a5.08,5.08,0,0,1,4.15-1.89A4.41,4.41,0,0,1,761,965Zm-8.27,7.1a4.61,4.61,0,0,0,.45,2,3.26,3.26,0,0,0,1.24,1.46,3,3,0,0,0,1.68.5,2.84,2.84,0,0,0,2.2-1,4.1,4.1,0,0,0,.92-2.81,3.82,3.82,0,0,0-.91-2.7,3,3,0,0,0-2.29-1,3.14,3.14,0,0,0-2.33,1A3.55,3.55,0,0,0,752.77,972.09Z"></path><path d="M721.91,1027.44V1011h5.68a13.66,13.66,0,0,1,2.94.24,5.55,5.55,0,0,1,2.42,1.18,6.66,6.66,0,0,1,1.95,2.81,11.11,11.11,0,0,1,.64,3.92,11.65,11.65,0,0,1-.43,3.33,8.12,8.12,0,0,1-1.13,2.4,6.09,6.09,0,0,1-1.5,1.5,6,6,0,0,1-2,.82,11.08,11.08,0,0,1-2.65.29Zm2.19-2h3.52a8.57,8.57,0,0,0,2.55-.3,3.67,3.67,0,0,0,1.48-.86,5.2,5.2,0,0,0,1.21-2.08,10.23,10.23,0,0,0,.43-3.18,7.75,7.75,0,0,0-.84-4,4.35,4.35,0,0,0-2.07-1.86,8.6,8.6,0,0,0-2.82-.34H724.1Z"></path><path d="M745.35,1027.44h-2v-12.9a10.62,10.62,0,0,1-1.92,1.39,13.81,13.81,0,0,1-2.13,1.05v-2a12.46,12.46,0,0,0,3-1.93,8,8,0,0,0,1.8-2.21h1.3Z"></path><path d="M757,1027.44v-4h-7.15v-1.86l7.52-10.68h1.66v10.68h2.22v1.86h-2.22v4Zm0-5.81v-7.43l-5.16,7.43Z"></path><path d="M1154.66,1267.59V1251.1h5.68a13.59,13.59,0,0,1,2.94.24,5.55,5.55,0,0,1,2.42,1.18,6.63,6.63,0,0,1,2,2.82,11.06,11.06,0,0,1,.64,3.91,11.55,11.55,0,0,1-.43,3.33,8.12,8.12,0,0,1-1.13,2.4,5.93,5.93,0,0,1-1.5,1.5,6.22,6.22,0,0,1-2,.83,11.65,11.65,0,0,1-2.65.28Zm2.19-1.95h3.52a8.57,8.57,0,0,0,2.55-.3,3.56,3.56,0,0,0,1.48-.86,5.13,5.13,0,0,0,1.21-2.08,10.17,10.17,0,0,0,.44-3.18,7.71,7.71,0,0,0-.85-4,4.33,4.33,0,0,0-2.07-1.87,8.66,8.66,0,0,0-2.82-.33h-3.46Z"></path><path d="M1181.12,1265.64v1.95h-10.9a3.54,3.54,0,0,1,.23-1.41,7.57,7.57,0,0,1,1.34-2.19,20.82,20.82,0,0,1,2.65-2.5,22.46,22.46,0,0,0,3.63-3.49,4.17,4.17,0,0,0,.94-2.43,2.67,2.67,0,0,0-.86-2,3.06,3.06,0,0,0-2.24-.83,3.13,3.13,0,0,0-2.34.88,3.29,3.29,0,0,0-.89,2.43l-2.08-.22a5.13,5.13,0,0,1,1.61-3.55A5.5,5.5,0,0,1,1176,1251a5.21,5.21,0,0,1,3.76,1.32,4.32,4.32,0,0,1,1.38,3.26,5,5,0,0,1-.4,2,7.68,7.68,0,0,1-1.35,2,32,32,0,0,1-3.12,2.9c-1.21,1-2,1.71-2.34,2.08a6.74,6.74,0,0,0-.85,1.09Z"></path><path d="M1151.51,1310.84v-1.93h7V1315a12.1,12.1,0,0,1-3.31,1.93,9.87,9.87,0,0,1-3.51.65,9.45,9.45,0,0,1-4.42-1,6.85,6.85,0,0,1-3-3,9.42,9.42,0,0,1-1-4.4,10.22,10.22,0,0,1,1-4.49,6.73,6.73,0,0,1,2.9-3.1,9.13,9.13,0,0,1,4.35-1,8.53,8.53,0,0,1,3.23.58,5.37,5.37,0,0,1,2.27,1.61,7.36,7.36,0,0,1,1.25,2.7l-2,.54a6.31,6.31,0,0,0-.92-2,3.84,3.84,0,0,0-1.58-1.15,5.74,5.74,0,0,0-2.27-.43,6.78,6.78,0,0,0-2.59.45,5.08,5.08,0,0,0-1.76,1.2,6,6,0,0,0-1,1.63,8.65,8.65,0,0,0-.63,3.32,8.13,8.13,0,0,0,.76,3.69,4.9,4.9,0,0,0,2.21,2.2,6.86,6.86,0,0,0,3.08.72,8,8,0,0,0,4.82-1.71v-3.07Z"></path><path d="M1161.69,1317.31v-16.49h2.24l8.65,13v-13h2.1v16.49h-2.24l-8.66-13v13Z"></path><path d="M1178.34,1317.31v-16.49H1184a13.66,13.66,0,0,1,2.94.24,5.66,5.66,0,0,1,2.42,1.18,6.63,6.63,0,0,1,1.95,2.82,11.08,11.08,0,0,1,.64,3.92,11.53,11.53,0,0,1-.43,3.32,8.31,8.31,0,0,1-1.13,2.41,6,6,0,0,1-1.5,1.49,6.22,6.22,0,0,1-2,.83,11.65,11.65,0,0,1-2.65.28Zm2.18-2H1184a8.64,8.64,0,0,0,2.56-.3,3.62,3.62,0,0,0,1.48-.86,5.13,5.13,0,0,0,1.21-2.08,10.15,10.15,0,0,0,.43-3.18,7.71,7.71,0,0,0-.84-4,4.33,4.33,0,0,0-2.07-1.87,8.66,8.66,0,0,0-2.82-.33h-3.47Z"></path><path d="M1151.51,1356.32v-1.93h7v6.11a12.1,12.1,0,0,1-3.31,1.93,9.87,9.87,0,0,1-3.51.65,9.45,9.45,0,0,1-4.42-1,6.9,6.9,0,0,1-3-3,9.42,9.42,0,0,1-1-4.4,10.22,10.22,0,0,1,1-4.49,6.73,6.73,0,0,1,2.9-3.1,9.13,9.13,0,0,1,4.35-1,8.53,8.53,0,0,1,3.23.58,5.29,5.29,0,0,1,2.27,1.61,7.36,7.36,0,0,1,1.25,2.7l-2,.54a6.31,6.31,0,0,0-.92-2,3.84,3.84,0,0,0-1.58-1.15,5.74,5.74,0,0,0-2.27-.43,6.78,6.78,0,0,0-2.59.45,4.94,4.94,0,0,0-1.76,1.2,5.86,5.86,0,0,0-1,1.63,8.65,8.65,0,0,0-.63,3.32,8.13,8.13,0,0,0,.76,3.69,4.9,4.9,0,0,0,2.21,2.2,6.86,6.86,0,0,0,3.08.72,8.16,8.16,0,0,0,4.82-1.71v-3.07Z"></path><path d="M1161.69,1362.79V1346.3h2.24l8.65,12.94V1346.3h2.1v16.49h-2.24l-8.66-13v13Z"></path><path d="M1178.34,1362.79V1346.3H1184a13.66,13.66,0,0,1,2.94.24,5.55,5.55,0,0,1,2.42,1.18,6.66,6.66,0,0,1,1.95,2.81,11.11,11.11,0,0,1,.64,3.92,11.55,11.55,0,0,1-.43,3.33,8.12,8.12,0,0,1-1.13,2.4,5.93,5.93,0,0,1-1.5,1.5,6.22,6.22,0,0,1-2,.83,11.65,11.65,0,0,1-2.65.28Zm2.18-2H1184a8.64,8.64,0,0,0,2.56-.3,3.62,3.62,0,0,0,1.48-.86,5.13,5.13,0,0,0,1.21-2.08,10.23,10.23,0,0,0,.43-3.18,7.78,7.78,0,0,0-.84-4,4.35,4.35,0,0,0-2.07-1.86,8.66,8.66,0,0,0-2.82-.33h-3.47Z"></path><path d="M1154.66,1411.55v-16.49h5.68a13.59,13.59,0,0,1,2.94.24,5.55,5.55,0,0,1,2.42,1.18,6.63,6.63,0,0,1,2,2.82,11.06,11.06,0,0,1,.64,3.91,11.55,11.55,0,0,1-.43,3.33,8.12,8.12,0,0,1-1.13,2.4,5.93,5.93,0,0,1-1.5,1.5,6.22,6.22,0,0,1-2,.83,11.65,11.65,0,0,1-2.65.28Zm2.19-2h3.52a8.57,8.57,0,0,0,2.55-.3,3.56,3.56,0,0,0,1.48-.86,5.13,5.13,0,0,0,1.21-2.08,10.17,10.17,0,0,0,.44-3.18,7.71,7.71,0,0,0-.85-4,4.33,4.33,0,0,0-2.07-1.87,8.66,8.66,0,0,0-2.82-.33h-3.46Z"></path><path d="M1170.48,1403.42a15.15,15.15,0,0,1,.6-4.71,5.87,5.87,0,0,1,1.79-2.75,4.58,4.58,0,0,1,3-1,4.83,4.83,0,0,1,2.33.54,4.34,4.34,0,0,1,1.65,1.54,8.22,8.22,0,0,1,1,2.45,16.67,16.67,0,0,1,.37,3.9,15,15,0,0,1-.6,4.68,5.89,5.89,0,0,1-1.78,2.76,4.62,4.62,0,0,1-3,1,4.5,4.5,0,0,1-3.74-1.71C1171,1408.75,1170.48,1406.51,1170.48,1403.42Zm2.08,0c0,2.7.31,4.5,1,5.4a2.77,2.77,0,0,0,2.34,1.34,2.83,2.83,0,0,0,2.35-1.34q.94-1.35,1-5.4t-1-5.41a2.85,2.85,0,0,0-2.37-1.34,2.6,2.6,0,0,0-2.23,1.18C1172.91,1398.86,1172.56,1400.71,1172.56,1403.42Z"></path><path d="M1154.66,1460.59v-16.48h5.68a14.41,14.41,0,0,1,2.94.23,5.66,5.66,0,0,1,2.42,1.18,6.76,6.76,0,0,1,2,2.82,11.08,11.08,0,0,1,.64,3.92,11.65,11.65,0,0,1-.43,3.33,8.12,8.12,0,0,1-1.13,2.4,6.27,6.27,0,0,1-1.5,1.5,6,6,0,0,1-2,.82,11.11,11.11,0,0,1-2.65.28Zm2.19-1.94h3.52a8.57,8.57,0,0,0,2.55-.3,3.67,3.67,0,0,0,1.48-.86,5.18,5.18,0,0,0,1.21-2.09,10.1,10.1,0,0,0,.44-3.17,7.75,7.75,0,0,0-.85-4,4.35,4.35,0,0,0-2.07-1.86,8.6,8.6,0,0,0-2.82-.34h-3.46Z"></path><path d="M1178.1,1460.59h-2v-12.9a10.62,10.62,0,0,1-1.92,1.4,14.79,14.79,0,0,1-2.13,1.05v-2a12.19,12.19,0,0,0,3-1.94,7.79,7.79,0,0,0,1.8-2.2h1.3Z"></path><polyline class="cls-7" points="829.05 546.45 777.11 598.39 752.77 598.39"></polyline><polyline class="cls-7" points="1142.08 598.39 1125.21 598.39 1089.57 562.75"></polyline></g></svg>