<svg xmlns="http://www.w3.org/2000/svg" viewBox="281.97 168.43 271.78 510.19"><defs><style>.cls-1{fill:#1c60ac;}.cls-2{fill:#33353d;}.cls-3{fill:#0e5796;}.cls-4{fill:#fff;}.cls-5{fill:none;stroke:#050606;stroke-miterlimit:10;}.cls-6{fill:#9e9d9e;}</style></defs><g id="Layer_3" data-name="Layer 3"><rect class="cls-1" x="355.63" y="645.72" width="37.63" height="25.23" rx="3.38"></rect><rect class="cls-1" x="352.62" y="581.71" width="44.76" height="25.23" rx="3.69"></rect><path class="cls-1" d="M389.88,671h0a7.12,7.12,0,0,1-7.12,7.12H366.14A7.12,7.12,0,0,1,359,671h0"></path><rect class="cls-2" x="356.31" y="576.3" width="37.38" height="5.41"></rect><path class="cls-2" d="M392.3,606.94s-4.84,14.19-4.84,38.78H361.15c0-24.59-4.84-38.78-4.84-38.78Z"></path><rect class="cls-3" x="355.63" y="584.04" width="4.39" height="20.14" rx="0.9"></rect><rect class="cls-3" x="364.31" y="584.04" width="4.39" height="20.14" rx="0.9"></rect><rect class="cls-3" x="372.98" y="584.04" width="4.39" height="20.14" rx="0.9"></rect><rect class="cls-3" x="381.65" y="584.04" width="4.39" height="20.14" rx="0.9"></rect><rect class="cls-3" x="390.32" y="584.04" width="4.39" height="20.14" rx="0.9"></rect><rect class="cls-3" x="357.21" y="648.27" width="3.9" height="20.14" rx="0.85"></rect><rect class="cls-3" x="364.91" y="648.27" width="3.9" height="20.14" rx="0.85"></rect><rect class="cls-3" x="372.6" y="648.27" width="3.9" height="20.14" rx="0.85"></rect><rect class="cls-3" x="380.3" y="648.27" width="3.9" height="20.14" rx="0.85"></rect><rect class="cls-3" x="388" y="648.27" width="3.9" height="20.14" rx="0.85"></rect><rect class="cls-1" x="432.13" y="645.72" width="37.63" height="25.23" rx="3.38"></rect><rect class="cls-1" x="429.12" y="581.71" width="44.76" height="25.23" rx="3.69"></rect><path class="cls-1" d="M466.38,671h0a7.12,7.12,0,0,1-7.12,7.12H442.63a7.11,7.11,0,0,1-7.11-7.12h0"></path><rect class="cls-2" x="432.81" y="576.3" width="37.38" height="5.41"></rect><path class="cls-2" d="M468.79,606.94S464,621.13,464,645.72H437.64c0-24.59-4.83-38.78-4.83-38.78Z"></path><rect class="cls-3" x="432.13" y="584.04" width="4.39" height="20.14" rx="0.9"></rect><rect class="cls-3" x="440.8" y="584.04" width="4.39" height="20.14" rx="0.9"></rect><rect class="cls-3" x="449.48" y="584.04" width="4.39" height="20.14" rx="0.9"></rect><rect class="cls-3" x="458.15" y="584.04" width="4.39" height="20.14" rx="0.9"></rect><rect class="cls-3" x="466.82" y="584.04" width="4.39" height="20.14" rx="0.9"></rect><rect class="cls-3" x="433.71" y="648.27" width="3.9" height="20.14" rx="0.85"></rect><rect class="cls-3" x="441.4" y="648.27" width="3.9" height="20.14" rx="0.85"></rect><rect class="cls-3" x="449.1" y="648.27" width="3.9" height="20.14" rx="0.85"></rect><rect class="cls-3" x="456.8" y="648.27" width="3.9" height="20.14" rx="0.85"></rect><rect class="cls-3" x="464.5" y="648.27" width="3.9" height="20.14" rx="0.85"></rect></g><g id="Layer_2" data-name="Layer 2"><path class="cls-4" d="M553.25,218.93V526.3a50,50,0,0,1-50,50H332.47a50,50,0,0,1-50-50V218.93a50,50,0,0,1,50-50H503.24A50,50,0,0,1,553.25,218.93Z"></path><path class="cls-1" d="M553.25,218.93V328.61H282.47V218.93a50,50,0,0,1,50-50H503.24A50,50,0,0,1,553.25,218.93Z"></path><path class="cls-5" d="M553.25,218.93V526.3a50,50,0,0,1-50,50H332.47a50,50,0,0,1-50-50V218.93a50,50,0,0,1,50-50H503.24A50,50,0,0,1,553.25,218.93Z"></path><path class="cls-4" d="M356.47,248.86a8.83,8.83,0,0,0-5.13.45s-1.27-2.38-.86-7.18c.16-1.81.47-4.26,2.63-4.63l.1,0a2.54,2.54,0,0,1,3.26,3.1C355.85,246.23,356.69,248.83,356.47,248.86Z"></path><path class="cls-4" d="M346.81,236.93a2.33,2.33,0,0,1,2.16,2.94,13,13,0,0,0-.33,4.26c.27,4.34,1.76,5.88,1.76,5.88a4.28,4.28,0,0,0-1.49,2.75,16.14,16.14,0,0,1-4.74-13,3.29,3.29,0,0,1,.94-2.14,2.34,2.34,0,0,1,1.41-.69A1.42,1.42,0,0,1,346.81,236.93Z"></path><path class="cls-4" d="M348.3,260.57A18.32,18.32,0,0,1,338,249.31a20.24,20.24,0,0,1-1-7.95,4.84,4.84,0,0,1,1-3.08,2.87,2.87,0,0,1,4.25,1,5.05,5.05,0,0,1,.08,2.19,14.84,14.84,0,0,0,.62,5.95c1.39,4.89,6.95,9.07,6.95,9.07A5.94,5.94,0,0,0,348.3,260.57Z"></path><path class="cls-4" d="M358,242.89a8.93,8.93,0,0,0-.45-5.13s2.38-1.26,7.18-.86c1.81.16,4.26.48,4.63,2.64a.29.29,0,0,0,0,.09,2.55,2.55,0,0,1-3.1,3.27C360.62,242.28,358,243.12,358,242.89Z"></path><path class="cls-4" d="M369.93,233.24a2.33,2.33,0,0,1-2.94,2.15,13.43,13.43,0,0,0-4.26-.32c-4.34.27-5.88,1.75-5.88,1.75a4.24,4.24,0,0,0-2.75-1.48,16.14,16.14,0,0,1,13-4.74,3.28,3.28,0,0,1,2.14.93,2.36,2.36,0,0,1,.69,1.41A1.51,1.51,0,0,1,369.93,233.24Z"></path><path class="cls-4" d="M346.29,234.73a18.29,18.29,0,0,1,11.26-10.34,20.05,20.05,0,0,1,7.95-1,4.77,4.77,0,0,1,3.08,1,2.87,2.87,0,0,1-1,4.25,4.77,4.77,0,0,1-2.19.08,15.07,15.07,0,0,0-5.95.63c-4.89,1.39-9.07,7-9.07,7A5.94,5.94,0,0,0,346.29,234.73Z"></path><path class="cls-4" d="M363.86,244.84a8.93,8.93,0,0,0,5.13-.45s1.26,2.38.86,7.17c-.16,1.82-.48,4.27-2.64,4.63l-.09,0a2.53,2.53,0,0,1-3.26-3.09C364.48,247.46,363.64,244.87,363.86,244.84Z"></path><path class="cls-4" d="M373.51,256.77a2.33,2.33,0,0,1-2.15-2.94,13.37,13.37,0,0,0,.33-4.26c-.27-4.34-1.76-5.88-1.76-5.88a4.28,4.28,0,0,0,1.49-2.75,16.14,16.14,0,0,1,4.74,13,3.29,3.29,0,0,1-.94,2.14,2.36,2.36,0,0,1-1.41.69Z"></path><path class="cls-4" d="M372,233.13a18.29,18.29,0,0,1,10.34,11.26,19.87,19.87,0,0,1,1,8,4.77,4.77,0,0,1-1,3.08,2.87,2.87,0,0,1-4.25-1,4.91,4.91,0,0,1-.08-2.19,15.21,15.21,0,0,0-.62-5.95c-1.39-4.89-7-9.07-7-9.07A5.89,5.89,0,0,0,372,233.13Z"></path><path class="cls-4" d="M362.33,250.81a8.79,8.79,0,0,0,.45,5.12s-2.38,1.27-7.18.87c-1.81-.16-4.26-.48-4.63-2.64a.29.29,0,0,0,0-.09,3,3,0,0,1,.8-2.79,3,3,0,0,1,2.3-.48C359.7,251.42,362.3,250.58,362.33,250.81Z"></path><path class="cls-4" d="M350.4,260.46a2.32,2.32,0,0,1,2.93-2.15,13.5,13.5,0,0,0,4.27.32c4.34-.27,5.87-1.75,5.87-1.75a4.24,4.24,0,0,0,2.76,1.48,16.14,16.14,0,0,1-13,4.74,3.23,3.23,0,0,1-2.14-.93,2.43,2.43,0,0,1-.7-1.41C350.4,260.66,350.4,260.56,350.4,260.46Z"></path><path class="cls-4" d="M374,259a18.29,18.29,0,0,1-11.26,10.34,20.26,20.26,0,0,1-7.95,1,4.76,4.76,0,0,1-3.08-1,2.87,2.87,0,0,1,1-4.25,4.86,4.86,0,0,1,2.18-.07,15.11,15.11,0,0,0,6-.63c4.89-1.39,9.06-7,9.06-7A6,6,0,0,0,374,259Z"></path><path class="cls-4" d="M400.1,250.29v13h-7.47V230.88h15.53c7.7,0,11.84,3.89,11.84,8.88a7.75,7.75,0,0,1-5.13,7.66c1.75.59,4.39,2.26,4.39,8.05v1.6a23.55,23.55,0,0,0,.51,6.17h-7.24c-.62-1.41-.74-3.83-.74-7.27v-.47c0-3.54-1-5.21-6.67-5.21Zm0-5.57h6.4c4.18,0,5.8-1.46,5.8-4.17s-1.88-4.1-5.62-4.1H400.1Z"></path><path class="cls-4" d="M430.81,255.76l-2.43,7.48h-6.65l10.62-32.36h8.48l11.07,32.36h-7.1l-2.57-7.48Zm10-5.73c-2.22-6.83-3.64-11.19-4.39-14.1h-.05c-.77,3.19-2.33,8.26-4.11,14.1Z"></path><path class="cls-4" d="M454.41,230.88h6.68v14.44c2.06-2.49,8.49-9.79,12.44-14.44h8.09l-12.56,13.45,13,18.91H474l-9.59-14.38-3.29,3.27v11.11h-6.68Z"></path><path class="cls-4" d="M487.73,235.1V237h-.79v-4.39h2.15c1.12,0,1.72.5,1.72,1.18a1.06,1.06,0,0,1-.89,1,1,1,0,0,1,.79,1.11v.2a2.79,2.79,0,0,0,.07.86H490a2.67,2.67,0,0,1-.09-.95V236c0-.6-.21-.86-1.15-.86Zm0-.54h1.13c.79,0,1.13-.24,1.13-.71s-.36-.7-1.06-.7h-1.2Z"></path><path class="cls-4" d="M488.62,239.49a4.7,4.7,0,1,1,4.71-4.7A4.71,4.71,0,0,1,488.62,239.49Zm0-8.74a4,4,0,1,0,4,4A4,4,0,0,0,488.62,230.75Z"></path><path class="cls-4" d="M396.73,277.19v-7.92h1v7.92Z"></path><path class="cls-4" d="M403.93,274.43c0,1.6-.9,2.89-2.54,2.89s-2.48-1.22-2.48-2.87.92-2.89,2.54-2.89S403.93,272.71,403.93,274.43Zm-4,0c0,1.18.56,2,1.47,2s1.44-.79,1.44-2-.52-2-1.46-2S400,273.2,400,274.44Z"></path><path class="cls-4" d="M405.89,270.63h-2.32v-.94h5.72v.94H407v6.56h-1.08Z"></path><path class="cls-4" d="M419.12,274.07c0-1.38,0-2.8.05-3.6h0c-.32,1.28-1.41,4.36-2.21,6.72h-1c-.61-1.94-1.74-5.41-2.06-6.73h0c.06.87.09,2.51.09,3.8v2.93h-1v-7.5h1.61c.77,2.26,1.71,5.16,1.95,6.14h0c.17-.77,1.29-3.94,2.09-6.14h1.56v7.5h-1.05Z"></path><path class="cls-4" d="M425.77,276a9.39,9.39,0,0,0,.08,1.24h-1a2.46,2.46,0,0,1-.09-.68,1.88,1.88,0,0,1-3.41-.88c0-1.23.94-1.8,2.52-1.8h.88v-.44c0-.47-.15-1-1.09-1s-1,.42-1.07.85h-1c.07-.8.55-1.66,2.1-1.66,1.32,0,2,.56,2,1.82Zm-1-1.41H424c-1,0-1.55.3-1.55,1a.9.9,0,0,0,1,.94c1.21,0,1.37-.85,1.37-1.8Z"></path><path class="cls-4" d="M431.82,269.27v6.38c0,.51,0,1,0,1.54h-1c0-.15,0-.54,0-.74a1.63,1.63,0,0,1-1.64.87c-1.36,0-2.21-1.14-2.21-2.82s.91-2.94,2.39-2.94c.91,0,1.33.37,1.46.67v-3Zm-3.81,5.2c0,1.27.57,2,1.38,2,1.2,0,1.44-.94,1.44-2.06s-.22-1.93-1.37-1.93C428.55,272.45,428,273.19,428,274.47Z"></path><path class="cls-4" d="M433.73,274.64c0,1,.51,1.81,1.38,1.81a1.15,1.15,0,0,0,1.21-.8h1a2.19,2.19,0,0,1-2.27,1.67c-1.69,0-2.39-1.39-2.39-2.82,0-1.65.81-2.94,2.44-2.94a2.33,2.33,0,0,1,2.32,2.63,3.24,3.24,0,0,1,0,.45Zm2.68-.72c0-.85-.42-1.54-1.29-1.54s-1.28.64-1.36,1.54Z"></path><path class="cls-4" d="M446,273.74h-3.59v2.51h3.94l-.13.94h-4.86v-7.5h4.81v.94h-3.76v2.16H446Z"></path><path class="cls-4" d="M451.59,276a9.9,9.9,0,0,0,.07,1.24h-1a2.93,2.93,0,0,1-.09-.68,1.88,1.88,0,0,1-3.41-.88c0-1.23.94-1.8,2.52-1.8h.88v-.44c0-.47-.15-1-1.08-1s-1,.42-1.08.85h-1c.07-.8.55-1.66,2.1-1.66,1.33,0,2.06.56,2.06,1.82Zm-1-1.41h-.81c-1,0-1.55.3-1.55,1a.91.91,0,0,0,1,.94c1.21,0,1.37-.85,1.37-1.8Z"></path><path class="cls-4" d="M453.63,275.6a1.16,1.16,0,0,0,1.25.9c.74,0,1-.32,1-.78s-.24-.7-1.2-1c-1.57-.39-1.88-.89-1.88-1.64s.56-1.57,2-1.57a1.8,1.8,0,0,1,2,1.6h-1a1,1,0,0,0-1.1-.8c-.69,0-.9.35-.9.68s.21.58,1.16.81c1.65.4,2,1,2,1.79s-.73,1.68-2.11,1.68a2,2,0,0,1-2.23-1.72Z"></path><path class="cls-4" d="M458.65,271.69c.8,2.49,1.28,4,1.41,4.55h0c.16-.61.52-1.87,1.35-4.55h1l-1.89,5.74c-.53,1.6-.94,2-2.07,2a4.38,4.38,0,0,1-.59,0v-.9a2.9,2.9,0,0,0,.43,0c.65,0,.91-.29,1.2-1.15l-2-5.7Z"></path><path class="cls-6" d="M437,480.69v22.45a6.83,6.83,0,0,1-6.83,6.83h-11.1a8,8,0,0,1-5.42-2.38,9.05,9.05,0,0,1-2.56-6.44V482.62l11.73,11.74v-3.69l-11.73-11.74-3-3v25.17c0,3.22,1.82,8.05,4,8.9h-5.75a6.83,6.83,0,0,1-6.83-6.83V480.69a6.83,6.83,0,0,1,6.83-6.83H418a8,8,0,0,1,5.42,2.38,9.05,9.05,0,0,1,2.56,6.44v18.53l-11.73-11.74v3.69L426,504.9l3,3V482.76c0-3.22-1.82-8.05-4-8.9h5.22A6.83,6.83,0,0,1,437,480.69Z"></path><rect class="cls-5" x="355.63" y="645.72" width="37.63" height="25.23" rx="3.38"></rect><rect class="cls-5" x="352.62" y="581.71" width="44.76" height="25.23" rx="3.69"></rect><path class="cls-5" d="M389.88,671h0a7.12,7.12,0,0,1-7.12,7.12H366.14A7.12,7.12,0,0,1,359,671h0"></path><line class="cls-5" x1="356.31" y1="581.71" x2="356.31" y2="576.3"></line><line class="cls-5" x1="393.69" y1="581.71" x2="393.69" y2="576.3"></line><path class="cls-5" d="M356.31,606.94s4.84,14.19,4.84,38.78"></path><path class="cls-5" d="M392.3,606.94s-4.84,14.19-4.84,38.78"></path><rect class="cls-5" x="432.13" y="645.72" width="37.63" height="25.23" rx="3.38"></rect><rect class="cls-5" x="429.12" y="581.71" width="44.76" height="25.23" rx="3.69"></rect><path class="cls-5" d="M466.38,671h0a7.12,7.12,0,0,1-7.12,7.12H442.63a7.11,7.11,0,0,1-7.11-7.12h0"></path><line class="cls-5" x1="432.81" y1="581.71" x2="432.81" y2="576.3"></line><line class="cls-5" x1="470.19" y1="581.71" x2="470.19" y2="576.3"></line><path class="cls-5" d="M432.81,606.94s4.83,14.19,4.83,38.78"></path><path class="cls-5" d="M468.79,606.94S464,621.13,464,645.72"></path></g></svg>