<svg xmlns="http://www.w3.org/2000/svg" viewBox="754.63 172.39 553.95 1466.51"><defs><style>.cls-1{fill:#e2d299;}.cls-2{fill:#2d2d2d;}.cls-3{fill:#e6e8e8;}.cls-4{fill:#999;}.cls-5{fill:#c8cccb;}.cls-10,.cls-11,.cls-12,.cls-6,.cls-7,.cls-8,.cls-9{fill:none;stroke-miterlimit:10;}.cls-6{stroke:#999;}.cls-6,.cls-8{stroke-width:1.35px;}.cls-10,.cls-11,.cls-12,.cls-7,.cls-8,.cls-9{stroke:#050606;}.cls-7{stroke-width:4.05px;}.cls-9{stroke-width:1.33px;}.cls-10{stroke-width:2.66px;}.cls-11{stroke-width:1.19px;}.cls-12{stroke-width:1.31px;}</style></defs><g id="Layer_3" data-name="Layer 3"><rect class="cls-1" x="880.79" y="713.97" width="84.29" height="27.63"></rect><rect class="cls-1" x="887.38" y="684.75" width="71.66" height="29.22"></rect><rect class="cls-1" x="876.01" y="620.75" width="93.9" height="64" rx="15.57"></rect><rect class="cls-2" x="891.84" y="608.7" width="62.51" height="12.05"></rect><path class="cls-2" d="M922.93,174.42h0a42.15,42.15,0,0,1,42.15,42.15V605.22a3.48,3.48,0,0,1-3.48,3.48H884.26a3.48,3.48,0,0,1-3.48-3.48V216.56a42.15,42.15,0,0,1,42.15-42.15Z"></path><rect class="cls-3" x="756.66" y="741.6" width="549.89" height="895.27" rx="39.55"></rect><path class="cls-3" d="M1274.64,647.59h-62.29a31.92,31.92,0,0,0-31.91,31.93v62.09l126.12,51.15V679.52A31.93,31.93,0,0,0,1274.64,647.59Zm3.87,59.81a13.86,13.86,0,0,1-13.87,13.86h-43.72a13.85,13.85,0,0,1-13.86-13.86V686.45a13.87,13.87,0,0,1,13.86-13.87h43.72a13.88,13.88,0,0,1,13.87,13.87Z"></path><polygon class="cls-4" points="810.18 770.29 795.58 770.29 788.28 782.93 795.58 795.58 810.18 795.58 817.48 782.93 810.18 770.29"></polygon><polygon class="cls-4" points="1253.04 770.29 1267.64 770.29 1274.94 782.93 1267.64 795.58 1253.04 795.58 1245.74 782.93 1253.04 770.29"></polygon><polygon class="cls-4" points="810.18 1608.19 795.58 1608.19 788.28 1595.55 795.58 1582.9 810.18 1582.9 817.48 1595.55 810.18 1608.19"></polygon><polygon class="cls-4" points="1253.04 1608.19 1267.64 1608.19 1274.94 1595.55 1267.64 1582.9 1253.04 1582.9 1245.74 1595.55 1253.04 1608.19"></polygon><rect class="cls-2" x="872.9" y="1131.27" width="321.03" height="160.93" rx="17.15"></rect><rect class="cls-5" x="811.61" y="854.23" width="37.22" height="674.13" rx="18.61"></rect><path class="cls-5" d="M930.19,840.33v169.11a18.61,18.61,0,0,1-18.6,18.61h0A18.61,18.61,0,0,1,893,1009.44V840.91c0-10.24,8.37-19.19,18.6-19.19a18.62,18.62,0,0,1,18.61,18.61Z"></path><path class="cls-5" d="M911.59,1323.24h0a18.61,18.61,0,0,1,18.6,18.61v198.51c0,10.05-7.72,18.72-17.76,19.16A18.59,18.59,0,0,1,893,1540.93V1341.85A18.61,18.61,0,0,1,911.59,1323.24Z"></path><path class="cls-5" d="M1012,808.86V957.94a18.61,18.61,0,0,1-18.61,18.6h0a18.6,18.6,0,0,1-18.6-18.6V809.44c0-10.24,8.36-19.2,18.6-19.19A18.62,18.62,0,0,1,1012,808.86Z"></path><path class="cls-5" d="M993.38,1323.24h0a18.61,18.61,0,0,1,18.61,18.61v231.46c0,10-7.73,18.72-17.77,19.16a18.59,18.59,0,0,1-19.44-18.59v-232A18.61,18.61,0,0,1,993.38,1323.24Z"></path><rect class="cls-5" x="1218.69" y="854.23" width="37.22" height="674.13" rx="18.61" transform="translate(2474.6 2382.59) rotate(180)"></rect><path class="cls-5" d="M1137.33,840.33v169.11a18.61,18.61,0,0,0,18.61,18.61h0a18.61,18.61,0,0,0,18.6-18.61V840.91c0-10.24-8.36-19.19-18.6-19.19a18.64,18.64,0,0,0-18.61,18.61Z"></path><path class="cls-5" d="M1155.94,1323.24h0a18.61,18.61,0,0,0-18.61,18.61v198.51c0,10.05,7.72,18.72,17.77,19.16a18.59,18.59,0,0,0,19.44-18.59V1341.85A18.61,18.61,0,0,0,1155.94,1323.24Z"></path><path class="cls-5" d="M1055.53,808.86V957.94a18.61,18.61,0,0,0,18.61,18.6h0a18.61,18.61,0,0,0,18.61-18.6V809.44c0-10.24-8.37-19.2-18.61-19.19a18.62,18.62,0,0,0-18.61,18.61Z"></path><path class="cls-5" d="M1074.14,1323.24h0a18.61,18.61,0,0,0-18.61,18.61v231.46c0,10,7.73,18.72,17.77,19.16a18.6,18.6,0,0,0,19.45-18.59v-232A18.61,18.61,0,0,0,1074.14,1323.24Z"></path><path class="cls-6" d="M1294.4,841.87v694.74a14.87,14.87,0,0,1-14.87,14.87h-27.46a35.75,35.75,0,0,0-35.75,35.75v22.61a14.87,14.87,0,0,1-14.87,14.88H861.76a14.88,14.88,0,0,1-14.87-14.88v-22.61a35.74,35.74,0,0,0-35.75-35.75H783.69a14.87,14.87,0,0,1-14.87-14.87V841.87A14.87,14.87,0,0,1,783.69,827h27.45a35.75,35.75,0,0,0,35.75-35.75V768.63a14.87,14.87,0,0,1,14.87-14.87h339.69a14.87,14.87,0,0,1,14.87,14.87v22.62A35.76,35.76,0,0,0,1252.07,827h27.46A14.87,14.87,0,0,1,1294.4,841.87Z"></path><rect class="cls-5" x="963.72" y="986.16" width="13.22" height="126.83" rx="1.27" transform="translate(787.46 -368.06) rotate(35.4)"></rect><path class="cls-5" d="M1144.31,1098.17l-8.71,6.19a1.28,1.28,0,0,1-1.77-.3l-64.47-90.7-64.46,90.7a1.28,1.28,0,0,1-1.77.3l-8.71-6.19a1.27,1.27,0,0,1-.3-1.77l67.12-94.45,4-5.67a5,5,0,0,1,8.17,0l4,5.67,67.13,94.45A1.28,1.28,0,0,1,1144.31,1098.17Z"></path></g><g id="Layer_2" data-name="Layer 2"><rect class="cls-7" x="756.66" y="741.6" width="549.89" height="895.27" rx="39.55"></rect><path class="cls-7" d="M1180.43,741.6V679.52a31.92,31.92,0,0,1,31.92-31.92h62.29a31.92,31.92,0,0,1,31.92,31.92V792.76"></path><path class="cls-7" d="M834.74,741.61v47.3a25.93,25.93,0,0,1-25.94,25.93H756.66"></path><circle class="cls-8" cx="802.88" cy="782.93" r="27.34"></circle><polygon class="cls-8" points="810.18 770.29 795.58 770.29 788.28 782.93 795.58 795.58 810.18 795.58 817.48 782.93 810.18 770.29"></polygon><path class="cls-7" d="M1306.56,814.84h-52.14a25.93,25.93,0,0,1-25.94-25.93v-47.3"></path><circle class="cls-8" cx="1260.34" cy="782.93" r="27.34"></circle><polygon class="cls-8" points="1253.04 770.29 1267.64 770.29 1274.94 782.93 1267.64 795.58 1253.04 795.58 1245.74 782.93 1253.04 770.29"></polygon><path class="cls-7" d="M756.66,1563.63H808.8a25.94,25.94,0,0,1,25.94,25.94v47.3"></path><circle class="cls-8" cx="802.88" cy="1595.55" r="27.34"></circle><polygon class="cls-8" points="810.18 1608.19 795.58 1608.19 788.28 1595.55 795.58 1582.9 810.18 1582.9 817.48 1595.55 810.18 1608.19"></polygon><path class="cls-7" d="M1228.48,1636.87v-47.3a25.94,25.94,0,0,1,25.94-25.94h52.14"></path><circle class="cls-8" cx="1260.34" cy="1595.55" r="27.34"></circle><polygon class="cls-8" points="1253.04 1608.19 1267.64 1608.19 1274.94 1595.55 1267.64 1582.9 1253.04 1582.9 1245.74 1595.55 1253.04 1608.19"></polygon><rect class="cls-8" x="872.9" y="1131.27" width="321.03" height="160.93" rx="17.15"></rect><rect class="cls-8" x="811.61" y="854.23" width="37.22" height="674.13" rx="18.61"></rect><path class="cls-8" d="M930.19,840.33v169.11a18.61,18.61,0,0,1-18.6,18.61h0A18.61,18.61,0,0,1,893,1009.44V840.91c0-10.24,8.37-19.19,18.6-19.19a18.62,18.62,0,0,1,18.61,18.61Z"></path><path class="cls-8" d="M911.59,1323.24h0a18.61,18.61,0,0,1,18.6,18.61v198.51c0,10.05-7.72,18.72-17.76,19.16A18.59,18.59,0,0,1,893,1540.93V1341.85A18.61,18.61,0,0,1,911.59,1323.24Z"></path><path class="cls-8" d="M1012,808.86V957.94a18.61,18.61,0,0,1-18.61,18.6h0a18.6,18.6,0,0,1-18.6-18.6V809.44c0-10.24,8.36-19.2,18.6-19.19A18.62,18.62,0,0,1,1012,808.86Z"></path><path class="cls-8" d="M993.38,1323.24h0a18.61,18.61,0,0,1,18.61,18.61v231.46c0,10-7.73,18.72-17.77,19.16a18.59,18.59,0,0,1-19.44-18.59v-232A18.61,18.61,0,0,1,993.38,1323.24Z"></path><rect class="cls-8" x="1218.69" y="854.23" width="37.22" height="674.13" rx="18.61" transform="translate(2474.6 2382.59) rotate(180)"></rect><path class="cls-8" d="M1137.33,840.33v169.11a18.61,18.61,0,0,0,18.61,18.61h0a18.61,18.61,0,0,0,18.6-18.61V840.91c0-10.24-8.36-19.19-18.6-19.19a18.64,18.64,0,0,0-18.61,18.61Z"></path><path class="cls-8" d="M1155.94,1323.24h0a18.61,18.61,0,0,0-18.61,18.61v198.51c0,10.05,7.72,18.72,17.77,19.16a18.59,18.59,0,0,0,19.44-18.59V1341.85A18.61,18.61,0,0,0,1155.94,1323.24Z"></path><path class="cls-8" d="M1055.53,808.86V957.94a18.61,18.61,0,0,0,18.61,18.6h0a18.61,18.61,0,0,0,18.61-18.6V809.44c0-10.24-8.37-19.2-18.61-19.19a18.62,18.62,0,0,0-18.61,18.61Z"></path><path class="cls-8" d="M1074.14,1323.24h0a18.61,18.61,0,0,0-18.61,18.61v231.46c0,10,7.73,18.72,17.77,19.16a18.6,18.6,0,0,0,19.45-18.59v-232A18.61,18.61,0,0,0,1074.14,1323.24Z"></path><rect class="cls-7" x="1207.05" y="672.58" width="71.46" height="48.69" rx="13.87"></rect><rect class="cls-9" x="1200.59" y="665.84" width="84.39" height="61.92" rx="20.35"></rect><rect class="cls-7" x="880.79" y="713.97" width="84.29" height="27.63"></rect><rect class="cls-7" x="887.38" y="684.75" width="71.66" height="29.22"></rect><rect class="cls-7" x="876.01" y="620.75" width="93.9" height="64" rx="15.57"></rect><rect class="cls-7" x="891.84" y="608.7" width="62.51" height="12.05"></rect><path class="cls-7" d="M922.93,174.42h0a42.15,42.15,0,0,1,42.15,42.15V605.22a3.48,3.48,0,0,1-3.48,3.48H884.26a3.48,3.48,0,0,1-3.48-3.48V216.56a42.15,42.15,0,0,1,42.15-42.15Z"></path><line class="cls-10" x1="880.79" y1="251.39" x2="965.08" y2="251.39"></line><line class="cls-10" x1="880.79" y1="260.37" x2="965.08" y2="260.37"></line><rect class="cls-11" x="963.72" y="986.16" width="13.22" height="126.83" rx="1.27" transform="translate(787.46 -368.06) rotate(35.4)"></rect><path class="cls-12" d="M1144.31,1098.17l-8.71,6.19a1.28,1.28,0,0,1-1.77-.3l-64.47-90.7-64.46,90.7a1.28,1.28,0,0,1-1.77.3l-8.71-6.19a1.27,1.27,0,0,1-.3-1.77l67.12-94.45,4-5.67a5,5,0,0,1,8.17,0l4,5.67,67.13,94.45A1.28,1.28,0,0,1,1144.31,1098.17Z"></path></g></svg>