<svg xmlns="http://www.w3.org/2000/svg" viewBox="315.79 697.53 1455.17 586.58"><defs><style>.cls-1{fill:#c08c2d;}.cls-2{fill:#38996b;}.cls-3{fill:#574841;}.cls-4{fill:#eab96b;}.cls-5{fill:#cbcccb;}.cls-6{fill:#2b2b2b;}.cls-10,.cls-12,.cls-13,.cls-7,.cls-8{fill:none;}.cls-12,.cls-7,.cls-8{stroke:#050606;}.cls-10,.cls-12,.cls-7,.cls-8{stroke-miterlimit:10;}.cls-7{stroke-width:2.04px;}.cls-8{stroke-width:3.13px;}.cls-9{fill:#808181;}.cls-10{stroke:#bbbcbc;stroke-width:5.85px;}.cls-11{fill:#9f9f9e;}.cls-12{stroke-width:2.03px;}.cls-13{stroke:#fff;stroke-linecap:round;stroke-linejoin:round;stroke-width:1.91px;}.cls-14{fill:#caa987;}.cls-15{fill:#61c9d9;}.cls-16{fill:#e8eae8;}.cls-17{fill:#fff;}</style></defs><g id="Layer_3" data-name="Layer 3"><path class="cls-1" d="M373.85,1108.11a40.23,40.23,0,1,0,40.23,40.23A40.23,40.23,0,0,0,373.85,1108.11Zm0,68.82a28.58,28.58,0,1,1,28.59-28.59A28.59,28.59,0,0,1,373.85,1176.93Z"></path><path class="cls-1" d="M373.85,792.49a40.23,40.23,0,1,0,40.23,40.23A40.23,40.23,0,0,0,373.85,792.49Zm0,68.82a28.58,28.58,0,1,1,28.59-28.59A28.59,28.59,0,0,1,373.85,861.31Z"></path><path class="cls-1" d="M1666.23,1108.11a40.23,40.23,0,1,0,40.23,40.23A40.23,40.23,0,0,0,1666.23,1108.11Zm0,68.82a28.58,28.58,0,1,1,28.59-28.59A28.6,28.6,0,0,1,1666.23,1176.93Z"></path><path class="cls-1" d="M1666.22,794.13a40.23,40.23,0,1,0,40.23,40.23A40.23,40.23,0,0,0,1666.22,794.13Zm0,68.82a28.59,28.59,0,1,1,28.59-28.59A28.59,28.59,0,0,1,1666.22,863Z"></path><path class="cls-2" d="M1717.45,699.09v44.46a21.47,21.47,0,0,1-42.93,0V699.09h-27.44v44.46a21.47,21.47,0,0,1-42.94,0V699.09H1576.7V761a4,4,0,0,1-4,4h-34.93a4,4,0,0,1-4-4V699.09h-27.44v44.46a21.47,21.47,0,0,1-42.94,0V699.09H1436v44.46a21.47,21.47,0,0,1-42.93,0V699.09h-27.44v44.46a21.47,21.47,0,0,1-42.94,0V699.09H1295.2v44.46a21.47,21.47,0,0,1-42.93,0V699.09h-27.62V761a4,4,0,0,1-4,4h-34.94a4,4,0,0,1-4-4V699.09h-27.27v44.46a21.47,21.47,0,0,1-42.93,0V699.09h-27.44v44.46a21.47,21.47,0,0,1-42.93,0V699.09h-27.44v44.46a21.47,21.47,0,0,1-42.94,0V699.09H943.33v44.46a21.47,21.47,0,0,1-42.93,0V699.09H873V761a4,4,0,0,1-4,4H834a4,4,0,0,1-4-4V699.09H802.58v44.46a21.47,21.47,0,0,1-42.93,0V699.09H732.21v44.46a21.47,21.47,0,0,1-42.94,0V699.09H661.83v44.46a21.47,21.47,0,0,1-42.93,0V699.09H591.46v44.46a21.47,21.47,0,0,1-42.93,0V699.09H521.08V761a4,4,0,0,1-4,4H482.15a4,4,0,0,1-4-4V699.09H450.71v44.46a21.47,21.47,0,0,1-42.93,0V699.09H380.34v44.46a21.47,21.47,0,0,1-42.94,0V699.09H316.81v584H337.4v-44.47a21.47,21.47,0,0,1,42.94,0v44.47h27.44v-44.47a21.47,21.47,0,0,1,42.93,0v44.47h27.44v-61.94a4,4,0,0,1,4-4h34.93a4,4,0,0,1,4,4v61.94h27.45v-44.47a21.47,21.47,0,0,1,42.93,0v44.47H618.9v-44.47a21.47,21.47,0,0,1,42.93,0v44.47h27.44v-44.47a21.47,21.47,0,0,1,42.94,0v44.47h27.44v-44.47a21.47,21.47,0,0,1,42.93,0v44.47H830v-61.94a4,4,0,0,1,4-4H869a4,4,0,0,1,4,4v61.94H900.4v-44.47a21.47,21.47,0,0,1,42.93,0v44.47h27.44v-44.47a21.47,21.47,0,0,1,42.94,0v44.47h27.44v-44.47a21.47,21.47,0,0,1,42.93,0v44.47h27.44v-44.47a21.47,21.47,0,0,1,42.93,0v44.47h27.27v-61.94a4,4,0,0,1,4-4h34.94a4,4,0,0,1,4,4v61.94h27.62v-44.47a21.47,21.47,0,0,1,42.93,0v44.47h27.44v-44.47a21.47,21.47,0,0,1,42.94,0v44.47H1393v-44.47a21.47,21.47,0,0,1,42.93,0v44.47h27.44v-44.47a21.47,21.47,0,0,1,42.94,0v44.47h27.44v-61.94a4,4,0,0,1,4-4h34.93a4,4,0,0,1,4,4v61.94h27.44v-44.47a21.47,21.47,0,0,1,42.94,0v44.47h27.44v-44.47a21.47,21.47,0,0,1,42.93,0v44.47h10.79v-584ZM373.85,1176.93a28.58,28.58,0,1,1,28.59-28.59A28.59,28.59,0,0,1,373.85,1176.93Zm0-315.62a28.58,28.58,0,1,1,28.59-28.59A28.59,28.59,0,0,1,373.85,861.31Zm1292.38,315.62a28.58,28.58,0,1,1,28.59-28.59A28.6,28.6,0,0,1,1666.23,1176.93Zm0-371.15a28.59,28.59,0,1,1-28.59,28.58A28.58,28.58,0,0,1,1666.22,805.78Z"></path><circle class="cls-3" cx="1517.5" cy="829.77" r="24.43"></circle><circle class="cls-1" cx="1517.5" cy="829.77" r="14.51"></circle><polyline class="cls-4" points="1700.19 1182.71 1709.78 1192.3 1709.78 1226.39 1714.36 1240.26 1714.36 1283.08 1728.24 1283.08 1728.24 1182.71 1710.82 1165.3"></polyline><path class="cls-4" d="M1666.23,1097.13a51.22,51.22,0,1,0,51.22,51.23A51.23,51.23,0,0,0,1666.23,1097.13Zm0,79.8a28.58,28.58,0,1,1,28.59-28.59A28.6,28.6,0,0,1,1666.23,1176.93Z"></path><polyline class="cls-4" points="1700.19 800 1709.78 790.42 1709.78 756.32 1714.36 742.45 1714.36 699.64 1728.24 699.64 1728.24 800 1710.82 817.42"></polyline><path class="cls-4" d="M1717.45,834.36a51.23,51.23,0,1,0-51.22,51.23A51.23,51.23,0,0,0,1717.45,834.36Zm-22.63,0a28.59,28.59,0,1,1-28.59-28.59A28.58,28.58,0,0,1,1694.82,834.37Z"></path><path class="cls-4" d="M316.81,1171.45H326.9a10.5,10.5,0,0,1,10.5,10.5v101.13H316.81Z"></path><path class="cls-4" d="M316.81,804.14h9.28a8.84,8.84,0,0,0,8.84-8.84V743.73h2.47V699.09H316.81Z"></path><polygon class="cls-1" points="893.22 1005.51 893.22 982.61 870.34 982.61 847.43 982.61 847.43 1028.4 893.22 1028.4 893.22 1005.51"></polygon><rect class="cls-5" x="1580.48" y="1041.98" width="34.81" height="53.78"></rect><rect class="cls-5" x="1580.48" y="885.12" width="34.81" height="52.66"></rect><rect class="cls-5" x="1580.48" y="1021.54" width="35.93" height="9.23"></rect><rect class="cls-5" x="1580.48" y="1003.39" width="35.93" height="9.23"></rect><rect class="cls-5" x="1580.48" y="985.25" width="35.93" height="9.23"></rect><rect class="cls-5" x="1580.48" y="967.1" width="35.93" height="9.23"></rect><rect class="cls-5" x="1580.48" y="948.96" width="35.93" height="9.23"></rect><rect class="cls-5" x="1206.02" y="1153.04" width="18.63" height="5.98"></rect><rect class="cls-5" x="1247.01" y="1165.47" width="18.63" height="5.98"></rect><rect class="cls-5" x="1206.02" y="1178.57" width="18.63" height="5.98"></rect><rect class="cls-5" x="856.25" y="899.7" width="24.33" height="12.35" rx="2.94"></rect><rect class="cls-5" x="856.25" y="809.52" width="24.33" height="12.35" rx="2.94"></rect><rect class="cls-5" x="901.72" y="899.7" width="24.33" height="12.35" rx="2.94"></rect><rect class="cls-5" x="901.72" y="809.52" width="24.33" height="12.35" rx="2.94"></rect><path class="cls-5" d="M1138.78,888.34h7.44a0,0,0,0,1,0,0v7.2a0,0,0,0,1,0,0h-7.44a1.43,1.43,0,0,1-1.43-1.43v-4.34A1.43,1.43,0,0,1,1138.78,888.34Z" transform="translate(2033.72 -249.85) rotate(90)"></path><path class="cls-5" d="M1126.91,888.34h7.44a0,0,0,0,1,0,0v7.2a0,0,0,0,1,0,0h-7.44a1.43,1.43,0,0,1-1.43-1.43v-4.34A1.43,1.43,0,0,1,1126.91,888.34Z" transform="translate(2021.86 -237.98) rotate(90)"></path><path class="cls-5" d="M1115,888.34h7.44a0,0,0,0,1,0,0v7.2a0,0,0,0,1,0,0H1115a1.43,1.43,0,0,1-1.43-1.43v-4.34A1.43,1.43,0,0,1,1115,888.34Z" transform="translate(2009.99 -226.11) rotate(90)"></path><path class="cls-5" d="M1103.18,888.34h7.44a0,0,0,0,1,0,0v7.2a0,0,0,0,1,0,0h-7.44a1.43,1.43,0,0,1-1.43-1.43v-4.34A1.43,1.43,0,0,1,1103.18,888.34Z" transform="translate(1998.12 -214.25) rotate(90)"></path><path class="cls-5" d="M1091.31,888.34h7.44a0,0,0,0,1,0,0v7.2a0,0,0,0,1,0,0h-7.44a1.43,1.43,0,0,1-1.43-1.43v-4.34A1.43,1.43,0,0,1,1091.31,888.34Z" transform="translate(1986.25 -202.38) rotate(90)"></path><path class="cls-5" d="M1079.44,888.34h7.44a0,0,0,0,1,0,0v7.2a0,0,0,0,1,0,0h-7.44a1.43,1.43,0,0,1-1.43-1.43v-4.34A1.43,1.43,0,0,1,1079.44,888.34Z" transform="translate(1974.38 -190.51) rotate(90)"></path><path class="cls-5" d="M1067.57,888.34H1075a0,0,0,0,1,0,0v7.2a0,0,0,0,1,0,0h-7.44a1.43,1.43,0,0,1-1.43-1.43v-4.34A1.43,1.43,0,0,1,1067.57,888.34Z" transform="translate(1962.51 -178.64) rotate(90)"></path><path class="cls-5" d="M1055.7,888.34h7.44a0,0,0,0,1,0,0v7.2a0,0,0,0,1,0,0h-7.44a1.43,1.43,0,0,1-1.43-1.43v-4.34A1.43,1.43,0,0,1,1055.7,888.34Z" transform="translate(1950.64 -166.77) rotate(90)"></path><path class="cls-5" d="M1043.83,888.34h7.44a0,0,0,0,1,0,0v7.2a0,0,0,0,1,0,0h-7.44a1.43,1.43,0,0,1-1.43-1.43v-4.34A1.43,1.43,0,0,1,1043.83,888.34Z" transform="translate(1938.77 -154.9) rotate(90)"></path><path class="cls-5" d="M1032,888.34h7.44a0,0,0,0,1,0,0v7.2a0,0,0,0,1,0,0H1032a1.43,1.43,0,0,1-1.43-1.43v-4.34A1.43,1.43,0,0,1,1032,888.34Z" transform="translate(1926.9 -143.03) rotate(90)"></path><path class="cls-5" d="M1020.09,888.34h7.44a0,0,0,0,1,0,0v7.2a0,0,0,0,1,0,0h-7.44a1.43,1.43,0,0,1-1.43-1.43v-4.34A1.43,1.43,0,0,1,1020.09,888.34Z" transform="translate(1915.03 -131.16) rotate(90)"></path><path class="cls-5" d="M1008.22,888.34h7.44a0,0,0,0,1,0,0v7.2a0,0,0,0,1,0,0h-7.44a1.43,1.43,0,0,1-1.43-1.43v-4.34A1.43,1.43,0,0,1,1008.22,888.34Z" transform="translate(1903.17 -119.29) rotate(90)"></path><path class="cls-5" d="M996.36,888.34h7.44a0,0,0,0,1,0,0v7.2a0,0,0,0,1,0,0h-7.44a1.43,1.43,0,0,1-1.43-1.43v-4.34A1.43,1.43,0,0,1,996.36,888.34Z" transform="translate(1891.3 -107.42) rotate(90)"></path><path class="cls-5" d="M996.36,1084.55h7.44a0,0,0,0,1,0,0v7.2a0,0,0,0,1,0,0h-7.44a1.43,1.43,0,0,1-1.43-1.43V1086A1.43,1.43,0,0,1,996.36,1084.55Z" transform="translate(-88.78 2087.51) rotate(-90)"></path><path class="cls-5" d="M1008.22,1084.55h7.44a0,0,0,0,1,0,0v7.2a0,0,0,0,1,0,0h-7.44a1.43,1.43,0,0,1-1.43-1.43V1086A1.43,1.43,0,0,1,1008.22,1084.55Z" transform="translate(-76.92 2099.37) rotate(-90)"></path><path class="cls-5" d="M1020.09,1084.55h7.44a0,0,0,0,1,0,0v7.2a0,0,0,0,1,0,0h-7.44a1.43,1.43,0,0,1-1.43-1.43V1086A1.43,1.43,0,0,1,1020.09,1084.55Z" transform="translate(-65.05 2111.24) rotate(-90)"></path><path class="cls-5" d="M1032,1084.55h7.44a0,0,0,0,1,0,0v7.2a0,0,0,0,1,0,0H1032a1.43,1.43,0,0,1-1.43-1.43V1086A1.43,1.43,0,0,1,1032,1084.55Z" transform="translate(-53.18 2123.11) rotate(-90)"></path><path class="cls-5" d="M1043.83,1084.55h7.44a0,0,0,0,1,0,0v7.2a0,0,0,0,1,0,0h-7.44a1.43,1.43,0,0,1-1.43-1.43V1086A1.43,1.43,0,0,1,1043.83,1084.55Z" transform="translate(-41.31 2134.98) rotate(-90)"></path><path class="cls-5" d="M1055.7,1084.55h7.44a0,0,0,0,1,0,0v7.2a0,0,0,0,1,0,0h-7.44a1.43,1.43,0,0,1-1.43-1.43V1086A1.43,1.43,0,0,1,1055.7,1084.55Z" transform="translate(-29.44 2146.85) rotate(-90)"></path><path class="cls-5" d="M1067.57,1084.55H1075a0,0,0,0,1,0,0v7.2a0,0,0,0,1,0,0h-7.44a1.43,1.43,0,0,1-1.43-1.43V1086A1.43,1.43,0,0,1,1067.57,1084.55Z" transform="translate(-17.57 2158.72) rotate(-90)"></path><path class="cls-5" d="M1079.44,1084.55h7.44a0,0,0,0,1,0,0v7.2a0,0,0,0,1,0,0h-7.44a1.43,1.43,0,0,1-1.43-1.43V1086A1.43,1.43,0,0,1,1079.44,1084.55Z" transform="translate(-5.7 2170.59) rotate(-90)"></path><path class="cls-5" d="M1091.31,1084.55h7.44a0,0,0,0,1,0,0v7.2a0,0,0,0,1,0,0h-7.44a1.43,1.43,0,0,1-1.43-1.43V1086A1.43,1.43,0,0,1,1091.31,1084.55Z" transform="translate(6.17 2182.46) rotate(-90)"></path><path class="cls-5" d="M1103.18,1084.55h7.44a0,0,0,0,1,0,0v7.2a0,0,0,0,1,0,0h-7.44a1.43,1.43,0,0,1-1.43-1.43V1086A1.43,1.43,0,0,1,1103.18,1084.55Z" transform="translate(18.04 2194.33) rotate(-90)"></path><path class="cls-5" d="M1115,1084.55h7.44a0,0,0,0,1,0,0v7.2a0,0,0,0,1,0,0H1115a1.43,1.43,0,0,1-1.43-1.43V1086A1.43,1.43,0,0,1,1115,1084.55Z" transform="translate(29.91 2206.2) rotate(-90)"></path><path class="cls-5" d="M1126.91,1084.55h7.44a0,0,0,0,1,0,0v7.2a0,0,0,0,1,0,0h-7.44a1.43,1.43,0,0,1-1.43-1.43V1086A1.43,1.43,0,0,1,1126.91,1084.55Z" transform="translate(41.78 2218.06) rotate(-90)"></path><path class="cls-5" d="M1138.78,1084.55h7.44a0,0,0,0,1,0,0v7.2a0,0,0,0,1,0,0h-7.44a1.43,1.43,0,0,1-1.43-1.43V1086A1.43,1.43,0,0,1,1138.78,1084.55Z" transform="translate(53.64 2229.93) rotate(-90)"></path><path class="cls-5" d="M969.46,915.23h7.44a0,0,0,0,1,0,0v7.2a0,0,0,0,1,0,0h-7.44A1.43,1.43,0,0,1,968,921v-4.34A1.43,1.43,0,0,1,969.46,915.23Z"></path><path class="cls-5" d="M969.46,927.1h7.44a0,0,0,0,1,0,0v7.2a0,0,0,0,1,0,0h-7.44a1.43,1.43,0,0,1-1.43-1.43v-4.34A1.43,1.43,0,0,1,969.46,927.1Z"></path><path class="cls-5" d="M969.46,939h7.44a0,0,0,0,1,0,0v7.2a0,0,0,0,1,0,0h-7.44a1.43,1.43,0,0,1-1.43-1.43v-4.34A1.43,1.43,0,0,1,969.46,939Z"></path><path class="cls-5" d="M969.46,950.83h7.44a0,0,0,0,1,0,0V958a0,0,0,0,1,0,0h-7.44A1.43,1.43,0,0,1,968,956.6v-4.34A1.43,1.43,0,0,1,969.46,950.83Z"></path><path class="cls-5" d="M969.46,962.7h7.44a0,0,0,0,1,0,0v7.2a0,0,0,0,1,0,0h-7.44a1.43,1.43,0,0,1-1.43-1.43v-4.34A1.43,1.43,0,0,1,969.46,962.7Z"></path><path class="cls-5" d="M969.46,974.57h7.44a0,0,0,0,1,0,0v7.2a0,0,0,0,1,0,0h-7.44a1.43,1.43,0,0,1-1.43-1.43V976A1.43,1.43,0,0,1,969.46,974.57Z"></path><path class="cls-5" d="M969.46,986.44h7.44a0,0,0,0,1,0,0v7.2a0,0,0,0,1,0,0h-7.44a1.43,1.43,0,0,1-1.43-1.43v-4.34A1.43,1.43,0,0,1,969.46,986.44Z"></path><path class="cls-5" d="M969.46,998.31h7.44a0,0,0,0,1,0,0v7.2a0,0,0,0,1,0,0h-7.44a1.43,1.43,0,0,1-1.43-1.43v-4.34A1.43,1.43,0,0,1,969.46,998.31Z"></path><path class="cls-5" d="M969.46,1010.18h7.44a0,0,0,0,1,0,0v7.2a0,0,0,0,1,0,0h-7.44a1.43,1.43,0,0,1-1.43-1.43v-4.34A1.43,1.43,0,0,1,969.46,1010.18Z"></path><path class="cls-5" d="M969.46,1022h7.44a0,0,0,0,1,0,0v7.2a0,0,0,0,1,0,0h-7.44a1.43,1.43,0,0,1-1.43-1.43v-4.34A1.43,1.43,0,0,1,969.46,1022Z"></path><path class="cls-5" d="M969.46,1033.92h7.44a0,0,0,0,1,0,0v7.2a0,0,0,0,1,0,0h-7.44a1.43,1.43,0,0,1-1.43-1.43v-4.34A1.43,1.43,0,0,1,969.46,1033.92Z"></path><path class="cls-5" d="M969.46,1045.79h7.44a0,0,0,0,1,0,0v7.2a0,0,0,0,1,0,0h-7.44a1.43,1.43,0,0,1-1.43-1.43v-4.34A1.43,1.43,0,0,1,969.46,1045.79Z"></path><path class="cls-5" d="M969.46,1057.66h7.44a0,0,0,0,1,0,0v7.2a0,0,0,0,1,0,0h-7.44a1.43,1.43,0,0,1-1.43-1.43v-4.34A1.43,1.43,0,0,1,969.46,1057.66Z"></path><path class="cls-5" d="M1165.67,1057.66h7.44a0,0,0,0,1,0,0v7.2a0,0,0,0,1,0,0h-7.44a1.43,1.43,0,0,1-1.43-1.43v-4.34A1.43,1.43,0,0,1,1165.67,1057.66Z" transform="translate(2337.36 2122.51) rotate(180)"></path><path class="cls-5" d="M1165.67,1045.79h7.44a0,0,0,0,1,0,0v7.2a0,0,0,0,1,0,0h-7.44a1.43,1.43,0,0,1-1.43-1.43v-4.34A1.43,1.43,0,0,1,1165.67,1045.79Z" transform="translate(2337.36 2098.77) rotate(180)"></path><path class="cls-5" d="M1165.67,1033.92h7.44a0,0,0,0,1,0,0v7.2a0,0,0,0,1,0,0h-7.44a1.43,1.43,0,0,1-1.43-1.43v-4.34A1.43,1.43,0,0,1,1165.67,1033.92Z" transform="translate(2337.36 2075.03) rotate(180)"></path><path class="cls-5" d="M1165.67,1022h7.44a0,0,0,0,1,0,0v7.2a0,0,0,0,1,0,0h-7.44a1.43,1.43,0,0,1-1.43-1.43v-4.34A1.43,1.43,0,0,1,1165.67,1022Z" transform="translate(2337.36 2051.29) rotate(180)"></path><path class="cls-5" d="M1165.67,1010.18h7.44a0,0,0,0,1,0,0v7.2a0,0,0,0,1,0,0h-7.44a1.43,1.43,0,0,1-1.43-1.43v-4.34A1.43,1.43,0,0,1,1165.67,1010.18Z" transform="translate(2337.36 2027.56) rotate(180)"></path><path class="cls-5" d="M1165.67,998.31h7.44a0,0,0,0,1,0,0v7.2a0,0,0,0,1,0,0h-7.44a1.43,1.43,0,0,1-1.43-1.43v-4.34A1.43,1.43,0,0,1,1165.67,998.31Z" transform="translate(2337.36 2003.82) rotate(180)"></path><path class="cls-5" d="M1165.67,986.44h7.44a0,0,0,0,1,0,0v7.2a0,0,0,0,1,0,0h-7.44a1.43,1.43,0,0,1-1.43-1.43v-4.34A1.43,1.43,0,0,1,1165.67,986.44Z" transform="translate(2337.36 1980.08) rotate(180)"></path><path class="cls-5" d="M1165.67,974.57h7.44a0,0,0,0,1,0,0v7.2a0,0,0,0,1,0,0h-7.44a1.43,1.43,0,0,1-1.43-1.43V976A1.43,1.43,0,0,1,1165.67,974.57Z" transform="translate(2337.36 1956.34) rotate(180)"></path><path class="cls-5" d="M1165.67,962.7h7.44a0,0,0,0,1,0,0v7.2a0,0,0,0,1,0,0h-7.44a1.43,1.43,0,0,1-1.43-1.43v-4.34A1.43,1.43,0,0,1,1165.67,962.7Z" transform="translate(2337.36 1932.6) rotate(180)"></path><path class="cls-5" d="M1165.67,950.83h7.44a0,0,0,0,1,0,0V958a0,0,0,0,1,0,0h-7.44a1.43,1.43,0,0,1-1.43-1.43v-4.34A1.43,1.43,0,0,1,1165.67,950.83Z" transform="translate(2337.36 1908.87) rotate(180)"></path><path class="cls-5" d="M1165.67,939h7.44a0,0,0,0,1,0,0v7.2a0,0,0,0,1,0,0h-7.44a1.43,1.43,0,0,1-1.43-1.43v-4.34A1.43,1.43,0,0,1,1165.67,939Z" transform="translate(2337.36 1885.13) rotate(180)"></path><path class="cls-5" d="M1165.67,927.1h7.44a0,0,0,0,1,0,0v7.2a0,0,0,0,1,0,0h-7.44a1.43,1.43,0,0,1-1.43-1.43v-4.34A1.43,1.43,0,0,1,1165.67,927.1Z" transform="translate(2337.36 1861.39) rotate(180)"></path><path class="cls-5" d="M1165.67,915.23h7.44a0,0,0,0,1,0,0v7.2a0,0,0,0,1,0,0h-7.44a1.43,1.43,0,0,1-1.43-1.43v-4.34A1.43,1.43,0,0,1,1165.67,915.23Z" transform="translate(2337.36 1837.65) rotate(180)"></path><rect class="cls-5" x="1236.45" y="938.4" width="13.33" height="7.78" transform="translate(2185.41 -300.82) rotate(90)"></rect><rect class="cls-5" x="1250.34" y="938.4" width="13.33" height="7.78" transform="translate(2199.3 -314.71) rotate(90)"></rect><rect class="cls-5" x="1264.24" y="938.4" width="13.33" height="7.78" transform="translate(2213.2 -328.61) rotate(90)"></rect><rect class="cls-5" x="1278.13" y="938.4" width="13.33" height="7.78" transform="translate(2227.09 -342.5) rotate(90)"></rect><rect class="cls-5" x="1236.45" y="850.11" width="13.33" height="7.78" transform="translate(2097.12 -389.12) rotate(90)"></rect><rect class="cls-5" x="1250.34" y="850.11" width="13.33" height="7.78" transform="translate(2111.01 -403.01) rotate(90)"></rect><rect class="cls-5" x="1264.24" y="850.11" width="13.33" height="7.78" transform="translate(2124.9 -416.9) rotate(90)"></rect><rect class="cls-5" x="1278.13" y="850.11" width="13.33" height="7.78" transform="translate(2138.8 -430.79) rotate(90)"></rect><rect class="cls-6" x="1237.27" y="857.15" width="53.38" height="82.34"></rect><path class="cls-5" d="M1488.12,1138.27h19.62a0,0,0,0,1,0,0v31.81a0,0,0,0,1,0,0h-19.62a4,4,0,0,1-4-4v-23.74A4,4,0,0,1,1488.12,1138.27Z"></path><path class="cls-5" d="M1584.52,1138.27h19.62a0,0,0,0,1,0,0v31.81a0,0,0,0,1,0,0h-19.62a4,4,0,0,1-4-4v-23.74A4,4,0,0,1,1584.52,1138.27Z" transform="translate(3184.62 2308.36) rotate(180)"></path><rect class="cls-6" x="1522.66" y="1118.41" width="41.71" height="71.53" transform="translate(2697.69 -389.33) rotate(90)"></rect><rect class="cls-7" x="1522.66" y="1118.41" width="41.71" height="71.53" transform="translate(2697.69 -389.33) rotate(90)"></rect><rect class="cls-6" x="1401.22" y="1119.98" width="56.49" height="71.53" rx="4.13" transform="translate(2585.21 -273.73) rotate(90)"></rect><rect class="cls-7" x="1401.22" y="1119.98" width="56.49" height="71.53" rx="3.96" transform="translate(2585.21 -273.73) rotate(90)"></rect><path class="cls-7" d="M1728.24,1095.76v187.32h-10.79v-44.47a21.47,21.47,0,0,0-42.93,0v44.47h-27.45v-44.47a21.47,21.47,0,0,0-42.93,0v44.47H1576.7v-61.94a4,4,0,0,0-4-4h-34.93a4,4,0,0,0-4,4v61.94h-27.44v-44.47a21.47,21.47,0,0,0-42.94,0v44.47H1436v-44.47a21.47,21.47,0,0,0-42.93,0v44.47h-27.44v-44.47a21.47,21.47,0,0,0-42.94,0v44.47H1295.2v-44.47a21.47,21.47,0,0,0-42.93,0v44.47h-27.62v-61.94a4,4,0,0,0-4-4h-34.94a4,4,0,0,0-4,4v61.94h-27.27v-44.47a21.47,21.47,0,0,0-42.93,0v44.47h-27.44v-44.47a21.47,21.47,0,0,0-42.93,0v44.47H1013.7v-44.47a21.47,21.47,0,0,0-42.93,0v44.47H943.33v-44.47a21.47,21.47,0,0,0-42.93,0v44.47H873v-61.94a4,4,0,0,0-4-4H834a4,4,0,0,0-4,4v61.94H802.58v-44.47a21.47,21.47,0,0,0-42.93,0v44.47H732.21v-44.47a21.47,21.47,0,0,0-42.94,0v44.47H661.83v-44.47a21.47,21.47,0,0,0-42.93,0v44.47H591.46v-44.47a21.47,21.47,0,0,0-42.94,0v44.47H521.08v-61.94a4,4,0,0,0-4-4H482.15a4,4,0,0,0-4,4v61.94H450.71v-44.47a21.47,21.47,0,0,0-42.93,0v44.47H380.33v-44.47a21.47,21.47,0,0,0-42.93,0v44.47H316.81v-584H337.4v44.47a21.47,21.47,0,0,0,42.93,0V699.09h27.45v44.47a21.47,21.47,0,0,0,42.93,0V699.09h27.44V761a4,4,0,0,0,4,4h34.93a4,4,0,0,0,4-4V699.09h27.44v44.47a21.47,21.47,0,0,0,42.94,0V699.09H618.9v44.47a21.47,21.47,0,0,0,42.93,0V699.09h27.44v44.47a21.47,21.47,0,0,0,42.94,0V699.09h27.44v44.47a21.47,21.47,0,0,0,42.93,0V699.09H830V761a4,4,0,0,0,4,4H869a4,4,0,0,0,4-4V699.09H900.4v44.47a21.47,21.47,0,0,0,42.93,0V699.09h27.44v44.47a21.47,21.47,0,0,0,42.93,0V699.09h27.45v44.47a21.47,21.47,0,0,0,42.93,0V699.09h27.44v44.47a21.47,21.47,0,0,0,42.93,0V699.09h27.27V761a4,4,0,0,0,4,4h34.94a4,4,0,0,0,4-4V699.09h27.62v44.47a21.47,21.47,0,0,0,42.93,0V699.09h27.44v44.47a21.47,21.47,0,0,0,42.94,0V699.09H1393v44.47a21.47,21.47,0,0,0,42.93,0V699.09h27.44v44.47a21.47,21.47,0,0,0,42.94,0V699.09h27.44V761a4,4,0,0,0,4,4h34.93a4,4,0,0,0,4-4V699.09h27.44v44.47a21.47,21.47,0,0,0,42.93,0V699.09h27.45v44.47a21.47,21.47,0,0,0,42.93,0V699.09h10.79v186"></path><path class="cls-8" d="M873,699.09V761a4,4,0,0,1-4,4H834a4,4,0,0,1-4-4V699.09Z"></path><path class="cls-1" d="M373.85,699.09a15.16,15.16,0,0,1-30.32,0H337.4v44.47a21.47,21.47,0,0,0,42.93,0V699.09Zm-15.16,59.8a15.16,15.16,0,1,1,15.16-15.16A15.16,15.16,0,0,1,358.69,758.89Z"></path><path class="cls-7" d="M380.33,699.09v44.47a21.47,21.47,0,0,1-42.93,0V699.09h6.13a15.16,15.16,0,0,0,30.32,0Z"></path><circle class="cls-7" cx="358.69" cy="743.74" r="15.16"></circle><path class="cls-1" d="M444.23,699.09a15.16,15.16,0,0,1-30.32,0h-6.13v44.47a21.47,21.47,0,0,0,42.93,0V699.09Zm-15.17,59.8a15.16,15.16,0,1,1,15.17-15.16A15.15,15.15,0,0,1,429.06,758.89Z"></path><path class="cls-7" d="M450.71,699.09v44.47a21.47,21.47,0,0,1-42.93,0V699.09h6.13a15.16,15.16,0,0,0,30.32,0Z"></path><circle class="cls-7" cx="429.07" cy="743.74" r="15.16"></circle><path class="cls-1" d="M514.6,699.09a15.16,15.16,0,0,1-30.32,0h-6.13V761a4,4,0,0,0,4,4h34.93a4,4,0,0,0,4-4V699.09Zm-15.16,59.8a15.16,15.16,0,1,1,15.16-15.16A15.16,15.16,0,0,1,499.44,758.89Z"></path><path class="cls-7" d="M521.08,699.09V761a4,4,0,0,1-4,4H482.15a4,4,0,0,1-4-4V699.09h6.13a15.16,15.16,0,0,0,30.32,0Z"></path><circle class="cls-7" cx="499.44" cy="743.74" r="15.16"></circle><path class="cls-1" d="M866.47,699.09a15.16,15.16,0,0,1-30.32,0H830V761a4,4,0,0,0,4,4H869a4,4,0,0,0,4-4V699.09Zm-15.16,59.8a15.16,15.16,0,1,1,15.16-15.16A15.16,15.16,0,0,1,851.31,758.89Z"></path><path class="cls-7" d="M873,699.09V761a4,4,0,0,1-4,4H834a4,4,0,0,1-4-4V699.09h6.13a15.16,15.16,0,0,0,30.32,0Z"></path><circle class="cls-7" cx="851.31" cy="743.74" r="15.16"></circle><path class="cls-1" d="M1218.17,699.09a15.16,15.16,0,0,1-30.32,0h-6.13V761a4,4,0,0,0,4,4h34.94a4,4,0,0,0,4-4V699.09ZM1203,758.89a15.16,15.16,0,1,1,15.17-15.16A15.15,15.15,0,0,1,1203,758.89Z"></path><path class="cls-7" d="M1224.65,699.09V761a4,4,0,0,1-4,4h-34.94a4,4,0,0,1-4-4V699.09h6.13a15.16,15.16,0,0,0,30.32,0Z"></path><circle class="cls-7" cx="1203.01" cy="743.74" r="15.16"></circle><path class="cls-1" d="M1570.22,699.09a15.16,15.16,0,0,1-30.32,0h-6.13V761a4,4,0,0,0,4,4h34.93a4,4,0,0,0,4-4V699.09Zm-15.17,59.8a15.16,15.16,0,1,1,15.17-15.16A15.15,15.15,0,0,1,1555.05,758.89Z"></path><path class="cls-7" d="M1576.7,699.09V761a4,4,0,0,1-4,4h-34.93a4,4,0,0,1-4-4V699.09h6.13a15.16,15.16,0,0,0,30.32,0Z"></path><circle class="cls-7" cx="1555.06" cy="743.74" r="15.16"></circle><path class="cls-1" d="M585,699.09a15.16,15.16,0,0,1-30.32,0h-6.14v44.47a21.47,21.47,0,0,0,42.94,0V699.09Zm-15.17,59.8A15.16,15.16,0,1,1,585,743.73,15.15,15.15,0,0,1,569.81,758.89Z"></path><path class="cls-7" d="M591.46,699.09v44.47a21.47,21.47,0,0,1-42.94,0V699.09h6.14a15.16,15.16,0,0,0,30.32,0Z"></path><circle class="cls-7" cx="569.82" cy="743.74" r="15.16"></circle><path class="cls-1" d="M655.35,699.09a15.16,15.16,0,0,1-30.32,0H618.9v44.47a21.47,21.47,0,0,0,42.93,0V699.09Zm-15.17,59.8a15.16,15.16,0,1,1,15.17-15.16A15.15,15.15,0,0,1,640.18,758.89Z"></path><path class="cls-7" d="M661.83,699.09v44.47a21.47,21.47,0,0,1-42.93,0V699.09H625a15.16,15.16,0,0,0,30.32,0Z"></path><circle class="cls-7" cx="640.19" cy="743.74" r="15.16"></circle><path class="cls-1" d="M725.72,699.09a15.16,15.16,0,0,1-30.32,0h-6.13v44.47a21.47,21.47,0,0,0,42.94,0V699.09Zm-15.16,59.8a15.16,15.16,0,1,1,15.16-15.16A15.16,15.16,0,0,1,710.56,758.89Z"></path><path class="cls-7" d="M732.21,699.09v44.47a21.47,21.47,0,0,1-42.94,0V699.09h6.13a15.16,15.16,0,0,0,30.32,0Z"></path><circle class="cls-7" cx="710.56" cy="743.74" r="15.16"></circle><path class="cls-1" d="M796.1,699.09a15.16,15.16,0,0,1-30.32,0h-6.13v44.47a21.47,21.47,0,0,0,42.93,0V699.09Zm-15.17,59.8a15.16,15.16,0,1,1,15.17-15.16A15.15,15.15,0,0,1,780.93,758.89Z"></path><path class="cls-7" d="M802.58,699.09v44.47a21.47,21.47,0,0,1-42.93,0V699.09h6.13a15.16,15.16,0,0,0,30.32,0Z"></path><circle class="cls-7" cx="780.94" cy="743.74" r="15.16"></circle><path class="cls-1" d="M936.85,699.09a15.16,15.16,0,0,1-30.32,0H900.4v44.47a21.47,21.47,0,0,0,42.93,0V699.09Zm-15.17,59.8a15.16,15.16,0,1,1,15.17-15.16A15.15,15.15,0,0,1,921.68,758.89Z"></path><path class="cls-7" d="M943.33,699.09v44.47a21.47,21.47,0,0,1-42.93,0V699.09h6.13a15.16,15.16,0,0,0,30.32,0Z"></path><circle class="cls-7" cx="921.69" cy="743.74" r="15.16"></circle><path class="cls-1" d="M1007.22,699.09a15.16,15.16,0,0,1-30.32,0h-6.13v44.47a21.47,21.47,0,0,0,42.93,0V699.09Zm-15.16,59.8a15.16,15.16,0,1,1,15.16-15.16A15.16,15.16,0,0,1,992.06,758.89Z"></path><path class="cls-7" d="M1013.7,699.09v44.47a21.47,21.47,0,0,1-42.93,0V699.09h6.13a15.16,15.16,0,0,0,30.32,0Z"></path><circle class="cls-7" cx="992.06" cy="743.74" r="15.16"></circle><path class="cls-1" d="M1077.6,699.09a15.16,15.16,0,0,1-30.32,0h-6.13v44.47a21.47,21.47,0,0,0,42.93,0V699.09Zm-15.17,59.8a15.16,15.16,0,1,1,15.17-15.16A15.15,15.15,0,0,1,1062.43,758.89Z"></path><path class="cls-7" d="M1084.08,699.09v44.47a21.47,21.47,0,0,1-42.93,0V699.09h6.13a15.16,15.16,0,0,0,30.32,0Z"></path><circle class="cls-7" cx="1062.44" cy="743.74" r="15.16"></circle><path class="cls-1" d="M1148,699.09a15.16,15.16,0,0,1-30.32,0h-6.13v44.47a21.47,21.47,0,0,0,42.93,0V699.09Zm-15.16,59.8A15.16,15.16,0,1,1,1148,743.73,15.16,15.16,0,0,1,1132.81,758.89Z"></path><path class="cls-7" d="M1154.45,699.09v44.47a21.47,21.47,0,0,1-42.93,0V699.09h6.13a15.16,15.16,0,0,0,30.32,0Z"></path><circle class="cls-7" cx="1132.81" cy="743.74" r="15.16"></circle><path class="cls-1" d="M1288.72,699.09a15.16,15.16,0,0,1-30.32,0h-6.13v44.47a21.47,21.47,0,0,0,42.93,0V699.09Zm-15.17,59.8a15.16,15.16,0,1,1,15.17-15.16A15.15,15.15,0,0,1,1273.55,758.89Z"></path><path class="cls-7" d="M1295.2,699.09v44.47a21.47,21.47,0,0,1-42.93,0V699.09h6.13a15.16,15.16,0,0,0,30.32,0Z"></path><circle class="cls-7" cx="1273.56" cy="743.74" r="15.16"></circle><path class="cls-1" d="M1359.09,699.09a15.16,15.16,0,0,1-30.31,0h-6.14v44.47a21.47,21.47,0,0,0,42.94,0V699.09Zm-15.16,59.8a15.16,15.16,0,1,1,15.16-15.16A15.15,15.15,0,0,1,1343.93,758.89Z"></path><path class="cls-7" d="M1365.58,699.09v44.47a21.47,21.47,0,0,1-42.94,0V699.09h6.14a15.16,15.16,0,0,0,30.31,0Z"></path><circle class="cls-7" cx="1343.93" cy="743.74" r="15.16"></circle><path class="cls-1" d="M1429.47,699.09a15.16,15.16,0,0,1-30.32,0H1393v44.47a21.47,21.47,0,0,0,42.93,0V699.09Zm-15.17,59.8a15.16,15.16,0,1,1,15.17-15.16A15.15,15.15,0,0,1,1414.3,758.89Z"></path><path class="cls-7" d="M1436,699.09v44.47a21.47,21.47,0,0,1-42.93,0V699.09h6.13a15.16,15.16,0,0,0,30.32,0Z"></path><circle class="cls-7" cx="1414.31" cy="743.74" r="15.16"></circle><path class="cls-1" d="M1499.84,699.09a15.16,15.16,0,0,1-30.32,0h-6.13v44.47a21.47,21.47,0,0,0,42.94,0V699.09Zm-15.16,59.8a15.16,15.16,0,1,1,15.16-15.16A15.16,15.16,0,0,1,1484.68,758.89Z"></path><path class="cls-7" d="M1506.33,699.09v44.47a21.47,21.47,0,0,1-42.94,0V699.09h6.13a15.16,15.16,0,0,0,30.32,0Z"></path><circle class="cls-7" cx="1484.68" cy="743.74" r="15.16"></circle><path class="cls-1" d="M1640.59,699.09a15.16,15.16,0,0,1-30.32,0h-6.13v44.47a21.47,21.47,0,0,0,42.93,0V699.09Zm-15.16,59.8a15.16,15.16,0,1,1,15.16-15.16A15.16,15.16,0,0,1,1625.43,758.89Z"></path><path class="cls-7" d="M1647.07,699.09v44.47a21.47,21.47,0,0,1-42.93,0V699.09h6.13a15.16,15.16,0,0,0,30.32,0Z"></path><circle class="cls-7" cx="1625.43" cy="743.74" r="15.16"></circle><path class="cls-1" d="M1711,699.09a15.16,15.16,0,0,1-30.32,0h-6.13v44.47a21.47,21.47,0,0,0,42.93,0V699.09Zm-15.17,59.8A15.16,15.16,0,1,1,1711,743.73,15.15,15.15,0,0,1,1695.8,758.89Z"></path><path class="cls-7" d="M1717.45,699.09v44.47a21.47,21.47,0,0,1-42.93,0V699.09h6.13a15.16,15.16,0,0,0,30.32,0Z"></path><circle class="cls-7" cx="1695.81" cy="743.74" r="15.16"></circle><path class="cls-1" d="M358.87,1217.15a21.47,21.47,0,0,0-21.47,21.46v44.47h6.13a15.16,15.16,0,0,1,30.32,0h6.48v-44.47A21.46,21.46,0,0,0,358.87,1217.15Zm-.18,36.44a15.16,15.16,0,1,1,15.16-15.15A15.16,15.16,0,0,1,358.69,1253.59Z"></path><path class="cls-7" d="M380.33,1238.61v44.47h-6.48a15.16,15.16,0,0,0-30.32,0H337.4v-44.47a21.47,21.47,0,0,1,42.93,0Z"></path><circle class="cls-7" cx="358.69" cy="1238.43" r="15.16"></circle><path class="cls-1" d="M429.25,1217.15a21.46,21.46,0,0,0-21.47,21.46v44.47h6.13a15.16,15.16,0,1,1,30.32,0h6.48v-44.47A21.46,21.46,0,0,0,429.25,1217.15Zm-.19,36.44a15.15,15.15,0,1,1,15.17-15.15A15.15,15.15,0,0,1,429.06,1253.59Z"></path><path class="cls-7" d="M450.71,1238.61v44.47h-6.48a15.16,15.16,0,1,0-30.32,0h-6.13v-44.47a21.47,21.47,0,0,1,42.93,0Z"></path><circle class="cls-7" cx="429.07" cy="1238.43" r="15.16"></circle><path class="cls-1" d="M517.08,1217.15H482.15a4,4,0,0,0-4,4v61.94h6.13a15.16,15.16,0,0,1,30.32,0h6.48v-61.94A4,4,0,0,0,517.08,1217.15Zm-17.64,36.44a15.16,15.16,0,1,1,15.16-15.15A15.16,15.16,0,0,1,499.44,1253.59Z"></path><path class="cls-7" d="M521.08,1221.14v61.94H514.6a15.16,15.16,0,0,0-30.32,0h-6.13v-61.94a4,4,0,0,1,4-4h34.93A4,4,0,0,1,521.08,1221.14Z"></path><circle class="cls-7" cx="499.44" cy="1238.43" r="15.16"></circle><path class="cls-1" d="M869,1217.15H834a4,4,0,0,0-4,4v61.94h6.13a15.16,15.16,0,0,1,30.32,0H873v-61.94A4,4,0,0,0,869,1217.15Zm-17.64,36.44a15.16,15.16,0,1,1,15.16-15.15A15.16,15.16,0,0,1,851.31,1253.59Z"></path><path class="cls-7" d="M873,1221.14v61.94h-6.49a15.16,15.16,0,0,0-30.32,0H830v-61.94a4,4,0,0,1,4-4H869A4,4,0,0,1,873,1221.14Z"></path><circle class="cls-7" cx="851.31" cy="1238.43" r="15.16"></circle><path class="cls-1" d="M1220.65,1217.15h-34.94a4,4,0,0,0-4,4v61.94h6.13a15.16,15.16,0,1,1,30.32,0h6.48v-61.94A4,4,0,0,0,1220.65,1217.15ZM1203,1253.59a15.15,15.15,0,1,1,15.17-15.15A15.16,15.16,0,0,1,1203,1253.59Z"></path><path class="cls-7" d="M1224.65,1221.14v61.94h-6.48a15.16,15.16,0,1,0-30.32,0h-6.13v-61.94a4,4,0,0,1,4-4h34.94A4,4,0,0,1,1224.65,1221.14Z"></path><circle class="cls-7" cx="1203.01" cy="1238.43" r="15.16"></circle><path class="cls-1" d="M1572.7,1217.15h-34.93a4,4,0,0,0-4,4v61.94h6.13a15.16,15.16,0,1,1,30.32,0h6.48v-61.94A4,4,0,0,0,1572.7,1217.15Zm-17.65,36.44a15.15,15.15,0,1,1,15.17-15.15A15.16,15.16,0,0,1,1555.05,1253.59Z"></path><path class="cls-7" d="M1576.7,1221.14v61.94h-6.48a15.16,15.16,0,1,0-30.32,0h-6.13v-61.94a4,4,0,0,1,4-4h34.93A4,4,0,0,1,1576.7,1221.14Z"></path><circle class="cls-7" cx="1555.06" cy="1238.43" r="15.16"></circle><path class="cls-1" d="M570,1217.15a21.47,21.47,0,0,0-21.48,21.46v44.47h6.14a15.16,15.16,0,1,1,30.32,0h6.48v-44.47A21.46,21.46,0,0,0,570,1217.15Zm-.19,36.44A15.15,15.15,0,1,1,585,1238.44,15.15,15.15,0,0,1,569.81,1253.59Z"></path><path class="cls-7" d="M591.46,1238.61v44.47H585a15.16,15.16,0,1,0-30.32,0h-6.14v-44.47a21.47,21.47,0,0,1,42.94,0Z"></path><circle class="cls-7" cx="569.82" cy="1238.43" r="15.16"></circle><path class="cls-1" d="M640.37,1217.15a21.47,21.47,0,0,0-21.47,21.46v44.47H625a15.16,15.16,0,1,1,30.32,0h6.48v-44.47A21.46,21.46,0,0,0,640.37,1217.15Zm-.19,36.44a15.15,15.15,0,1,1,15.17-15.15A15.16,15.16,0,0,1,640.18,1253.59Z"></path><path class="cls-7" d="M661.83,1238.61v44.47h-6.48a15.16,15.16,0,1,0-30.32,0H618.9v-44.47a21.47,21.47,0,0,1,42.93,0Z"></path><circle class="cls-7" cx="640.19" cy="1238.43" r="15.16"></circle><path class="cls-1" d="M710.75,1217.15a21.47,21.47,0,0,0-21.48,21.46v44.47h6.13a15.16,15.16,0,0,1,30.32,0h6.49v-44.47A21.46,21.46,0,0,0,710.75,1217.15Zm-.19,36.44a15.16,15.16,0,1,1,15.16-15.15A15.16,15.16,0,0,1,710.56,1253.59Z"></path><path class="cls-7" d="M732.21,1238.61v44.47h-6.49a15.16,15.16,0,0,0-30.32,0h-6.13v-44.47a21.47,21.47,0,0,1,42.94,0Z"></path><circle class="cls-7" cx="710.56" cy="1238.43" r="15.16"></circle><path class="cls-1" d="M781.12,1217.15a21.47,21.47,0,0,0-21.47,21.46v44.47h6.13a15.16,15.16,0,1,1,30.32,0h6.48v-44.47A21.46,21.46,0,0,0,781.12,1217.15Zm-.19,36.44a15.15,15.15,0,1,1,15.17-15.15A15.16,15.16,0,0,1,780.93,1253.59Z"></path><path class="cls-7" d="M802.58,1238.61v44.47H796.1a15.16,15.16,0,1,0-30.32,0h-6.13v-44.47a21.47,21.47,0,0,1,42.93,0Z"></path><circle class="cls-7" cx="780.94" cy="1238.43" r="15.16"></circle><path class="cls-1" d="M921.87,1217.15a21.47,21.47,0,0,0-21.47,21.46v44.47h6.13a15.16,15.16,0,1,1,30.32,0h6.48v-44.47A21.46,21.46,0,0,0,921.87,1217.15Zm-.19,36.44a15.15,15.15,0,1,1,15.17-15.15A15.16,15.16,0,0,1,921.68,1253.59Z"></path><path class="cls-7" d="M943.33,1238.61v44.47h-6.48a15.16,15.16,0,1,0-30.32,0H900.4v-44.47a21.47,21.47,0,0,1,42.93,0Z"></path><circle class="cls-7" cx="921.69" cy="1238.43" r="15.16"></circle><path class="cls-1" d="M992.24,1217.15a21.47,21.47,0,0,0-21.47,21.46v44.47h6.13a15.16,15.16,0,0,1,30.32,0h6.48v-44.47A21.46,21.46,0,0,0,992.24,1217.15Zm-.18,36.44a15.16,15.16,0,1,1,15.16-15.15A15.16,15.16,0,0,1,992.06,1253.59Z"></path><path class="cls-7" d="M1013.7,1238.61v44.47h-6.48a15.16,15.16,0,0,0-30.32,0h-6.13v-44.47a21.47,21.47,0,0,1,42.93,0Z"></path><circle class="cls-7" cx="992.06" cy="1238.43" r="15.16"></circle><path class="cls-1" d="M1062.62,1217.15a21.46,21.46,0,0,0-21.47,21.46v44.47h6.13a15.16,15.16,0,1,1,30.32,0h6.48v-44.47A21.46,21.46,0,0,0,1062.62,1217.15Zm-.19,36.44a15.15,15.15,0,1,1,15.17-15.15A15.15,15.15,0,0,1,1062.43,1253.59Z"></path><path class="cls-7" d="M1084.08,1238.61v44.47h-6.48a15.16,15.16,0,1,0-30.32,0h-6.13v-44.47a21.47,21.47,0,0,1,42.93,0Z"></path><circle class="cls-7" cx="1062.44" cy="1238.43" r="15.16"></circle><path class="cls-1" d="M1133,1217.15a21.47,21.47,0,0,0-21.47,21.46v44.47h6.13a15.16,15.16,0,0,1,30.32,0h6.48v-44.47A21.46,21.46,0,0,0,1133,1217.15Zm-.18,36.44a15.16,15.16,0,1,1,15.16-15.15A15.16,15.16,0,0,1,1132.81,1253.59Z"></path><path class="cls-7" d="M1154.45,1238.61v44.47H1148a15.16,15.16,0,0,0-30.32,0h-6.13v-44.47a21.47,21.47,0,0,1,42.93,0Z"></path><circle class="cls-7" cx="1132.81" cy="1238.43" r="15.16"></circle><path class="cls-1" d="M1273.74,1217.15a21.47,21.47,0,0,0-21.47,21.46v44.47h6.13a15.16,15.16,0,1,1,30.32,0h6.48v-44.47A21.46,21.46,0,0,0,1273.74,1217.15Zm-.19,36.44a15.15,15.15,0,1,1,15.17-15.15A15.16,15.16,0,0,1,1273.55,1253.59Z"></path><path class="cls-7" d="M1295.2,1238.61v44.47h-6.48a15.16,15.16,0,1,0-30.32,0h-6.13v-44.47a21.47,21.47,0,0,1,42.93,0Z"></path><circle class="cls-7" cx="1273.56" cy="1238.43" r="15.16"></circle><path class="cls-1" d="M1344.12,1217.15a21.47,21.47,0,0,0-21.48,21.46v44.47h6.14a15.16,15.16,0,1,1,30.31,0h6.49v-44.47A21.46,21.46,0,0,0,1344.12,1217.15Zm-.19,36.44a15.16,15.16,0,1,1,15.16-15.15A15.15,15.15,0,0,1,1343.93,1253.59Z"></path><path class="cls-7" d="M1365.58,1238.61v44.47h-6.49a15.16,15.16,0,1,0-30.31,0h-6.14v-44.47a21.47,21.47,0,0,1,42.94,0Z"></path><circle class="cls-7" cx="1343.93" cy="1238.43" r="15.16"></circle><path class="cls-1" d="M1414.49,1217.15a21.47,21.47,0,0,0-21.47,21.46v44.47h6.13a15.16,15.16,0,1,1,30.32,0H1436v-44.47A21.46,21.46,0,0,0,1414.49,1217.15Zm-.19,36.44a15.15,15.15,0,1,1,15.17-15.15A15.16,15.16,0,0,1,1414.3,1253.59Z"></path><path class="cls-7" d="M1436,1238.61v44.47h-6.48a15.16,15.16,0,1,0-30.32,0H1393v-44.47a21.47,21.47,0,0,1,42.93,0Z"></path><circle class="cls-7" cx="1414.31" cy="1238.43" r="15.16"></circle><path class="cls-1" d="M1484.86,1217.15a21.47,21.47,0,0,0-21.47,21.46v44.47h6.13a15.16,15.16,0,0,1,30.32,0h6.49v-44.47A21.46,21.46,0,0,0,1484.86,1217.15Zm-.18,36.44a15.16,15.16,0,1,1,15.16-15.15A15.16,15.16,0,0,1,1484.68,1253.59Z"></path><path class="cls-7" d="M1506.33,1238.61v44.47h-6.49a15.16,15.16,0,0,0-30.32,0h-6.13v-44.47a21.47,21.47,0,0,1,42.94,0Z"></path><circle class="cls-7" cx="1484.68" cy="1238.43" r="15.16"></circle><path class="cls-1" d="M1625.61,1217.15a21.47,21.47,0,0,0-21.47,21.46v44.47h6.13a15.16,15.16,0,1,1,30.32,0h6.48v-44.47A21.46,21.46,0,0,0,1625.61,1217.15Zm-.18,36.44a15.16,15.16,0,1,1,15.16-15.15A15.16,15.16,0,0,1,1625.43,1253.59Z"></path><path class="cls-7" d="M1647.07,1238.61v44.47h-6.48a15.16,15.16,0,1,0-30.32,0h-6.13v-44.47a21.47,21.47,0,0,1,42.93,0Z"></path><circle class="cls-7" cx="1625.43" cy="1238.43" r="15.16"></circle><path class="cls-1" d="M1696,1217.15a21.46,21.46,0,0,0-21.47,21.46v44.47h6.13a15.16,15.16,0,1,1,30.32,0h6.48v-44.47A21.46,21.46,0,0,0,1696,1217.15Zm-.19,36.44a15.15,15.15,0,1,1,15.17-15.15A15.15,15.15,0,0,1,1695.8,1253.59Z"></path><path class="cls-7" d="M1717.45,1238.61v44.47H1711a15.16,15.16,0,1,0-30.32,0h-6.13v-44.47a21.47,21.47,0,0,1,42.93,0Z"></path><circle class="cls-7" cx="1695.81" cy="1238.43" r="15.16"></circle><path class="cls-1" d="M373.85,1108.11a40.23,40.23,0,1,0,40.23,40.23A40.23,40.23,0,0,0,373.85,1108.11Zm0,68.82a28.58,28.58,0,1,1,28.59-28.59A28.6,28.6,0,0,1,373.85,1176.93Z"></path><path class="cls-7" d="M373.85,1108.11a40.23,40.23,0,1,0,40.23,40.23A40.23,40.23,0,0,0,373.85,1108.11Zm0,68.82a28.58,28.58,0,1,1,28.59-28.59A28.6,28.6,0,0,1,373.85,1176.93Z"></path><path class="cls-1" d="M373.85,792.49a40.23,40.23,0,1,0,40.23,40.23A40.23,40.23,0,0,0,373.85,792.49Zm0,68.81a28.58,28.58,0,1,1,28.59-28.58A28.59,28.59,0,0,1,373.85,861.3Z"></path><path class="cls-7" d="M373.85,792.49a40.23,40.23,0,1,0,40.23,40.23A40.23,40.23,0,0,0,373.85,792.49Zm0,68.81a28.58,28.58,0,1,1,28.59-28.58A28.59,28.59,0,0,1,373.85,861.3Z"></path><path class="cls-1" d="M1666.23,1108.11a40.23,40.23,0,1,0,40.23,40.23A40.23,40.23,0,0,0,1666.23,1108.11Zm0,68.82a28.58,28.58,0,1,1,28.59-28.59A28.6,28.6,0,0,1,1666.23,1176.93Z"></path><path class="cls-7" d="M1666.23,1108.11a40.23,40.23,0,1,0,40.23,40.23A40.24,40.24,0,0,0,1666.23,1108.11Zm0,68.82a28.58,28.58,0,1,1,28.58-28.59A28.59,28.59,0,0,1,1666.23,1176.93Z"></path><path class="cls-1" d="M1666.22,794.13a40.24,40.24,0,1,0,40.24,40.23A40.23,40.23,0,0,0,1666.22,794.13Zm0,68.82a28.58,28.58,0,1,1,28.59-28.59A28.59,28.59,0,0,1,1666.22,863Z"></path><path class="cls-7" d="M1666.22,794.13a40.24,40.24,0,1,0,40.24,40.23A40.23,40.23,0,0,0,1666.22,794.13Zm0,68.82a28.58,28.58,0,1,1,28.59-28.59A28.59,28.59,0,0,1,1666.22,863Z"></path><path class="cls-5" d="M1765.74,1095.76H1616.42V885.12h149.31a.71.71,0,0,1,.23,1.39l-12.3,4.23a.72.72,0,0,0-.49.67v4.14a.7.7,0,0,0,.39.63l16,8.46a.72.72,0,0,1,.38.63v170.34a.72.72,0,0,1-.38.63l-16,8.46a.7.7,0,0,0-.39.63v4.13a.72.72,0,0,0,.49.67l12.31,4.24A.71.71,0,0,1,1765.74,1095.76Z"></path><path class="cls-7" d="M1765.74,1095.76H1616.42V885.12h149.31a.71.71,0,0,1,.23,1.39l-12.3,4.23a.72.72,0,0,0-.49.67v4.14a.7.7,0,0,0,.39.63l16,8.46a.72.72,0,0,1,.38.63v170.34a.72.72,0,0,1-.38.63l-16,8.46a.7.7,0,0,0-.39.63v4.13a.72.72,0,0,0,.49.67l12.31,4.24A.71.71,0,0,1,1765.74,1095.76Z"></path><polygon class="cls-9" points="1690.43 915.04 1690.43 937.61 1710.59 937.61 1720.48 942.29 1731.76 942.29 1731.76 910.93 1720.48 910.93 1710.59 915.33 1690.43 915.04"></polygon><polygon class="cls-9" points="1690.43 1046.08 1690.43 1068.65 1710.59 1068.65 1720.48 1073.34 1731.76 1073.34 1731.76 1041.98 1720.48 1041.98 1710.59 1046.38 1690.43 1046.08"></polygon><polygon class="cls-7" points="1690.43 915.04 1690.43 937.61 1710.59 937.61 1720.48 942.29 1731.76 942.29 1731.76 910.93 1720.48 910.93 1710.59 915.33 1690.43 915.04"></polygon><polygon class="cls-7" points="1690.43 1046.08 1690.43 1068.65 1710.59 1068.65 1720.48 1073.34 1731.76 1073.34 1731.76 1041.98 1720.48 1041.98 1710.59 1046.38 1690.43 1046.08"></polygon><rect class="cls-6" x="1626.37" y="1028.65" width="21.96" height="44.69"></rect><rect class="cls-6" x="1626.37" y="904.27" width="21.96" height="44.69"></rect><rect class="cls-6" x="1632.87" y="967.64" width="7.72" height="47.91"></rect><path class="cls-5" d="M1327.75,857.15h14.61a0,0,0,0,1,0,0v17.64a0,0,0,0,1,0,0h-14.61a3,3,0,0,1-3-3V860.18A3,3,0,0,1,1327.75,857.15Z"></path><path class="cls-5" d="M1327.75,915.33h14.61a0,0,0,0,1,0,0V933a0,0,0,0,1,0,0h-14.61a3,3,0,0,1-3-3V918.36A3,3,0,0,1,1327.75,915.33Z"></path><path class="cls-5" d="M1463.72,857.15h14.61a0,0,0,0,1,0,0v17.64a0,0,0,0,1,0,0h-14.61a3,3,0,0,1-3-3V860.18A3,3,0,0,1,1463.72,857.15Z" transform="translate(2939.02 1731.94) rotate(-180)"></path><path class="cls-5" d="M1463.72,915.33h14.61a0,0,0,0,1,0,0V933a0,0,0,0,1,0,0h-14.61a3,3,0,0,1-3-3V918.36A3,3,0,0,1,1463.72,915.33Z" transform="translate(2939.02 1848.3) rotate(-180)"></path><rect class="cls-9" x="1342.36" y="848.72" width="118.33" height="94.36" rx="5.12"></rect><rect class="cls-10" x="1359.85" y="865.97" width="83.36" height="59.86" rx="29.93"></rect><path class="cls-5" d="M1369.32,848.72a27,27,0,0,1-27,27V853.84a5.12,5.12,0,0,1,5.12-5.12Z"></path><path class="cls-5" d="M1460.69,853.84v21.84a27,27,0,0,1-27-27h21.84A5.12,5.12,0,0,1,1460.69,853.84Z"></path><path class="cls-5" d="M1369.31,943.07h-21.83a5.11,5.11,0,0,1-5.12-5.11V915.33A27,27,0,0,1,1369.31,943.07Z"></path><path class="cls-5" d="M1460.69,915.33V938a5.11,5.11,0,0,1-5.12,5.11h-21.83A27,27,0,0,1,1460.69,915.33Z"></path><rect class="cls-7" x="1342.36" y="848.72" width="118.33" height="94.36" rx="5.12"></rect><rect class="cls-5" x="1372.33" y="1008.01" width="13.33" height="7.78"></rect><rect class="cls-5" x="1372.33" y="1021.54" width="13.33" height="7.78"></rect><rect class="cls-5" x="1372.33" y="1035.07" width="13.33" height="7.78"></rect><rect class="cls-5" x="1372.33" y="1048.6" width="13.33" height="7.78"></rect><rect class="cls-5" x="1372.33" y="1062.13" width="13.33" height="7.78"></rect><rect class="cls-5" x="1372.33" y="1075.66" width="13.33" height="7.78"></rect><rect class="cls-5" x="1372.33" y="1089.2" width="13.33" height="7.78"></rect><rect class="cls-5" x="1467.95" y="1008.01" width="13.33" height="7.78"></rect><rect class="cls-5" x="1467.95" y="1021.54" width="13.33" height="7.78"></rect><rect class="cls-5" x="1467.95" y="1035.07" width="13.33" height="7.78"></rect><rect class="cls-5" x="1467.95" y="1048.6" width="13.33" height="7.78"></rect><rect class="cls-5" x="1467.95" y="1062.13" width="13.33" height="7.78"></rect><rect class="cls-5" x="1467.95" y="1075.66" width="13.33" height="7.78"></rect><rect class="cls-5" x="1467.95" y="1089.2" width="13.33" height="7.78"></rect><rect class="cls-6" x="1385.66" y="998.46" width="82.29" height="108.71"></rect><rect class="cls-7" x="1385.66" y="998.46" width="82.29" height="108.71"></rect><rect class="cls-7" x="1237.27" y="857.15" width="53.38" height="82.34"></rect><rect class="cls-6" x="976.9" y="895.9" width="187.34" height="189.99"></rect><rect class="cls-7" x="976.9" y="895.9" width="187.34" height="189.99"></rect><rect class="cls-1" x="860.61" y="818.49" width="61.26" height="84.66" rx="3.65"></rect><rect class="cls-7" x="860.61" y="818.49" width="61.26" height="84.66" rx="3.65"></rect><rect class="cls-5" x="866.47" y="824.74" width="49.43" height="73.59" rx="4.54"></rect><rect class="cls-11" x="548.73" y="828.31" width="278.11" height="325.39" rx="10.93"></rect><rect class="cls-5" x="561.61" y="843.28" width="252.35" height="295.47"></rect><rect class="cls-12" x="548.73" y="828.31" width="278.11" height="325.39" rx="10.93"></rect><rect class="cls-12" x="561.61" y="843.28" width="252.35" height="295.47"></rect><rect class="cls-6" x="1224.65" y="1148.35" width="22.36" height="40.22" rx="2.91"></rect><rect class="cls-7" x="1224.65" y="1148.35" width="22.36" height="40.22" rx="2.91"></rect><rect class="cls-13" x="1253.12" y="1003.39" width="42.09" height="82.49" rx="5.49"></rect><path class="cls-14" d="M1290.65,1025.12v39.5a22.68,22.68,0,0,0-33.64-.6v-38.3a22.7,22.7,0,0,0,33.64-.6Z"></path><path class="cls-5" d="M1290.65,1021v4.08a22.7,22.7,0,0,1-33.64.6V1021a7.71,7.71,0,0,1,7.71-7.71h18.22A7.71,7.71,0,0,1,1290.65,1021Z"></path><path class="cls-5" d="M1290.65,1064.62v4.32a6.72,6.72,0,0,1-6.72,6.72h-20.2a6.72,6.72,0,0,1-6.72-6.72V1064a22.68,22.68,0,0,1,33.64.6Z"></path><rect class="cls-13" x="1300.28" y="1003.39" width="42.09" height="82.49" rx="5.49"></rect><path class="cls-14" d="M1337.81,1025.12v39.5a22.68,22.68,0,0,0-33.64-.6v-38.3a22.7,22.7,0,0,0,33.64-.6Z"></path><path class="cls-5" d="M1337.81,1021v4.08a22.7,22.7,0,0,1-33.64.6V1021a7.71,7.71,0,0,1,7.7-7.71h18.23A7.71,7.71,0,0,1,1337.81,1021Z"></path><path class="cls-5" d="M1337.81,1064.62v4.32a6.72,6.72,0,0,1-6.72,6.72h-20.2a6.72,6.72,0,0,1-6.72-6.72V1064a22.68,22.68,0,0,1,33.64.6Z"></path><rect class="cls-13" x="1499.84" y="1003.39" width="42.09" height="82.49" rx="5.49"></rect><path class="cls-14" d="M1537.37,1025.12v39.5a22.68,22.68,0,0,0-33.64-.6v-38.3a22.7,22.7,0,0,0,33.64-.6Z"></path><path class="cls-5" d="M1537.37,1021v4.08a22.7,22.7,0,0,1-33.64.6V1021a7.71,7.71,0,0,1,7.71-7.71h18.22A7.71,7.71,0,0,1,1537.37,1021Z"></path><path class="cls-5" d="M1537.37,1064.62v4.32a6.72,6.72,0,0,1-6.72,6.72h-20.2a6.72,6.72,0,0,1-6.72-6.72V1064a22.68,22.68,0,0,1,33.64.6Z"></path><rect class="cls-13" x="836.16" y="969.9" width="68.35" height="218.67"></rect><path class="cls-1" d="M870.33,1125.46a22.89,22.89,0,1,0,22.89,22.9A22.9,22.9,0,0,0,870.33,1125.46Zm0,38.74a15.85,15.85,0,1,1,15.85-15.84A15.84,15.84,0,0,1,870.33,1164.2Z"></path><path class="cls-5" d="M886.18,1148.36a15.85,15.85,0,1,1-15.85-15.86A15.84,15.84,0,0,1,886.18,1148.36Z"></path><path class="cls-12" d="M870.33,1125.46a22.89,22.89,0,1,0,22.89,22.9A22.9,22.9,0,0,0,870.33,1125.46Zm0,38.74a15.85,15.85,0,1,1,15.85-15.84A15.84,15.84,0,0,1,870.33,1164.2Z"></path><path class="cls-1" d="M870.33,1052.77a22.9,22.9,0,1,0,22.89,22.9A22.9,22.9,0,0,0,870.33,1052.77Zm0,38.74a15.85,15.85,0,1,1,15.85-15.84A15.84,15.84,0,0,1,870.33,1091.51Z"></path><path class="cls-5" d="M886.18,1075.67a15.85,15.85,0,1,1-15.85-15.86A15.84,15.84,0,0,1,886.18,1075.67Z"></path><path class="cls-12" d="M870.33,1052.77a22.9,22.9,0,1,0,22.89,22.9A22.9,22.9,0,0,0,870.33,1052.77Zm0,38.74a15.85,15.85,0,1,1,15.85-15.84A15.84,15.84,0,0,1,870.33,1091.51Z"></path><path class="cls-1" d="M870.33,1021.36a15.85,15.85,0,1,1,15.85-15.85A15.84,15.84,0,0,1,870.33,1021.36Z"></path><path class="cls-5" d="M886.18,1005.51a15.85,15.85,0,1,1-15.85-15.85A15.84,15.84,0,0,1,886.18,1005.51Z"></path><path class="cls-12" d="M893.22,1005.51v-22.9H847.43v45.79h45.79Zm-22.89,15.85a15.85,15.85,0,1,1,15.85-15.85A15.84,15.84,0,0,1,870.33,1021.36Z"></path><circle class="cls-7" cx="1517.5" cy="829.77" r="14.51"></circle><circle class="cls-7" cx="1517.5" cy="829.77" r="24.43"></circle><rect class="cls-14" x="1203.39" y="967.86" width="8.64" height="8.9" rx="1.56" transform="translate(235.4 2180.02) rotate(-90)"></rect><rect class="cls-5" x="1211.42" y="970.26" width="8.53" height="4.2" rx="1.06" transform="translate(243.33 2188.05) rotate(-90)"></rect><rect class="cls-5" x="1195.63" y="970.26" width="8.53" height="4.2" rx="1.06" transform="translate(227.54 2172.26) rotate(-90)"></rect><rect class="cls-14" x="926.23" y="989.19" width="8.64" height="8.9" rx="1.56" transform="translate(-63.1 1924.18) rotate(-90)"></rect><rect class="cls-5" x="934.26" y="991.59" width="8.53" height="4.2" rx="1.06" transform="translate(-55.16 1932.22) rotate(-90)"></rect><rect class="cls-5" x="918.47" y="991.59" width="8.53" height="4.2" rx="1.06" transform="translate(-70.96 1916.42) rotate(-90)"></rect><rect class="cls-14" x="895.99" y="921.38" width="8.64" height="8.9" rx="1.56" transform="translate(-25.52 1826.14) rotate(-90)"></rect><rect class="cls-5" x="904.03" y="923.78" width="8.53" height="4.2" rx="1.06" transform="translate(-17.59 1834.17) rotate(-90)"></rect><rect class="cls-5" x="888.23" y="923.78" width="8.53" height="4.2" rx="1.06" transform="translate(-33.38 1818.38) rotate(-90)"></rect><rect class="cls-14" x="856.2" y="921.38" width="8.64" height="8.9" rx="1.56" transform="translate(-65.31 1786.35) rotate(-90)"></rect><rect class="cls-5" x="864.23" y="923.78" width="8.53" height="4.2" rx="1.06" transform="translate(-57.38 1794.38) rotate(-90)"></rect><rect class="cls-5" x="848.44" y="923.78" width="8.53" height="4.2" rx="1.06" transform="translate(-73.17 1778.59) rotate(-90)"></rect><rect class="cls-14" x="926.23" y="1006.61" width="8.64" height="8.9" rx="1.56" transform="translate(-80.52 1941.61) rotate(-90)"></rect><rect class="cls-5" x="934.26" y="1009.01" width="8.53" height="4.2" rx="1.06" transform="translate(-72.59 1949.64) rotate(-90)"></rect><rect class="cls-5" x="918.47" y="1009.01" width="8.53" height="4.2" rx="1.06" transform="translate(-88.38 1933.85) rotate(-90)"></rect><rect class="cls-14" x="1141.07" y="861.59" width="8.64" height="8.9" rx="1.56"></rect><rect class="cls-5" x="1141.07" y="871.92" width="8.53" height="4.2" rx="1.06"></rect><rect class="cls-5" x="1141.07" y="856.13" width="8.53" height="4.2" rx="1.06"></rect><rect class="cls-14" x="1036.97" y="861.59" width="8.64" height="8.9" rx="1.56"></rect><rect class="cls-5" x="1036.97" y="871.92" width="8.53" height="4.2" rx="1.06"></rect><rect class="cls-5" x="1036.97" y="856.13" width="8.53" height="4.2" rx="1.06"></rect><rect class="cls-14" x="1203.39" y="986.63" width="8.64" height="8.9" rx="1.56" transform="translate(216.62 2198.79) rotate(-90)"></rect><rect class="cls-5" x="1211.42" y="989.03" width="8.53" height="4.2" rx="1.06" transform="translate(224.56 2206.83) rotate(-90)"></rect><rect class="cls-5" x="1195.63" y="989.03" width="8.53" height="4.2" rx="1.06" transform="translate(208.76 2191.03) rotate(-90)"></rect><rect class="cls-14" x="1347.96" y="980.8" width="8.64" height="8.9" rx="1.56" transform="translate(367.02 2337.52) rotate(-90)"></rect><rect class="cls-5" x="1355.99" y="983.2" width="8.53" height="4.2" rx="1.06" transform="translate(374.95 2345.55) rotate(-90)"></rect><rect class="cls-5" x="1340.19" y="983.2" width="8.53" height="4.2" rx="1.06" transform="translate(359.16 2329.76) rotate(-90)"></rect><rect class="cls-14" x="1145.39" y="1110.7" width="8.64" height="8.9" rx="1.56"></rect><rect class="cls-5" x="1145.39" y="1121.03" width="8.53" height="4.2" rx="1.06"></rect><rect class="cls-5" x="1145.39" y="1105.24" width="8.53" height="4.2" rx="1.06"></rect><rect class="cls-14" x="1025.36" y="1112.51" width="8.64" height="8.9" rx="1.56" transform="translate(1091.4 -400.94) rotate(45)"></rect><rect class="cls-5" x="1019.73" y="1120.47" width="8.53" height="4.2" rx="1.06" transform="translate(1093.7 -395.28) rotate(45)"></rect><rect class="cls-5" x="1030.9" y="1109.3" width="8.53" height="4.2" rx="1.06" transform="translate(1089.08 -406.45) rotate(45)"></rect><rect class="cls-6" x="1203.39" y="1005.4" width="8.64" height="8.9" rx="1.56" transform="translate(197.85 2217.57) rotate(-90)"></rect><rect class="cls-5" x="1211.42" y="1007.81" width="8.53" height="4.2" rx="1.06" transform="translate(205.78 2225.6) rotate(-90)"></rect><rect class="cls-5" x="1195.63" y="1007.81" width="8.53" height="4.2" rx="1.06" transform="translate(189.99 2209.81) rotate(-90)"></rect><rect class="cls-6" x="883.88" y="940.7" width="8.64" height="8.9" rx="1.56" transform="translate(-56.96 1833.34) rotate(-90)"></rect><rect class="cls-5" x="891.91" y="943.1" width="8.53" height="4.2" rx="1.06" transform="translate(-49.03 1841.38) rotate(-90)"></rect><rect class="cls-5" x="876.12" y="943.1" width="8.53" height="4.2" rx="1.06" transform="translate(-64.82 1825.58) rotate(-90)"></rect><rect class="cls-6" x="1303.36" y="914.29" width="8.64" height="8.9" rx="1.56"></rect><rect class="cls-5" x="1303.36" y="924.62" width="8.53" height="4.2" rx="1.06"></rect><rect class="cls-5" x="1303.36" y="908.83" width="8.53" height="4.2" rx="1.06"></rect><rect class="cls-6" x="1510.65" y="899.74" width="8.64" height="8.9" rx="1.56"></rect><rect class="cls-5" x="1510.65" y="910.07" width="8.53" height="4.2" rx="1.06"></rect><rect class="cls-5" x="1510.65" y="894.27" width="8.53" height="4.2" rx="1.06"></rect><rect class="cls-6" x="1537.6" y="910.79" width="8.64" height="8.9" rx="1.56"></rect><rect class="cls-5" x="1537.61" y="921.12" width="8.53" height="4.2" rx="1.06"></rect><rect class="cls-5" x="1537.61" y="905.33" width="8.53" height="4.2" rx="1.06"></rect><rect class="cls-6" x="1347.96" y="1012.84" width="8.64" height="8.9" rx="1.56"></rect><rect class="cls-5" x="1347.96" y="1023.17" width="8.53" height="4.2" rx="1.06"></rect><rect class="cls-5" x="1347.96" y="1007.38" width="8.53" height="4.2" rx="1.06"></rect><rect class="cls-6" x="1347.96" y="1042.31" width="8.64" height="8.9" rx="1.56"></rect><rect class="cls-5" x="1347.96" y="1052.65" width="8.53" height="4.2" rx="1.06"></rect><rect class="cls-5" x="1347.96" y="1036.85" width="8.53" height="4.2" rx="1.06"></rect><rect class="cls-6" x="1071.01" y="1155.66" width="8.64" height="8.9" rx="1.56" transform="translate(2235.44 84.79) rotate(90)"></rect><rect class="cls-5" x="1063.08" y="1157.96" width="8.53" height="4.2" rx="1.06" transform="translate(2227.41 92.72) rotate(90)"></rect><rect class="cls-5" x="1078.87" y="1157.96" width="8.53" height="4.2" rx="1.06" transform="translate(2243.2 76.93) rotate(90)"></rect><rect class="cls-6" x="1025.26" y="1167" width="8.64" height="8.9" rx="1.56" transform="translate(2201.04 141.87) rotate(90)"></rect><rect class="cls-5" x="1017.33" y="1169.3" width="8.53" height="4.2" rx="1.06" transform="translate(2193 149.8) rotate(90)"></rect><rect class="cls-5" x="1033.13" y="1169.3" width="8.53" height="4.2" rx="1.06" transform="translate(2208.8 134.01) rotate(90)"></rect><rect class="cls-6" x="1290.14" y="1162.16" width="8.64" height="8.9" rx="1.56"></rect><rect class="cls-5" x="1290.14" y="1172.49" width="8.53" height="4.2" rx="1.06"></rect><rect class="cls-5" x="1290.14" y="1156.7" width="8.53" height="4.2" rx="1.06"></rect><rect class="cls-6" x="1168.79" y="1151.21" width="8.64" height="8.9" rx="1.56"></rect><rect class="cls-5" x="1168.79" y="1161.54" width="8.53" height="4.2" rx="1.06"></rect><rect class="cls-5" x="1168.79" y="1145.74" width="8.53" height="4.2" rx="1.06"></rect><rect class="cls-6" x="1510.68" y="1102.72" width="8.64" height="8.9" rx="1.56" transform="translate(2622.18 -407.82) rotate(90)"></rect><rect class="cls-5" x="1502.75" y="1105.02" width="8.53" height="4.2" rx="1.06" transform="translate(2614.14 -399.89) rotate(90)"></rect><rect class="cls-5" x="1518.54" y="1105.02" width="8.53" height="4.2" rx="1.06" transform="translate(2629.93 -415.68) rotate(90)"></rect><rect class="cls-6" x="1192.98" y="866.13" width="8.64" height="8.9" rx="1.56"></rect><rect class="cls-5" x="1192.98" y="876.46" width="8.53" height="4.2" rx="1.06"></rect><rect class="cls-5" x="1192.98" y="860.67" width="8.53" height="4.2" rx="1.06"></rect><rect class="cls-6" x="1203.39" y="1024.18" width="8.64" height="8.9" rx="1.56" transform="translate(179.08 2236.34) rotate(-90)"></rect><rect class="cls-5" x="1211.42" y="1026.58" width="8.53" height="4.2" rx="1.06" transform="translate(187.01 2244.37) rotate(-90)"></rect><rect class="cls-5" x="1195.63" y="1026.58" width="8.53" height="4.2" rx="1.06" transform="translate(171.22 2228.58) rotate(-90)"></rect><rect class="cls-14" x="1201.16" y="1043.45" width="12.41" height="15.7" rx="2.48" transform="translate(156.07 2258.66) rotate(-90)"></rect><rect class="cls-5" x="1215.31" y="1047.67" width="12.26" height="7.41" rx="1.69" transform="translate(170.07 2272.81) rotate(-90)"></rect><rect class="cls-5" x="1187.46" y="1047.67" width="12.26" height="7.41" rx="1.69" transform="translate(142.22 2244.96) rotate(-90)"></rect><rect class="cls-14" x="1160.71" y="852.67" width="12.41" height="15.7" rx="2.48"></rect><rect class="cls-5" x="1160.71" y="870.88" width="12.26" height="7.41" rx="1.69"></rect><rect class="cls-5" x="1160.71" y="843.04" width="12.26" height="7.41" rx="1.69"></rect><rect class="cls-14" x="1201.16" y="1067.82" width="12.41" height="15.7" rx="2.48" transform="translate(131.7 2283.03) rotate(-90)"></rect><rect class="cls-5" x="1215.31" y="1072.03" width="12.26" height="7.41" rx="1.69" transform="translate(145.7 2297.17) rotate(-90)"></rect><rect class="cls-5" x="1187.46" y="1072.03" width="12.26" height="7.41" rx="1.69" transform="translate(117.86 2269.33) rotate(-90)"></rect><rect class="cls-14" x="1208.86" y="1122.37" width="12.41" height="15.7" rx="2.48" transform="translate(84.85 2345.28) rotate(-90)"></rect><rect class="cls-5" x="1223.01" y="1126.59" width="12.26" height="7.41" rx="1.69" transform="translate(98.85 2359.43) rotate(-90)"></rect><rect class="cls-5" x="1195.16" y="1126.59" width="12.26" height="7.41" rx="1.69" transform="translate(71 2331.59) rotate(-90)"></rect><rect class="cls-15" x="1274.18" y="1113.44" width="12.41" height="15.7" rx="2.48" transform="translate(159.09 2401.68) rotate(-90)"></rect><rect class="cls-5" x="1288.32" y="1117.66" width="12.26" height="7.41" rx="1.69" transform="translate(173.09 2415.82) rotate(-90)"></rect><rect class="cls-5" x="1260.48" y="1117.66" width="12.26" height="7.41" rx="1.69" transform="translate(145.25 2387.98) rotate(-90)"></rect><rect class="cls-15" x="1314.78" y="1124.15" width="23.02" height="24.09" rx="4.19"></rect><rect class="cls-5" x="1314.78" y="1152.1" width="22.75" height="11.37" rx="2.86"></rect><rect class="cls-5" x="1314.78" y="1109.37" width="22.75" height="11.37" rx="2.86"></rect><rect class="cls-5" x="426.85" y="949.25" width="11.14" height="17.28"></rect><rect class="cls-16" x="426.85" y="944.61" width="11.14" height="4.65"></rect><rect class="cls-16" x="426.85" y="966.54" width="11.14" height="4.65"></rect><rect class="cls-5" x="426.85" y="1017.86" width="11.14" height="17.28"></rect><rect class="cls-16" x="426.85" y="1013.21" width="11.14" height="4.65"></rect><rect class="cls-16" x="426.85" y="1035.14" width="11.14" height="4.65"></rect><rect class="cls-5" x="337.96" y="949.25" width="11.14" height="17.28"></rect><rect class="cls-16" x="337.96" y="944.61" width="11.14" height="4.65"></rect><rect class="cls-16" x="337.96" y="966.54" width="11.14" height="4.65"></rect><rect class="cls-5" x="337.96" y="1017.86" width="11.14" height="17.28"></rect><rect class="cls-16" x="337.96" y="1013.21" width="11.14" height="4.65"></rect><rect class="cls-16" x="337.96" y="1035.14" width="11.14" height="4.65"></rect><rect class="cls-14" x="1583.55" y="812.41" width="20.59" height="35.05"></rect><rect class="cls-5" x="1583.55" y="803.86" width="20.59" height="8.54"></rect><rect class="cls-5" x="1583.55" y="847.46" width="20.59" height="8.54"></rect><path class="cls-17" d="M584.08,777.18h7a42.72,42.72,0,0,1,8,.48,9.17,9.17,0,0,1,5.13,3.11,8.94,8.94,0,0,1,2,5.87,9.59,9.59,0,0,1-1.36,5.11,8.51,8.51,0,0,1-3.88,3.33,17.88,17.88,0,0,1-7,1.15l12.72,16.51h-4.37l-12.72-16.51h-2v16.51h-3.54Zm3.54,3.48v12.09l6.09,0a15.1,15.1,0,0,0,5.24-.68A5.44,5.44,0,0,0,601.6,790a6,6,0,0,0,.95-3.33,5.81,5.81,0,0,0-1-3.25,5.42,5.42,0,0,0-2.53-2.09,15.25,15.25,0,0,0-5.2-.63Z"></path><path class="cls-17" d="M639.3,786.44v26.3H636v-4.52a14.54,14.54,0,0,1-4.75,3.89A13.24,13.24,0,0,1,616,809.36a13.6,13.6,0,0,1-3.93-9.85,13.34,13.34,0,0,1,4-9.71,12.91,12.91,0,0,1,9.55-4,12.3,12.3,0,0,1,5.83,1.38,13.41,13.41,0,0,1,4.58,4.13v-4.83ZM625.84,789a10.14,10.14,0,0,0-9,5.29,10.76,10.76,0,0,0,0,10.63,10.39,10.39,0,0,0,3.81,3.94,9.82,9.82,0,0,0,5.13,1.42,10.43,10.43,0,0,0,5.24-1.41,9.75,9.75,0,0,0,3.8-3.79,10.82,10.82,0,0,0,1.34-5.38,10.49,10.49,0,0,0-3-7.63A9.88,9.88,0,0,0,625.84,789Z"></path><path class="cls-17" d="M660,789.31l-2.17,2.25q-2.7-2.62-5.28-2.63a4,4,0,0,0-2.81,1.09,3.35,3.35,0,0,0-1.17,2.53,3.77,3.77,0,0,0,1,2.44,13.4,13.4,0,0,0,4,2.78,15.24,15.24,0,0,1,5.11,3.78,6.89,6.89,0,0,1,1.32,4.13,7.44,7.44,0,0,1-2.26,5.49,7.74,7.74,0,0,1-5.66,2.24,9.91,9.91,0,0,1-4.33-1,9.31,9.31,0,0,1-3.4-2.73l2.11-2.42c1.72,2,3.55,2.93,5.47,2.93a4.93,4.93,0,0,0,3.45-1.31,4,4,0,0,0,1.42-3.07,3.91,3.91,0,0,0-.94-2.58,15.06,15.06,0,0,0-4.24-2.81,13.57,13.57,0,0,1-4.82-3.62,6.88,6.88,0,0,1-1.28-4.09,6.65,6.65,0,0,1,2-5,7.08,7.08,0,0,1,5.14-2C655.16,785.76,657.59,787,660,789.31Z"></path><path class="cls-17" d="M666,786.44h3.36v4.83a13.62,13.62,0,0,1,4.59-4.13,12.14,12.14,0,0,1,5.79-1.38,12.89,12.89,0,0,1,9.54,4,13.37,13.37,0,0,1,4,9.71,13.63,13.63,0,0,1-3.92,9.85,13.19,13.19,0,0,1-15.22,2.75,14.51,14.51,0,0,1-4.74-3.89v14.14H666ZM679.51,789a9.88,9.88,0,0,0-7.36,3.07,10.52,10.52,0,0,0-3,7.63,10.82,10.82,0,0,0,1.34,5.38,9.58,9.58,0,0,0,3.81,3.79,10.46,10.46,0,0,0,5.24,1.41,9.77,9.77,0,0,0,5.1-1.42,10.29,10.29,0,0,0,3.8-3.94,10.69,10.69,0,0,0,1.42-5.32,10.81,10.81,0,0,0-1.4-5.31,10.27,10.27,0,0,0-3.78-3.9A10.16,10.16,0,0,0,679.51,789Z"></path><path class="cls-17" d="M699.8,812.74V776.29h3.37V791a14.3,14.3,0,0,1,4.73-3.91,13.22,13.22,0,0,1,15.22,2.76,13.58,13.58,0,0,1,3.93,9.83,13.37,13.37,0,0,1-4,9.74,12.87,12.87,0,0,1-9.53,4,12.25,12.25,0,0,1-5.79-1.37,13.55,13.55,0,0,1-4.59-4.14v4.84Zm13.47-2.59a10,10,0,0,0,5.18-1.39,10.27,10.27,0,0,0,3.78-3.9,10.81,10.81,0,0,0,0-10.66,10.44,10.44,0,0,0-3.81-4,9.85,9.85,0,0,0-5.09-1.41,10.5,10.5,0,0,0-5.25,1.41,10,10,0,0,0-3.81,3.81,10.88,10.88,0,0,0-1.33,5.39,10.52,10.52,0,0,0,3,7.64A9.87,9.87,0,0,0,713.27,810.15Z"></path><path class="cls-17" d="M755.21,804l2.83,1.5a15.52,15.52,0,0,1-3.22,4.45,12.75,12.75,0,0,1-4.12,2.57,14.23,14.23,0,0,1-5.17.88q-6.4,0-10-4.21a14.28,14.28,0,0,1-3.62-9.54,14.09,14.09,0,0,1,3.06-8.92,12.47,12.47,0,0,1,10.38-5,12.87,12.87,0,0,1,10.68,5.1,14.24,14.24,0,0,1,2.89,9H735.37a10.73,10.73,0,0,0,2.91,7.52,9.29,9.29,0,0,0,7,2.93,11.28,11.28,0,0,0,3.89-.7,10.26,10.26,0,0,0,3.21-1.86A15.83,15.83,0,0,0,755.21,804Zm0-7.08a11.23,11.23,0,0,0-2-4.33,9.2,9.2,0,0,0-3.4-2.61,10.41,10.41,0,0,0-4.46-1,9.56,9.56,0,0,0-6.62,2.49,11.25,11.25,0,0,0-3.06,5.44Z"></path><path class="cls-17" d="M763.91,786.44h3.44v3.84a12.05,12.05,0,0,1,3.25-3.39,6.38,6.38,0,0,1,3.56-1.13,6.09,6.09,0,0,1,3,.9l-1.76,2.85a4.58,4.58,0,0,0-1.78-.46,4.82,4.82,0,0,0-3.24,1.39,8.7,8.7,0,0,0-2.38,4.31q-.63,2.25-.63,9.09v8.9h-3.44Z"></path><path class="cls-17" d="M778.73,786.44h3.43v3.84a12.05,12.05,0,0,1,3.25-3.39,6.4,6.4,0,0,1,3.56-1.13,6.09,6.09,0,0,1,3,.9l-1.75,2.85a4.62,4.62,0,0,0-1.78-.46,4.83,4.83,0,0,0-3.25,1.39,8.77,8.77,0,0,0-2.38,4.31q-.63,2.25-.63,9.09v8.9h-3.43Z"></path><path class="cls-17" d="M792,786.44h3.56l9,20.25,8.73-20.25h3.58l-15.6,35.92H797.7l5-11.61Z"></path><path class="cls-17" d="M821.75,777.18h7a40.79,40.79,0,0,1,8.18.53,9.07,9.07,0,0,1,4.95,3.08,10,10,0,0,1,.05,11.73,9.18,9.18,0,0,1-5.17,3.1,45.17,45.17,0,0,1-9,.58h-2.53v16.54h-3.53Zm3.53,3.48v12.06l6,.08a15.58,15.58,0,0,0,5.31-.67,5.41,5.41,0,0,0,2.65-2.15,6.12,6.12,0,0,0,0-6.58,5.32,5.32,0,0,0-2.54-2.11,15.14,15.14,0,0,0-5.16-.63Z"></path><path class="cls-17" d="M851.53,775.61a2.64,2.64,0,0,1,2,.82,2.73,2.73,0,0,1,.82,2,2.71,2.71,0,0,1-.82,2,2.73,2.73,0,0,1-3.9,0,2.7,2.7,0,0,1-.81-2,2.73,2.73,0,0,1,.81-2A2.62,2.62,0,0,1,851.53,775.61Zm-1.67,10.83h3.36v26.3h-3.36Z"></path><path class="cls-17" d="M888,777.18h7.05a40.67,40.67,0,0,1,8.17.53,9.14,9.14,0,0,1,5,3.08,10,10,0,0,1,0,11.73,9.25,9.25,0,0,1-5.17,3.1,45.36,45.36,0,0,1-9,.58h-2.52v16.54H888Zm3.54,3.48v12.06l6,.08a15.64,15.64,0,0,0,5.32-.67A5.43,5.43,0,0,0,905.5,790a6.06,6.06,0,0,0,0-6.58,5.3,5.3,0,0,0-2.53-2.11,15.14,15.14,0,0,0-5.16-.63Z"></path><path class="cls-17" d="M917.8,775.61a2.67,2.67,0,0,1,2,.82,2.73,2.73,0,0,1,.81,2,2.78,2.78,0,0,1-2.78,2.78,2.64,2.64,0,0,1-1.94-.82,2.7,2.7,0,0,1-.81-2,2.73,2.73,0,0,1,.81-2A2.64,2.64,0,0,1,917.8,775.61Zm-1.67,10.83h3.37v26.3h-3.37Z"></path><path class="cls-17" d="M951.89,791.9l-2.67,1.67a11.15,11.15,0,0,0-9.44-4.62,10.91,10.91,0,0,0-7.94,3.09,10.14,10.14,0,0,0-3.15,7.51,10.68,10.68,0,0,0,1.45,5.41,10.18,10.18,0,0,0,4,3.93,12,12,0,0,0,15.09-3.21l2.67,1.76a12.62,12.62,0,0,1-5,4.41,16,16,0,0,1-7.2,1.56,14.19,14.19,0,0,1-10.29-4,12.92,12.92,0,0,1-4.09-9.65,13.86,13.86,0,0,1,1.91-7.09,13.53,13.53,0,0,1,5.26-5.11,15.21,15.21,0,0,1,7.48-1.84,15.92,15.92,0,0,1,5,.8,13.72,13.72,0,0,1,4.1,2.08A11.19,11.19,0,0,1,951.89,791.9Z"></path><path class="cls-17" d="M970.75,785.76a12.94,12.94,0,0,1,10,4.4,14.17,14.17,0,0,1-.21,19.13,13.79,13.79,0,0,1-19.66,0,14.16,14.16,0,0,1-.2-19.11A13,13,0,0,1,970.75,785.76Zm0,3.31a9.67,9.67,0,0,0-7.21,3.12,10.45,10.45,0,0,0-3,7.54,10.71,10.71,0,0,0,1.38,5.32,9.78,9.78,0,0,0,3.71,3.81,10.53,10.53,0,0,0,10.28,0,9.88,9.88,0,0,0,3.72-3.81,10.71,10.71,0,0,0,1.38-5.32,10.42,10.42,0,0,0-3-7.54A9.7,9.7,0,0,0,970.73,789.07Z"></path><path class="cls-17" d="M987.07,786.44h3.47l8,19.09,8.34-19.09h.61l8.41,19.09,8.17-19.09h3.5l-11.36,26.3h-.63l-8.36-18.83-8.36,18.83h-.63Z"></path><path class="cls-17" d="M1084.2,791.9l-2.67,1.67a11.15,11.15,0,0,0-9.44-4.62,10.91,10.91,0,0,0-7.94,3.09,10.14,10.14,0,0,0-3.15,7.51,10.68,10.68,0,0,0,1.45,5.41,10.18,10.18,0,0,0,4,3.93,12,12,0,0,0,15.09-3.21l2.67,1.76a12.62,12.62,0,0,1-5,4.41,16,16,0,0,1-7.2,1.56,14.19,14.19,0,0,1-10.29-4,12.92,12.92,0,0,1-4.09-9.65,13.86,13.86,0,0,1,1.91-7.09,13.53,13.53,0,0,1,5.26-5.11,15.21,15.21,0,0,1,7.48-1.84,15.92,15.92,0,0,1,5,.8,13.72,13.72,0,0,1,4.1,2.08A11.19,11.19,0,0,1,1084.2,791.9Z"></path><path class="cls-17" d="M1106.25,788.3h-3.39a12.24,12.24,0,0,1,3.5-8.64,11.23,11.23,0,0,1,8.29-3.37,10.54,10.54,0,0,1,10.91,10.64,11.71,11.71,0,0,1-1.44,5.67,41.4,41.4,0,0,1-5.58,7.17l-8.82,9.53H1126v3.44h-24l13.52-14.68a45,45,0,0,0,5.35-6.57,8.92,8.92,0,0,0,1.23-4.51,7,7,0,0,0-2.22-5.17,8,8,0,0,0-11.09.11A9.78,9.78,0,0,0,1106.25,788.3Z"></path><path class="cls-17" d="M1129.41,795q0-7,1.5-10.88a12.65,12.65,0,0,1,4.25-5.82,10.22,10.22,0,0,1,6.13-2,10.46,10.46,0,0,1,6.23,2,13.2,13.2,0,0,1,4.41,6,36.37,36.37,0,0,1,0,21.37,13.17,13.17,0,0,1-4.42,6,10.44,10.44,0,0,1-6.25,2,10.17,10.17,0,0,1-6.11-2,12.67,12.67,0,0,1-4.24-5.83Q1129.41,802,1129.41,795Zm3.34.06a29.52,29.52,0,0,0,1.07,9.11,9.66,9.66,0,0,0,3.17,4.68,7.2,7.2,0,0,0,4.42,1.6,7.11,7.11,0,0,0,4.4-1.56,9.51,9.51,0,0,0,3.1-4.68,28,28,0,0,0,1.33-9.15,27.62,27.62,0,0,0-1.18-8.79,10.34,10.34,0,0,0-3.26-5,6.93,6.93,0,0,0-8.81,0,9.73,9.73,0,0,0-3.15,4.67A28.91,28.91,0,0,0,1132.75,795Z"></path><path class="cls-17" d="M1160.84,788.3h-3.39a12.24,12.24,0,0,1,3.5-8.64,11.22,11.22,0,0,1,8.28-3.37,10.56,10.56,0,0,1,10.92,10.64,11.71,11.71,0,0,1-1.44,5.67,41.07,41.07,0,0,1-5.59,7.17l-8.81,9.53h16.32v3.44h-24l13.51-14.68a44.34,44.34,0,0,0,5.35-6.57,8.84,8.84,0,0,0,1.24-4.51,7,7,0,0,0-2.22-5.17,8,8,0,0,0-11.09.11A9.78,9.78,0,0,0,1160.84,788.3Z"></path><path class="cls-17" d="M1188.14,788.3h-3.4a12.29,12.29,0,0,1,3.5-8.64,11.23,11.23,0,0,1,8.29-3.37,10.56,10.56,0,0,1,10.92,10.64,11.71,11.71,0,0,1-1.44,5.67,41.57,41.57,0,0,1-5.59,7.17l-8.81,9.53h16.32v3.44h-24l13.52-14.68a45,45,0,0,0,5.35-6.57A8.94,8.94,0,0,0,1204,787a7,7,0,0,0-2.23-5.17,8,8,0,0,0-11.08.11A9.73,9.73,0,0,0,1188.14,788.3Z"></path><path class="cls-17" d="M1071.26,822.74a23,23,0,1,1,23-23A23,23,0,0,1,1071.26,822.74Zm0-43.6a20.63,20.63,0,1,0,20.64,20.63A20.65,20.65,0,0,0,1071.26,779.14Z"></path><path class="cls-17" d="M1325.14,805.72h6.61c4.77,0,8,1.77,8,6.29a5.53,5.53,0,0,1-4.09,5.62v.15c3.42.59,5.41,2.64,5.41,6.17,0,5.07-3.56,7.54-8.79,7.54h-7.15Zm6.12,10.85c4,0,5.58-1.42,5.58-4.29s-1.85-3.81-5.44-3.81h-3.31v8.1Zm.6,12.17c4,0,6.3-1.45,6.3-5,0-3.18-2.21-4.48-6.3-4.48h-3.77v9.43Z"></path><path class="cls-17" d="M1344.67,818.49c0-8.33,3.7-13.24,9-13.24s9,4.91,9,13.24-3.7,13.47-9,13.47S1344.67,826.94,1344.67,818.49Zm14.84,0c0-6.48-2.35-10.33-5.88-10.33s-5.87,3.85-5.87,10.33,2.35,10.57,5.87,10.57S1359.51,825.09,1359.51,818.49Z"></path><path class="cls-17" d="M1366,818.49c0-8.33,3.7-13.24,9-13.24s9,4.91,9,13.24-3.7,13.47-9,13.47S1366,826.94,1366,818.49Zm14.84,0c0-6.48-2.35-10.33-5.87-10.33s-5.87,3.85-5.87,10.33,2.35,10.57,5.87,10.57S1380.85,825.09,1380.85,818.49Z"></path><path class="cls-17" d="M1394.83,808.51h-7.72v-2.79h18.43v2.79h-7.72v23h-3Z"></path><path class="cls-17" d="M1409.38,828.15l1.78-2.27a9.41,9.41,0,0,0,6.84,3.18c3.2,0,5-1.69,5-4,0-2.75-1.82-3.53-4.17-4.63l-3.38-1.65c-2.31-1-5-2.83-5-6.64s3.2-6.84,7.65-6.84a9.73,9.73,0,0,1,7.19,3.18l-1.57,2.12a7.8,7.8,0,0,0-5.73-2.39c-2.7,0-4.52,1.41-4.52,3.73,0,2.48,2.17,3.38,4.16,4.24l3.28,1.61c2.88,1.26,5.16,3.07,5.16,6.88,0,4.08-3.13,7.34-8.26,7.34A11.33,11.33,0,0,1,1409.38,828.15Z"></path><path class="cls-17" d="M1432.4,805.72h14.45v2.79h-11.46v8.06h9.68v2.78h-9.68v9.35h11.82v2.79H1432.4Z"></path><path class="cls-17" d="M1454.46,805.72h3v23h11.53v2.79h-14.48Z"></path><path class="cls-17" d="M1574.07,806.17v3h-23v11.53h-2.79V806.17Z"></path><path class="cls-17" d="M1574.07,826.81v14.44h-2.79V829.79h-8v9.68h-2.79v-9.68h-9.35v11.82h-2.79v-14.8Z"></path><path class="cls-17" d="M1574.07,847.19V853c0,7-4.6,10.81-12.77,10.81s-13-3.8-13-10.67v-5.91ZM1551,852.74c0,5.3,3.77,7.94,10.29,7.94s10.06-2.64,10.06-7.94v-2.56H1551Z"></path><path class="cls-17" d="M1617.91,774.37c6,6.14,9.5,9.49,12.82,9.49a3.55,3.55,0,0,0,3.89-3.92,6.08,6.08,0,0,0-2.38-4.35l1.47-1.36c1.82,1.65,3,3.44,3,6a5.52,5.52,0,0,1-5.89,5.91c-3.77,0-7.5-3.41-12.42-8.32.1,1.13.16,2.3.16,3.38v5.93h-2.23V774.37Z"></path><path class="cls-17" d="M1618.82,1178.43l1.69,1.2a7,7,0,0,0-2.35,5.19c0,2.47,1.41,4.32,3.64,4.32,2.38,0,4-1.82,4-6.56h2c0,4.29,1.63,5.93,3.73,5.93,1.92,0,3.14-1.5,3.14-3.69a6.55,6.55,0,0,0-2-4.46l1.63-1.25a8.34,8.34,0,0,1,2.51,5.8c0,3.4-1.85,6-5.08,6-2.41,0-4-1.62-4.76-3.86h-.13c-.56,2.41-2.32,4.48-5.08,4.48-3.54,0-5.7-3-5.7-6.56A8.47,8.47,0,0,1,1618.82,1178.43Z"></path><path class="cls-17" d="M1618.1,1196.07l1.63,1.3a5.1,5.1,0,0,0-1.57,3.61c0,2.92,2.29,5.51,9,5.51,4.92,0,7.55-1.73,7.55-4.72,0-2.15-1.72-3.83-4.36-3.83s-4.23,1.36-4.23,3.86c0,1.42.79,3.15,2.82,4.72l-2,.08a7.21,7.21,0,0,1-2.73-5.25c0-3.35,2.07-5.62,6.17-5.62a6.13,6.13,0,0,1,6.43,6c0,3.94-3.2,7-9.62,7-8,0-11.13-3.66-11.13-7.58A6.9,6.9,0,0,1,1618.1,1196.07Z"></path><path class="cls-17" d="M1558,963.81h16v3H1558c-5.3,0-7.22,2.1-7.22,4.88s1.92,4.95,7.22,4.95h16.11v2.88h-16c-7.38,0-10.21-3.27-10.21-7.83S1550.66,963.81,1558,963.81Z"></path><path class="cls-17" d="M1551.64,984.73l2.28,1.78a9.37,9.37,0,0,0-3.18,6.83c0,3.2,1.69,5.06,4,5.06,2.75,0,3.54-1.82,4.64-4.17l1.65-3.38c1-2.31,2.83-5,6.64-5s6.83,3.21,6.83,7.65a9.7,9.7,0,0,1-3.18,7.19l-2.12-1.56a7.8,7.8,0,0,0,2.39-5.73c0-2.71-1.41-4.52-3.73-4.52-2.47,0-3.38,2.17-4.24,4.16l-1.61,3.27c-1.26,2.89-3.06,5.17-6.87,5.17-4.09,0-7.35-3.14-7.35-8.26A11.31,11.31,0,0,1,1551.64,984.73Z"></path><path class="cls-17" d="M1574.07,1007.21v6.62c0,4.77-1.77,8-6.28,8a5.51,5.51,0,0,1-5.62-4.09H1562c-.59,3.41-2.63,5.41-6.17,5.41-5.06,0-7.54-3.56-7.54-8.79v-7.16Zm-23,6.73c0,4,1.45,6.3,5,6.3,3.18,0,4.48-2.21,4.48-6.3v-3.77h-9.43Zm12.18-.6c0,4,1.41,5.58,4.28,5.58s3.81-1.85,3.81-5.44v-3.31h-8.09Z"></path><path class="cls-17" d="M954.31,1038v4.93c0,6-3.93,9.26-10.92,9.26s-11.12-3.26-11.12-9.13V1038Zm-19.72,4.75c0,4.54,3.22,6.79,8.8,6.79s8.61-2.25,8.61-6.79v-2.19H934.59Z"></path><path class="cls-17" d="M954.31,1057.08v12.36h-2.38v-9.8H945v8.28h-2.39v-8.28h-8v10.1h-2.39v-12.66Z"></path><path class="cls-17" d="M954.31,1074.88v5.67c0,4.08-1.51,6.85-5.37,6.85a4.72,4.72,0,0,1-4.81-3.5H944c-.51,2.92-2.25,4.62-5.28,4.62-4.33,0-6.45-3-6.45-7.52v-6.12Zm-19.69,5.76c0,3.41,1.25,5.39,4.24,5.39,2.72,0,3.83-1.89,3.83-5.39v-3.23h-8.07Zm10.42-.52c0,3.41,1.21,4.78,3.66,4.78s3.26-1.58,3.26-4.66v-2.83H945Z"></path><path class="cls-17" d="M940.6,1092.54h13.71v2.59H940.54c-4.54,0-6.19,1.79-6.19,4.17s1.65,4.23,6.19,4.23h13.77V1106H940.6c-6.31,0-8.73-2.81-8.73-6.7S934.29,1092.54,940.6,1092.54Z"></path><path class="cls-17" d="M943.29,1110c7.13,0,11.43,3.68,11.43,8.86a7.08,7.08,0,0,1-2.69,5.51l-1.78-1.46a5,5,0,0,0,2-4.05c0-3.75-3.39-6.18-8.87-6.18s-9,2.22-9,6.12a4.69,4.69,0,0,0,1.28,3.44h5.75v-4h2.32v6.33h-9.28a8,8,0,0,1-2.55-6C931.87,1113.63,936.1,1110,943.29,1110Z"></path><path class="cls-1" d="M1012.67,910.91v2.46H994.88v-2.46Zm-8.52,1.27v5.59a2.56,2.56,0,0,0,.38,1.39,2.53,2.53,0,0,0,1.08.93,3.69,3.69,0,0,0,1.6.33,3.78,3.78,0,0,0,1.62-.33,2.59,2.59,0,0,0,1.08-.93,2.49,2.49,0,0,0,.39-1.39v-5.59h2.37v5.5a5.51,5.51,0,0,1-.68,2.76,4.64,4.64,0,0,1-1.91,1.84,6,6,0,0,1-2.87.66,5.94,5.94,0,0,1-2.85-.66,4.64,4.64,0,0,1-1.91-1.84,5.5,5.5,0,0,1-.67-2.76v-5.5Z"></path><path class="cls-1" d="M995.32,926.8a4,4,0,0,1,1.84-1.67,6.74,6.74,0,0,1,2.91-.57h0a10.34,10.34,0,0,1,2.08.23,12,12,0,0,1,2.14.66l.36.16.35.17,7.66,3.79v2.65l-8.87-4.46h.44a2.1,2.1,0,0,1,.89.88,2.75,2.75,0,0,1,.32,1.35,4.29,4.29,0,0,1-.62,2.33,4,4,0,0,1-1.82,1.48,7.48,7.48,0,0,1-2.87.5h0a6.88,6.88,0,0,1-2.94-.57,4,4,0,0,1-1.86-1.67,5.11,5.11,0,0,1-.64-2.64A5.17,5.17,0,0,1,995.32,926.8Zm2.51,4.43a3.11,3.11,0,0,0,2.09.63h0a3.59,3.59,0,0,0,2.31-.66,2.3,2.3,0,0,0,.81-1.89,2,2,0,0,0-.82-1.7,3.85,3.85,0,0,0-2.31-.6h0a3,3,0,0,0-2.09.64,2.21,2.21,0,0,0-.73,1.78A2.24,2.24,0,0,0,997.83,931.23Z"></path><path class="cls-1" d="M1005.34,944.86v2.39H994.86v-2.39Zm-5.57-7.54,12.89,5.87v2.52L999.92,940v8.57h-2.31V937.32Z"></path><path class="cls-1" d="M1012.67,964.49v2.3H994.88V964.4h13.32l-.78.12-10.07-4.31V958.5l9.83-4.3,1,.12H994.88v-2.39h17.79v2.29l-11.75,5.14Z"></path><path class="cls-1" d="M994.88,975v-2.46H1010L1008.4,970H1011l1.69,2.49V975Z"></path><path class="cls-1" d="M995.22,981.47a4.3,4.3,0,0,1,1.53-1.67,6.21,6.21,0,0,1,2.41-.86h0v2.46h0a2.26,2.26,0,0,0-1.52.77,2.41,2.41,0,0,0-.55,1.66,2.22,2.22,0,0,0,.8,1.82,3.53,3.53,0,0,0,2.26.64h1.49a3.49,3.49,0,0,0,2.25-.64,2.37,2.37,0,0,0,.43-3,3.47,3.47,0,0,0-1-1v-2.23h9.37v8.91h-2.37v-6.46h-4a3.48,3.48,0,0,1,.59,1,3.3,3.3,0,0,1,.21,1.16,5,5,0,0,1-.64,2.59,4,4,0,0,1-1.86,1.63,6.93,6.93,0,0,1-3,.56h-1.49a7,7,0,0,1-2.95-.57,4.21,4.21,0,0,1-1.87-1.69,5.28,5.28,0,0,1-.64-2.65A5.13,5.13,0,0,1,995.22,981.47Z"></path><path class="cls-1" d="M997.5,992.05v2.57h-2.62v-2.57Z"></path><path class="cls-1" d="M996,998.48a5.17,5.17,0,0,1,3.72-1.27h8.09a5.13,5.13,0,0,1,3.72,1.27,5.88,5.88,0,0,1,0,7.44,5.2,5.2,0,0,1-3.73,1.27h-8.09a5.18,5.18,0,0,1-3.73-1.28,5.84,5.84,0,0,1,0-7.43Zm1.73,5.64a2.89,2.89,0,0,0,2,.61h8.09a2.93,2.93,0,0,0,2-.61,3,3,0,0,0,0-3.85,2.93,2.93,0,0,0-2-.61h-8.09a2.89,2.89,0,0,0-2,.62,2.45,2.45,0,0,0-.69,1.92A2.47,2.47,0,0,0,997.76,1004.12Z"></path><path class="cls-1" d="M996,1011.58a5.21,5.21,0,0,1,3.72-1.27h8.09a5.14,5.14,0,0,1,3.72,1.28,5.87,5.87,0,0,1,0,7.43,5.16,5.16,0,0,1-3.73,1.27h-8.09A5.17,5.17,0,0,1,996,1019a5.85,5.85,0,0,1,0-7.44Zm1.73,5.64a2.89,2.89,0,0,0,2,.62h8.09a2.93,2.93,0,0,0,2-.61,3,3,0,0,0,0-3.85,2.93,2.93,0,0,0-2-.61h-8.09a2.84,2.84,0,0,0-2,.62,3,3,0,0,0,0,3.83Z"></path><path class="cls-1" d="M1035.4,910.74V913h-17.8v-2.27Zm-9.73,5.38.57,2.25-8.64,4.12v-2.68Zm1.83-4.39v5.5a1.94,1.94,0,0,0,.34,1.14,2.21,2.21,0,0,0,1,.77,4,4,0,0,0,2.9,0,2.22,2.22,0,0,0,1-.76,2,2,0,0,0,.34-1.15v-5.5h2.37v5.41a4.74,4.74,0,0,1-.63,2.46,4.37,4.37,0,0,1-1.81,1.64,6.09,6.09,0,0,1-2.7.58,6,6,0,0,1-2.7-.59,4.3,4.3,0,0,1-1.8-1.65,4.67,4.67,0,0,1-.64-2.44v-5.41Z"></path><path class="cls-1" d="M1035.39,925.54v2.26H1017.6v-2.26Zm-8.52,1.17v5.15a2.25,2.25,0,0,0,.38,1.29,2.53,2.53,0,0,0,1.08.86,4,4,0,0,0,1.6.3,4.11,4.11,0,0,0,1.62-.3,2.59,2.59,0,0,0,1.08-.86,2.19,2.19,0,0,0,.39-1.29v-5.15h2.37v5.07a4.75,4.75,0,0,1-.68,2.54,4.52,4.52,0,0,1-1.91,1.7,6.38,6.38,0,0,1-2.87.61,6.29,6.29,0,0,1-2.85-.61,4.52,4.52,0,0,1-1.91-1.7,4.75,4.75,0,0,1-.67-2.54v-5.07Z"></path><path class="cls-1" d="M1019.76,939.1l8.28,5.62a6,6,0,0,0,1.47.76,4.33,4.33,0,0,0,1.43.27h0a2.3,2.3,0,0,0,1.65-.56,2.15,2.15,0,0,0,.59-1.61,2.1,2.1,0,0,0-.64-1.6,3.13,3.13,0,0,0-1.82-.74h0V938.9h0a7,7,0,0,1,2.61.82,4.31,4.31,0,0,1,1.66,1.59,4.38,4.38,0,0,1,.57,2.25A5.2,5.2,0,0,1,1035,946a3.59,3.59,0,0,1-1.58,1.55,5.54,5.54,0,0,1-2.51.53h0a6.26,6.26,0,0,1-2-.35,9.16,9.16,0,0,1-2-1l-7-4.67v6.1h-2.37V939.1Z"></path><path class="cls-1" d="M1025.16,958.63h-2.37v-7.45h2.37Z"></path><path class="cls-1" d="M1018,964.11a4.22,4.22,0,0,1,1.74-1.71,5.29,5.29,0,0,1,2.6-.61h.29a5.32,5.32,0,0,1,2.51.61,4.27,4.27,0,0,1,1.77,1.61,3.74,3.74,0,0,1,1.49-1.37,4.36,4.36,0,0,1,2-.52h.43a5.07,5.07,0,0,1,2.45.57,4,4,0,0,1,1.64,1.6,5.14,5.14,0,0,1,0,4.78,4,4,0,0,1-1.64,1.6,5.07,5.07,0,0,1-2.45.57h-.43a4.31,4.31,0,0,1-2.07-.53,3.79,3.79,0,0,1-1.47-1.39,4.34,4.34,0,0,1-1.78,1.63,5.29,5.29,0,0,1-2.5.62h-.29a5.29,5.29,0,0,1-2.6-.61,4.22,4.22,0,0,1-1.74-1.71,5.72,5.72,0,0,1,0-5.14Zm2.13,4a2.36,2.36,0,0,0,1,.92,3,3,0,0,0,1.43.33h.17a3,3,0,0,0,1.44-.33,2.36,2.36,0,0,0,1-.92,3,3,0,0,0,0-2.78,2.39,2.39,0,0,0-1-.92,3,3,0,0,0-1.44-.33h-.18a2.92,2.92,0,0,0-1.42.33,2.34,2.34,0,0,0-1,.92,2.75,2.75,0,0,0-.34,1.39A2.86,2.86,0,0,0,1020.15,968.07Zm8-.19a2.21,2.21,0,0,0,.92.81,3.18,3.18,0,0,0,1.38.28h.17a3,3,0,0,0,1.33-.28,2.16,2.16,0,0,0,.88-.81,2.41,2.41,0,0,0,0-2.4,2.16,2.16,0,0,0-.88-.81,3,3,0,0,0-1.34-.28h-.18a3.17,3.17,0,0,0-1.37.28,2.25,2.25,0,0,0-.91.81,2.35,2.35,0,0,0,0,2.4Z"></path><path class="cls-1" d="M1018.75,975.9a5.46,5.46,0,0,1,3.72-1.17h8.09a5.42,5.42,0,0,1,3.72,1.17,5.1,5.1,0,0,1,0,6.86,5.45,5.45,0,0,1-3.73,1.17h-8.09a5.42,5.42,0,0,1-3.73-1.18,5.06,5.06,0,0,1,0-6.85Zm1.73,5.2a3,3,0,0,0,2,.57h8.09a3.06,3.06,0,0,0,2-.57,2.63,2.63,0,0,0,0-3.55,3.12,3.12,0,0,0-2-.56h-8.09a3,3,0,0,0-2,.57,2.62,2.62,0,0,0,0,3.54Z"></path><path class="cls-1" d="M1019.76,1013.1l8.28,6.48a5.91,5.91,0,0,0,1.47.88,3.77,3.77,0,0,0,1.43.31h0a2.12,2.12,0,0,0,1.65-.65,2.62,2.62,0,0,0,.59-1.85,2.59,2.59,0,0,0-.64-1.84,2.87,2.87,0,0,0-1.82-.86h0v-2.7h0a6.43,6.43,0,0,1,2.61.94,4.66,4.66,0,0,1,1.66,1.84,5.64,5.64,0,0,1,.57,2.59,6.78,6.78,0,0,1-.55,2.84,4,4,0,0,1-1.58,1.79,4.86,4.86,0,0,1-2.51.61h0a5.23,5.23,0,0,1-2-.41,8.3,8.3,0,0,1-2-1.14l-7-5.38v7h-2.37V1013.1Z"></path><path class="cls-1" d="M1018.75,1028.26a5,5,0,0,1,3.72-1.35h8.09a5,5,0,0,1,3.72,1.35,6.57,6.57,0,0,1,0,7.91,5,5,0,0,1-3.73,1.35h-8.09a5,5,0,0,1-3.73-1.36,5.44,5.44,0,0,1-1.33-4A5.38,5.38,0,0,1,1018.75,1028.26Zm1.73,6a2.76,2.76,0,0,0,2,.66h8.09a2.82,2.82,0,0,0,2-.65,2.71,2.71,0,0,0,.69-2,2.68,2.68,0,0,0-.69-2,2.78,2.78,0,0,0-2-.65h-8.09a2.8,2.8,0,0,0-2,.65,3.36,3.36,0,0,0,0,4.08Z"></path><path class="cls-1" d="M1014.22,1041.8v-2.49l23.28,8.63v2.49Z"></path><path class="cls-1" d="M1019.76,1051l8.28,6.48a6.23,6.23,0,0,0,1.47.88,4,4,0,0,0,1.43.31h0a2.12,2.12,0,0,0,1.65-.65,2.66,2.66,0,0,0,.59-1.86,2.61,2.61,0,0,0-.64-1.84,2.86,2.86,0,0,0-1.82-.85h0v-2.7h0a6.43,6.43,0,0,1,2.61.94,4.63,4.63,0,0,1,1.66,1.83,5.69,5.69,0,0,1,.57,2.6,6.78,6.78,0,0,1-.55,2.84,4,4,0,0,1-1.58,1.79,5,5,0,0,1-2.51.61h0a5.43,5.43,0,0,1-2-.41,8.3,8.3,0,0,1-2-1.14l-7-5.38v7h-2.37V1051Z"></path><path class="cls-1" d="M1017.6,1069.27v-2.61h15.08l-1.56-2.64h2.58l1.69,2.64v2.61Z"></path><path class="cls-1" d="M1011.22,1037.37V1040H994.88v-2.61Zm1.45-5.26v13.12h-2.37v-13.12Z"></path><path class="cls-1" d="M1011.22,1051.89v2.61H994.88v-2.61Zm1.45-5.25v13.11h-2.37v-13.11Z"></path><path class="cls-1" d="M1011.22,1066.41V1069H994.88v-2.61Zm1.45-5.25v13.11h-2.37v-13.11Z"></path></g></svg>