<svg xmlns="http://www.w3.org/2000/svg" viewBox="393.2 364.69 1268.06 1270.62"><defs><style>.cls-1{fill:#353535;}.cls-11,.cls-2,.cls-4,.cls-8,.cls-9{fill:none;stroke-miterlimit:10;}.cls-11,.cls-2,.cls-4,.cls-9{stroke:#050606;}.cls-2,.cls-8{stroke-width:1.8px;}.cls-3{fill:#c2c1c0;}.cls-4{stroke-width:1.98px;}.cls-5{fill:#282828;}.cls-6{fill:#599cbd;}.cls-7{fill:#e0c28c;}.cls-8{stroke:#fff;}.cls-9{stroke-width:1.58px;}.cls-10{fill:#999;}.cls-11{stroke-width:1.54px;}.cls-12{fill:#484949;}.cls-13{fill:#b1a368;}.cls-14{fill:#ffe5af;}.cls-15{fill:#f3d8a5;}.cls-16{fill:#231f20;}</style></defs><g id="Layer_7" data-name="Layer 7"><rect class="cls-1" x="1510.38" y="365.59" width="149.98" height="952.92" rx="10.27"></rect><rect class="cls-2" x="1510.38" y="365.59" width="149.98" height="952.92" rx="10.27"></rect><rect class="cls-1" x="394.1" y="492.25" width="408.68" height="886.33" rx="15.01"></rect><rect class="cls-2" x="394.1" y="492.25" width="408.68" height="886.33" rx="15.01"></rect><rect class="cls-3" x="1575.36" y="1163.57" width="48.08" height="48.08" rx="5.76"></rect><rect class="cls-3" x="1572.85" y="1241.3" width="53.12" height="53.12" rx="5.76"></rect><rect class="cls-2" x="1575.36" y="1163.57" width="48.08" height="48.08" rx="5.76"></rect><rect class="cls-4" x="1572.85" y="1241.3" width="53.12" height="53.12" rx="5.76"></rect><rect class="cls-3" x="577.28" y="890.1" width="53.12" height="53.12" rx="5.76"></rect><rect class="cls-4" x="577.28" y="890.1" width="53.12" height="53.12" rx="5.76"></rect><rect class="cls-3" x="608.26" y="794.94" width="53.12" height="53.12" rx="5.76"></rect><rect class="cls-4" x="608.26" y="794.94" width="53.12" height="53.12" rx="5.76"></rect><path class="cls-3" d="M1609.91,1306.07H1581c4.26-46.35,4.81-85.43,4.74-105.28a14.39,14.39,0,0,1,13.92-14.43h.48a14.37,14.37,0,0,1,14.37,14.29C1614.62,1220.78,1614.1,1259.56,1609.91,1306.07Z"></path><path class="cls-2" d="M1609.91,1306.07H1581c4.26-46.35,4.81-85.43,4.74-105.28a14.39,14.39,0,0,1,13.92-14.43h.48a14.37,14.37,0,0,1,14.37,14.29C1614.62,1220.78,1614.1,1259.56,1609.91,1306.07Z"></path><path class="cls-5" d="M1609.91,1306.07c-2.51,28.09-6.37,59-12.26,90.32-11.78,62.73-29.27,114-52,152.27-29.72,50.09-68.49,78.54-115.26,84.53a143.88,143.88,0,0,1-18.71,1.22c-31.32,0-59.91-10.59-85.22-31.64-103-85.63-117.07-318-117.63-327.79l28.7-1.59c.12,2.28,13.94,229.69,107.32,307.31,24.21,20.11,51,28,81.88,24,86.79-11.15,125.48-122.08,142.63-213.19,5.53-29.36,9.21-58.62,11.67-85.43Z"></path><path class="cls-2" d="M1609.91,1306.07c-2.51,28.09-6.37,59-12.26,90.32-11.78,62.73-29.27,114-52,152.27-29.72,50.09-68.49,78.54-115.26,84.53a143.88,143.88,0,0,1-18.71,1.22c-31.32,0-59.91-10.59-85.22-31.64-103-85.63-117.07-318-117.63-327.79l28.7-1.59c.12,2.28,13.94,229.69,107.32,307.31,24.21,20.11,51,28,81.88,24,86.79-11.15,125.48-122.08,142.63-213.19,5.53-29.36,9.21-58.62,11.67-85.43Z"></path><path class="cls-3" d="M647.35,825.78c-5.5,11.51-17.87,43.31-38.43,126.34l-24.72-4.85c16.24-65.77,30.23-111.31,40.93-133a10.39,10.39,0,0,1,9-5.79C642.32,808.26,651.25,817.6,647.35,825.78Z"></path><path class="cls-2" d="M647.35,825.78c-5.5,11.51-17.87,43.31-38.43,126.34l-24.72-4.85c16.24-65.77,30.23-111.31,40.93-133a10.39,10.39,0,0,1,9-5.79C642.32,808.26,651.25,817.6,647.35,825.78Z"></path><path class="cls-5" d="M915.71,1518.83C867.87,1565.6,809.37,1590,745.49,1590q-10,0-20.16-.79c-68.61-5.41-120.42-30.8-154-75.52-57.18-76.11-64.19-206.46-22.07-410.22,12.44-60.24,24.19-112.64,34.94-156.17l24.72,4.85c-9.79,39.45-21.41,90.47-35,156.4-19.76,95.54-28.27,172.91-26.06,236.49,2.35,67.4,16.61,117.61,43.6,153.55,29.47,39.24,73.92,60.68,135.88,65.55,64.28,5.06,123.34-16.83,170.85-63.26,64.61-63.18,99.65-164.3,93.71-270.49L1017,1229C1023.3,1342.29,985.44,1450.66,915.71,1518.83Z"></path><path class="cls-2" d="M915.71,1518.83C867.87,1565.6,809.37,1590,745.49,1590q-10,0-20.16-.79c-68.61-5.41-120.42-30.8-154-75.52-57.18-76.11-64.19-206.46-22.07-410.22,12.44-60.24,24.19-112.64,34.94-156.17l24.72,4.85c-9.79,39.45-21.41,90.47-35,156.4-19.76,95.54-28.27,172.91-26.06,236.49,2.35,67.4,16.61,117.61,43.6,153.55,29.47,39.24,73.92,60.68,135.88,65.55,64.28,5.06,123.34-16.83,170.85-63.26,64.61-63.18,99.65-164.3,93.71-270.49L1017,1229C1023.3,1342.29,985.44,1450.66,915.71,1518.83Z"></path><rect class="cls-1" x="908.85" y="687.66" width="428.01" height="521.64" rx="50.35"></rect><path class="cls-6" d="M994.56,919.7h255.19a5.31,5.31,0,0,1,5.31,5.31v284.3a0,0,0,0,1,0,0H989.26a0,0,0,0,1,0,0V925A5.31,5.31,0,0,1,994.56,919.7Z"></path><path class="cls-3" d="M1241.47,944v157.09a11.19,11.19,0,0,1-11.19,11.19h-72.07a14.39,14.39,0,0,0-14.38,14.38v62.5a7.3,7.3,0,0,1-7.3,7.29H1013.66a10.87,10.87,0,0,1-10.88-10.88V944a10.87,10.87,0,0,1,10.88-10.89h216.91A10.91,10.91,0,0,1,1241.47,944Z"></path><rect class="cls-7" x="1001.4" y="919.7" width="242.65" height="6.78"></rect><path class="cls-7" d="M1244.81,1090.35v27a5.48,5.48,0,0,1-5.48,5.48h-75.75a5.29,5.29,0,0,1-5.28-5.28v-5.32h72a11.19,11.19,0,0,0,11.19-11.19v-10.7Z"></path><rect class="cls-8" x="1073.49" y="844.43" width="96.74" height="72.23" rx="1.91"></rect><rect class="cls-3" x="1071.82" y="847.96" width="100.66" height="64.52" rx="3.38"></rect><rect class="cls-9" x="1071.82" y="847.96" width="100.66" height="64.52" rx="3.38"></rect><path class="cls-8" d="M909.55,729.69h54.61a5.8,5.8,0,0,1,5.8,5.8v422.28a5.8,5.8,0,0,1-5.8,5.8H909.07"></path><rect class="cls-2" x="908.85" y="687.66" width="428.01" height="521.64" rx="50.35"></rect><path class="cls-3" d="M1034.16,644H1225.7a8.35,8.35,0,0,1,8.35,8.35v35.33a0,0,0,0,1,0,0H1025.81a0,0,0,0,1,0,0V652.33A8.35,8.35,0,0,1,1034.16,644Z"></path><path class="cls-2" d="M1034.16,644H1225.7a8.35,8.35,0,0,1,8.35,8.35v35.33a0,0,0,0,1,0,0H1025.81a0,0,0,0,1,0,0V652.33A8.35,8.35,0,0,1,1034.16,644Z"></path><circle class="cls-3" cx="1122.86" cy="779.36" r="43.13"></circle><circle class="cls-10" cx="1122.86" cy="779.36" r="27"></circle><circle class="cls-2" cx="1122.86" cy="779.36" r="27"></circle><circle class="cls-2" cx="1122.86" cy="779.36" r="43.13"></circle><circle class="cls-3" cx="937.92" cy="823.83" r="20.6"></circle><circle class="cls-10" cx="937.92" cy="823.83" r="12.75"></circle><circle class="cls-11" cx="937.92" cy="823.83" r="20.6"></circle><circle class="cls-11" cx="937.92" cy="823.83" r="12.75"></circle><circle class="cls-3" cx="937.92" cy="886.83" r="20.6"></circle><circle class="cls-10" cx="937.92" cy="886.83" r="12.75"></circle><circle class="cls-11" cx="937.92" cy="886.83" r="20.6"></circle><circle class="cls-11" cx="937.92" cy="886.83" r="12.75"></circle><circle class="cls-3" cx="937.92" cy="949.83" r="20.6"></circle><circle class="cls-10" cx="937.92" cy="949.83" r="12.75"></circle><circle class="cls-11" cx="937.92" cy="949.83" r="20.6"></circle><circle class="cls-11" cx="937.92" cy="949.83" r="12.75"></circle><circle class="cls-3" cx="937.92" cy="1012.84" r="20.6"></circle><circle class="cls-10" cx="937.92" cy="1012.84" r="12.75"></circle><circle class="cls-11" cx="937.92" cy="1012.84" r="20.6"></circle><circle class="cls-11" cx="937.92" cy="1012.84" r="12.75"></circle><circle class="cls-3" cx="937.92" cy="1075.84" r="20.6"></circle><circle class="cls-10" cx="937.92" cy="1075.84" r="12.75"></circle><circle class="cls-11" cx="937.92" cy="1075.84" r="20.6"></circle><circle class="cls-11" cx="937.92" cy="1075.84" r="12.75"></circle><circle class="cls-3" cx="937.92" cy="1138.84" r="20.6"></circle><circle class="cls-10" cx="937.92" cy="1138.84" r="12.75"></circle><circle class="cls-11" cx="937.92" cy="1138.84" r="20.6"></circle><circle class="cls-11" cx="937.92" cy="1138.84" r="12.75"></circle><circle class="cls-3" cx="937.92" cy="760.83" r="12.75"></circle><circle class="cls-3" cx="937.92" cy="760.83" r="12.75"></circle><rect class="cls-3" x="917.31" y="740.22" width="41.21" height="41.21" rx="2.54"></rect><circle class="cls-10" cx="937.92" cy="760.83" r="12.75"></circle><circle class="cls-11" cx="937.92" cy="760.83" r="12.75"></circle><rect class="cls-11" x="917.31" y="740.22" width="41.21" height="41.21" rx="2.54"></rect><path class="cls-8" d="M1336.86,1163.57h-55.1a5.8,5.8,0,0,1-5.79-5.8V735.49a5.8,5.8,0,0,1,5.79-5.8h54.62"></path><circle class="cls-3" cx="1308.01" cy="823.83" r="20.6"></circle><circle class="cls-10" cx="1308.01" cy="823.83" r="12.75"></circle><circle class="cls-11" cx="1308.01" cy="823.83" r="20.6"></circle><circle class="cls-11" cx="1308.01" cy="823.83" r="12.75"></circle><circle class="cls-3" cx="1308.01" cy="886.83" r="20.6"></circle><circle class="cls-10" cx="1308.01" cy="886.83" r="12.75"></circle><circle class="cls-11" cx="1308.01" cy="886.83" r="20.6"></circle><circle class="cls-11" cx="1308.01" cy="886.83" r="12.75"></circle><circle class="cls-3" cx="1308.01" cy="949.83" r="20.6"></circle><circle class="cls-10" cx="1308.01" cy="949.83" r="12.75"></circle><circle class="cls-11" cx="1308.01" cy="949.83" r="20.6"></circle><circle class="cls-11" cx="1308.01" cy="949.83" r="12.75"></circle><circle class="cls-3" cx="1308.01" cy="1012.84" r="20.6"></circle><circle class="cls-10" cx="1308.01" cy="1012.84" r="12.75"></circle><circle class="cls-11" cx="1308.01" cy="1012.84" r="20.6"></circle><circle class="cls-11" cx="1308.01" cy="1012.84" r="12.75"></circle><circle class="cls-3" cx="1308.01" cy="1075.84" r="20.6"></circle><circle class="cls-10" cx="1308.01" cy="1075.84" r="12.75"></circle><circle class="cls-11" cx="1308.01" cy="1075.84" r="20.6"></circle><circle class="cls-11" cx="1308.01" cy="1075.84" r="12.75"></circle><circle class="cls-3" cx="1308.01" cy="1138.84" r="20.6"></circle><circle class="cls-10" cx="1308.01" cy="1138.84" r="12.75"></circle><circle class="cls-11" cx="1308.01" cy="1138.84" r="20.6"></circle><circle class="cls-11" cx="1308.01" cy="1138.84" r="12.75"></circle><circle class="cls-3" cx="1308.01" cy="760.83" r="12.75"></circle><circle class="cls-3" cx="1308.01" cy="760.83" r="12.75"></circle><rect class="cls-3" x="1287.41" y="740.22" width="41.21" height="41.21" rx="2.54" transform="translate(2616.03 1521.65) rotate(-180)"></rect><circle class="cls-10" cx="1308.01" cy="760.83" r="12.75"></circle><circle class="cls-11" cx="1308.01" cy="760.83" r="12.75"></circle><rect class="cls-11" x="1287.41" y="740.22" width="41.21" height="41.21" rx="2.54" transform="translate(2616.03 1521.65) rotate(-180)"></rect><rect class="cls-8" x="1195.85" y="856" width="21.42" height="42.51" rx="1.35"></rect><path class="cls-10" d="M1202.23,860.36h9a1.93,1.93,0,0,1,1.93,1.93v7.2a0,0,0,0,1,0,0h-12.9a0,0,0,0,1,0,0v-7.2A1.93,1.93,0,0,1,1202.23,860.36Z"></path><path class="cls-10" d="M1202.23,885h9a1.93,1.93,0,0,1,1.93,1.93v7.2a0,0,0,0,1,0,0h-12.9a0,0,0,0,1,0,0V887A1.93,1.93,0,0,1,1202.23,885Z" transform="translate(2413.49 1779.18) rotate(180)"></path><rect class="cls-1" x="1200.3" y="870.81" width="12.9" height="12.9"></rect><rect class="cls-8" x="1007.2" y="839.1" width="21.42" height="42.51" rx="1.35" transform="translate(1878.27 -157.55) rotate(90)"></rect><path class="cls-10" d="M1025.72,856h9a1.93,1.93,0,0,1,1.93,1.93v7.2a0,0,0,0,1,0,0h-12.9a0,0,0,0,1,0,0v-7.2A1.93,1.93,0,0,1,1025.72,856Z" transform="translate(1890.78 -169.7) rotate(90)"></path><path class="cls-10" d="M1001.06,856h9a1.93,1.93,0,0,1,1.93,1.93v7.2a0,0,0,0,1,0,0h-12.9a0,0,0,0,1,0,0v-7.2A1.93,1.93,0,0,1,1001.06,856Z" transform="translate(145.04 1866.11) rotate(-90)"></path><path class="cls-10" d="M989.11,883h12.43a2.6,2.6,0,0,1,2.6,2.6v9.54a0,0,0,0,1,0,0H986.51a0,0,0,0,1,0,0v-9.54A2.6,2.6,0,0,1,989.11,883Z" transform="translate(106.29 1884.37) rotate(-90)"></path><path class="cls-10" d="M1029.5,883h17.64a0,0,0,0,1,0,0v9.54a2.6,2.6,0,0,1-2.6,2.6H1032.1a2.6,2.6,0,0,1-2.6-2.6V883A0,0,0,0,1,1029.5,883Z" transform="translate(149.28 1927.35) rotate(-90)"></path><rect class="cls-1" x="1011.46" y="854.09" width="12.9" height="12.9" transform="translate(1878.45 -157.37) rotate(90)"></rect><rect class="cls-8" x="1217.28" y="856" width="21.42" height="42.51" rx="1.35"></rect><path class="cls-10" d="M1223.65,860.36h9a1.93,1.93,0,0,1,1.93,1.93v7.2a0,0,0,0,1,0,0h-12.9a0,0,0,0,1,0,0v-7.2A1.93,1.93,0,0,1,1223.65,860.36Z"></path><path class="cls-10" d="M1223.65,885h9a1.93,1.93,0,0,1,1.93,1.93v7.2a0,0,0,0,1,0,0h-12.9a0,0,0,0,1,0,0V887A1.93,1.93,0,0,1,1223.65,885Z" transform="translate(2456.34 1779.18) rotate(180)"></path><rect class="cls-1" x="1221.72" y="870.81" width="12.9" height="12.9"></rect><circle class="cls-12" cx="1121.85" cy="880.54" r="22.6"></circle><circle class="cls-11" cx="1121.85" cy="880.54" r="22.6"></circle><path class="cls-10" d="M1074.72,873.19v16.26a2.4,2.4,0,0,0,2.39,2.4h.47a2.15,2.15,0,0,1,2.15,2.15v2.36a2.15,2.15,0,0,1-2.15,2.15h-16.91a4.07,4.07,0,0,1-4.07-4.07V868.23a4.08,4.08,0,0,1,4.07-4.08h16.91a2.15,2.15,0,0,1,2.15,2.15v2.35a2.15,2.15,0,0,1-2.15,2.15h-.47A2.39,2.39,0,0,0,1074.72,873.19Z"></path><path class="cls-11" d="M1074.72,873.19v16.26a2.4,2.4,0,0,0,2.39,2.4h.47a2.15,2.15,0,0,1,2.15,2.15v2.36a2.15,2.15,0,0,1-2.15,2.15h-16.91a4.07,4.07,0,0,1-4.07-4.07V868.23a4.08,4.08,0,0,1,4.07-4.08h16.91a2.15,2.15,0,0,1,2.15,2.15v2.35a2.15,2.15,0,0,1-2.15,2.15h-.47A2.39,2.39,0,0,0,1074.72,873.19Z"></path><path class="cls-10" d="M1169.35,889.47V873.21a2.39,2.39,0,0,0-2.4-2.39h-.46a2.15,2.15,0,0,1-2.15-2.15V866.3a2.15,2.15,0,0,1,2.15-2.15h16.9a4.08,4.08,0,0,1,4.08,4.08v26.21a4.08,4.08,0,0,1-4.08,4.07h-16.9a2.15,2.15,0,0,1-2.15-2.15V894a2.15,2.15,0,0,1,2.15-2.15h.46A2.39,2.39,0,0,0,1169.35,889.47Z"></path><path class="cls-11" d="M1169.35,889.47V873.21a2.39,2.39,0,0,0-2.4-2.39h-.46a2.15,2.15,0,0,1-2.15-2.15V866.3a2.15,2.15,0,0,1,2.15-2.15h16.9a4.08,4.08,0,0,1,4.08,4.08v26.21a4.08,4.08,0,0,1-4.08,4.07h-16.9a2.15,2.15,0,0,1-2.15-2.15V894a2.15,2.15,0,0,1,2.15-2.15h.46A2.39,2.39,0,0,0,1169.35,889.47Z"></path><rect class="cls-8" x="981.79" y="872.51" width="68.04" height="33.51" rx="2.91"></rect><rect class="cls-13" x="1002.77" y="880.22" width="28.27" height="17.64" rx="2.19"></rect><path class="cls-11" d="M994.56,919.7h255.19a5.31,5.31,0,0,1,5.31,5.31v284.3a0,0,0,0,1,0,0H989.26a0,0,0,0,1,0,0V925A5.31,5.31,0,0,1,994.56,919.7Z"></path><rect class="cls-10" x="979.77" y="949.83" width="14.01" height="10.14" rx="1.92"></rect><rect class="cls-10" x="979.77" y="979.03" width="14.01" height="10.14" rx="1.92"></rect><rect class="cls-10" x="979.77" y="1008.23" width="14.01" height="10.14" rx="1.92"></rect><rect class="cls-10" x="979.77" y="1037.44" width="14.01" height="10.14" rx="1.92"></rect><rect class="cls-10" x="979.77" y="1066.64" width="14.01" height="10.14" rx="1.92"></rect><rect class="cls-10" x="1248.06" y="979.03" width="14.01" height="10.14" rx="1.92"></rect><rect class="cls-10" x="1248.06" y="1008.23" width="14.01" height="10.14" rx="1.92"></rect><rect class="cls-10" x="1248.06" y="1037.44" width="14.01" height="10.14" rx="1.92"></rect><rect class="cls-10" x="1248.06" y="1066.64" width="14.01" height="10.14" rx="1.92"></rect><rect class="cls-10" x="979.77" y="1095.84" width="14.01" height="10.14" rx="1.92"></rect><rect class="cls-10" x="979.77" y="1125.04" width="14.01" height="10.14" rx="1.92"></rect><rect class="cls-10" x="979.77" y="1154.24" width="14.01" height="10.14" rx="1.92"></rect><path class="cls-11" d="M1241.47,944v157.09a11.19,11.19,0,0,1-11.19,11.19h-72.07a14.39,14.39,0,0,0-14.38,14.38v62.5a7.3,7.3,0,0,1-7.3,7.29H1013.66a10.87,10.87,0,0,1-10.88-10.88V944a10.87,10.87,0,0,1,10.88-10.89h216.91A10.91,10.91,0,0,1,1241.47,944Z"></path><rect class="cls-14" x="1163.39" y="1128.06" width="78.08" height="66.46" rx="4.6"></rect><rect class="cls-11" x="1163.39" y="1128.06" width="78.08" height="66.46" rx="4.6"></rect><path class="cls-11" d="M1174,1162.51a20.83,20.83,0,0,1-.2-3.07,26.17,26.17,0,0,1,49.37-12.11"></path><path class="cls-15" d="M1176.94,1160.8l60.23-6.69a4.2,4.2,0,0,1,4.66,3.83l4.62,54.75a15.85,15.85,0,0,1-4.45,12.4h0a15.83,15.83,0,0,0-4.3,13.64l5.87,35.76a7.29,7.29,0,0,1-5.83,8.34l-23.94,4.56a7.29,7.29,0,0,1-8.55-5.92l-6.69-38.84a15.85,15.85,0,0,0-6-9.9l-4.94-3.78a15.86,15.86,0,0,1-6-10.1l-8.44-53.11A4.29,4.29,0,0,1,1176.94,1160.8Z"></path><path class="cls-7" d="M1178.19,1160.66l1.47-5.29a4.77,4.77,0,0,1,4.06-3.48l44-5.1a4,4,0,0,1,3.83,1.81l3.7,5.72"></path><path class="cls-11" d="M1176.94,1160.8l60.23-6.69a4.2,4.2,0,0,1,4.66,3.83l4.62,54.75a15.85,15.85,0,0,1-4.45,12.4h0a15.83,15.83,0,0,0-4.3,13.64l5.87,35.76a7.29,7.29,0,0,1-5.83,8.34l-23.94,4.56a7.29,7.29,0,0,1-8.55-5.92l-6.69-38.84a15.85,15.85,0,0,0-6-9.9l-4.94-3.78a15.86,15.86,0,0,1-6-10.1l-8.44-53.11A4.29,4.29,0,0,1,1176.94,1160.8Z"></path><path class="cls-11" d="M1178.19,1160.66l1.47-5.29a4.77,4.77,0,0,1,4.06-3.48l44-5.1a4,4,0,0,1,3.83,1.81l3.7,5.72"></path><rect class="cls-7" x="985.98" y="1151.6" width="9.51" height="15.22" rx="1.07"></rect><rect class="cls-7" x="985.98" y="1122.5" width="9.51" height="15.22" rx="1.07"></rect><rect class="cls-7" x="985.98" y="1093.4" width="9.51" height="15.22" rx="1.07"></rect><rect class="cls-7" x="985.98" y="1064.3" width="9.51" height="15.22" rx="1.07"></rect><rect class="cls-7" x="985.98" y="1035.21" width="9.51" height="15.22" rx="1.07"></rect><rect class="cls-7" x="985.98" y="1006.11" width="9.51" height="15.22" rx="1.07"></rect><rect class="cls-7" x="985.98" y="977.01" width="9.51" height="15.22" rx="1.07"></rect><rect class="cls-7" x="1248.06" y="1064.3" width="9.51" height="15.22" rx="1.07"></rect><rect class="cls-7" x="1248.06" y="1035.21" width="9.51" height="15.22" rx="1.07"></rect><rect class="cls-7" x="1248.06" y="1006.11" width="9.51" height="15.22" rx="1.07"></rect><rect class="cls-7" x="1248.06" y="977.01" width="9.51" height="15.22" rx="1.07"></rect><rect class="cls-7" x="985.98" y="947.91" width="9.51" height="15.22" rx="1.07"></rect><rect class="cls-7" x="1008.18" y="1200.04" width="135.56" height="5.76" rx="2.88"></rect><path class="cls-16" d="M1020.17,973.41l4.62-.75a3.63,3.63,0,0,0,1.19,2.17,3.86,3.86,0,0,0,2.53.75,4.35,4.35,0,0,0,2.68-.7,1.59,1.59,0,0,0,.61-1.31,1.36,1.36,0,0,0-.33-.93,3.61,3.61,0,0,0-1.54-.64c-3.71-.88-6.06-1.67-7.06-2.39a4.89,4.89,0,0,1-2.06-4.18,5.31,5.31,0,0,1,1.79-4q1.78-1.64,5.53-1.64a9.11,9.11,0,0,1,5.3,1.24,6.38,6.38,0,0,1,2.4,3.67l-4.34.85a2.92,2.92,0,0,0-1.06-1.66,3.72,3.72,0,0,0-2.22-.57,4.73,4.73,0,0,0-2.6.54,1.2,1.2,0,0,0-.53,1,1.14,1.14,0,0,0,.46.89,16.87,16.87,0,0,0,4.3,1.37,12.44,12.44,0,0,1,5.13,2.19,4.68,4.68,0,0,1,1.44,3.65,5.74,5.74,0,0,1-2,4.38q-2,1.83-5.91,1.83a9.22,9.22,0,0,1-5.63-1.54A7.09,7.09,0,0,1,1020.17,973.41Z"></path><path class="cls-16" d="M1050.51,972.8l4.59.82a8.06,8.06,0,0,1-2.79,4.1,7.91,7.91,0,0,1-4.78,1.4q-4.53,0-6.71-3.16a11.11,11.11,0,0,1-1.72-6.39,10.66,10.66,0,0,1,2.26-7.22,7.23,7.23,0,0,1,5.71-2.61,7.52,7.52,0,0,1,6.13,2.73c1.49,1.83,2.21,4.62,2.14,8.38h-11.52a5.14,5.14,0,0,0,1.11,3.39,3.37,3.37,0,0,0,2.65,1.21,2.7,2.7,0,0,0,1.82-.62A4,4,0,0,0,1050.51,972.8Zm.26-5a4.88,4.88,0,0,0-1-3.24,3.09,3.09,0,0,0-2.39-1.1,3.13,3.13,0,0,0-2.49,1.17,4.71,4.71,0,0,0-1,3.17Z"></path><path class="cls-16" d="M1069.69,972.8l4.59.82a8.06,8.06,0,0,1-2.79,4.1,7.91,7.91,0,0,1-4.78,1.4q-4.53,0-6.71-3.16a11.11,11.11,0,0,1-1.72-6.39,10.66,10.66,0,0,1,2.26-7.22,7.24,7.24,0,0,1,5.72-2.61,7.51,7.51,0,0,1,6.12,2.73c1.49,1.83,2.21,4.62,2.14,8.38H1063a5.14,5.14,0,0,0,1.11,3.39,3.37,3.37,0,0,0,2.65,1.21,2.7,2.7,0,0,0,1.82-.62A4,4,0,0,0,1069.69,972.8Zm.27-5a4.94,4.94,0,0,0-1-3.24,3.09,3.09,0,0,0-2.39-1.1,3.13,3.13,0,0,0-2.49,1.17,4.71,4.71,0,0,0-1,3.17Z"></path><path class="cls-16" d="M1089.62,972.8l4.59.82a8.06,8.06,0,0,1-2.79,4.1,7.91,7.91,0,0,1-4.78,1.4q-4.53,0-6.71-3.16a11.11,11.11,0,0,1-1.72-6.39,10.66,10.66,0,0,1,2.26-7.22,7.23,7.23,0,0,1,5.71-2.61,7.52,7.52,0,0,1,6.13,2.73c1.49,1.83,2.21,4.62,2.14,8.38h-11.52a5.14,5.14,0,0,0,1.11,3.39,3.37,3.37,0,0,0,2.65,1.21,2.7,2.7,0,0,0,1.82-.62A4,4,0,0,0,1089.62,972.8Zm.26-5a4.88,4.88,0,0,0-1-3.24,3.09,3.09,0,0,0-2.39-1.1,3.13,3.13,0,0,0-2.49,1.17,4.71,4.71,0,0,0-1,3.17Z"></path><path class="cls-16" d="M1115.11,978.7h-4.27V976a7,7,0,0,1-2.52,2.36,6.09,6.09,0,0,1-2.92.78,6.46,6.46,0,0,1-5.13-2.57q-2.14-2.58-2.14-7.19t2.08-7.17a6.62,6.62,0,0,1,5.26-2.45,6.35,6.35,0,0,1,5,2.59v-9.22h4.6ZM1102.83,969a9,9,0,0,0,.77,4.3,3.44,3.44,0,0,0,3.11,1.92,3.31,3.31,0,0,0,2.7-1.44,7,7,0,0,0,1.12-4.31,7.57,7.57,0,0,0-1.09-4.6,3.32,3.32,0,0,0-2.76-1.4,3.37,3.37,0,0,0-2.74,1.38A6.57,6.57,0,0,0,1102.83,969Z"></path><path class="cls-16" d="M1131.51,973.41l4.62-.75a3.58,3.58,0,0,0,1.19,2.17,3.83,3.83,0,0,0,2.52.75,4.39,4.39,0,0,0,2.69-.7,1.61,1.61,0,0,0,.61-1.31,1.36,1.36,0,0,0-.33-.93,3.61,3.61,0,0,0-1.54-.64c-3.71-.88-6.06-1.67-7.06-2.39a4.89,4.89,0,0,1-2.06-4.18,5.3,5.3,0,0,1,1.78-4q1.78-1.64,5.54-1.64a9.11,9.11,0,0,1,5.3,1.24,6.31,6.31,0,0,1,2.39,3.67l-4.34.85a2.86,2.86,0,0,0-1-1.66,3.72,3.72,0,0,0-2.22-.57,4.73,4.73,0,0,0-2.6.54,1.2,1.2,0,0,0-.53,1,1.14,1.14,0,0,0,.46.89,16.87,16.87,0,0,0,4.3,1.37,12.44,12.44,0,0,1,5.13,2.19,4.68,4.68,0,0,1,1.44,3.65,5.71,5.71,0,0,1-2,4.38q-2,1.83-5.91,1.83a9.21,9.21,0,0,1-5.62-1.54A7.09,7.09,0,0,1,1131.51,973.41Z"></path><path class="cls-16" d="M1157.72,960.16v3.91h-3.15v7.47a19.84,19.84,0,0,0,.09,2.65,1.09,1.09,0,0,0,.41.62,1.25,1.25,0,0,0,.78.24,5.52,5.52,0,0,0,1.86-.47l.39,3.81a8.68,8.68,0,0,1-3.65.73,5.61,5.61,0,0,1-2.25-.44,3.26,3.26,0,0,1-1.47-1.16,4.7,4.7,0,0,1-.65-1.91,25.37,25.37,0,0,1-.14-3.45v-8.09h-2.12v-3.91h2.12v-3.68l4.63-2.87v6.55Z"></path><path class="cls-16" d="M1172.41,978.7v-2.77a6.85,6.85,0,0,1-2.5,2.34,6.71,6.71,0,0,1-3.28.85,6.1,6.1,0,0,1-3.16-.82,4.76,4.76,0,0,1-2-2.3,11,11,0,0,1-.62-4.11V960.16h4.61v8.52a24.75,24.75,0,0,0,.26,4.79,2.6,2.6,0,0,0,.93,1.4,2.76,2.76,0,0,0,1.71.52,3.6,3.6,0,0,0,3.4-2.41,21.11,21.11,0,0,0,.34-5v-7.82h4.62V978.7Z"></path><path class="cls-16" d="M1197.48,978.7h-4.29V976a7,7,0,0,1-2.52,2.36,6.13,6.13,0,0,1-2.93.78,6.5,6.5,0,0,1-5.15-2.57,10.94,10.94,0,0,1-2.15-7.19q0-4.71,2.09-7.17a6.64,6.64,0,0,1,5.28-2.45,6.4,6.4,0,0,1,5.06,2.59v-9.22h4.61ZM1185.16,969a9,9,0,0,0,.77,4.3,3.47,3.47,0,0,0,3.12,1.92,3.31,3.31,0,0,0,2.71-1.44,6.93,6.93,0,0,0,1.12-4.31,7.65,7.65,0,0,0-1.08-4.6,3.36,3.36,0,0,0-2.78-1.4,3.4,3.4,0,0,0-2.75,1.38A6.57,6.57,0,0,0,1185.16,969Z"></path><path class="cls-16" d="M1202,957.65v-4.54h4.62v4.54Zm0,21.05V960.16h4.62V978.7Z"></path><path class="cls-16" d="M1210.31,969.17a10.46,10.46,0,0,1,1.14-4.73,7.94,7.94,0,0,1,3.21-3.49,9,9,0,0,1,4.64-1.21,8.46,8.46,0,0,1,6.49,2.73,10.73,10.73,0,0,1,0,13.88,8.35,8.35,0,0,1-6.43,2.77,9.6,9.6,0,0,1-4.57-1.15,7.67,7.67,0,0,1-3.31-3.38A11.77,11.77,0,0,1,1210.31,969.17Zm4.74.26a6.43,6.43,0,0,0,1.23,4.23,3.88,3.88,0,0,0,6.07,0,6.54,6.54,0,0,0,1.22-4.26,6.38,6.38,0,0,0-1.22-4.19,3.87,3.87,0,0,0-6.07,0A6.38,6.38,0,0,0,1215.05,969.43Z"></path><path class="cls-16" d="M1030.39,1010.07l-4.77-18.78h2.57l2.23,9.5c.55,2.34,1.06,4.68,1.39,6.5h.06c.3-1.87.89-4.1,1.53-6.52l2.51-9.48h2.53l2.29,9.53c.53,2.23,1,4.46,1.31,6.44h0c.39-2.06.92-4.15,1.51-6.49l2.48-9.48h2.48l-5.32,18.78h-2.54l-2.37-9.78a57.88,57.88,0,0,1-1.22-6.13h-.06a56.39,56.39,0,0,1-1.45,6.13l-2.67,9.78Z"></path><path class="cls-16" d="M1053.11,992.79a1.52,1.52,0,0,1-3,0,1.49,1.49,0,0,1,1.53-1.53A1.46,1.46,0,0,1,1053.11,992.79Zm-2.73,17.28V996.58h2.45v13.49Z"></path><path class="cls-16" d="M1069.11,1003.22c0,5-3.46,7.16-6.72,7.16-3.65,0-6.46-2.68-6.46-6.94,0-4.51,3-7.16,6.68-7.16C1066.49,996.28,1069.11,999.09,1069.11,1003.22Zm-10.7.14c0,2.95,1.7,5.18,4.09,5.18s4.1-2.2,4.1-5.24c0-2.28-1.14-5.18-4-5.18S1058.41,1000.79,1058.41,1003.36Z"></path><path class="cls-16" d="M1078.31,1001.63v1.81h-6.88v-1.81Z"></path><path class="cls-16" d="M1080.93,1007.12a8.61,8.61,0,0,0,4.35,1.23c2.48,0,3.93-1.31,3.93-3.21s-1-2.76-3.54-3.73c-3.07-1.09-5-2.68-5-5.33,0-2.92,2.42-5.1,6.07-5.1a8.6,8.6,0,0,1,4.16.92l-.67,2a7.58,7.58,0,0,0-3.57-.89c-2.56,0-3.54,1.53-3.54,2.81,0,1.76,1.14,2.62,3.74,3.63,3.17,1.22,4.79,2.76,4.79,5.51s-2.15,5.41-6.58,5.41a9.67,9.67,0,0,1-4.79-1.2Z"></path><path class="cls-16" d="M1105.29,1010.07l-2.39-4.15c-1-1.59-1.59-2.62-2.18-3.71h0c-.53,1.09-1.06,2.09-2,3.74l-2.26,4.12h-2.78l5.74-9.5-5.52-9.28h2.82l2.48,4.4c.69,1.23,1.22,2.18,1.72,3.18h.09c.53-1.12,1-2,1.7-3.18l2.56-4.4H1108l-5.71,9.14,5.85,9.64Z"></path><path class="cls-16" d="M1115.39,994.24h-.06l-3.15,1.7-.47-1.86,4-2.12h2.1v18.11h-2.37Z"></path><path class="cls-16" d="M1124.36,1010.07v-1.5l1.93-1.87c4.62-4.4,6.71-6.74,6.74-9.48a3.23,3.23,0,0,0-3.59-3.53,6.16,6.16,0,0,0-3.85,1.53l-.78-1.73a7.94,7.94,0,0,1,5.13-1.84c3.9,0,5.54,2.68,5.54,5.27,0,3.34-2.42,6.05-6.24,9.72l-1.45,1.34v.06h8.14v2Z"></path><path class="cls-16" d="M1149,993.69a8.82,8.82,0,0,0-1.84.11,7.34,7.34,0,0,0-6.29,6.44h.08a5.38,5.38,0,0,1,4.38-2.09c3.2,0,5.46,2.31,5.46,5.85,0,3.31-2.26,6.38-6,6.38s-6.41-3-6.41-7.72a11.42,11.42,0,0,1,3.06-8.17,9.94,9.94,0,0,1,5.8-2.67,12.05,12.05,0,0,1,1.78-.14Zm-.69,10.45c0-2.6-1.48-4.15-3.74-4.15a4,4,0,0,0-3.51,2.22,2.07,2.07,0,0,0-.28,1.09c.06,3,1.42,5.18,4,5.18C1146.89,1008.48,1148.31,1006.73,1148.31,1004.14Z"></path><path class="cls-16" d="M1153,1010.07v-1.5l1.92-1.87c4.62-4.4,6.71-6.74,6.74-9.48a3.23,3.23,0,0,0-3.59-3.53,6.16,6.16,0,0,0-3.85,1.53l-.78-1.73a8,8,0,0,1,5.13-1.84c3.9,0,5.55,2.68,5.55,5.27,0,3.34-2.43,6.05-6.25,9.72l-1.45,1.34v.06h8.14v2Z"></path><path class="cls-16" d="M1026.72,1023.72H1034v2h-5.52V1032h5.1v2h-5.1v8.5h-1.74Z"></path><path class="cls-16" d="M1045.87,1041.89a6.53,6.53,0,0,1-3.56.9c-3.79,0-6.65-3.35-6.65-9.51,0-5.88,2.86-9.86,7-9.86a5.59,5.59,0,0,1,3.2.83l-.42,2a4.92,4.92,0,0,0-2.72-.78c-3.16,0-5.25,2.82-5.25,7.75,0,4.6,1.9,7.55,5.17,7.55a5.36,5.36,0,0,0,2.84-.78Z"></path><path class="cls-16" d="M1057,1041.89a6.52,6.52,0,0,1-3.55.9c-3.8,0-6.66-3.35-6.66-9.51,0-5.88,2.86-9.86,7-9.86a5.59,5.59,0,0,1,3.2.83l-.42,2a4.92,4.92,0,0,0-2.72-.78c-3.15,0-5.25,2.82-5.25,7.75,0,4.6,1.9,7.55,5.18,7.55a5.35,5.35,0,0,0,2.83-.78Z"></path><path class="cls-16" d="M1065.2,1023.72v18.79h-1.74v-18.79Z"></path><path class="cls-16" d="M1068.24,1024a18.27,18.27,0,0,1,3.7-.39,6.43,6.43,0,0,1,5.45,2.34,10.65,10.65,0,0,1,1.9,6.75,12.38,12.38,0,0,1-1.94,7.3,7,7,0,0,1-5.95,2.7,20.2,20.2,0,0,1-3.16-.22Zm1.74,16.61a8,8,0,0,0,1.76.14c3.71,0,5.73-2.9,5.73-8,0-4.43-1.78-7.24-5.45-7.24a7.18,7.18,0,0,0-2,.25Z"></path><path class="cls-16" d="M1084.87,1041.09l7.47-15.25v-.08h-6.83v-2h9.09v1.48l-7.43,15.19v.08h7.53v2h-9.83Z"></path><path class="cls-16" d="M1101.66,1042.51v-4.94h-6V1036l5.8-11.57h1.9v11.26h1.81v1.92h-1.81v4.94Zm0-6.86v-6.05c0-.95,0-1.89.06-2.84h-.06c-.4,1.06-.72,1.84-1.08,2.68l-3.18,6.15v.06Z"></path><path class="cls-16" d="M1113.07,1025.79H1109v-2.07h10v2.07h-4.12v16.72h-1.76Z"></path><path class="cls-16" d="M1123.44,1034.06v1.81h-4.93v-1.81Z"></path><path class="cls-16" d="M1127.54,1042.51l-3.41-18.79H1126l1.59,9.51c.4,2.34.76,4.68,1,6.49h0c.22-1.87.64-4.1,1.1-6.52l1.8-9.48h1.82l1.64,9.53c.37,2.23.73,4.46.93,6.44h0c.28-2.06.66-4.15,1.08-6.49l1.78-9.48h1.78l-3.82,18.79h-1.81l-1.7-9.79c-.42-2.39-.7-4.23-.88-6.13h0c-.24,1.87-.54,3.71-1,6.13l-1.92,9.79Z"></path><path class="cls-16" d="M1144,1023.72v18.79h-1.73v-18.79Z"></path><path class="cls-16" d="M1158.54,1032.92c0,6.46-2.82,9.89-6.25,9.89s-6.06-3.84-6.06-9.53c0-6,2.66-9.86,6.26-9.86S1158.54,1027.34,1158.54,1032.92Zm-10.45.31c0,4,1.56,7.6,4.3,7.6s4.31-3.54,4.31-7.8c0-3.73-1.4-7.64-4.29-7.64S1148.09,1029.1,1148.09,1033.23Z"></path><path class="cls-16" d="M1165.1,1034.06v1.81h-4.93v-1.81Z"></path><path class="cls-16" d="M1167,1039.55a5,5,0,0,0,3.12,1.23c1.78,0,2.82-1.31,2.82-3.21,0-1.75-.72-2.76-2.54-3.73-2.2-1.09-3.56-2.68-3.56-5.32,0-2.93,1.74-5.1,4.36-5.1a4.71,4.71,0,0,1,3,.92l-.48,2a4.19,4.19,0,0,0-2.55-.9,2.57,2.57,0,0,0-2.54,2.82c0,1.75.82,2.62,2.68,3.62a5.66,5.66,0,0,1,3.43,5.52c0,2.9-1.54,5.41-4.71,5.41a5.5,5.5,0,0,1-3.44-1.2Z"></path><path class="cls-16" d="M1184.45,1042.51l-1.72-4.16c-.7-1.58-1.14-2.62-1.56-3.7h0c-.38,1.08-.76,2.09-1.46,3.73l-1.62,4.13h-2l4.11-9.51-4-9.28h2l1.78,4.41c.5,1.22.88,2.17,1.24,3.17h.06c.38-1.11.72-2,1.22-3.17l1.84-4.41h2l-4.1,9.14,4.2,9.65Z"></path><path class="cls-16" d="M1191.69,1026.68h0l-2.26,1.7-.34-1.87,2.84-2.12h1.49v18.12h-1.69Z"></path><path class="cls-16" d="M1198.12,1042.51V1041l1.38-1.87c3.32-4.4,4.82-6.74,4.84-9.47,0-1.84-.64-3.54-2.58-3.54a3.91,3.91,0,0,0-2.76,1.53l-.56-1.73a4.87,4.87,0,0,1,3.68-1.84c2.8,0,4,2.68,4,5.27,0,3.35-1.73,6.05-4.47,9.73l-1,1.34v0h5.83v2Z"></path><path class="cls-16" d="M1215.79,1026.12a4.56,4.56,0,0,0-1.32.11c-2.76.64-4.21,3.46-4.51,6.44h.06a3.63,3.63,0,0,1,3.13-2.09c2.3,0,3.92,2.31,3.92,5.85,0,3.32-1.62,6.38-4.32,6.38s-4.59-3-4.59-7.72a14.13,14.13,0,0,1,2.2-8.16,6.42,6.42,0,0,1,4.15-2.68,6.23,6.23,0,0,1,1.28-.14Zm-.5,10.45c0-2.59-1.06-4.15-2.68-4.15a3,3,0,0,0-2.51,2.23,2.74,2.74,0,0,0-.2,1.08c0,3,1,5.19,2.85,5.19C1214.27,1040.92,1215.29,1039.16,1215.29,1036.57Z"></path><path class="cls-16" d="M1218.63,1042.51V1041l1.38-1.87c3.32-4.4,4.81-6.74,4.83-9.47,0-1.84-.63-3.54-2.57-3.54a3.91,3.91,0,0,0-2.76,1.53l-.56-1.73a4.87,4.87,0,0,1,3.68-1.84c2.79,0,4,2.68,4,5.27,0,3.35-1.74,6.05-4.47,9.73l-1,1.34v0h5.83v2Z"></path><path class="cls-15" d="M1015.39,1250H993.45a4.46,4.46,0,0,1-4.45-4.18l-2.23-36.52h35.29l-2.22,36.52A4.45,4.45,0,0,1,1015.39,1250Z"></path><path class="cls-11" d="M1015.39,1250H993.45a4.46,4.46,0,0,1-4.45-4.18l-2.23-36.52h35.29l-2.22,36.52A4.45,4.45,0,0,1,1015.39,1250Z"></path></g></svg>