<svg xmlns="http://www.w3.org/2000/svg" viewBox="531.41 302.41 937.17 1395.19"><defs><style>.cls-1{fill:#353535;}.cls-11,.cls-14,.cls-2,.cls-4,.cls-8{fill:none;stroke-miterlimit:10;}.cls-11,.cls-2,.cls-4,.cls-8{stroke:#050606;}.cls-2{stroke-width:1.97px;}.cls-3{fill:#c2c1c0;}.cls-4{stroke-width:2.18px;}.cls-5{fill:#282828;}.cls-6{fill:#999;}.cls-7{fill:#ddd;}.cls-8{stroke-width:1.7px;}.cls-9{fill:#484949;}.cls-10{fill:#2d2d2d;}.cls-11{stroke-width:1.87px;}.cls-12{fill:#4776ba;}.cls-13{fill:#e0c28c;}.cls-14{stroke:#fff;stroke-width:1.1px;}.cls-15{fill:#fff;}.cls-16{fill:#231f20;}</style></defs><g id="Layer_2" data-name="Layer 2"><rect class="cls-1" x="1302.92" y="303.39" width="164.68" height="1046.34" rx="11.28"/><rect class="cls-2" x="1302.92" y="303.39" width="164.68" height="1046.34" rx="11.28"/><rect class="cls-3" x="1360.67" y="1179.6" width="52.8" height="52.8" rx="6.33"/><rect class="cls-3" x="1357.91" y="1264.95" width="58.32" height="58.32" rx="6.33"/><rect class="cls-2" x="1360.67" y="1179.6" width="52.8" height="52.8" rx="6.33"/><rect class="cls-4" x="1357.91" y="1264.95" width="58.32" height="58.32" rx="6.33"/><path class="cls-3" d="M1398.61,1336.08h-31.75c4.67-50.9,5.28-93.81,5.2-115.6a15.79,15.79,0,0,1,15.29-15.85h.53a15.78,15.78,0,0,1,15.77,15.69C1403.77,1242.43,1403.2,1285,1398.61,1336.08Z"/><path class="cls-2" d="M1398.61,1336.08h-31.75c4.67-50.9,5.28-93.81,5.2-115.6a15.79,15.79,0,0,1,15.29-15.85h.53a15.78,15.78,0,0,1,15.77,15.69C1403.77,1242.43,1403.2,1285,1398.61,1336.08Z"/><path class="cls-5" d="M1398.61,1336.08c-2.76,30.84-7,64.78-13.47,99.17-12.94,68.88-32.14,125.14-57.13,167.2-32.64,55-75.21,86.23-126.56,92.82a158.21,158.21,0,0,1-20.55,1.34c-34.39,0-65.78-11.63-93.57-34.74-113.07-94-128.55-349.12-129.16-359.93l31.51-1.75c.14,2.5,15.3,252.21,117.84,337.44,26.59,22.09,56,30.72,89.91,26.35,95.3-12.25,137.78-134.06,156.61-234.1,6.07-32.24,10.12-64.36,12.82-93.8Z"/><path class="cls-2" d="M1398.61,1336.08c-2.76,30.84-7,64.78-13.47,99.17-12.94,68.88-32.14,125.14-57.13,167.2-32.64,55-75.21,86.23-126.56,92.82a158.21,158.21,0,0,1-20.55,1.34c-34.39,0-65.78-11.63-93.57-34.74-113.07-94-128.55-349.12-129.16-359.93l31.51-1.75c.14,2.5,15.3,252.21,117.84,337.44,26.59,22.09,56,30.72,89.91,26.35,95.3-12.25,137.78-134.06,156.61-234.1,6.07-32.24,10.12-64.36,12.82-93.8Z"/><path class="cls-1" d="M888.82,776.26h65a48.53,48.53,0,0,1,48.52,48.52v475.75A48.52,48.52,0,0,1,953.86,1349H580.92a48.52,48.52,0,0,1-48.52-48.51V824.78a48.53,48.53,0,0,1,48.52-48.52h74.37"/><rect class="cls-3" x="759.3" y="1298.87" width="17.3" height="13.76" rx="3.13"/><rect class="cls-3" x="759.3" y="1319.19" width="17.3" height="13.76" rx="3.13"/><rect class="cls-6" x="593.84" y="958.85" width="348.9" height="293.26" rx="13.63"/><rect class="cls-7" x="603.57" y="968.49" width="329.45" height="273.98" rx="8.94"/><path class="cls-6" d="M600.07,862.32h10.22a0,0,0,0,1,0,0v5.06a1.46,1.46,0,0,1-1.46,1.46h-7.31a1.46,1.46,0,0,1-1.46-1.46v-5.06A0,0,0,0,1,600.07,862.32Z"/><path class="cls-6" d="M619.35,862.32h10.22a0,0,0,0,1,0,0v5.06a1.46,1.46,0,0,1-1.46,1.46H620.8a1.46,1.46,0,0,1-1.46-1.46v-5.06A0,0,0,0,1,619.35,862.32Z"/><path class="cls-6" d="M619.35,782.61h10.22a0,0,0,0,1,0,0v5.06a1.46,1.46,0,0,1-1.46,1.46H620.8a1.46,1.46,0,0,1-1.46-1.46v-5.06A0,0,0,0,1,619.35,782.61Z" transform="translate(1248.91 1571.74) rotate(180)"/><path class="cls-6" d="M600.07,782.61h10.22a0,0,0,0,1,0,0v5.06a1.46,1.46,0,0,1-1.46,1.46h-7.31a1.46,1.46,0,0,1-1.46-1.46v-5.06A0,0,0,0,1,600.07,782.61Z" transform="translate(1210.36 1571.74) rotate(180)"/><path class="cls-2" d="M888.82,776.26h65a48.53,48.53,0,0,1,48.52,48.52v475.75A48.52,48.52,0,0,1,953.86,1349H580.92a48.52,48.52,0,0,1-48.52-48.51V824.78a48.53,48.53,0,0,1,48.52-48.52h74.37"/><path class="cls-3" d="M973.57,828A22.63,22.63,0,1,0,996.2,850.6,22.61,22.61,0,0,0,973.57,828Zm0,36.63a14,14,0,1,1,14-14A14,14,0,0,1,973.57,864.62Z"/><path class="cls-6" d="M987.58,850.6a14,14,0,1,1-14-14A14,14,0,0,1,987.58,850.6Z"/><path class="cls-8" d="M973.56,828A22.63,22.63,0,1,0,996.2,850.6,22.62,22.62,0,0,0,973.56,828Zm0,36.63a14,14,0,1,1,14-14A14,14,0,0,1,973.56,864.61Z"/><path class="cls-3" d="M973.57,897.87a22.63,22.63,0,1,0,22.63,22.62A22.62,22.62,0,0,0,973.57,897.87Zm0,36.63a14,14,0,1,1,14-14A14,14,0,0,1,973.57,934.5Z"/><path class="cls-6" d="M987.58,920.49a14,14,0,1,1-14-14A14,14,0,0,1,987.58,920.49Z"/><path class="cls-8" d="M973.56,897.87a22.63,22.63,0,1,0,22.64,22.62A22.61,22.61,0,0,0,973.56,897.87Zm0,36.63a14,14,0,1,1,14-14A14,14,0,0,1,973.56,934.5Z"/><path class="cls-3" d="M973.57,967.76a22.63,22.63,0,1,0,22.63,22.62A22.62,22.62,0,0,0,973.57,967.76Zm0,36.63a14,14,0,1,1,14-14A14,14,0,0,1,973.57,1004.39Z"/><path class="cls-6" d="M987.58,990.38a14,14,0,1,1-14-14A14,14,0,0,1,987.58,990.38Z"/><path class="cls-8" d="M973.56,967.76a22.63,22.63,0,1,0,22.64,22.62A22.61,22.61,0,0,0,973.56,967.76Zm0,36.63a14,14,0,1,1,14-14A14,14,0,0,1,973.56,1004.39Z"/><path class="cls-3" d="M973.57,1037.65a22.63,22.63,0,1,0,22.63,22.62A22.62,22.62,0,0,0,973.57,1037.65Zm0,36.63a14,14,0,1,1,14-14A14,14,0,0,1,973.57,1074.28Z"/><path class="cls-6" d="M987.58,1060.27a14,14,0,1,1-14-14A14,14,0,0,1,987.58,1060.27Z"/><path class="cls-8" d="M973.56,1037.64a22.63,22.63,0,1,0,22.64,22.62A22.62,22.62,0,0,0,973.56,1037.64Zm0,36.63a14,14,0,1,1,14-14A14,14,0,0,1,973.56,1074.27Z"/><path class="cls-3" d="M973.57,1107.53a22.63,22.63,0,1,0,22.63,22.62A22.62,22.62,0,0,0,973.57,1107.53Zm0,36.64a14,14,0,1,1,14-14A14,14,0,0,1,973.57,1144.17Z"/><path class="cls-6" d="M987.58,1130.15a14,14,0,1,1-14-14A14,14,0,0,1,987.58,1130.15Z"/><path class="cls-8" d="M973.56,1107.53a22.63,22.63,0,1,0,22.64,22.62A22.61,22.61,0,0,0,973.56,1107.53Zm0,36.63a14,14,0,1,1,14-14A14,14,0,0,1,973.56,1144.16Z"/><path class="cls-3" d="M973.57,1177.42A22.63,22.63,0,1,0,996.2,1200,22.62,22.62,0,0,0,973.57,1177.42Zm0,36.63a14,14,0,1,1,14-14A14,14,0,0,1,973.57,1214.05Z"/><path class="cls-6" d="M987.58,1200a14,14,0,1,1-14-14A14,14,0,0,1,987.58,1200Z"/><path class="cls-8" d="M973.56,1177.42A22.63,22.63,0,1,0,996.2,1200,22.61,22.61,0,0,0,973.56,1177.42Zm0,36.63a14,14,0,1,1,14-14A14,14,0,0,1,973.56,1214.05Z"/><path class="cls-3" d="M973.57,1247.31a22.63,22.63,0,1,0,22.63,22.62A22.62,22.62,0,0,0,973.57,1247.31Zm0,36.63a14,14,0,1,1,14-14A14,14,0,0,1,973.57,1283.94Z"/><path class="cls-6" d="M987.58,1269.93a14,14,0,1,1-14-14A14,14,0,0,1,987.58,1269.93Z"/><path class="cls-8" d="M973.56,1247.31a22.63,22.63,0,1,0,22.64,22.61A22.61,22.61,0,0,0,973.56,1247.31Zm0,36.63a14,14,0,1,1,14-14A14,14,0,0,1,973.56,1283.94Z"/><path class="cls-3" d="M561.3,828a22.63,22.63,0,1,0,22.63,22.61A22.61,22.61,0,0,0,561.3,828Zm0,36.63a14,14,0,1,1,14-14A14,14,0,0,1,561.3,864.62Z"/><path class="cls-6" d="M575.31,850.6a14,14,0,1,1-14-14A14,14,0,0,1,575.31,850.6Z"/><path class="cls-8" d="M561.29,828a22.63,22.63,0,1,0,22.64,22.62A22.62,22.62,0,0,0,561.29,828Zm0,36.63a14,14,0,1,1,14-14A14,14,0,0,1,561.29,864.61Z"/><path class="cls-3" d="M561.3,897.87a22.63,22.63,0,1,0,22.63,22.62A22.62,22.62,0,0,0,561.3,897.87Zm0,36.63a14,14,0,1,1,14-14A14,14,0,0,1,561.3,934.5Z"/><path class="cls-6" d="M575.31,920.49a14,14,0,1,1-14-14A14,14,0,0,1,575.31,920.49Z"/><path class="cls-8" d="M561.29,897.87a22.63,22.63,0,1,0,22.64,22.62A22.61,22.61,0,0,0,561.29,897.87Zm0,36.63a14,14,0,1,1,14-14A14,14,0,0,1,561.29,934.5Z"/><path class="cls-3" d="M561.3,967.76a22.63,22.63,0,1,0,22.63,22.62A22.62,22.62,0,0,0,561.3,967.76Zm0,36.63a14,14,0,1,1,14-14A14,14,0,0,1,561.3,1004.39Z"/><path class="cls-6" d="M575.31,990.38a14,14,0,1,1-14-14A14,14,0,0,1,575.31,990.38Z"/><path class="cls-8" d="M561.29,967.76a22.63,22.63,0,1,0,22.64,22.62A22.61,22.61,0,0,0,561.29,967.76Zm0,36.63a14,14,0,1,1,14-14A14,14,0,0,1,561.29,1004.39Z"/><path class="cls-3" d="M561.3,1037.65a22.63,22.63,0,1,0,22.63,22.62A22.62,22.62,0,0,0,561.3,1037.65Zm0,36.63a14,14,0,1,1,14-14A14,14,0,0,1,561.3,1074.28Z"/><path class="cls-6" d="M575.31,1060.27a14,14,0,1,1-14-14A14,14,0,0,1,575.31,1060.27Z"/><path class="cls-8" d="M561.29,1037.64a22.63,22.63,0,1,0,22.64,22.62A22.62,22.62,0,0,0,561.29,1037.64Zm0,36.63a14,14,0,1,1,14-14A14,14,0,0,1,561.29,1074.27Z"/><path class="cls-3" d="M561.3,1107.53a22.63,22.63,0,1,0,22.63,22.62A22.62,22.62,0,0,0,561.3,1107.53Zm0,36.64a14,14,0,1,1,14-14A14,14,0,0,1,561.3,1144.17Z"/><path class="cls-6" d="M575.31,1130.15a14,14,0,1,1-14-14A14,14,0,0,1,575.31,1130.15Z"/><path class="cls-8" d="M561.29,1107.53a22.63,22.63,0,1,0,22.64,22.62A22.61,22.61,0,0,0,561.29,1107.53Zm0,36.63a14,14,0,1,1,14-14A14,14,0,0,1,561.29,1144.16Z"/><path class="cls-3" d="M561.3,1177.42A22.63,22.63,0,1,0,583.93,1200,22.62,22.62,0,0,0,561.3,1177.42Zm0,36.63a14,14,0,1,1,14-14A14,14,0,0,1,561.3,1214.05Z"/><path class="cls-6" d="M575.31,1200a14,14,0,1,1-14-14A14,14,0,0,1,575.31,1200Z"/><path class="cls-8" d="M561.29,1177.42A22.63,22.63,0,1,0,583.93,1200,22.61,22.61,0,0,0,561.29,1177.42Zm0,36.63a14,14,0,1,1,14-14A14,14,0,0,1,561.29,1214.05Z"/><path class="cls-3" d="M561.3,1247.31a22.63,22.63,0,1,0,22.63,22.62A22.62,22.62,0,0,0,561.3,1247.31Zm0,36.63a14,14,0,1,1,14-14A14,14,0,0,1,561.3,1283.94Z"/><path class="cls-6" d="M575.31,1269.93a14,14,0,1,1-14-14A14,14,0,0,1,575.31,1269.93Z"/><path class="cls-8" d="M561.29,1247.31a22.63,22.63,0,1,0,22.64,22.61A22.61,22.61,0,0,0,561.29,1247.31Zm0,36.63a14,14,0,1,1,14-14A14,14,0,0,1,561.29,1283.94Z"/><rect class="cls-6" x="642.5" y="891.59" width="25.62" height="50.26" rx="10.32"/><rect class="cls-6" x="876.49" y="891.59" width="25.62" height="50.26" rx="10.32"/><rect class="cls-6" x="642.5" y="782.79" width="25.62" height="50.26" rx="10.32"/><rect class="cls-6" x="876.49" y="782.79" width="25.62" height="50.26" rx="10.32"/><path class="cls-3" d="M888.82,730.46v193H655.29v-193a9.35,9.35,0,0,1,9.34-9.36H879.46A9.37,9.37,0,0,1,888.82,730.46Z"/><path class="cls-9" d="M663.8,910.5v13h-8.51V906.64h4.64A3.87,3.87,0,0,1,663.8,910.5Z"/><path class="cls-9" d="M880.74,910.5v13h8.51V906.64h-4.64A3.87,3.87,0,0,0,880.74,910.5Z"/><path class="cls-9" d="M699.88,923.46V896.69a6.86,6.86,0,0,1,6.87-6.87h37.32a8.34,8.34,0,1,1,0,16.68H722.36a4.84,4.84,0,0,0-4.84,4.83v12.13"/><path class="cls-9" d="M826.7,923.46V911.33a4.83,4.83,0,0,0-4.84-4.83H800.14a8.34,8.34,0,0,1,0-16.68h37.33a6.87,6.87,0,0,1,6.88,6.87v26.77"/><rect class="cls-9" x="712.19" y="853.43" width="30.78" height="17.78" rx="6.07"/><rect class="cls-9" x="813.56" y="853.43" width="30.78" height="17.78" rx="6.07"/><path class="cls-2" d="M888.82,730.46v193H655.29v-193a9.35,9.35,0,0,1,9.34-9.36H879.46A9.37,9.37,0,0,1,888.82,730.46Z"/><path class="cls-2" d="M655.29,906.48h2.45a6.07,6.07,0,0,1,6.06,6.08v10.9"/><path class="cls-2" d="M699.88,923.46V896.69a6.86,6.86,0,0,1,6.87-6.87h37.32a8.34,8.34,0,1,1,0,16.68H722.36a4.84,4.84,0,0,0-4.84,4.83v12.13"/><path class="cls-2" d="M826.7,923.46V911.33a4.83,4.83,0,0,0-4.84-4.83H800.14a8.34,8.34,0,0,1,0-16.68h37.33a6.87,6.87,0,0,1,6.88,6.87v26.77"/><path class="cls-2" d="M880.42,923.46v-10.9a6.08,6.08,0,0,1,6.07-6.08h2.33"/><rect class="cls-2" x="712.19" y="853.43" width="30.78" height="17.78" rx="6.07"/><rect class="cls-2" x="813.56" y="853.43" width="30.78" height="17.78" rx="6.07"/><rect class="cls-10" x="593.26" y="789.13" width="43.11" height="73.19" rx="3.44"/><path class="cls-3" d="M636.38,809.2a27.15,27.15,0,0,0-43.12,0v33a27.15,27.15,0,0,0,43.12,0Z"/><rect class="cls-2" x="593.26" y="789.13" width="43.11" height="73.19" rx="3.44"/><path class="cls-2" d="M593.26,842.25a27.15,27.15,0,0,0,43.12,0"/><path class="cls-2" d="M593.26,809.2a27.15,27.15,0,0,1,43.12,0"/><circle class="cls-2" cx="614.82" cy="825.72" r="9.64"/><rect class="cls-6" x="672.97" y="1294.32" width="92.36" height="42.36" rx="5.73"/><rect class="cls-11" x="672.97" y="1294.32" width="92.36" height="42.36" rx="5.73"/><rect class="cls-11" x="913.26" y="833.21" width="29.11" height="29.11" rx="4.48"/><rect class="cls-12" x="693" y="1297.99" width="68.44" height="35.28" rx="2.93"/><rect class="cls-3" x="854.14" y="1272.2" width="28.77" height="16.3" rx="4.43"/><rect class="cls-3" x="916.23" y="1272.2" width="28.77" height="16.3" rx="4.43"/><rect class="cls-3" x="854.14" y="1295.69" width="28.77" height="16.3" rx="4.43"/><rect class="cls-3" x="916.23" y="1295.69" width="28.77" height="16.3" rx="4.43"/><rect class="cls-3" x="854.14" y="1319.19" width="28.77" height="16.3" rx="4.43"/><rect class="cls-3" x="916.23" y="1319.19" width="28.77" height="16.3" rx="4.43"/><path class="cls-3" d="M816.49,1269.93h3.34a0,0,0,0,1,0,0V1278a0,0,0,0,1,0,0h-3.34a.94.94,0,0,1-.94-.94v-6.18A.94.94,0,0,1,816.49,1269.93Z"/><path class="cls-3" d="M827.5,1269.93h3.34a0,0,0,0,1,0,0V1278a0,0,0,0,1,0,0H827.5a.94.94,0,0,1-.94-.94v-6.18A.94.94,0,0,1,827.5,1269.93Z" transform="translate(1657.4 2547.92) rotate(180)"/><rect class="cls-6" x="819.83" y="1269.93" width="6.74" height="8.05"/><path class="cls-3" d="M617.86,1311.47h6.38a0,0,0,0,1,0,0v15.38a0,0,0,0,1,0,0h-6.38a1.79,1.79,0,0,1-1.79-1.79v-11.8A1.79,1.79,0,0,1,617.86,1311.47Z"/><path class="cls-3" d="M638.9,1311.47h6.38a0,0,0,0,1,0,0v15.38a0,0,0,0,1,0,0H638.9a1.79,1.79,0,0,1-1.79-1.79v-11.8A1.79,1.79,0,0,1,638.9,1311.47Z" transform="translate(1282.39 2638.33) rotate(180)"/><rect class="cls-13" x="624.24" y="1311.47" width="12.87" height="15.38"/><path class="cls-3" d="M915,785.87h6.38a0,0,0,0,1,0,0v15.38a0,0,0,0,1,0,0H915a1.79,1.79,0,0,1-1.79-1.79v-11.8A1.79,1.79,0,0,1,915,785.87Z"/><path class="cls-3" d="M936,785.87h6.38a0,0,0,0,1,0,0v15.38a0,0,0,0,1,0,0H936a1.79,1.79,0,0,1-1.79-1.79v-11.8A1.79,1.79,0,0,1,936,785.87Z" transform="translate(1876.67 1587.13) rotate(180)"/><rect class="cls-6" x="921.38" y="785.87" width="12.87" height="15.38"/><rect class="cls-3" x="676.61" y="926.59" width="15.18" height="24.46" rx="2.05"/><rect class="cls-3" x="698.92" y="926.59" width="15.18" height="24.46" rx="2.05"/><rect class="cls-3" x="831.45" y="926.59" width="15.18" height="24.46" rx="2.05"/><rect class="cls-3" x="853.77" y="926.59" width="15.18" height="24.46" rx="2.05"/><rect class="cls-3" x="720.71" y="926.59" width="8.21" height="24.46" rx="1.51"/><rect class="cls-3" x="734.28" y="926.59" width="8.21" height="24.46" rx="1.51"/><rect class="cls-3" x="747.84" y="926.59" width="8.21" height="24.46" rx="1.51"/><rect class="cls-3" x="761.41" y="926.59" width="8.21" height="24.46" rx="1.51"/><rect class="cls-3" x="774.98" y="926.59" width="8.21" height="24.46" rx="1.51"/><rect class="cls-3" x="788.55" y="926.59" width="8.21" height="24.46" rx="1.51"/><rect class="cls-3" x="802.12" y="926.59" width="8.21" height="24.46" rx="1.51"/><rect class="cls-3" x="815.69" y="926.59" width="8.21" height="24.46" rx="1.51"/><rect class="cls-8" x="593.84" y="958.85" width="348.9" height="293.26" rx="13.63"/><rect class="cls-8" x="603.57" y="968.49" width="329.45" height="273.98" rx="8.94"/><polyline class="cls-14" points="909.57 841.05 909.57 829.52 918.51 829.52"/><polyline class="cls-14" points="946.84 841.05 946.84 829.52 937.89 829.52"/><polyline class="cls-14" points="946.84 853.97 946.84 865.5 937.89 865.5"/><polyline class="cls-14" points="909.57 853.97 909.57 865.5 918.51 865.5"/><path class="cls-15" d="M913.87,934.59v-4.71H929.3a37.85,37.85,0,0,0,4.69-.17,4.75,4.75,0,0,0,2.91-1.49,5.26,5.26,0,0,0,.31-5.78,3.63,3.63,0,0,0-2-1.41,25,25,0,0,0-5.55-.38H913.87v-4.71h15a39.37,39.37,0,0,1,8.29.62,7.08,7.08,0,0,1,4.14,2.76,9.29,9.29,0,0,1,1.58,5.67,10.5,10.5,0,0,1-1.31,5.7,7.43,7.43,0,0,1-3.69,3q-2.39.92-8.78.92Z"/><path class="cls-15" d="M933.07,912.17l-.54-4.61q5.46-.76,5.46-5.09a4.81,4.81,0,0,0-1.11-3.36,3.6,3.6,0,0,0-2.77-1.23,3.13,3.13,0,0,0-1.66.43,3.19,3.19,0,0,0-1.11,1.3,38,38,0,0,0-1.47,4.24,14.39,14.39,0,0,1-2,4.41,7.44,7.44,0,0,1-2.81,2.23,8.6,8.6,0,0,1-3.74.83,8.39,8.39,0,0,1-4.19-1.06,7,7,0,0,1-2.82-2.93,10.12,10.12,0,0,1-1-4.61,8.1,8.1,0,0,1,8.63-8.88l.25,4.72a5.13,5.13,0,0,0-3.2,1.34,4.3,4.3,0,0,0-.92,2.94,4.74,4.74,0,0,0,.8,2.94,2.43,2.43,0,0,0,2,1,2.49,2.49,0,0,0,2-.94,13.25,13.25,0,0,0,1.75-4.3,17.74,17.74,0,0,1,2.17-5.14,7.44,7.44,0,0,1,2.93-2.42,10.45,10.45,0,0,1,4.37-.83,9,9,0,0,1,6.24,2.28q2.52,2.29,2.52,7.15Q942.85,911.21,933.07,912.17Z"/><path class="cls-15" d="M942.37,889.19h-28.5v-9.93a14,14,0,0,1,.76-5.45,6.05,6.05,0,0,1,2.67-2.68,9.21,9.21,0,0,1,4.54-1,8.45,8.45,0,0,1,5.38,1.6,7.15,7.15,0,0,1,2.57,4.56,11.64,11.64,0,0,1,2.38-2.5,32.49,32.49,0,0,1,4.64-2.71l5.56-2.84v5.63l-6.2,3.42a40,40,0,0,0-4.21,2.5,3.64,3.64,0,0,0-1.17,1.4,6.53,6.53,0,0,0-.32,2.37v1h11.9Zm-16.45-4.7V881a17.54,17.54,0,0,0-.28-4.09,2.61,2.61,0,0,0-1.14-1.41,4.12,4.12,0,0,0-2.27-.55,3.86,3.86,0,0,0-2.19.55A2.78,2.78,0,0,0,918.9,877a19,19,0,0,0-.21,3.83v3.7Z"/><path class="cls-15" d="M582.18,1302v18.19h5.33v3.7H573.25v-3.7h5.32V1302Z"/><path class="cls-15" d="M572.72,1302l-6.21,11.39,5.64,10.5h-4.24l-3.55-6.55-3.58,6.55h-4.19l5.64-10.47L556,1302h4.37l4,7.42,4-7.42Z"/><path class="cls-15" d="M988.79,1298.87v15.45h-5.38a7.43,7.43,0,0,1-2.95-.42,3.26,3.26,0,0,1-1.46-1.44,5,5,0,0,1-.57-2.46,4.59,4.59,0,0,1,.87-2.92,3.88,3.88,0,0,1,2.47-1.39,6.77,6.77,0,0,1-1.36-1.3,18.78,18.78,0,0,1-1.46-2.51l-1.54-3h3.05l1.85,3.36a22.33,22.33,0,0,0,1.36,2.28,1.9,1.9,0,0,0,.76.63,3.4,3.4,0,0,0,1.29.18h.52v-6.45Zm-2.55,8.91h-1.89a9,9,0,0,0-2.22.16,1.42,1.42,0,0,0-.77.61,2.35,2.35,0,0,0-.29,1.24,2.17,2.17,0,0,0,.29,1.18,1.53,1.53,0,0,0,.8.62,10.13,10.13,0,0,0,2.08.11h2Z"/><path class="cls-15" d="M977.3,1298.87l-4.38,8,4,7.41h-3l-2.51-4.62-2.52,4.62h-3l4-7.39-4.38-8.06h3.09l2.81,5.23,2.82-5.23Z"/><path class="cls-15" d="M629.57,939.46h-28.5v-9.94a13.67,13.67,0,0,1,.77-5.44,6,6,0,0,1,2.66-2.69,9.23,9.23,0,0,1,4.54-1,8.45,8.45,0,0,1,5.38,1.61,7.15,7.15,0,0,1,2.57,4.56,12,12,0,0,1,2.38-2.51,33.71,33.71,0,0,1,4.64-2.7l5.56-2.84v5.63l-6.2,3.41a39.44,39.44,0,0,0-4.21,2.51,3.65,3.65,0,0,0-1.17,1.4,6.46,6.46,0,0,0-.32,2.37v1h11.9Zm-16.45-4.71v-3.5a17.37,17.37,0,0,0-.28-4.08,2.59,2.59,0,0,0-1.14-1.42,4.21,4.21,0,0,0-2.27-.55,3.94,3.94,0,0,0-2.19.55,2.76,2.76,0,0,0-1.14,1.48,19,19,0,0,0-.21,3.83v3.69Z"/><path class="cls-15" d="M620.28,917.1l-.55-4.61q5.46-.78,5.46-5.1a4.83,4.83,0,0,0-1.11-3.36,3.63,3.63,0,0,0-2.77-1.22,3.06,3.06,0,0,0-1.65.42,3.11,3.11,0,0,0-1.12,1.31,36.49,36.49,0,0,0-1.47,4.24,14.27,14.27,0,0,1-2,4.41,7.56,7.56,0,0,1-2.8,2.22,8.49,8.49,0,0,1-3.74.83,8.3,8.3,0,0,1-4.2-1.06,7,7,0,0,1-2.82-2.92,10.15,10.15,0,0,1-.95-4.61,8.11,8.11,0,0,1,8.63-8.89l.26,4.73a5.06,5.06,0,0,0-3.21,1.34,4.27,4.27,0,0,0-.92,2.93,4.72,4.72,0,0,0,.8,2.94,2.4,2.4,0,0,0,2,1,2.47,2.47,0,0,0,2-.93,13.23,13.23,0,0,0,1.75-4.3,17.61,17.61,0,0,1,2.17-5.14,7.34,7.34,0,0,1,2.93-2.42,10.29,10.29,0,0,1,4.37-.84,9,9,0,0,1,6.24,2.29c1.68,1.52,2.53,3.9,2.53,7.14Q630.06,916.13,620.28,917.1Z"/><path class="cls-15" d="M629.57,888.87H605.89v6.94h-4.82V877.24h4.82v6.92h23.68Z"/><path class="cls-15" d="M747.26,1319.48v3.07H733.1a10.54,10.54,0,0,1,2.85,4h-3.41a8.29,8.29,0,0,0-1.86-2.66,7.1,7.1,0,0,0-3.08-1.91v-2.49Z"/><path class="cls-15" d="M727.6,1309.67a4.34,4.34,0,0,1,2.22-3.78c1.48-1,4.08-1.44,7.78-1.44s6.28.48,7.77,1.44a4.33,4.33,0,0,1,0,7.55q-2.21,1.44-7.83,1.44t-7.74-1.44A4.34,4.34,0,0,1,727.6,1309.67Zm3.11,0c0,.6.4,1.09,1.2,1.45s2.7.54,5.69.54,4.89-.18,5.68-.54,1.2-.85,1.2-1.45-.4-1.11-1.2-1.47-2.7-.53-5.68-.53-4.89.18-5.69.53S730.71,1309.05,730.71,1309.67Z"/><path class="cls-15" d="M932.28,812.13l-4.57-1.3a9,9,0,0,1,3.56-5.14,11,11,0,0,1,6.12-1.62,10.54,10.54,0,0,1,7.41,2.59,10.35,10.35,0,0,1,3.26,8.05,10.83,10.83,0,0,1-3.28,8.38,10.94,10.94,0,0,1-7.69,2.63,10.75,10.75,0,0,1-6.58-2,7.94,7.94,0,0,1-2.76-4.16l4.66-1a4.36,4.36,0,0,0,1.79,2.61,5.47,5.47,0,0,0,3.14.91,5.7,5.7,0,0,0,4.23-1.66c1.09-1.1,1.63-2.93,1.63-5.47s-.53-4.51-1.59-5.62a5.43,5.43,0,0,0-4.14-1.67,5.08,5.08,0,0,0-3.23,1.06A6,6,0,0,0,932.28,812.13Z"/><path class="cls-15" d="M923.66,804.43v20.93H919v-8.24h-9.27v8.24H905V804.43h4.71v9.15H919v-9.15Z"/><rect class="cls-3" x="953.25" y="1324.41" width="6.23" height="7.68" rx="1.32"/><rect class="cls-3" x="967.18" y="1324.41" width="6.23" height="7.68" rx="1.32"/><polyline class="cls-14" points="839.22 1340.09 839.22 1255.93 948.26 1255.93 948.26 1336.68"/><polyline class="cls-14" points="948.26 1319.19 979.6 1319.19 979.6 1335.49"/><path class="cls-16" d="M626.77,1030.15l6.16-.87a4.18,4.18,0,0,0,1.59,2.54,5.72,5.72,0,0,0,3.36.86,6.43,6.43,0,0,0,3.58-.81,1.78,1.78,0,0,0,.81-1.53,1.44,1.44,0,0,0-.44-1.08,5,5,0,0,0-2.05-.76q-7.42-1.53-9.41-2.79a5.51,5.51,0,0,1-2.75-4.88,5.86,5.86,0,0,1,2.38-4.73q2.38-1.9,7.38-1.91,4.75,0,7.07,1.44a7.46,7.46,0,0,1,3.19,4.29l-5.79,1a3.27,3.27,0,0,0-1.41-1.94,5.39,5.39,0,0,0-3-.67,7.07,7.07,0,0,0-3.47.63,1.33,1.33,0,0,0-.7,1.16,1.23,1.23,0,0,0,.61,1q.83.57,5.73,1.61c3.27.7,5.55,1.54,6.84,2.55a5.14,5.14,0,0,1,1.92,4.26,6.37,6.37,0,0,1-2.66,5.12q-2.65,2.14-7.88,2.14a13.6,13.6,0,0,1-7.5-1.79A8.3,8.3,0,0,1,626.77,1030.15Z"/><path class="cls-16" d="M667.22,1029.44l6.11,1a9.47,9.47,0,0,1-3.72,4.78,11.48,11.48,0,0,1-6.36,1.64q-6.06,0-9-3.69a11.81,11.81,0,0,1-2.3-7.46q0-5.38,3-8.43a10.2,10.2,0,0,1,7.61-3,10.66,10.66,0,0,1,8.17,3.19q3,3.2,2.86,9.78H658.29a5.55,5.55,0,0,0,1.48,4,4.8,4.8,0,0,0,3.54,1.42,3.91,3.91,0,0,0,2.42-.73A4.5,4.5,0,0,0,667.22,1029.44Zm.35-5.79a5.28,5.28,0,0,0-1.38-3.78,4.32,4.32,0,0,0-3.18-1.3,4.4,4.4,0,0,0-3.32,1.37,5.06,5.06,0,0,0-1.29,3.71Z"/><path class="cls-16" d="M692.79,1029.44l6.11,1a9.37,9.37,0,0,1-3.72,4.78,11.45,11.45,0,0,1-6.36,1.64q-6,0-9-3.69a11.8,11.8,0,0,1-2.29-7.46q0-5.38,3-8.43a10.24,10.24,0,0,1,7.62-3,10.62,10.62,0,0,1,8.16,3.19q3,3.2,2.86,9.78H683.86a5.56,5.56,0,0,0,1.49,4,4.76,4.76,0,0,0,3.53,1.42,4,4,0,0,0,2.43-.73A4.49,4.49,0,0,0,692.79,1029.44Zm.35-5.79a5.28,5.28,0,0,0-1.37-3.78,4.64,4.64,0,0,0-6.51.07,5.1,5.1,0,0,0-1.29,3.71Z"/><path class="cls-16" d="M719.36,1029.44l6.11,1a9.37,9.37,0,0,1-3.72,4.78,11.45,11.45,0,0,1-6.36,1.64q-6,0-8.95-3.69a11.8,11.8,0,0,1-2.29-7.46q0-5.38,3-8.43a10.24,10.24,0,0,1,7.62-3,10.62,10.62,0,0,1,8.16,3.19q3,3.2,2.86,9.78H710.43a5.56,5.56,0,0,0,1.49,4,4.76,4.76,0,0,0,3.53,1.42,4,4,0,0,0,2.43-.73A4.49,4.49,0,0,0,719.36,1029.44Zm.35-5.79a5.24,5.24,0,0,0-1.38-3.78,4.32,4.32,0,0,0-3.18-1.3,4.4,4.4,0,0,0-3.32,1.37,5.1,5.1,0,0,0-1.29,3.71Z"/><path class="cls-16" d="M753.34,1036.33h-5.7v-3.18a9,9,0,0,1-3.35,2.77,9.15,9.15,0,0,1-10.74-2.11q-2.85-3-2.85-8.39t2.78-8.37a9.31,9.31,0,0,1,7-2.86,9,9,0,0,1,6.73,3v-10.76h6.13ZM737,1025a9.38,9.38,0,0,0,1,5,4.71,4.71,0,0,0,4.15,2.25,4.64,4.64,0,0,0,3.6-1.69,7.38,7.38,0,0,0,1.49-5q0-3.73-1.44-5.38a5,5,0,0,0-7.35,0A7,7,0,0,0,737,1025Z"/><path class="cls-16" d="M775.2,1030.15l6.16-.87a4.18,4.18,0,0,0,1.59,2.54,5.73,5.73,0,0,0,3.37.86,6.47,6.47,0,0,0,3.58-.81,1.79,1.79,0,0,0,.8-1.53,1.43,1.43,0,0,0-.43-1.08,5.11,5.11,0,0,0-2-.76q-7.43-1.53-9.41-2.79a5.49,5.49,0,0,1-2.75-4.88,5.86,5.86,0,0,1,2.38-4.73q2.37-1.9,7.37-1.91c3.18,0,5.53.48,7.08,1.44a7.45,7.45,0,0,1,3.18,4.29l-5.78,1a3.35,3.35,0,0,0-1.41-1.94,5.43,5.43,0,0,0-3-.67,7.1,7.1,0,0,0-3.47.63,1.35,1.35,0,0,0-.7,1.16,1.25,1.25,0,0,0,.61,1q.84.57,5.74,1.61c3.26.7,5.54,1.54,6.84,2.55a5.14,5.14,0,0,1,1.92,4.26,6.4,6.4,0,0,1-2.66,5.12q-2.67,2.14-7.88,2.14a13.6,13.6,0,0,1-7.5-1.79A8.32,8.32,0,0,1,775.2,1030.15Z"/><path class="cls-16" d="M810.15,1014.68v4.56H806V1028a20.26,20.26,0,0,0,.12,3.09,1.29,1.29,0,0,0,.54.73,1.86,1.86,0,0,0,1,.28,8.38,8.38,0,0,0,2.48-.55l.53,4.45a13.13,13.13,0,0,1-4.87.85,8.14,8.14,0,0,1-3-.52,4.34,4.34,0,0,1-2-1.34,5.18,5.18,0,0,1-.86-2.24,25.82,25.82,0,0,1-.2-4v-9.45h-2.83v-4.56h2.83v-4.31L806,1007v7.65Z"/><path class="cls-16" d="M829.73,1036.33v-3.24a8.64,8.64,0,0,1-3.34,2.73,9.85,9.85,0,0,1-4.37,1,9,9,0,0,1-4.2-1,5.82,5.82,0,0,1-2.7-2.69,11.32,11.32,0,0,1-.83-4.79v-13.7h6.16v10a25.55,25.55,0,0,0,.34,5.6,3,3,0,0,0,1.23,1.63,4,4,0,0,0,2.28.6,5.11,5.11,0,0,0,2.83-.81,4.15,4.15,0,0,0,1.71-2,21.89,21.89,0,0,0,.46-5.84v-9.13h6.15v21.65Z"/><path class="cls-16" d="M863.16,1036.33h-5.72v-3.18a9.18,9.18,0,0,1-14.14.66c-1.9-2-2.86-4.8-2.86-8.39s.93-6.46,2.79-8.37a9.36,9.36,0,0,1,7-2.86,9,9,0,0,1,6.74,3v-10.76h6.16ZM846.73,1025a9.28,9.28,0,0,0,1,5,4.86,4.86,0,0,0,7.78.56,7.38,7.38,0,0,0,1.49-5c0-2.49-.49-4.28-1.45-5.38a4.72,4.72,0,0,0-3.7-1.64,4.78,4.78,0,0,0-3.67,1.62A7,7,0,0,0,846.73,1025Z"/><path class="cls-16" d="M869.23,1011.74v-5.3h6.15v5.3Zm0,24.59v-21.65h6.15v21.65Z"/><path class="cls-16" d="M880.26,1025.2a11.09,11.09,0,0,1,1.52-5.53,10,10,0,0,1,4.28-4.08,13.58,13.58,0,0,1,6.19-1.4,12.06,12.06,0,0,1,8.65,3.19,10.61,10.61,0,0,1,3.37,8.06,10.75,10.75,0,0,1-3.4,8.15,12,12,0,0,1-8.58,3.23,14.42,14.42,0,0,1-6.1-1.34,9.61,9.61,0,0,1-4.41-4A12.36,12.36,0,0,1,880.26,1025.2Zm6.31.3a6.84,6.84,0,0,0,1.65,4.94,5.64,5.64,0,0,0,8.09,0,6.93,6.93,0,0,0,1.63-5,6.8,6.8,0,0,0-1.63-4.89,5.64,5.64,0,0,0-8.09,0A6.83,6.83,0,0,0,886.57,1025.5Z"/><path class="cls-16" d="M642.19,1063.76V1052h2.34l2.79,8.35q.39,1.17.57,1.74.2-.64.63-1.89l2.82-8.2h2.1v11.79h-1.51v-9.87l-3.42,9.87H647.1l-3.41-10v10Z"/><path class="cls-16" d="M655.23,1059.49a4.43,4.43,0,0,1,1.32-3.52,4,4,0,0,1,2.69-.94,3.8,3.8,0,0,1,2.87,1.15,4.37,4.37,0,0,1,1.12,3.19,5.63,5.63,0,0,1-.49,2.59,3.52,3.52,0,0,1-1.44,1.47,4.18,4.18,0,0,1-2.06.52,3.81,3.81,0,0,1-2.9-1.15A4.57,4.57,0,0,1,655.23,1059.49Zm1.49,0a3.7,3.7,0,0,0,.71,2.46,2.31,2.31,0,0,0,1.81.81,2.28,2.28,0,0,0,1.79-.82,3.69,3.69,0,0,0,.71-2.5,3.56,3.56,0,0,0-.71-2.4,2.39,2.39,0,0,0-3.6,0A3.66,3.66,0,0,0,656.72,1059.49Z"/><path class="cls-16" d="M670.47,1063.76v-1.08a2.65,2.65,0,0,1-2.39,1.27,3.34,3.34,0,0,1-1.88-.56,3.71,3.71,0,0,1-1.32-1.57,5.37,5.37,0,0,1-.47-2.32,6.11,6.11,0,0,1,.42-2.32,3.37,3.37,0,0,1,1.28-1.6A3.44,3.44,0,0,1,668,1055a2.82,2.82,0,0,1,2.35,1.17V1052h1.44v11.79Zm-4.58-4.26a3.71,3.71,0,0,0,.7,2.45,2.06,2.06,0,0,0,3.24,0,3.6,3.6,0,0,0,.67-2.37,4,4,0,0,0-.68-2.58,2.11,2.11,0,0,0-1.67-.82,2,2,0,0,0-1.61.79A3.93,3.93,0,0,0,665.89,1059.5Z"/><path class="cls-16" d="M679.94,1061l1.49.18a3.59,3.59,0,0,1-1.31,2,4,4,0,0,1-2.44.72,3.89,3.89,0,0,1-3-1.15,4.48,4.48,0,0,1-1.1-3.24,4.69,4.69,0,0,1,1.11-3.34,3.74,3.74,0,0,1,2.88-1.19,3.65,3.65,0,0,1,2.8,1.16,4.65,4.65,0,0,1,1.08,3.28c0,.09,0,.22,0,.39H675.1a3.27,3.27,0,0,0,.8,2.15,2.37,2.37,0,0,0,1.79.75,2.17,2.17,0,0,0,1.35-.42A2.7,2.7,0,0,0,679.94,1061Zm-4.76-2.34H680a2.87,2.87,0,0,0-.54-1.62,2.21,2.21,0,0,0-1.8-.83,2.3,2.3,0,0,0-1.67.66A2.64,2.64,0,0,0,675.18,1058.67Z"/><path class="cls-16" d="M683.22,1063.76V1052h1.45v11.79Z"/><path class="cls-16" d="M691.89,1056.87v-1.65h1.65v1.65Zm0,6.89v-1.65h1.65v1.65Z"/><path class="cls-16" d="M699.62,1063.76l4.56-6.14-4-5.65H702l2.14,3a16.64,16.64,0,0,1,1,1.45,13.63,13.63,0,0,1,.93-1.34l2.38-3.13h1.69l-4.14,5.56,4.46,6.23H708.5l-3-4.21c-.17-.24-.34-.5-.52-.78-.26.42-.45.72-.56.88l-3,4.11Z"/><path class="cls-16" d="M712.07,1063.76V1052h1.56v11.79Z"/><path class="cls-16" d="M715.09,1063.76l4.53-11.79h1.68l4.82,11.79h-1.77l-1.38-3.57H718l-1.29,3.57Zm3.4-4.84h4l-1.23-3.27c-.38-1-.66-1.8-.84-2.44a15.77,15.77,0,0,1-.63,2.25Z"/><path class="cls-16" d="M726.9,1058a6.42,6.42,0,0,1,1.57-4.6,5.35,5.35,0,0,1,4.07-1.66,5.68,5.68,0,0,1,3,.78,5.06,5.06,0,0,1,2,2.18,7.55,7.55,0,0,1,0,6.37,4.94,4.94,0,0,1-2.05,2.14,5.83,5.83,0,0,1-2.87.73,5.6,5.6,0,0,1-3-.8,5.16,5.16,0,0,1-2-2.2A6.66,6.66,0,0,1,726.9,1058Zm1.61,0a4.75,4.75,0,0,0,1.14,3.36,4,4,0,0,0,5.78,0,5.06,5.06,0,0,0,1.13-3.52,6.11,6.11,0,0,0-.48-2.51,3.78,3.78,0,0,0-1.43-1.67,3.87,3.87,0,0,0-2.1-.59,4,4,0,0,0-2.85,1.14A5.08,5.08,0,0,0,728.51,1058Z"/><path class="cls-16" d="M739.43,1060.22v-1.45h4.45v1.45Z"/><path class="cls-16" d="M745.48,1063.76v-8.54h1.31v1.21a3,3,0,0,1,2.71-1.4,3.63,3.63,0,0,1,1.42.27,2.2,2.2,0,0,1,1,.73,2.65,2.65,0,0,1,.45,1.07,7.71,7.71,0,0,1,.08,1.41v5.25H751v-5.2a3.93,3.93,0,0,0-.17-1.32,1.5,1.5,0,0,0-.6-.7,2,2,0,0,0-1-.26,2.36,2.36,0,0,0-1.6.59,2.88,2.88,0,0,0-.67,2.23v4.66Z"/><path class="cls-16" d="M754.85,1063.76V1052h5.23a7,7,0,0,1,2.4.32,2.63,2.63,0,0,1,1.31,1.12,3.43,3.43,0,0,1,.49,1.78,3,3,0,0,1-.81,2.11,4.13,4.13,0,0,1-2.51,1.1,4,4,0,0,1,.94.58,8.39,8.39,0,0,1,1.29,1.57l2,3.21h-2l-1.56-2.45c-.46-.71-.83-1.25-1.13-1.63a3.43,3.43,0,0,0-.79-.79,2.33,2.33,0,0,0-.71-.31,4.46,4.46,0,0,0-.87-.06h-1.81v5.24Zm1.56-6.59h3.36a5,5,0,0,0,1.67-.22,1.79,1.79,0,0,0,.92-.71,1.87,1.87,0,0,0,.31-1,1.75,1.75,0,0,0-.61-1.38,2.82,2.82,0,0,0-1.92-.54h-3.73Z"/><path class="cls-16" d="M766.8,1063.76V1052h8v1.39h-6.4V1057h5.54v1.39h-5.54v5.36Z"/><path class="cls-16" d="M776.2,1060.67l1.52-.13a2.71,2.71,0,0,0,.78,1.67,2.16,2.16,0,0,0,1.49.56,2.28,2.28,0,0,0,1.76-.79,2.93,2.93,0,0,0,.73-2.09,2.65,2.65,0,0,0-.7-2,2.41,2.41,0,0,0-1.82-.72,2.56,2.56,0,0,0-2.15,1.14l-1.36-.17,1.15-6.06h5.86v1.38h-4.71l-.63,3.17a3.87,3.87,0,0,1,2.23-.74A3.53,3.53,0,0,1,783,1057a3.74,3.74,0,0,1,1.06,2.75,4.31,4.31,0,0,1-.93,2.77A3.74,3.74,0,0,1,780,1064a3.82,3.82,0,0,1-2.63-.9A3.48,3.48,0,0,1,776.2,1060.67Z"/><path class="cls-16" d="M793,1062.37v1.39h-7.8a2.68,2.68,0,0,1,.17-1,5.41,5.41,0,0,1,.95-1.56,14.88,14.88,0,0,1,1.9-1.79,15.83,15.83,0,0,0,2.6-2.5,3,3,0,0,0,.67-1.74,1.93,1.93,0,0,0-.61-1.45,2.51,2.51,0,0,0-3.28,0,2.37,2.37,0,0,0-.64,1.73l-1.48-.15a3.66,3.66,0,0,1,1.15-2.54,3.9,3.9,0,0,1,2.67-.87,3.72,3.72,0,0,1,2.69.94,3.1,3.1,0,0,1,1,2.33,3.62,3.62,0,0,1-.29,1.4,5.45,5.45,0,0,1-1,1.44,24.41,24.41,0,0,1-2.23,2.07c-.87.73-1.43,1.22-1.68,1.48a5.25,5.25,0,0,0-.61.79Z"/><path class="cls-16" d="M796.75,1057.37a2.79,2.79,0,0,1-1.34-.94A2.48,2.48,0,0,1,795,1055a2.83,2.83,0,0,1,.92-2.16,3.42,3.42,0,0,1,2.46-.88,3.46,3.46,0,0,1,2.49.9,2.92,2.92,0,0,1,.94,2.18,2.47,2.47,0,0,1-.43,1.43,2.75,2.75,0,0,1-1.31.94,3,3,0,0,1,2.22,3,3.38,3.38,0,0,1-1.07,2.54,4.36,4.36,0,0,1-5.63,0,3.46,3.46,0,0,1-1.07-2.58,3.18,3.18,0,0,1,.58-1.93A2.93,2.93,0,0,1,796.75,1057.37Zm-.76,3a2.72,2.72,0,0,0,.29,1.2,2.1,2.1,0,0,0,.88.89,2.54,2.54,0,0,0,1.24.32,2.35,2.35,0,0,0,1.72-.67,2.27,2.27,0,0,0,.67-1.69,2.32,2.32,0,0,0-.69-1.73,2.4,2.4,0,0,0-1.75-.69,2.31,2.31,0,0,0-2.36,2.37Zm.47-5.45a1.86,1.86,0,0,0,.53,1.37,1.93,1.93,0,0,0,1.4.53,1.86,1.86,0,0,0,1.38-.53,1.76,1.76,0,0,0,.53-1.29,1.81,1.81,0,0,0-.55-1.34,1.88,1.88,0,0,0-1.37-.54,1.93,1.93,0,0,0-1.38.53A1.73,1.73,0,0,0,796.46,1054.91Z"/><path class="cls-16" d="M808.32,1063.76v-2.82H803.2v-1.33l5.38-7.64h1.19v7.64h1.59v1.33h-1.59v2.82Zm0-4.15v-5.32l-3.69,5.32Z"/><path class="cls-16" d="M812.84,1058a10.7,10.7,0,0,1,.43-3.37,4.18,4.18,0,0,1,1.28-2,3.24,3.24,0,0,1,2.13-.69,3.55,3.55,0,0,1,1.67.38,3.29,3.29,0,0,1,1.18,1.11,6,6,0,0,1,.73,1.75,11.49,11.49,0,0,1,.27,2.79,10.88,10.88,0,0,1-.43,3.34,4.25,4.25,0,0,1-1.27,2,3.3,3.3,0,0,1-2.15.69,3.26,3.26,0,0,1-2.68-1.22C813.23,1061.76,812.84,1060.16,812.84,1058Zm1.49,0c0,1.93.22,3.22.68,3.86a1.94,1.94,0,0,0,3.35,0A7.44,7.44,0,0,0,819,1058c0-2-.23-3.24-.68-3.87a2,2,0,0,0-1.69-1,1.87,1.87,0,0,0-1.6.84A7.61,7.61,0,0,0,814.33,1058Z"/><path class="cls-16" d="M643.56,1086.51v-11.79h8v1.39h-6.39v3.65h5.53v1.39h-5.53v5.36Z"/><path class="cls-16" d="M662,1082.38l1.56.39a5.26,5.26,0,0,1-1.77,2.93,4.86,4.86,0,0,1-3.11,1,5.56,5.56,0,0,1-3.1-.78,4.8,4.8,0,0,1-1.82-2.24,8,8,0,0,1-.62-3.16,7,7,0,0,1,.7-3.22,4.84,4.84,0,0,1,2-2.08,5.91,5.91,0,0,1,2.86-.71,4.86,4.86,0,0,1,3,.9,4.7,4.7,0,0,1,1.68,2.53l-1.54.36a3.64,3.64,0,0,0-1.19-1.87,3.17,3.17,0,0,0-2-.59,3.83,3.83,0,0,0-2.27.65,3.5,3.5,0,0,0-1.29,1.75,7.28,7.28,0,0,0-.36,2.27,7.19,7.19,0,0,0,.43,2.62,3.3,3.3,0,0,0,1.37,1.68,3.8,3.8,0,0,0,2,.56,3.4,3.4,0,0,0,2.22-.76A3.91,3.91,0,0,0,662,1082.38Z"/><path class="cls-16" d="M673.84,1082.38l1.56.39a5.2,5.2,0,0,1-1.76,2.93,4.89,4.89,0,0,1-3.12,1,5.59,5.59,0,0,1-3.1-.78,4.86,4.86,0,0,1-1.82-2.24,8.13,8.13,0,0,1-.62-3.16,7,7,0,0,1,.71-3.22,4.73,4.73,0,0,1,2-2.08,5.89,5.89,0,0,1,2.86-.71,4.81,4.81,0,0,1,3,.9,4.6,4.6,0,0,1,1.68,2.53l-1.53.36a3.7,3.7,0,0,0-1.19-1.87,3.2,3.2,0,0,0-2-.59,3.85,3.85,0,0,0-2.27.65,3.48,3.48,0,0,0-1.28,1.75,7,7,0,0,0-.37,2.27,7.19,7.19,0,0,0,.44,2.62,3.23,3.23,0,0,0,1.36,1.68,3.85,3.85,0,0,0,2,.56,3.36,3.36,0,0,0,2.22-.76A3.8,3.8,0,0,0,673.84,1082.38Z"/><path class="cls-16" d="M682.17,1086.51v-11.79h1.56v11.79Z"/><path class="cls-16" d="M686.48,1086.51v-11.79h4.06a10,10,0,0,1,2.1.17,4,4,0,0,1,1.73.84,4.76,4.76,0,0,1,1.39,2,7.82,7.82,0,0,1,.47,2.8,8.16,8.16,0,0,1-.32,2.38,5.84,5.84,0,0,1-.8,1.72,4,4,0,0,1-2.48,1.66,8.27,8.27,0,0,1-1.9.2Zm1.56-1.39h2.52a6,6,0,0,0,1.83-.22,2.56,2.56,0,0,0,1.05-.61,3.79,3.79,0,0,0,.87-1.49,7.5,7.5,0,0,0,.31-2.27,5.44,5.44,0,0,0-.61-2.85,3.07,3.07,0,0,0-1.48-1.33,6.07,6.07,0,0,0-2-.24H688Z"/><path class="cls-16" d="M698.59,1079.62V1078h1.65v1.65Zm0,6.89v-1.65h1.65v1.65Z"/><path class="cls-16" d="M706.58,1086.51v-1.45l6-7.55a18.53,18.53,0,0,1,1.23-1.4h-6.58v-1.39h8.44v1.39l-6.62,8.18-.71.83h7.53v1.39Z"/><path class="cls-16" d="M721.64,1086.51v-2.82h-5.11v-1.33l5.38-7.64h1.18v7.64h1.59v1.33h-1.59v2.82Zm0-4.15V1077l-3.69,5.32Z"/><path class="cls-16" d="M729.75,1086.51v-10.4h-3.89v-1.39h9.35v1.39h-3.9v10.4Z"/><path class="cls-16" d="M735.15,1083v-1.46h4.45V1083Z"/><path class="cls-16" d="M740.19,1086.51l4.56-6.15-4-5.64h1.85l2.14,3a16.64,16.64,0,0,1,.95,1.45,13.63,13.63,0,0,1,.93-1.34l2.38-3.13h1.69l-4.14,5.56,4.47,6.23h-1.93l-3-4.21c-.17-.24-.34-.5-.52-.79-.26.43-.45.73-.56.89l-3,4.11Z"/><path class="cls-16" d="M752.64,1086.51v-11.79h1.56v11.79Z"/><path class="cls-16" d="M755.65,1086.51l4.53-11.79h1.68l4.83,11.79h-1.78l-1.38-3.57H758.6l-1.29,3.57Zm3.4-4.84h4l-1.23-3.27c-.37-1-.65-1.8-.84-2.44a15.77,15.77,0,0,1-.63,2.25Z"/><path class="cls-16" d="M767.46,1080.77a6.42,6.42,0,0,1,1.57-4.6,5.37,5.37,0,0,1,4.07-1.66,5.68,5.68,0,0,1,2.95.78,5.14,5.14,0,0,1,2,2.18,7.16,7.16,0,0,1,.68,3.16,7,7,0,0,1-.72,3.21,4.94,4.94,0,0,1-2,2.14,5.82,5.82,0,0,1-2.86.73,5.63,5.63,0,0,1-3-.8,5.23,5.23,0,0,1-2-2.2A6.66,6.66,0,0,1,767.46,1080.77Zm1.61,0a4.75,4.75,0,0,0,1.14,3.36,4,4,0,0,0,5.78,0,5,5,0,0,0,1.14-3.52,6.07,6.07,0,0,0-.49-2.51,3.82,3.82,0,0,0-1.42-1.67,3.92,3.92,0,0,0-2.11-.59,4,4,0,0,0-2.85,1.14A5.08,5.08,0,0,0,769.07,1080.79Z"/><path class="cls-16" d="M780,1083v-1.46h4.44V1083Z"/><path class="cls-16" d="M786.21,1086.51v-11.79h1.6L794,1084v-9.26h1.49v11.79h-1.6l-6.19-9.27v9.27Z"/><path class="cls-16" d="M798.15,1086.51v-11.79h5.23a6.69,6.69,0,0,1,2.39.32,2.55,2.55,0,0,1,1.31,1.12,3.31,3.31,0,0,1,.49,1.78,3,3,0,0,1-.81,2.11,4.1,4.1,0,0,1-2.51,1.09,3.94,3.94,0,0,1,.94.59,8,8,0,0,1,1.3,1.57l2,3.21h-2l-1.56-2.45c-.46-.71-.83-1.25-1.13-1.63a3.63,3.63,0,0,0-.79-.79,2.33,2.33,0,0,0-.71-.31,4.46,4.46,0,0,0-.87-.06h-1.81v5.24Zm1.56-6.59h3.35a5,5,0,0,0,1.68-.22,1.76,1.76,0,0,0,.91-.71,1.88,1.88,0,0,0,.32-1,1.78,1.78,0,0,0-.61-1.38,2.86,2.86,0,0,0-1.92-.54h-3.73Z"/><path class="cls-16" d="M810.1,1086.51v-11.79h7.95v1.39h-6.39v3.65h5.53v1.39h-5.53v5.36Z"/><path class="cls-16" d="M819.49,1083.42l1.52-.13a2.77,2.77,0,0,0,.79,1.67,2.13,2.13,0,0,0,1.48.56,2.29,2.29,0,0,0,1.77-.79,3,3,0,0,0,.72-2.09,2.68,2.68,0,0,0-.69-2,2.43,2.43,0,0,0-1.82-.72,2.58,2.58,0,0,0-1.27.32,2.4,2.4,0,0,0-.88.82l-1.36-.17,1.14-6.06h5.87v1.38h-4.71l-.63,3.17a3.84,3.84,0,0,1,2.22-.74,3.55,3.55,0,0,1,2.61,1.07,3.72,3.72,0,0,1,1.06,2.75,4.31,4.31,0,0,1-.93,2.77,4.16,4.16,0,0,1-5.72.53A3.54,3.54,0,0,1,819.49,1083.42Z"/><path class="cls-16" d="M836.26,1085.12v1.39h-7.79a2.5,2.5,0,0,1,.17-1,5.19,5.19,0,0,1,1-1.56,15.4,15.4,0,0,1,1.89-1.79,15.42,15.42,0,0,0,2.6-2.5,3,3,0,0,0,.68-1.74,1.94,1.94,0,0,0-.62-1.45,2.22,2.22,0,0,0-1.6-.59,2.27,2.27,0,0,0-1.68.63,2.35,2.35,0,0,0-.63,1.73l-1.49-.15a3.7,3.7,0,0,1,1.15-2.54,4,4,0,0,1,2.68-.87,3.74,3.74,0,0,1,2.69.94,3.1,3.1,0,0,1,1,2.33,3.62,3.62,0,0,1-.29,1.4,5.56,5.56,0,0,1-1,1.43,21.73,21.73,0,0,1-2.23,2.08c-.87.73-1.42,1.22-1.67,1.48a4.67,4.67,0,0,0-.61.79Z"/><path class="cls-16" d="M840,1080.12a2.71,2.71,0,0,1-1.33-.95,2.43,2.43,0,0,1-.44-1.46,2.84,2.84,0,0,1,.93-2.16,3.39,3.39,0,0,1,2.46-.88,3.42,3.42,0,0,1,2.48.9,2.88,2.88,0,0,1,.94,2.18,2.4,2.4,0,0,1-.43,1.43,2.72,2.72,0,0,1-1.3.94,3,3,0,0,1,2.22,3,3.4,3.4,0,0,1-1.07,2.54,4.36,4.36,0,0,1-5.63,0,3.42,3.42,0,0,1-1.07-2.58,3.12,3.12,0,0,1,.58-1.93A2.91,2.91,0,0,1,840,1080.12Zm-.75,3a2.59,2.59,0,0,0,.29,1.2,2.07,2.07,0,0,0,.87.89,2.58,2.58,0,0,0,1.25.32,2.31,2.31,0,0,0,1.71-.67,2.28,2.28,0,0,0,.68-1.69,2.33,2.33,0,0,0-.7-1.73,2.36,2.36,0,0,0-1.74-.69,2.31,2.31,0,0,0-2.36,2.37Zm.46-5.45a1.83,1.83,0,0,0,.54,1.37,1.93,1.93,0,0,0,1.4.53,1.88,1.88,0,0,0,1.37-.53,1.73,1.73,0,0,0,.54-1.29,1.85,1.85,0,0,0-.55-1.34,2,2,0,0,0-2.75,0A1.71,1.71,0,0,0,839.75,1077.66Z"/><path class="cls-16" d="M851.61,1086.51v-2.82H846.5v-1.33l5.38-7.64h1.18v7.64h1.59v1.33h-1.59v2.82Zm0-4.15V1077l-3.69,5.32Z"/><path class="cls-16" d="M856.13,1080.69a11,11,0,0,1,.43-3.36,4.26,4.26,0,0,1,1.28-2,3.29,3.29,0,0,1,2.14-.69,3.51,3.51,0,0,1,1.66.38,3.29,3.29,0,0,1,1.19,1.1,6.05,6.05,0,0,1,.73,1.76,12.06,12.06,0,0,1,.26,2.78,10.94,10.94,0,0,1-.42,3.35,4.18,4.18,0,0,1-1.28,2,3.58,3.58,0,0,1-4.82-.52Q856.13,1084,856.13,1080.69Zm1.49,0a7.44,7.44,0,0,0,.68,3.87,1.94,1.94,0,0,0,3.36,0,7.42,7.42,0,0,0,.68-3.86c0-1.94-.23-3.23-.68-3.86a2,2,0,0,0-1.7-1,1.86,1.86,0,0,0-1.59.84A7.47,7.47,0,0,0,857.62,1080.69Z"/><polygon class="cls-16" points="691.39 1165.93 687.28 1165.93 687.28 1126.4 705.26 1126.4 705.26 1130.52 691.39 1130.52 691.39 1165.93"/><rect class="cls-16" x="689.34" y="1144.72" width="11.08" height="4.12"/><path class="cls-16" d="M721.82,1168a22.28,22.28,0,1,1,18.09-35.28l-3.34,2.4a18.16,18.16,0,1,0-.09,21.34l3.32,2.44A22.37,22.37,0,0,1,721.82,1168Z"/><path class="cls-16" d="M721.82,1158.39a12.67,12.67,0,1,1,10.3-20.06l-3.35,2.4a8.55,8.55,0,1,0,0,10l3.32,2.44A12.74,12.74,0,0,1,721.82,1158.39Z"/><path class="cls-16" d="M785.62,1164a22.12,22.12,0,0,1,0-44.23v5.49a16.63,16.63,0,0,0,0,33.25Z"/><path class="cls-16" d="M817.5,1164a22.12,22.12,0,1,1,0-44.23v5.49a16.63,16.63,0,1,0,0,33.25Z"/><rect class="cls-16" x="798.13" y="1139.12" width="13.96" height="5.49"/></g></svg>