<svg xmlns="http://www.w3.org/2000/svg" viewBox="340.47 223.69 263.8 485.94"><defs><style>.cls-1{fill:#434143;}.cls-2,.cls-6,.cls-7{fill:none;}.cls-2{stroke:#050606;stroke-miterlimit:10;}.cls-3{fill:#2b2b2b;}.cls-4{fill:#181818;}.cls-5{fill:#e8eae8;}.cls-6,.cls-7{stroke:#e8eae8;stroke-linecap:round;stroke-linejoin:round;}.cls-7{stroke-width:2px;}.cls-8{fill:#b1a368;}</style></defs><g id="Layer_2" data-name="Layer 2"><rect class="cls-1" x="340.97" y="258.81" width="262.8" height="450.32" rx="27.43"></rect><rect class="cls-2" x="340.97" y="258.81" width="262.8" height="450.32" rx="27.43"></rect><circle class="cls-3" cx="364.66" cy="281.32" r="10.92"></circle><circle class="cls-2" cx="364.66" cy="281.32" r="10.92"></circle><path class="cls-4" d="M372.05,281.32a2.39,2.39,0,0,1-2.39,2.38h-2.61v2.62a2.38,2.38,0,1,1-4.76,0V283.7h-2.63a2.39,2.39,0,1,1,0-4.77h2.63v-2.62a2.38,2.38,0,0,1,2.37-2.38,2.39,2.39,0,0,1,2.39,2.38v2.62h2.61A2.4,2.4,0,0,1,372.05,281.32Z"></path><circle class="cls-3" cx="579.41" cy="281.32" r="10.92"></circle><circle class="cls-2" cx="579.41" cy="281.32" r="10.92"></circle><path class="cls-4" d="M586.79,281.32a2.39,2.39,0,0,1-2.38,2.38h-2.62v2.62a2.38,2.38,0,1,1-4.76,0V283.7h-2.62a2.39,2.39,0,1,1,0-4.77H577v-2.62a2.38,2.38,0,0,1,4.76,0v2.62h2.62A2.39,2.39,0,0,1,586.79,281.32Z"></path><circle class="cls-3" cx="364.66" cy="683.91" r="10.92"></circle><circle class="cls-2" cx="364.66" cy="683.91" r="10.92"></circle><path class="cls-4" d="M372.05,683.92a2.39,2.39,0,0,1-2.39,2.38h-2.61v2.62a2.38,2.38,0,1,1-4.76,0V686.3h-2.63a2.39,2.39,0,1,1,0-4.77h2.63v-2.62a2.38,2.38,0,0,1,2.37-2.38,2.39,2.39,0,0,1,2.39,2.38v2.62h2.61A2.4,2.4,0,0,1,372.05,683.92Z"></path><circle class="cls-3" cx="579.41" cy="683.91" r="10.92"></circle><circle class="cls-2" cx="579.41" cy="683.91" r="10.92"></circle><path class="cls-4" d="M586.79,683.92a2.39,2.39,0,0,1-2.38,2.38h-2.62v2.62a2.38,2.38,0,0,1-4.76,0V686.3h-2.62a2.39,2.39,0,1,1,0-4.77H577v-2.62a2.38,2.38,0,0,1,4.76,0v2.62h2.62A2.39,2.39,0,0,1,586.79,683.92Z"></path><circle class="cls-3" cx="561.1" cy="512.26" r="10.92"></circle><circle class="cls-2" cx="561.1" cy="512.26" r="10.92"></circle><path class="cls-4" d="M568.49,512.26a2.39,2.39,0,0,1-2.38,2.38h-2.62v2.62a2.38,2.38,0,1,1-4.76,0v-2.62h-2.62a2.39,2.39,0,1,1,0-4.77h2.62v-2.62a2.38,2.38,0,0,1,4.76,0v2.62h2.62A2.39,2.39,0,0,1,568.49,512.26Z"></path><circle class="cls-3" cx="478.84" cy="406.37" r="10.92"></circle><circle class="cls-2" cx="478.84" cy="406.37" r="10.92"></circle><path class="cls-4" d="M486.22,406.37a2.39,2.39,0,0,1-2.38,2.38h-2.62v2.62a2.38,2.38,0,1,1-4.76,0v-2.62h-2.62a2.39,2.39,0,1,1,0-4.77h2.62v-2.62a2.38,2.38,0,0,1,4.76,0V404h2.62A2.39,2.39,0,0,1,486.22,406.37Z"></path><rect class="cls-3" x="380.01" y="302.06" width="5.45" height="72.48" rx="1.75"></rect><rect class="cls-3" x="399.24" y="302.06" width="5.45" height="72.48" rx="1.75"></rect><rect class="cls-3" x="418.47" y="302.06" width="5.45" height="72.48" rx="1.75"></rect><rect class="cls-5" x="442.52" y="443.28" width="6.5" height="54.62" transform="translate(348.12 -170.22) rotate(34.78)"></rect><path class="cls-5" d="M521.39,490.76l-5.34,3.71L489,455.92,462,494.9l-5.34-3.71,28.32-41,1.06-1.53a3.53,3.53,0,0,1,5.8,0l1.06,1.53Z"></path><rect class="cls-3" x="437.7" y="302.06" width="5.45" height="72.48" rx="1.75"></rect><rect class="cls-3" x="492.51" y="302.06" width="5.45" height="72.48" rx="1.75"></rect><rect class="cls-3" x="511.74" y="302.06" width="5.45" height="72.48" rx="1.75"></rect><rect class="cls-3" x="530.97" y="302.06" width="5.45" height="72.48" rx="1.75"></rect><rect class="cls-3" x="550.2" y="302.06" width="5.45" height="72.48" rx="1.75"></rect><rect class="cls-3" x="465.19" y="302.06" width="5.45" height="72.48" rx="1.75"></rect><path class="cls-5" d="M420.79,519.77l4-.25a3.13,3.13,0,0,0,.53,1.48,2.21,2.21,0,0,0,1.85.82,2,2,0,0,0,1.38-.42,1.24,1.24,0,0,0,.49-1,1.29,1.29,0,0,0-.46-.95,5.44,5.44,0,0,0-2.15-.78,9.1,9.1,0,0,1-3.93-1.65,3.31,3.31,0,0,1-1.19-2.62,3.59,3.59,0,0,1,.61-2,4,4,0,0,1,1.82-1.46,8.43,8.43,0,0,1,3.34-.54,6.85,6.85,0,0,1,4,1,4.17,4.17,0,0,1,1.62,3.08l-3.95.23a2.06,2.06,0,0,0-.66-1.33,2.1,2.1,0,0,0-1.39-.42,1.66,1.66,0,0,0-1.1.31,1,1,0,0,0-.37.75.76.76,0,0,0,.31.59,3.42,3.42,0,0,0,1.4.5,17.67,17.67,0,0,1,3.94,1.19,4.19,4.19,0,0,1,1.73,1.51,3.8,3.8,0,0,1,.54,2,4.31,4.31,0,0,1-.72,2.41,4.57,4.57,0,0,1-2,1.67,8.13,8.13,0,0,1-3.27.57c-2.3,0-3.9-.45-4.79-1.33A5.26,5.26,0,0,1,420.79,519.77Z"></path><path class="cls-5" d="M439.49,510.7v3.73h2.07v2.76h-2.07v3.48a1.85,1.85,0,0,0,.12.83.69.69,0,0,0,.65.32,4.09,4.09,0,0,0,1.16-.24l.28,2.59a11.86,11.86,0,0,1-2.61.31,4.54,4.54,0,0,1-2.07-.36,2.2,2.2,0,0,1-1-1.1,6.25,6.25,0,0,1-.32-2.37v-3.46h-1.39v-2.76h1.39v-1.8Z"></path><path class="cls-5" d="M446.79,517.62l-3.6-.38a4.06,4.06,0,0,1,.59-1.49,3.23,3.23,0,0,1,1.1-.94,4.57,4.57,0,0,1,1.43-.44,11,11,0,0,1,2-.16,15.27,15.27,0,0,1,2.72.19,3.56,3.56,0,0,1,1.71.79,2.84,2.84,0,0,1,.76,1.18,4.43,4.43,0,0,1,.28,1.46v4.34a5.16,5.16,0,0,0,.08,1.08,4.81,4.81,0,0,0,.39,1h-3.54a3.68,3.68,0,0,1-.27-.58,3.18,3.18,0,0,1-.13-.63,4.9,4.9,0,0,1-1.47,1,6.18,6.18,0,0,1-2.33.41,3.86,3.86,0,0,1-2.66-.81,2.76,2.76,0,0,1-.26-3.85,4.52,4.52,0,0,1,2.42-1.08c1.42-.28,2.33-.48,2.75-.59s.86-.27,1.33-.45a1.32,1.32,0,0,0-.28-1,1.42,1.42,0,0,0-1-.28,2.59,2.59,0,0,0-1.39.3A1.6,1.6,0,0,0,446.79,517.62Zm3.26,2c-.51.18-1.05.34-1.62.49a3.72,3.72,0,0,0-1.45.6,1,1,0,0,0,0,1.42,1.34,1.34,0,0,0,.91.28,2.28,2.28,0,0,0,1.17-.31,1.84,1.84,0,0,0,.77-.74,2.49,2.49,0,0,0,.22-1.14Z"></path><path class="cls-5" d="M460.21,510.7v3.73h2.07v2.76h-2.07v3.48a1.85,1.85,0,0,0,.12.83.69.69,0,0,0,.65.32,4.09,4.09,0,0,0,1.16-.24l.28,2.59a11.86,11.86,0,0,1-2.61.31,4.57,4.57,0,0,1-2.07-.36,2.2,2.2,0,0,1-1-1.1,6.25,6.25,0,0,1-.32-2.37v-3.46h-1.39v-2.76h1.39v-1.8Z"></path><path class="cls-5" d="M464.22,510.7H468v2.56h-3.76Zm0,3.73H468v9.83h-3.76Z"></path><path class="cls-5" d="M469.92,519.37a4.91,4.91,0,0,1,1.52-3.7,6.58,6.58,0,0,1,8.56.25,5.36,5.36,0,0,1-.29,7.11,5.74,5.74,0,0,1-4.16,1.45,5.83,5.83,0,0,1-3.83-1.2A4.84,4.84,0,0,1,469.92,519.37Zm3.78,0a3,3,0,0,0,.53,1.95,1.74,1.74,0,0,0,2.67,0,3.08,3.08,0,0,0,.53-2,2.89,2.89,0,0,0-.53-1.9,1.64,1.64,0,0,0-1.31-.63,1.67,1.67,0,0,0-1.35.64A2.89,2.89,0,0,0,473.7,519.36Z"></path><path class="cls-5" d="M483,514.43h3.51V516a5.16,5.16,0,0,1,1.59-1.4,4.2,4.2,0,0,1,2-.42,3.23,3.23,0,0,1,2.45.93,4,4,0,0,1,.88,2.87v6.25h-3.78v-5.41a2,2,0,0,0-.34-1.3,1.22,1.22,0,0,0-1-.39,1.37,1.37,0,0,0-1.11.52,3.07,3.07,0,0,0-.42,1.86v4.72H483Z"></path><path class="cls-5" d="M509,519.35v-2.83h6.48v5.79a13.27,13.27,0,0,1-3.29,1.72,11,11,0,0,1-3.39.46,8.38,8.38,0,0,1-3.94-.82,5.6,5.6,0,0,1-2.35-2.46,8,8,0,0,1-.84-3.73,7.85,7.85,0,0,1,.91-3.87,6,6,0,0,1,2.69-2.49,8.68,8.68,0,0,1,3.71-.66,10.45,10.45,0,0,1,3.36.41,4.37,4.37,0,0,1,1.85,1.26,5.63,5.63,0,0,1,1.1,2.17l-4,.73a2.16,2.16,0,0,0-.84-1.18,2.68,2.68,0,0,0-1.53-.41,2.72,2.72,0,0,0-2.19,1,4.59,4.59,0,0,0-.82,3,4.72,4.72,0,0,0,.83,3.15,2.93,2.93,0,0,0,2.3.94,4.64,4.64,0,0,0,1.35-.2,7.55,7.55,0,0,0,1.46-.7v-1.27Z"></path><path class="cls-5" d="M528.42,524.26h-11.3a7,7,0,0,1,1.18-3.15,16,16,0,0,1,3.69-3.49,11.11,11.11,0,0,0,2.12-1.86,2.11,2.11,0,0,0,.47-1.22,1.42,1.42,0,0,0-.46-1,1.58,1.58,0,0,0-1.15-.44,1.61,1.61,0,0,0-1.18.45,2.75,2.75,0,0,0-.62,1.6l-3.77-.31a6,6,0,0,1,.81-2.48,3.85,3.85,0,0,1,1.67-1.37,7.49,7.49,0,0,1,3-.48,8.47,8.47,0,0,1,3.1.46,3.71,3.71,0,0,1,2.37,3.5,4.32,4.32,0,0,1-.72,2.36,9.93,9.93,0,0,1-2.65,2.48c-.75.53-1.26.89-1.52,1.1s-.55.49-.9.83h5.88Z"></path><rect class="cls-3" x="407.64" y="558.27" width="135.85" height="67.27" rx="3.52"></rect><rect class="cls-2" x="407.64" y="558.27" width="135.85" height="67.27" rx="3.52"></rect><circle class="cls-6" cx="586.93" cy="513.44" r="9.9"></circle><rect class="cls-5" x="581.12" y="512.62" width="9.09" height="1.63" rx="0.82"></rect><circle class="cls-5" cx="591.91" cy="513.44" r="0.83"></circle><path class="cls-5" d="M595.54,604.4v-2a3.26,3.26,0,0,0-3.27-3.27H579.86a3.26,3.26,0,0,0-3.27,3.27v14.63a3.26,3.26,0,0,0,3.27,3.27h12.41a3.26,3.26,0,0,0,3.27-3.27v-1.57h-6.38V604.4ZM584,615.49h-5.05V604.4H584Z"></path><rect class="cls-5" x="592.44" y="610.44" width="4.83" height="3.64" rx="0.91"></rect><path class="cls-7" d="M579,655.86a9.88,9.88,0,0,0,15.29-1"></path><path class="cls-7" d="M595.57,652.31a9.9,9.9,0,1,0-19.26-3.19"></path><polygon class="cls-5" points="571.82 649.11 580.81 649.11 576.5 653.13 571.82 649.11"></polygon><path class="cls-6" d="M513.83,395.84l-10,18.22a1.21,1.21,0,0,0,1.06,1.79H525a1.21,1.21,0,0,0,1.06-1.8L516,395.83A1.21,1.21,0,0,0,513.83,395.84Z"></path><line class="cls-6" x1="508.31" y1="412.99" x2="521.75" y2="412.99"></line><path class="cls-6" d="M511.9,411.29s1.88-2,.68-3.24-2.34-2.69-.68-4.1"></path><path class="cls-6" d="M514.9,411.29s1.88-2,.69-3.24-2.35-2.69-.69-4.1"></path><path class="cls-6" d="M517.91,411.29s1.87-2,.68-3.24-2.35-2.69-.68-4.1"></path><rect class="cls-8" x="497.97" y="253.53" width="25.55" height="5.28"></rect><path class="cls-8" d="M502.42,224.19h17a1.73,1.73,0,0,1,1.73,1.73v27.61a0,0,0,0,1,0,0H500.69a0,0,0,0,1,0,0V225.92A1.73,1.73,0,0,1,502.42,224.19Z"></path><rect class="cls-8" x="497.97" y="230.25" width="25.55" height="19.98" rx="1.55"></rect><rect class="cls-2" x="497.97" y="253.53" width="25.55" height="5.28"></rect><path class="cls-2" d="M521.11,225.92v4.33H500.68v-4.33a1.73,1.73,0,0,1,1.74-1.73h16.95A1.73,1.73,0,0,1,521.11,225.92Z"></path><rect class="cls-2" x="500.68" y="250.22" width="20.43" height="3.31"></rect><path class="cls-2" d="M523.51,231.8v16.87a1.54,1.54,0,0,1-1.55,1.55H499.52a1.55,1.55,0,0,1-1.56-1.55V231.8a1.55,1.55,0,0,1,1.56-1.55H522A1.54,1.54,0,0,1,523.51,231.8Z"></path><path class="cls-5" d="M382.68,266.74H383c.17,0,.27.07.28.19l.31,3.68c0,.35.11.53.18.53s.2-.17.31-.5l.34-1a.2.2,0,0,1,.2-.11.23.23,0,0,1,.2.11l.33,1c.11.33.21.5.29.5s.15-.18.18-.53l.32-3.68c0-.12.1-.19.28-.19h.38c.18,0,.28.08.28.21l-.55,6.79c0,.12-.12.19-.29.19h-.45c-.14,0-.26-.06-.28-.16l-.42-1.45c-.09-.28-.19-.43-.28-.43s-.19.15-.27.43l-.41,1.45c0,.1-.14.16-.29.16h-.46c-.17,0-.27-.07-.28-.19l-.55-6.79C382.39,266.82,382.5,266.74,382.68,266.74Z"></path><path class="cls-5" d="M390.76,273.76l-.28-1.33c0-.11-.14-.17-.28-.17h-1.29a.27.27,0,0,0-.28.17l-.26,1.33a.29.29,0,0,1-.29.17h-.34c-.19,0-.29-.07-.29-.19a1.58,1.58,0,0,1,0-.21l1.42-6.62c0-.11.14-.17.28-.17h.75c.14,0,.26.06.28.17l1.41,6.62a1.58,1.58,0,0,1,0,.21c0,.12-.11.19-.29.19h-.33A.28.28,0,0,1,390.76,273.76Zm-1.21-5c-.1,0-.19.2-.28.6l-.36,1.78a1,1,0,0,0,0,.24c0,.11.1.18.27.18H390c.16,0,.28-.06.28-.18a1,1,0,0,0,0-.24l-.37-1.78C389.75,269,389.66,268.78,389.55,268.78Z"></path><path class="cls-5" d="M393.2,273.93h-.4c-.16,0-.28-.08-.28-.2v-6.79c0-.12.12-.2.28-.2h1.68c1,0,1.91.52,1.91,1.54v.78a1.42,1.42,0,0,1-.85,1.32.19.19,0,0,0-.13.19.49.49,0,0,0,0,.15l.87,2.69a1.13,1.13,0,0,1,.09.33c0,.12-.09.19-.28.19h-.41c-.15,0-.26-.06-.29-.16l-.93-3c0-.09-.14-.15-.28-.15h-.44c-.17,0-.28.08-.28.2v2.92C393.49,273.85,393.37,273.93,393.2,273.93Zm.57-6.51c-.17,0-.28.08-.28.2v2.1c0,.12.11.21.28.21h.71c.53,0,1-.28,1-.8v-.91c0-.53-.43-.8-1-.8Z"></path><path class="cls-5" d="M401,273.93h-.46a.3.3,0,0,1-.29-.15L399,270.5c-.16-.41-.29-.61-.4-.61s-.15.22-.15.67v3.17c0,.12-.12.2-.28.2h-.38c-.17,0-.28-.08-.28-.2v-6.79c0-.12.11-.2.28-.2h.54c.13,0,.25.05.27.15l1.24,3.19c.17.42.3.64.4.64s.16-.23.16-.69v-3.09c0-.12.11-.2.28-.2H401c.17,0,.28.08.28.2v6.79C401.3,273.85,401.19,273.93,401,273.93Z"></path><path class="cls-5" d="M406.34,273.45v.28c0,.12-.12.2-.29.2h-3.47c-.16,0-.28-.08-.28-.2v-.28c0-.12.12-.2.28-.2h.95c.16,0,.28-.08.28-.2v-5.43c0-.12-.12-.2-.28-.2h-.95c-.16,0-.28-.08-.28-.2v-.28c0-.12.12-.2.28-.2h3.47c.17,0,.29.08.29.2v.28c0,.12-.12.2-.29.2h-1c-.17,0-.28.08-.28.2v5.43c0,.12.11.2.28.2h1C406.22,273.25,406.34,273.33,406.34,273.45Z"></path><path class="cls-5" d="M410.85,273.93h-.46a.3.3,0,0,1-.29-.15l-1.29-3.28c-.16-.41-.29-.61-.39-.61s-.16.22-.16.67v3.17c0,.12-.12.2-.28.2h-.38c-.17,0-.28-.08-.28-.2v-6.79c0-.12.11-.2.28-.2h.54a.27.27,0,0,1,.28.15l1.23,3.19c.17.42.3.64.4.64s.16-.23.16-.69v-3.09c0-.12.11-.2.28-.2h.36c.17,0,.29.08.29.2v6.79C411.14,273.85,411,273.93,410.85,273.93Z"></path><path class="cls-5" d="M415.1,271.54c0-.12-.12-.2-.29-.2h-.33c-.17,0-.29-.08-.29-.2v-.28c0-.12.12-.2.29-.2h1.29c.16,0,.28.08.28.2v1.59a2,2,0,0,1-3.82,0v-4.23a2,2,0,0,1,3.82,0v.19c0,.12-.12.2-.27.2h-.37c-.17,0-.29-.08-.29-.2v-.25c0-.53-.44-.81-1-.81s-1,.28-1,.81v4.36c0,.52.41.8.94.8s1-.28,1-.8Z"></path><path class="cls-5" d="M418,269.21h-.4c-.17,0-.28-.08-.28-.2v-.38c0-.12.11-.2.28-.2h.4c.17,0,.28.08.28.2V269C418.32,269.13,418.21,269.21,418,269.21Zm0,3.08h-.4c-.17,0-.28-.09-.28-.21v-.37c0-.12.11-.2.28-.2h.4c.17,0,.28.08.28.2v.37C418.32,272.2,418.21,272.29,418,272.29Z"></path><path class="cls-5" d="M424.5,267.91c0-.78.5-1.17,1.51-1.17h.81c1,0,1.5.39,1.5,1.17v4.85c0,.78-.49,1.17-1.5,1.17H426c-1,0-1.51-.39-1.51-1.17Zm1,4.91c0,.29.18.43.54.43h.81c.36,0,.55-.14.55-.43v-5c0-.29-.19-.43-.55-.43H426c-.36,0-.54.14-.54.43Z"></path><path class="cls-5" d="M430.1,273.93h-.4c-.17,0-.28-.08-.28-.2v-6.79c0-.12.11-.2.28-.2h1.57c1,0,1.93.52,1.93,1.54v.82c0,1-1,1.54-1.93,1.54h-.6c-.17,0-.29.08-.29.2v2.89C430.38,273.85,430.27,273.93,430.1,273.93Zm.57-6.51c-.17,0-.29.08-.29.2v2.14c0,.12.12.2.29.2h.6c.53,0,1-.27,1-.8v-.94c0-.53-.42-.8-1-.8Z"></path><path class="cls-5" d="M437.53,270.16v.28c0,.12-.12.2-.28.2h-1.67c-.16,0-.28.08-.28.2v2.21c0,.12.12.2.28.2H438c.17,0,.28.08.28.2v.28c0,.12-.11.2-.28.2h-3.36c-.17,0-.29-.08-.29-.2v-6.79c0-.12.12-.2.29-.2H438c.17,0,.28.08.28.2v.28c0,.12-.11.2-.28.2h-2.4c-.16,0-.28.08-.28.2v2.14c0,.12.12.2.28.2h1.67C437.41,270,437.53,270,437.53,270.16Z"></path><path class="cls-5" d="M439.88,273.93h-.4c-.17,0-.28-.08-.28-.2v-6.79c0-.12.11-.2.28-.2h1.68c.95,0,1.9.52,1.9,1.54v.78a1.42,1.42,0,0,1-.85,1.32.19.19,0,0,0-.13.19,1.31,1.31,0,0,0,0,.15l.88,2.69a1.65,1.65,0,0,1,.09.33c0,.12-.09.19-.29.19h-.41c-.14,0-.26-.06-.28-.16l-.93-3a.28.28,0,0,0-.29-.15h-.43c-.17,0-.29.08-.29.2v2.92C440.16,273.85,440.05,273.93,439.88,273.93Zm.57-6.51c-.17,0-.29.08-.29.2v2.1c0,.12.12.21.29.21h.71c.52,0,.95-.28.95-.8v-.91c0-.53-.43-.8-.95-.8Z"></path><path class="cls-5" d="M447.27,273.76l-.28-1.33a.28.28,0,0,0-.29-.17h-1.29a.28.28,0,0,0-.28.17l-.26,1.33a.27.27,0,0,1-.28.17h-.35c-.18,0-.28-.07-.28-.19a1.58,1.58,0,0,1,0-.21l1.41-6.62c0-.11.14-.17.29-.17h.74c.15,0,.26.06.29.17l1.4,6.62a1.58,1.58,0,0,1,0,.21c0,.12-.1.19-.28.19h-.34A.26.26,0,0,1,447.27,273.76Zm-1.21-5c-.1,0-.2.2-.29.6l-.36,1.78a1.66,1.66,0,0,0,0,.24c0,.11.1.18.27.18h.82c.17,0,.28-.06.28-.18a1.66,1.66,0,0,0,0-.24l-.38-1.78C446.25,269,446.16,268.78,446.06,268.78Z"></path><path class="cls-5" d="M452.56,266.94v.28c0,.12-.12.2-.28.2h-1c-.16,0-.28.08-.28.2v6.11c0,.12-.12.2-.29.2h-.39c-.17,0-.29-.08-.29-.2v-6.11c0-.12-.11-.2-.28-.2h-.94c-.17,0-.29-.08-.29-.2v-.28c0-.12.12-.2.29-.2h3.47C452.44,266.74,452.56,266.82,452.56,266.94Z"></path><path class="cls-5" d="M457.47,273.45v.28c0,.12-.11.2-.28.2h-3.47c-.17,0-.28-.08-.28-.2v-.28c0-.12.11-.2.28-.2h.94c.17,0,.29-.08.29-.2v-5.43c0-.12-.12-.2-.29-.2h-.94c-.17,0-.28-.08-.28-.2v-.28c0-.12.11-.2.28-.2h3.47c.17,0,.28.08.28.2v.28c0,.12-.11.2-.28.2h-1c-.17,0-.29.08-.29.2v5.43c0,.12.12.2.29.2h1C457.36,273.25,457.47,273.33,457.47,273.45Z"></path><path class="cls-5" d="M458.35,267.91c0-.78.51-1.17,1.51-1.17h.81c1,0,1.5.39,1.5,1.17v4.85c0,.78-.49,1.17-1.5,1.17h-.81c-1,0-1.51-.39-1.51-1.17Zm1,4.91c0,.29.18.43.54.43h.81c.37,0,.55-.14.55-.43v-5c0-.29-.18-.43-.55-.43h-.81c-.36,0-.54.14-.54.43Z"></path><path class="cls-5" d="M466.8,273.93h-.46a.3.3,0,0,1-.29-.15l-1.29-3.28c-.16-.41-.29-.61-.39-.61s-.16.22-.16.67v3.17c0,.12-.12.2-.28.2h-.38c-.17,0-.28-.08-.28-.2v-6.79c0-.12.11-.2.28-.2h.54a.27.27,0,0,1,.28.15l1.23,3.19c.17.42.3.64.4.64s.16-.23.16-.69v-3.09c0-.12.11-.2.28-.2h.36c.17,0,.29.08.29.2v6.79C467.09,273.85,467,273.93,466.8,273.93Z"></path><path class="cls-5" d="M470.57,266.74h.36c.17,0,.27.07.29.19l.31,3.68c0,.35.1.53.18.53s.19-.17.3-.5l.34-1a.22.22,0,0,1,.21-.11.21.21,0,0,1,.19.11l.33,1c.11.33.21.5.29.5s.15-.18.18-.53l.32-3.68c0-.12.1-.19.29-.19h.37c.18,0,.28.08.28.21l-.55,6.79c0,.12-.12.19-.29.19h-.45a.27.27,0,0,1-.28-.16l-.41-1.45c-.09-.28-.2-.43-.29-.43s-.19.15-.27.43l-.41,1.45a.27.27,0,0,1-.28.16h-.47c-.17,0-.27-.07-.28-.19l-.54-6.79C470.29,266.82,470.39,266.74,470.57,266.74Z"></path><path class="cls-5" d="M479.48,273.45v.28c0,.12-.11.2-.28.2h-3.47c-.17,0-.28-.08-.28-.2v-.28c0-.12.11-.2.28-.2h.94c.17,0,.29-.08.29-.2v-5.43c0-.12-.12-.2-.29-.2h-.94c-.17,0-.28-.08-.28-.2v-.28c0-.12.11-.2.28-.2h3.47c.17,0,.28.08.28.2v.28c0,.12-.11.2-.28.2h-1c-.17,0-.29.08-.29.2v5.43c0,.12.12.2.29.2h1C479.37,273.25,479.48,273.33,479.48,273.45Z"></path><path class="cls-5" d="M484.4,266.94v.28c0,.12-.12.2-.29.2h-1c-.17,0-.28.08-.28.2v6.11c0,.12-.12.2-.29.2h-.4c-.16,0-.28-.08-.28-.2v-6.11c0-.12-.12-.2-.28-.2h-.94c-.17,0-.29-.08-.29-.2v-.28c0-.12.12-.2.29-.2h3.46C484.28,266.74,484.4,266.82,484.4,266.94Z"></path><path class="cls-5" d="M486.35,266.94v2.82c0,.12.11.2.28.2H488c.17,0,.28-.08.28-.2v-2.82c0-.12.12-.2.29-.2h.38c.17,0,.29.08.29.2v6.79c0,.12-.12.2-.29.2h-.38c-.17,0-.29-.08-.29-.2v-2.89c0-.12-.11-.2-.28-.2h-1.33c-.17,0-.28.08-.28.2v2.89c0,.12-.12.2-.29.2h-.4c-.16,0-.28-.08-.28-.2v-6.79c0-.12.12-.2.28-.2h.4C486.23,266.74,486.35,266.82,486.35,266.94Z"></path><path class="cls-5" d="M490.3,267.91q0-1.17,1.5-1.17h.82c1,0,1.49.39,1.49,1.17v4.85c0,.78-.49,1.17-1.49,1.17h-.82q-1.5,0-1.5-1.17Zm1,4.91c0,.29.18.43.54.43h.82c.36,0,.54-.14.54-.43v-5c0-.29-.18-.43-.54-.43h-.82c-.36,0-.54.14-.54.43Z"></path><path class="cls-5" d="M495.21,266.94c0-.12.12-.2.29-.2h.39c.17,0,.29.08.29.2v5.58c0,.52.41.8.94.8s.95-.28.95-.8v-5.58c0-.12.12-.2.29-.2h.38c.17,0,.29.08.29.2v5.51a2,2,0,0,1-3.82,0Z"></path><path class="cls-5" d="M504.06,266.94v.28c0,.12-.12.2-.28.2h-1c-.16,0-.28.08-.28.2v6.11c0,.12-.12.2-.29.2h-.39c-.17,0-.29-.08-.29-.2v-6.11c0-.12-.11-.2-.28-.2h-.94c-.17,0-.29-.08-.29-.2v-.28c0-.12.12-.2.29-.2h3.47C503.94,266.74,504.06,266.82,504.06,266.94Z"></path><path class="cls-5" d="M510.6,273.76l-.28-1.33a.28.28,0,0,0-.29-.17h-1.29a.28.28,0,0,0-.28.17l-.26,1.33a.27.27,0,0,1-.28.17h-.35c-.18,0-.28-.07-.28-.19a1.58,1.58,0,0,1,0-.21l1.41-6.62c0-.11.14-.17.29-.17h.74c.15,0,.26.06.29.17l1.4,6.62a1.58,1.58,0,0,1,0,.21c0,.12-.1.19-.28.19h-.34A.26.26,0,0,1,510.6,273.76Zm-1.21-5c-.1,0-.2.2-.29.6l-.36,1.78a1.66,1.66,0,0,0,0,.24c0,.11.1.18.27.18h.82c.17,0,.28-.06.28-.18a1.66,1.66,0,0,0,0-.24l-.38-1.78C509.58,269,509.49,268.78,509.39,268.78Z"></path><path class="cls-5" d="M515.94,273.93h-.46a.3.3,0,0,1-.29-.15l-1.29-3.28c-.16-.41-.29-.61-.4-.61s-.15.22-.15.67v3.17c0,.12-.12.2-.28.2h-.38c-.17,0-.28-.08-.28-.2v-6.79c0-.12.11-.2.28-.2h.54c.13,0,.25.05.27.15l1.24,3.19c.17.42.3.64.4.64s.16-.23.16-.69v-3.09c0-.12.11-.2.28-.2h.36c.17,0,.28.08.28.2v6.79C516.22,273.85,516.11,273.93,515.94,273.93Z"></path><path class="cls-5" d="M522.88,273.76l-.28-1.33c0-.11-.14-.17-.29-.17H521a.28.28,0,0,0-.28.17l-.26,1.33a.27.27,0,0,1-.28.17h-.35c-.18,0-.28-.07-.28-.19a1.58,1.58,0,0,1,0-.21l1.41-6.62a.28.28,0,0,1,.29-.17h.75a.26.26,0,0,1,.28.17l1.41,6.62a2.07,2.07,0,0,1,0,.21c0,.12-.1.19-.28.19h-.33C523,273.93,522.91,273.87,522.88,273.76Zm-1.21-5c-.1,0-.19.2-.28.6l-.37,1.78a1.66,1.66,0,0,0,0,.24c0,.11.1.18.27.18h.82c.17,0,.29-.06.29-.18a2.28,2.28,0,0,0,0-.24l-.38-1.78C521.86,269,521.77,268.78,521.67,268.78Z"></path><path class="cls-5" d="M528.22,273.93h-.46a.3.3,0,0,1-.29-.15l-1.29-3.28c-.16-.41-.29-.61-.39-.61s-.16.22-.16.67v3.17c0,.12-.12.2-.28.2H525c-.17,0-.28-.08-.28-.2v-6.79c0-.12.11-.2.28-.2h.54a.27.27,0,0,1,.28.15l1.23,3.19c.17.42.3.64.4.64s.16-.23.16-.69v-3.09c0-.12.11-.2.28-.2h.36c.17,0,.29.08.29.2v6.79C528.51,273.85,528.39,273.93,528.22,273.93Z"></path><path class="cls-5" d="M533.54,266.94v.28c0,.12-.12.2-.29.2h-1c-.17,0-.28.08-.28.2v6.11c0,.12-.12.2-.29.2h-.4c-.16,0-.28-.08-.28-.2v-6.11c0-.12-.12-.2-.28-.2h-1c-.16,0-.28-.08-.28-.2v-.28c0-.12.12-.2.28-.2h3.47C533.42,266.74,533.54,266.82,533.54,266.94Z"></path><path class="cls-5" d="M537.72,270.16v.28c0,.12-.12.2-.29.2h-1.66c-.17,0-.28.08-.28.2v2.21c0,.12.11.2.28.2h2.4c.17,0,.28.08.28.2v.28c0,.12-.11.2-.28.2H534.8c-.17,0-.28-.08-.28-.2v-6.79c0-.12.11-.2.28-.2h3.37c.17,0,.28.08.28.2v.28c0,.12-.11.2-.28.2h-2.4c-.17,0-.28.08-.28.2v2.14c0,.12.11.2.28.2h1.66C537.6,270,537.72,270,537.72,270.16Z"></path><path class="cls-5" d="M543,273.93h-.47a.29.29,0,0,1-.28-.15l-1.29-3.28c-.17-.41-.3-.61-.4-.61s-.15.22-.15.67v3.17c0,.12-.12.2-.29.2h-.37c-.17,0-.28-.08-.28-.2v-6.79c0-.12.11-.2.28-.2h.54a.26.26,0,0,1,.27.15l1.24,3.19c.17.42.3.64.4.64s.15-.23.15-.69v-3.09c0-.12.12-.2.29-.2H543c.17,0,.28.08.28.2v6.79C543.25,273.85,543.14,273.93,543,273.93Z"></path><path class="cls-5" d="M547.88,273.93h-.46a.3.3,0,0,1-.29-.15l-1.28-3.28c-.17-.41-.3-.61-.4-.61s-.16.22-.16.67v3.17c0,.12-.11.2-.28.2h-.38c-.16,0-.28-.08-.28-.2v-6.79c0-.12.12-.2.28-.2h.55a.27.27,0,0,1,.27.15l1.23,3.19c.17.42.3.64.4.64s.16-.23.16-.69v-3.09c0-.12.11-.2.28-.2h.36c.17,0,.29.08.29.2v6.79C548.17,273.85,548.05,273.93,547.88,273.93Z"></path><path class="cls-5" d="M552.37,273.76l-.28-1.33a.26.26,0,0,0-.28-.17h-1.29a.28.28,0,0,0-.29.17l-.26,1.33a.27.27,0,0,1-.28.17h-.35c-.18,0-.28-.07-.28-.19a1.58,1.58,0,0,1,0-.21l1.42-6.62c0-.11.14-.17.28-.17h.75c.14,0,.26.06.28.17l1.41,6.62a1.58,1.58,0,0,1,0,.21c0,.12-.11.19-.29.19h-.33C552.51,273.93,552.4,273.87,552.37,273.76Zm-1.21-5c-.1,0-.19.2-.28.6l-.36,1.78a1,1,0,0,0,0,.24c0,.11.1.18.27.18h.82c.17,0,.29-.06.29-.18a2.28,2.28,0,0,0,0-.24l-.38-1.78C551.35,269,551.26,268.78,551.16,268.78Z"></path><path class="cls-5" d="M395.77,285h-.36c-.17,0-.28-.08-.28-.2v-3.55c0-.36-.06-.54-.13-.54s-.17.16-.3.5l-.37,1a.25.25,0,0,1-.25.13.26.26,0,0,1-.26-.13l-.37-1c-.13-.34-.23-.5-.31-.5s-.12.18-.12.54v3.55c0,.12-.11.2-.28.2h-.36c-.17,0-.28-.08-.28-.2V278c0-.12.11-.2.28-.2h.49a.27.27,0,0,1,.27.15l.66,1.8c.08.23.18.34.27.34s.18-.11.27-.34l.67-1.81a.28.28,0,0,1,.27-.14h.49c.17,0,.28.08.28.2v6.79C396.05,284.88,395.94,285,395.77,285Z"></path><path class="cls-5" d="M400.18,284.78l-.28-1.32a.26.26,0,0,0-.28-.17h-1.29a.28.28,0,0,0-.29.17l-.26,1.32a.26.26,0,0,1-.28.18h-.35c-.18,0-.28-.07-.28-.19a1.79,1.79,0,0,1,0-.22l1.42-6.61c0-.11.14-.17.28-.17h.75c.14,0,.26.06.28.17l1.41,6.61c0,.2,0,.21,0,.22s-.1.19-.28.19h-.33A.28.28,0,0,1,400.18,284.78Zm-1.21-5c-.1,0-.19.2-.28.6l-.36,1.78a1,1,0,0,0,0,.24c0,.11.1.18.27.18h.82c.17,0,.29-.06.29-.18a1.93,1.93,0,0,0,0-.24l-.38-1.78C399.16,280,399.07,279.81,399,279.81Z"></path><path class="cls-5" d="M402.69,281.21l-1.33-3.07a.6.6,0,0,1-.08-.22c0-.11.1-.15.3-.15h.4c.14,0,.23,0,.27.14l.72,1.74c.08.2.17.29.27.29s.18-.09.27-.29l.75-1.74c0-.1.13-.14.27-.14h.39c.19,0,.29.05.29.15a.7.7,0,0,1-.07.22l-1.33,3.07a1,1,0,0,0-.08.39v3.16c0,.13-.09.2-.28.2h-.4c-.2,0-.29-.07-.29-.2V281.6A1,1,0,0,0,402.69,281.21Z"></path><path class="cls-5" d="M409.39,285H409c-.17,0-.29-.08-.29-.2V278c0-.12.12-.2.29-.2h1.57a1.72,1.72,0,0,1,1.92,1.54v.82a1.72,1.72,0,0,1-1.92,1.54H410c-.17,0-.28.08-.28.2v2.89C409.68,284.88,409.56,285,409.39,285Zm.57-6.51c-.17,0-.28.08-.28.2v2.14c0,.12.11.2.28.2h.61c.53,0,.94-.27.94-.8v-.94c0-.53-.41-.8-.94-.8Z"></path><path class="cls-5" d="M416.82,281.19v.28c0,.12-.11.2-.28.2h-1.66c-.17,0-.29.08-.29.2v2.21c0,.12.12.2.29.2h2.4c.16,0,.28.08.28.2v.28c0,.12-.12.2-.28.2h-3.37c-.17,0-.28-.08-.28-.2V278c0-.12.11-.2.28-.2h3.37c.16,0,.28.08.28.2v.27c0,.12-.12.21-.28.21h-2.4c-.17,0-.29.08-.29.2v2.14c0,.12.12.2.29.2h1.66C416.71,281,416.82,281.07,416.82,281.19Z"></path><path class="cls-5" d="M419.17,285h-.4c-.16,0-.28-.08-.28-.2V278c0-.12.12-.2.28-.2h1.68c.95,0,1.91.52,1.91,1.54v.78a1.41,1.41,0,0,1-.85,1.31.19.19,0,0,0-.13.2,1,1,0,0,0,0,.15l.88,2.69a1.65,1.65,0,0,1,.09.33c0,.12-.09.19-.28.19h-.42a.28.28,0,0,1-.28-.16l-.93-3a.27.27,0,0,0-.28-.16h-.44c-.17,0-.28.09-.28.21v2.92C419.46,284.88,419.34,285,419.17,285Zm.57-6.51c-.17,0-.28.08-.28.2v2.1c0,.12.11.2.28.2h.71c.53,0,.95-.27.95-.8v-.9c0-.53-.42-.8-.95-.8Z"></path><path class="cls-5" d="M427.07,285h-.36c-.17,0-.29-.08-.29-.2v-3.55c0-.36-.05-.54-.13-.54s-.16.16-.29.5l-.38,1c0,.08-.13.13-.24.13a.26.26,0,0,1-.26-.13l-.37-1c-.13-.34-.24-.5-.31-.5s-.12.18-.12.54v3.55c0,.12-.12.2-.28.2h-.36c-.17,0-.29-.08-.29-.2V278c0-.12.12-.2.29-.2h.49a.28.28,0,0,1,.27.15l.65,1.8c.08.23.18.34.28.34s.17-.11.27-.34l.67-1.81c0-.08.14-.14.27-.14h.49c.16,0,.28.08.28.2v6.79C427.35,284.88,427.23,285,427.07,285Z"></path><path class="cls-5" d="M431.48,284.78l-.28-1.32a.28.28,0,0,0-.29-.17h-1.29a.28.28,0,0,0-.28.17l-.26,1.32a.26.26,0,0,1-.28.18h-.35c-.18,0-.28-.07-.28-.19a1.79,1.79,0,0,1,0-.22l1.41-6.61c0-.11.14-.17.29-.17h.74c.15,0,.26.06.29.17l1.4,6.61a1.79,1.79,0,0,1,0,.22c0,.12-.1.19-.28.19h-.34A.27.27,0,0,1,431.48,284.78Zm-1.21-5c-.1,0-.2.2-.29.6l-.36,1.78a1.93,1.93,0,0,0,0,.24c0,.11.11.18.28.18h.82c.17,0,.28-.06.28-.18a1.52,1.52,0,0,0,0-.24l-.38-1.78C430.46,280,430.37,279.81,430.27,279.81Z"></path><path class="cls-5" d="M436.82,285h-.46a.31.31,0,0,1-.29-.15l-1.29-3.28c-.16-.41-.29-.61-.4-.61s-.15.22-.15.67v3.17c0,.12-.12.2-.28.2h-.38c-.17,0-.28-.08-.28-.2V278c0-.12.11-.2.28-.2h.54c.13,0,.25.05.27.14l1.24,3.2c.17.42.3.63.4.63s.16-.23.16-.68V278c0-.12.11-.2.28-.2h.36c.17,0,.28.08.28.2v6.79C437.1,284.88,437,285,436.82,285Z"></path><path class="cls-5" d="M441.4,281.19v.28c0,.12-.12.2-.28.2h-1.67c-.16,0-.28.08-.28.2v2.21c0,.12.12.2.28.2h2.4c.17,0,.28.08.28.2v.28c0,.12-.11.2-.28.2h-3.36c-.17,0-.29-.08-.29-.2V278c0-.12.12-.2.29-.2h3.36c.17,0,.28.08.28.2v.27c0,.12-.11.21-.28.21h-2.4c-.16,0-.28.08-.28.2v2.14c0,.12.12.2.28.2h1.67C441.28,281,441.4,281.07,441.4,281.19Z"></path><path class="cls-5" d="M446.65,285h-.46a.31.31,0,0,1-.29-.15l-1.29-3.28c-.16-.41-.29-.61-.4-.61s-.15.22-.15.67v3.17c0,.12-.12.2-.28.2h-.38c-.17,0-.28-.08-.28-.2V278c0-.12.11-.2.28-.2h.54c.13,0,.25.05.27.14l1.24,3.2c.17.42.3.63.4.63s.16-.23.16-.68V278c0-.12.11-.2.28-.2h.36c.17,0,.28.08.28.2v6.79C446.93,284.88,446.82,285,446.65,285Z"></path><path class="cls-5" d="M452,278v.27c0,.12-.11.21-.28.21h-1c-.17,0-.28.08-.28.2v6.11c0,.12-.12.2-.29.2h-.4c-.17,0-.28-.08-.28-.2v-6.11c0-.12-.12-.2-.29-.2h-.94c-.16,0-.28-.09-.28-.21V278c0-.12.12-.2.28-.2h3.47C451.85,277.77,452,277.85,452,278Z"></path><path class="cls-5" d="M456.88,284.48v.28c0,.12-.12.2-.28.2h-3.37c-.17,0-.28-.08-.28-.2V278c0-.12.11-.2.28-.2h.4c.17,0,.29.08.29.2v6.11c0,.12.11.2.28.2h2.4C456.76,284.28,456.88,284.36,456.88,284.48Z"></path><path class="cls-5" d="M458.3,281.21,457,278.14a.7.7,0,0,1-.07-.22c0-.11.1-.15.29-.15h.4c.14,0,.23,0,.27.14l.72,1.74c.08.2.17.29.28.29s.18-.09.27-.29l.74-1.74c0-.1.13-.14.28-.14h.38q.3,0,.3.15a.6.6,0,0,1-.08.22l-1.33,3.07a1,1,0,0,0-.07.39v3.16c0,.13-.09.2-.29.2h-.4c-.19,0-.28-.07-.28-.2V281.6A1,1,0,0,0,458.3,281.21Z"></path><path class="cls-5" d="M464.42,285c-.17,0-.29-.08-.29-.2v-.32c0-.24.47-.08.47-.33v-5.5c0-.25-.47-.08-.47-.33V278c0-.12.12-.2.29-.2h2a1.7,1.7,0,0,1,1.9,1.54v4.11a1.7,1.7,0,0,1-1.9,1.54Zm1.41-6.51c-.16,0-.28.08-.28.2v5.43c0,.12.12.2.28.2h.59c.52,0,.94-.28.94-.8v-4.23c0-.53-.42-.8-.94-.8Z"></path><path class="cls-5" d="M472.09,284.78l-.28-1.32c0-.11-.14-.17-.29-.17h-1.29a.28.28,0,0,0-.28.17l-.26,1.32a.26.26,0,0,1-.28.18h-.35c-.18,0-.28-.07-.28-.19a1.79,1.79,0,0,1,0-.22l1.41-6.61a.28.28,0,0,1,.29-.17h.75a.26.26,0,0,1,.28.17l1.41,6.61c0,.2,0,.21,0,.22s-.1.19-.28.19h-.33A.28.28,0,0,1,472.09,284.78Zm-1.21-5c-.1,0-.19.2-.28.6l-.37,1.78a1.52,1.52,0,0,0,0,.24c0,.11.1.18.27.18h.82c.17,0,.29-.06.29-.18a1.93,1.93,0,0,0,0-.24l-.38-1.78C471.07,280,471,279.81,470.88,279.81Z"></path><path class="cls-5" d="M477.51,285h-.36c-.17,0-.29-.08-.29-.2v-3.55c0-.36-.05-.54-.12-.54s-.17.16-.3.5l-.37,1a.25.25,0,0,1-.25.13.26.26,0,0,1-.26-.13l-.37-1c-.13-.34-.23-.5-.31-.5s-.12.18-.12.54v3.55c0,.12-.11.2-.28.2h-.36c-.17,0-.29-.08-.29-.2V278c0-.12.12-.2.29-.2h.49a.27.27,0,0,1,.27.15l.66,1.8c.07.23.18.34.27.34s.18-.11.27-.34l.67-1.81c0-.08.14-.14.27-.14h.49c.17,0,.28.08.28.2v6.79C477.79,284.88,477.68,285,477.51,285Z"></path><path class="cls-5" d="M481.92,284.78l-.28-1.32c0-.11-.14-.17-.29-.17h-1.29a.28.28,0,0,0-.28.17l-.26,1.32a.26.26,0,0,1-.28.18h-.35c-.18,0-.28-.07-.28-.19a1.79,1.79,0,0,1,0-.22l1.41-6.61a.28.28,0,0,1,.29-.17h.75a.26.26,0,0,1,.28.17l1.41,6.61c0,.2,0,.21,0,.22s-.1.19-.28.19h-.33A.28.28,0,0,1,481.92,284.78Zm-1.21-5c-.1,0-.19.2-.28.6l-.37,1.78a1.52,1.52,0,0,0,0,.24c0,.11.1.18.27.18h.82c.17,0,.29-.06.29-.18a1.93,1.93,0,0,0,0-.24l-.38-1.78C480.9,280,480.81,279.81,480.71,279.81Z"></path><path class="cls-5" d="M486.33,282.57c0-.12-.11-.2-.28-.2h-.34c-.16,0-.28-.08-.28-.2v-.28c0-.12.12-.2.28-.2H487c.17,0,.29.08.29.2v1.59c0,1-1,1.54-1.91,1.54a1.71,1.71,0,0,1-1.91-1.54v-4.23a2,2,0,0,1,3.82,0v.19c0,.12-.12.2-.27.2h-.38c-.16,0-.28-.08-.28-.2v-.25c0-.53-.44-.81-1-.81s-.95.28-.95.81v4.35c0,.53.41.8.94.8s.95-.27.95-.8Z"></path><path class="cls-5" d="M491.58,281.19v.28c0,.12-.11.2-.28.2h-1.66c-.17,0-.29.08-.29.2v2.21c0,.12.12.2.29.2H492c.16,0,.28.08.28.2v.28c0,.12-.12.2-.28.2h-3.37c-.17,0-.28-.08-.28-.2V278c0-.12.11-.2.28-.2H492c.16,0,.28.08.28.2v.27c0,.12-.12.21-.28.21h-2.4c-.17,0-.29.08-.29.2v2.14c0,.12.12.2.29.2h1.66C491.47,281,491.58,281.07,491.58,281.19Z"></path><path class="cls-5" d="M499.68,278v.27c0,.12-.11.21-.28.21h-1c-.17,0-.28.08-.28.2v6.11c0,.12-.12.2-.29.2h-.4c-.17,0-.28-.08-.28-.2v-6.11c0-.12-.12-.2-.29-.2h-.94c-.16,0-.28-.09-.28-.21V278c0-.12.12-.2.28-.2h3.47C499.57,277.77,499.68,277.85,499.68,278Z"></path><path class="cls-5" d="M501.64,278v2.82c0,.12.11.2.28.2h1.33c.17,0,.28-.08.28-.2V278c0-.12.12-.2.28-.2h.39c.17,0,.29.08.29.2v6.79c0,.12-.12.2-.29.2h-.39c-.16,0-.28-.08-.28-.2v-2.89c0-.12-.11-.2-.28-.2h-1.33c-.17,0-.28.08-.28.2v2.89c0,.12-.12.2-.29.2H501c-.17,0-.28-.08-.28-.2V278c0-.12.11-.2.28-.2h.4C501.52,277.77,501.64,277.85,501.64,278Z"></path><path class="cls-5" d="M508.78,281.19v.28c0,.12-.11.2-.28.2h-1.67c-.16,0-.28.08-.28.2v2.21c0,.12.12.2.28.2h2.4c.17,0,.29.08.29.2v.28c0,.12-.12.2-.29.2h-3.36c-.17,0-.29-.08-.29-.2V278c0-.12.12-.2.29-.2h3.36c.17,0,.29.08.29.2v.27c0,.12-.12.21-.29.21h-2.4c-.16,0-.28.08-.28.2v2.14c0,.12.12.2.28.2h1.67C508.67,281,508.78,281.07,508.78,281.19Z"></path><path class="cls-5" d="M513,285c-.17,0-.28-.08-.28-.2v-.32c0-.24.46-.08.46-.33v-5.5c0-.25-.46-.08-.46-.33V278c0-.12.11-.2.28-.2h2a1.71,1.71,0,0,1,1.91,1.54v4.11A1.71,1.71,0,0,1,515,285Zm1.42-6.51c-.17,0-.29.08-.29.2v5.43c0,.12.12.2.29.2H515c.53,0,.94-.28.94-.8v-4.23c0-.53-.41-.8-.94-.8Z"></path><path class="cls-5" d="M521.06,281.19v.28c0,.12-.11.2-.28.2h-1.66c-.17,0-.29.08-.29.2v2.21c0,.12.12.2.29.2h2.39c.17,0,.29.08.29.2v.28c0,.12-.12.2-.29.2h-3.36c-.17,0-.28-.08-.28-.2V278c0-.12.11-.2.28-.2h3.36c.17,0,.29.08.29.2v.27c0,.12-.12.21-.29.21h-2.39c-.17,0-.29.08-.29.2v2.14c0,.12.12.2.29.2h1.66C521,281,521.06,281.07,521.06,281.19Z"></path><path class="cls-5" d="M523.51,277.94l.89,4.33c.08.4.17.6.29.6s.19-.2.28-.6l.89-4.33c0-.12.12-.17.29-.17h.36c.19,0,.28.06.28.19a.75.75,0,0,1,0,.17l-1.41,6.65c0,.12-.12.18-.29.18h-.75c-.16,0-.25-.06-.28-.18l-1.43-6.65a1.55,1.55,0,0,1,0-.17c0-.13.09-.19.29-.19h.37C523.4,277.77,523.49,277.82,523.51,277.94Z"></path><path class="cls-5" d="M531.63,284.48v.28c0,.12-.12.2-.29.2h-3.46c-.17,0-.29-.08-.29-.2v-.28c0-.12.12-.2.29-.2h.94c.16,0,.28-.08.28-.2v-5.43c0-.12-.12-.2-.28-.2h-.94c-.17,0-.29-.09-.29-.21V278c0-.12.12-.2.29-.2h3.46c.17,0,.29.08.29.2v.27c0,.12-.12.21-.29.21h-1c-.17,0-.28.08-.28.2v5.43c0,.12.11.2.28.2h1C531.51,284.28,531.63,284.36,531.63,284.48Z"></path><path class="cls-5" d="M532.48,279.25a2,2,0,0,1,3.82,0v.19c0,.12-.12.2-.27.2h-.38c-.16,0-.28-.08-.28-.2v-.25a.84.84,0,0,0-1-.81c-.55,0-1,.28-1,.81v4.35c0,.53.42.8,1,.8s1-.27,1-.8v-.35c0-.12.12-.21.28-.21H536c.17,0,.29.09.29.21v.29c0,1-1,1.54-1.91,1.54a1.71,1.71,0,0,1-1.91-1.54Z"></path><path class="cls-5" d="M540.59,281.19v.28c0,.12-.11.2-.28.2h-1.66c-.17,0-.29.08-.29.2v2.21c0,.12.12.2.29.2h2.4c.16,0,.28.08.28.2v.28c0,.12-.12.2-.28.2h-3.37c-.17,0-.28-.08-.28-.2V278c0-.12.11-.2.28-.2h3.37c.16,0,.28.08.28.2v.27c0,.12-.12.21-.28.21h-2.4c-.17,0-.29.08-.29.2v2.14c0,.12.12.2.29.2h1.66C540.48,281,540.59,281.07,540.59,281.19Z"></path><path class="cls-5" d="M543.2,285h-.4c-.17,0-.28-.08-.28-.2v-.38c0-.12.11-.2.28-.2h.4c.17,0,.29.08.29.2v.38C543.49,284.88,543.37,285,543.2,285Z"></path></g></svg>