<svg xmlns="http://www.w3.org/2000/svg" viewBox="696.3 500.37 622.29 968.69"><defs><style>.cls-1{fill:#2d2d2d;}.cls-2{fill:#383838;}.cls-3{fill:#474649;}.cls-4{fill:#939696;}.cls-5,.cls-7{fill:#e6e8e8;}.cls-11,.cls-12,.cls-13,.cls-14,.cls-15,.cls-16,.cls-17,.cls-18,.cls-6{fill:none;}.cls-16,.cls-6{stroke:#939696;stroke-width:2px;}.cls-18,.cls-6{stroke-linecap:round;stroke-linejoin:round;}.cls-7{font-size:22.85px;font-family:ArialMT, Arial;}.cls-8{fill:#515153;}.cls-9{fill:#e2d299;}.cls-10{fill:#fff;}.cls-11,.cls-13,.cls-14,.cls-15{stroke:#050606;}.cls-11,.cls-12,.cls-13,.cls-14,.cls-15,.cls-16,.cls-17{stroke-miterlimit:10;}.cls-11{stroke-width:1.35px;}.cls-12,.cls-17,.cls-18{stroke:#fff;}.cls-12,.cls-15{stroke-width:1.79px;}.cls-13{stroke-width:1.8px;}.cls-14{stroke-width:4.05px;}.cls-17{stroke-width:1.37px;}.cls-18{stroke-width:1.37px;}</style></defs><g id="Layer_3" data-name="Layer 3"><path class="cls-1" d="M1292.56,1030.81v287.34c0,51.3-17,98.13-78.62,120.23-33.78,12.13-72.45,17.21-107.88,19.81-23.07,1.7-66.69,2.55-98.62,2.85-31.93-.3-75.55-1.15-98.62-2.85-35.43-2.6-74.1-7.68-107.88-19.81-61.6-22.1-78.62-68.93-78.62-120.23V1030.81Z"/><path class="cls-2" d="M1306.83,1210.35c-3,2.5-2.35,7.42-6.33,11.56-2,2.07-5.21,2.65-7.94,2.72v93.52c0,51.3-17,98.13-78.62,120.23-33.78,12.13-72.45,17.21-107.88,19.81-23.07,1.7-66.69,2.55-98.62,2.85-31.93-.3-75.55-1.15-98.62-2.85-35.43-2.6-74.1-7.68-107.88-19.81-61.6-22.1-78.62-68.93-78.62-120.23v-94.29a17.44,17.44,0,0,1-7.13-1.4c-5.08-2.35-3.9-7.73-7.43-11.92a8.73,8.73,0,0,0-3.92-2.65v110.83c0,52.75,17,100.9,78.62,123.63,33.79,12.47,72.21,18,107.6,21.08,21,1.85,69.3,3.79,117.26,3.59h.24c48,.2,96.28-1.74,117.26-3.59,35.39-3.12,73.81-8.61,107.6-21.08,61.59-22.73,78.62-70.88,78.62-123.63V1208.18A13.09,13.09,0,0,0,1306.83,1210.35Z"/><path class="cls-3" d="M722.79,1332.36h0a25.91,25.91,0,0,0,25.92-25.92V1137.88h530.2v186.39a12.8,12.8,0,0,0,12.81,12.8h0v-29l.84-277.22H722.32Z"/><path class="cls-1" d="M1292.56,590.3v440.51H722.32V590.3a74.74,74.74,0,0,1,74.75-74.75h420.74A74.74,74.74,0,0,1,1292.56,590.3Z"/><rect class="cls-4" x="942.13" y="547.62" width="132.22" height="13.89" rx="6.95"/><rect class="cls-5" x="743.88" y="1199.81" width="540.06" height="13.65" rx="6.82"/><rect class="cls-5" x="743.88" y="1133.54" width="540.06" height="13.65" rx="6.82"/><rect class="cls-5" x="743.88" y="1266.09" width="540.06" height="13.65" rx="6.82"/><rect class="cls-5" x="743.88" y="1332.36" width="540.06" height="13.65" rx="6.82"/><path class="cls-6" d="M1021.42,1034.73v9.87a34.52,34.52,0,0,1,27,27.08h9.86"/><path class="cls-6" d="M1007.54,1034.76v9.88a34.5,34.5,0,0,0-26.79,27h-9.86"/><path class="cls-6" d="M971,1085.57h9.89a34.53,34.53,0,0,0,26.69,26.57V1122"/><path class="cls-6" d="M1021.42,1122.05v-9.87a34.53,34.53,0,0,0,26.86-26.61h9.89"/><circle class="cls-5" cx="1014.57" cy="1078.39" r="26.4"/><rect class="cls-2" x="755.65" y="633.64" width="500.52" height="377.46"/><text class="cls-7" transform="translate(762.22 1184.58)">Q</text><text class="cls-7" transform="translate(813.86 1184.58)">W</text><text class="cls-7" transform="translate(867.23 1184.58)">E</text><text class="cls-7" transform="translate(920.6 1184.58)">R</text><text class="cls-7" transform="translate(973.98 1184.58)">T</text><text class="cls-7" transform="translate(1034.95 1184.58)">Y</text><text class="cls-7" transform="translate(1142 1184.58)">I</text><text class="cls-7" transform="translate(1088.49 1184.58)">U</text><text class="cls-7" transform="translate(1246.93 1184.58)">P</text><text class="cls-7" transform="translate(1194.11 1184.58)">O</text><text class="cls-7" transform="translate(762.22 1249.77)">A</text><text class="cls-7" transform="translate(813.86 1249.77)">S</text><text class="cls-7" transform="translate(867.23 1249.77)">D</text><text class="cls-7" transform="translate(920.6 1249.77)">F</text><text class="cls-7" transform="translate(973.98 1249.77)">G</text><text class="cls-7" transform="translate(1034.95 1249.77)">H</text><text class="cls-7" transform="translate(1142 1249.77)">K</text><text class="cls-7" transform="translate(1088.49 1249.77)">J</text><text class="cls-7" transform="translate(1194.11 1249.77)">L</text><text class="cls-7" transform="translate(758.45 1316)">alt</text><text class="cls-7" transform="translate(813.86 1316)">Z</text><text class="cls-7" transform="translate(867.23 1316)">X</text><text class="cls-7" transform="translate(920.6 1316)">C</text><text class="cls-7" transform="translate(973.98 1316)">V</text><text class="cls-7" transform="translate(1034.95 1316)">B</text><text class="cls-7" transform="translate(1142 1316)">M</text><text class="cls-7" transform="translate(1088.49 1316)">N</text><path class="cls-8" d="M1316.56,617.77v408.74a6.22,6.22,0,0,1-1.81,4.39l-3.71,3.71v173.57a13.09,13.09,0,0,0-4.21,2.17c-3,2.5-2.35,7.42-6.33,11.56-2,2.07-5.21,2.65-7.94,2.72V590.3a74.74,74.74,0,0,0-74.75-74.75H797.07a74.74,74.74,0,0,0-74.75,74.75v633.56a17.44,17.44,0,0,1-7.13-1.4c-5.08-2.35-3.9-7.73-7.43-11.92a8.73,8.73,0,0,0-3.92-2.65V1034.61l-3.71-3.71-.08-.09a6.2,6.2,0,0,1-1.73-4.3V617.77a6.23,6.23,0,0,1,1.59-4.15l3.93-4.38V594.81a92.42,92.42,0,0,1,92.42-92.42h422.36A92.38,92.38,0,0,1,1311,594.81v14.43l3.93,4.38A6.23,6.23,0,0,1,1316.56,617.77Z"/></g><g id="Layer_2" data-name="Layer 2"><path class="cls-9" d="M743.88,1061.4a14.6,14.6,0,1,1,14.6-14.6A14.62,14.62,0,0,1,743.88,1061.4Zm0-26a11.36,11.36,0,1,0,11.36,11.36A11.38,11.38,0,0,0,743.88,1035.44Z"/><path class="cls-10" d="M892.79,1438.55v-19.42h4v16.13h9.83v3.29Z"/><path class="cls-10" d="M909.28,1438.55V1419h4v19.58Z"/><path class="cls-10" d="M917.1,1438.55v-19.42h4v16.13h9.83v3.29Z"/><path class="cls-10" d="M936.34,1438.55v-8.24L929.17,1419h4.63l4.61,7.75,4.51-7.75h4.56l-7.2,11.37v8.21Z"/><path class="cls-10" d="M958.55,1431.36v-3.3h8.53v7.8a10.79,10.79,0,0,1-3.6,2.11,13.17,13.17,0,0,1-4.78.92,10.74,10.74,0,0,1-5.36-1.29,8.23,8.23,0,0,1-3.43-3.69,11.83,11.83,0,0,1-1.15-5.21,11.35,11.35,0,0,1,1.28-5.44,8.72,8.72,0,0,1,3.76-3.65,10.12,10.12,0,0,1,4.69-1,9.32,9.32,0,0,1,5.69,1.53,6.89,6.89,0,0,1,2.64,4.23l-3.93.73a4.14,4.14,0,0,0-1.55-2.28,4.74,4.74,0,0,0-2.85-.83,5.37,5.37,0,0,0-4.12,1.64,6.93,6.93,0,0,0-1.53,4.88,7.65,7.65,0,0,0,1.55,5.23,5.16,5.16,0,0,0,4.06,1.74,6.77,6.77,0,0,0,2.49-.49,8.55,8.55,0,0,0,2.14-1.18v-2.48Z"/><path class="cls-10" d="M969.92,1428.88a12.38,12.38,0,0,1,.9-5,9,9,0,0,1,1.82-2.68,7.61,7.61,0,0,1,2.53-1.77,10.88,10.88,0,0,1,4.22-.77,9.2,9.2,0,0,1,6.93,2.68q2.59,2.68,2.59,7.47a10.24,10.24,0,0,1-2.57,7.42,10.29,10.29,0,0,1-13.84,0A10.09,10.09,0,0,1,969.92,1428.88Zm4.07-.13a7.34,7.34,0,0,0,1.54,5,5.28,5.28,0,0,0,7.78,0,7.5,7.5,0,0,0,1.52-5.11,7.35,7.35,0,0,0-1.48-5,5,5,0,0,0-3.92-1.65,5,5,0,0,0-3.94,1.67A7.41,7.41,0,0,0,974,1428.75Z"/><path class="cls-10" d="M1004,1438.55v-16.26H998.2V1419h15.56v3.32H1008v16.26Z"/><path class="cls-10" d="M1014.35,1433.33v-3.75h7.37v3.75Z"/><path class="cls-10" d="M1024,1438.55V1419h4v8.7l8-8.7h5.31l-7.37,7.63,7.77,12h-5.11l-5.38-9.19-3.21,3.28v5.91Z"/><path class="cls-10" d="M1051.86,1434l3.74.63a6.13,6.13,0,0,1-2.28,3.13,6.68,6.68,0,0,1-3.89,1.08,6.35,6.35,0,0,1-5.48-2.42,8.08,8.08,0,0,1-1.4-4.89,7.82,7.82,0,0,1,1.84-5.52,6,6,0,0,1,4.66-2,6.32,6.32,0,0,1,5,2.09c1.22,1.39,1.8,3.53,1.75,6.4h-9.41a3.8,3.8,0,0,0,.91,2.6,2.84,2.84,0,0,0,2.17.93,2.31,2.31,0,0,0,1.48-.48A3,3,0,0,0,1051.86,1434Zm.21-3.79a3.64,3.64,0,0,0-.84-2.48,2.7,2.7,0,0,0-4,0,3.41,3.41,0,0,0-.79,2.43Z"/><path class="cls-10" d="M1057.08,1424.37h4l3.4,10.07,3.31-10.07h3.89l-5,13.65-.9,2.47a10.12,10.12,0,0,1-.94,1.9,4.17,4.17,0,0,1-1,1.06,4.48,4.48,0,0,1-1.43.63,7,7,0,0,1-1.91.23,9.46,9.46,0,0,1-2.13-.23l-.33-2.93a8.72,8.72,0,0,0,1.59.17,2.34,2.34,0,0,0,1.93-.77,5.37,5.37,0,0,0,1-2Z"/><path class="cls-10" d="M1073.91,1438.55V1419h3.75V1426a5.32,5.32,0,0,1,4.12-2,5.52,5.52,0,0,1,4.29,1.88,7.75,7.75,0,0,1,1.69,5.38,8.21,8.21,0,0,1-1.73,5.6,5.39,5.39,0,0,1-4.2,2,5.28,5.28,0,0,1-2.4-.61,5.87,5.87,0,0,1-2-1.8v2.08Zm3.73-7.4a6.06,6.06,0,0,0,.69,3.26,3,3,0,0,0,2.59,1.5,2.65,2.65,0,0,0,2.12-1.06,5.27,5.27,0,0,0,.87-3.35,5.49,5.49,0,0,0-.88-3.5,2.77,2.77,0,0,0-2.25-1.08,2.84,2.84,0,0,0-2.25,1A4.79,4.79,0,0,0,1077.64,1431.15Z"/><path class="cls-10" d="M1089.91,1431.26a7.75,7.75,0,0,1,.92-3.62,6.31,6.31,0,0,1,2.62-2.67,7.76,7.76,0,0,1,3.77-.92,7.09,7.09,0,0,1,5.27,2.09,7.18,7.18,0,0,1,2.06,5.28,7.29,7.29,0,0,1-2.08,5.34,7,7,0,0,1-5.22,2.12,8.22,8.22,0,0,1-3.72-.89,6.07,6.07,0,0,1-2.7-2.58A8.69,8.69,0,0,1,1089.91,1431.26Zm3.85.2a4.66,4.66,0,0,0,1,3.23,3.26,3.26,0,0,0,4.94,0,5.76,5.76,0,0,0,0-6.46,3.28,3.28,0,0,0-4.94,0A4.68,4.68,0,0,0,1093.76,1431.46Z"/><path class="cls-10" d="M1110.3,1428.7l-3.41-.62a5.26,5.26,0,0,1,2-3,7.19,7.19,0,0,1,4.16-1,9.08,9.08,0,0,1,3.74.59,3.73,3.73,0,0,1,1.73,1.51,7.65,7.65,0,0,1,.5,3.36l0,4.38a14.16,14.16,0,0,0,.19,2.76,7.9,7.9,0,0,0,.67,1.9h-3.71a11,11,0,0,1-.36-1.1c-.07-.23-.11-.37-.14-.44a6.79,6.79,0,0,1-2.06,1.4,5.88,5.88,0,0,1-2.33.47,4.88,4.88,0,0,1-3.46-1.19,4.23,4.23,0,0,1-.68-5.15,3.78,3.78,0,0,1,1.61-1.45,12.77,12.77,0,0,1,3-.87,21,21,0,0,0,3.65-.92v-.38a1.93,1.93,0,0,0-.54-1.54,3.15,3.15,0,0,0-2-.46,2.74,2.74,0,0,0-1.57.39A2.8,2.8,0,0,0,1110.3,1428.7Zm5,3c-.48.16-1.24.35-2.29.58a6.93,6.93,0,0,0-2,.65,1.56,1.56,0,0,0-.73,1.32,1.86,1.86,0,0,0,.58,1.37,2.08,2.08,0,0,0,1.5.57,3.24,3.24,0,0,0,1.94-.67,2.35,2.35,0,0,0,.89-1.24,7.26,7.26,0,0,0,.15-1.83Z"/><path class="cls-10" d="M1126.3,1438.55h-3.76v-14.18H1126v2a6.1,6.1,0,0,1,1.61-1.89,3,3,0,0,1,1.62-.45,4.67,4.67,0,0,1,2.47.71l-1.16,3.27a3.3,3.3,0,0,0-1.76-.62,2.1,2.1,0,0,0-1.34.44,3,3,0,0,0-.86,1.57,22.25,22.25,0,0,0-.31,4.75Z"/><path class="cls-10" d="M1146.36,1438.55h-3.48v-2.08a5.69,5.69,0,0,1-2.06,1.81,5.18,5.18,0,0,1-2.38.6,5.39,5.39,0,0,1-4.19-2,8,8,0,0,1-1.74-5.49,7.86,7.86,0,0,1,1.7-5.48,5.5,5.5,0,0,1,4.28-1.88,5.32,5.32,0,0,1,4.12,2V1419h3.75Zm-10-7.4a6.49,6.49,0,0,0,.63,3.29,2.84,2.84,0,0,0,2.54,1.47,2.76,2.76,0,0,0,2.2-1.1,5.06,5.06,0,0,0,.91-3.29,5.54,5.54,0,0,0-.88-3.52,2.79,2.79,0,0,0-2.26-1.08,2.83,2.83,0,0,0-2.24,1.06A4.81,4.81,0,0,0,1136.34,1431.15Z"/><rect class="cls-11" x="755.65" y="633.64" width="500.52" height="377.46"/><path class="cls-12" d="M1084.05,1030.81a84.23,84.23,0,0,1-5.85,102.73"/><path class="cls-12" d="M945.08,1030.81a84.23,84.23,0,0,0,5.85,102.73"/><path class="cls-12" d="M1056.1,1030.81a63.17,63.17,0,0,1-10.75,102.73"/><path class="cls-12" d="M973,1030.81a63.15,63.15,0,0,0,10.75,102.73"/><circle class="cls-12" cx="1014.57" cy="1078.39" r="26.4"/><path class="cls-13" d="M703.84,1208.34a10.08,10.08,0,0,1,7.37,8.09c1.15,6.75,7.53,8.15,11.11,7.13"/><path class="cls-14" d="M1315,613.62l-3.93-4.38V594.81a92.42,92.42,0,0,0-92.42-92.42H796.26a92.42,92.42,0,0,0-92.42,92.42v14.43l-3.93,4.38a6.23,6.23,0,0,0-1.59,4.15v408.74a6.22,6.22,0,0,0,1.81,4.39l3.71,3.71v284.11c0,52.75,17,100.9,78.62,123.63,33.79,12.47,72.21,18,107.6,21.08,21,1.85,69.3,3.79,117.26,3.59h.24c48,.2,96.28-1.74,117.26-3.59,35.39-3.12,73.81-8.61,107.6-21.08,61.59-22.73,78.62-70.88,78.62-123.63V1034.61l3.71-3.71a6.22,6.22,0,0,0,1.81-4.39V617.77A6.23,6.23,0,0,0,1315,613.62Zm-22.41,704.53c0,51.3-17,98.13-78.62,120.23-33.78,12.13-72.45,17.21-107.88,19.81-23.07,1.7-66.69,2.55-98.62,2.85-31.93-.3-75.55-1.15-98.62-2.85-35.43-2.6-74.1-7.68-107.88-19.81-61.6-22.1-78.62-68.93-78.62-120.23V590.3a74.74,74.74,0,0,1,74.75-74.75h420.74a74.74,74.74,0,0,1,74.75,74.75Z"/><path class="cls-13" d="M1311.05,1208.34a10.08,10.08,0,0,0-7.37,8.09c-1.15,6.75-7.53,8.15-11.11,7.13"/><rect class="cls-11" x="942.13" y="547.62" width="132.22" height="13.89" rx="6.95"/><line class="cls-11" x1="722.32" y1="1030.81" x2="1292.57" y2="1030.81"/><rect class="cls-13" x="748.71" y="1147.19" width="53.02" height="52.62"/><path class="cls-13" d="M748.71,1199.81h45.08V1175a27.9,27.9,0,0,0-28-27.8H748.71"/><rect class="cls-13" x="801.73" y="1147.19" width="53.02" height="52.62"/><path class="cls-13" d="M801.73,1199.81h45.08V1175a27.9,27.9,0,0,0-28-27.8H801.73"/><rect class="cls-13" x="854.75" y="1147.19" width="53.02" height="52.62"/><path class="cls-13" d="M854.75,1199.81h45.08V1175a27.9,27.9,0,0,0-28-27.8H854.75"/><rect class="cls-13" x="907.77" y="1147.19" width="53.02" height="52.62"/><path class="cls-13" d="M907.77,1199.81h45.08V1175a27.9,27.9,0,0,0-28-27.8H907.77"/><rect class="cls-13" x="960.79" y="1147.19" width="53.02" height="52.62"/><path class="cls-13" d="M960.79,1199.81h45.08V1175a27.9,27.9,0,0,0-28-27.8H960.79"/><rect class="cls-13" x="1225.89" y="1147.19" width="53.02" height="52.62" transform="translate(2504.8 2347) rotate(-180)"/><path class="cls-13" d="M1278.91,1147.19h-17.07a27.91,27.91,0,0,0-28,27.8v24.82h45.08"/><rect class="cls-13" x="1172.87" y="1147.19" width="53.02" height="52.62" transform="translate(2398.76 2347) rotate(-180)"/><path class="cls-13" d="M1225.89,1147.19h-17.07a27.91,27.91,0,0,0-28,27.8v24.82h45.08"/><rect class="cls-13" x="1119.85" y="1147.19" width="53.02" height="52.62" transform="translate(2292.72 2347) rotate(-180)"/><path class="cls-13" d="M1172.87,1147.19H1155.8a27.91,27.91,0,0,0-28,27.8v24.82h45.08"/><rect class="cls-13" x="1066.83" y="1147.19" width="53.02" height="52.62" transform="translate(2186.68 2347) rotate(-180)"/><path class="cls-13" d="M1119.85,1147.19h-17.07a27.91,27.91,0,0,0-28,27.8v24.82h45.08"/><rect class="cls-13" x="1013.81" y="1147.19" width="53.02" height="52.62" transform="translate(2080.64 2347) rotate(-180)"/><path class="cls-13" d="M1066.83,1147.19h-17.07a27.91,27.91,0,0,0-28,27.8v24.82h45.08"/><rect class="cls-13" x="748.71" y="1213.46" width="53.02" height="52.62"/><path class="cls-13" d="M748.71,1266.08h45.08v-24.82a27.9,27.9,0,0,0-28-27.8H748.71"/><rect class="cls-13" x="801.73" y="1213.46" width="53.02" height="52.62"/><path class="cls-13" d="M801.73,1266.08h45.08v-24.82a27.9,27.9,0,0,0-28-27.8H801.73"/><rect class="cls-13" x="854.75" y="1213.46" width="53.02" height="52.62"/><path class="cls-13" d="M854.75,1266.08h45.08v-24.82a27.9,27.9,0,0,0-28-27.8H854.75"/><rect class="cls-13" x="907.77" y="1213.46" width="53.02" height="52.62"/><path class="cls-13" d="M907.77,1266.08h45.08v-24.82a27.9,27.9,0,0,0-28-27.8H907.77"/><rect class="cls-13" x="960.79" y="1213.46" width="53.02" height="52.62"/><path class="cls-13" d="M960.79,1266.08h45.08v-24.82a27.9,27.9,0,0,0-28-27.8H960.79"/><rect class="cls-13" x="1225.89" y="1213.46" width="53.02" height="52.62" transform="translate(2504.8 2479.54) rotate(-180)"/><path class="cls-13" d="M1278.91,1213.46h-17.07a27.91,27.91,0,0,0-28,27.8v24.82h45.08"/><rect class="cls-13" x="1172.87" y="1213.46" width="53.02" height="52.62" transform="translate(2398.76 2479.54) rotate(-180)"/><path class="cls-13" d="M1225.89,1213.46h-17.07a27.91,27.91,0,0,0-28,27.8v24.82h45.08"/><rect class="cls-13" x="1119.85" y="1213.46" width="53.02" height="52.62" transform="translate(2292.72 2479.54) rotate(-180)"/><path class="cls-13" d="M1172.87,1213.46H1155.8a27.91,27.91,0,0,0-28,27.8v24.82h45.08"/><rect class="cls-13" x="1066.83" y="1213.46" width="53.02" height="52.62" transform="translate(2186.68 2479.54) rotate(-180)"/><path class="cls-13" d="M1119.85,1213.46h-17.07a27.91,27.91,0,0,0-28,27.8v24.82h45.08"/><rect class="cls-13" x="1013.81" y="1213.46" width="53.02" height="52.62" transform="translate(2080.64 2479.54) rotate(-180)"/><path class="cls-13" d="M1066.83,1213.46h-17.07a27.91,27.91,0,0,0-28,27.8v24.82h45.08"/><rect class="cls-13" x="748.71" y="1279.73" width="53.02" height="52.62"/><path class="cls-13" d="M748.71,1332.35h45.08v-24.82a27.9,27.9,0,0,0-28-27.8H748.71"/><rect class="cls-13" x="801.73" y="1279.73" width="53.02" height="52.62"/><path class="cls-13" d="M801.73,1332.35h45.08v-24.82a27.9,27.9,0,0,0-28-27.8H801.73"/><path class="cls-13" d="M812.55,1346h17.07a27.9,27.9,0,0,1,28,27.8V1394"/><path class="cls-13" d="M872.15,1346h17.07a27.9,27.9,0,0,1,28,27.8v24.6"/><rect class="cls-13" x="854.75" y="1279.73" width="53.02" height="52.62"/><path class="cls-13" d="M854.75,1332.35h45.08v-24.82a27.9,27.9,0,0,0-28-27.8H854.75"/><rect class="cls-13" x="907.77" y="1279.73" width="53.02" height="52.62"/><path class="cls-13" d="M907.77,1332.35h45.08v-24.82a27.9,27.9,0,0,0-28-27.8H907.77"/><rect class="cls-13" x="960.79" y="1279.73" width="53.02" height="52.62"/><path class="cls-13" d="M960.79,1332.35h45.08v-24.82a27.9,27.9,0,0,0-28-27.8H960.79"/><rect class="cls-13" x="1225.89" y="1279.73" width="53.02" height="52.62" transform="translate(2504.8 2612.09) rotate(-180)"/><path class="cls-13" d="M1278.91,1279.73h-17.07a27.91,27.91,0,0,0-28,27.8v24.82h45.08"/><rect class="cls-13" x="1172.87" y="1279.73" width="53.02" height="52.62" transform="translate(2398.76 2612.09) rotate(-180)"/><path class="cls-13" d="M1225.89,1279.73h-17.07a27.91,27.91,0,0,0-28,27.8v24.82h45.08"/><rect class="cls-13" x="1119.85" y="1279.73" width="53.02" height="52.62" transform="translate(2292.72 2612.09) rotate(-180)"/><path class="cls-13" d="M1172.87,1279.73H1155.8a27.91,27.91,0,0,0-28,27.8v24.82h45.08"/><rect class="cls-13" x="1066.83" y="1279.73" width="53.02" height="52.62" transform="translate(2186.68 2612.09) rotate(-180)"/><path class="cls-13" d="M1119.85,1279.73h-17.07a27.91,27.91,0,0,0-28,27.8v24.82h45.08"/><rect class="cls-13" x="1013.81" y="1279.73" width="53.02" height="52.62" transform="translate(2080.64 2612.09) rotate(-180)"/><path class="cls-13" d="M1066.83,1279.73h-17.07a27.91,27.91,0,0,0-28,27.8v24.82h45.08"/><rect class="cls-15" x="743.88" y="1199.81" width="540.06" height="13.65" rx="6.82"/><rect class="cls-15" x="743.88" y="1133.54" width="540.06" height="13.65" rx="6.82"/><rect class="cls-15" x="743.88" y="1266.09" width="540.06" height="13.65" rx="6.82"/><rect class="cls-15" x="743.88" y="1332.36" width="540.06" height="13.65" rx="6.82"/><path class="cls-15" d="M802.07,1346c0,26.61,14.41,41.86,40.7,46,40.67,6.37,101.92,8.23,181.39,8"/><line class="cls-15" x1="924.85" y1="1398.7" x2="924.85" y2="1346.01"/><line class="cls-15" x1="864.53" y1="1394.78" x2="864.53" y2="1346.01"/><path class="cls-13" d="M1170.33,1394V1373.8a27.9,27.9,0,0,1,28-27.8h17.07"/><path class="cls-13" d="M1110.73,1398.4v-24.6a27.9,27.9,0,0,1,28-27.8h17.07"/><path class="cls-15" d="M1225.89,1346c0,26.61-14.41,41.86-40.7,46-40.67,6.37-101.92,8.23-181.39,8"/><line class="cls-15" x1="1103.11" y1="1346.01" x2="1103.11" y2="1398.7"/><line class="cls-15" x1="1163.43" y1="1346.01" x2="1163.43" y2="1394.78"/><circle class="cls-1" cx="743.88" cy="1046.8" r="7.19"/><path class="cls-9" d="M736.69,1104a5.93,5.93,0,1,1,5.93-5.93A5.94,5.94,0,0,1,736.69,1104Zm0-10.07a4.14,4.14,0,1,0,4.14,4.14A4.15,4.15,0,0,0,736.69,1094Z"/><path class="cls-9" d="M736.69,1120.19a5.94,5.94,0,1,1,5.93-5.93A5.94,5.94,0,0,1,736.69,1120.19Zm0-10.07a4.14,4.14,0,1,0,4.14,4.14A4.14,4.14,0,0,0,736.69,1110.12Z"/><path class="cls-9" d="M736.69,1136.35a5.93,5.93,0,1,1,5.93-5.93A5.94,5.94,0,0,1,736.69,1136.35Zm0-10.07a4.14,4.14,0,1,0,4.14,4.14A4.15,4.15,0,0,0,736.69,1126.28Z"/><path class="cls-9" d="M736.69,1168.68a5.93,5.93,0,1,1,5.93-5.93A5.94,5.94,0,0,1,736.69,1168.68Zm0-10.07a4.14,4.14,0,1,0,4.14,4.14A4.15,4.15,0,0,0,736.69,1158.61Z"/><path class="cls-9" d="M736.69,1184.85a5.94,5.94,0,1,1,5.93-5.93A5.94,5.94,0,0,1,736.69,1184.85Zm0-10.07a4.14,4.14,0,1,0,4.14,4.14A4.14,4.14,0,0,0,736.69,1174.78Z"/><path class="cls-16" d="M918.05,1077.65a.77.77,0,0,1,0,.95l-8.88,11.19L903,1097.6a.76.76,0,0,1-.6.29H885.84a.76.76,0,0,1-.6-1.24l14.31-18.05a.77.77,0,0,0,0-.95l-14.32-18.05a.76.76,0,0,1,.6-1.24h16.55a.76.76,0,0,1,.6.29l6.19,7.81Z"/><path class="cls-16" d="M885,1077.65a.77.77,0,0,1,0,.95l-8.88,11.19L870,1097.6a.76.76,0,0,1-.6.29H852.81a.76.76,0,0,1-.6-1.24l14.31-18.05a.77.77,0,0,0,0-.95L852.2,1059.6a.76.76,0,0,1,.6-1.24h16.55a.76.76,0,0,1,.6.29l6.19,7.81Z"/><path class="cls-16" d="M852,1077.65a.77.77,0,0,1,0,.95l-8.88,11.19-6.19,7.81a.76.76,0,0,1-.6.29H819.78a.76.76,0,0,1-.6-1.24l14.31-18.05a.77.77,0,0,0,0-.95l-14.32-18.05a.76.76,0,0,1,.6-1.24h16.55a.76.76,0,0,1,.6.29l6.19,7.81Z"/><path class="cls-16" d="M1111.88,1077.65a.77.77,0,0,0,0,.95l8.87,11.19,6.19,7.81a.79.79,0,0,0,.6.29h16.55a.77.77,0,0,0,.6-1.24l-14.31-18.05a.77.77,0,0,1,0-.95l14.32-18.05a.77.77,0,0,0-.6-1.24h-16.56a.79.79,0,0,0-.6.29l-6.19,7.81Z"/><path class="cls-16" d="M1144.91,1077.65a.77.77,0,0,0,0,.95l8.87,11.19,6.19,7.81a.79.79,0,0,0,.6.29h16.55a.77.77,0,0,0,.6-1.24l-14.31-18.05a.77.77,0,0,1,0-.95l14.32-18.05a.77.77,0,0,0-.6-1.24h-16.56a.79.79,0,0,0-.6.29l-6.19,7.81Z"/><path class="cls-16" d="M1177.94,1077.65a.77.77,0,0,0,0,.95l8.87,11.19,6.19,7.81a.79.79,0,0,0,.6.29h16.55a.77.77,0,0,0,.6-1.24l-14.31-18.05a.77.77,0,0,1,0-.95l14.32-18.05a.77.77,0,0,0-.6-1.24H1193.6a.79.79,0,0,0-.6.29l-6.19,7.81Z"/><path class="cls-10" d="M944.82,608.91V582.67h3.47v23.14h12.92v3.1Z"/><path class="cls-10" d="M965.94,608.91V582.67h3.47v26.24Z"/><path class="cls-10" d="M975.39,608.91V582.67h3.47v23.14h12.93v3.1Z"/><path class="cls-10" d="M1000.6,608.91V597.79l-10.12-15.12h4.23l5.17,7.91q1.43,2.22,2.67,4.44c.78-1.37,1.74-2.92,2.86-4.64l5.08-7.71h4l-10.47,15.12v11.12Z"/><path class="cls-10" d="M1029.93,598.62v-3.08l11.12,0v9.74a19.85,19.85,0,0,1-5.28,3.07,15.79,15.79,0,0,1-5.58,1,14.85,14.85,0,0,1-7-1.66,10.88,10.88,0,0,1-4.77-4.79,15,15,0,0,1-1.61-7,16.24,16.24,0,0,1,1.6-7.15,10.63,10.63,0,0,1,4.61-4.93,14.47,14.47,0,0,1,6.93-1.61,13.8,13.8,0,0,1,5.14.92,8.53,8.53,0,0,1,3.61,2.57,11.52,11.52,0,0,1,2,4.3l-3.14.86a9.81,9.81,0,0,0-1.46-3.16,6.07,6.07,0,0,0-2.51-1.83,9.2,9.2,0,0,0-3.62-.69,10.48,10.48,0,0,0-4.11.73,7.58,7.58,0,0,0-2.8,1.9,9.12,9.12,0,0,0-1.66,2.6,13.68,13.68,0,0,0-1,5.28,12.86,12.86,0,0,0,1.2,5.87,7.72,7.72,0,0,0,3.52,3.51,11,11,0,0,0,4.91,1.14,11.61,11.61,0,0,0,4.4-.86,11.35,11.35,0,0,0,3.26-1.86v-4.88Z"/><path class="cls-10" d="M1045.11,596.13q0-6.54,3.51-10.23a11.92,11.92,0,0,1,9.06-3.7,12.53,12.53,0,0,1,6.55,1.74,11.32,11.32,0,0,1,4.45,4.84,15.73,15.73,0,0,1,1.53,7,15.52,15.52,0,0,1-1.61,7.15,11,11,0,0,1-4.56,4.77,13.07,13.07,0,0,1-6.38,1.62,12.42,12.42,0,0,1-6.62-1.79,11.48,11.48,0,0,1-4.42-4.89A14.84,14.84,0,0,1,1045.11,596.13Zm3.58,0a10.54,10.54,0,0,0,2.56,7.48,8.89,8.89,0,0,0,12.85,0q2.54-2.76,2.53-7.82a13.51,13.51,0,0,0-1.08-5.6,8.28,8.28,0,0,0-3.17-3.7,8.57,8.57,0,0,0-4.68-1.32,8.93,8.93,0,0,0-6.35,2.53Q1048.7,590.25,1048.69,596.18Z"/><path class="cls-10" d="M990.05,1421.1v-4.57h2a2.75,2.75,0,0,1,.93.12,1,1,0,0,1,.51.44,1.23,1.23,0,0,1,.19.69,1.16,1.16,0,0,1-.31.82,1.62,1.62,0,0,1-1,.42,1.32,1.32,0,0,1,.37.23,2.86,2.86,0,0,1,.5.61l.8,1.24h-.76l-.61-.95c-.18-.27-.32-.48-.44-.63a1.27,1.27,0,0,0-.3-.31,1.13,1.13,0,0,0-.28-.12l-.34,0h-.7v2Zm.6-2.55H992a1.84,1.84,0,0,0,.65-.09.72.72,0,0,0,.36-.27.78.78,0,0,0,.12-.41.68.68,0,0,0-.24-.54,1.07,1.07,0,0,0-.74-.21h-1.45Z"/><path class="cls-10" d="M991.8,1422.71a3.74,3.74,0,1,1,3.74-3.74A3.74,3.74,0,0,1,991.8,1422.71Zm0-6.94A3.21,3.21,0,1,0,995,1419,3.21,3.21,0,0,0,991.8,1415.77Z"/><polyline class="cls-12" points="1101.56 1065.39 1111.5 1065.39 1123.2 1051.99 1217.31 1051.99 1245.51 1093.92 1286.27 1093.92"/><polyline class="cls-12" points="927.7 1065.39 917.75 1065.39 906.06 1051.99 811.95 1051.99 783.75 1093.92 764.44 1093.92"/><polyline class="cls-12" points="985.94 1365.91 985.94 1373.8 1042.55 1373.8 1042.55 1365.91"/><path class="cls-17" d="M1266.42,1247.22H1252.5a1.86,1.86,0,0,1-1.19-.44l-5.61-4.67a3,3,0,0,1,0-4.67l5.61-4.68a1.85,1.85,0,0,1,1.19-.43h13.92a1.72,1.72,0,0,1,1.71,1.72v11.45A1.72,1.72,0,0,1,1266.42,1247.22Z"/><line class="cls-17" x1="1254.51" y1="1235.71" x2="1262.65" y2="1243.84"/><line class="cls-17" x1="1262.65" y1="1235.71" x2="1254.51" y2="1243.84"/><path class="cls-18" d="M1261.8,1296.61v6.25a7.19,7.19,0,0,1-7.19,7.19h-7.39l2.9-3.14v6.23l-2.9-3.09"/><path class="cls-10" d="M1249.84,1308s.34,3.83,0,3.83a9.67,9.67,0,0,1-2-1.42v-.91Z"/></g></svg>