<?xml version="1.0" encoding="UTF-8"?><svg id="Layer_1" xmlns="http://www.w3.org/2000/svg" viewBox="0 0 206.97 481.72"><defs><style>.cls-1,.cls-2,.cls-3,.cls-4,.cls-5,.cls-6,.cls-7,.cls-8,.cls-9,.cls-10,.cls-11{stroke-linecap:round;stroke-linejoin:round;}.cls-1,.cls-2,.cls-3,.cls-6,.cls-8,.cls-10,.cls-11{fill:#ccc;}.cls-1,.cls-11{stroke:#999;stroke-width:2px;}.cls-2,.cls-3,.cls-4,.cls-5,.cls-6,.cls-7,.cls-8,.cls-9,.cls-10{stroke:#000;}.cls-2,.cls-4,.cls-5{stroke-width:1.5px;}.cls-2,.cls-4,.cls-8,.cls-9,.cls-12,.cls-13,.cls-11{fill-rule:evenodd;}.cls-3,.cls-8{stroke-width:1px;}.cls-4{fill:#242424;}.cls-6,.cls-7{stroke-width:.5px;}.cls-7{fill:#999;}.cls-9{fill:#fff;stroke-width:.75px;}.cls-10{stroke-width:.22px;}.cls-12,.cls-13,.cls-14,.cls-15{stroke-width:0px;}.cls-12,.cls-15{fill:#00afef;}.cls-13,.cls-14{fill:#b7b7b7;}</style></defs><path class="cls-2" d="M97.84,232.81h91.76c9.14,0,16.62,7.48,16.62,16.62v214.92c0,9.14-7.48,16.62-16.62,16.62H17.37c-9.14,0-16.62-7.48-16.62-16.62v-154.84c0-9.14,7.48-16.62,16.62-16.62h51.48c8.68,0,12.45-2.57,12.45-14.56v-28.98c0-9.14,7.4-16.54,16.54-16.54Z"/><path class="cls-4" d="M135.52,201.13h66.32v21.47c0,.38-.31.69-.69.69h-64.94c-.38,0-.69-.31-.69-.69v-21.47Z"/><polygon class="cls-4" points="201.84 201.13 194.29 182.05 143.47 182.05 135.52 201.13 201.84 201.13"/><polygon class="cls-4" points="168.68 182.05 194.33 182.05 194.33 .75 143.03 .75 143.03 182.05 168.68 182.05"/><path class="cls-4" d="M168.68,19.05c-8.57.07-22.61.49-25.65,2.54,0,0-1.61,6.89,0,11.41,0,0,13.59-1.34,25.65-1.34s25.65,1.34,25.65,1.34c1.61-4.52,0-11.41,0-11.41-3.05-2.04-17.08-2.47-25.65-2.54Z"/><rect class="cls-3" x="7.06" y="305.93" width="193.13" height="171.26" rx="22.77" ry="22.77"/><rect class="cls-6" x="50.31" y="330.36" width="122.74" height="121.76" rx="10.5" ry="10.5"/><path class="cls-7" d="M66.49,335.98h90.38c5.2,0,9.41,4.22,9.41,9.41v91.69c0,5.2-4.22,9.41-9.41,9.41h-90.38c-5.2,0-9.41-4.22-9.41-9.41v-91.69c0-5.2,4.22-9.41,9.41-9.41Z"/><path class="cls-2" d="M96.65,232.86h19.83v-2.85c0-.4-.32-.72-.72-.72h-18.38c-.4,0-.72.32-.72.72v2.85Z"/><rect class="cls-10" x="92.66" y="239.37" width="102.73" height="58.83" rx="2.83" ry="2.83"/><rect class="cls-5" x="99.69" y="245.56" width="88.66" height="46.46"/><path class="cls-2" d="M138.06,232.81h51.53c3.1,0,6,.86,8.49,2.35v-7.04c0-2-1.02-3.78-2.56-4.83h-54.9c-1.54,1.06-2.56,2.83-2.56,4.83v4.69Z"/><path class="cls-2" d="M67.74,292.89H29.51v-2.73c0-1.5,1.23-2.73,2.73-2.73h32.76c1.5,0,2.73,1.23,2.73,2.73v2.73Z"/><path class="cls-11" d="M44.05,329.75c3.68,0,6.68-3,6.68-6.68s-3-6.68-6.68-6.68-6.68,3-6.68,6.68,3,6.68,6.68,6.68Z"/><path class="cls-11" d="M181.27,329.75c3.68,0,6.68-3,6.68-6.68s-3-6.68-6.68-6.68-6.68,3-6.68,6.68,3,6.68,6.68,6.68Z"/><path class="cls-11" d="M44.05,466.27c3.68,0,6.68-3,6.68-6.68s-3-6.68-6.68-6.68-6.68,3-6.68,6.68,3,6.68,6.68,6.68Z"/><circle class="cls-1" cx="181.27" cy="459.59" r="6.68"/><polygon class="cls-12" points="108.38 262.94 108.38 274.8 114.94 274.8 114.94 276.94 105.81 276.94 105.81 262.94 108.38 262.94"/><rect class="cls-15" x="117.34" y="262.94" width="2.57" height="14"/><polygon class="cls-12" points="125.83 262.94 125.83 274.8 132.38 274.8 132.38 276.94 123.25 276.94 123.25 262.94 125.83 262.94"/><polygon class="cls-12" points="137.09 268.97 140.83 262.94 143.67 262.94 138.36 271.3 138.36 276.94 135.79 276.94 135.79 271.3 130.48 262.94 133.33 262.94 137.06 268.97 137.09 268.97"/><path class="cls-12" d="M153.84,271.58h-3.14v-2.14h5.71v7.07c-.21.08-.47.16-.8.24-.33.08-.69.16-1.09.23-.4.07-.81.12-1.24.16-.43.04-.85.06-1.26.06-1.26,0-2.35-.17-3.29-.51-.94-.34-1.72-.82-2.34-1.43-.63-.61-1.09-1.35-1.4-2.19-.31-.85-.46-1.79-.46-2.81,0-.73.08-1.42.25-2.08.16-.66.41-1.27.73-1.83.32-.56.71-1.07,1.16-1.52.45-.45.98-.84,1.56-1.16.58-.32,1.22-.56,1.92-.74.69-.17,1.44-.26,2.23-.26.7,0,1.38.05,2.01.15.63.1,1.15.23,1.56.37v2.16c-.54-.17-1.09-.3-1.65-.38-.55-.09-1.11-.13-1.68-.13-.76,0-1.47.11-2.14.34-.66.23-1.24.56-1.72,1.01-.49.44-.87.99-1.15,1.64-.28.65-.42,1.4-.42,2.25,0,1.65.44,2.9,1.29,3.73.86.83,2.07,1.24,3.64,1.24.29,0,.6-.01.91-.05.31-.03.59-.07.83-.12v-3.28Z"/><path class="cls-12" d="M169.93,269.93c0-.85-.1-1.6-.31-2.24-.21-.64-.5-1.17-.87-1.6-.37-.43-.81-.74-1.31-.95s-1.06-.31-1.67-.31-1.16.1-1.67.31-.95.53-1.31.95c-.37.43-.66.96-.87,1.6-.21.64-.31,1.38-.31,2.24s.1,1.6.31,2.24c.21.64.5,1.17.87,1.59.37.42.81.74,1.31.95.51.21,1.06.32,1.67.32s1.17-.11,1.67-.32c.51-.21.95-.53,1.31-.95.37-.43.66-.95.87-1.59.21-.64.31-1.39.31-2.24h0ZM172.58,269.93c0,1.07-.15,2.05-.45,2.94-.3.89-.75,1.66-1.33,2.3-.58.64-1.3,1.14-2.15,1.5-.85.35-1.81.53-2.89.53s-2.05-.18-2.89-.53c-.85-.36-1.57-.86-2.15-1.5-.58-.64-1.03-1.41-1.33-2.3-.3-.89-.46-1.87-.46-2.94s.15-2.05.46-2.94c.3-.89.75-1.66,1.33-2.3.58-.64,1.3-1.14,2.15-1.5.85-.35,1.81-.53,2.89-.53s2.05.18,2.89.53c.85.36,1.57.86,2.15,1.5.58.64,1.03,1.41,1.33,2.3.3.89.45,1.87.45,2.94Z"/><path class="cls-12" d="M180.07,263.91c0,.22-.06.4-.18.55-.12.15-.3.26-.56.33h0s.93,1.28.93,1.28h-.68l-.84-1.2h-.39v1.2h-.57v-3.1h.94c.16,0,.3,0,.44.03.13.02.25.04.34.08.18.07.32.17.42.31.1.14.15.31.15.52h0ZM179.02,261.32c-.89,0-1.69.36-2.27.94-.58.58-.94,1.39-.94,2.27s.35,1.67.92,2.25l.02.02c.58.58,1.39.94,2.27.94s1.69-.36,2.27-.94c.58-.58.94-1.39.94-2.27s-.36-1.69-.94-2.27c-.58-.58-1.39-.94-2.27-.94h0ZM180.75,262.81c-.44-.44-1.05-.71-1.73-.71s-1.29.27-1.73.71c-.44.44-.71,1.05-.71,1.73s.27,1.27.7,1.71l.02.02c.44.44,1.05.71,1.73.71s1.28-.27,1.73-.71c.44-.44.71-1.05.71-1.73s-.27-1.28-.71-1.73h0ZM178.63,264.41c.13,0,.24,0,.33-.02.09-.01.17-.03.23-.05.11-.04.19-.1.24-.18.04-.07.07-.16.07-.26,0-.08-.02-.16-.05-.22-.03-.06-.09-.11-.18-.15-.05-.03-.12-.04-.2-.05-.08-.01-.18-.02-.3-.02h-.4v.95h.28Z"/><polygon class="cls-13" points="22.89 342.21 42.82 342.21 42.82 344.85 25.23 344.85 25.23 354.65 22.89 354.65 22.89 342.21"/><rect class="cls-14" x="22.89" y="359.51" width="19.94" height="2.65"/><polygon class="cls-13" points="22.89 367.95 42.82 367.95 42.82 370.6 25.23 370.6 25.23 380.4 22.89 380.4 22.89 367.95"/><path class="cls-13" d="M22.89,388.37h8.45l11.49-7.69v3.17l-6.03,3.94c-1.12.73-2.24,1.42-3.36,2.04,1.04.61,2.21,1.35,3.51,2.2l5.88,3.86v3.08l-11.49-7.96h-8.45v-2.65Z"/><path class="cls-13" d="M30.71,411.91h2.34v8.44h-7.39c-1.03-1.29-1.81-2.63-2.33-4.01-.52-1.38-.78-2.79-.78-4.24,0-1.96.42-3.74,1.26-5.34.84-1.6,2.05-2.81,3.63-3.62,1.59-.82,3.36-1.23,5.31-1.23s3.75.4,5.43,1.22c1.68.81,2.93,1.98,3.74,3.5.82,1.52,1.23,3.28,1.23,5.26,0,1.44-.23,2.74-.7,3.91-.47,1.16-1.12,2.08-1.95,2.74-.83.66-1.93,1.16-3.27,1.51l-.65-2.38c1.01-.3,1.81-.67,2.39-1.11.58-.45,1.04-1.08,1.39-1.9.35-.82.52-1.74.52-2.74,0-1.2-.19-2.24-.55-3.12-.37-.88-.85-1.58-1.45-2.13-.6-.54-1.26-.96-1.97-1.25-1.24-.51-2.58-.76-4.02-.76-1.78,0-3.27.31-4.47.91-1.2.61-2.09,1.5-2.67,2.67-.58,1.17-.87,2.41-.87,3.72,0,1.14.22,2.26.66,3.34.45,1.09.91,1.91,1.42,2.47h3.74v-5.85Z"/><path class="cls-13" d="M32.59,424.69c3.3,0,5.89.89,7.76,2.67,1.87,1.78,2.8,4.07,2.8,6.88,0,1.84-.44,3.5-1.32,4.98-.88,1.48-2.1,2.6-3.68,3.38-1.57.77-3.35,1.16-5.34,1.16s-3.83-.41-5.42-1.23c-1.6-.82-2.8-1.97-3.62-3.47-.82-1.5-1.23-3.11-1.23-4.84,0-1.88.45-3.55,1.36-5.04.91-1.48,2.14-2.6,3.71-3.36,1.56-.76,3.22-1.14,4.97-1.14h0ZM32.55,427.42c-2.4,0-4.29.65-5.67,1.94-1.38,1.29-2.07,2.91-2.07,4.86s.7,3.62,2.09,4.9c1.39,1.28,3.37,1.92,5.93,1.92,1.62,0,3.03-.27,4.24-.82,1.21-.55,2.14-1.35,2.81-2.4.66-1.06,1-2.24,1-3.56,0-1.87-.64-3.47-1.92-4.82-1.28-1.35-3.42-2.02-6.41-2.02Z"/><path class="cls-8" d="M7.06,338.45h-1.67c-.92,0-1.67.75-1.67,1.67v11.46c0,.92.75,1.67,1.67,1.67h1.67v-14.79Z"/><path class="cls-8" d="M7.06,438.01h-1.67c-.92,0-1.67.75-1.67,1.67v11.46c0,.92.75,1.67,1.67,1.67h1.67v-14.79Z"/><path class="cls-8" d="M200.2,338.45h1.67c.92,0,1.67.75,1.67,1.67v11.46c0,.92-.75,1.67-1.67,1.67h-1.67v-14.79Z"/><path class="cls-8" d="M200.2,438.01h1.67c.92,0,1.67.75,1.67,1.67v11.46c0,.92-.75,1.67-1.67,1.67h-1.67v-14.79Z"/><path class="cls-9" d="M181.07,394.74c1.93,0,3.51-1.57,3.51-3.51s-1.57-3.51-3.51-3.51-3.51,1.57-3.51,3.51,1.57,3.51,3.51,3.51Z"/><path class="cls-9" d="M190.07,394.74c1.93,0,3.51-1.57,3.51-3.51s-1.57-3.51-3.51-3.51-3.51,1.57-3.51,3.51,1.57,3.51,3.51,3.51Z"/></svg>