<svg xmlns="http://www.w3.org/2000/svg" viewBox="733.42 451.82 573.87 931.48"><defs><style>.cls-1{fill:#8e8d8e;}.cls-2{fill:#383839;}.cls-3{fill:#cccccb;}.cls-4{fill:#222226;}.cls-5,.cls-6{fill:none;stroke:#050606;stroke-miterlimit:10;}.cls-5{stroke-width:1.87px;}.cls-6{stroke-width:3.77px;}.cls-7{fill:#4c4c4d;}</style></defs><g id="Layer_4" data-name="Layer 4"><path class="cls-1" d="M1277.27,847.59h4.35a8.09,8.09,0,0,1,8.09,8.08v138a8.09,8.09,0,0,1-8.09,8.09h-4.35"></path><path class="cls-1" d="M1277.27,732.73h18a10.14,10.14,0,0,1,10.14,10.14v43A10.14,10.14,0,0,1,1295.26,796h-18a0,0,0,0,1,0,0V732.73A0,0,0,0,1,1277.27,732.73Z"></path><path class="cls-2" d="M1256.49,1200.6h0a14.19,14.19,0,0,1-2.83,12.5c-8.13,9.86-19.94,18.58-46,30.75-19.15,9-28.65,16-38.35,29.6a93.15,93.15,0,0,0-8.7,14.61c-6.95,15.17-11.77,44.44-11.77,65.66v3.61a24.09,24.09,0,0,1-24.1,24.09H887.83a24.09,24.09,0,0,1-24.1-24.09v-3.61c0-21.22-4.82-50.49-11.77-65.66a93.15,93.15,0,0,0-8.7-14.61c-9.7-13.63-19.2-20.65-38.35-29.6-26.06-12.17-37.87-20.89-46-30.75a14.22,14.22,0,0,1-2.82-12.5h0"></path><path class="cls-2" d="M756.09,634.53h0a14.19,14.19,0,0,1,2.83-12.5c8.12-9.86,19.93-18.58,46-30.75,19.15-8.95,28.65-16,38.35-29.6a93.15,93.15,0,0,0,8.7-14.61c6.95-15.17,11.77-44.44,11.77-65.66V477.8a24.09,24.09,0,0,1,24.1-24.09h236.92a24.09,24.09,0,0,1,24.1,24.09v3.61c0,21.22,4.82,50.49,11.77,65.66a93.15,93.15,0,0,0,8.7,14.61c9.7,13.63,19.2,20.65,38.35,29.6,26,12.17,37.86,20.89,46,30.75a14.19,14.19,0,0,1,2.83,12.5h0"></path><rect class="cls-3" x="735.31" y="598.25" width="541.96" height="638.99" rx="96.44"></rect><path class="cls-2" d="M1247.38,694.68v446.11a66.63,66.63,0,0,1-66.54,66.56H831.75a66.62,66.62,0,0,1-66.56-66.56V694.68a66.63,66.63,0,0,1,66.56-66.55h349.09A66.64,66.64,0,0,1,1247.38,694.68Z"></path><rect class="cls-4" x="817.71" y="721.76" width="379.03" height="388.6"></rect><path class="cls-5" d="M1247.38,694.68v446.11a66.63,66.63,0,0,1-66.54,66.56H831.75a66.62,66.62,0,0,1-66.56-66.56V694.68a66.63,66.63,0,0,1,66.56-66.55h349.09A66.64,66.64,0,0,1,1247.38,694.68Z"></path><rect class="cls-6" x="735.31" y="598.25" width="541.96" height="638.99" rx="96.44"></rect><path class="cls-6" d="M1256.49,1200.6h0a14.19,14.19,0,0,1-2.83,12.5c-8.13,9.86-19.94,18.58-46,30.75-19.15,9-28.65,16-38.35,29.6a93.15,93.15,0,0,0-8.7,14.61c-6.95,15.17-11.77,44.44-11.77,65.66v3.61a24.09,24.09,0,0,1-24.1,24.09H887.83a24.09,24.09,0,0,1-24.1-24.09v-3.61c0-21.22-4.82-50.49-11.77-65.66a93.15,93.15,0,0,0-8.7-14.61c-9.7-13.63-19.2-20.65-38.35-29.6-26.06-12.17-37.87-20.89-46-30.75a14.22,14.22,0,0,1-2.82-12.5h0"></path><path class="cls-6" d="M756.09,634.53h0a14.19,14.19,0,0,1,2.83-12.5c8.12-9.86,19.93-18.58,46-30.75,19.15-8.95,28.65-16,38.35-29.6a93.15,93.15,0,0,0,8.7-14.61c6.95-15.17,11.77-44.44,11.77-65.66V477.8a24.09,24.09,0,0,1,24.1-24.09h236.92a24.09,24.09,0,0,1,24.1,24.09v3.61c0,21.22,4.82,50.49,11.77,65.66a93.15,93.15,0,0,0,8.7,14.61c9.7,13.63,19.2,20.65,38.35,29.6,26,12.17,37.86,20.89,46,30.75a14.19,14.19,0,0,1,2.83,12.5h0"></path><rect class="cls-5" x="817.71" y="721.76" width="379.03" height="388.6"></rect><path class="cls-6" d="M1277.27,847.59h4.35a8.09,8.09,0,0,1,8.09,8.08v138a8.09,8.09,0,0,1-8.09,8.09h-4.35"></path><path class="cls-6" d="M1277.27,732.73h18a10.14,10.14,0,0,1,10.14,10.14v43A10.14,10.14,0,0,1,1295.26,796h-18a0,0,0,0,1,0,0V732.73A0,0,0,0,1,1277.27,732.73Z"></path><circle class="cls-7" cx="1083.08" cy="1177.35" r="16.6"></circle><rect class="cls-2" x="1280.24" y="739.77" width="16.77" height="4.59" rx="2.29"></rect><rect class="cls-2" x="1280.24" y="750.91" width="16.77" height="4.59" rx="2.29"></rect><rect class="cls-2" x="1280.24" y="762.06" width="16.77" height="4.59" rx="2.29"></rect><rect class="cls-2" x="1280.24" y="773.2" width="16.77" height="4.59" rx="2.29"></rect><rect class="cls-2" x="1280.24" y="784.34" width="16.77" height="4.59" rx="2.29"></rect></g></svg>