<svg xmlns="http://www.w3.org/2000/svg" viewBox="499.98 424.28 1208.25 951.63"><defs><style>.cls-1{fill:#353535;}.cls-2{fill:#cccccb;}.cls-3{fill:#999;}.cls-4{fill:#c2c1c0;}.cls-5{fill:#282828;}.cls-13,.cls-14,.cls-16,.cls-17,.cls-19,.cls-22,.cls-23,.cls-27,.cls-6,.cls-9{fill:none;stroke-miterlimit:10;}.cls-14,.cls-16,.cls-17,.cls-6{stroke:#fff;}.cls-19,.cls-6{stroke-width:0.67px;}.cls-7{fill:#f3d8a5;}.cls-8{fill:#f2efeb;}.cls-22,.cls-23,.cls-27,.cls-9{stroke:#050606;}.cls-9{stroke-width:1.8px;}.cls-10{fill:#444445;}.cls-11{fill:#050606;}.cls-12{fill:#b0b0b0;}.cls-13{stroke:#b0b0b0;}.cls-13,.cls-14{stroke-width:0.9px;}.cls-15{fill:#a2978d;}.cls-16{stroke-width:0.88px;}.cls-17{stroke-width:0.86px;}.cls-18{fill:#eeebe8;}.cls-19{stroke:#f7d7ba;}.cls-20{fill:#f7d7ba;}.cls-21{fill:#d6b47f;}.cls-22{stroke-width:1.35px;}.cls-23{stroke-width:1.22px;}.cls-24{fill:#232322;}.cls-25{fill:#c08c2d;}.cls-26{fill:#b1a368;}.cls-27{stroke-width:1.78px;}.cls-28{fill:#231f20;}</style></defs><g id="Layer_7" data-name="Layer 7"><rect class="cls-1" x="1261.1" y="1362.69" width="16.22" height="3.56"></rect><rect class="cls-1" x="1333.3" y="1362.69" width="16.22" height="3.56"></rect><path class="cls-2" d="M1702.44,1079.35v283.34H844.65a14.56,14.56,0,0,1-14.57-14.56V1093.92a14.57,14.57,0,0,1,14.57-14.57Z"></path><path class="cls-1" d="M883.25,1326.48h284.65a6,6,0,0,1,6,6v30.25a0,0,0,0,1,0,0H877.29a0,0,0,0,1,0,0v-30.25A6,6,0,0,1,883.25,1326.48Z"></path><path class="cls-1" d="M877.29,1080.08h284.33a12.23,12.23,0,0,1,12.23,12.23v30.58a0,0,0,0,1,0,0H877.29a0,0,0,0,1,0,0v-42.81A0,0,0,0,1,877.29,1080.08Z" transform="translate(2051.14 2202.97) rotate(180)"></path><rect class="cls-1" x="877.29" y="1159.42" width="292.54" height="157.13"></rect><rect class="cls-1" x="1207.54" y="1079.35" width="399.51" height="250.31"></rect><rect class="cls-3" x="1469.94" y="1165.08" width="137.12" height="122.45" rx="1.87"></rect><rect class="cls-4" x="1476.15" y="1169.91" width="124.25" height="112.02"></rect><rect class="cls-5" x="567.59" y="1113.45" width="13.26" height="44.94"></rect><rect class="cls-5" x="500.87" y="503.75" width="77.33" height="6.94"></rect><rect class="cls-5" x="500.87" y="519.57" width="77.33" height="6.94"></rect><path class="cls-6" d="M974,1122.89H889.87a12.59,12.59,0,0,1-12.58-12.59v-31"></path><rect class="cls-4" x="957.17" y="1079.36" width="8.17" height="18.19" transform="translate(1922.52 2176.9) rotate(180)"></rect><rect class="cls-4" x="935.38" y="1079.36" width="8.17" height="18.19" transform="translate(1878.94 2176.9) rotate(180)"></rect><rect class="cls-4" x="913.59" y="1079.36" width="8.17" height="18.19" transform="translate(1835.36 2176.9) rotate(180)"></rect><rect class="cls-4" x="891.8" y="1079.36" width="8.17" height="18.19" transform="translate(1791.78 2176.9) rotate(180)"></rect><circle class="cls-7" cx="961.26" cy="1109.67" r="8"></circle><circle class="cls-8" cx="961.26" cy="1109.67" r="4.09"></circle><circle class="cls-7" cx="939.47" cy="1109.67" r="8"></circle><circle class="cls-8" cx="939.47" cy="1109.67" r="4.09"></circle><circle class="cls-7" cx="917.68" cy="1109.67" r="8"></circle><circle class="cls-8" cx="917.68" cy="1109.67" r="4.09"></circle><circle class="cls-7" cx="895.89" cy="1109.67" r="8"></circle><circle class="cls-8" cx="895.89" cy="1109.67" r="4.09"></circle><rect class="cls-4" x="1153.02" y="1079.36" width="8.17" height="18.19" transform="translate(2314.22 2176.9) rotate(180)"></rect><rect class="cls-4" x="1131.23" y="1079.36" width="8.17" height="18.19" transform="translate(2270.64 2176.9) rotate(180)"></rect><rect class="cls-4" x="1109.44" y="1079.36" width="8.17" height="18.19" transform="translate(2227.06 2176.9) rotate(180)"></rect><rect class="cls-4" x="1087.65" y="1079.36" width="8.17" height="18.19" transform="translate(2183.48 2176.9) rotate(180)"></rect><rect class="cls-4" x="1044.93" y="1079.35" width="8.17" height="12.16"></rect><path class="cls-4" d="M1074.47,1079.35v18.2h-2.26a7.16,7.16,0,0,0-1.51-4.31,6.36,6.36,0,0,0-4.4-1.73v-12.16Z"></path><rect class="cls-4" x="1023.14" y="1079.35" width="8.17" height="12.16"></rect><rect class="cls-4" x="1001.34" y="1079.35" width="8.19" height="12.16"></rect><rect class="cls-4" x="979.56" y="1079.35" width="8.17" height="12.16"></rect><circle class="cls-7" cx="1157.11" cy="1109.67" r="8"></circle><circle class="cls-8" cx="1157.11" cy="1109.67" r="4.09"></circle><circle class="cls-7" cx="1135.32" cy="1109.67" r="8"></circle><circle class="cls-8" cx="1135.32" cy="1109.67" r="4.09"></circle><circle class="cls-7" cx="1113.53" cy="1109.67" r="8"></circle><circle class="cls-8" cx="1113.53" cy="1109.67" r="4.09"></circle><circle class="cls-7" cx="1091.74" cy="1109.67" r="8"></circle><circle class="cls-8" cx="1091.74" cy="1109.67" r="4.09"></circle><rect class="cls-4" x="891.8" y="1338.61" width="8.17" height="24.09"></rect><rect class="cls-4" x="913.59" y="1338.61" width="8.17" height="24.09"></rect><rect class="cls-4" x="935.38" y="1338.61" width="8.17" height="24.09"></rect><rect class="cls-4" x="957.17" y="1338.61" width="8.17" height="24.09"></rect><rect class="cls-4" x="978.96" y="1338.61" width="8.17" height="24.09"></rect><rect class="cls-4" x="1000.75" y="1338.61" width="8.17" height="24.09"></rect><rect class="cls-4" x="1022.54" y="1338.61" width="8.17" height="24.09"></rect><rect class="cls-4" x="1044.33" y="1338.61" width="8.17" height="24.09"></rect><rect class="cls-4" x="1066.12" y="1338.61" width="8.17" height="24.09"></rect><rect class="cls-4" x="1087.92" y="1338.61" width="8.17" height="24.09"></rect><rect class="cls-4" x="1109.71" y="1338.61" width="8.17" height="24.09"></rect><rect class="cls-4" x="1131.5" y="1338.61" width="8.17" height="24.09"></rect><rect class="cls-4" x="1153.29" y="1338.61" width="8.17" height="24.09"></rect><polyline class="cls-9" points="1207.55 1140.39 1207.55 1329.96 1607.06 1329.96 1607.06 1285.66"></polyline><path class="cls-9" d="M1702.44,1192.62v170.07H844.65a14.56,14.56,0,0,1-14.57-14.56V1093.92a14.57,14.57,0,0,1,14.57-14.57h857.79v39"></path><path class="cls-10" d="M1398.65,1079.35v61a1.41,1.41,0,0,1-1.41,1.41h-5.07a1.41,1.41,0,0,1-1.41-1.41V1131a1.41,1.41,0,0,0-1.41-1.41H1258.13a1.41,1.41,0,0,0-1.41,1.41v3.58a1.41,1.41,0,0,1-1.41,1.41h-4.08a1.41,1.41,0,0,1-1.41-1.41V1131a1.41,1.41,0,0,0-1.41-1.41h-33A1.41,1.41,0,0,0,1214,1131v9.36a1.41,1.41,0,0,1-1.4,1.41H1209a1.41,1.41,0,0,1-1.41-1.41v-61Z"></path><path class="cls-9" d="M1398.65,1079.35v61a1.41,1.41,0,0,1-1.41,1.41h-5.07a1.41,1.41,0,0,1-1.41-1.41V1131a1.41,1.41,0,0,0-1.41-1.41H1258.13a1.41,1.41,0,0,0-1.41,1.41v3.58a1.41,1.41,0,0,1-1.41,1.41h-4.08a1.41,1.41,0,0,1-1.41-1.41V1131a1.41,1.41,0,0,0-1.41-1.41h-33A1.41,1.41,0,0,0,1214,1131v9.36a1.41,1.41,0,0,1-1.4,1.41H1209a1.41,1.41,0,0,1-1.41-1.41v-61Z"></path><rect class="cls-4" x="1209.96" y="1081.51" width="6.53" height="13.32" rx="1.84"></rect><rect class="cls-4" x="1389.31" y="1081.51" width="6.53" height="13.32" rx="1.84"></rect><rect class="cls-7" x="1221.1" y="1081.51" width="2.21" height="13.32"></rect><rect class="cls-7" x="1225.61" y="1081.51" width="2.21" height="13.32"></rect><rect class="cls-7" x="1230.13" y="1081.51" width="2.21" height="13.32"></rect><rect class="cls-7" x="1234.65" y="1081.51" width="2.21" height="13.32"></rect><rect class="cls-7" x="1239.17" y="1081.51" width="2.21" height="13.32"></rect><rect class="cls-7" x="1243.69" y="1081.51" width="2.21" height="13.32"></rect><rect class="cls-7" x="1266.28" y="1081.51" width="2.21" height="13.32"></rect><rect class="cls-7" x="1270.79" y="1081.51" width="2.21" height="13.32"></rect><rect class="cls-7" x="1275.31" y="1081.51" width="2.21" height="13.32"></rect><rect class="cls-7" x="1279.83" y="1081.51" width="2.21" height="13.32"></rect><rect class="cls-7" x="1284.35" y="1081.51" width="2.21" height="13.32"></rect><rect class="cls-7" x="1288.87" y="1081.51" width="2.21" height="13.32"></rect><rect class="cls-7" x="1293.38" y="1081.51" width="2.21" height="13.32"></rect><rect class="cls-7" x="1297.9" y="1081.51" width="2.21" height="13.32"></rect><rect class="cls-7" x="1302.42" y="1081.51" width="2.21" height="13.32"></rect><rect class="cls-7" x="1306.94" y="1081.51" width="2.21" height="13.32"></rect><rect class="cls-7" x="1311.46" y="1081.51" width="2.21" height="13.32"></rect><rect class="cls-7" x="1315.97" y="1081.51" width="2.21" height="13.32"></rect><rect class="cls-7" x="1320.49" y="1081.51" width="2.21" height="13.32"></rect><rect class="cls-7" x="1325.01" y="1081.51" width="2.21" height="13.32"></rect><rect class="cls-7" x="1329.53" y="1081.51" width="2.21" height="13.32"></rect><rect class="cls-7" x="1334.04" y="1081.51" width="2.21" height="13.32"></rect><rect class="cls-7" x="1338.56" y="1081.51" width="2.21" height="13.32"></rect><rect class="cls-7" x="1343.08" y="1081.51" width="2.21" height="13.32"></rect><rect class="cls-7" x="1347.6" y="1081.51" width="2.21" height="13.32"></rect><rect class="cls-7" x="1352.12" y="1081.51" width="2.21" height="13.32"></rect><rect class="cls-7" x="1356.63" y="1081.51" width="2.21" height="13.32"></rect><rect class="cls-7" x="1361.15" y="1081.51" width="2.21" height="13.32"></rect><rect class="cls-7" x="1365.67" y="1081.51" width="2.21" height="13.32"></rect><rect class="cls-7" x="1370.19" y="1081.51" width="2.21" height="13.32"></rect><rect class="cls-7" x="1374.71" y="1081.51" width="2.21" height="13.32"></rect><rect class="cls-7" x="1379.22" y="1081.51" width="2.21" height="13.32"></rect><rect class="cls-7" x="1383.74" y="1081.51" width="2.21" height="13.32"></rect><path class="cls-10" d="M1605.3,1079.35v61a1.41,1.41,0,0,1-1.41,1.41h-5.06a1.41,1.41,0,0,1-1.41-1.41V1131a1.41,1.41,0,0,0-1.41-1.41H1464.78a1.41,1.41,0,0,0-1.41,1.41v3.58A1.41,1.41,0,0,1,1462,1136h-4.08a1.41,1.41,0,0,1-1.41-1.41V1131a1.41,1.41,0,0,0-1.41-1.41h-33a1.41,1.41,0,0,0-1.41,1.41v9.36a1.41,1.41,0,0,1-1.41,1.41h-3.61a1.41,1.41,0,0,1-1.41-1.41v-61Z"></path><path class="cls-9" d="M1605.3,1079.35v61a1.41,1.41,0,0,1-1.41,1.41h-5.06a1.41,1.41,0,0,1-1.41-1.41V1131a1.41,1.41,0,0,0-1.41-1.41H1464.78a1.41,1.41,0,0,0-1.41,1.41v3.58A1.41,1.41,0,0,1,1462,1136h-4.08a1.41,1.41,0,0,1-1.41-1.41V1131a1.41,1.41,0,0,0-1.41-1.41h-33a1.41,1.41,0,0,0-1.41,1.41v9.36a1.41,1.41,0,0,1-1.41,1.41h-3.61a1.41,1.41,0,0,1-1.41-1.41v-61Z"></path><rect class="cls-4" x="1416.62" y="1081.51" width="6.53" height="13.32" rx="1.84"></rect><rect class="cls-4" x="1595.97" y="1081.51" width="6.53" height="13.32" rx="1.84"></rect><rect class="cls-7" x="1427.75" y="1081.51" width="2.21" height="13.32"></rect><rect class="cls-7" x="1432.27" y="1081.51" width="2.21" height="13.32"></rect><rect class="cls-7" x="1436.79" y="1081.51" width="2.21" height="13.32"></rect><rect class="cls-7" x="1441.3" y="1081.51" width="2.21" height="13.32"></rect><rect class="cls-7" x="1445.82" y="1081.51" width="2.21" height="13.32"></rect><rect class="cls-7" x="1450.34" y="1081.51" width="2.21" height="13.32"></rect><rect class="cls-7" x="1472.93" y="1081.51" width="2.21" height="13.32"></rect><rect class="cls-7" x="1477.45" y="1081.51" width="2.21" height="13.32"></rect><rect class="cls-7" x="1481.97" y="1081.51" width="2.21" height="13.32"></rect><rect class="cls-7" x="1486.48" y="1081.51" width="2.21" height="13.32"></rect><rect class="cls-7" x="1491" y="1081.51" width="2.21" height="13.32"></rect><rect class="cls-7" x="1495.52" y="1081.51" width="2.21" height="13.32"></rect><rect class="cls-7" x="1500.04" y="1081.51" width="2.21" height="13.32"></rect><rect class="cls-7" x="1504.55" y="1081.51" width="2.21" height="13.32"></rect><rect class="cls-7" x="1509.07" y="1081.51" width="2.21" height="13.32"></rect><rect class="cls-7" x="1513.59" y="1081.51" width="2.21" height="13.32"></rect><rect class="cls-7" x="1518.11" y="1081.51" width="2.21" height="13.32"></rect><rect class="cls-7" x="1522.63" y="1081.51" width="2.21" height="13.32"></rect><rect class="cls-7" x="1527.14" y="1081.51" width="2.21" height="13.32"></rect><rect class="cls-7" x="1531.66" y="1081.51" width="2.21" height="13.32"></rect><rect class="cls-7" x="1536.18" y="1081.51" width="2.21" height="13.32"></rect><rect class="cls-7" x="1540.7" y="1081.51" width="2.21" height="13.32"></rect><rect class="cls-7" x="1545.22" y="1081.51" width="2.21" height="13.32"></rect><rect class="cls-7" x="1549.73" y="1081.51" width="2.21" height="13.32"></rect><rect class="cls-7" x="1554.25" y="1081.51" width="2.21" height="13.32"></rect><rect class="cls-7" x="1558.77" y="1081.51" width="2.21" height="13.32"></rect><rect class="cls-7" x="1563.29" y="1081.51" width="2.21" height="13.32"></rect><rect class="cls-7" x="1567.81" y="1081.51" width="2.21" height="13.32"></rect><rect class="cls-7" x="1572.32" y="1081.51" width="2.21" height="13.32"></rect><rect class="cls-7" x="1576.84" y="1081.51" width="2.21" height="13.32"></rect><rect class="cls-7" x="1581.36" y="1081.51" width="2.21" height="13.32"></rect><rect class="cls-7" x="1585.88" y="1081.51" width="2.21" height="13.32"></rect><rect class="cls-7" x="1590.4" y="1081.51" width="2.21" height="13.32"></rect><path class="cls-4" d="M1707.33,1120.53v69.92a2.17,2.17,0,0,1-2.17,2.17h-60.48v-74.26h60.48A2.17,2.17,0,0,1,1707.33,1120.53Z"></path><path class="cls-9" d="M1707.33,1120.53v69.92a2.17,2.17,0,0,1-2.17,2.17h-60.48v-74.26h60.48A2.17,2.17,0,0,1,1707.33,1120.53Z"></path><line class="cls-9" x1="1614.54" y1="1079.36" x2="1614.54" y2="1362.69"></line><path class="cls-11" d="M1654.8,1132.91V1142a1.48,1.48,0,0,1-1.48,1.47h-.09a1.46,1.46,0,0,1-1.45-1.24l-.88-5.24a1.46,1.46,0,0,0-1.46-1.24h-4.76v-4.29h8.64A1.48,1.48,0,0,1,1654.8,1132.91Z"></path><path class="cls-11" d="M1654.8,1165.38v9.07a1.48,1.48,0,0,1-1.48,1.47h-8.64v-4.29h4.76a1.46,1.46,0,0,0,1.46-1.24l.88-5.26a1.46,1.46,0,0,1,1.45-1.22h.09A1.47,1.47,0,0,1,1654.8,1165.38Z"></path><path class="cls-11" d="M1687.71,1135.15v6.72l11.21,1.63v1.6h-17.73a1.18,1.18,0,0,1-1.18-1.18v-11.3a1.18,1.18,0,0,1,1.18-1.18h17.73v1.81Z"></path><path class="cls-11" d="M1687.71,1166v6.72l11.21,1.63v1.6h-17.73a1.18,1.18,0,0,1-1.18-1.18v-11.31a1.18,1.18,0,0,1,1.18-1.18h17.73v1.82Z"></path><circle class="cls-12" cx="1667.05" cy="1169.91" r="4.83"></circle><circle class="cls-12" cx="1667.05" cy="1138.27" r="4.83"></circle><rect class="cls-12" x="1636.27" y="1126.85" width="6.89" height="2.7" rx="0.43"></rect><rect class="cls-12" x="1636.27" y="1132.09" width="6.89" height="2.7" rx="0.43"></rect><rect class="cls-12" x="1636.27" y="1137.32" width="6.89" height="2.7" rx="0.43"></rect><rect class="cls-12" x="1636.27" y="1142.55" width="6.89" height="2.7" rx="0.43"></rect><rect class="cls-12" x="1636.27" y="1147.78" width="6.89" height="2.7" rx="0.43"></rect><rect class="cls-12" x="1636.27" y="1153.02" width="6.89" height="2.7" rx="0.43"></rect><rect class="cls-12" x="1636.27" y="1158.25" width="6.89" height="2.7" rx="0.43"></rect><rect class="cls-12" x="1636.27" y="1163.48" width="6.89" height="2.7" rx="0.43"></rect><rect class="cls-12" x="1636.27" y="1168.71" width="6.89" height="2.7" rx="0.43"></rect><rect class="cls-12" x="1636.27" y="1173.95" width="6.89" height="2.7" rx="0.43"></rect><rect class="cls-12" x="1636.27" y="1179.18" width="6.89" height="2.7" rx="0.43"></rect><path class="cls-4" d="M1193.48,1321.23V1251.3a2.17,2.17,0,0,1,2.17-2.17h60.47v74.27h-60.47A2.17,2.17,0,0,1,1193.48,1321.23Z"></path><path class="cls-9" d="M1193.48,1321.23V1251.3a2.17,2.17,0,0,1,2.17-2.17h60.47v74.27h-60.47A2.17,2.17,0,0,1,1193.48,1321.23Z"></path><path class="cls-11" d="M1246,1308.85v-9.07a1.48,1.48,0,0,1,1.47-1.47h.09a1.46,1.46,0,0,1,1.46,1.24l.88,5.24a1.46,1.46,0,0,0,1.45,1.24h4.76v4.29h-8.64A1.48,1.48,0,0,1,1246,1308.85Z"></path><path class="cls-11" d="M1246,1276.38v-9.07a1.48,1.48,0,0,1,1.47-1.47h8.64v4.29h-4.76a1.46,1.46,0,0,0-1.45,1.24l-.88,5.26a1.46,1.46,0,0,1-1.46,1.22h-.09A1.47,1.47,0,0,1,1246,1276.38Z"></path><path class="cls-11" d="M1213.09,1306.6v-6.71l-11.2-1.64v-1.6h17.72a1.19,1.19,0,0,1,1.19,1.19v11.3a1.18,1.18,0,0,1-1.19,1.18h-17.72v-1.81Z"></path><path class="cls-11" d="M1213.09,1275.79v-6.72l-11.2-1.63v-1.6h17.72a1.18,1.18,0,0,1,1.19,1.18v11.3a1.18,1.18,0,0,1-1.19,1.18h-17.72v-1.81Z"></path><circle class="cls-12" cx="1233.75" cy="1271.84" r="4.83"></circle><circle class="cls-12" cx="1233.75" cy="1303.49" r="4.83"></circle><rect class="cls-12" x="1257.65" y="1312.21" width="6.89" height="2.7" rx="0.43" transform="translate(2522.19 2627.11) rotate(-180)"></rect><rect class="cls-12" x="1257.65" y="1306.97" width="6.89" height="2.7" rx="0.43" transform="translate(2522.19 2616.64) rotate(-180)"></rect><rect class="cls-12" x="1257.65" y="1301.74" width="6.89" height="2.7" rx="0.43" transform="translate(2522.19 2606.18) rotate(-180)"></rect><rect class="cls-12" x="1257.65" y="1296.51" width="6.89" height="2.7" rx="0.43" transform="translate(2522.19 2595.72) rotate(-180)"></rect><rect class="cls-12" x="1257.65" y="1291.28" width="6.89" height="2.7" rx="0.43" transform="translate(2522.19 2585.25) rotate(-180)"></rect><rect class="cls-12" x="1257.65" y="1286.04" width="6.89" height="2.7" rx="0.43" transform="translate(2522.19 2574.79) rotate(-180)"></rect><rect class="cls-12" x="1257.65" y="1280.81" width="6.89" height="2.7" rx="0.43" transform="translate(2522.19 2564.32) rotate(-180)"></rect><rect class="cls-12" x="1257.65" y="1275.58" width="6.89" height="2.7" rx="0.43" transform="translate(2522.19 2553.86) rotate(-180)"></rect><rect class="cls-12" x="1257.65" y="1270.35" width="6.89" height="2.7" rx="0.43" transform="translate(2522.19 2543.39) rotate(-180)"></rect><rect class="cls-12" x="1257.65" y="1265.12" width="6.89" height="2.7" rx="0.43" transform="translate(2522.19 2532.93) rotate(-180)"></rect><rect class="cls-12" x="1257.65" y="1259.88" width="6.89" height="2.7" rx="0.43" transform="translate(2522.19 2522.46) rotate(-180)"></rect><circle class="cls-12" cx="1676.01" cy="1094.84" r="9.82"></circle><circle class="cls-12" cx="1676.01" cy="1345.21" r="9.82"></circle><rect class="cls-9" x="1469.94" y="1165.08" width="137.12" height="122.45" rx="1.87"></rect><rect class="cls-12" x="1472.2" y="1153.02" width="10.8" height="7.93" rx="1.49"></rect><rect class="cls-12" x="1489.25" y="1153.02" width="10.8" height="7.93" rx="1.49"></rect><rect class="cls-12" x="1506.29" y="1153.02" width="10.8" height="7.93" rx="1.49"></rect><rect class="cls-12" x="1523.33" y="1153.02" width="10.8" height="7.93" rx="1.49"></rect><rect class="cls-12" x="1540.37" y="1153.02" width="10.8" height="7.93" rx="1.49"></rect><rect class="cls-12" x="1557.41" y="1153.02" width="10.8" height="7.93" rx="1.49"></rect><rect class="cls-12" x="1574.45" y="1153.02" width="10.8" height="7.93" rx="1.49"></rect><rect class="cls-12" x="1591.5" y="1153.02" width="10.8" height="7.93" rx="1.49"></rect><rect class="cls-12" x="1472.2" y="1291.66" width="10.8" height="7.93" rx="1.49"></rect><rect class="cls-12" x="1489.25" y="1291.66" width="10.8" height="7.93" rx="1.49"></rect><rect class="cls-12" x="1506.29" y="1291.66" width="10.8" height="7.93" rx="1.49"></rect><rect class="cls-12" x="1523.33" y="1291.66" width="10.8" height="7.93" rx="1.49"></rect><rect class="cls-12" x="1540.37" y="1291.66" width="10.8" height="7.93" rx="1.49"></rect><rect class="cls-12" x="1557.41" y="1291.66" width="10.8" height="7.93" rx="1.49"></rect><rect class="cls-12" x="1574.45" y="1291.66" width="10.8" height="7.93" rx="1.49"></rect><rect class="cls-12" x="1591.5" y="1291.66" width="10.8" height="7.93" rx="1.49"></rect><rect class="cls-13" x="1476.15" y="1169.91" width="124.25" height="112.02"></rect><path class="cls-14" d="M1448.73,1157v-5.28a1.17,1.17,0,0,1,1.15-1.15h8.61a1.17,1.17,0,0,1,1.15,1.15V1157"></path><path class="cls-14" d="M1459.64,1161.45v5.47a1.16,1.16,0,0,1-1.15,1.15h-8.61a1.16,1.16,0,0,1-1.15-1.15v-5.47"></path><rect class="cls-3" x="1451.87" y="1153.76" width="4.79" height="11.32" rx="0.88"></rect><path class="cls-14" d="M1207.77,1157v-5.28a1.17,1.17,0,0,1,1.15-1.15h8.61a1.16,1.16,0,0,1,1.15,1.15V1157"></path><path class="cls-14" d="M1218.68,1161.45v5.47a1.16,1.16,0,0,1-1.15,1.15h-8.61a1.16,1.16,0,0,1-1.15-1.15v-5.47"></path><rect class="cls-3" x="1210.91" y="1153.76" width="4.79" height="11.32" rx="0.88"></rect><path class="cls-14" d="M1358.39,1193.93v-5.28a1.16,1.16,0,0,1,1.15-1.15h8.6a1.16,1.16,0,0,1,1.15,1.15v5.28"></path><path class="cls-14" d="M1369.29,1198.41v5.47a1.16,1.16,0,0,1-1.15,1.15h-8.6a1.16,1.16,0,0,1-1.15-1.15v-5.47"></path><rect class="cls-3" x="1361.52" y="1190.72" width="4.79" height="11.32" rx="0.88"></rect><path class="cls-14" d="M1377.48,1224v-5.28a1.16,1.16,0,0,1,1.15-1.15h8.6a1.16,1.16,0,0,1,1.15,1.15V1224"></path><path class="cls-14" d="M1388.38,1228.44v5.48a1.16,1.16,0,0,1-1.15,1.15h-8.6a1.16,1.16,0,0,1-1.15-1.15v-5.48"></path><rect class="cls-3" x="1380.61" y="1220.75" width="4.79" height="11.32" rx="0.88"></rect><path class="cls-14" d="M1282.16,1270.81h5.28a1.16,1.16,0,0,1,1.15,1.15v8.6a1.16,1.16,0,0,1-1.15,1.15h-5.28"></path><path class="cls-14" d="M1277.69,1281.71h-5.48a1.16,1.16,0,0,1-1.15-1.15V1272a1.16,1.16,0,0,1,1.15-1.15h5.48"></path><path class="cls-3" d="M1275,1273.94h2.74v4.8H1275a.89.89,0,0,1-.89-.88v-3A.89.89,0,0,1,1275,1273.94Z"></path><path class="cls-3" d="M1285.38,1274.82v3a.89.89,0,0,1-.88.88h-2.78v-4.8h2.78A.89.89,0,0,1,1285.38,1274.82Z"></path><path class="cls-14" d="M1271.89,1307.43v5.28a1.16,1.16,0,0,0,1.15,1.15h8.21"></path><path class="cls-14" d="M1271.9,1303v-5.47a1.16,1.16,0,0,1,1.15-1.15h8.6a1.16,1.16,0,0,1,1.15,1.15V1303"></path><path class="cls-3" d="M1279.67,1300.21V1303h-4.79v-2.75a.87.87,0,0,1,.88-.88h3A.87.87,0,0,1,1279.67,1300.21Z"></path><path class="cls-3" d="M1278.79,1310.64h-3a.87.87,0,0,1-.88-.88V1307h4.79v2.78A.87.87,0,0,1,1278.79,1310.64Z"></path><path class="cls-14" d="M1369.13,1229.62h5.28a1.16,1.16,0,0,1,1.15,1.15v8.6a1.16,1.16,0,0,1-1.15,1.15h-5.28"></path><path class="cls-14" d="M1364.65,1240.52h-5.47a1.16,1.16,0,0,1-1.15-1.15v-8.6a1.16,1.16,0,0,1,1.15-1.15h5.47"></path><rect class="cls-3" x="1364.29" y="1229.48" width="4.79" height="11.32" rx="0.88" transform="translate(2601.82 -131.54) rotate(90)"></rect><rect class="cls-14" x="1506.29" y="1307.32" width="31.99" height="20.68" rx="2.01"></rect><rect class="cls-14" x="1431.09" y="1307.32" width="31.99" height="20.68" rx="2.01"></rect><rect class="cls-14" x="1351.31" y="1307.32" width="31.99" height="20.68" rx="2.01"></rect><rect class="cls-14" x="1281.25" y="1305.09" width="64.9" height="22.92"></rect><rect class="cls-14" x="1371.8" y="1155.25" width="17.64" height="8.06" rx="0.85"></rect><path class="cls-3" d="M1374.59,1157.5h3.23a.69.69,0,0,1,.69.69v2.58a0,0,0,0,1,0,0h-4.62a0,0,0,0,1,0,0v-2.58A.69.69,0,0,1,1374.59,1157.5Z" transform="translate(217.07 2535.35) rotate(-90)"></path><path class="cls-3" d="M1383.42,1157.5h3.23a.69.69,0,0,1,.69.69v2.58a0,0,0,0,1,0,0h-4.62a0,0,0,0,1,0,0v-2.58A.69.69,0,0,1,1383.42,1157.5Z" transform="translate(2544.17 -225.9) rotate(90)"></path><rect class="cls-1" x="1378.31" y="1156.83" width="4.62" height="4.62" transform="translate(221.48 2539.76) rotate(-90)"></rect><rect class="cls-6" x="1418.09" y="1263.72" width="13.23" height="6.05" rx="0.64" transform="translate(1313.01 -636.4) rotate(45)"></rect><path class="cls-3" d="M1421.23,1263.1h2.43a.52.52,0,0,1,.52.52v1.93a0,0,0,0,1,0,0h-3.46a0,0,0,0,1,0,0v-1.93A.52.52,0,0,1,1421.23,1263.1Z" transform="translate(-477.39 1376.13) rotate(-45)"></path><path class="cls-3" d="M1425.92,1267.78h2.43a.52.52,0,0,1,.52.52v1.93a0,0,0,0,1,0,0h-3.46a0,0,0,0,1,0,0v-1.93A.52.52,0,0,1,1425.92,1267.78Z" transform="translate(3333.58 1157.2) rotate(135)"></path><rect class="cls-1" x="1423.06" y="1264.93" width="3.46" height="3.46" transform="translate(-478.36 1378.47) rotate(-45)"></rect><rect class="cls-6" x="1378.77" y="1264.41" width="15.31" height="7" rx="0.74" transform="translate(1302.62 -608.99) rotate(45)"></rect><path class="cls-3" d="M1382.41,1263.69h2.81a.6.6,0,0,1,.6.6v2.24a0,0,0,0,1,0,0h-4a0,0,0,0,1,0,0v-2.24A.6.6,0,0,1,1382.41,1263.69Z" transform="translate(-489.26 1349.04) rotate(-45)"></path><path class="cls-3" d="M1387.82,1269.11h2.81a.6.6,0,0,1,.6.6v2.24a0,0,0,0,1,0,0h-4a0,0,0,0,1,0,0v-2.24A.6.6,0,0,1,1387.82,1269.11Z" transform="translate(3269.96 1186.6) rotate(135)"></path><rect class="cls-1" x="1384.52" y="1265.82" width="4.01" height="4.01" transform="translate(-490.38 1351.75) rotate(-45)"></rect><rect class="cls-6" x="1376.64" y="1240.22" width="15.31" height="7" rx="0.74" transform="translate(1284.89 -614.57) rotate(45)"></rect><path class="cls-3" d="M1380.27,1239.5h2.81a.6.6,0,0,1,.6.6v2.24a0,0,0,0,1,0,0h-4a0,0,0,0,1,0,0v-2.24A.6.6,0,0,1,1380.27,1239.5Z" transform="translate(-472.78 1340.45) rotate(-45)"></path><path class="cls-3" d="M1385.69,1244.92h2.81a.6.6,0,0,1,.6.6v2.24a0,0,0,0,1,0,0h-4a0,0,0,0,1,0,0v-2.24A.6.6,0,0,1,1385.69,1244.92Z" transform="translate(3249.21 1146.81) rotate(135)"></path><rect class="cls-15" x="1382.38" y="1241.63" width="4.01" height="4.01" transform="translate(-473.9 1343.16) rotate(-45)"></rect><rect class="cls-6" x="1370.56" y="1246.43" width="15.31" height="7" rx="0.74" transform="translate(1287.51 -608.45) rotate(45)"></rect><path class="cls-3" d="M1374.2,1245.71H1377a.6.6,0,0,1,.6.6v2.24a0,0,0,0,1,0,0h-4a0,0,0,0,1,0,0v-2.24A.6.6,0,0,1,1374.2,1245.71Z" transform="translate(-478.95 1337.97) rotate(-45)"></path><path class="cls-3" d="M1379.61,1251.13h2.81a.6.6,0,0,1,.6.6V1254a0,0,0,0,1,0,0h-4a0,0,0,0,1,0,0v-2.24A.6.6,0,0,1,1379.61,1251.13Z" transform="translate(3243.23 1161.71) rotate(135)"></path><rect class="cls-15" x="1376.31" y="1247.84" width="4.01" height="4.01" transform="translate(-480.07 1340.68) rotate(-45)"></rect><rect class="cls-6" x="1359.65" y="1283.54" width="15.31" height="7" rx="0.74" transform="translate(1310.55 -589.87) rotate(45)"></rect><path class="cls-3" d="M1363.28,1282.82h2.81a.6.6,0,0,1,.6.6v2.24a0,0,0,0,1,0,0h-4a0,0,0,0,1,0,0v-2.24A.6.6,0,0,1,1363.28,1282.82Z" transform="translate(-508.39 1341.12) rotate(-45)"></path><path class="cls-3" d="M1368.7,1288.24h2.81a.6.6,0,0,1,.6.6v2.24a0,0,0,0,1,0,0h-4a0,0,0,0,1,0,0v-2.24A.6.6,0,0,1,1368.7,1288.24Z" transform="translate(3250.83 1232.77) rotate(135)"></path><rect class="cls-1" x="1365.39" y="1284.94" width="4.01" height="4.01" transform="translate(-509.51 1343.83) rotate(-45)"></rect><rect class="cls-6" x="1352.07" y="1291.12" width="15.31" height="7" rx="0.74" transform="translate(1313.69 -582.28) rotate(45)"></rect><path class="cls-3" d="M1355.7,1290.4h2.81a.6.6,0,0,1,.6.6v2.24a0,0,0,0,1,0,0h-4a0,0,0,0,1,0,0V1291A.6.6,0,0,1,1355.7,1290.4Z" transform="translate(-515.97 1337.98) rotate(-45)"></path><path class="cls-3" d="M1361.12,1295.82h2.81a.6.6,0,0,1,.6.6v2.24a0,0,0,0,1,0,0h-4a0,0,0,0,1,0,0v-2.24A.6.6,0,0,1,1361.12,1295.82Z" transform="translate(3243.25 1251.08) rotate(135)"></path><rect class="cls-1" x="1357.81" y="1292.53" width="4.01" height="4.01" transform="translate(-517.09 1340.69) rotate(-45)"></rect><path class="cls-6" d="M1355,1307.33l-8.89-8.89a.73.73,0,0,1,0-1l3.89-3.9a.74.74,0,0,1,1,0l9.78,9.79a.73.73,0,0,1,0,1l-3,3"></path><path class="cls-3" d="M1349.45,1296.65h2.81a.6.6,0,0,1,.6.6v2.24a0,0,0,0,1,0,0h-4a0,0,0,0,1,0,0v-2.24a.6.6,0,0,1,.6-.6Z" transform="translate(-522.22 1335.39) rotate(-45)"></path><path class="cls-3" d="M1354.87,1302.07h2.81a.6.6,0,0,1,.6.6v2.24a0,0,0,0,1,0,0h-4a0,0,0,0,1,0,0v-2.24A.6.6,0,0,1,1354.87,1302.07Z" transform="translate(3237.01 1266.16) rotate(135)"></path><rect class="cls-1" x="1351.56" y="1298.77" width="4.01" height="4.01" transform="translate(-523.34 1338.1) rotate(-45)"></rect><rect class="cls-6" x="1366.26" y="1271.18" width="15.31" height="7" rx="0.74" transform="translate(3246.75 1204.5) rotate(135)"></rect><path class="cls-3" d="M1375.31,1270.64h2.81a.6.6,0,0,1,.6.6v2.24a0,0,0,0,1,0,0h-4a0,0,0,0,1,0,0v-2.24A.6.6,0,0,1,1375.31,1270.64Z" transform="translate(1302.71 -600.91) rotate(45)"></path><path class="cls-3" d="M1369.89,1276.05h2.81a.6.6,0,0,1,.6.6v2.24a0,0,0,0,1,0,0h-4a0,0,0,0,1,0,0v-2.24A.6.6,0,0,1,1369.89,1276.05Z" transform="translate(1437.64 3150.43) rotate(-135)"></path><rect class="cls-1" x="1372" y="1272.76" width="4.01" height="4.01" transform="translate(1303.83 -598.2) rotate(45)"></rect><rect class="cls-6" x="1429.03" y="1274.5" width="13.23" height="6.05" rx="0.64" transform="translate(1323.84 -640.98) rotate(45)"></rect><path class="cls-3" d="M1432.17,1273.88h2.43a.52.52,0,0,1,.52.52v1.93a0,0,0,0,1,0,0h-3.46a0,0,0,0,1,0,0v-1.93A.52.52,0,0,1,1432.17,1273.88Z" transform="translate(-481.81 1387.02) rotate(-45)"></path><path class="cls-3" d="M1436.85,1278.56h2.43a.52.52,0,0,1,.52.52V1281a0,0,0,0,1,0,0h-3.46a0,0,0,0,1,0,0v-1.93a.52.52,0,0,1,.52-.52Z" transform="translate(3359.88 1167.87) rotate(135)"></path><rect class="cls-1" x="1433.99" y="1275.72" width="3.46" height="3.46" transform="translate(-482.78 1389.37) rotate(-45)"></rect><rect class="cls-6" x="1455.72" y="1274.43" width="13.23" height="6.05" rx="0.64" transform="translate(1331.6 -659.88) rotate(45)"></rect><path class="cls-3" d="M1458.86,1273.81h2.43a.52.52,0,0,1,.52.52v1.93a0,0,0,0,1,0,0h-3.46a0,0,0,0,1,0,0v-1.93A.52.52,0,0,1,1458.86,1273.81Z" transform="translate(-473.94 1405.88) rotate(-45)"></path><path class="cls-3" d="M1463.55,1278.49H1466a.52.52,0,0,1,.52.52v1.93a0,0,0,0,1,0,0H1463a0,0,0,0,1,0,0V1279A.52.52,0,0,1,1463.55,1278.49Z" transform="translate(3405.39 1148.87) rotate(135)"></path><rect class="cls-1" x="1460.69" y="1275.64" width="3.46" height="3.46" transform="translate(-474.91 1408.22) rotate(-45)"></rect><rect class="cls-6" x="1452.47" y="1282.36" width="13.23" height="6.05" rx="0.64" transform="translate(1336.26 -655.25) rotate(45)"></rect><path class="cls-3" d="M1455.61,1281.74H1458a.52.52,0,0,1,.52.52v1.93a0,0,0,0,1,0,0h-3.46a0,0,0,0,1,0,0v-1.93A.52.52,0,0,1,1455.61,1281.74Z" transform="translate(-480.5 1405.9) rotate(-45)"></path><path class="cls-3" d="M1460.29,1286.42h2.43a.52.52,0,0,1,.52.52v1.93a0,0,0,0,1,0,0h-3.46a0,0,0,0,1,0,0v-1.93A.52.52,0,0,1,1460.29,1286.42Z" transform="translate(3405.45 1164.72) rotate(135)"></path><rect class="cls-1" x="1457.43" y="1283.58" width="3.46" height="3.46" transform="translate(-481.47 1408.24) rotate(-45)"></rect><rect class="cls-6" x="1444.86" y="1289.97" width="13.23" height="6.05" rx="0.64" transform="translate(1339.41 -647.64) rotate(45)"></rect><path class="cls-3" d="M1448,1289.35h2.43a.52.52,0,0,1,.52.52v1.93a0,0,0,0,1,0,0h-3.46a0,0,0,0,1,0,0v-1.93a.52.52,0,0,1,.52-.52Z" transform="translate(-488.11 1402.75) rotate(-45)"></path><path class="cls-3" d="M1452.68,1294h2.43a.52.52,0,0,1,.52.52v1.93a0,0,0,0,1,0,0h-3.46a0,0,0,0,1,0,0v-1.93A.52.52,0,0,1,1452.68,1294Z" transform="translate(3397.84 1183.08) rotate(135)"></path><rect class="cls-1" x="1449.82" y="1291.18" width="3.46" height="3.46" transform="translate(-489.08 1405.09) rotate(-45)"></rect><rect class="cls-16" x="1433.27" y="1292.83" width="17.36" height="7.93" rx="0.84" transform="translate(1339.31 -639.79) rotate(45)"></rect><path class="cls-3" d="M1437.39,1292h3.18a.68.68,0,0,1,.68.68v2.54a0,0,0,0,1,0,0h-4.54a0,0,0,0,1,0,0v-2.54A.68.68,0,0,1,1437.39,1292Z" transform="translate(-493.27 1396.41) rotate(-45)"></path><path class="cls-3" d="M1443.53,1298.16h3.18a.68.68,0,0,1,.68.68v2.54a0,0,0,0,1,0,0h-4.54a0,0,0,0,1,0,0v-2.54A.68.68,0,0,1,1443.53,1298.16Z" transform="translate(3386.05 1196.99) rotate(135)"></path><rect class="cls-1" x="1439.78" y="1294.43" width="4.54" height="4.54" transform="translate(-494.54 1399.48) rotate(-45)"></rect><rect class="cls-6" x="1422.38" y="1280.98" width="13.23" height="6.05" rx="0.64" transform="translate(1326.47 -634.38) rotate(45)"></rect><path class="cls-3" d="M1425.52,1280.36h2.43a.52.52,0,0,1,.52.52v1.93a0,0,0,0,1,0,0H1425a0,0,0,0,1,0,0v-1.93A.52.52,0,0,1,1425.52,1280.36Z" transform="translate(-488.34 1384.22) rotate(-45)"></path><path class="cls-3" d="M1430.2,1285h2.43a.52.52,0,0,1,.52.52v1.93a0,0,0,0,1,0,0h-3.46a0,0,0,0,1,0,0v-1.93A.52.52,0,0,1,1430.2,1285Z" transform="translate(3353.11 1183.63) rotate(135)"></path><rect class="cls-1" x="1427.34" y="1282.19" width="3.46" height="3.46" transform="translate(-489.31 1386.56) rotate(-45)"></rect><rect class="cls-6" x="1411.61" y="1270.2" width="13.23" height="6.05" rx="0.64" transform="translate(1315.7 -629.92) rotate(45)"></rect><path class="cls-3" d="M1414.75,1269.58h2.43a.52.52,0,0,1,.52.52V1272a0,0,0,0,1,0,0h-3.46a0,0,0,0,1,0,0v-1.93A.52.52,0,0,1,1414.75,1269.58Z" transform="translate(-483.87 1373.45) rotate(-45)"></path><path class="cls-3" d="M1419.43,1274.27h2.43a.52.52,0,0,1,.52.52v1.93a0,0,0,0,1,0,0h-3.46a0,0,0,0,1,0,0v-1.93A.52.52,0,0,1,1419.43,1274.27Z" transform="translate(3327.1 1172.85) rotate(135)"></path><rect class="cls-1" x="1416.57" y="1271.42" width="3.46" height="3.46" transform="translate(-484.84 1375.79) rotate(-45)"></rect><rect class="cls-6" x="1387.18" y="1280.4" width="31.2" height="14.25" rx="1.5" transform="translate(3305.11 1206.03) rotate(135)"></rect><path class="cls-3" d="M1405.62,1279.3h5.72a1.22,1.22,0,0,1,1.22,1.22v4.56a0,0,0,0,1,0,0h-8.16a0,0,0,0,1,0,0v-4.56a1.22,1.22,0,0,1,1.22-1.22Z" transform="translate(1319.18 -620.4) rotate(45)"></path><path class="cls-3" d="M1394.58,1290.34h5.72a1.22,1.22,0,0,1,1.22,1.22v4.56a0,0,0,0,1,0,0h-8.16a0,0,0,0,1,0,0v-4.56A1.22,1.22,0,0,1,1394.58,1290.34Z" transform="translate(1471.13 3195.81) rotate(-135)"></path><rect class="cls-15" x="1398.88" y="1283.63" width="8.16" height="8.16" transform="translate(1321.46 -614.88) rotate(45)"></rect><rect class="cls-6" x="1338.73" y="1242.55" width="31.2" height="14.25" rx="1.5" transform="translate(2708.67 2499.35) rotate(180)"></rect><path class="cls-3" d="M1359.28,1247H1365a1.22,1.22,0,0,1,1.22,1.22v4.56a0,0,0,0,1,0,0h-8.16a0,0,0,0,1,0,0v-4.56A1.22,1.22,0,0,1,1359.28,1247Z" transform="translate(2612.07 -112.21) rotate(90)"></path><path class="cls-3" d="M1343.67,1247h5.72a1.22,1.22,0,0,1,1.22,1.22v4.56a0,0,0,0,1,0,0h-8.16a0,0,0,0,1,0,0v-4.56A1.22,1.22,0,0,1,1343.67,1247Z" transform="translate(96.6 2596.46) rotate(-90)"></path><rect class="cls-1" x="1350.25" y="1245.85" width="8.16" height="8.16" transform="translate(2604.27 -104.41) rotate(90)"></rect><path class="cls-3" d="M1328.57,1310.43h12.11a2.59,2.59,0,0,1,2.59,2.59v9.65a0,0,0,0,1,0,0H1326a0,0,0,0,1,0,0V1313A2.59,2.59,0,0,1,1328.57,1310.43Z" transform="translate(2651.18 -18.08) rotate(90)"></path><path class="cls-3" d="M1287.86,1310.43H1300a2.59,2.59,0,0,1,2.59,2.59v9.65a0,0,0,0,1,0,0h-17.29a0,0,0,0,1,0,0V1313A2.59,2.59,0,0,1,1287.86,1310.43Z" transform="translate(-22.63 2610.47) rotate(-90)"></path><rect class="cls-1" x="1305.06" y="1307.9" width="17.29" height="17.29" transform="translate(2630.25 2.84) rotate(90)"></rect><rect class="cls-6" x="1403.18" y="1291.54" width="25.33" height="11.57" rx="1.22" transform="translate(3334.35 1213.52) rotate(135)"></rect><path class="cls-3" d="M1418.15,1290.65h4.64a1,1,0,0,1,1,1v3.7a0,0,0,0,1,0,0h-6.63a0,0,0,0,1,0,0v-3.7a1,1,0,0,1,1-1Z" transform="translate(1330.33 -625.72) rotate(45)"></path><path class="cls-3" d="M1409.19,1299.61h4.64a1,1,0,0,1,1,1v3.7a0,0,0,0,1,0,0h-6.63a0,0,0,0,1,0,0v-3.7a1,1,0,0,1,1-1Z" transform="translate(1488.98 3220.66) rotate(-135)"></path><rect class="cls-15" x="1412.68" y="1294.16" width="6.63" height="6.63" transform="translate(1332.19 -621.24) rotate(45)"></rect><rect class="cls-14" x="1371.8" y="1164.76" width="17.64" height="8.06" rx="0.85"></rect><path class="cls-3" d="M1374.59,1167h3.23a.69.69,0,0,1,.69.69v2.58a0,0,0,0,1,0,0h-4.62a0,0,0,0,1,0,0v-2.58A.69.69,0,0,1,1374.59,1167Z" transform="translate(207.56 2544.85) rotate(-90)"></path><path class="cls-3" d="M1383.42,1167h3.23a.69.69,0,0,1,.69.69v2.58a0,0,0,0,1,0,0h-4.62a0,0,0,0,1,0,0v-2.58A.69.69,0,0,1,1383.42,1167Z" transform="translate(2553.68 -216.39) rotate(90)"></path><rect class="cls-1" x="1378.31" y="1166.34" width="4.62" height="4.62" transform="translate(211.98 2549.27) rotate(-90)"></rect><rect class="cls-15" x="1362.2" y="1208.47" width="11.88" height="16.46"></rect><rect class="cls-17" x="1360.52" y="1206.54" width="15.49" height="20.47"></rect><rect class="cls-14" x="1395.83" y="1173.99" width="62.15" height="62.15"></rect><rect class="cls-18" x="1356.27" y="1305.6" width="22.17" height="24.36" rx="2.05"></rect><circle class="cls-19" cx="1367.3" cy="1318.36" r="8.57"></circle><circle class="cls-20" cx="1367.3" cy="1318.36" r="1.41"></circle><circle class="cls-7" cx="1409.59" cy="1338.55" r="20.19"></circle><circle class="cls-9" cx="1409.59" cy="1338.55" r="20.19"></circle><path class="cls-21" d="M1420.52,1337.19v2.72a2.05,2.05,0,0,1-2,2h-3.41a2.05,2.05,0,0,0-2,2v3.43a2.05,2.05,0,0,1-2,2h-2.74a2.05,2.05,0,0,1-2-2V1344a2.05,2.05,0,0,0-2.05-2h-3.41a2.05,2.05,0,0,1-2-2v-2.72a2.05,2.05,0,0,1,2-2h3.41a2.05,2.05,0,0,0,2.05-2.05v-3.43a2.05,2.05,0,0,1,2-2.05H1411a2.05,2.05,0,0,1,2,2.05v3.43a2.05,2.05,0,0,0,2,2.05h3.41A2.05,2.05,0,0,1,1420.52,1337.19Z"></path><path class="cls-9" d="M1420.52,1337.19v2.72a2.05,2.05,0,0,1-2,2h-3.41a2.05,2.05,0,0,0-2,2v3.43a2.05,2.05,0,0,1-2,2h-2.74a2.05,2.05,0,0,1-2-2V1344a2.05,2.05,0,0,0-2.05-2h-3.41a2.05,2.05,0,0,1-2-2v-2.72a2.05,2.05,0,0,1,2-2h3.41a2.05,2.05,0,0,0,2.05-2.05v-3.43a2.05,2.05,0,0,1,2-2.05H1411a2.05,2.05,0,0,1,2,2.05v3.43a2.05,2.05,0,0,0,2,2.05h3.41A2.05,2.05,0,0,1,1420.52,1337.19Z"></path><rect class="cls-4" x="1288.59" y="1284" width="50.14" height="17.95"></rect><rect class="cls-4" x="1466.04" y="1310.23" width="37.1" height="14.56"></rect><rect class="cls-4" x="1541.4" y="1302.05" width="38.46" height="16.26"></rect><rect class="cls-4" x="1221.1" y="1146.74" width="144.57" height="37.94"></rect><rect class="cls-4" x="1221.1" y="1190.72" width="127.61" height="15.82"></rect><rect class="cls-4" x="1221.1" y="1211.27" width="127.61" height="17.17"></rect><path class="cls-7" d="M1458.65,1313.47l6.8,23.82a2.81,2.81,0,0,1-1.93,3.47l-.71.21a.36.36,0,0,0-.26.45l2.94,10.31a.36.36,0,0,1-.25.46l-15.21,4.34a.38.38,0,0,1-.46-.26l-2.94-10.31a.37.37,0,0,0-.45-.25h0a2.81,2.81,0,0,1-3.48-1.93l-6.79-23.82a2.81,2.81,0,0,1,1.93-3.47l17.34-5A2.81,2.81,0,0,1,1458.65,1313.47Z"></path><path class="cls-22" d="M1458.65,1313.47l6.8,23.82a2.81,2.81,0,0,1-1.93,3.47l-.71.21a.36.36,0,0,0-.26.45l2.94,10.31a.36.36,0,0,1-.25.46l-15.21,4.34a.38.38,0,0,1-.46-.26l-2.94-10.31a.37.37,0,0,0-.45-.25h0a2.81,2.81,0,0,1-3.48-1.93l-6.79-23.82a2.81,2.81,0,0,1,1.93-3.47l17.34-5A2.81,2.81,0,0,1,1458.65,1313.47Z"></path><path class="cls-1" d="M1454,1353.88h13.43a0,0,0,0,1,0,0v13.06a6.72,6.72,0,0,1-6.72,6.72h0a6.72,6.72,0,0,1-6.72-6.72v-13.06A0,0,0,0,1,1454,1353.88Z" transform="translate(-318.1 453.08) rotate(-15.92)"></path><path class="cls-22" d="M1454,1353.88h13.43a0,0,0,0,1,0,0v13.06a6.72,6.72,0,0,1-6.72,6.72h0a6.72,6.72,0,0,1-6.72-6.72v-13.06A0,0,0,0,1,1454,1353.88Z" transform="translate(-318.1 453.08) rotate(-15.92)"></path><path class="cls-7" d="M1512.77,1313.47l-6.79,23.82a2.8,2.8,0,0,0,1.93,3.47l.71.21a.35.35,0,0,1,.25.45l-2.94,10.31a.37.37,0,0,0,.25.46l15.22,4.34a.37.37,0,0,0,.45-.26l3-10.31a.36.36,0,0,1,.45-.25h0a2.8,2.8,0,0,0,3.47-1.93l6.8-23.82a2.82,2.82,0,0,0-1.93-3.47l-17.34-5A2.83,2.83,0,0,0,1512.77,1313.47Z"></path><path class="cls-22" d="M1512.77,1313.47l-6.79,23.82a2.8,2.8,0,0,0,1.93,3.47l.71.21a.35.35,0,0,1,.25.45l-2.94,10.31a.37.37,0,0,0,.25.46l15.22,4.34a.37.37,0,0,0,.45-.26l3-10.31a.36.36,0,0,1,.45-.25h0a2.8,2.8,0,0,0,3.47-1.93l6.8-23.82a2.82,2.82,0,0,0-1.93-3.47l-17.34-5A2.83,2.83,0,0,0,1512.77,1313.47Z"></path><path class="cls-1" d="M1510.72,1353.88h0a6.72,6.72,0,0,1,6.72,6.72v13.06a0,0,0,0,1,0,0H1504a0,0,0,0,1,0,0v-13.06A6.72,6.72,0,0,1,1510.72,1353.88Z" transform="translate(2589.33 3089.67) rotate(-164.08)"></path><path class="cls-22" d="M1510.72,1353.88h0a6.72,6.72,0,0,1,6.72,6.72v13.06a0,0,0,0,1,0,0H1504a0,0,0,0,1,0,0v-13.06A6.72,6.72,0,0,1,1510.72,1353.88Z" transform="translate(2589.33 3089.67) rotate(-164.08)"></path><rect class="cls-23" x="877.29" y="1159.42" width="292.54" height="157.13"></rect><path class="cls-24" d="M1089.12,1133.47v26H953.52v-26a8.58,8.58,0,0,1,8.58-8.59h17.46v-33.37h83.7v33.37h17.3A8.56,8.56,0,0,1,1089.12,1133.47Z"></path><path class="cls-25" d="M979.56,1091.51v33.37H974V1097a5.49,5.49,0,0,1,5.49-5.48Z"></path><path class="cls-25" d="M1072.21,1097v27.89h-9v-33.37h3.47A5.48,5.48,0,0,1,1072.21,1097Z"></path><path class="cls-23" d="M1072.21,1124.88V1097a5.48,5.48,0,0,0-5.48-5.48H979.5A5.49,5.49,0,0,0,974,1097v27.89H962.1a8.59,8.59,0,0,0-8.59,8.59v26h135.61v-26a8.56,8.56,0,0,0-8.56-8.59Z"></path><polyline class="cls-23" points="974.01 1124.88 979.56 1124.88 979.56 1091.51"></polyline><polyline class="cls-23" points="1072.21 1124.88 1063.26 1124.88 1063.26 1091.51"></polyline><circle class="cls-7" cx="895.89" cy="1326.48" r="8"></circle><circle class="cls-8" cx="895.89" cy="1326.48" r="4.09"></circle><circle class="cls-7" cx="917.68" cy="1326.48" r="8"></circle><circle class="cls-8" cx="917.68" cy="1326.48" r="4.09"></circle><circle class="cls-7" cx="939.47" cy="1326.48" r="8"></circle><circle class="cls-8" cx="939.47" cy="1326.48" r="4.09"></circle><circle class="cls-7" cx="961.26" cy="1326.48" r="8"></circle><circle class="cls-8" cx="961.26" cy="1326.48" r="4.09"></circle><circle class="cls-7" cx="983.05" cy="1326.48" r="8"></circle><circle class="cls-8" cx="983.05" cy="1326.48" r="4.09"></circle><circle class="cls-7" cx="1004.84" cy="1326.48" r="8"></circle><circle class="cls-8" cx="1004.84" cy="1326.48" r="4.09"></circle><circle class="cls-7" cx="1026.63" cy="1326.48" r="8"></circle><circle class="cls-8" cx="1026.63" cy="1326.48" r="4.09"></circle><circle class="cls-7" cx="1048.42" cy="1326.48" r="8"></circle><circle class="cls-8" cx="1048.42" cy="1326.48" r="4.09"></circle><circle class="cls-7" cx="1070.21" cy="1326.48" r="8"></circle><circle class="cls-8" cx="1070.21" cy="1326.48" r="4.09"></circle><circle class="cls-7" cx="1092" cy="1326.48" r="8"></circle><circle class="cls-8" cx="1092" cy="1326.48" r="4.09"></circle><circle class="cls-7" cx="1113.79" cy="1326.48" r="8"></circle><circle class="cls-8" cx="1113.79" cy="1326.48" r="4.09"></circle><circle class="cls-7" cx="1135.58" cy="1326.48" r="8"></circle><circle class="cls-8" cx="1135.58" cy="1326.48" r="4.09"></circle><circle class="cls-7" cx="1157.37" cy="1326.48" r="8"></circle><circle class="cls-8" cx="1157.37" cy="1326.48" r="4.09"></circle><line class="cls-6" x1="1072.21" y1="1122.89" x2="1173.85" y2="1122.89"></line><circle class="cls-7" cx="850.97" cy="1099.17" r="13.73"></circle><circle class="cls-8" cx="850.97" cy="1099.17" r="9.71"></circle><circle class="cls-7" cx="850.97" cy="1341.74" r="13.73"></circle><circle class="cls-8" cx="850.97" cy="1341.74" r="9.71"></circle><path class="cls-4" d="M826.2,1108.88H838a8,8,0,0,1,8,8v37a8,8,0,0,1-8,8H826.2a0,0,0,0,1,0,0v-53A0,0,0,0,1,826.2,1108.88Z"></path><rect class="cls-4" x="807.6" y="1099.17" width="18.6" height="71.48" rx="3.81"></rect><rect class="cls-4" x="789.43" y="1108.2" width="18.17" height="53.66"></rect><path class="cls-26" d="M776.4,1101.67h9.79a3.24,3.24,0,0,1,3.24,3.24v59.69a3.24,3.24,0,0,1-3.24,3.24H776.4a0,0,0,0,1,0,0v-66.16A0,0,0,0,1,776.4,1101.67Z"></path><rect class="cls-26" x="760.08" y="1096.34" width="16.32" height="78.48" rx="1.79"></rect><rect class="cls-26" x="752.83" y="1099.17" width="7.25" height="72.8"></rect><path class="cls-1" d="M691.1,1093.78h59.53a2.2,2.2,0,0,1,2.2,2.2v76.62a2.21,2.21,0,0,1-2.21,2.21H691.4a2.21,2.21,0,0,1-2.21-2.21V1095.7a1.91,1.91,0,0,1,1.91-1.91Z"></path><path class="cls-1" d="M587,1093.78h92.93a1.91,1.91,0,0,1,1.91,1.91v76.91a2.21,2.21,0,0,1-2.21,2.21H587a6.13,6.13,0,0,1-6.13-6.13v-68.78A6.13,6.13,0,0,1,587,1093.78Z"></path><rect class="cls-5" x="681.82" y="1096.34" width="7.36" height="75.63"></rect><path class="cls-9" d="M826.2,1108.88H838a8,8,0,0,1,8,8v37a8,8,0,0,1-8,8H826.2a0,0,0,0,1,0,0v-53A0,0,0,0,1,826.2,1108.88Z"></path><rect class="cls-9" x="807.6" y="1099.17" width="18.6" height="71.48" rx="3.81"></rect><rect class="cls-9" x="789.43" y="1108.2" width="18.17" height="53.66"></rect><path class="cls-9" d="M776.4,1101.67h9.79a3.24,3.24,0,0,1,3.24,3.24v59.69a3.24,3.24,0,0,1-3.24,3.24H776.4a0,0,0,0,1,0,0v-66.16A0,0,0,0,1,776.4,1101.67Z"></path><rect class="cls-9" x="760.08" y="1096.34" width="16.32" height="78.48" rx="1.79"></rect><rect class="cls-27" x="752.83" y="1099.17" width="7.25" height="72.8"></rect><path class="cls-27" d="M691.1,1093.78h59.53a2.2,2.2,0,0,1,2.2,2.2v76.62a2.21,2.21,0,0,1-2.21,2.21H691.4a2.21,2.21,0,0,1-2.21-2.21V1095.7A1.91,1.91,0,0,1,691.1,1093.78Z"></path><path class="cls-27" d="M587,1093.78h92.93a1.91,1.91,0,0,1,1.91,1.91v76.91a2.21,2.21,0,0,1-2.21,2.21H587a6.13,6.13,0,0,1-6.13-6.13v-68.78A6.13,6.13,0,0,1,587,1093.78Z"></path><rect class="cls-27" x="681.82" y="1096.34" width="7.36" height="75.63"></rect><path class="cls-1" d="M508.63,1179h43.22a15.75,15.75,0,0,0,15.74-15.75V1108.2l7.44-7.44a10.82,10.82,0,0,0,3.17-7.65V463.84a38.67,38.67,0,0,0-38.67-38.67h0a38.66,38.66,0,0,0-38.66,38.67v707.42A7.76,7.76,0,0,0,508.63,1179Z"></path><path class="cls-27" d="M508.63,1179h43.22a15.75,15.75,0,0,0,15.74-15.75V1108.2l7.44-7.44a10.82,10.82,0,0,0,3.17-7.65V463.84a38.67,38.67,0,0,0-38.67-38.67h0a38.66,38.66,0,0,0-38.66,38.67v707.42A7.76,7.76,0,0,0,508.63,1179Z"></path><rect class="cls-27" x="500.87" y="503.75" width="77.33" height="6.94"></rect><rect class="cls-27" x="500.87" y="519.57" width="77.33" height="6.94"></rect><line class="cls-27" x1="567.59" y1="1113.45" x2="580.85" y2="1113.45"></line><line class="cls-27" x1="567.59" y1="1158.39" x2="580.85" y2="1158.39"></line><rect class="cls-12" x="832.24" y="1169.96" width="42.02" height="3.15"></rect><rect class="cls-12" x="873.95" y="1138.89" width="27.83" height="3.15" transform="translate(2028.33 252.6) rotate(90)"></rect><rect class="cls-12" x="1147.29" y="1138.89" width="27.83" height="3.15" transform="translate(2301.66 -20.74) rotate(90)"></rect><rect class="cls-12" x="832.24" y="1238.94" width="42.02" height="3.15"></rect><rect class="cls-12" x="1622.15" y="1238.94" width="77.81" height="3.15"></rect><rect class="cls-12" x="1622.15" y="1313.24" width="77.81" height="3.15"></rect><rect class="cls-12" x="832.24" y="1307.93" width="42.02" height="3.15"></rect><rect class="cls-12" x="1201.89" y="1082.95" width="1.83" height="162.9"></rect><rect class="cls-12" x="1201.89" y="1326.69" width="1.83" height="36.01"></rect><path class="cls-28" d="M1481.47,1205.65v-21h2.87v18.51H1495v2.47Z"></path><path class="cls-28" d="M1498.94,1205.65v-21h2.88v21Z"></path><path class="cls-28" d="M1506.76,1205.65v-21h2.88v18.51h10.69v2.47Z"></path><path class="cls-28" d="M1527.62,1205.65v-8.89l-8.37-12.09h3.5L1527,1191c.79,1.18,1.52,2.36,2.2,3.54.66-1.09,1.45-2.33,2.37-3.7l4.21-6.17h3.35l-8.67,12.09v8.89Z"></path><path class="cls-28" d="M1551.9,1197.42V1195h9.2v7.78a16.42,16.42,0,0,1-4.38,2.46,13.55,13.55,0,0,1-4.62.82,12.7,12.7,0,0,1-5.81-1.32,9,9,0,0,1-4-3.83,11.72,11.72,0,0,1-1.33-5.6,12.56,12.56,0,0,1,1.33-5.72,8.61,8.61,0,0,1,3.81-3.94,12.28,12.28,0,0,1,5.73-1.29,11.75,11.75,0,0,1,4.26.74,7,7,0,0,1,3,2,9,9,0,0,1,1.65,3.44l-2.59.68a7.63,7.63,0,0,0-1.22-2.51,4.87,4.87,0,0,0-2.07-1.47,7.8,7.8,0,0,0-3-.55,9,9,0,0,0-3.41.58,6.29,6.29,0,0,0-2.32,1.52,7.22,7.22,0,0,0-1.37,2.08,10.66,10.66,0,0,0-.83,4.22,10,10,0,0,0,1,4.69,6.33,6.33,0,0,0,2.91,2.81,9.31,9.31,0,0,0,4.06.91,9.93,9.93,0,0,0,3.64-.69,9.47,9.47,0,0,0,2.7-1.48v-3.91Z"></path><path class="cls-28" d="M1564.46,1195.43c0-3.48,1-6.21,2.9-8.18a10,10,0,0,1,7.49-3,10.65,10.65,0,0,1,5.43,1.39,9.16,9.16,0,0,1,3.68,3.87,12.25,12.25,0,0,1,1.26,5.63,12,12,0,0,1-1.33,5.71,8.91,8.91,0,0,1-3.78,3.81,11,11,0,0,1-5.27,1.3,10.59,10.59,0,0,1-5.48-1.43,9.38,9.38,0,0,1-3.66-3.91A11.51,11.51,0,0,1,1564.46,1195.43Zm3,0a8.21,8.21,0,0,0,2.11,6,7.54,7.54,0,0,0,10.63,0,8.73,8.73,0,0,0,2.1-6.26,10.43,10.43,0,0,0-.9-4.47,6.68,6.68,0,0,0-2.62-3,7.3,7.3,0,0,0-3.87-1,7.49,7.49,0,0,0-5.25,2Q1567.42,1190.73,1567.42,1195.48Z"></path><path class="cls-28" d="M1589.88,1192v-5.7h2.53a3.46,3.46,0,0,1,1.16.15,1.34,1.34,0,0,1,.63.55,1.59,1.59,0,0,1,.24.86,1.41,1.41,0,0,1-.4,1,2,2,0,0,1-1.21.53,2.05,2.05,0,0,1,.46.28,3.72,3.72,0,0,1,.62.76l1,1.55H1594l-.76-1.19q-.33-.51-.54-.78a1.69,1.69,0,0,0-.39-.38,1.14,1.14,0,0,0-.34-.15,2.12,2.12,0,0,0-.42,0h-.88V1192Zm.75-3.18h1.63a2.4,2.4,0,0,0,.8-.11.88.88,0,0,0,.45-.34,1,1,0,0,0,.15-.51.87.87,0,0,0-.29-.67,1.41,1.41,0,0,0-.93-.26h-1.81Z"></path><path class="cls-28" d="M1592,1193.88a4.84,4.84,0,1,1,4.84-4.84A4.84,4.84,0,0,1,1592,1193.88Zm0-9a4.18,4.18,0,1,0,4.18,4.17A4.17,4.17,0,0,0,1592,1184.87Z"></path><polygon class="cls-28" points="1246.98 1172.96 1246.98 1177.23 1230.82 1177.23 1230.82 1154.46 1235.67 1154.46 1235.67 1172.96 1246.98 1172.96"></polygon><path class="cls-28" d="M1316.92,1164.73v9.14l-.38.27a18.79,18.79,0,0,1-4.85,2.57,15.68,15.68,0,0,1-5.19.88,14.82,14.82,0,0,1-6.54-1.42,10.13,10.13,0,0,1-4.58-4.18,12.36,12.36,0,0,1-1.52-6.06,13,13,0,0,1,1.5-6.12,9.84,9.84,0,0,1,4.44-4.33,14.66,14.66,0,0,1,6.47-1.38,14.11,14.11,0,0,1,4.81.79,8.55,8.55,0,0,1,3.54,2.3,10,10,0,0,1,1.92,3.79l.25.9-4.45,1.11-.27-.81A6.78,6.78,0,0,0,1311,1160a4.38,4.38,0,0,0-1.83-1.22,8,8,0,0,0-2.84-.48,9.36,9.36,0,0,0-3.28.52,6,6,0,0,0-2.14,1.31,6.81,6.81,0,0,0-1.28,1.83,9.39,9.39,0,0,0-.79,3.84,8.61,8.61,0,0,0,.94,4.26,5.53,5.53,0,0,0,2.67,2.42,9.83,9.83,0,0,0,7.48.2,11.67,11.67,0,0,0,2.26-1.09V1169h-6.75v-4.26Z"></path><path class="cls-28" d="M1294.61,1154.46l-10.09,13.29v9.48h-4.83v-9.5l-9.74-13.27h5.93l4.81,6.7c.56.79,1.1,1.6,1.62,2.39.5-.78,1.09-1.62,1.76-2.55l4.72-6.54Z"></path><rect class="cls-28" x="1249.34" y="1154.46" width="4.83" height="22.77"></rect><polygon class="cls-28" points="1262.45 1172.96 1273.76 1172.96 1273.76 1177.23 1257.62 1177.23 1257.62 1154.46 1262.45 1154.46 1262.45 1172.96"></polygon><path class="cls-28" d="M1341,1159.81a10.48,10.48,0,0,0-4.26-4.24,12.81,12.81,0,0,0-6.16-1.49,11.83,11.83,0,0,0-8.55,3.22,11.69,11.69,0,0,0-3.35,8.81,12.11,12.11,0,0,0,1.41,5.66,10.71,10.71,0,0,0,4.24,4.28,12.62,12.62,0,0,0,6.23,1.54,13.3,13.3,0,0,0,6-1.38,10.15,10.15,0,0,0,4.39-4.19,12.37,12.37,0,0,0,1.52-6.16A12.53,12.53,0,0,0,1341,1159.81Zm-3.47,6a7.59,7.59,0,0,1-2,5.62,6.8,6.8,0,0,1-5,1.94,6.71,6.71,0,0,1-5-1.94,7.08,7.08,0,0,1-2-5.33c0-2.85.69-4.92,2-6.07a7.7,7.7,0,0,1,8.63-.88,5.89,5.89,0,0,1,2.42,2.59A9,9,0,0,1,1337.53,1165.86Z"></path><path class="cls-28" d="M1346.49,1162.69V1157h2.67a3.55,3.55,0,0,1,1.23.16,1.31,1.31,0,0,1,.67.54,1.54,1.54,0,0,1,.25.86,1.42,1.42,0,0,1-.41,1,2.14,2.14,0,0,1-1.29.53,2.44,2.44,0,0,1,.48.28,4.18,4.18,0,0,1,.67.76l1,1.55h-1l-.8-1.18c-.23-.34-.42-.61-.57-.79a1.71,1.71,0,0,0-.41-.38,1.38,1.38,0,0,0-.36-.15,2.34,2.34,0,0,0-.45,0h-.92v2.53Zm.8-3.18H1349a2.76,2.76,0,0,0,.86-.11.92.92,0,0,0,.47-.34,1,1,0,0,0,.16-.51.87.87,0,0,0-.31-.67,1.55,1.55,0,0,0-1-.26h-1.91Z"></path><path class="cls-28" d="M1348.73,1164.57a4.85,4.85,0,1,1,5.13-4.84A5,5,0,0,1,1348.73,1164.57Zm0-9a4.18,4.18,0,1,0,4.42,4.18A4.32,4.32,0,0,0,1348.73,1155.55Z"></path><path class="cls-28" d="M1499.94,1222.16a2.53,2.53,0,0,1-1.2-.89,2.42,2.42,0,0,1-.41-1.43,2.72,2.72,0,0,1,.89-2.1,3.46,3.46,0,0,1,4.46,0,2.76,2.76,0,0,1,.9,2.14,2.39,2.39,0,0,1-.4,1.38,2.5,2.5,0,0,1-1.2.89,2.93,2.93,0,0,1,1.51,1.07,3.13,3.13,0,0,1,.53,1.85,3.24,3.24,0,0,1-1,2.47,3.88,3.88,0,0,1-5.09,0,3.29,3.29,0,0,1-1-2.51,3,3,0,0,1,.55-1.88A2.65,2.65,0,0,1,1499.94,1222.16Zm-.69,2.88a2.26,2.26,0,0,0,.65,1.68,2.19,2.19,0,0,0,3.76-1.63,2.25,2.25,0,0,0-.66-1.69,2.19,2.19,0,0,0-1.57-.63,2.09,2.09,0,0,0-1.54.63A2.19,2.19,0,0,0,1499.25,1225Zm.44-5.24a1.75,1.75,0,0,0,.52,1.33,1.73,1.73,0,0,0,1.25.49,1.7,1.7,0,0,0,1.24-.49,1.62,1.62,0,0,0,.52-1.25,1.78,1.78,0,0,0-1.77-1.81,1.76,1.76,0,0,0-1.24.49A1.68,1.68,0,0,0,1499.69,1219.8Z"></path><path class="cls-28" d="M1513.2,1219.74l-1.32.11a2.61,2.61,0,0,0-.56-1.24,1.74,1.74,0,0,0-1.28-.54,2.1,2.1,0,0,0-1.86,1.24,6.55,6.55,0,0,0-.61,3.15,3.08,3.08,0,0,1,1.15-1.12,2.93,2.93,0,0,1,1.47-.38,3,3,0,0,1,2.25,1,3.7,3.7,0,0,1,1,2.68,4.43,4.43,0,0,1-.48,2.06,3.3,3.3,0,0,1-1.24,1.36,3.21,3.21,0,0,1-1.67.44,3.38,3.38,0,0,1-2.7-1.26,6.62,6.62,0,0,1-1.07-4.23c0-2.2.37-3.76,1.09-4.69a3.39,3.39,0,0,1,2.79-1.39,3.07,3.07,0,0,1,2.07.72A3.22,3.22,0,0,1,1513.2,1219.74Zm-5.42,4.9a2.8,2.8,0,0,0,.67,2,2.05,2.05,0,0,0,1.57.75,1.82,1.82,0,0,0,1.4-.7,2.86,2.86,0,0,0,.62-1.94,2.7,2.7,0,0,0-.61-1.87,2,2,0,0,0-1.5-.67,2.05,2.05,0,0,0-1.51.67A2.44,2.44,0,0,0,1507.78,1224.64Z"></path><path class="cls-28" d="M1515.24,1228.31V1217h4.07a4.76,4.76,0,0,1,2,.33,2.85,2.85,0,0,1,1.19,1,2.81,2.81,0,0,1,.46,1.54,2.63,2.63,0,0,1-.4,1.41,2.87,2.87,0,0,1-1.12,1,2.93,2.93,0,0,1,1.49,1,2.78,2.78,0,0,1,.54,1.74,3.29,3.29,0,0,1-.49,1.81,2.92,2.92,0,0,1-1.31,1.13,6,6,0,0,1-2.26.35Zm1.43-6.57H1519a5.61,5.61,0,0,0,1.31-.11,1.49,1.49,0,0,0,1.16-1.59,1.82,1.82,0,0,0-.27-1,1.47,1.47,0,0,0-.74-.56,6,6,0,0,0-1.63-.15h-2.18Zm0,5.23h2.7a4.39,4.39,0,0,0,1.32-.14,1.7,1.7,0,0,0,.93-.66,2,2,0,0,0,.32-1.15,1.84,1.84,0,0,0-.31-1.09,1.76,1.76,0,0,0-.82-.65,4.67,4.67,0,0,0-1.63-.21h-2.51Z"></path><path class="cls-28" d="M1524.2,1228.5l3.14-11.72h1.08l-3.14,11.72Z"></path><path class="cls-28" d="M1529.22,1225.69l1.28-.13q.32,1.8,1.8,1.8a2.06,2.06,0,0,0,1.22-.39,3,3,0,0,0,.92-1.39,6.58,6.58,0,0,0,.38-2.33V1223a3,3,0,0,1-1.12,1.09,2.86,2.86,0,0,1-1.43.41,3,3,0,0,1-2.29-1,3.75,3.75,0,0,1-1-2.72,3.87,3.87,0,0,1,1-2.8,3.25,3.25,0,0,1,2.42-1,3.37,3.37,0,0,1,1.88.57,3.63,3.63,0,0,1,1.35,1.68,8.46,8.46,0,0,1,.48,3.21,10.22,10.22,0,0,1-.51,3.63,4,4,0,0,1-1.39,1.89,3.43,3.43,0,0,1-2,.59,3.05,3.05,0,0,1-2.07-.72A3.16,3.16,0,0,1,1529.22,1225.69Zm5.45-5a2.73,2.73,0,0,0-.63-1.91,1.89,1.89,0,0,0-1.45-.7,2,2,0,0,0-1.53.74,2.86,2.86,0,0,0-.68,2,2.43,2.43,0,0,0,.65,1.77,2,2,0,0,0,1.53.67,2,2,0,0,0,1.5-.67A2.67,2.67,0,0,0,1534.67,1220.68Z"></path><path class="cls-28" d="M1542.45,1228.31h-1.33v-8.87a7.24,7.24,0,0,1-1.24,1,8.76,8.76,0,0,1-1.42.73v-1.35a8.09,8.09,0,0,0,1.94-1.32,5.15,5.15,0,0,0,1.19-1.52h.86Z"></path><path class="cls-28" d="M1545.86,1225.34l1.39-.12a2.67,2.67,0,0,0,.74,1.61,1.9,1.9,0,0,0,1.33.53,2.14,2.14,0,0,0,1.63-.75,2.94,2.94,0,0,0,.68-2,2.59,2.59,0,0,0-.66-1.89,2.27,2.27,0,0,0-1.66-.67,2.22,2.22,0,0,0-1.13.3,2.18,2.18,0,0,0-.84.81l-1.25-.17,1.05-5.83h5.38v1.33h-4.32l-.58,3a3.36,3.36,0,0,1,2.05-.71,3.26,3.26,0,0,1,2.36,1,3.6,3.6,0,0,1,1,2.68,4.31,4.31,0,0,1-1,2.86,3.36,3.36,0,0,1-2.7,1.18,3.55,3.55,0,0,1-2.37-.83A3.33,3.33,0,0,1,1545.86,1225.34Z"></path><path class="cls-28" d="M1554.8,1228.31V1217H1557l2.57,8,.51,1.68c.13-.42.32-1,.58-1.82l2.6-7.89h1.93v11.34h-1.38v-9.48l-3.16,9.48h-1.29l-3.14-9.65v9.65Z"></path><path class="cls-28" d="M1567.26,1228.31V1217h1.32V1221a3.14,3.14,0,0,1,1.06-.85,3,3,0,0,1,1.3-.28,2.74,2.74,0,0,1,2,.69,3.4,3.4,0,0,1,.73,2.51v5.2h-1.33v-5.2a2.21,2.21,0,0,0-.44-1.54,1.59,1.59,0,0,0-1.22-.46,2,2,0,0,0-1.47.6,2.88,2.88,0,0,0-.61,2.11v4.49Z"></path><path class="cls-28" d="M1575,1228.31v-1.13l5-6c-.57,0-1.07,0-1.5,0h-3.2v-1.13h6.42v.92l-4.26,5.21-.82,1c.59,0,1.15-.07,1.67-.07h3.64v1.2Z"></path><path class="cls-28" d="M1489.38,1248v-11.34h2.15l2.57,8,.52,1.68c.12-.42.31-1,.57-1.82l2.6-7.89h1.93V1248h-1.38v-9.48l-3.16,9.48h-1.29l-3.14-9.65V1248Z"></path><path class="cls-28" d="M1501.33,1243.91a4.51,4.51,0,0,1,1-3.21,3.74,3.74,0,0,1,5.26,0,4.34,4.34,0,0,1,1.06,3.13,4.6,4.6,0,0,1-1,3.29,3.73,3.73,0,0,1-5.27,0A4.45,4.45,0,0,1,1501.33,1243.91Zm1.36,0a3.55,3.55,0,0,0,.68,2.37,2.13,2.13,0,0,0,1.68.78,2,2,0,0,0,1.6-.78,3.58,3.58,0,0,0,.68-2.37,3.55,3.55,0,0,0-.68-2.37,2.13,2.13,0,0,0-1.68-.78,2,2,0,0,0-1.61.79A3.59,3.59,0,0,0,1502.69,1243.91Z"></path><path class="cls-28" d="M1515.34,1248v-1a2.46,2.46,0,0,1-.93.91,2.51,2.51,0,0,1-1.23.32,3.15,3.15,0,0,1-2.4-1.13,4.56,4.56,0,0,1-1-3.17,5.63,5.63,0,0,1,.45-2.37,3.3,3.3,0,0,1,1.2-1.45,3.09,3.09,0,0,1,1.67-.47,2.59,2.59,0,0,1,1.22.3,2.64,2.64,0,0,1,.93.83v-4.07h1.34V1248Zm-4.21-4.1a3.66,3.66,0,0,0,.64,2.37,1.92,1.92,0,0,0,1.5.77,1.87,1.87,0,0,0,1.47-.74,3.4,3.4,0,0,0,.63-2.24,4.06,4.06,0,0,0-.63-2.52,1.9,1.9,0,0,0-1.57-.8,1.8,1.8,0,0,0-1.44.77A3.83,3.83,0,0,0,1511.13,1243.92Z"></path><path class="cls-28" d="M1518.62,1248v-11.34H1520V1248Z"></path><path class="cls-28" d="M1527.39,1245.38l1.37.17a3.48,3.48,0,0,1-1.24,2,3.62,3.62,0,0,1-2.22.67,3.58,3.58,0,0,1-2.7-1.09,4.43,4.43,0,0,1-1-3.14,4.59,4.59,0,0,1,1-3.24,3.44,3.44,0,0,1,2.64-1.12,3.34,3.34,0,0,1,2.54,1.1,4.5,4.5,0,0,1,1,3.18v.37h-5.86a3.18,3.18,0,0,0,.75,2.09,2.16,2.16,0,0,0,3.7-1Zm-4.37-2.26h4.38a2.84,2.84,0,0,0-.53-1.59,2,2,0,0,0-1.63-.77,2.07,2.07,0,0,0-1.52.64A2.57,2.57,0,0,0,1523,1243.12Z"></path><path class="cls-28" d="M1530.86,1241.39v-1.58h1.52v1.58Zm0,6.63v-1.59h1.52V1248Z"></path><path class="cls-28" d="M1534.75,1248v-11.34h1.44v10h5.33V1248Z"></path><path class="cls-28" d="M1542.86,1242.5a6.21,6.21,0,0,1,1.48-4.46,4.92,4.92,0,0,1,3.71-1.56,5,5,0,0,1,2.61.7,4.82,4.82,0,0,1,1.87,2,6.76,6.76,0,0,1,.69,3.16,6.18,6.18,0,0,1-1.34,4.11,5.08,5.08,0,0,1-7.7,0A6,6,0,0,1,1542.86,1242.5Zm1.47,0a4.57,4.57,0,0,0,1.08,3.25,3.55,3.55,0,0,0,5.26,0,4.94,4.94,0,0,0,1.07-3.44,6,6,0,0,0-.55-2.61,3.41,3.41,0,0,0-1.27-1.42,3.5,3.5,0,0,0-1.87-.53,3.45,3.45,0,0,0-2.67,1.16A5.27,5.27,0,0,0,1544.33,1242.52Z"></path><path class="cls-28" d="M1555,1248v-11.34h4.8a5.78,5.78,0,0,1,2.22.32,2.64,2.64,0,0,1,1.18,1,3.17,3.17,0,0,1,.46,1.71,2.84,2.84,0,0,1-.78,2.08,3.9,3.9,0,0,1-2.27,1,3.4,3.4,0,0,1,.92.63,8,8,0,0,1,1.13,1.44l1.89,3.09h-1.8l-1.45-2.36a15.33,15.33,0,0,0-1.26-1.86,2.42,2.42,0,0,0-.83-.65,3,3,0,0,0-1.12-.17h-1.66v5Zm1.43-6.33h3.08a4.33,4.33,0,0,0,1.54-.21,1.8,1.8,0,0,0,1.13-1.7,1.64,1.64,0,0,0-.58-1.35,2.67,2.67,0,0,0-1.74-.5h-3.43Z"></path><path class="cls-28" d="M1564.77,1248l4.18-11.34h1.53l4.44,11.34h-1.64l-1.26-3.43h-4.56l-1.18,3.43Zm3.11-4.66h3.69l-1.13-3.14c-.35-1-.6-1.74-.76-2.35a14.3,14.3,0,0,1-.6,2.17Z"></path><path class="cls-28" d="M1575.48,1245l1.33-.19c.28,1.49,1,2.24,2.1,2.24a2.16,2.16,0,0,0,1.58-.66,2.32,2.32,0,0,0,.67-1.72,2.16,2.16,0,0,0-.61-1.6,2.07,2.07,0,0,0-1.51-.6,3.69,3.69,0,0,0-.93.15l.15-1.22.21,0a2.39,2.39,0,0,0,1.6-.52,1.86,1.86,0,0,0,.1-2.66,1.89,1.89,0,0,0-2.55,0,2.51,2.51,0,0,0-.68,1.53l-1.32-.25a3.56,3.56,0,0,1,1.13-2.19,3.21,3.21,0,0,1,2.14-.75,3.17,3.17,0,0,1,2.23.84,2.7,2.7,0,0,1,.92,2.1,2.44,2.44,0,0,1-.39,1.37.79.79,0,1,0,0,1.45,2.46,2.46,0,0,1,.69.95,3.54,3.54,0,0,1-.82,3.88,3.64,3.64,0,0,1-2.56,1,3.4,3.4,0,0,1-2.36-.86A3.45,3.45,0,0,1,1575.48,1245Z"></path><path class="cls-28" d="M1590.91,1246.68V1248h-7.16a3.39,3.39,0,0,1,.57-1.82,10.62,10.62,0,0,1,2.19-2.37,14.61,14.61,0,0,0,2.45-2.47,3,3,0,0,0,.57-1.62,1.8,1.8,0,0,0-.59-1.41,2,2,0,0,0-1.45-.55,2.1,2.1,0,0,0-1.53.59,2.3,2.3,0,0,0-.59,1.69l-1.37-.15a3.27,3.27,0,0,1,3.53-3.28,3.11,3.11,0,0,1,3.36,3.14,3.71,3.71,0,0,1-.66,2.08,16,16,0,0,1-2.54,2.65c-.79.7-1.3,1.17-1.53,1.42a5.19,5.19,0,0,0-.57.76Z"></path><path class="cls-28" d="M1514.23,1265.38l1.35-.12a3,3,0,0,0,.5,1.45,2.61,2.61,0,0,0,1.09.84,3.91,3.91,0,0,0,1.6.32,3.21,3.21,0,0,0,2-.54,1.66,1.66,0,0,0,.71-1.39,1.49,1.49,0,0,0-.26-.87,1.8,1.8,0,0,0-.77-.62,17.9,17.9,0,0,0-2.24-.68,8.35,8.35,0,0,1-2.18-.78,2.85,2.85,0,0,1-1-1,2.64,2.64,0,0,1-.36-1.37,2.83,2.83,0,0,1,1-2.26,4.23,4.23,0,0,1,2.8-.87,5.12,5.12,0,0,1,2.11.41,3.28,3.28,0,0,1,1.41,1.18,3.43,3.43,0,0,1,.53,1.8l-1.38.11a2.27,2.27,0,0,0-.77-1.64,2.86,2.86,0,0,0-1.86-.54,3.1,3.1,0,0,0-1.85.47,1.43,1.43,0,0,0-.64,1.21,1.3,1.3,0,0,0,.46,1.07,6.27,6.27,0,0,0,2.11.77,14.37,14.37,0,0,1,2.25.66,3.56,3.56,0,0,1,1.5,1.14,2.8,2.8,0,0,1,.51,1.69,3.08,3.08,0,0,1-.54,1.77,3.38,3.38,0,0,1-1.44,1.22,5.29,5.29,0,0,1-2.21.41,4.73,4.73,0,0,1-3.2-1A3.68,3.68,0,0,1,1514.23,1265.38Z"></path><path class="cls-28" d="M1523.71,1269l4.2-5.91-3.7-5.43h1.7l2,2.91a12.91,12.91,0,0,1,.86,1.39,13.73,13.73,0,0,1,.86-1.29l2.19-3h1.54l-3.79,5.34,4.09,6h-1.76l-2.74-4c-.15-.23-.3-.48-.46-.76-.25.41-.42.69-.53.85l-2.72,4Z"></path><path class="cls-28" d="M1539.35,1269H1538v-8.87a7.12,7.12,0,0,1-1.23.95,8.82,8.82,0,0,1-1.43.73v-1.35a8.15,8.15,0,0,0,2-1.32,5.1,5.1,0,0,0,1.18-1.52h.87Z"></path><path class="cls-28" d="M1549.76,1267.69V1269h-7.16a3.39,3.39,0,0,1,.57-1.82,10.47,10.47,0,0,1,2.2-2.37,14.84,14.84,0,0,0,2.44-2.47,3,3,0,0,0,.57-1.62,1.8,1.8,0,0,0-.59-1.41,2,2,0,0,0-1.45-.55,2.07,2.07,0,0,0-1.52.59,2.26,2.26,0,0,0-.6,1.69l-1.37-.15a3.25,3.25,0,0,1,3.53-3.27,3.09,3.09,0,0,1,3.36,3.13,3.68,3.68,0,0,1-.66,2.08,16.25,16.25,0,0,1-2.53,2.65c-.8.7-1.31,1.17-1.54,1.42a4.47,4.47,0,0,0-.56.76Z"></path><path class="cls-28" d="M1558.06,1260.46l-1.32.11a2.52,2.52,0,0,0-.56-1.24,1.72,1.72,0,0,0-1.28-.54A2.1,2.1,0,0,0,1553,1260a6.67,6.67,0,0,0-.61,3.15,3.16,3.16,0,0,1,1.15-1.12,3,3,0,0,1,3.72.62,3.7,3.7,0,0,1,1,2.68,4.43,4.43,0,0,1-.48,2.06,3.3,3.3,0,0,1-1.24,1.36,3.21,3.21,0,0,1-1.67.44,3.38,3.38,0,0,1-2.7-1.26,6.62,6.62,0,0,1-1.06-4.23c0-2.2.36-3.76,1.08-4.69a3.39,3.39,0,0,1,2.79-1.39,3.05,3.05,0,0,1,2.07.72A3.22,3.22,0,0,1,1558.06,1260.46Zm-5.42,4.9a2.82,2.82,0,0,0,.67,2,2.07,2.07,0,0,0,1.57.75,1.82,1.82,0,0,0,1.4-.7,2.86,2.86,0,0,0,.62-1.94,2.65,2.65,0,0,0-.61-1.87,2,2,0,0,0-1.5-.67,2.05,2.05,0,0,0-1.51.67A2.44,2.44,0,0,0,1552.64,1265.36Z"></path><path class="cls-28" d="M1566.6,1267.69V1269h-7.17a3.39,3.39,0,0,1,.57-1.82,10.47,10.47,0,0,1,2.2-2.37,14.44,14.44,0,0,0,2.44-2.47,3,3,0,0,0,.58-1.62,1.83,1.83,0,0,0-.59-1.41,2.23,2.23,0,0,0-3,0,2.26,2.26,0,0,0-.6,1.69l-1.37-.15a3.25,3.25,0,0,1,3.54-3.27,3.19,3.19,0,0,1,2.51.95,3.24,3.24,0,0,1,.85,2.18,3.7,3.7,0,0,1-.67,2.08,15.82,15.82,0,0,1-2.53,2.65c-.79.7-1.31,1.17-1.54,1.42a4.47,4.47,0,0,0-.56.76Z"></path><path class="cls-28" d="M1232.4,1203.75v-7.92h-3.05v-1.61h8.16v1.61h-3v7.92Z"></path><path class="cls-28" d="M1237.82,1201.21v-1.83h3.87v1.83Z"></path><path class="cls-28" d="M1242.84,1194.22H1247a13.27,13.27,0,0,1,1.81.09,2.85,2.85,0,0,1,1.07.39,2.52,2.52,0,0,1,.79.8,2,2,0,0,1,.32,1.12,2.08,2.08,0,0,1-.39,1.22,2.27,2.27,0,0,1-1.06.84,2.74,2.74,0,0,1,1.45.87,2.21,2.21,0,0,1,.5,1.43,2.75,2.75,0,0,1-.32,1.27,2.63,2.63,0,0,1-.89,1,3,3,0,0,1-1.39.45c-.35,0-1.18.06-2.5.07h-3.5Zm2.07,1.58V1198h1.36c.81,0,1.31,0,1.51,0a1.54,1.54,0,0,0,.84-.35,1,1,0,0,0,.3-.74,1,1,0,0,0-.26-.72,1.22,1.22,0,0,0-.78-.33c-.21,0-.8,0-1.78,0Zm0,3.79v2.55h1.92a9.78,9.78,0,0,0,1.42-.06,1.35,1.35,0,0,0,.76-.38,1.13,1.13,0,0,0,.29-.81,1.15,1.15,0,0,0-.23-.72,1.25,1.25,0,0,0-.64-.44,7.64,7.64,0,0,0-1.84-.14Z"></path><path class="cls-28" d="M1253.19,1203.75v-9.53h7.62v1.61h-5.54v2.11h5.15v1.61h-5.15v2.59H1261v1.61Z"></path><path class="cls-28" d="M1272,1203.75h-2.25l-.9-2.17h-4.11l-.84,2.17h-2.2l4-9.53h2.19Zm-3.82-3.77-1.41-3.54-1.39,3.54Z"></path><path class="cls-28" d="M1273.09,1203.75v-9.53h3.11l1.86,6.5,1.84-6.5H1283v9.53h-1.93v-7.5l-2,7.5h-2l-2-7.5v7.5Z"></path><path class="cls-28" d="M1284.83,1201.21v-1.83h3.87v1.83Z"></path><path class="cls-28" d="M1289.32,1200.65l2-.19a2.26,2.26,0,0,0,.74,1.39,2.37,2.37,0,0,0,1.5.44,2.45,2.45,0,0,0,1.51-.39,1.14,1.14,0,0,0,.51-.92.81.81,0,0,0-.22-.58,1.73,1.73,0,0,0-.74-.41c-.24-.08-.8-.22-1.66-.42a5.83,5.83,0,0,1-2.34-.94,2.4,2.4,0,0,1-1-1.92,2.31,2.31,0,0,1,.45-1.36,2.71,2.71,0,0,1,1.28-1,5.51,5.51,0,0,1,2-.33,4.59,4.59,0,0,1,2.91.78,2.75,2.75,0,0,1,1,2.1l-2.08.08a1.61,1.61,0,0,0-.57-1,2.17,2.17,0,0,0-1.31-.32,2.55,2.55,0,0,0-1.42.34.68.68,0,0,0-.32.59.72.72,0,0,0,.3.58,5.77,5.77,0,0,0,1.91.64,10.41,10.41,0,0,1,2.24.69,2.57,2.57,0,0,1,1.54,2.48,2.66,2.66,0,0,1-.49,1.54,2.94,2.94,0,0,1-1.39,1.06,6.21,6.21,0,0,1-2.23.35,4.65,4.65,0,0,1-3-.84A3.55,3.55,0,0,1,1289.32,1200.65Z"></path><path class="cls-28" d="M1298.91,1201.22l1.91-.22a1.62,1.62,0,0,0,.49,1,1.37,1.37,0,0,0,1,.35,1.4,1.4,0,0,0,1-.42,1.6,1.6,0,0,0,.42-1.16,1.51,1.51,0,0,0-.4-1.09,1.33,1.33,0,0,0-1-.41,3.74,3.74,0,0,0-.9.14l.22-1.49a1.78,1.78,0,0,0,1.22-.32,1.12,1.12,0,0,0,.42-.91,1,1,0,0,0-.31-.76,1.17,1.17,0,0,0-.82-.29,1.2,1.2,0,0,0-.86.33,1.44,1.44,0,0,0-.44.94l-1.81-.28a3.38,3.38,0,0,1,.57-1.38,2.53,2.53,0,0,1,1.06-.82,4,4,0,0,1,1.53-.29,3.15,3.15,0,0,1,2.33.86,2.14,2.14,0,0,1,.72,1.58,2.23,2.23,0,0,1-1.48,2,2.42,2.42,0,0,1,1.41.79,2.15,2.15,0,0,1,.53,1.48,2.8,2.8,0,0,1-1,2.14,3.9,3.9,0,0,1-4.77.13A2.82,2.82,0,0,1,1298.91,1201.22Z"></path><path class="cls-28" d="M1314,1200.24l2,.59a4.1,4.1,0,0,1-1.53,2.32,4.61,4.61,0,0,1-2.73.76,4.54,4.54,0,0,1-3.36-1.3,4.72,4.72,0,0,1-1.32-3.54,5,5,0,0,1,1.32-3.7,4.73,4.73,0,0,1,3.48-1.31,4.49,4.49,0,0,1,3.07,1,3.82,3.82,0,0,1,1,1.75l-2.06.46a1.94,1.94,0,0,0-.76-1.17,2.24,2.24,0,0,0-1.4-.43,2.4,2.4,0,0,0-1.85.76,3.51,3.51,0,0,0-.71,2.46,3.78,3.78,0,0,0,.7,2.58,2.34,2.34,0,0,0,1.82.77,2.21,2.21,0,0,0,1.42-.49A2.76,2.76,0,0,0,1314,1200.24Z"></path><path class="cls-28" d="M1317.28,1200.2a3.42,3.42,0,0,1,.49-1.76,3.19,3.19,0,0,1,1.37-1.3,4.29,4.29,0,0,1,2-.45,3.87,3.87,0,0,1,2.77,1,3.61,3.61,0,0,1,0,5.16,3.81,3.81,0,0,1-2.74,1,4.54,4.54,0,0,1-2-.43,3,3,0,0,1-1.41-1.25A3.9,3.9,0,0,1,1317.28,1200.2Zm2,.1a2.19,2.19,0,0,0,.53,1.57,1.73,1.73,0,0,0,1.29.54,1.7,1.7,0,0,0,1.29-.54,2.21,2.21,0,0,0,.53-1.59,2.18,2.18,0,0,0-.53-1.56,1.7,1.7,0,0,0-1.29-.54,1.73,1.73,0,0,0-1.29.54A2.2,2.2,0,0,0,1319.3,1200.3Z"></path><path class="cls-28" d="M1328.39,1203.75h-2v-6.91h1.83v1a3,3,0,0,1,.84-.91,1.61,1.61,0,0,1,.85-.22,2.66,2.66,0,0,1,1.3.34l-.61,1.59a1.89,1.89,0,0,0-.93-.29,1.16,1.16,0,0,0-.7.21,1.41,1.41,0,0,0-.45.76,10.16,10.16,0,0,0-.16,2.31Z"></path><path class="cls-28" d="M1336.39,1201.55l2,.3a3,3,0,0,1-1.19,1.53,3.73,3.73,0,0,1-2,.52,3.43,3.43,0,0,1-2.87-1.17,3.7,3.7,0,0,1-.74-2.38,3.62,3.62,0,0,1,1-2.69,3.29,3.29,0,0,1,2.44-1,3.42,3.42,0,0,1,2.62,1,4.23,4.23,0,0,1,.92,3.11h-4.93a1.8,1.8,0,0,0,.47,1.27,1.56,1.56,0,0,0,1.14.45,1.25,1.25,0,0,0,.78-.24A1.39,1.39,0,0,0,1336.39,1201.55Zm.11-1.85a1.64,1.64,0,0,0-.44-1.2,1.38,1.38,0,0,0-1-.41,1.4,1.4,0,0,0-1.06.43,1.62,1.62,0,0,0-.42,1.18Z"></path><path class="cls-28" d="M1238.17,1223.11v2.13h-8.68a5.38,5.38,0,0,1,.85-2.29,15.81,15.81,0,0,1,2.78-2.86,16.38,16.38,0,0,0,2.05-1.95,2.42,2.42,0,0,0,.51-1.41,1.52,1.52,0,0,0-.44-1.17,1.73,1.73,0,0,0-1.23-.42,1.7,1.7,0,0,0-1.23.44,2,2,0,0,0-.53,1.43l-2.47-.23a3.66,3.66,0,0,1,1.38-2.71,4.92,4.92,0,0,1,2.91-.82,4.36,4.36,0,0,1,3,1,3,3,0,0,1,1.1,2.37,3.86,3.86,0,0,1-.32,1.54,5.76,5.76,0,0,1-1,1.52,14.35,14.35,0,0,1-1.62,1.53c-.78.66-1.27,1.1-1.48,1.32a4.41,4.41,0,0,0-.51.63Z"></path><path class="cls-28" d="M1248.2,1223.11v2.13h-8.68a5.38,5.38,0,0,1,.85-2.29,16.18,16.18,0,0,1,2.78-2.86,16.38,16.38,0,0,0,2-1.95,2.37,2.37,0,0,0,.52-1.41,1.49,1.49,0,0,0-.45-1.17,1.73,1.73,0,0,0-1.23-.42,1.71,1.71,0,0,0-1.23.44,2.08,2.08,0,0,0-.53,1.43l-2.47-.23a3.64,3.64,0,0,1,1.39-2.71,4.87,4.87,0,0,1,2.9-.82,4.4,4.4,0,0,1,3,1,3,3,0,0,1,1.09,2.37,4,4,0,0,1-.31,1.54,6.31,6.31,0,0,1-1,1.52,14.35,14.35,0,0,1-1.62,1.53c-.79.66-1.28,1.1-1.49,1.32a4.41,4.41,0,0,0-.51.63Z"></path><path class="cls-28" d="M1249.08,1225.44l3.2-12.35h1.86l-3.24,12.35Z"></path><path class="cls-28" d="M1261.22,1225.24h-2.48v-8.63a8.78,8.78,0,0,1-3.2,1.74v-2.08a7.59,7.59,0,0,0,2.11-1.11,4.26,4.26,0,0,0,1.56-1.91h2Z"></path><path class="cls-28" d="M1270.26,1225.24h-2.48v-8.63a8.78,8.78,0,0,1-3.2,1.74v-2.08a7.59,7.59,0,0,0,2.11-1.11,4.39,4.39,0,0,0,1.56-1.91h2Z"></path><path class="cls-28" d="M1273.16,1225.44l3.2-12.35h1.86l-3.24,12.35Z"></path><path class="cls-28" d="M1283.15,1213.25a3.63,3.63,0,0,1,2.93,1.24q1.26,1.46,1.26,4.86t-1.27,4.87a3.61,3.61,0,0,1-2.92,1.22,3.79,3.79,0,0,1-3-1.34c-.77-.89-1.15-2.48-1.15-4.78s.42-3.86,1.27-4.85A3.61,3.61,0,0,1,1283.15,1213.25Zm0,1.89a1.27,1.27,0,0,0-.8.27,1.72,1.72,0,0,0-.55.95,12.22,12.22,0,0,0-.25,3,11.71,11.71,0,0,0,.23,2.89,2,2,0,0,0,.57,1,1.32,1.32,0,0,0,1.6,0,1.72,1.72,0,0,0,.55-1,12.12,12.12,0,0,0,.25-3,11.65,11.65,0,0,0-.23-2.89,2,2,0,0,0-.57-1A1.27,1.27,0,0,0,1283.15,1215.14Z"></path><path class="cls-28" d="M1297.36,1223.11v2.13h-8.68a5.38,5.38,0,0,1,.85-2.29,15.81,15.81,0,0,1,2.78-2.86,16.38,16.38,0,0,0,2-1.95,2.42,2.42,0,0,0,.51-1.41,1.49,1.49,0,0,0-.44-1.17,1.73,1.73,0,0,0-1.23-.42,1.7,1.7,0,0,0-1.23.44,2,2,0,0,0-.53,1.43l-2.47-.23a3.66,3.66,0,0,1,1.38-2.71,4.92,4.92,0,0,1,2.91-.82,4.36,4.36,0,0,1,3,1,3,3,0,0,1,1.1,2.37,3.86,3.86,0,0,1-.32,1.54,5.76,5.76,0,0,1-1,1.52,14.35,14.35,0,0,1-1.62,1.53c-.78.66-1.27,1.1-1.48,1.32a4.41,4.41,0,0,0-.51.63Z"></path><path class="cls-28" d="M1307.88,1225.24l-4.61-12h2.82l3.27,8.85,3.16-8.85h2.77l-4.62,12Z"></path><path class="cls-28" d="M1316,1222.07l2.39-.27a2,2,0,0,0,.62,1.3,1.75,1.75,0,0,0,1.21.45,1.7,1.7,0,0,0,1.29-.54,2,2,0,0,0,.53-1.45,1.88,1.88,0,0,0-.5-1.37,1.68,1.68,0,0,0-1.23-.51,4.84,4.84,0,0,0-1.13.17l.27-1.86a2.24,2.24,0,0,0,1.53-.41,1.38,1.38,0,0,0,.53-1.13,1.24,1.24,0,0,0-.39-1,1.45,1.45,0,0,0-1-.36,1.52,1.52,0,0,0-1.08.41,1.85,1.85,0,0,0-.55,1.19l-2.28-.36a4.47,4.47,0,0,1,.72-1.73,3.1,3.1,0,0,1,1.34-1,4.73,4.73,0,0,1,1.92-.37,4,4,0,0,1,2.93,1.07,2.72,2.72,0,0,1,.9,2,2.83,2.83,0,0,1-1.85,2.51,3,3,0,0,1,1.77,1,2.78,2.78,0,0,1,.67,1.86,3.45,3.45,0,0,1-1.25,2.67,4.92,4.92,0,0,1-6,.18A3.55,3.55,0,0,1,1316,1222.07Z"></path><path class="cls-28" d="M1326.64,1225.24V1223h2.47v2.29Z"></path><path class="cls-28" d="M1335.3,1213.25a3.66,3.66,0,0,1,2.94,1.24c.84,1,1.25,2.59,1.25,4.86s-.42,3.88-1.26,4.87a3.64,3.64,0,0,1-2.93,1.22,3.81,3.81,0,0,1-3-1.34c-.77-.89-1.15-2.48-1.15-4.78s.42-3.86,1.27-4.85A3.62,3.62,0,0,1,1335.3,1213.25Zm0,1.89a1.29,1.29,0,0,0-.8.27,1.78,1.78,0,0,0-.55.95,18.14,18.14,0,0,0,0,5.88,1.9,1.9,0,0,0,.58,1,1.24,1.24,0,0,0,.79.27,1.27,1.27,0,0,0,.8-.27,1.72,1.72,0,0,0,.55-1,12,12,0,0,0,.26-3,12.18,12.18,0,0,0-.23-2.89,2.11,2.11,0,0,0-.58-1A1.27,1.27,0,0,0,1335.3,1215.14Z"></path><path class="cls-28" d="M1297.62,1299.42l-3.15-11.33h2.73l2,7.78,2.41-7.78h3.17l2.32,7.92,2-7.92h2.68l-3.2,11.33h-2.83l-2.64-8.47-2.62,8.47Z"></path><path class="cls-28" d="M1313,1290.1v-2h2.54v2Zm0,9.32v-8.21h2.54v8.21Z"></path><path class="cls-28" d="M1318.15,1299.42v-11.33h9V1290h-6.39v2.69h5.52v1.91h-5.52v4.82Z"></path><path class="cls-28" d="M1329.38,1290.1v-2h2.54v2Zm0,9.32v-8.21h2.54v8.21Z"></path><path class="cls-28" d="M1466.76,1322.37V1314h1.89v7h4.7v1.43Z"></path><path class="cls-28" d="M1474.32,1318.2a4.85,4.85,0,0,1,.43-2.17,3.88,3.88,0,0,1,.87-1.16,3.79,3.79,0,0,1,1.21-.76,5.74,5.74,0,0,1,2-.33,4.69,4.69,0,0,1,3.32,1.15,4.23,4.23,0,0,1,1.24,3.22,4.19,4.19,0,0,1-1.23,3.21,5.35,5.35,0,0,1-6.63,0A4.12,4.12,0,0,1,1474.32,1318.2Zm2-.06a3,3,0,0,0,.73,2.17,2.73,2.73,0,0,0,3.73,0,3,3,0,0,0,.72-2.21,3,3,0,0,0-.7-2.16,2.8,2.8,0,0,0-3.76,0A3,3,0,0,0,1476.27,1318.14Z"></path><path class="cls-28" d="M1484.89,1322.37v-8.45h4a7.61,7.61,0,0,1,2.19.23,2.15,2.15,0,0,1,1.09.81,2.28,2.28,0,0,1,.41,1.33,2.14,2.14,0,0,1-.62,1.57,3.2,3.2,0,0,1-1.86.78,4,4,0,0,1,1,.71,9.25,9.25,0,0,1,1.08,1.37l1.15,1.65h-2.27l-1.36-1.84a11.84,11.84,0,0,0-1-1.24,1.45,1.45,0,0,0-.57-.35,3.17,3.17,0,0,0-.95-.1h-.39v3.53Zm1.89-4.88h1.4a8,8,0,0,0,1.7-.1,1,1,0,0,0,.53-.36,1,1,0,0,0,.2-.63,1,1,0,0,0-.26-.69,1.1,1.1,0,0,0-.71-.33q-.23,0-1.38,0h-1.48Z"></path><path class="cls-28" d="M1502.79,1322.37h-2.06l-.82-1.92h-3.74l-.78,1.92h-2l3.65-8.45h2Zm-3.49-3.35-1.29-3.13-1.26,3.13Z"></path><path class="cls-28" d="M1552.28,1311.89v-1.42h4.08v3.36a5.18,5.18,0,0,1-1.72.91,6.78,6.78,0,0,1-2.29.4,5.58,5.58,0,0,1-2.56-.56,3.73,3.73,0,0,1-1.65-1.59,4.79,4.79,0,0,1-.54-2.25,4.44,4.44,0,0,1,.61-2.34,4,4,0,0,1,1.79-1.57,5.35,5.35,0,0,1,2.25-.42,4.82,4.82,0,0,1,2.72.66,2.94,2.94,0,0,1,1.27,1.82l-1.88.32a1.77,1.77,0,0,0-.75-1,2.42,2.42,0,0,0-1.36-.36,2.7,2.7,0,0,0-2,.71,2.8,2.8,0,0,0-.74,2.1,3.07,3.07,0,0,0,.75,2.26,2.6,2.6,0,0,0,1.94.75,3.56,3.56,0,0,0,1.19-.21,4.3,4.3,0,0,0,1-.51v-1.07Z"></path><path class="cls-28" d="M1558.1,1315v-8.44h3a11.61,11.61,0,0,1,2.25.13,2.44,2.44,0,0,1,1.35.82,2.48,2.48,0,0,1,.54,1.65,2.54,2.54,0,0,1-.31,1.31,2.45,2.45,0,0,1-.8.83,3,3,0,0,1-1,.4,12,12,0,0,1-2,.12H1560V1315Zm1.9-7v2.4h1a5.26,5.26,0,0,0,1.5-.14,1.26,1.26,0,0,0,.59-.41,1.08,1.08,0,0,0,.21-.66,1,1,0,0,0-.3-.76,1.33,1.33,0,0,0-.76-.37,9.71,9.71,0,0,0-1.36-.06Z"></path><path class="cls-28" d="M1566.36,1312.25l1.84-.17a2,2,0,0,0,.67,1.23,2.21,2.21,0,0,0,1.37.39,2.3,2.3,0,0,0,1.38-.34,1,1,0,0,0,.46-.82.72.72,0,0,0-.19-.51,1.58,1.58,0,0,0-.68-.36c-.23-.07-.73-.2-1.52-.37a5.48,5.48,0,0,1-2.13-.84,2.1,2.1,0,0,1-.87-1.7,2.05,2.05,0,0,1,.41-1.21,2.55,2.55,0,0,1,1.17-.85,5,5,0,0,1,1.84-.29,4.31,4.31,0,0,1,2.66.69,2.4,2.4,0,0,1,.94,1.86l-1.9.08a1.41,1.41,0,0,0-.52-.94,2,2,0,0,0-1.2-.28,2.37,2.37,0,0,0-1.29.3.61.61,0,0,0-.3.53.64.64,0,0,0,.28.51,5.25,5.25,0,0,0,1.74.56,10,10,0,0,1,2,.61,2.54,2.54,0,0,1,1,.86,2.31,2.31,0,0,1,.37,1.35,2.27,2.27,0,0,1-.44,1.35,2.63,2.63,0,0,1-1.27.95,5.94,5.94,0,0,1-2,.3,4.35,4.35,0,0,1-2.73-.74A3.09,3.09,0,0,1,1566.36,1312.25Z"></path></g></svg>