<svg xmlns:inkscape="http://www.inkscape.org/namespaces/inkscape" xmlns:sodipodi="http://sodipodi.sourceforge.net/DTD/sodipodi-0.dtd" xmlns="http://www.w3.org/2000/svg" xmlns:svg="http://www.w3.org/2000/svg" version="1.1" id="svg105" sodipodi:docname="thinknode_m1.svg" inkscape:version="1.4 (e7c3feb1, 2024-10-09)" viewBox="397.31 77.24 361 863.17">
  <sodipodi:namedview id="namedview105" pagecolor="#ffffff" bordercolor="#000000" borderopacity="0.25" inkscape:showpageshadow="2" inkscape:pageopacity="0.0" inkscape:pagecheckerboard="0" inkscape:deskcolor="#d1d1d1" inkscape:zoom="4.066786" inkscape:cx="564.94244" inkscape:cy="741.49463" inkscape:window-width="1472" inkscape:window-height="890" inkscape:window-x="0" inkscape:window-y="38" inkscape:window-maximized="1" inkscape:current-layer="Layer_3"/>
  <defs id="defs1">
    <style id="style1">.cls-1{fill:#353535;}.cls-2{fill:#262626;}.cls-3{fill:#cccccb;}.cls-4{fill:#2b2b2b;}.cls-5{fill:#f05043;}.cls-6{fill:#3d3d3d;}.cls-7{fill:#231f20;}.cls-8{fill:none;stroke:#000;stroke-miterlimit:10;}</style>
  </defs>
  <g id="Layer_3" data-name="Layer 3">
    <path class="cls-1" d="M720.82,449.91h11.45a19.68,19.68,0,0,1,19.67,19.68V905.12a28.48,28.48,0,0,1-28.47,28.48H425.72A27.77,27.77,0,0,1,397.81,906V470.82a21,21,0,0,1,21.13-20.91h23.74" id="path1"/>
    <rect class="cls-2" x="447.12" y="523.83" width="266.09" height="266.09" rx="22.7" id="rect1"/>
    <rect class="cls-1" x="465.51" y="542.22" width="229.3" height="229.3" rx="12.91" id="rect2"/>
    <rect class="cls-3" x="476.07" y="552.78" width="208.17" height="208.17" rx="7.83" id="rect3"/>
    <path class="cls-1" d="M507.38,77.74H472.16a7,7,0,0,0-7,7V359.93L452.2,396.26v39.91H561V396.26l-13.3-36V84.15a6.41,6.41,0,0,0-6.41-6.41Z" id="path3"/>
    <rect class="cls-2" x="454.25" y="436.17" width="104.38" height="3.65" id="rect4"/>
    <polygon class="cls-1" points="442.68 449.91 448.16 440.69 562.98 440.69 570.51 449.91 442.68 449.91" id="polygon4"/>
    <rect class="cls-1" x="604.37" y="355.96" width="105.26" height="60.65" rx="4.8" id="rect5"/>
    <path class="cls-2" d="M611.2,356v-5.48a3.13,3.13,0,0,1,3.13-3.13h86.35a3.13,3.13,0,0,1,3.13,3.13V356Z" id="path5"/>
    <rect class="cls-2" x="611.07" y="416.61" width="92.74" height="23.22" id="rect6"/>
    <polygon class="cls-1" points="592.99 449.91 598.47 440.69 713.42 440.69 720.82 449.91 592.99 449.91" id="polygon6"/>
    <rect class="cls-2" x="751.94" y="555.13" width="5.87" height="47.48" id="rect7"/>
    <path class="cls-2" d="M751.94,683.87h2.72a3.15,3.15,0,0,1,3.15,3.15v49.17a3.15,3.15,0,0,1-3.15,3.15h-2.72a0,0,0,0,1,0,0V683.87A0,0,0,0,1,751.94,683.87Z" id="path7"/>
    <path class="cls-2" d="M751.94,781.43h2.72a3.15,3.15,0,0,1,3.15,3.15v49.17a3.15,3.15,0,0,1-3.15,3.15h-2.72a0,0,0,0,1,0,0V781.43A0,0,0,0,1,751.94,781.43Z" id="path8"/>
    <path class="cls-4" d="M425.72,933.6l17.46-41.05a15.2,15.2,0,0,1,14-9.25H702.88A15.19,15.19,0,0,1,717,892.9l15.52,39.22" id="path9"/>
    <rect class="cls-2" x="505.03" y="841.57" width="147.52" height="24.65" rx="12.33" id="rect9"/>
    <circle class="cls-5" cx="518.72" cy="853.89" r="5.48" id="circle9"/>
    <circle class="cls-1" cx="640.14" cy="853.89" r="5.48" id="circle10"/>
    <circle class="cls-1" cx="541.83" cy="853.89" r="5.48" id="circle11"/>
    <circle class="cls-1" cx="567.67" cy="853.89" r="5.48" id="circle12"/>
    <circle class="cls-1" cx="593.51" cy="853.89" r="5.48" id="circle13"/>
    <circle class="cls-1" cx="616.82" cy="853.89" r="5.48" id="circle14"/>
    <path class="cls-4" d="M428.2,933.6v4.1a2.21,2.21,0,0,0,2.22,2.21h11.22a2.21,2.21,0,0,0,2.21-2.21v-4.1" id="path14"/>
    <path class="cls-4" d="M713.2,933.6v4.1a2.21,2.21,0,0,0,2.22,2.21h11.22a2.21,2.21,0,0,0,2.21-2.21v-4.1" id="path15"/>
    <path class="cls-6" d="M494.46,449.91v5.59a12.22,12.22,0,0,0,1.05,4.95l8.6,19.42a9.43,9.43,0,0,0,8.62,5.61h3.61a9.43,9.43,0,0,0,9.43-9.43V449.91" id="path16"/>
    <path class="cls-6" d="M672.56,449.91v5.59a12.22,12.22,0,0,1-1,4.95l-8.6,19.42a9.43,9.43,0,0,1-8.62,5.61h-3.61a9.43,9.43,0,0,1-9.43-9.43V449.91" id="path17"/>
    <path class="cls-6" d="M532.42,449.91h20.35a0,0,0,0,1,0,0v28.72a6.85,6.85,0,0,1-6.85,6.85h-6.65a6.85,6.85,0,0,1-6.85-6.85V449.91A0,0,0,0,1,532.42,449.91Z" id="path18"/>
    <path class="cls-6" d="M559.81,449.91h20.35a0,0,0,0,1,0,0v28.72a6.85,6.85,0,0,1-6.85,6.85h-6.65a6.85,6.85,0,0,1-6.85-6.85V449.91A0,0,0,0,1,559.81,449.91Z" id="path19"/>
    <path class="cls-6" d="M587.2,449.91h20.35a0,0,0,0,1,0,0v28.72a6.85,6.85,0,0,1-6.85,6.85h-6.65a6.85,6.85,0,0,1-6.85-6.85V449.91A0,0,0,0,1,587.2,449.91Z" id="path20"/>
    <path class="cls-6" d="M613.81,449.91h20.35a0,0,0,0,1,0,0v28.72a6.85,6.85,0,0,1-6.85,6.85h-6.65a6.85,6.85,0,0,1-6.85-6.85V449.91A0,0,0,0,1,613.81,449.91Z" id="path21"/>
    <path class="cls-1" d="M477,924.32h-3V903.09h-7.46v-2.65h17.9v2.65H477Z" id="path51"/>
    <path class="cls-1" d="M490.59,906.36c0,.43,0,.86,0,1.31s-.07.85-.12,1.2h.2a5.17,5.17,0,0,1,1.44-1.54,7.08,7.08,0,0,1,1.94-.92,7.81,7.81,0,0,1,2.21-.31,8.61,8.61,0,0,1,3.63.68,4.62,4.62,0,0,1,2.19,2.13,8.22,8.22,0,0,1,.73,3.74v11.67h-2.9V912.85a4.72,4.72,0,0,0-1-3.24,3.92,3.92,0,0,0-3.05-1.07,5.65,5.65,0,0,0-3.14.75,4.07,4.07,0,0,0-1.62,2.21,11.17,11.17,0,0,0-.49,3.56v9.26h-2.94V898.91h2.94Z" id="path52"/>
    <path class="cls-1" d="M509.82,899.67a1.73,1.73,0,0,1,1.19.46,2.17,2.17,0,0,1,0,2.82,1.74,1.74,0,0,1-1.19.47,1.77,1.77,0,0,1-1.24-.47,2.24,2.24,0,0,1,0-2.82A1.76,1.76,0,0,1,509.82,899.67Zm1.44,6.73v17.92h-2.94V906.4Z" id="path53"/>
    <path class="cls-1" d="M525.58,906.06a6.8,6.8,0,0,1,4.85,1.56c1.09,1,1.63,2.71,1.63,5v11.67h-2.91V912.85a4.67,4.67,0,0,0-1-3.24,3.88,3.88,0,0,0-3-1.07c-2,0-3.36.56-4.11,1.67a8.54,8.54,0,0,0-1.14,4.82v9.29H517V906.4h2.37l.44,2.44h.16a5.68,5.68,0,0,1,1.49-1.56,6.41,6.41,0,0,1,2-.92A8.13,8.13,0,0,1,525.58,906.06Z" id="path54"/>
    <path class="cls-1" d="M540.53,912.18c0,.36,0,.83,0,1.41s-.07,1.08-.09,1.5h.14l.6-.77.82-1c.28-.34.52-.63.72-.85l5.72-6.05h3.44l-7.26,7.66,7.76,10.26h-3.54L542.57,916l-2,1.78v6.58h-2.91V898.91h2.91Z" id="path55"/>
    <path class="cls-1" d="M574.81,924.32H571.3l-12.78-19.83h-.13c0,.51.08,1.12.11,1.82s.07,1.45.1,2.24,0,1.61,0,2.43v13.34h-2.77V900.44h3.48l12.74,19.77h.13c0-.36-.05-.89-.08-1.6s-.07-1.5-.1-2.35,0-1.62,0-2.34V900.44h2.81Z" id="path56"/>
    <path class="cls-1" d="M596.48,915.33a12.32,12.32,0,0,1-.58,4,8.32,8.32,0,0,1-1.67,2.93,7,7,0,0,1-2.65,1.82,9.31,9.31,0,0,1-3.46.62,8.63,8.63,0,0,1-3.28-.62,7.29,7.29,0,0,1-2.61-1.82,8.57,8.57,0,0,1-1.72-2.93,11.76,11.76,0,0,1-.62-4,11.43,11.43,0,0,1,1-5,7.12,7.12,0,0,1,2.87-3.14,8.76,8.76,0,0,1,4.45-1.09,8.4,8.4,0,0,1,4.3,1.09,7.45,7.45,0,0,1,2.91,3.14A11,11,0,0,1,596.48,915.33Zm-13.54,0a10.93,10.93,0,0,0,.55,3.66,4.82,4.82,0,0,0,1.72,2.39,5.69,5.69,0,0,0,5.95,0,4.78,4.78,0,0,0,1.73-2.39,10.93,10.93,0,0,0,.55-3.66,10.36,10.36,0,0,0-.57-3.65,4.84,4.84,0,0,0-1.72-2.32,5,5,0,0,0-3-.82,4.5,4.5,0,0,0-4,1.8A8.79,8.79,0,0,0,582.94,915.33Z" id="path57"/>
    <path class="cls-1" d="M607.49,924.66a6.67,6.67,0,0,1-5.35-2.33c-1.34-1.54-2-3.86-2-6.94s.67-5.4,2-7a6.74,6.74,0,0,1,5.37-2.36,7.71,7.71,0,0,1,2.44.35,6.37,6.37,0,0,1,1.81,1,6.58,6.58,0,0,1,1.3,1.34h.2c0-.29-.06-.72-.11-1.29s-.09-1-.09-1.36v-7.15H616v25.41h-2.38l-.43-2.4h-.14a6.51,6.51,0,0,1-1.3,1.38,5.9,5.9,0,0,1-1.82,1A7.4,7.4,0,0,1,607.49,924.66Zm.46-2.44c1.9,0,3.23-.52,4-1.56a7.84,7.84,0,0,0,1.16-4.7v-.53a9.84,9.84,0,0,0-1.11-5.14c-.73-1.19-2.09-1.79-4.08-1.79a4,4,0,0,0-3.56,1.89,9.46,9.46,0,0,0-1.19,5.07,9,9,0,0,0,1.19,5A4,4,0,0,0,608,922.22Z" id="path58"/>
    <path class="cls-1" d="M628.62,906.06a7.53,7.53,0,0,1,4,1,6.62,6.62,0,0,1,2.54,2.82,9.69,9.69,0,0,1,.89,4.27v1.77H623.74a6.75,6.75,0,0,0,1.56,4.63,5.42,5.42,0,0,0,4.16,1.59,12.58,12.58,0,0,0,3-.32,16.78,16.78,0,0,0,2.72-.92v2.58a13.84,13.84,0,0,1-2.71.89,16.15,16.15,0,0,1-3.17.28,9.46,9.46,0,0,1-4.5-1,7.15,7.15,0,0,1-3-3.09,10.61,10.61,0,0,1-1.09-5,12,12,0,0,1,1-5,7.33,7.33,0,0,1,6.94-4.38Zm0,2.41a4.26,4.26,0,0,0-3.33,1.36,6.34,6.34,0,0,0-1.45,3.76h9.13a7.05,7.05,0,0,0-.47-2.68,3.94,3.94,0,0,0-1.42-1.79A4.33,4.33,0,0,0,628.59,908.47Z" id="path59"/>
    <path class="cls-1" d="M639.36,913h8.1v2.74h-8.1Z" id="path60"/>
    <path class="cls-1" d="M662.87,924.32,655,903.39h-.13c0,.44.08,1,.12,1.7s.06,1.45.08,2.26,0,1.65,0,2.49v14.48h-2.77V900.44h4.45L664.15,920h.13l7.49-19.57h4.42v23.88h-3V909.64c0-.78,0-1.55,0-2.32s.06-1.5.1-2.18.08-1.25.1-1.72h-.13l-8,20.9Z" id="path61"/>
    <path class="cls-1" d="M688.16,924.32V909.41c0-.63,0-1.3,0-2s0-1.42.07-2.1,0-1.27,0-1.76c-.35.38-.66.69-.92.92s-.6.54-1,.92l-2.41,2-1.57-2,6.26-4.89H691v23.88Z" id="path62"/>
    <path class="cls-1" d="M502.55,894.19l-2.22-2.37a14.1,14.1,0,0,1,18.94-.33l-2.13,2.44a10.9,10.9,0,0,0-7.16-2.69A10.78,10.78,0,0,0,502.55,894.19Z" id="path63"/>
    <path class="cls-1" d="M506.38,897.85l-2.4-2.18a8.08,8.08,0,0,1,11.61-.39l-2.24,2.33a4.85,4.85,0,0,0-7,.24Z" id="path64"/>
  </g>
  <g id="Layer_2" data-name="Layer 2">
    <path class="cls-8" d="M472.55,77.74h68.09a7.43,7.43,0,0,1,7.43,7.43V360.26a0,0,0,0,1,0,0h-83a0,0,0,0,1,0,0V85.17A7.43,7.43,0,0,1,472.55,77.74Z" id="path65"/>
    <line class="cls-8" x1="465.12" y1="123.91" x2="548.07" y2="123.91" id="line65"/>
    <line class="cls-8" x1="465.12" y1="149.74" x2="548.07" y2="149.74" id="line66"/>
    <polyline class="cls-8" points="465.12 360.26 452.2 396.26 452.2 436.17 560.99 436.17 560.99 396.26 548.07 360.26" id="polyline66"/>
    <line class="cls-8" x1="452.2" y1="396.26" x2="560.98" y2="396.26" id="line67"/>
    <path class="cls-8" d="M449.69,440.17H562a3.26,3.26,0,0,1,2.56,1.55l5.93,8.19H442.68l4-7.49A3.65,3.65,0,0,1,449.69,440.17Z" id="path67"/>
    <path class="cls-8" d="M600,440.17H712.33a3.24,3.24,0,0,1,2.56,1.55l5.93,8.19H593l4-7.49A3.65,3.65,0,0,1,600,440.17Z" id="path68"/>
    <line class="cls-8" x1="454.45" y1="436.17" x2="454.45" y2="439.83" id="line68"/>
    <line class="cls-8" x1="558.64" y1="436.17" x2="558.64" y2="439.83" id="line69"/>
    <rect class="cls-8" x="604.37" y="355.96" width="105.26" height="60.65" rx="4.87" id="rect69"/>
    <line class="cls-8" x1="611.07" y1="416.61" x2="611.07" y2="439.83" id="line70"/>
    <line class="cls-8" x1="703.81" y1="416.61" x2="703.81" y2="439.83" id="line71"/>
    <path class="cls-8" d="M614.2,347.35h86.48a3.13,3.13,0,0,1,3.13,3.13V356a0,0,0,0,1,0,0H611.07a0,0,0,0,1,0,0v-5.48A3.13,3.13,0,0,1,614.2,347.35Z" id="path71"/>
    <line class="cls-8" x1="570.51" y1="449.91" x2="592.99" y2="449.91" id="line72"/>
    <path class="cls-8" d="M720.82,449.91h11.45a19.68,19.68,0,0,1,19.67,19.68V905.12a28.48,28.48,0,0,1-28.47,28.48H425.72A27.77,27.77,0,0,1,397.81,906V470.82a21,21,0,0,1,21.13-20.91h23.74" id="path72"/>
    <rect class="cls-8" x="447.12" y="523.83" width="266.09" height="266.09" rx="22.7" id="rect72"/>
    <rect class="cls-8" x="465.51" y="542.22" width="229.3" height="229.3" rx="12.91" id="rect73"/>
    <rect class="cls-8" x="476.07" y="552.78" width="208.17" height="208.17" rx="7.83" id="rect74"/>
    <path class="cls-8" d="M494.46,449.91v5.59a12.22,12.22,0,0,0,1.05,4.95l8.6,19.42a9.43,9.43,0,0,0,8.62,5.61h3.61a9.43,9.43,0,0,0,9.43-9.43V449.91" id="path74"/>
    <path class="cls-8" d="M672.56,449.91v5.59a12.22,12.22,0,0,1-1,4.95l-8.6,19.42a9.43,9.43,0,0,1-8.62,5.61h-3.61a9.43,9.43,0,0,1-9.43-9.43V449.91" id="path75"/>
    <path class="cls-8" d="M532.42,449.91h20.35a0,0,0,0,1,0,0v28.72a6.85,6.85,0,0,1-6.85,6.85h-6.65a6.85,6.85,0,0,1-6.85-6.85V449.91A0,0,0,0,1,532.42,449.91Z" id="path76"/>
    <path class="cls-8" d="M559.81,449.91h20.35a0,0,0,0,1,0,0v28.72a6.85,6.85,0,0,1-6.85,6.85h-6.65a6.85,6.85,0,0,1-6.85-6.85V449.91A0,0,0,0,1,559.81,449.91Z" id="path77"/>
    <path class="cls-8" d="M587.2,449.91h20.35a0,0,0,0,1,0,0v28.72a6.85,6.85,0,0,1-6.85,6.85h-6.65a6.85,6.85,0,0,1-6.85-6.85V449.91A0,0,0,0,1,587.2,449.91Z" id="path78"/>
    <path class="cls-8" d="M613.81,449.91h20.35a0,0,0,0,1,0,0v28.72a6.85,6.85,0,0,1-6.85,6.85h-6.65a6.85,6.85,0,0,1-6.85-6.85V449.91A0,0,0,0,1,613.81,449.91Z" id="path79"/>
    <rect class="cls-8" x="751.94" y="555.13" width="5.87" height="47.48" id="rect79"/>
    <path class="cls-8" d="M751.94,683.87h2.72a3.15,3.15,0,0,1,3.15,3.15v49.17a3.15,3.15,0,0,1-3.15,3.15h-2.72a0,0,0,0,1,0,0V683.87A0,0,0,0,1,751.94,683.87Z" id="path80"/>
    <path class="cls-8" d="M751.94,781.43h2.72a3.15,3.15,0,0,1,3.15,3.15v49.17a3.15,3.15,0,0,1-3.15,3.15h-2.72a0,0,0,0,1,0,0V781.43A0,0,0,0,1,751.94,781.43Z" id="path81"/>
    <path class="cls-8" d="M425.72,933.6l17.46-41.05a15.2,15.2,0,0,1,14-9.25H702.88A15.19,15.19,0,0,1,717,892.9l15.52,39.22" id="path82"/>
    <rect class="cls-8" x="505.03" y="841.57" width="147.52" height="24.65" rx="12.33" id="rect82"/>
    <circle class="cls-8" cx="518.72" cy="853.89" r="5.48" id="circle82"/>
    <circle class="cls-8" cx="640.14" cy="853.89" r="5.48" id="circle83"/>
    <circle class="cls-8" cx="541.83" cy="853.89" r="5.48" id="circle84"/>
    <circle class="cls-8" cx="567.67" cy="853.89" r="5.48" id="circle85"/>
    <circle class="cls-8" cx="593.51" cy="853.89" r="5.48" id="circle86"/>
    <circle class="cls-8" cx="616.82" cy="853.89" r="5.48" id="circle87"/>
    <line class="cls-8" x1="430.68" y1="572.74" x2="430.68" y2="602.61" id="line87"/>
    <line class="cls-8" x1="424.42" y1="595.43" x2="424.42" y2="578.11" id="line88"/>
    <line class="cls-8" x1="438.21" y1="595.43" x2="438.21" y2="578.11" id="line89"/>
    <line class="cls-8" x1="430.68" y1="644.74" x2="430.68" y2="674.61" id="line90"/>
    <line class="cls-8" x1="424.42" y1="667.43" x2="424.42" y2="650.11" id="line91"/>
    <line class="cls-8" x1="438.21" y1="667.43" x2="438.21" y2="650.11" id="line92"/>
    <line class="cls-8" x1="430.68" y1="716.74" x2="430.68" y2="746.61" id="line93"/>
    <line class="cls-8" x1="424.42" y1="739.43" x2="424.42" y2="722.11" id="line94"/>
    <line class="cls-8" x1="438.21" y1="739.43" x2="438.21" y2="722.11" id="line95"/>
    <line class="cls-8" x1="730.03" y1="572.74" x2="730.03" y2="602.61" id="line96"/>
    <line class="cls-8" x1="723.77" y1="595.43" x2="723.77" y2="578.11" id="line97"/>
    <line class="cls-8" x1="737.56" y1="595.43" x2="737.56" y2="578.11" id="line98"/>
    <line class="cls-8" x1="730.03" y1="644.74" x2="730.03" y2="674.61" id="line99"/>
    <line class="cls-8" x1="723.77" y1="667.43" x2="723.77" y2="650.11" id="line100"/>
    <line class="cls-8" x1="737.56" y1="667.43" x2="737.56" y2="650.11" id="line101"/>
    <line class="cls-8" x1="730.03" y1="716.74" x2="730.03" y2="746.61" id="line102"/>
    <line class="cls-8" x1="723.77" y1="739.43" x2="723.77" y2="722.11" id="line103"/>
    <line class="cls-8" x1="737.56" y1="739.43" x2="737.56" y2="722.11" id="line104"/>
    <path class="cls-8" d="M428.2,933.6v4.1a2.21,2.21,0,0,0,2.22,2.21h11.22a2.21,2.21,0,0,0,2.21-2.21v-4.1" id="path104"/>
    <path class="cls-8" d="M713.2,933.6v4.1a2.21,2.21,0,0,0,2.22,2.21h11.22a2.21,2.21,0,0,0,2.21-2.21v-4.1" id="path105"/>
  </g>
</svg>