<?xml version="1.0" encoding="UTF-8" standalone="no"?>
<svg
   version="1.1"
   id="svg75"
   sodipodi:docname="thinknode_m2.svg"
   inkscape:version="1.4 (e7c3feb1, 2024-10-09)"
   viewBox="388.5 121.73 413.05 787.86"
   xmlns:inkscape="http://www.inkscape.org/namespaces/inkscape"
   xmlns:sodipodi="http://sodipodi.sourceforge.net/DTD/sodipodi-0.dtd"
   xmlns="http://www.w3.org/2000/svg"
   xmlns:svg="http://www.w3.org/2000/svg">
  <sodipodi:namedview
     id="namedview75"
     pagecolor="#ffffff"
     bordercolor="#000000"
     borderopacity="0.25"
     inkscape:showpageshadow="2"
     inkscape:pageopacity="0.0"
     inkscape:pagecheckerboard="0"
     inkscape:deskcolor="#d1d1d1"
     inkscape:zoom="3.7680002"
     inkscape:cx="265.65816"
     inkscape:cy="681.92672"
     inkscape:window-width="1472"
     inkscape:window-height="890"
     inkscape:window-x="0"
     inkscape:window-y="38"
     inkscape:window-maximized="1"
     inkscape:current-layer="Layer_3" />
  <defs
     id="defs1">
    <style
       id="style1">.cls-1{fill:#262626;}.cls-2{fill:#353535;}.cls-3{fill:#303030;}.cls-4{fill:#f05043;}.cls-5,.cls-6,.cls-7,.cls-8{fill:none;stroke:#000;stroke-miterlimit:10;}.cls-6{stroke-width:0.88px;}.cls-7{stroke-width:0.95px;}.cls-8{stroke-width:1px;}.cls-9{fill:#acdee5;}</style>
  </defs>
  <g
     id="Layer_3"
     data-name="Layer 3">
    <polygon
       class="cls-1"
       points="575.63 361.13 575.34 354.09 574.7 338.7 574.41 331.65 479.53 331.65 479.23 338.7 478.57 354.09 478.26 361.13 575.63 361.13"
       id="polygon1" />
    <polyline
       class="cls-2"
       points="458.33 403 473.46 384.87 579.68 384.87 595.03 403"
       id="polyline1" />
    <path
       class="cls-2"
       d="M579.68,384.87l-.87-21.35a2.51,2.51,0,0,0-2.5-2.39H477.56a2.5,2.5,0,0,0-2.49,2.39l-.87,21.35"
       id="path1" />
    <path
       class="cls-2"
       d="M578.32,351.57,577.88,341a2.41,2.41,0,0,0-2.41-2.32H478.41A2.42,2.42,0,0,0,476,341l-.43,10.55a2.42,2.42,0,0,0,2.42,2.52H575.9A2.43,2.43,0,0,0,578.32,351.57Z"
       id="path2" />
    <path
       class="cls-2"
       d="M476.46,329.56a2,2,0,0,0,2,2.09h96.94a2,2,0,0,0,2-2.09l-7.89-193.08a14.91,14.91,0,0,0-14.9-14.31H499.26a14.91,14.91,0,0,0-14.9,14.31Z"
       id="path3" />
    <polyline
       class="cls-2"
       points="491.72 331.65 499.03 137.3 555.9 137.3 561.64 331.65"
       id="polyline3" />
    <rect
       class="cls-1"
       x="394.16"
       y="403"
       width="396"
       height="501.26"
       rx="48.72"
       id="rect3" />
    <rect
       class="cls-2"
       x="405.9"
       y="417.86"
       width="372.52"
       height="471.54"
       rx="38.16"
       id="rect4" />
    <path
       class="cls-3"
       d="M763.35,521.78v329A23.38,23.38,0,0,1,740,874.13H441.22a23.38,23.38,0,0,1-23.38-23.38V456.51a23.38,23.38,0,0,1,23.38-23.38H675.28A18,18,0,0,1,688,438.41L757.66,508A19.43,19.43,0,0,1,763.35,521.78Z"
       id="path4" />
    <path
       class="cls-1"
       d="M716.86,532.78H462.77a18,18,0,0,0-18,18V673.91a18,18,0,0,0,18,18H716.86a18,18,0,0,0,18-18V550.78A18,18,0,0,0,716.86,532.78Zm6.52,137.48a10.7,10.7,0,0,1-10.7,10.7H465.38a10.7,10.7,0,0,1-10.7-10.7V551.83a10.7,10.7,0,0,1,10.7-10.7h247.3a10.7,10.7,0,0,1,10.7,10.7Z"
       id="path5" />
    <rect
       x="454.68"
       y="541.13"
       width="268.7"
       height="139.83"
       rx="10.7"
       id="rect5" />
    <path
       class="cls-3"
       d="M447,904.26v2.94a2,2,0,0,0,2,1.95h14.28a2,2,0,0,0,2-1.95v-2.94"
       id="path6" />
    <path
       class="cls-3"
       d="M718.74,904.26v2.94a2,2,0,0,0,2,1.95H735a2,2,0,0,0,2-1.95v-2.94"
       id="path7" />
    <path
       class="cls-3"
       d="M790.16,508.83h.39a10.56,10.56,0,0,1,10.56,10.56V656.57a10.56,10.56,0,0,1-10.56,10.56h-.39"
       id="path8" />
    <path
       class="cls-3"
       d="M394.16,518.17h-3.31a1.91,1.91,0,0,0-1.91,1.91V797a1.9,1.9,0,0,0,1.91,1.91h3.31"
       id="path9" />
    <rect
       class="cls-1"
       x="502.29"
       y="782"
       width="180.26"
       height="24.65"
       rx="12.33"
       id="rect9" />
    <circle
       class="cls-4"
       cx="515.99"
       cy="794.33"
       r="5.48"
       id="circle9" />
    <circle
       class="cls-2"
       cx="637.4"
       cy="794.33"
       r="5.48"
       id="circle10" />
    <circle
       class="cls-2"
       cx="660.08"
       cy="794.33"
       r="5.48"
       id="circle11" />
    <circle
       class="cls-2"
       cx="539.09"
       cy="794.33"
       r="5.48"
       id="circle12" />
    <circle
       class="cls-2"
       cx="564.93"
       cy="794.33"
       r="5.48"
       id="circle13" />
    <circle
       class="cls-2"
       cx="590.77"
       cy="794.33"
       r="5.48"
       id="circle14" />
    <circle
       class="cls-2"
       cx="614.09"
       cy="794.33"
       r="5.48"
       id="circle15" />
    <path
       class="cls-1"
       d="M475.77,856.71h-3.41V832.6h-8.47v-3H484.2v3h-8.43Z"
       id="path15" />
    <path
       class="cls-1"
       d="M491.19,836.32c0,.48,0,1-.06,1.48s-.08,1-.13,1.37h.23a5.69,5.69,0,0,1,1.63-1.75,7.82,7.82,0,0,1,2.2-1,8.81,8.81,0,0,1,2.51-.36,9.64,9.64,0,0,1,4.12.78,5.2,5.2,0,0,1,2.49,2.41,9.43,9.43,0,0,1,.83,4.25v13.25h-3.3v-13a5.37,5.37,0,0,0-1.1-3.69,4.46,4.46,0,0,0-3.46-1.21,6.41,6.41,0,0,0-3.57.85,4.68,4.68,0,0,0-1.84,2.51,12.81,12.81,0,0,0-.55,4v10.52h-3.34V827.85h3.34Z"
       id="path16" />
    <path
       class="cls-1"
       d="M513,828.73a2,2,0,0,1,1.35.51,2,2,0,0,1,.59,1.61,2.07,2.07,0,0,1-.59,1.6A2,2,0,0,1,513,833a2,2,0,0,1-1.4-.53,2.1,2.1,0,0,1-.57-1.6,2.06,2.06,0,0,1,.57-1.61A2,2,0,0,1,513,828.73Zm1.64,7.63v20.35h-3.35V836.36Z"
       id="path17" />
    <path
       class="cls-1"
       d="M530.91,836a7.69,7.69,0,0,1,5.5,1.77c1.24,1.17,1.86,3.08,1.86,5.71v13.25H535v-13a5.37,5.37,0,0,0-1.1-3.69,4.46,4.46,0,0,0-3.46-1.21q-3.37,0-4.67,1.9a9.7,9.7,0,0,0-1.29,5.47v10.55h-3.34V836.36h2.7l.49,2.77h.19a6.17,6.17,0,0,1,1.69-1.76,7.31,7.31,0,0,1,2.22-1A9.16,9.16,0,0,1,530.91,836Z"
       id="path18" />
    <path
       class="cls-1"
       d="M547.88,842.93q0,.6-.06,1.59t-.09,1.71h.15l.68-.87.93-1.16c.32-.39.59-.72.82-1l6.49-6.87h3.91l-8.24,8.69,8.81,11.66h-4l-7.06-9.49-2.32,2v7.48h-3.3V827.85h3.3Z"
       id="path19" />
    <path
       class="cls-1"
       d="M586.8,856.71h-4l-14.5-22.52h-.15c.05.59.09,1.28.13,2.07s.07,1.65.11,2.55.06,1.81.06,2.75v15.15h-3.15V829.6h4L583.72,852h.16c0-.4-.06-1-.1-1.82s-.08-1.7-.11-2.66-.06-1.85-.06-2.66V829.6h3.19Z"
       id="path20" />
    <path
       class="cls-1"
       d="M611.4,846.5a14.11,14.11,0,0,1-.66,4.5,9.41,9.41,0,0,1-1.9,3.32,7.92,7.92,0,0,1-3,2.07,10.53,10.53,0,0,1-3.93.7,9.66,9.66,0,0,1-3.72-.7,8.18,8.18,0,0,1-3-2.07,9.67,9.67,0,0,1-2-3.32,13.29,13.29,0,0,1-.7-4.5,13,13,0,0,1,1.14-5.72,8.25,8.25,0,0,1,3.26-3.57A10,10,0,0,1,602,836a9.47,9.47,0,0,1,4.87,1.23,8.61,8.61,0,0,1,3.31,3.57A12.41,12.41,0,0,1,611.4,846.5Zm-15.37,0a12.33,12.33,0,0,0,.62,4.15,5.45,5.45,0,0,0,2,2.72,6.49,6.49,0,0,0,6.76,0,5.5,5.5,0,0,0,2-2.72,12.32,12.32,0,0,0,.63-4.15,11.76,11.76,0,0,0-.65-4.14,5.53,5.53,0,0,0-1.95-2.64,5.76,5.76,0,0,0-3.4-.93,5.08,5.08,0,0,0-4.52,2.05A9.87,9.87,0,0,0,596,846.5Z"
       id="path21" />
    <path
       class="cls-1"
       d="M623.9,857.09a7.62,7.62,0,0,1-6.08-2.64c-1.52-1.76-2.28-4.38-2.28-7.88s.77-6.13,2.3-7.91a7.61,7.61,0,0,1,6.09-2.68,8.58,8.58,0,0,1,2.78.4,6.79,6.79,0,0,1,2,1.08,7.87,7.87,0,0,1,1.48,1.52h.22c0-.33-.07-.82-.13-1.46s-.09-1.16-.09-1.54v-8.13h3.34v28.86h-2.7l-.49-2.73h-.15a7.83,7.83,0,0,1-1.48,1.57,6.86,6.86,0,0,1-2.07,1.12A8.44,8.44,0,0,1,623.9,857.09Zm.53-2.77q3.23,0,4.53-1.77a8.85,8.85,0,0,0,1.31-5.33v-.61a11.15,11.15,0,0,0-1.25-5.83c-.83-1.35-2.38-2-4.63-2a4.45,4.45,0,0,0-4,2.15,10.68,10.68,0,0,0-1.35,5.75,10.12,10.12,0,0,0,1.35,5.66A4.56,4.56,0,0,0,624.43,854.32Z"
       id="path22" />
    <path
       class="cls-1"
       d="M647.89,836a8.5,8.5,0,0,1,4.5,1.14,7.45,7.45,0,0,1,2.89,3.21,11,11,0,0,1,1,4.84v2H642.35a7.71,7.71,0,0,0,1.76,5.26,6.19,6.19,0,0,0,4.73,1.8,14.83,14.83,0,0,0,3.44-.36,19.71,19.71,0,0,0,3.09-1v2.92a16,16,0,0,1-3.07,1,18.05,18.05,0,0,1-3.61.32,10.7,10.7,0,0,1-5.11-1.18,8.12,8.12,0,0,1-3.45-3.51,12,12,0,0,1-1.24-5.71A13.57,13.57,0,0,1,640,841a8.32,8.32,0,0,1,7.88-5Zm0,2.73a4.83,4.83,0,0,0-3.77,1.54,7.25,7.25,0,0,0-1.66,4.27h10.37a8,8,0,0,0-.53-3,4.49,4.49,0,0,0-1.61-2A4.92,4.92,0,0,0,647.85,838.71Z"
       id="path23" />
    <path
       class="cls-1"
       d="M660.08,843.88h9.19V847h-9.19Z"
       id="path24" />
    <path
       class="cls-1"
       d="M686.77,856.71l-8.92-23.77h-.15c0,.51.09,1.15.13,1.94s.07,1.64.1,2.56,0,1.87,0,2.83v16.44h-3.15V829.6h5.05l8.36,22.21h.15l8.5-22.21h5v27.11h-3.38V840q0-1.32,0-2.64t.12-2.46c.05-.78.09-1.43.11-2h-.15l-9,23.73Z"
       id="path25" />
    <path
       class="cls-1"
       d="M504.76,822.5l-2.52-2.69a16,16,0,0,1,21.51-.37l-2.42,2.77a12.35,12.35,0,0,0-16.57.29Z"
       id="path27" />
    <path
       class="cls-1"
       d="M509.12,826.65l-2.73-2.47a9.18,9.18,0,0,1,13.18-.45L517,826.38a5.51,5.51,0,0,0-7.9.27Z"
       id="path28" />
    <path
       d="M 727.48499,857.1333 H 709.11 v -3.80989 q 1.91406,-1.64063 3.82812,-3.28125 1.93229,-1.64062 3.59115,-3.26302 3.49999,-3.39062 4.79426,-5.3776 1.29427,-2.0052 1.29427,-4.32031 0,-2.11458 -1.40364,-3.29947 -1.38542,-1.20313 -3.88281,-1.20313 -1.65885,0 -3.59114,0.58334 -1.93229,0.58333 -3.77344,1.78645 h -0.18229 v -3.82812 q 1.29427,-0.63802 3.44531,-1.16666 2.16927,-0.52865 4.19271,-0.52865 4.17447,0 6.54426,2.02344 2.36979,2.0052 2.36979,5.45051 0,1.54948 -0.40104,2.89844 -0.38281,1.33073 -1.14844,2.53385 -0.71093,1.13021 -1.67708,2.22396 -0.94791,1.09375 -2.3151,2.42447 -1.95052,1.91406 -4.02864,3.71875 -2.07813,1.78646 -3.88281,3.31771 h 14.60155 z"
       id="text1"
       style="font-size:37.3333px;fill:#262626"
       aria-label="2" />
  </g>
  <g
     id="Layer_2"
     data-name="Layer 2">
    <rect
       class="cls-5"
       x="502.29"
       y="782"
       width="180.26"
       height="24.65"
       rx="12.33"
       id="rect28" />
    <circle
       class="cls-5"
       cx="515.99"
       cy="794.33"
       r="5.48"
       id="circle28" />
    <circle
       class="cls-5"
       cx="637.4"
       cy="794.33"
       r="5.48"
       id="circle29" />
    <circle
       class="cls-5"
       cx="660.08"
       cy="794.33"
       r="5.48"
       id="circle30" />
    <circle
       class="cls-5"
       cx="539.09"
       cy="794.33"
       r="5.48"
       id="circle31" />
    <circle
       class="cls-5"
       cx="564.93"
       cy="794.33"
       r="5.48"
       id="circle32" />
    <circle
       class="cls-5"
       cx="590.77"
       cy="794.33"
       r="5.48"
       id="circle33" />
    <circle
       class="cls-5"
       cx="614.09"
       cy="794.33"
       r="5.48"
       id="circle34" />
    <path
       class="cls-6"
       d="M763.35,521.78v329A23.38,23.38,0,0,1,740,874.13H441.22a23.38,23.38,0,0,1-23.38-23.38V456.51a23.38,23.38,0,0,1,23.38-23.38H675.28A18,18,0,0,1,688,438.41L757.66,508A19.43,19.43,0,0,1,763.35,521.78Z"
       id="path34" />
    <rect
       class="cls-7"
       x="405.9"
       y="417.86"
       width="372.52"
       height="471.54"
       rx="38.16"
       id="rect34" />
    <rect
       class="cls-8"
       x="394.16"
       y="403"
       width="396"
       height="501.26"
       rx="48.72"
       id="rect35" />
    <path
       class="cls-6"
       d="M763.35,462.15v30.34a5.64,5.64,0,0,1-9.62,4L700,442.75a5.63,5.63,0,0,1,4-9.62h30.34A29,29,0,0,1,763.35,462.15Z"
       id="path35" />
    <rect
       class="cls-6"
       x="444.77"
       y="532.78"
       width="290.09"
       height="159.13"
       rx="18"
       id="rect36" />
    <rect
       class="cls-6"
       x="454.68"
       y="541.13"
       width="268.7"
       height="139.83"
       rx="10.7"
       id="rect37" />
    <path
       class="cls-6"
       d="M447,904.26v2.94a2,2,0,0,0,2,1.95h14.28a2,2,0,0,0,2-1.95v-2.94"
       id="path37" />
    <path
       class="cls-6"
       d="M718.74,904.26v2.94a2,2,0,0,0,2,1.95H735a2,2,0,0,0,2-1.95v-2.94"
       id="path38" />
    <path
       class="cls-6"
       d="M790.16,508.83h.39a10.56,10.56,0,0,1,10.56,10.56V656.57a10.56,10.56,0,0,1-10.56,10.56h-.39"
       id="path39" />
    <path
       class="cls-6"
       d="M394.16,518.17h-3.31a1.91,1.91,0,0,0-1.91,1.91V797a1.9,1.9,0,0,0,1.91,1.91h3.31"
       id="path40" />
    <polyline
       class="cls-6"
       points="458.33 403 473.46 384.87 579.68 384.87 595.03 403"
       id="polyline40" />
    <path
       class="cls-6"
       d="M579.68,384.87l-.87-21.35a2.51,2.51,0,0,0-2.5-2.39H477.56a2.5,2.5,0,0,0-2.49,2.39l-.87,21.35"
       id="path41" />
    <path
       class="cls-6"
       d="M578.32,351.57,577.88,341a2.41,2.41,0,0,0-2.41-2.32H478.41A2.42,2.42,0,0,0,476,341l-.43,10.55a2.42,2.42,0,0,0,2.42,2.52H575.9A2.43,2.43,0,0,0,578.32,351.57Z"
       id="path42" />
    <path
       class="cls-6"
       d="M476.46,329.56a2,2,0,0,0,2,2.09h96.94a2,2,0,0,0,2-2.09l-7.89-193.08a14.91,14.91,0,0,0-14.9-14.31H499.26a14.91,14.91,0,0,0-14.9,14.31Z"
       id="path43" />
    <line
       class="cls-6"
       x1="479.53"
       y1="331.65"
       x2="479.23"
       y2="338.7"
       id="line43" />
    <line
       class="cls-6"
       x1="478.57"
       y1="354.09"
       x2="478.26"
       y2="361.13"
       id="line44" />
    <line
       class="cls-6"
       x1="574.7"
       y1="338.7"
       x2="574.41"
       y2="331.65"
       id="line45" />
    <line
       class="cls-6"
       x1="575.63"
       y1="361.13"
       x2="575.34"
       y2="354.09"
       id="line46" />
    <polyline
       class="cls-6"
       points="491.72 331.65 499.03 137.3 555.9 137.3 561.64 331.65"
       id="polyline46" />
    <rect
       class="cls-8"
       x="394.16"
       y="403"
       width="396"
       height="501.26"
       rx="48.72"
       id="rect46" />
    <rect
       class="cls-8"
       x="394.16"
       y="403"
       width="396"
       height="501.26"
       rx="48.72"
       id="rect47" />
  </g>
</svg>
