<svg xmlns="http://www.w3.org/2000/svg" viewBox="576.41 327.31 847.19 1027.57"><defs><style>.cls-1{fill:#353535;}.cls-2{fill:#1d1e1e;}.cls-3{fill:#b1a368;}.cls-4{fill:#cbcccb;}.cls-10,.cls-5,.cls-7,.cls-8{fill:none;}.cls-10,.cls-5{stroke:#fff;stroke-linecap:round;stroke-linejoin:round;}.cls-5{stroke-width:1.19px;}.cls-6{fill:#ab9d72;}.cls-7,.cls-8{stroke:#050606;stroke-miterlimit:10;}.cls-7{stroke-width:1.96px;}.cls-8{stroke-width:1.93px;}.cls-9{fill:#050606;}.cls-10{stroke-width:1.12px;}.cls-11{fill:#434343;}.cls-12{fill:#c08c2d;}.cls-13{fill:#9f9f9e;}.cls-14{fill:#a19e97;}.cls-15{fill:#fff;}.cls-16{fill:#231f20;}</style></defs><g id="Layer_7" data-name="Layer 7"><path class="cls-1" d="M1274.31,373.94V837.6a3.17,3.17,0,0,1-3.17,3.15h-86.31a3.17,3.17,0,0,1-3.17-3.15V373.94a46.33,46.33,0,0,1,92.65,0Z"></path><rect class="cls-2" x="1181.66" y="400.25" width="92.65" height="8.8"></rect><rect class="cls-2" x="1181.66" y="429.14" width="92.65" height="8.8"></rect><rect class="cls-3" x="1174.48" y="848.25" width="108.43" height="70.62" rx="3.2"></rect><path class="cls-3" d="M1178.88,918.88h102a0,0,0,0,1,0,0v24.83a4.18,4.18,0,0,1-4.18,4.18h-93.62a4.18,4.18,0,0,1-4.18-4.18V918.88A0,0,0,0,1,1178.88,918.88Z"></path><rect class="cls-3" x="1186.08" y="947.89" width="85.46" height="31.44"></rect><rect class="cls-3" x="1186.87" y="840.75" width="81.65" height="7.5"></rect><rect class="cls-1" x="577.39" y="979.33" width="829.41" height="343.32" rx="18.53"></rect><path class="cls-2" d="M1250.4,1328.75h17.46a0,0,0,0,1,0,0v21.8a3.35,3.35,0,0,1-3.35,3.35h-10.76a3.35,3.35,0,0,1-3.35-3.35v-21.8A0,0,0,0,1,1250.4,1328.75Z"></path><path class="cls-2" d="M1112.12,1322.64h23.82a0,0,0,0,1,0,0v4.84a3.35,3.35,0,0,1-3.35,3.35h-17.12a3.35,3.35,0,0,1-3.35-3.35v-4.84A0,0,0,0,1,1112.12,1322.64Z"></path><rect class="cls-4" x="1217.05" y="1322.64" width="111.4" height="6.11"></rect><rect class="cls-5" x="1171.62" y="1308.23" width="38.76" height="14.42"></rect><path class="cls-6" d="M610.76,993a21.72,21.72,0,1,0,21.71,21.71A21.71,21.71,0,0,0,610.76,993Zm0,36.61a14.9,14.9,0,1,1,14.88-14.9A14.9,14.9,0,0,1,610.76,1029.56Z"></path><path class="cls-4" d="M625.64,1014.66a14.9,14.9,0,1,1-14.88-14.89A14.89,14.89,0,0,1,625.64,1014.66Z"></path><circle class="cls-7" cx="610.75" cy="1014.67" r="21.72"></circle><circle class="cls-7" cx="610.75" cy="1014.67" r="14.89"></circle><path class="cls-6" d="M610.76,1267a21.72,21.72,0,1,0,21.71,21.71A21.71,21.71,0,0,0,610.76,1267Zm0,36.61a14.89,14.89,0,1,1,14.88-14.9A14.9,14.9,0,0,1,610.76,1303.58Z"></path><path class="cls-4" d="M625.64,1288.68a14.9,14.9,0,1,1-14.88-14.88A14.89,14.89,0,0,1,625.64,1288.68Z"></path><circle class="cls-7" cx="610.75" cy="1288.69" r="21.72"></circle><circle class="cls-7" cx="610.75" cy="1288.69" r="14.89"></circle><circle class="cls-6" cx="659.05" cy="1302.23" r="12.06"></circle><circle class="cls-4" cx="659.05" cy="1302.23" r="8.27"></circle><circle class="cls-6" cx="692.73" cy="1302.23" r="12.06"></circle><circle class="cls-4" cx="692.73" cy="1302.23" r="8.27"></circle><circle class="cls-6" cx="726.42" cy="1302.23" r="12.06"></circle><circle class="cls-4" cx="726.42" cy="1302.23" r="8.27"></circle><circle class="cls-6" cx="760.1" cy="1302.23" r="12.06"></circle><circle class="cls-4" cx="760.1" cy="1302.23" r="8.27"></circle><circle class="cls-6" cx="793.79" cy="1302.23" r="12.06"></circle><circle class="cls-4" cx="793.79" cy="1302.23" r="8.27"></circle><circle class="cls-6" cx="827.48" cy="1302.23" r="12.06"></circle><circle class="cls-4" cx="827.48" cy="1302.23" r="8.27"></circle><circle class="cls-6" cx="861.16" cy="1302.23" r="12.06"></circle><circle class="cls-4" cx="861.16" cy="1302.23" r="8.27"></circle><circle class="cls-6" cx="894.85" cy="1302.23" r="12.06"></circle><circle class="cls-4" cx="894.85" cy="1302.23" r="8.27"></circle><circle class="cls-6" cx="928.53" cy="1302.23" r="12.06"></circle><circle class="cls-4" cx="928.53" cy="1302.23" r="8.27"></circle><circle class="cls-6" cx="962.22" cy="1302.23" r="12.06"></circle><circle class="cls-4" cx="962.22" cy="1302.23" r="8.27"></circle><circle class="cls-6" cx="995.91" cy="1302.23" r="12.06"></circle><circle class="cls-4" cx="995.91" cy="1302.23" r="8.27"></circle><circle class="cls-6" cx="1029.59" cy="1302.23" r="12.06"></circle><circle class="cls-4" cx="1029.59" cy="1302.23" r="8.27"></circle><circle class="cls-6" cx="1063.28" cy="1302.23" r="12.06"></circle><circle class="cls-4" cx="1063.28" cy="1302.23" r="8.27"></circle><circle class="cls-6" cx="659.05" cy="1002.61" r="12.06"></circle><circle class="cls-4" cx="659.05" cy="1002.61" r="8.27"></circle><circle class="cls-6" cx="692.73" cy="1002.61" r="12.06"></circle><circle class="cls-4" cx="692.73" cy="1002.61" r="8.27"></circle><circle class="cls-6" cx="726.42" cy="1002.61" r="12.06"></circle><circle class="cls-4" cx="726.42" cy="1002.61" r="8.27"></circle><circle class="cls-6" cx="760.1" cy="1002.61" r="12.06"></circle><circle class="cls-4" cx="760.1" cy="1002.61" r="8.27"></circle><circle class="cls-6" cx="793.79" cy="1002.61" r="12.06"></circle><circle class="cls-4" cx="793.79" cy="1002.61" r="8.27"></circle><circle class="cls-6" cx="827.48" cy="1002.61" r="12.06"></circle><circle class="cls-4" cx="827.48" cy="1002.61" r="8.27"></circle><circle class="cls-6" cx="861.16" cy="1002.61" r="12.06"></circle><circle class="cls-4" cx="861.16" cy="1002.61" r="8.27"></circle><circle class="cls-6" cx="894.85" cy="1002.61" r="12.06"></circle><circle class="cls-4" cx="894.85" cy="1002.61" r="8.27"></circle><circle class="cls-6" cx="928.53" cy="1002.61" r="12.06"></circle><circle class="cls-4" cx="928.53" cy="1002.61" r="8.27"></circle><circle class="cls-6" cx="962.22" cy="1002.61" r="12.06"></circle><circle class="cls-4" cx="962.22" cy="1002.61" r="8.27"></circle><circle class="cls-6" cx="995.91" cy="1002.61" r="12.06"></circle><circle class="cls-4" cx="995.91" cy="1002.61" r="8.27"></circle><circle class="cls-6" cx="1029.59" cy="1002.61" r="12.06"></circle><circle class="cls-4" cx="1029.59" cy="1002.61" r="8.27"></circle><circle class="cls-6" cx="1063.28" cy="1002.61" r="12.06"></circle><circle class="cls-4" cx="1063.28" cy="1002.61" r="8.27"></circle><rect class="cls-5" x="690.63" y="1043.99" width="455.94" height="228.24"></rect><path class="cls-2" d="M974.12,1255.73v46.14a5.42,5.42,0,0,1-5.42,5.42H867.86a5.41,5.41,0,0,1-5.4-5.42v-46.14Z"></path><rect class="cls-7" x="577.39" y="979.33" width="829.41" height="343.32" rx="18.53"></rect><path class="cls-7" d="M1274.31,373.94V837.6a3.17,3.17,0,0,1-3.17,3.15h-86.31a3.17,3.17,0,0,1-3.17-3.15V373.94a46.33,46.33,0,0,1,92.65,0Z"></path><rect class="cls-7" x="1174.48" y="848.25" width="108.43" height="70.62" rx="3.2"></rect><path class="cls-7" d="M1178.88,918.88h102a0,0,0,0,1,0,0v24.83a4.18,4.18,0,0,1-4.18,4.18h-93.62a4.18,4.18,0,0,1-4.18-4.18V918.88A0,0,0,0,1,1178.88,918.88Z"></path><rect class="cls-7" x="1186.08" y="947.89" width="85.46" height="31.44"></rect><rect class="cls-7" x="1186.87" y="840.75" width="81.65" height="7.5"></rect><polyline class="cls-5" points="1376.3 1285.65 1332.26 1285.65 1332.26 1186.87 1376.3 1186.87"></polyline><path class="cls-4" d="M1422.61,1271.49V1202.8a1.37,1.37,0,0,0-.68-1.19l-4.82-2.83a1.38,1.38,0,0,1,.29-2.51l4.24-1.32a1.37,1.37,0,0,0,1-1.32v-2.86h-72.7v91.36h72.7v-1.47a1.38,1.38,0,0,0-1-1.32l-4.24-1.32a1.38,1.38,0,0,1-.29-2.51l4.82-2.82A1.4,1.4,0,0,0,1422.61,1271.49Z"></path><path class="cls-8" d="M1422.61,1271.49V1202.8a1.37,1.37,0,0,0-.68-1.19l-4.82-2.83a1.38,1.38,0,0,1,.29-2.51l4.24-1.32a1.37,1.37,0,0,0,1-1.32v-2.86h-72.7v91.36h72.7v-1.47a1.38,1.38,0,0,0-1-1.32l-4.24-1.32a1.38,1.38,0,0,1-.29-2.51l4.82-2.82A1.4,1.4,0,0,0,1422.61,1271.49Z"></path><path class="cls-9" d="M1398.2,1260.18a6,6,0,0,1,6,6,6.21,6.21,0,0,1-6.38,6,6.06,6.06,0,0,1-4.67-2.66h-9.77a1.68,1.68,0,0,1-1.67-1.68v-3.36a1.68,1.68,0,0,1,1.67-1.68h9.77A6,6,0,0,1,1398.2,1260.18Z"></path><path class="cls-9" d="M1398.2,1199.82a6,6,0,0,1,6,6,6.2,6.2,0,0,1-6.38,6,6,6,0,0,1-4.67-2.65h-9.77a1.68,1.68,0,0,1-1.67-1.68v-3.36a1.68,1.68,0,0,1,1.67-1.68h9.77A6,6,0,0,1,1398.2,1199.82Z"></path><path class="cls-9" d="M1354,1244.68h8.62a1.67,1.67,0,0,1,1.67,1.67v3.08a1.68,1.68,0,0,1-1,1.52l-2,.93a1.67,1.67,0,0,0-1,1.51V1262a1.68,1.68,0,0,1-1.67,1.68h0a1.71,1.71,0,0,1-1.19-.49l-4.73-4.73a1.71,1.71,0,0,1-.49-1.19v-10.89A1.68,1.68,0,0,1,1354,1244.68Z"></path><path class="cls-9" d="M1354,1226.14h8.62a1.68,1.68,0,0,0,1.67-1.68v-3.08a1.65,1.65,0,0,0-1-1.51l-2-.93a1.69,1.69,0,0,1-1-1.52v-8.58a1.67,1.67,0,0,0-1.67-1.67h0a1.66,1.66,0,0,0-1.19.49l-4.73,4.73a1.68,1.68,0,0,0-.49,1.18v10.89A1.68,1.68,0,0,0,1354,1226.14Z"></path><rect class="cls-4" x="1339.23" y="1249.26" width="4.31" height="7.81" rx="0.84" transform="translate(88.22 2594.55) rotate(-90)"></rect><rect class="cls-4" x="1339.23" y="1241.68" width="4.31" height="7.81" rx="0.84" transform="translate(95.8 2586.98) rotate(-90)"></rect><rect class="cls-4" x="1339.23" y="1234.11" width="4.31" height="7.81" rx="0.84" transform="translate(103.37 2579.4) rotate(-90)"></rect><rect class="cls-4" x="1339.23" y="1226.54" width="4.31" height="7.81" rx="0.84" transform="translate(110.94 2571.83) rotate(-90)"></rect><rect class="cls-4" x="1339.23" y="1218.96" width="4.31" height="7.81" rx="0.84" transform="translate(118.52 2564.26) rotate(-90)"></rect><rect class="cls-5" x="1301.85" y="1002.61" width="26.6" height="10.88"></rect><rect class="cls-9" x="1310.35" y="1004.57" width="9.71" height="6.77"></rect><path class="cls-4" d="M1306.21,1004.57h2.56a0,0,0,0,1,0,0v6.77a0,0,0,0,1,0,0h-2.56a.78.78,0,0,1-.78-.78v-5.21A.78.78,0,0,1,1306.21,1004.57Z"></path><path class="cls-4" d="M1322.31,1004.57h2.56a0,0,0,0,1,0,0v6.77a0,0,0,0,1,0,0h-2.56a.78.78,0,0,1-.78-.78v-5.21A.78.78,0,0,1,1322.31,1004.57Z" transform="translate(2646.41 2015.91) rotate(-180)"></path><rect class="cls-5" x="1270.67" y="989.83" width="26.6" height="10.88" transform="translate(2279.25 -288.7) rotate(90)"></rect><rect class="cls-9" x="1279.21" y="991.95" width="9.71" height="6.77" transform="translate(2279.41 -288.74) rotate(90)"></rect><path class="cls-4" d="M1283.18,983.84h2.56a0,0,0,0,1,0,0v6.77a0,0,0,0,1,0,0h-2.56a.78.78,0,0,1-.78-.78v-5.21A.78.78,0,0,1,1283.18,983.84Z" transform="translate(2271.3 -296.85) rotate(90)"></path><path class="cls-4" d="M1283.18,999.95h2.56a0,0,0,0,1,0,0v6.77a0,0,0,0,1,0,0h-2.56a.78.78,0,0,1-.78-.78v-5.21A.78.78,0,0,1,1283.18,999.95Z" transform="translate(280.74 2287.4) rotate(-90)"></path><rect class="cls-5" x="1301.85" y="1013.49" width="26.6" height="10.88"></rect><rect class="cls-9" x="1310.35" y="1015.46" width="9.71" height="6.77"></rect><path class="cls-4" d="M1306.21,1015.46h2.56a0,0,0,0,1,0,0v6.77a0,0,0,0,1,0,0h-2.56a.78.78,0,0,1-.78-.78v-5.21A.78.78,0,0,1,1306.21,1015.46Z"></path><path class="cls-4" d="M1322.31,1015.46h2.56a0,0,0,0,1,0,0v6.77a0,0,0,0,1,0,0h-2.56a.78.78,0,0,1-.78-.78v-5.21A.78.78,0,0,1,1322.31,1015.46Z" transform="translate(2646.41 2037.68) rotate(-180)"></path><rect class="cls-5" x="1301.85" y="1024.38" width="26.6" height="10.88"></rect><rect class="cls-9" x="1310.35" y="1026.34" width="9.71" height="6.77"></rect><path class="cls-4" d="M1306.21,1026.34h2.56a0,0,0,0,1,0,0v6.77a0,0,0,0,1,0,0h-2.56a.78.78,0,0,1-.78-.78v-5.21A.78.78,0,0,1,1306.21,1026.34Z"></path><path class="cls-4" d="M1322.31,1026.34h2.56a0,0,0,0,1,0,0v6.77a0,0,0,0,1,0,0h-2.56a.78.78,0,0,1-.78-.78v-5.21a.78.78,0,0,1,.78-.78Z" transform="translate(2646.41 2059.45) rotate(-180)"></path><rect class="cls-5" x="1301.85" y="1035.26" width="26.6" height="10.88"></rect><rect class="cls-9" x="1310.35" y="1037.22" width="9.71" height="6.77"></rect><path class="cls-4" d="M1306.21,1037.22h2.56a0,0,0,0,1,0,0V1044a0,0,0,0,1,0,0h-2.56a.78.78,0,0,1-.78-.78V1038A.78.78,0,0,1,1306.21,1037.22Z"></path><path class="cls-4" d="M1322.31,1037.22h2.56a0,0,0,0,1,0,0V1044a0,0,0,0,1,0,0h-2.56a.78.78,0,0,1-.78-.78V1038A.78.78,0,0,1,1322.31,1037.22Z" transform="translate(2646.41 2081.21) rotate(-180)"></path><rect class="cls-5" x="1301.85" y="1046.14" width="26.6" height="10.88"></rect><rect class="cls-9" x="1310.35" y="1048.11" width="9.71" height="6.77"></rect><path class="cls-4" d="M1306.21,1048.11h2.56a0,0,0,0,1,0,0v6.77a0,0,0,0,1,0,0h-2.56a.78.78,0,0,1-.78-.78v-5.21A.78.78,0,0,1,1306.21,1048.11Z"></path><path class="cls-4" d="M1322.31,1048.11h2.56a0,0,0,0,1,0,0v6.77a0,0,0,0,1,0,0h-2.56a.78.78,0,0,1-.78-.78v-5.21A.78.78,0,0,1,1322.31,1048.11Z" transform="translate(2646.41 2102.98) rotate(-180)"></path><rect class="cls-5" x="1301.85" y="1057.03" width="26.6" height="10.88"></rect><rect class="cls-9" x="1310.35" y="1058.99" width="9.71" height="6.77"></rect><path class="cls-4" d="M1306.21,1059h2.56a0,0,0,0,1,0,0v6.77a0,0,0,0,1,0,0h-2.56a.78.78,0,0,1-.78-.78v-5.21A.78.78,0,0,1,1306.21,1059Z"></path><path class="cls-4" d="M1322.31,1059h2.56a0,0,0,0,1,0,0v6.77a0,0,0,0,1,0,0h-2.56a.78.78,0,0,1-.78-.78v-5.21a.78.78,0,0,1,.78-.78Z" transform="translate(2646.41 2124.75) rotate(-180)"></path><rect class="cls-5" x="1301.85" y="1067.91" width="26.6" height="10.88"></rect><rect class="cls-9" x="1310.35" y="1069.88" width="9.71" height="6.77"></rect><path class="cls-4" d="M1306.21,1069.88h2.56a0,0,0,0,1,0,0v6.77a0,0,0,0,1,0,0h-2.56a.78.78,0,0,1-.78-.78v-5.21A.78.78,0,0,1,1306.21,1069.88Z"></path><path class="cls-4" d="M1322.31,1069.88h2.56a0,0,0,0,1,0,0v6.77a0,0,0,0,1,0,0h-2.56a.78.78,0,0,1-.78-.78v-5.21A.78.78,0,0,1,1322.31,1069.88Z" transform="translate(2646.41 2146.52) rotate(-180)"></path><rect class="cls-5" x="1301.85" y="1078.79" width="26.6" height="10.88"></rect><rect class="cls-9" x="1310.35" y="1080.76" width="9.71" height="6.77"></rect><path class="cls-4" d="M1306.21,1080.76h2.56a0,0,0,0,1,0,0v6.77a0,0,0,0,1,0,0h-2.56a.78.78,0,0,1-.78-.78v-5.21A.78.78,0,0,1,1306.21,1080.76Z"></path><path class="cls-4" d="M1322.31,1080.76h2.56a0,0,0,0,1,0,0v6.77a0,0,0,0,1,0,0h-2.56a.78.78,0,0,1-.78-.78v-5.21A.78.78,0,0,1,1322.31,1080.76Z" transform="translate(2646.41 2168.28) rotate(-180)"></path><rect class="cls-5" x="1301.85" y="1089.68" width="26.6" height="10.88"></rect><rect class="cls-9" x="1310.35" y="1091.64" width="9.71" height="6.77"></rect><path class="cls-4" d="M1306.21,1091.64h2.56a0,0,0,0,1,0,0v6.77a0,0,0,0,1,0,0h-2.56a.78.78,0,0,1-.78-.78v-5.21A.78.78,0,0,1,1306.21,1091.64Z"></path><path class="cls-4" d="M1322.31,1091.64h2.56a0,0,0,0,1,0,0v6.77a0,0,0,0,1,0,0h-2.56a.78.78,0,0,1-.78-.78v-5.21a.78.78,0,0,1,.78-.78Z" transform="translate(2646.41 2190.05) rotate(-180)"></path><rect class="cls-5" x="1301.85" y="1100.56" width="26.6" height="10.88"></rect><rect class="cls-9" x="1310.35" y="1102.53" width="9.71" height="6.77"></rect><path class="cls-4" d="M1306.21,1102.53h2.56a0,0,0,0,1,0,0v6.77a0,0,0,0,1,0,0h-2.56a.78.78,0,0,1-.78-.78v-5.21A.78.78,0,0,1,1306.21,1102.53Z"></path><path class="cls-4" d="M1322.31,1102.53h2.56a0,0,0,0,1,0,0v6.77a0,0,0,0,1,0,0h-2.56a.78.78,0,0,1-.78-.78v-5.21a.78.78,0,0,1,.78-.78Z" transform="translate(2646.41 2211.82) rotate(-180)"></path><rect class="cls-5" x="1301.85" y="1111.45" width="26.6" height="10.88"></rect><rect class="cls-9" x="1310.35" y="1113.41" width="9.71" height="6.77"></rect><path class="cls-4" d="M1306.21,1113.41h2.56a0,0,0,0,1,0,0v6.77a0,0,0,0,1,0,0h-2.56a.78.78,0,0,1-.78-.78v-5.21A.78.78,0,0,1,1306.21,1113.41Z"></path><path class="cls-4" d="M1322.31,1113.41h2.56a0,0,0,0,1,0,0v6.77a0,0,0,0,1,0,0h-2.56a.78.78,0,0,1-.78-.78v-5.21a.78.78,0,0,1,.78-.78Z" transform="translate(2646.41 2233.59) rotate(-180)"></path><rect class="cls-5" x="1301.85" y="1122.33" width="26.6" height="10.88"></rect><rect class="cls-9" x="1310.35" y="1124.29" width="9.71" height="6.77"></rect><path class="cls-4" d="M1306.21,1124.29h2.56a0,0,0,0,1,0,0v6.77a0,0,0,0,1,0,0h-2.56a.78.78,0,0,1-.78-.78v-5.21A.78.78,0,0,1,1306.21,1124.29Z"></path><path class="cls-4" d="M1322.31,1124.29h2.56a0,0,0,0,1,0,0v6.77a0,0,0,0,1,0,0h-2.56a.78.78,0,0,1-.78-.78v-5.21A.78.78,0,0,1,1322.31,1124.29Z" transform="translate(2646.41 2255.35) rotate(-180)"></path><rect class="cls-5" x="1301.85" y="1133.21" width="26.6" height="10.88"></rect><rect class="cls-9" x="1310.35" y="1135.18" width="9.71" height="6.77"></rect><path class="cls-4" d="M1306.21,1135.18h2.56a0,0,0,0,1,0,0v6.77a0,0,0,0,1,0,0h-2.56a.78.78,0,0,1-.78-.78V1136A.78.78,0,0,1,1306.21,1135.18Z"></path><path class="cls-4" d="M1322.31,1135.18h2.56a0,0,0,0,1,0,0v6.77a0,0,0,0,1,0,0h-2.56a.78.78,0,0,1-.78-.78V1136a.78.78,0,0,1,.78-.78Z" transform="translate(2646.41 2277.12) rotate(-180)"></path><rect class="cls-5" x="1301.85" y="1144.1" width="26.6" height="10.88"></rect><rect class="cls-9" x="1310.35" y="1146.06" width="9.71" height="6.77"></rect><path class="cls-4" d="M1306.21,1146.06h2.56a0,0,0,0,1,0,0v6.77a0,0,0,0,1,0,0h-2.56a.78.78,0,0,1-.78-.78v-5.21A.78.78,0,0,1,1306.21,1146.06Z"></path><path class="cls-4" d="M1322.31,1146.06h2.56a0,0,0,0,1,0,0v6.77a0,0,0,0,1,0,0h-2.56a.78.78,0,0,1-.78-.78v-5.21a.78.78,0,0,1,.78-.78Z" transform="translate(2646.41 2298.89) rotate(-180)"></path><rect class="cls-5" x="1301.85" y="1154.98" width="26.6" height="10.88"></rect><rect class="cls-9" x="1310.35" y="1156.95" width="9.71" height="6.77"></rect><path class="cls-4" d="M1306.21,1156.95h2.56a0,0,0,0,1,0,0v6.77a0,0,0,0,1,0,0h-2.56a.78.78,0,0,1-.78-.78v-5.21A.78.78,0,0,1,1306.21,1156.95Z"></path><path class="cls-4" d="M1322.31,1156.95h2.56a0,0,0,0,1,0,0v6.77a0,0,0,0,1,0,0h-2.56a.78.78,0,0,1-.78-.78v-5.21A.78.78,0,0,1,1322.31,1156.95Z" transform="translate(2646.41 2320.66) rotate(-180)"></path><polyline class="cls-5" points="1294.34 1203.1 1294.34 1192.21 1320.94 1192.21 1320.94 1203.1"></polyline><rect class="cls-9" x="1302.84" y="1194.18" width="9.71" height="6.77"></rect><path class="cls-4" d="M1298.69,1194.18h2.56a0,0,0,0,1,0,0v6.77a0,0,0,0,1,0,0h-2.56a.78.78,0,0,1-.78-.78V1195A.78.78,0,0,1,1298.69,1194.18Z"></path><path class="cls-4" d="M1314.8,1194.18h2.56a0,0,0,0,1,0,0v6.77a0,0,0,0,1,0,0h-2.56a.78.78,0,0,1-.78-.78V1195a.78.78,0,0,1,.78-.78Z" transform="translate(2631.38 2395.12) rotate(-180)"></path><polyline class="cls-5" points="1320.94 1236.86 1320.94 1247.75 1294.34 1247.75 1294.34 1236.86"></polyline><rect class="cls-9" x="1302.72" y="1239.01" width="9.71" height="6.77" transform="translate(2615.16 2484.8) rotate(180)"></rect><path class="cls-4" d="M1314.8,1239h2.56a0,0,0,0,1,0,0v6.77a0,0,0,0,1,0,0h-2.56a.78.78,0,0,1-.78-.78v-5.21A.78.78,0,0,1,1314.8,1239Z" transform="translate(2631.38 2484.8) rotate(180)"></path><path class="cls-4" d="M1298.69,1239h2.56a0,0,0,0,1,0,0v6.77a0,0,0,0,1,0,0h-2.56a.78.78,0,0,1-.78-.78v-5.21A.78.78,0,0,1,1298.69,1239Z"></path><polyline class="cls-5" points="1182.27 1304.85 1182.27 1293.97 1208.87 1293.97 1208.87 1304.85"></polyline><rect class="cls-9" x="1190.77" y="1295.93" width="9.71" height="6.77"></rect><path class="cls-4" d="M1186.63,1295.93h2.56a0,0,0,0,1,0,0v6.77a0,0,0,0,1,0,0h-2.56a.78.78,0,0,1-.78-.78v-5.21A.78.78,0,0,1,1186.63,1295.93Z"></path><path class="cls-4" d="M1202.73,1295.93h2.56a0,0,0,0,1,0,0v6.77a0,0,0,0,1,0,0h-2.56a.78.78,0,0,1-.78-.78v-5.21A.78.78,0,0,1,1202.73,1295.93Z" transform="translate(2407.25 2598.63) rotate(-180)"></path><rect class="cls-5" x="1158.52" y="1128.76" width="32.38" height="20.78"></rect><rect class="cls-4" x="1164.39" y="1119.74" width="4.96" height="11.91" rx="1.08"></rect><rect class="cls-4" x="1172.23" y="1119.74" width="4.96" height="11.91" rx="1.08"></rect><rect class="cls-4" x="1180.06" y="1119.74" width="4.96" height="11.91" rx="1.08"></rect><rect class="cls-4" x="1164.39" y="1146.87" width="4.96" height="11.91" rx="1.08"></rect><rect class="cls-4" x="1172.23" y="1146.87" width="4.96" height="11.91" rx="1.08"></rect><rect class="cls-4" x="1180.06" y="1146.87" width="4.96" height="11.91" rx="1.08"></rect><rect class="cls-9" x="1162.07" y="1133.21" width="24.66" height="12.02"></rect><rect class="cls-4" x="1267.85" y="1267.17" width="13.39" height="14.96"></rect><rect class="cls-4" x="1295.79" y="1267.17" width="13.39" height="14.96"></rect><rect class="cls-4" x="1285.31" y="1267.17" width="5.82" height="14.96"></rect><path class="cls-10" d="M1293,1263.65h19.75a2,2,0,0,1,2,2v18.54a2,2,0,0,1-2,1.95H1293"></path><path class="cls-10" d="M1283.72,1286.1h-19.58a2,2,0,0,1-2-1.95v-18.54a2,2,0,0,1,2-2h19.58"></path><circle class="cls-4" cx="1239.47" cy="1297.99" r="9.3"></circle><circle class="cls-6" cx="1239.47" cy="1297.99" r="4.43"></circle><circle class="cls-4" cx="1251.16" cy="1073.26" r="9.3"></circle><circle class="cls-6" cx="1251.16" cy="1073.26" r="4.43"></circle><circle class="cls-4" cx="1251.16" cy="1004.57" r="9.3"></circle><circle class="cls-6" cx="1251.16" cy="1004.57" r="4.43"></circle><circle class="cls-4" cx="1186.73" cy="1004.57" r="9.3"></circle><circle class="cls-6" cx="1186.73" cy="1004.57" r="4.43"></circle><circle class="cls-4" cx="1186.73" cy="1071.31" r="9.3"></circle><circle class="cls-6" cx="1186.73" cy="1071.31" r="4.43"></circle><circle class="cls-4" cx="1219.52" cy="1040.61" r="9.3"></circle><circle class="cls-6" cx="1219.52" cy="1040.61" r="4.43"></circle><circle class="cls-4" cx="1272.95" cy="1297.99" r="9.3"></circle><circle class="cls-6" cx="1272.95" cy="1297.99" r="4.43"></circle><circle class="cls-4" cx="1306.42" cy="1297.99" r="9.3"></circle><circle class="cls-6" cx="1306.42" cy="1297.99" r="4.43"></circle><rect class="cls-10" x="1288.22" y="1204.69" width="38.83" height="30.25" rx="2.23"></rect><rect class="cls-4" x="1291.98" y="1208.32" width="11.03" height="7.47" rx="2.23"></rect><rect class="cls-4" x="1313.04" y="1208.32" width="11.03" height="7.47" rx="2.23"></rect><rect class="cls-4" x="1291.98" y="1222.98" width="11.03" height="7.47" rx="2.23"></rect><rect class="cls-4" x="1313.04" y="1222.98" width="11.03" height="7.47" rx="2.23"></rect><rect class="cls-11" x="759.17" y="1040.7" width="317.22" height="180.01"></rect><rect class="cls-7" x="759.17" y="1040.7" width="317.22" height="180.01"></rect><path class="cls-2" d="M759.17,1220.72v17.09a17.92,17.92,0,0,0,17.92,17.92h281.38a17.92,17.92,0,0,0,17.92-17.92v-17.09"></path><path class="cls-7" d="M759.17,1220.72v17.09a17.92,17.92,0,0,0,17.92,17.92h281.38a17.92,17.92,0,0,0,17.92-17.92v-17.09"></path><line class="cls-7" x1="827.21" y1="1220.72" x2="827.21" y2="1255.73"></line><line class="cls-7" x1="989.71" y1="1220.72" x2="989.71" y2="1255.73"></line><path class="cls-7" d="M862.45,1255.73v46.14a5.42,5.42,0,0,0,5.42,5.41H968.7a5.41,5.41,0,0,0,5.41-5.41v-46.14"></path><line class="cls-7" x1="871.05" y1="1255.73" x2="871.05" y2="1307.28"></line><line class="cls-7" x1="952.74" y1="1255.73" x2="952.74" y2="1307.28"></line><path class="cls-12" d="M871.05,1255.73v51.56h-3.19a5.41,5.41,0,0,1-5.4-5.42v-46.14Z"></path><path class="cls-12" d="M974.12,1255.73v46.14a5.42,5.42,0,0,1-5.42,5.42h-16v-51.56Z"></path><rect class="cls-4" x="590.1" y="1066.88" width="59.65" height="185.51"></rect><rect class="cls-7" x="1217.05" y="1322.64" width="111.4" height="6.11"></rect><path class="cls-7" d="M1250.4,1328.75h17.46a0,0,0,0,1,0,0v21.8a3.35,3.35,0,0,1-3.35,3.35h-10.76a3.35,3.35,0,0,1-3.35-3.35v-21.8A0,0,0,0,1,1250.4,1328.75Z"></path><path class="cls-7" d="M1112.12,1322.64h23.82a0,0,0,0,1,0,0v4.84a3.35,3.35,0,0,1-3.35,3.35h-17.12a3.35,3.35,0,0,1-3.35-3.35v-4.84A0,0,0,0,1,1112.12,1322.64Z"></path><path class="cls-4" d="M1401.71,1002.6v146.85h-60.47v-29.08a3.59,3.59,0,0,0-3.59-3.59h-6.86v-77.86h6.86a3.59,3.59,0,0,0,3.59-3.59V1002.6Z"></path><path class="cls-7" d="M1401.71,1002.6v146.85h-60.47v-29.08a3.59,3.59,0,0,0-3.59-3.59h-6.86v-77.86h6.86a3.59,3.59,0,0,0,3.59-3.59V1002.6Z"></path><rect class="cls-13" x="1356.88" y="1005.23" width="19.25" height="4.73"></rect><path class="cls-5" d="M1293.53,981v14.37s75.4.25,75.4,0v-16"></path><rect class="cls-4" x="1296.46" y="981.97" width="5.85" height="9.95" rx="1.55"></rect><rect class="cls-4" x="1320.28" y="981.97" width="5.85" height="9.95" rx="1.55"></rect><rect class="cls-14" x="1304.45" y="981.97" width="13.19" height="9.95" rx="1.58"></rect><rect class="cls-4" x="1336.19" y="981.97" width="5.85" height="9.95" rx="1.55"></rect><rect class="cls-4" x="1360.01" y="981.97" width="5.85" height="9.95" rx="1.55"></rect><rect class="cls-14" x="1344.18" y="981.97" width="13.19" height="9.95" rx="1.58"></rect><line class="cls-5" x1="1330.79" y1="981.97" x2="1330.79" y2="993.52"></line><path class="cls-15" d="M1386.41,982.72v10.89h3.28v1.46h-7.89v-1.46h3.29V982.72Z"></path><path class="cls-15" d="M1380.38,982.72v12.35h-6.72v-1.46h5.4v-3.82h-4.68v-1.46h4.68v-5.61Z"></path><rect class="cls-7" x="1181.66" y="400.25" width="92.65" height="8.8"></rect><rect class="cls-7" x="1181.66" y="429.14" width="92.65" height="8.8"></rect><path class="cls-16" d="M632.09,1225.31H604.92v-3.72h24v-13.85h3.2Z"></path><path class="cls-16" d="M632.09,1202.68H604.92V1199h27.17Z"></path><path class="cls-16" d="M632.09,1192.55H604.92v-3.72h24V1175h3.2Z"></path><path class="cls-16" d="M632.09,1165.54H620.58l-15.66,10.84v-4.53l8.19-5.54c1.54-1,3.07-2,4.6-2.86-1.42-.84-3-1.87-4.8-3.07l-8-5.44v-4.34l15.66,11.22h11.51Z"></path><path class="cls-16" d="M621.44,1134.1h-3.19l0-11.91h10.08a21.26,21.26,0,0,1,3.18,5.66,17.3,17.3,0,0,1,1.07,6,16.3,16.3,0,0,1-1.72,7.53,11.46,11.46,0,0,1-5,5.11,15,15,0,0,1-7.24,1.73,16.28,16.28,0,0,1-7.41-1.72,11.18,11.18,0,0,1-5.1-4.93,15.86,15.86,0,0,1-1.67-7.43,15.27,15.27,0,0,1,.95-5.51,9.25,9.25,0,0,1,2.66-3.87,11.76,11.76,0,0,1,4.45-2.13l.89,3.36a10,10,0,0,0-3.26,1.57,6.4,6.4,0,0,0-1.9,2.69,10,10,0,0,0-.72,3.87,11.73,11.73,0,0,0,.75,4.41,8.27,8.27,0,0,0,2,3,9.23,9.23,0,0,0,2.69,1.77,13.71,13.71,0,0,0,5.46,1.08,12.9,12.9,0,0,0,6.08-1.3,8.16,8.16,0,0,0,3.64-3.77,12,12,0,0,0,1.18-5.25,12.81,12.81,0,0,0-.9-4.72,12.18,12.18,0,0,0-1.91-3.49h-5.06Z"></path><path class="cls-16" d="M618.86,1117.84q-6.76,0-10.59-3.76a13,13,0,0,1-3.83-9.71,13.84,13.84,0,0,1,1.8-7,12,12,0,0,1,5-4.77,15.87,15.87,0,0,1,7.29-1.64,15.6,15.6,0,0,1,7.4,1.73,11.6,11.6,0,0,1,4.94,4.89,14.36,14.36,0,0,1,1.68,6.83,13.63,13.63,0,0,1-1.86,7.1,12.11,12.11,0,0,1-5.06,4.74A14.94,14.94,0,0,1,618.86,1117.84Zm0-3.84a10.66,10.66,0,0,0,7.74-2.73,9.77,9.77,0,0,0,0-13.77q-2.86-2.71-8.1-2.72a13.58,13.58,0,0,0-5.8,1.16,8.69,8.69,0,0,0-3.83,3.4,9.42,9.42,0,0,0-1.37,5,9.69,9.69,0,0,0,2.63,6.8C611.91,1113.05,614.82,1114,618.91,1114Z"></path></g></svg>