<svg xmlns="http://www.w3.org/2000/svg" viewBox="270.22 240.95 404.28 462.85"><defs><style>.cls-1{fill:#1b1b1b;}.cls-2{fill:#434143;}.cls-3{fill:#353535;}.cls-4{fill:#2b2b2b;}.cls-5{fill:#f9d498;}.cls-6{fill:#fff;}.cls-7{fill:none;stroke:#050606;stroke-miterlimit:10;}.cls-8{fill:#181818;}.cls-9{fill:#cccccb;}</style></defs><g id="Layer_2" data-name="Layer 2"><rect class="cls-1" x="312.24" y="260.33" width="312.56" height="442.97"></rect><path class="cls-2" d="M674,267.08V696.56a6.75,6.75,0,0,1-6.75,6.74H277.51a6.62,6.62,0,0,1-1.95-.29,3.57,3.57,0,0,1-.46-.16,5.87,5.87,0,0,1-1.46-.78,3,3,0,0,1-.42-.31,4.17,4.17,0,0,1-.38-.34,5.77,5.77,0,0,1-.42-.44l0,0a3.25,3.25,0,0,1-.23-.29,3.43,3.43,0,0,1-.24-.33h0a3.15,3.15,0,0,1-.3-.48,1.71,1.71,0,0,1-.12-.23,2.7,2.7,0,0,1-.17-.34,2.44,2.44,0,0,1-.1-.24c-.05-.13-.1-.26-.14-.39a2,2,0,0,1-.07-.23c0-.13-.07-.27-.1-.41a1.55,1.55,0,0,1,0-.21,3.11,3.11,0,0,1-.07-.44,2.64,2.64,0,0,1,0-.28,1.64,1.64,0,0,1,0-.22,2.81,2.81,0,0,1,0-.29V267.08a6.75,6.75,0,0,1,6.75-6.75h44.73v28a8.34,8.34,0,0,0,2.44,5.9l21,21,5,5a7.1,7.1,0,0,0,.71.63,5.09,5.09,0,0,0,.47.34l.19.13c.14.09.28.18.43.26a8.16,8.16,0,0,0,2.06.83l.61.13h0l.56.08H356q.33,0,.66,0h59.05a3.44,3.44,0,0,0,3.44-3.44V317a3.44,3.44,0,0,0-3.44-3.44H362.22a4.62,4.62,0,0,1-.65-.07h0q-.31,0-.63-.12a6.29,6.29,0,0,1-.62-.17l-.34-.11-.1,0-.36-.14-.51-.24-.18-.1a5.45,5.45,0,0,1-.66-.39,6.26,6.26,0,0,1-.66-.49,8,8,0,0,1-.61-.55l-22.07-22.07a6.89,6.89,0,0,1-.62-.7,6.55,6.55,0,0,1-.39-.53l-.06-.09c-.11-.16-.21-.34-.31-.51s-.1-.17-.14-.26a5.59,5.59,0,0,1-.38-.87,6.69,6.69,0,0,1-.31-1,5.35,5.35,0,0,1-.11-.55v-.06c0-.22-.06-.44-.08-.66s0-.45,0-.68V260.33H614.66v22.86a8.31,8.31,0,0,1-2.45,5.9l-22.06,22.07a5.22,5.22,0,0,1-.43.39l-.05,0-.32.26a4.29,4.29,0,0,1-.55.4h0c-.16.1-.31.2-.47.28s-.22.13-.34.18l0,0-.12.06-.11.05-.07,0-.35.15-.08,0-.12,0-.38.13-.64.17-.56.1h0a4.6,4.6,0,0,1-.52.06c-.23,0-.45,0-.68,0H531.38a3.44,3.44,0,0,0-3.44,3.44v2.19c0,.12,0,.24,0,.35a3.55,3.55,0,0,0,.08.47,1.7,1.7,0,0,0,.1.32.09.09,0,0,0,0,.05,1.42,1.42,0,0,0,.08.18s0,.11.08.17a.91.91,0,0,0,.09.17,2.05,2.05,0,0,0,.24.36h0a.94.94,0,0,0,.09.12.52.52,0,0,0,.1.11,2.72,2.72,0,0,0,.39.37l.23.17a4.08,4.08,0,0,0,.58.32h0l.19.07a1.58,1.58,0,0,0,.31.09l.23.05.23,0,.35,0h59a8.36,8.36,0,0,0,5.9-2.44l26-26a8.31,8.31,0,0,0,2.45-5.9v-28h42.44a4.58,4.58,0,0,1,.53,0l.35,0a1.19,1.19,0,0,1,.32.05,3,3,0,0,1,.52.11l.57.18a.17.17,0,0,1,.1,0l.37.16a2.6,2.6,0,0,1,.34.16.72.72,0,0,1,.19.11,4.09,4.09,0,0,1,.48.29,5.2,5.2,0,0,1,.47.35l.09.06.44.41c.15.15.3.31.44.48a5,5,0,0,1,.39.52q.15.22.3.48a.27.27,0,0,0,.06.1c.06.12.12.25.17.38a3.79,3.79,0,0,1,.18.42,3.57,3.57,0,0,1,.16.46A6.82,6.82,0,0,1,674,267.08Z"></path><path class="cls-3" d="M270.76,658.06h33.53a8.5,8.5,0,0,0,8.5-8.5V320.42a8.5,8.5,0,0,0-8.5-8.5H270.76"></path><path class="cls-3" d="M674,658.06H640.46a8.51,8.51,0,0,1-8.5-8.5V320.42a8.5,8.5,0,0,1,8.5-8.5H674"></path><path class="cls-4" d="M632,380.26v19.3l-26.29,33a5.89,5.89,0,0,1-8.39.89,6.16,6.16,0,0,1-.87-8.56Z"></path><path class="cls-4" d="M558.84,424.91,632,333.07v19.31l-63.85,80.2a5.89,5.89,0,0,1-8.39.89A6.17,6.17,0,0,1,558.84,424.91Z"></path><polygon class="cls-4" points="671.03 303.31 664.17 311.92 648.8 311.92 655.65 303.31 671.03 303.31"></polygon><path class="cls-4" d="M633.46,303.31,530.54,432.58a5.89,5.89,0,0,1-8.39.89,6.16,6.16,0,0,1-.87-8.56L627.91,291v12.32Z"></path><path class="cls-4" d="M565.12,322.67h15.36L493,432.58a5.89,5.89,0,0,1-8.39.89,6.16,6.16,0,0,1-.87-8.56Z"></path><path class="cls-4" d="M614.66,260.44v19.3l-25.88,32.52h0c-.16.1-.31.2-.47.28s-.22.13-.34.18l0,0-.12.06-.11.05-.07,0-.35.15-.08,0-.12,0-.38.13-.64.17-.56.1h0a4.6,4.6,0,0,1-.52.06c-.23,0-.45,0-.68,0H572.34Z"></path><polygon class="cls-4" points="627.91 260.33 627.91 263.09 624.8 267 624.8 260.33 627.91 260.33"></polygon><path class="cls-4" d="M531.38,322.67h11.54L455.41,432.58a5.89,5.89,0,0,1-8.39.89,6.16,6.16,0,0,1-.87-8.56L528.64,321.3h0a.94.94,0,0,0,.09.12.52.52,0,0,0,.1.11,2.72,2.72,0,0,0,.39.37l.23.17a4.08,4.08,0,0,0,.58.32h0l.19.07a1.58,1.58,0,0,0,.31.09l.23.05.23,0Z"></path><polygon class="cls-4" points="592.55 260.33 550.14 313.6 534.77 313.6 577.19 260.33 592.55 260.33"></polygon><path class="cls-4" d="M555,260.33,417.85,432.58a5.89,5.89,0,0,1-8.39.89,6.16,6.16,0,0,1-.87-8.56l131-164.58Z"></path><path class="cls-4" d="M517.42,260.33,380.28,432.58a5.89,5.89,0,0,1-8.39.89,6.18,6.18,0,0,1-.87-8.56l131-164.58Z"></path><path class="cls-4" d="M479.86,260.33,342.72,432.58a5.89,5.89,0,0,1-8.39.89,6.16,6.16,0,0,1-.87-8.56l81.4-102.24,4.24-5.33,45.39-57Z"></path><polygon class="cls-4" points="377.29 322.67 392.66 322.67 312.79 423 312.79 403.68 377.29 322.67"></polygon><polygon class="cls-4" points="442.29 260.33 399.88 313.6 384.51 313.6 426.93 260.33 442.29 260.33"></polygon><path class="cls-4" d="M355.18,322.55h0l-42.41,53.26v-19.3l32.89-41.31,5,5a7.1,7.1,0,0,0,.71.63,5.09,5.09,0,0,0,.47.34l.19.13a3.78,3.78,0,0,0,.43.26,8.16,8.16,0,0,0,2.06.83Z"></path><path class="cls-4" d="M404.73,260.33l-42.4,53.26h-.11a4.62,4.62,0,0,1-.65-.07h0q-.31,0-.63-.12a6.29,6.29,0,0,1-.62-.17l-.34-.11-.1,0-.36-.14-.51-.24-.18-.1a5.45,5.45,0,0,1-.66-.39,6.26,6.26,0,0,1-.66-.49,8,8,0,0,1-.61-.55l-4.45-4.45,36.92-46.38Z"></path><path class="cls-4" d="M324.75,294.27l8.56,8.56-20.52,25.78v-8.19a8.45,8.45,0,0,0-3.43-6.82Z"></path><path class="cls-4" d="M367.14,260.33l-27.07,34-5.25-5.25a6.89,6.89,0,0,1-.62-.7,6.55,6.55,0,0,1-.39-.53l-.06-.09c-.11-.16-.21-.34-.31-.51s-.1-.17-.14-.26a5.59,5.59,0,0,1-.38-.87,6.69,6.69,0,0,1-.31-1,5.35,5.35,0,0,1-.11-.55v0l19.29-24.22Z"></path><polygon class="cls-4" points="279.98 303.31 295.35 303.31 288.49 311.92 273.12 311.92 279.98 303.31"></polygon><polygon class="cls-4" points="322.24 260.33 322.24 269.53 316.84 276.31 316.84 260.33 322.24 260.33"></polygon><path class="cls-4" d="M632,573.46v19.31L544,703.3h-11.5a6.14,6.14,0,0,1,.93-6Z"></path><path class="cls-4" d="M632,617.6v19.3l-52.87,66.4h-11.5a6.14,6.14,0,0,1,.93-6Z"></path><path class="cls-4" d="M603.66,697.28l24.25-30.46v19.31L614.24,703.3h-11.5A6.16,6.16,0,0,1,603.66,697.28Z"></path><path class="cls-4" d="M650.26,658.06l-1.9,2.39H633l2.95-3.7a8.45,8.45,0,0,0,4.53,1.31Z"></path><path class="cls-4" d="M632,526.28v19.3L506.38,703.3h-11.5a6.18,6.18,0,0,1,.93-6Z"></path><path class="cls-4" d="M607.21,527.33a6.17,6.17,0,0,1-1.33,3.83L468.82,703.3h-11.5a6.14,6.14,0,0,1,.93-6L596.61,523.49a5.9,5.9,0,0,1,8.4-.88A6.1,6.1,0,0,1,607.21,527.33Z"></path><path class="cls-4" d="M569.65,527.33a6.14,6.14,0,0,1-1.34,3.83l-137,172.14H419.75a6.18,6.18,0,0,1,.93-6L559.05,523.49a5.89,5.89,0,0,1,8.39-.88A6.11,6.11,0,0,1,569.65,527.33Z"></path><path class="cls-4" d="M532.08,527.33a6.17,6.17,0,0,1-1.33,3.83L393.69,703.3h-11.5a6.14,6.14,0,0,1,.93-6L521.49,523.49a5.89,5.89,0,0,1,8.39-.88A6.1,6.1,0,0,1,532.08,527.33Z"></path><path class="cls-4" d="M494.52,527.33a6.14,6.14,0,0,1-1.34,3.83l-137,172.14h-11.5a6.16,6.16,0,0,1,.92-6L483.92,523.49a5.89,5.89,0,0,1,8.39-.88A6.11,6.11,0,0,1,494.52,527.33Z"></path><path class="cls-4" d="M457,527.33a6.17,6.17,0,0,1-1.33,3.83L318.56,703.3h-1.72V686.16L446.36,523.49a5.89,5.89,0,0,1,8.39-.88A6.1,6.1,0,0,1,457,527.33Z"></path><path class="cls-4" d="M419.39,527.33a6.14,6.14,0,0,1-1.34,3.83L315.12,660.45H299.75l109-137a5.89,5.89,0,0,1,8.39-.88A6.11,6.11,0,0,1,419.39,527.33Z"></path><polygon class="cls-4" points="279.45 658.06 277.55 660.45 270.76 660.45 270.76 658.06 279.45 658.06"></polygon><path class="cls-4" d="M381.83,527.33a6.14,6.14,0,0,1-1.34,3.83l-67.7,85v-19.3l58.44-73.4a5.89,5.89,0,0,1,8.39-.88A6.11,6.11,0,0,1,381.83,527.33Z"></path><path class="cls-4" d="M344.26,527.33a6.14,6.14,0,0,1-1.34,3.83L312.79,569v-19.3l20.87-26.22a5.89,5.89,0,0,1,8.39-.88A6.11,6.11,0,0,1,344.26,527.33Z"></path><path class="cls-2" d="M422.78,253.73,430.69,243a3.83,3.83,0,0,1,3.07-1.55h75.52a3.8,3.8,0,0,1,3.22,1.78l6.64,10.51"></path><path class="cls-5" d="M312.71,327.38a11.38,11.38,0,0,1-18.86,7.16,3.51,3.51,0,0,0-2.33-.89H281.45a3.51,3.51,0,0,0-2.33.89,11.36,11.36,0,0,1-8.36,2.84v-22.7c.27,0,.53,0,.8,0a11.35,11.35,0,0,1,7.86,3.14,2.31,2.31,0,0,0,1.6.62H292a2.31,2.31,0,0,0,1.6-.62,11.39,11.39,0,0,1,19.16,9.59Z"></path><circle class="cls-6" cx="301.4" cy="326.03" r="8.36"></circle><path class="cls-7" d="M312.71,327.38a11.38,11.38,0,0,1-18.86,7.16,3.51,3.51,0,0,0-2.33-.89H281.45a3.51,3.51,0,0,0-2.33.89,11.36,11.36,0,0,1-8.36,2.84v-22.7c.27,0,.53,0,.8,0a11.35,11.35,0,0,1,7.86,3.14,2.31,2.31,0,0,0,1.6.62H292a2.31,2.31,0,0,0,1.6-.62,11.39,11.39,0,0,1,19.16,9.59Z"></path><path class="cls-6" d="M279.92,326a8.36,8.36,0,0,1-8.36,8.36,7,7,0,0,1-.8,0V317.71a7,7,0,0,1,.8,0A8.36,8.36,0,0,1,279.92,326Z"></path><path class="cls-5" d="M312.71,362.54a11.38,11.38,0,0,1-18.86,7.16,3.51,3.51,0,0,0-2.33-.89H281.45a3.51,3.51,0,0,0-2.33.89,11.36,11.36,0,0,1-8.36,2.84v-22.7c.27,0,.53,0,.8,0a11.35,11.35,0,0,1,7.86,3.14,2.31,2.31,0,0,0,1.6.62H292a2.31,2.31,0,0,0,1.6-.62,11.39,11.39,0,0,1,19.16,9.59Z"></path><circle class="cls-6" cx="301.4" cy="361.19" r="8.36"></circle><path class="cls-7" d="M312.71,362.54a11.38,11.38,0,0,1-18.86,7.16,3.51,3.51,0,0,0-2.33-.89H281.45a3.51,3.51,0,0,0-2.33.89,11.36,11.36,0,0,1-8.36,2.84v-22.7c.27,0,.53,0,.8,0a11.35,11.35,0,0,1,7.86,3.14,2.31,2.31,0,0,0,1.6.62H292a2.31,2.31,0,0,0,1.6-.62,11.39,11.39,0,0,1,19.16,9.59Z"></path><path class="cls-6" d="M279.92,361.19a8.36,8.36,0,0,1-8.36,8.36,7,7,0,0,1-.8,0V352.87a7,7,0,0,1,.8,0A8.36,8.36,0,0,1,279.92,361.19Z"></path><path class="cls-5" d="M312.71,397.7a11.38,11.38,0,0,1-18.86,7.16,3.51,3.51,0,0,0-2.33-.89H281.45a3.51,3.51,0,0,0-2.33.89,11.36,11.36,0,0,1-8.36,2.84V385c.27,0,.53,0,.8,0a11.35,11.35,0,0,1,7.86,3.14,2.31,2.31,0,0,0,1.6.62H292a2.31,2.31,0,0,0,1.6-.62,11.39,11.39,0,0,1,19.16,9.59Z"></path><circle class="cls-6" cx="301.4" cy="396.35" r="8.36"></circle><path class="cls-7" d="M312.71,397.7a11.38,11.38,0,0,1-18.86,7.16,3.51,3.51,0,0,0-2.33-.89H281.45a3.51,3.51,0,0,0-2.33.89,11.36,11.36,0,0,1-8.36,2.84V385c.27,0,.53,0,.8,0a11.35,11.35,0,0,1,7.86,3.14,2.31,2.31,0,0,0,1.6.62H292a2.31,2.31,0,0,0,1.6-.62,11.39,11.39,0,0,1,19.16,9.59Z"></path><path class="cls-6" d="M279.92,396.35a8.36,8.36,0,0,1-8.36,8.36,7,7,0,0,1-.8,0V388a7,7,0,0,1,.8,0A8.36,8.36,0,0,1,279.92,396.35Z"></path><path class="cls-5" d="M312.71,432.85A11.38,11.38,0,0,1,293.85,440a3.51,3.51,0,0,0-2.33-.89H281.45a3.51,3.51,0,0,0-2.33.89,11.36,11.36,0,0,1-8.36,2.84v-22.7c.27,0,.53,0,.8,0a11.35,11.35,0,0,1,7.86,3.14,2.31,2.31,0,0,0,1.6.62H292a2.31,2.31,0,0,0,1.6-.62,11.39,11.39,0,0,1,19.16,9.59Z"></path><circle class="cls-6" cx="301.4" cy="431.5" r="8.36"></circle><path class="cls-7" d="M312.71,432.85A11.38,11.38,0,0,1,293.85,440a3.51,3.51,0,0,0-2.33-.89H281.45a3.51,3.51,0,0,0-2.33.89,11.36,11.36,0,0,1-8.36,2.84v-22.7c.27,0,.53,0,.8,0a11.35,11.35,0,0,1,7.86,3.14,2.31,2.31,0,0,0,1.6.62H292a2.31,2.31,0,0,0,1.6-.62,11.39,11.39,0,0,1,19.16,9.59Z"></path><path class="cls-6" d="M279.92,431.5a8.36,8.36,0,0,1-8.36,8.36,7,7,0,0,1-.8,0V423.18a7,7,0,0,1,.8,0A8.36,8.36,0,0,1,279.92,431.5Z"></path><path class="cls-5" d="M312.71,468a11.38,11.38,0,0,1-18.86,7.16,3.51,3.51,0,0,0-2.33-.89H281.45a3.51,3.51,0,0,0-2.33.89,11.36,11.36,0,0,1-8.36,2.84v-22.7c.27,0,.53,0,.8,0a11.35,11.35,0,0,1,7.86,3.14,2.31,2.31,0,0,0,1.6.62H292a2.31,2.31,0,0,0,1.6-.62A11.39,11.39,0,0,1,312.71,468Z"></path><circle class="cls-6" cx="301.4" cy="466.66" r="8.36"></circle><path class="cls-7" d="M312.71,468a11.38,11.38,0,0,1-18.86,7.16,3.51,3.51,0,0,0-2.33-.89H281.45a3.51,3.51,0,0,0-2.33.89,11.36,11.36,0,0,1-8.36,2.84v-22.7c.27,0,.53,0,.8,0a11.35,11.35,0,0,1,7.86,3.14,2.31,2.31,0,0,0,1.6.62H292a2.31,2.31,0,0,0,1.6-.62A11.39,11.39,0,0,1,312.71,468Z"></path><path class="cls-6" d="M279.92,466.66a8.36,8.36,0,0,1-8.36,8.36,7,7,0,0,1-.8,0V458.34a7,7,0,0,1,.8,0A8.36,8.36,0,0,1,279.92,466.66Z"></path><path class="cls-5" d="M312.71,503.17a11.38,11.38,0,0,1-18.86,7.16,3.51,3.51,0,0,0-2.33-.89H281.45a3.51,3.51,0,0,0-2.33.89,11.36,11.36,0,0,1-8.36,2.84v-22.7c.27,0,.53,0,.8,0a11.35,11.35,0,0,1,7.86,3.14,2.31,2.31,0,0,0,1.6.62H292a2.31,2.31,0,0,0,1.6-.62,11.39,11.39,0,0,1,19.16,9.59Z"></path><circle class="cls-6" cx="301.4" cy="501.82" r="8.36"></circle><path class="cls-7" d="M312.71,503.17a11.38,11.38,0,0,1-18.86,7.16,3.51,3.51,0,0,0-2.33-.89H281.45a3.51,3.51,0,0,0-2.33.89,11.36,11.36,0,0,1-8.36,2.84v-22.7c.27,0,.53,0,.8,0a11.35,11.35,0,0,1,7.86,3.14,2.31,2.31,0,0,0,1.6.62H292a2.31,2.31,0,0,0,1.6-.62,11.39,11.39,0,0,1,19.16,9.59Z"></path><path class="cls-6" d="M279.92,501.82a8.36,8.36,0,0,1-8.36,8.36,7,7,0,0,1-.8,0V493.5a7,7,0,0,1,.8,0A8.36,8.36,0,0,1,279.92,501.82Z"></path><path class="cls-5" d="M312.71,538.32a11.38,11.38,0,0,1-18.86,7.16,3.51,3.51,0,0,0-2.33-.89H281.45a3.51,3.51,0,0,0-2.33.89,11.36,11.36,0,0,1-8.36,2.84v-22.7c.27,0,.53,0,.8,0a11.35,11.35,0,0,1,7.86,3.14,2.31,2.31,0,0,0,1.6.62H292a2.31,2.31,0,0,0,1.6-.62,11.39,11.39,0,0,1,19.16,9.59Z"></path><circle class="cls-6" cx="301.4" cy="536.97" r="8.36"></circle><path class="cls-7" d="M312.71,538.32a11.38,11.38,0,0,1-18.86,7.16,3.51,3.51,0,0,0-2.33-.89H281.45a3.51,3.51,0,0,0-2.33.89,11.36,11.36,0,0,1-8.36,2.84v-22.7c.27,0,.53,0,.8,0a11.35,11.35,0,0,1,7.86,3.14,2.31,2.31,0,0,0,1.6.62H292a2.31,2.31,0,0,0,1.6-.62,11.39,11.39,0,0,1,19.16,9.59Z"></path><path class="cls-6" d="M279.92,537a8.36,8.36,0,0,1-8.36,8.36,7,7,0,0,1-.8,0V528.65a7,7,0,0,1,.8,0A8.36,8.36,0,0,1,279.92,537Z"></path><path class="cls-5" d="M312.71,573.48a11.38,11.38,0,0,1-18.86,7.16,3.51,3.51,0,0,0-2.33-.89H281.45a3.51,3.51,0,0,0-2.33.89,11.36,11.36,0,0,1-8.36,2.84v-22.7c.27,0,.53,0,.8,0a11.35,11.35,0,0,1,7.86,3.14,2.31,2.31,0,0,0,1.6.62H292a2.31,2.31,0,0,0,1.6-.62,11.39,11.39,0,0,1,19.16,9.59Z"></path><circle class="cls-6" cx="301.4" cy="572.13" r="8.36"></circle><path class="cls-7" d="M312.71,573.48a11.38,11.38,0,0,1-18.86,7.16,3.51,3.51,0,0,0-2.33-.89H281.45a3.51,3.51,0,0,0-2.33.89,11.36,11.36,0,0,1-8.36,2.84v-22.7c.27,0,.53,0,.8,0a11.35,11.35,0,0,1,7.86,3.14,2.31,2.31,0,0,0,1.6.62H292a2.31,2.31,0,0,0,1.6-.62,11.39,11.39,0,0,1,19.16,9.59Z"></path><path class="cls-6" d="M279.92,572.13a8.36,8.36,0,0,1-8.36,8.36,7,7,0,0,1-.8,0V563.81a7,7,0,0,1,.8,0A8.36,8.36,0,0,1,279.92,572.13Z"></path><path class="cls-5" d="M312.71,608.63a11.38,11.38,0,0,1-18.86,7.16,3.51,3.51,0,0,0-2.33-.89H281.45a3.51,3.51,0,0,0-2.33.89,11.36,11.36,0,0,1-8.36,2.84v-22.7c.27,0,.53,0,.8,0a11.35,11.35,0,0,1,7.86,3.14,2.31,2.31,0,0,0,1.6.62H292a2.31,2.31,0,0,0,1.6-.62,11.39,11.39,0,0,1,19.16,9.59Z"></path><circle class="cls-6" cx="301.4" cy="607.28" r="8.36"></circle><path class="cls-7" d="M312.71,608.63a11.38,11.38,0,0,1-18.86,7.16,3.51,3.51,0,0,0-2.33-.89H281.45a3.51,3.51,0,0,0-2.33.89,11.36,11.36,0,0,1-8.36,2.84v-22.7c.27,0,.53,0,.8,0a11.35,11.35,0,0,1,7.86,3.14,2.31,2.31,0,0,0,1.6.62H292a2.31,2.31,0,0,0,1.6-.62,11.39,11.39,0,0,1,19.16,9.59Z"></path><path class="cls-6" d="M279.92,607.28a8.36,8.36,0,0,1-8.36,8.36,7,7,0,0,1-.8,0V599a7,7,0,0,1,.8,0A8.36,8.36,0,0,1,279.92,607.28Z"></path><path class="cls-5" d="M312.24,632.92v19a1.86,1.86,0,0,1-1.86,1.86H293a1.86,1.86,0,0,1-1.86-1.86v-1.9h-9.73a3.51,3.51,0,0,0-2.33.89,11.36,11.36,0,0,1-8.36,2.84v-22.7c.27,0,.53,0,.8,0a11.35,11.35,0,0,1,7.86,3.14,2.31,2.31,0,0,0,1.6.62h10.16v-1.9a1.86,1.86,0,0,1,1.86-1.86h17.34A1.86,1.86,0,0,1,312.24,632.92Z"></path><circle class="cls-6" cx="301.4" cy="642.44" r="8.36"></circle><path class="cls-6" d="M279.92,642.44a8.36,8.36,0,0,1-8.36,8.36,7,7,0,0,1-.8,0V634.12a7,7,0,0,1,.8,0A8.36,8.36,0,0,1,279.92,642.44Z"></path><circle class="cls-4" cx="292.92" cy="279.53" r="10.92"></circle><circle class="cls-7" cx="292.92" cy="279.53" r="10.92"></circle><path class="cls-8" d="M300.31,279.53a2.39,2.39,0,0,1-2.38,2.38h-2.62v2.62a2.38,2.38,0,0,1-4.76,0v-2.62h-2.62a2.39,2.39,0,1,1,0-4.77h2.62v-2.62a2.38,2.38,0,0,1,4.76,0v2.62h2.62A2.39,2.39,0,0,1,300.31,279.53Z"></path><circle class="cls-4" cx="653.25" cy="279.53" r="10.92"></circle><circle class="cls-7" cx="653.25" cy="279.53" r="10.92"></circle><path class="cls-8" d="M660.64,279.53a2.39,2.39,0,0,1-2.38,2.38h-2.62v2.62a2.38,2.38,0,0,1-4.76,0v-2.62h-2.62a2.39,2.39,0,1,1,0-4.77h2.62v-2.62a2.38,2.38,0,0,1,4.76,0v2.62h2.62A2.39,2.39,0,0,1,660.64,279.53Z"></path><circle class="cls-4" cx="292.92" cy="680.59" r="10.92"></circle><circle class="cls-7" cx="292.92" cy="680.59" r="10.92"></circle><path class="cls-8" d="M300.31,680.59a2.39,2.39,0,0,1-2.38,2.38h-2.62v2.62a2.38,2.38,0,0,1-4.76,0V683h-2.62a2.39,2.39,0,1,1,0-4.77h2.62v-2.62a2.38,2.38,0,0,1,4.76,0v2.62h2.62A2.39,2.39,0,0,1,300.31,680.59Z"></path><circle class="cls-4" cx="653.25" cy="680.59" r="10.92"></circle><circle class="cls-7" cx="653.25" cy="680.59" r="10.92"></circle><path class="cls-8" d="M660.64,680.59a2.39,2.39,0,0,1-2.38,2.38h-2.62v2.62a2.38,2.38,0,0,1-4.76,0V683h-2.62a2.39,2.39,0,1,1,0-4.77h2.62v-2.62a2.38,2.38,0,0,1,4.76,0v2.62h2.62A2.39,2.39,0,0,1,660.64,680.59Z"></path><path class="cls-7" d="M270.76,658.06h33.53a8.5,8.5,0,0,0,8.5-8.5V320.42a8.5,8.5,0,0,0-8.5-8.5H270.76"></path><path class="cls-7" d="M332.38,260.33v22.86a8.34,8.34,0,0,0,2.44,5.9l22.07,22.07a8.34,8.34,0,0,0,5.9,2.44h52.87A3.44,3.44,0,0,1,419.1,317v2.19a3.44,3.44,0,0,1-3.44,3.44H356.61a8.34,8.34,0,0,1-5.9-2.44l-26-26a8.34,8.34,0,0,1-2.44-5.9v-28"></path><path class="cls-7" d="M614.66,260.33v22.86a8.31,8.31,0,0,1-2.45,5.9l-22.06,22.07a5.22,5.22,0,0,1-.43.39l-.05,0a1.92,1.92,0,0,1-.32.26,4.29,4.29,0,0,1-.55.4h0c-.16.1-.31.2-.47.28a2.21,2.21,0,0,1-.34.18l0,0-.12.06-.11.05-.07,0-.35.15-.08,0-.12,0-.38.13-.64.17-.56.1h0a4.35,4.35,0,0,1-.52.06c-.23,0-.45,0-.68,0H531.38a3.44,3.44,0,0,0-3.44,3.44v2.19c0,.12,0,.24,0,.35a3.55,3.55,0,0,0,.08.47,1.7,1.7,0,0,0,.1.32.09.09,0,0,0,0,.05,1.42,1.42,0,0,0,.08.18s0,.11.08.17a.56.56,0,0,0,.09.17,2.05,2.05,0,0,0,.24.36h0a.94.94,0,0,0,.09.12.52.52,0,0,0,.1.11,2.72,2.72,0,0,0,.39.37l.23.17a3.28,3.28,0,0,0,.58.32h0l.19.07a1.58,1.58,0,0,0,.31.09l.23.05.23,0,.35,0h59a8.36,8.36,0,0,0,5.9-2.44l26-26a8.31,8.31,0,0,0,2.45-5.9v-28"></path><path class="cls-7" d="M312.24,632.92v19a1.86,1.86,0,0,1-1.86,1.86H293a1.86,1.86,0,0,1-1.86-1.86v-1.9h-9.73a3.51,3.51,0,0,0-2.33.89,11.36,11.36,0,0,1-8.36,2.84v-22.7c.27,0,.53,0,.8,0a11.35,11.35,0,0,1,7.86,3.14,2.31,2.31,0,0,0,1.6.62h10.16v-1.9a1.86,1.86,0,0,1,1.86-1.86h17.34A1.86,1.86,0,0,1,312.24,632.92Z"></path><path class="cls-5" d="M632,327.38a11.38,11.38,0,0,0,18.86,7.16,3.51,3.51,0,0,1,2.33-.89H663.3a3.51,3.51,0,0,1,2.33.89,11.36,11.36,0,0,0,8.36,2.84v-22.7c-.27,0-.53,0-.8,0a11.35,11.35,0,0,0-7.86,3.14,2.31,2.31,0,0,1-1.6.62H652.8a2.31,2.31,0,0,1-1.6-.62A11.39,11.39,0,0,0,632,327.38Z"></path><circle class="cls-6" cx="643.34" cy="326.03" r="8.36"></circle><path class="cls-7" d="M632,327.38a11.38,11.38,0,0,0,18.86,7.16,3.51,3.51,0,0,1,2.33-.89H663.3a3.51,3.51,0,0,1,2.33.89,11.36,11.36,0,0,0,8.36,2.84v-22.7c-.27,0-.53,0-.8,0a11.35,11.35,0,0,0-7.86,3.14,2.31,2.31,0,0,1-1.6.62H652.8a2.31,2.31,0,0,1-1.6-.62A11.39,11.39,0,0,0,632,327.38Z"></path><path class="cls-6" d="M664.83,326a8.36,8.36,0,0,0,8.36,8.36,7,7,0,0,0,.8,0V317.71a7,7,0,0,0-.8,0A8.36,8.36,0,0,0,664.83,326Z"></path><path class="cls-5" d="M632,362.54a11.38,11.38,0,0,0,18.86,7.16,3.51,3.51,0,0,1,2.33-.89H663.3a3.51,3.51,0,0,1,2.33.89,11.36,11.36,0,0,0,8.36,2.84v-22.7c-.27,0-.53,0-.8,0a11.35,11.35,0,0,0-7.86,3.14,2.31,2.31,0,0,1-1.6.62H652.8a2.31,2.31,0,0,1-1.6-.62A11.39,11.39,0,0,0,632,362.54Z"></path><circle class="cls-6" cx="643.34" cy="361.19" r="8.36"></circle><path class="cls-7" d="M632,362.54a11.38,11.38,0,0,0,18.86,7.16,3.51,3.51,0,0,1,2.33-.89H663.3a3.51,3.51,0,0,1,2.33.89,11.36,11.36,0,0,0,8.36,2.84v-22.7c-.27,0-.53,0-.8,0a11.35,11.35,0,0,0-7.86,3.14,2.31,2.31,0,0,1-1.6.62H652.8a2.31,2.31,0,0,1-1.6-.62A11.39,11.39,0,0,0,632,362.54Z"></path><path class="cls-6" d="M664.83,361.19a8.36,8.36,0,0,0,8.36,8.36,7,7,0,0,0,.8,0V352.87a7,7,0,0,0-.8,0A8.36,8.36,0,0,0,664.83,361.19Z"></path><path class="cls-5" d="M632,397.7a11.38,11.38,0,0,0,18.86,7.16,3.51,3.51,0,0,1,2.33-.89H663.3a3.51,3.51,0,0,1,2.33.89A11.36,11.36,0,0,0,674,407.7V385c-.27,0-.53,0-.8,0a11.35,11.35,0,0,0-7.86,3.14,2.31,2.31,0,0,1-1.6.62H652.8a2.31,2.31,0,0,1-1.6-.62A11.39,11.39,0,0,0,632,397.7Z"></path><circle class="cls-6" cx="643.34" cy="396.35" r="8.36"></circle><path class="cls-7" d="M632,397.7a11.38,11.38,0,0,0,18.86,7.16,3.51,3.51,0,0,1,2.33-.89H663.3a3.51,3.51,0,0,1,2.33.89A11.36,11.36,0,0,0,674,407.7V385c-.27,0-.53,0-.8,0a11.35,11.35,0,0,0-7.86,3.14,2.31,2.31,0,0,1-1.6.62H652.8a2.31,2.31,0,0,1-1.6-.62A11.39,11.39,0,0,0,632,397.7Z"></path><path class="cls-6" d="M664.83,396.35a8.36,8.36,0,0,0,8.36,8.36,7,7,0,0,0,.8,0V388a7,7,0,0,0-.8,0A8.36,8.36,0,0,0,664.83,396.35Z"></path><path class="cls-5" d="M632,432.85A11.38,11.38,0,0,0,650.9,440a3.51,3.51,0,0,1,2.33-.89H663.3a3.51,3.51,0,0,1,2.33.89,11.36,11.36,0,0,0,8.36,2.84v-22.7c-.27,0-.53,0-.8,0a11.35,11.35,0,0,0-7.86,3.14,2.31,2.31,0,0,1-1.6.62H652.8a2.31,2.31,0,0,1-1.6-.62A11.39,11.39,0,0,0,632,432.85Z"></path><circle class="cls-6" cx="643.34" cy="431.5" r="8.36"></circle><path class="cls-7" d="M632,432.85A11.38,11.38,0,0,0,650.9,440a3.51,3.51,0,0,1,2.33-.89H663.3a3.51,3.51,0,0,1,2.33.89,11.36,11.36,0,0,0,8.36,2.84v-22.7c-.27,0-.53,0-.8,0a11.35,11.35,0,0,0-7.86,3.14,2.31,2.31,0,0,1-1.6.62H652.8a2.31,2.31,0,0,1-1.6-.62A11.39,11.39,0,0,0,632,432.85Z"></path><path class="cls-6" d="M664.83,431.5a8.36,8.36,0,0,0,8.36,8.36,7,7,0,0,0,.8,0V423.18a7,7,0,0,0-.8,0A8.36,8.36,0,0,0,664.83,431.5Z"></path><path class="cls-5" d="M632,468a11.38,11.38,0,0,0,18.86,7.16,3.51,3.51,0,0,1,2.33-.89H663.3a3.51,3.51,0,0,1,2.33.89A11.36,11.36,0,0,0,674,478v-22.7c-.27,0-.53,0-.8,0a11.35,11.35,0,0,0-7.86,3.14,2.31,2.31,0,0,1-1.6.62H652.8a2.31,2.31,0,0,1-1.6-.62A11.39,11.39,0,0,0,632,468Z"></path><circle class="cls-6" cx="643.34" cy="466.66" r="8.36"></circle><path class="cls-7" d="M632,468a11.38,11.38,0,0,0,18.86,7.16,3.51,3.51,0,0,1,2.33-.89H663.3a3.51,3.51,0,0,1,2.33.89A11.36,11.36,0,0,0,674,478v-22.7c-.27,0-.53,0-.8,0a11.35,11.35,0,0,0-7.86,3.14,2.31,2.31,0,0,1-1.6.62H652.8a2.31,2.31,0,0,1-1.6-.62A11.39,11.39,0,0,0,632,468Z"></path><path class="cls-6" d="M664.83,466.66a8.36,8.36,0,0,0,8.36,8.36,7,7,0,0,0,.8,0V458.34a7,7,0,0,0-.8,0A8.36,8.36,0,0,0,664.83,466.66Z"></path><path class="cls-5" d="M632,503.17a11.38,11.38,0,0,0,18.86,7.16,3.51,3.51,0,0,1,2.33-.89H663.3a3.51,3.51,0,0,1,2.33.89,11.36,11.36,0,0,0,8.36,2.84v-22.7c-.27,0-.53,0-.8,0a11.35,11.35,0,0,0-7.86,3.14,2.31,2.31,0,0,1-1.6.62H652.8a2.31,2.31,0,0,1-1.6-.62A11.39,11.39,0,0,0,632,503.17Z"></path><circle class="cls-6" cx="643.34" cy="501.82" r="8.36"></circle><path class="cls-7" d="M632,503.17a11.38,11.38,0,0,0,18.86,7.16,3.51,3.51,0,0,1,2.33-.89H663.3a3.51,3.51,0,0,1,2.33.89,11.36,11.36,0,0,0,8.36,2.84v-22.7c-.27,0-.53,0-.8,0a11.35,11.35,0,0,0-7.86,3.14,2.31,2.31,0,0,1-1.6.62H652.8a2.31,2.31,0,0,1-1.6-.62A11.39,11.39,0,0,0,632,503.17Z"></path><path class="cls-6" d="M664.83,501.82a8.36,8.36,0,0,0,8.36,8.36,7,7,0,0,0,.8,0V493.5a7,7,0,0,0-.8,0A8.36,8.36,0,0,0,664.83,501.82Z"></path><path class="cls-5" d="M632,538.32a11.38,11.38,0,0,0,18.86,7.16,3.51,3.51,0,0,1,2.33-.89H663.3a3.51,3.51,0,0,1,2.33.89,11.36,11.36,0,0,0,8.36,2.84v-22.7c-.27,0-.53,0-.8,0a11.35,11.35,0,0,0-7.86,3.14,2.31,2.31,0,0,1-1.6.62H652.8a2.31,2.31,0,0,1-1.6-.62A11.39,11.39,0,0,0,632,538.32Z"></path><circle class="cls-6" cx="643.34" cy="536.97" r="8.36"></circle><path class="cls-7" d="M632,538.32a11.38,11.38,0,0,0,18.86,7.16,3.51,3.51,0,0,1,2.33-.89H663.3a3.51,3.51,0,0,1,2.33.89,11.36,11.36,0,0,0,8.36,2.84v-22.7c-.27,0-.53,0-.8,0a11.35,11.35,0,0,0-7.86,3.14,2.31,2.31,0,0,1-1.6.62H652.8a2.31,2.31,0,0,1-1.6-.62A11.39,11.39,0,0,0,632,538.32Z"></path><path class="cls-6" d="M664.83,537a8.36,8.36,0,0,0,8.36,8.36,7,7,0,0,0,.8,0V528.65a7,7,0,0,0-.8,0A8.36,8.36,0,0,0,664.83,537Z"></path><path class="cls-5" d="M632,573.48a11.38,11.38,0,0,0,18.86,7.16,3.51,3.51,0,0,1,2.33-.89H663.3a3.51,3.51,0,0,1,2.33.89,11.36,11.36,0,0,0,8.36,2.84v-22.7c-.27,0-.53,0-.8,0a11.35,11.35,0,0,0-7.86,3.14,2.31,2.31,0,0,1-1.6.62H652.8a2.31,2.31,0,0,1-1.6-.62A11.39,11.39,0,0,0,632,573.48Z"></path><circle class="cls-6" cx="643.34" cy="572.13" r="8.36"></circle><path class="cls-7" d="M632,573.48a11.38,11.38,0,0,0,18.86,7.16,3.51,3.51,0,0,1,2.33-.89H663.3a3.51,3.51,0,0,1,2.33.89,11.36,11.36,0,0,0,8.36,2.84v-22.7c-.27,0-.53,0-.8,0a11.35,11.35,0,0,0-7.86,3.14,2.31,2.31,0,0,1-1.6.62H652.8a2.31,2.31,0,0,1-1.6-.62A11.39,11.39,0,0,0,632,573.48Z"></path><path class="cls-6" d="M664.83,572.13a8.36,8.36,0,0,0,8.36,8.36,7,7,0,0,0,.8,0V563.81a7,7,0,0,0-.8,0A8.36,8.36,0,0,0,664.83,572.13Z"></path><path class="cls-5" d="M632,608.63a11.38,11.38,0,0,0,18.86,7.16,3.51,3.51,0,0,1,2.33-.89H663.3a3.51,3.51,0,0,1,2.33.89,11.36,11.36,0,0,0,8.36,2.84v-22.7c-.27,0-.53,0-.8,0a11.35,11.35,0,0,0-7.86,3.14,2.31,2.31,0,0,1-1.6.62H652.8a2.31,2.31,0,0,1-1.6-.62A11.39,11.39,0,0,0,632,608.63Z"></path><circle class="cls-6" cx="643.34" cy="607.28" r="8.36"></circle><path class="cls-7" d="M632,608.63a11.38,11.38,0,0,0,18.86,7.16,3.51,3.51,0,0,1,2.33-.89H663.3a3.51,3.51,0,0,1,2.33.89,11.36,11.36,0,0,0,8.36,2.84v-22.7c-.27,0-.53,0-.8,0a11.35,11.35,0,0,0-7.86,3.14,2.31,2.31,0,0,1-1.6.62H652.8a2.31,2.31,0,0,1-1.6-.62A11.39,11.39,0,0,0,632,608.63Z"></path><path class="cls-6" d="M664.83,607.28a8.36,8.36,0,0,0,8.36,8.36,7,7,0,0,0,.8,0V599a7,7,0,0,0-.8,0A8.36,8.36,0,0,0,664.83,607.28Z"></path><path class="cls-5" d="M632.51,632.92v19a1.86,1.86,0,0,0,1.86,1.86h17.34a1.86,1.86,0,0,0,1.86-1.86v-1.9h9.73a3.51,3.51,0,0,1,2.33.89,11.36,11.36,0,0,0,8.36,2.84v-22.7c-.27,0-.53,0-.8,0a11.35,11.35,0,0,0-7.86,3.14,2.31,2.31,0,0,1-1.6.62H653.57v-1.9a1.86,1.86,0,0,0-1.86-1.86H634.37A1.86,1.86,0,0,0,632.51,632.92Z"></path><circle class="cls-6" cx="643.34" cy="642.44" r="8.36"></circle><path class="cls-6" d="M664.83,642.44a8.36,8.36,0,0,0,8.36,8.36,7,7,0,0,0,.8,0V634.12a7,7,0,0,0-.8,0A8.36,8.36,0,0,0,664.83,642.44Z"></path><path class="cls-7" d="M674,658.06H640.46a8.51,8.51,0,0,1-8.5-8.5V320.42a8.5,8.5,0,0,1,8.5-8.5H674"></path><path class="cls-7" d="M632.51,632.92v19a1.86,1.86,0,0,0,1.86,1.86h17.34a1.86,1.86,0,0,0,1.86-1.86v-1.9h9.73a3.51,3.51,0,0,1,2.33.89,11.36,11.36,0,0,0,8.36,2.84v-22.7c-.27,0-.53,0-.8,0a11.35,11.35,0,0,0-7.86,3.14,2.31,2.31,0,0,1-1.6.62H653.57v-1.9a1.86,1.86,0,0,0-1.86-1.86H634.37A1.86,1.86,0,0,0,632.51,632.92Z"></path><path class="cls-7" d="M674,267.08V696.56a6.75,6.75,0,0,1-6.75,6.74H277.51a6.62,6.62,0,0,1-1.95-.29,3.57,3.57,0,0,1-.46-.16,5.87,5.87,0,0,1-1.46-.78,3,3,0,0,1-.42-.31,4.17,4.17,0,0,1-.38-.34,5.77,5.77,0,0,1-.42-.44l0,0a3.25,3.25,0,0,1-.23-.29,3.43,3.43,0,0,1-.24-.33h0a3.15,3.15,0,0,1-.3-.48,1.71,1.71,0,0,1-.12-.23,2.7,2.7,0,0,1-.17-.34,2.44,2.44,0,0,1-.1-.24c-.05-.13-.1-.26-.14-.39a2,2,0,0,1-.07-.23c0-.13-.07-.27-.1-.41a1.55,1.55,0,0,1,0-.21,3.11,3.11,0,0,1-.07-.44,2.64,2.64,0,0,1,0-.28,4.36,4.36,0,0,1,0-.51V267.08a6.75,6.75,0,0,1,6.75-6.75h44.73v28a8.34,8.34,0,0,0,2.44,5.9l21,21,5,5a7.1,7.1,0,0,0,.71.63,5.09,5.09,0,0,0,.47.34l.19.13a3.78,3.78,0,0,0,.43.26,8.16,8.16,0,0,0,2.06.83l.61.13h0l.56.08H356q.33,0,.66,0h59.05a3.44,3.44,0,0,0,3.44-3.44V317a3.44,3.44,0,0,0-3.44-3.44H362.22a4.62,4.62,0,0,1-.65-.07h0q-.31,0-.63-.12a6.29,6.29,0,0,1-.62-.17l-.34-.11-.1,0-.36-.14-.51-.24-.18-.1a5.45,5.45,0,0,1-.66-.39,6.26,6.26,0,0,1-.66-.49,8,8,0,0,1-.61-.55l-22.07-22.07a6.89,6.89,0,0,1-.62-.7,6.55,6.55,0,0,1-.39-.53l-.06-.09c-.11-.16-.21-.34-.31-.51s-.1-.17-.14-.26a5.59,5.59,0,0,1-.38-.87,6.69,6.69,0,0,1-.31-1,5.35,5.35,0,0,1-.11-.55v-.06c0-.22-.06-.44-.08-.66s0-.45,0-.68V260.33H614.66v22.86a8.31,8.31,0,0,1-2.45,5.9l-22.06,22.07a5.22,5.22,0,0,1-.43.39l-.05,0-.32.26a4.29,4.29,0,0,1-.55.4h0c-.16.1-.31.2-.47.28s-.22.13-.34.18l0,0-.12.06-.11.05-.07,0-.35.15-.08,0-.12,0-.38.13-.64.17-.56.1h0a4.6,4.6,0,0,1-.52.06c-.23,0-.45,0-.68,0H531.38a3.44,3.44,0,0,0-3.44,3.44v2.19c0,.12,0,.24,0,.35a3.55,3.55,0,0,0,.08.47,1.7,1.7,0,0,0,.1.32.09.09,0,0,0,0,.05,1.42,1.42,0,0,0,.08.18s0,.11.08.17a.91.91,0,0,0,.09.17,2.05,2.05,0,0,0,.24.36h0a.94.94,0,0,0,.09.12.52.52,0,0,0,.1.11,2.72,2.72,0,0,0,.39.37,1.24,1.24,0,0,0,.23.17,4.08,4.08,0,0,0,.58.32h0l.19.07a1.58,1.58,0,0,0,.31.09l.23.05.23,0,.35,0h59a8.36,8.36,0,0,0,5.9-2.44l26-26a8.31,8.31,0,0,0,2.45-5.9v-28h42.44a4.58,4.58,0,0,1,.53,0l.35,0a1.19,1.19,0,0,1,.32.05,3,3,0,0,1,.52.11l.57.18a.17.17,0,0,1,.1,0l.37.16a2.6,2.6,0,0,1,.34.16.72.72,0,0,1,.19.11,4.09,4.09,0,0,1,.48.29,5.2,5.2,0,0,1,.47.35l.09.06.44.41c.15.15.3.31.44.48a5,5,0,0,1,.39.52q.15.22.3.48a.27.27,0,0,0,.06.1c.06.12.12.25.17.38a3.79,3.79,0,0,1,.18.42,3.57,3.57,0,0,1,.16.46A6.82,6.82,0,0,1,674,267.08Z"></path><rect class="cls-5" x="434.83" y="246.4" width="3.3" height="7.33"></rect><rect class="cls-5" x="453.81" y="246.4" width="3.3" height="7.33"></rect><rect class="cls-5" x="488.83" y="246.4" width="3.3" height="7.33"></rect><rect class="cls-5" x="507.81" y="246.4" width="3.3" height="7.33"></rect><path class="cls-9" d="M413.29,253.73H530.14a1.51,1.51,0,0,1,1.51,1.51v5.09a0,0,0,0,1,0,0H411.78a0,0,0,0,1,0,0v-5.09A1.51,1.51,0,0,1,413.29,253.73Z"></path><path class="cls-7" d="M413.29,253.73H530.14a1.51,1.51,0,0,1,1.51,1.51v5.09a0,0,0,0,1,0,0H411.78a0,0,0,0,1,0,0v-5.09A1.51,1.51,0,0,1,413.29,253.73Z"></path><path class="cls-7" d="M422.78,253.73,430.69,243a3.83,3.83,0,0,1,3.07-1.55h75.52a3.8,3.8,0,0,1,3.22,1.78l6.64,10.51"></path><path class="cls-4" d="M338.2,506.12V450h7.6V499.5h28.29v6.62Z"></path><path class="cls-4" d="M384.43,506.12V450H392v56.13Z"></path><path class="cls-4" d="M405.12,506.12V450h7.6V499.5H441v6.62Z"></path><path class="cls-4" d="M460.29,506.12V482.35L438.15,450h9.24l11.33,16.93q3.13,4.74,5.84,9.49,2.58-4.4,6.27-9.91L482,450h8.86l-22.92,32.36v23.77Z"></path><path class="cls-4" d="M524.51,484.11v-6.59l24.33,0v20.83a43.38,43.38,0,0,1-11.56,6.57,35,35,0,0,1-12.23,2.2,33.22,33.22,0,0,1-15.37-3.54,23.71,23.71,0,0,1-10.44-10.24,31.56,31.56,0,0,1-3.53-15,34.06,34.06,0,0,1,3.51-15.3,23,23,0,0,1,10.08-10.55A32.22,32.22,0,0,1,524.47,449a30.52,30.52,0,0,1,11.26,2,18.62,18.62,0,0,1,7.9,5.49,24.34,24.34,0,0,1,4.35,9.19l-6.86,1.84a20.45,20.45,0,0,0-3.21-6.74,13.16,13.16,0,0,0-5.49-3.92,20.38,20.38,0,0,0-7.91-1.48,23.82,23.82,0,0,0-9,1.55,17,17,0,0,0-6.14,4.08,19.44,19.44,0,0,0-3.62,5.55,28.86,28.86,0,0,0-2.2,11.3,26.93,26.93,0,0,0,2.65,12.56,16.74,16.74,0,0,0,7.7,7.5,24.34,24.34,0,0,0,10.73,2.45,25.94,25.94,0,0,0,9.64-1.86,25.09,25.09,0,0,0,7.13-4V484.11Z"></path><path class="cls-4" d="M557.73,478.79q0-14,7.68-21.89t19.83-7.9a28.07,28.07,0,0,1,14.34,3.71,24.45,24.45,0,0,1,9.73,10.36,32.91,32.91,0,0,1,3.35,15.06,32.44,32.44,0,0,1-3.52,15.28,23.85,23.85,0,0,1-10,10.21,29.07,29.07,0,0,1-13.95,3.46,27.68,27.68,0,0,1-14.5-3.83A24.89,24.89,0,0,1,561,492.8,31.15,31.15,0,0,1,557.73,478.79Zm7.84.11q0,10.16,5.58,16a19.81,19.81,0,0,0,28.13-.06q5.55-5.9,5.55-16.73a28.22,28.22,0,0,0-2.37-12,17.83,17.83,0,0,0-6.94-7.92,19.09,19.09,0,0,0-10.24-2.82,19.69,19.69,0,0,0-13.89,5.42Q565.57,466.23,565.57,478.9Z"></path></g></svg>