<svg xmlns="http://www.w3.org/2000/svg" viewBox="572.31 391.18 847.21 1027.57"><defs><style>.cls-1{fill:#353535;}.cls-2{fill:#1d1e1e;}.cls-3{fill:#b1a368;}.cls-4{fill:#cbcccb;}.cls-5{fill:#ab9d72;}.cls-12,.cls-18,.cls-20,.cls-22,.cls-6,.cls-8,.cls-9{fill:none;}.cls-20,.cls-22,.cls-6,.cls-9{stroke:#050606;}.cls-18,.cls-20,.cls-22,.cls-6,.cls-9{stroke-miterlimit:10;}.cls-6{stroke-width:1.96px;}.cls-7{fill:#2c2d2d;}.cls-12,.cls-18,.cls-8{stroke:#fff;}.cls-12,.cls-8{stroke-linecap:round;stroke-linejoin:round;}.cls-8{stroke-width:1.19px;}.cls-9{stroke-width:1.93px;}.cls-10{fill:#050606;}.cls-11{fill:#434343;}.cls-12{stroke-width:1.12px;}.cls-13{fill:#c08c2d;}.cls-14{fill:#9f9f9e;}.cls-15{fill:#a19e97;}.cls-16{fill:#fff;}.cls-17{fill:#231f20;}.cls-18{stroke-width:1.18px;}.cls-19{fill:#c2c1c0;}.cls-20{stroke-width:1.03px;}.cls-21{fill:#484949;}.cls-22{stroke-width:1.01px;}.cls-23{fill:#999;}</style></defs><g id="Layer_7" data-name="Layer 7"><path class="cls-1" d="M1270.21,437.81V901.47a3.16,3.16,0,0,1-3.16,3.15h-86.32a3.17,3.17,0,0,1-3.17-3.15V437.81a46.33,46.33,0,0,1,92.65,0Z"></path><rect class="cls-2" x="1177.56" y="464.11" width="92.65" height="8.8"></rect><rect class="cls-2" x="1177.56" y="493" width="92.65" height="8.8"></rect><rect class="cls-3" x="1170.39" y="912.12" width="108.43" height="70.62" rx="3.2"></rect><path class="cls-3" d="M1174.78,982.74h102a0,0,0,0,1,0,0v24.83a4.18,4.18,0,0,1-4.18,4.18H1179a4.18,4.18,0,0,1-4.18-4.18V982.74A0,0,0,0,1,1174.78,982.74Z"></path><rect class="cls-3" x="1181.99" y="1011.75" width="85.46" height="31.44"></rect><rect class="cls-3" x="1182.78" y="904.62" width="81.65" height="7.5"></rect><rect class="cls-1" x="573.29" y="1043.19" width="829.41" height="343.32" rx="18.53"></rect><path class="cls-2" d="M1246.3,1392.62h17.46a0,0,0,0,1,0,0v21.8a3.35,3.35,0,0,1-3.35,3.35h-10.76a3.35,3.35,0,0,1-3.35-3.35v-21.8A0,0,0,0,1,1246.3,1392.62Z"></path><path class="cls-2" d="M1108,1386.51h23.82a0,0,0,0,1,0,0v4.84a3.35,3.35,0,0,1-3.35,3.35h-17.12a3.35,3.35,0,0,1-3.35-3.35v-4.84A0,0,0,0,1,1108,1386.51Z"></path><rect class="cls-4" x="1212.96" y="1386.51" width="111.4" height="6.11"></rect><path class="cls-5" d="M606.66,1056.81a21.72,21.72,0,1,0,21.71,21.71A21.71,21.71,0,0,0,606.66,1056.81Zm0,36.62a14.9,14.9,0,1,1,14.89-14.91A14.9,14.9,0,0,1,606.66,1093.43Z"></path><path class="cls-4" d="M621.55,1078.52a14.9,14.9,0,1,1-14.89-14.88A14.9,14.9,0,0,1,621.55,1078.52Z"></path><circle class="cls-6" cx="606.65" cy="1078.53" r="21.72"></circle><circle class="cls-6" cx="606.65" cy="1078.53" r="14.89"></circle><path class="cls-5" d="M606.66,1330.84a21.72,21.72,0,1,0,21.71,21.71A21.71,21.71,0,0,0,606.66,1330.84Zm0,36.61a14.9,14.9,0,1,1,14.89-14.9A14.9,14.9,0,0,1,606.66,1367.45Z"></path><path class="cls-4" d="M621.55,1352.55a14.9,14.9,0,1,1-14.89-14.89A14.9,14.9,0,0,1,621.55,1352.55Z"></path><circle class="cls-6" cx="606.65" cy="1352.56" r="21.72"></circle><circle class="cls-6" cx="606.65" cy="1352.56" r="14.89"></circle><circle class="cls-5" cx="654.95" cy="1366.1" r="12.06"></circle><circle class="cls-4" cx="654.95" cy="1366.1" r="8.27"></circle><circle class="cls-5" cx="688.64" cy="1366.1" r="12.06"></circle><circle class="cls-4" cx="688.64" cy="1366.1" r="8.27"></circle><circle class="cls-5" cx="722.32" cy="1366.1" r="12.06"></circle><circle class="cls-4" cx="722.32" cy="1366.1" r="8.27"></circle><circle class="cls-5" cx="756.01" cy="1366.1" r="12.06"></circle><circle class="cls-4" cx="756.01" cy="1366.1" r="8.27"></circle><circle class="cls-5" cx="789.7" cy="1366.1" r="12.06"></circle><circle class="cls-4" cx="789.7" cy="1366.1" r="8.27"></circle><circle class="cls-5" cx="823.38" cy="1366.1" r="12.06"></circle><circle class="cls-4" cx="823.38" cy="1366.1" r="8.27"></circle><circle class="cls-5" cx="857.07" cy="1366.1" r="12.06"></circle><circle class="cls-4" cx="857.07" cy="1366.1" r="8.27"></circle><circle class="cls-5" cx="890.75" cy="1366.1" r="12.06"></circle><circle class="cls-4" cx="890.75" cy="1366.1" r="8.27"></circle><circle class="cls-5" cx="924.44" cy="1366.1" r="12.06"></circle><circle class="cls-4" cx="924.44" cy="1366.1" r="8.27"></circle><circle class="cls-5" cx="958.12" cy="1366.1" r="12.06"></circle><circle class="cls-4" cx="958.12" cy="1366.1" r="8.27"></circle><circle class="cls-5" cx="991.81" cy="1366.1" r="12.06"></circle><circle class="cls-4" cx="991.81" cy="1366.1" r="8.27"></circle><circle class="cls-5" cx="1025.5" cy="1366.1" r="12.06"></circle><circle class="cls-4" cx="1025.5" cy="1366.1" r="8.27"></circle><circle class="cls-5" cx="1059.18" cy="1366.1" r="12.06"></circle><circle class="cls-4" cx="1059.18" cy="1366.1" r="8.27"></circle><circle class="cls-5" cx="654.95" cy="1066.47" r="12.06"></circle><circle class="cls-4" cx="654.95" cy="1066.47" r="8.27"></circle><circle class="cls-5" cx="688.64" cy="1066.47" r="12.06"></circle><circle class="cls-4" cx="688.64" cy="1066.47" r="8.27"></circle><circle class="cls-5" cx="722.32" cy="1066.47" r="12.06"></circle><circle class="cls-4" cx="722.32" cy="1066.47" r="8.27"></circle><circle class="cls-5" cx="756.01" cy="1066.47" r="12.06"></circle><circle class="cls-4" cx="756.01" cy="1066.47" r="8.27"></circle><circle class="cls-5" cx="789.7" cy="1066.47" r="12.06"></circle><circle class="cls-4" cx="789.7" cy="1066.47" r="8.27"></circle><circle class="cls-5" cx="823.38" cy="1066.47" r="12.06"></circle><circle class="cls-4" cx="823.38" cy="1066.47" r="8.27"></circle><circle class="cls-5" cx="857.07" cy="1066.47" r="12.06"></circle><circle class="cls-4" cx="857.07" cy="1066.47" r="8.27"></circle><circle class="cls-5" cx="890.75" cy="1066.47" r="12.06"></circle><circle class="cls-4" cx="890.75" cy="1066.47" r="8.27"></circle><circle class="cls-5" cx="924.44" cy="1066.47" r="12.06"></circle><circle class="cls-4" cx="924.44" cy="1066.47" r="8.27"></circle><circle class="cls-5" cx="958.12" cy="1066.47" r="12.06"></circle><circle class="cls-4" cx="958.12" cy="1066.47" r="8.27"></circle><circle class="cls-5" cx="991.81" cy="1066.47" r="12.06"></circle><circle class="cls-4" cx="991.81" cy="1066.47" r="8.27"></circle><circle class="cls-5" cx="1025.5" cy="1066.47" r="12.06"></circle><circle class="cls-4" cx="1025.5" cy="1066.47" r="8.27"></circle><circle class="cls-5" cx="1059.18" cy="1066.47" r="12.06"></circle><circle class="cls-4" cx="1059.18" cy="1066.47" r="8.27"></circle><rect class="cls-7" x="686.53" y="1107.86" width="455.94" height="228.24"></rect><rect class="cls-8" x="686.53" y="1107.86" width="455.94" height="228.24"></rect><path class="cls-2" d="M970,1319.6v46.13a5.42,5.42,0,0,1-5.42,5.42H863.76a5.41,5.41,0,0,1-5.4-5.42V1319.6Z"></path><rect class="cls-6" x="573.29" y="1043.19" width="829.41" height="343.32" rx="18.53"></rect><path class="cls-6" d="M1270.21,437.81V901.47a3.16,3.16,0,0,1-3.16,3.15h-86.32a3.17,3.17,0,0,1-3.17-3.15V437.81a46.33,46.33,0,0,1,92.65,0Z"></path><rect class="cls-6" x="1170.39" y="912.12" width="108.43" height="70.62" rx="3.2"></rect><path class="cls-6" d="M1174.78,982.74h102a0,0,0,0,1,0,0v24.83a4.18,4.18,0,0,1-4.18,4.18H1179a4.18,4.18,0,0,1-4.18-4.18V982.74A0,0,0,0,1,1174.78,982.74Z"></path><rect class="cls-6" x="1181.99" y="1011.75" width="85.46" height="31.44"></rect><rect class="cls-6" x="1182.78" y="904.62" width="81.65" height="7.5"></rect><polyline class="cls-8" points="1372.21 1349.52 1328.17 1349.52 1328.17 1250.74 1372.21 1250.74"></polyline><path class="cls-4" d="M1418.52,1335.36v-68.7a1.39,1.39,0,0,0-.68-1.19l-4.82-2.83a1.38,1.38,0,0,1,.29-2.51l4.24-1.31a1.38,1.38,0,0,0,1-1.32v-2.86h-72.71V1346h72.71v-1.47a1.37,1.37,0,0,0-1-1.32l-4.24-1.32a1.38,1.38,0,0,1-.29-2.51l4.82-2.83A1.39,1.39,0,0,0,1418.52,1335.36Z"></path><path class="cls-9" d="M1418.52,1335.36v-68.7a1.39,1.39,0,0,0-.68-1.19l-4.82-2.83a1.38,1.38,0,0,1,.29-2.51l4.24-1.31a1.38,1.38,0,0,0,1-1.32v-2.86h-72.71V1346h72.71v-1.47a1.37,1.37,0,0,0-1-1.32l-4.24-1.32a1.38,1.38,0,0,1-.29-2.51l4.82-2.83A1.39,1.39,0,0,0,1418.52,1335.36Z"></path><path class="cls-10" d="M1394.11,1324a6,6,0,0,1,6,6,6.19,6.19,0,0,1-6.38,6,6,6,0,0,1-4.66-2.65h-9.77a1.68,1.68,0,0,1-1.68-1.68v-3.36a1.68,1.68,0,0,1,1.68-1.68h9.77A6,6,0,0,1,1394.11,1324Z"></path><path class="cls-10" d="M1394.11,1263.69a6,6,0,0,1,6,6,6.19,6.19,0,0,1-6.38,6,6,6,0,0,1-4.66-2.66h-9.77a1.68,1.68,0,0,1-1.68-1.68V1268a1.68,1.68,0,0,1,1.68-1.67h9.77A6,6,0,0,1,1394.11,1263.69Z"></path><path class="cls-10" d="M1349.9,1308.54h8.62a1.68,1.68,0,0,1,1.68,1.68v3.08a1.67,1.67,0,0,1-1,1.51l-2,.93a1.68,1.68,0,0,0-1,1.52v8.58a1.68,1.68,0,0,1-1.68,1.67h0a1.64,1.64,0,0,1-1.18-.49l-4.73-4.73a1.68,1.68,0,0,1-.49-1.18v-10.89A1.68,1.68,0,0,1,1349.9,1308.54Z"></path><path class="cls-10" d="M1349.9,1290h8.62a1.68,1.68,0,0,0,1.68-1.68v-3.08a1.69,1.69,0,0,0-1-1.52l-2-.93a1.65,1.65,0,0,1-1-1.51v-8.58a1.68,1.68,0,0,0-1.68-1.68h0a1.65,1.65,0,0,0-1.18.5l-4.73,4.73a1.68,1.68,0,0,0-.49,1.18v10.89A1.68,1.68,0,0,0,1349.9,1290Z"></path><rect class="cls-4" x="1335.14" y="1313.13" width="4.31" height="7.81" rx="0.84" transform="translate(20.26 2654.32) rotate(-90)"></rect><rect class="cls-4" x="1335.14" y="1305.55" width="4.31" height="7.81" rx="0.84" transform="translate(27.83 2646.75) rotate(-90)"></rect><rect class="cls-4" x="1335.14" y="1297.98" width="4.31" height="7.81" rx="0.84" transform="translate(35.41 2639.18) rotate(-90)"></rect><rect class="cls-4" x="1335.14" y="1290.4" width="4.31" height="7.81" rx="0.84" transform="translate(42.98 2631.6) rotate(-90)"></rect><rect class="cls-4" x="1335.14" y="1282.83" width="4.31" height="7.81" rx="0.84" transform="translate(50.56 2624.03) rotate(-90)"></rect><rect class="cls-8" x="1297.75" y="1066.47" width="26.6" height="10.88"></rect><rect class="cls-10" x="1306.26" y="1068.44" width="9.71" height="6.77"></rect><path class="cls-4" d="M1302.11,1068.44h2.56a0,0,0,0,1,0,0v6.77a0,0,0,0,1,0,0h-2.56a.78.78,0,0,1-.78-.78v-5.21A.78.78,0,0,1,1302.11,1068.44Z"></path><path class="cls-4" d="M1318.22,1068.44h2.56a0,0,0,0,1,0,0v6.77a0,0,0,0,1,0,0h-2.56a.78.78,0,0,1-.78-.78v-5.21A.78.78,0,0,1,1318.22,1068.44Z" transform="translate(2638.22 2143.64) rotate(-180)"></path><rect class="cls-8" x="1266.58" y="1053.7" width="26.6" height="10.88" transform="translate(2339.03 -220.74) rotate(90)"></rect><rect class="cls-10" x="1275.12" y="1055.82" width="9.71" height="6.77" transform="translate(2339.18 -220.78) rotate(90)"></rect><path class="cls-4" d="M1279.08,1047.71h2.56a0,0,0,0,1,0,0v6.77a0,0,0,0,1,0,0h-2.56a.78.78,0,0,1-.78-.78v-5.21A.78.78,0,0,1,1279.08,1047.71Z" transform="translate(2331.07 -228.89) rotate(90)"></path><path class="cls-4" d="M1279.08,1063.81h2.56a0,0,0,0,1,0,0v6.77a0,0,0,0,1,0,0h-2.56a.78.78,0,0,1-.78-.78v-5.21A.78.78,0,0,1,1279.08,1063.81Z" transform="translate(212.78 2347.17) rotate(-90)"></path><rect class="cls-8" x="1297.75" y="1077.36" width="26.6" height="10.88"></rect><rect class="cls-10" x="1306.26" y="1079.32" width="9.71" height="6.77"></rect><path class="cls-4" d="M1302.11,1079.32h2.56a0,0,0,0,1,0,0v6.77a0,0,0,0,1,0,0h-2.56a.78.78,0,0,1-.78-.78v-5.21A.78.78,0,0,1,1302.11,1079.32Z"></path><path class="cls-4" d="M1318.22,1079.32h2.56a0,0,0,0,1,0,0v6.77a0,0,0,0,1,0,0h-2.56a.78.78,0,0,1-.78-.78v-5.21A.78.78,0,0,1,1318.22,1079.32Z" transform="translate(2638.22 2165.41) rotate(-180)"></path><rect class="cls-8" x="1297.75" y="1088.24" width="26.6" height="10.88"></rect><rect class="cls-10" x="1306.26" y="1090.21" width="9.71" height="6.77"></rect><path class="cls-4" d="M1302.11,1090.21h2.56a0,0,0,0,1,0,0V1097a0,0,0,0,1,0,0h-2.56a.78.78,0,0,1-.78-.78V1091A.78.78,0,0,1,1302.11,1090.21Z"></path><path class="cls-4" d="M1318.22,1090.21h2.56a0,0,0,0,1,0,0V1097a0,0,0,0,1,0,0h-2.56a.78.78,0,0,1-.78-.78V1091A.78.78,0,0,1,1318.22,1090.21Z" transform="translate(2638.22 2187.18) rotate(-180)"></path><rect class="cls-8" x="1297.75" y="1099.13" width="26.6" height="10.88"></rect><rect class="cls-10" x="1306.26" y="1101.09" width="9.71" height="6.77"></rect><path class="cls-4" d="M1302.11,1101.09h2.56a0,0,0,0,1,0,0v6.77a0,0,0,0,1,0,0h-2.56a.78.78,0,0,1-.78-.78v-5.21A.78.78,0,0,1,1302.11,1101.09Z"></path><path class="cls-4" d="M1318.22,1101.09h2.56a0,0,0,0,1,0,0v6.77a0,0,0,0,1,0,0h-2.56a.78.78,0,0,1-.78-.78v-5.21A.78.78,0,0,1,1318.22,1101.09Z" transform="translate(2638.22 2208.95) rotate(-180)"></path><rect class="cls-8" x="1297.75" y="1110.01" width="26.6" height="10.88"></rect><rect class="cls-10" x="1306.26" y="1111.97" width="9.71" height="6.77"></rect><path class="cls-4" d="M1302.11,1112h2.56a0,0,0,0,1,0,0v6.77a0,0,0,0,1,0,0h-2.56a.78.78,0,0,1-.78-.78v-5.21A.78.78,0,0,1,1302.11,1112Z"></path><path class="cls-4" d="M1318.22,1112h2.56a0,0,0,0,1,0,0v6.77a0,0,0,0,1,0,0h-2.56a.78.78,0,0,1-.78-.78v-5.21A.78.78,0,0,1,1318.22,1112Z" transform="translate(2638.22 2230.71) rotate(-180)"></path><rect class="cls-8" x="1297.75" y="1120.89" width="26.6" height="10.88"></rect><rect class="cls-10" x="1306.26" y="1122.86" width="9.71" height="6.77"></rect><path class="cls-4" d="M1302.11,1122.86h2.56a0,0,0,0,1,0,0v6.77a0,0,0,0,1,0,0h-2.56a.78.78,0,0,1-.78-.78v-5.21A.78.78,0,0,1,1302.11,1122.86Z"></path><path class="cls-4" d="M1318.22,1122.86h2.56a0,0,0,0,1,0,0v6.77a0,0,0,0,1,0,0h-2.56a.78.78,0,0,1-.78-.78v-5.21A.78.78,0,0,1,1318.22,1122.86Z" transform="translate(2638.22 2252.48) rotate(-180)"></path><rect class="cls-8" x="1297.75" y="1131.78" width="26.6" height="10.88"></rect><rect class="cls-10" x="1306.26" y="1133.74" width="9.71" height="6.77"></rect><path class="cls-4" d="M1302.11,1133.74h2.56a0,0,0,0,1,0,0v6.77a0,0,0,0,1,0,0h-2.56a.78.78,0,0,1-.78-.78v-5.21A.78.78,0,0,1,1302.11,1133.74Z"></path><path class="cls-4" d="M1318.22,1133.74h2.56a0,0,0,0,1,0,0v6.77a0,0,0,0,1,0,0h-2.56a.78.78,0,0,1-.78-.78v-5.21A.78.78,0,0,1,1318.22,1133.74Z" transform="translate(2638.22 2274.25) rotate(-180)"></path><rect class="cls-8" x="1297.75" y="1142.66" width="26.6" height="10.88"></rect><rect class="cls-10" x="1306.26" y="1144.63" width="9.71" height="6.77"></rect><path class="cls-4" d="M1302.11,1144.63h2.56a0,0,0,0,1,0,0v6.77a0,0,0,0,1,0,0h-2.56a.78.78,0,0,1-.78-.78v-5.21A.78.78,0,0,1,1302.11,1144.63Z"></path><path class="cls-4" d="M1318.22,1144.63h2.56a0,0,0,0,1,0,0v6.77a0,0,0,0,1,0,0h-2.56a.78.78,0,0,1-.78-.78v-5.21A.78.78,0,0,1,1318.22,1144.63Z" transform="translate(2638.22 2296.02) rotate(-180)"></path><rect class="cls-8" x="1297.75" y="1153.54" width="26.6" height="10.88"></rect><rect class="cls-10" x="1306.26" y="1155.51" width="9.71" height="6.77"></rect><path class="cls-4" d="M1302.11,1155.51h2.56a0,0,0,0,1,0,0v6.77a0,0,0,0,1,0,0h-2.56a.78.78,0,0,1-.78-.78v-5.21A.78.78,0,0,1,1302.11,1155.51Z"></path><path class="cls-4" d="M1318.22,1155.51h2.56a0,0,0,0,1,0,0v6.77a0,0,0,0,1,0,0h-2.56a.78.78,0,0,1-.78-.78v-5.21A.78.78,0,0,1,1318.22,1155.51Z" transform="translate(2638.22 2317.78) rotate(-180)"></path><rect class="cls-8" x="1297.75" y="1164.43" width="26.6" height="10.88"></rect><rect class="cls-10" x="1306.26" y="1166.39" width="9.71" height="6.77"></rect><path class="cls-4" d="M1302.11,1166.39h2.56a0,0,0,0,1,0,0v6.77a0,0,0,0,1,0,0h-2.56a.78.78,0,0,1-.78-.78v-5.21A.78.78,0,0,1,1302.11,1166.39Z"></path><path class="cls-4" d="M1318.22,1166.39h2.56a0,0,0,0,1,0,0v6.77a0,0,0,0,1,0,0h-2.56a.78.78,0,0,1-.78-.78v-5.21a.78.78,0,0,1,.78-.78Z" transform="translate(2638.22 2339.55) rotate(-180)"></path><rect class="cls-8" x="1297.75" y="1175.31" width="26.6" height="10.88"></rect><rect class="cls-10" x="1306.26" y="1177.28" width="9.71" height="6.77"></rect><path class="cls-4" d="M1302.11,1177.28h2.56a0,0,0,0,1,0,0V1184a0,0,0,0,1,0,0h-2.56a.78.78,0,0,1-.78-.78v-5.21A.78.78,0,0,1,1302.11,1177.28Z"></path><path class="cls-4" d="M1318.22,1177.28h2.56a0,0,0,0,1,0,0V1184a0,0,0,0,1,0,0h-2.56a.78.78,0,0,1-.78-.78v-5.21A.78.78,0,0,1,1318.22,1177.28Z" transform="translate(2638.22 2361.32) rotate(-180)"></path><rect class="cls-8" x="1297.75" y="1186.2" width="26.6" height="10.88"></rect><rect class="cls-10" x="1306.26" y="1188.16" width="9.71" height="6.77"></rect><path class="cls-4" d="M1302.11,1188.16h2.56a0,0,0,0,1,0,0v6.77a0,0,0,0,1,0,0h-2.56a.78.78,0,0,1-.78-.78v-5.21A.78.78,0,0,1,1302.11,1188.16Z"></path><path class="cls-4" d="M1318.22,1188.16h2.56a0,0,0,0,1,0,0v6.77a0,0,0,0,1,0,0h-2.56a.78.78,0,0,1-.78-.78v-5.21A.78.78,0,0,1,1318.22,1188.16Z" transform="translate(2638.22 2383.09) rotate(-180)"></path><rect class="cls-8" x="1297.75" y="1197.08" width="26.6" height="10.88"></rect><rect class="cls-10" x="1306.26" y="1199.04" width="9.71" height="6.77"></rect><path class="cls-4" d="M1302.11,1199h2.56a0,0,0,0,1,0,0v6.77a0,0,0,0,1,0,0h-2.56a.78.78,0,0,1-.78-.78v-5.21A.78.78,0,0,1,1302.11,1199Z"></path><path class="cls-4" d="M1318.22,1199h2.56a0,0,0,0,1,0,0v6.77a0,0,0,0,1,0,0h-2.56a.78.78,0,0,1-.78-.78v-5.21A.78.78,0,0,1,1318.22,1199Z" transform="translate(2638.22 2404.85) rotate(-180)"></path><rect class="cls-8" x="1297.75" y="1207.96" width="26.6" height="10.88"></rect><rect class="cls-10" x="1306.26" y="1209.93" width="9.71" height="6.77"></rect><path class="cls-4" d="M1302.11,1209.93h2.56a0,0,0,0,1,0,0v6.77a0,0,0,0,1,0,0h-2.56a.78.78,0,0,1-.78-.78v-5.21A.78.78,0,0,1,1302.11,1209.93Z"></path><path class="cls-4" d="M1318.22,1209.93h2.56a0,0,0,0,1,0,0v6.77a0,0,0,0,1,0,0h-2.56a.78.78,0,0,1-.78-.78v-5.21A.78.78,0,0,1,1318.22,1209.93Z" transform="translate(2638.22 2426.62) rotate(-180)"></path><rect class="cls-8" x="1297.75" y="1218.85" width="26.6" height="10.88"></rect><rect class="cls-10" x="1306.26" y="1220.81" width="9.71" height="6.77"></rect><path class="cls-4" d="M1302.11,1220.81h2.56a0,0,0,0,1,0,0v6.77a0,0,0,0,1,0,0h-2.56a.78.78,0,0,1-.78-.78v-5.21A.78.78,0,0,1,1302.11,1220.81Z"></path><path class="cls-4" d="M1318.22,1220.81h2.56a0,0,0,0,1,0,0v6.77a0,0,0,0,1,0,0h-2.56a.78.78,0,0,1-.78-.78v-5.21a.78.78,0,0,1,.78-.78Z" transform="translate(2638.22 2448.39) rotate(-180)"></path><polyline class="cls-8" points="1290.24 1266.96 1290.24 1256.08 1316.85 1256.08 1316.85 1266.96"></polyline><rect class="cls-10" x="1298.74" y="1258.05" width="9.71" height="6.77"></rect><path class="cls-4" d="M1294.6,1258h2.56a0,0,0,0,1,0,0v6.77a0,0,0,0,1,0,0h-2.56a.78.78,0,0,1-.78-.78v-5.21A.78.78,0,0,1,1294.6,1258Z"></path><path class="cls-4" d="M1310.7,1258h2.56a0,0,0,0,1,0,0v6.77a0,0,0,0,1,0,0h-2.56a.78.78,0,0,1-.78-.78v-5.21A.78.78,0,0,1,1310.7,1258Z" transform="translate(2623.19 2522.86) rotate(-180)"></path><polyline class="cls-8" points="1290.24 1281.18 1290.24 1270.3 1316.85 1270.3 1316.85 1281.18"></polyline><rect class="cls-10" x="1298.74" y="1272.26" width="9.71" height="6.77"></rect><path class="cls-4" d="M1294.6,1272.26h2.56a0,0,0,0,1,0,0V1279a0,0,0,0,1,0,0h-2.56a.78.78,0,0,1-.78-.78V1273A.78.78,0,0,1,1294.6,1272.26Z"></path><path class="cls-4" d="M1310.7,1272.26h2.56a0,0,0,0,1,0,0V1279a0,0,0,0,1,0,0h-2.56a.78.78,0,0,1-.78-.78V1273A.78.78,0,0,1,1310.7,1272.26Z" transform="translate(2623.19 2551.29) rotate(-180)"></path><polyline class="cls-8" points="1290.24 1295.4 1290.24 1284.51 1316.85 1284.51 1316.85 1295.4"></polyline><rect class="cls-10" x="1298.74" y="1286.48" width="9.71" height="6.77"></rect><path class="cls-4" d="M1294.6,1286.48h2.56a0,0,0,0,1,0,0v6.77a0,0,0,0,1,0,0h-2.56a.78.78,0,0,1-.78-.78v-5.21A.78.78,0,0,1,1294.6,1286.48Z"></path><path class="cls-4" d="M1310.7,1286.48h2.56a0,0,0,0,1,0,0v6.77a0,0,0,0,1,0,0h-2.56a.78.78,0,0,1-.78-.78v-5.21a.78.78,0,0,1,.78-.78Z" transform="translate(2623.19 2579.72) rotate(-180)"></path><polyline class="cls-8" points="1316.85 1329.83 1316.85 1340.71 1290.24 1340.71 1290.24 1329.83"></polyline><rect class="cls-10" x="1298.63" y="1331.98" width="9.71" height="6.77" transform="translate(2606.97 2670.73) rotate(180)"></rect><path class="cls-4" d="M1310.7,1332h2.56a0,0,0,0,1,0,0v6.77a0,0,0,0,1,0,0h-2.56a.78.78,0,0,1-.78-.78v-5.21A.78.78,0,0,1,1310.7,1332Z" transform="translate(2623.19 2670.73) rotate(180)"></path><path class="cls-4" d="M1294.6,1332h2.56a0,0,0,0,1,0,0v6.77a0,0,0,0,1,0,0h-2.56a.78.78,0,0,1-.78-.78v-5.21A.78.78,0,0,1,1294.6,1332Z"></path><circle class="cls-4" cx="1235.38" cy="1361.85" r="9.3"></circle><circle class="cls-5" cx="1235.38" cy="1361.85" r="4.43"></circle><circle class="cls-2" cx="1105.59" cy="1371.15" r="6.86"></circle><circle class="cls-11" cx="1105.59" cy="1371.15" r="3.27"></circle><circle class="cls-2" cx="1133.29" cy="1371.15" r="6.86"></circle><circle class="cls-11" cx="1133.29" cy="1371.15" r="3.27"></circle><circle class="cls-4" cx="1247.06" cy="1137.12" r="9.3"></circle><circle class="cls-5" cx="1247.06" cy="1137.12" r="4.43"></circle><circle class="cls-4" cx="1247.06" cy="1068.44" r="9.3"></circle><circle class="cls-5" cx="1247.06" cy="1068.44" r="4.43"></circle><circle class="cls-4" cx="1182.64" cy="1068.44" r="9.3"></circle><circle class="cls-5" cx="1182.64" cy="1068.44" r="4.43"></circle><circle class="cls-4" cx="1182.64" cy="1135.18" r="9.3"></circle><circle class="cls-5" cx="1182.64" cy="1135.18" r="4.43"></circle><circle class="cls-4" cx="1215.42" cy="1104.47" r="9.3"></circle><circle class="cls-5" cx="1215.42" cy="1104.47" r="4.43"></circle><circle class="cls-4" cx="1268.85" cy="1361.85" r="9.3"></circle><circle class="cls-5" cx="1268.85" cy="1361.85" r="4.43"></circle><circle class="cls-4" cx="1302.33" cy="1361.85" r="9.3"></circle><circle class="cls-5" cx="1302.33" cy="1361.85" r="4.43"></circle><rect class="cls-12" x="1284.13" y="1297.66" width="38.83" height="30.25" rx="2.23"></rect><rect class="cls-4" x="1287.88" y="1301.29" width="11.03" height="7.47" rx="2.23"></rect><rect class="cls-4" x="1308.94" y="1301.29" width="11.03" height="7.47" rx="2.23"></rect><rect class="cls-4" x="1287.88" y="1315.95" width="11.03" height="7.47" rx="2.23"></rect><rect class="cls-4" x="1308.94" y="1315.95" width="11.03" height="7.47" rx="2.23"></rect><rect class="cls-11" x="755.08" y="1104.57" width="317.22" height="180.01"></rect><rect class="cls-6" x="755.08" y="1104.57" width="317.22" height="180.01"></rect><path class="cls-2" d="M755.08,1284.58v17.1A17.92,17.92,0,0,0,773,1319.6h281.37a17.92,17.92,0,0,0,17.92-17.92v-17.1"></path><path class="cls-6" d="M755.08,1284.58v17.1A17.92,17.92,0,0,0,773,1319.6h281.37a17.92,17.92,0,0,0,17.92-17.92v-17.1"></path><line class="cls-6" x1="823.11" y1="1284.58" x2="823.11" y2="1319.6"></line><line class="cls-6" x1="985.61" y1="1284.58" x2="985.61" y2="1319.6"></line><path class="cls-6" d="M858.36,1319.6v46.13a5.42,5.42,0,0,0,5.41,5.42H964.6a5.42,5.42,0,0,0,5.42-5.42V1319.6"></path><line class="cls-6" x1="866.95" y1="1319.6" x2="866.95" y2="1371.15"></line><line class="cls-6" x1="948.64" y1="1319.6" x2="948.64" y2="1371.15"></line><path class="cls-13" d="M867,1319.6v51.55h-3.19a5.41,5.41,0,0,1-5.4-5.42V1319.6Z"></path><path class="cls-13" d="M970,1319.6v46.13a5.42,5.42,0,0,1-5.42,5.42h-16V1319.6Z"></path><rect class="cls-4" x="586.01" y="1130.75" width="59.65" height="185.51"></rect><rect class="cls-6" x="1212.96" y="1386.51" width="111.4" height="6.11"></rect><path class="cls-6" d="M1246.3,1392.62h17.46a0,0,0,0,1,0,0v21.8a3.35,3.35,0,0,1-3.35,3.35h-10.76a3.35,3.35,0,0,1-3.35-3.35v-21.8A0,0,0,0,1,1246.3,1392.62Z"></path><path class="cls-6" d="M1108,1386.51h23.82a0,0,0,0,1,0,0v4.84a3.35,3.35,0,0,1-3.35,3.35h-17.12a3.35,3.35,0,0,1-3.35-3.35v-4.84A0,0,0,0,1,1108,1386.51Z"></path><path class="cls-4" d="M1397.62,1066.47v146.84h-60.48v-29.07a3.59,3.59,0,0,0-3.59-3.59h-6.85v-77.86h6.85a3.59,3.59,0,0,0,3.59-3.59v-32.73Z"></path><path class="cls-6" d="M1397.62,1066.47v146.84h-60.48v-29.07a3.59,3.59,0,0,0-3.59-3.59h-6.85v-77.86h6.85a3.59,3.59,0,0,0,3.59-3.59v-32.73Z"></path><rect class="cls-14" x="1352.79" y="1069.1" width="19.25" height="4.73"></rect><path class="cls-8" d="M1289.44,1044.83v14.37s75.4.25,75.4,0v-16"></path><rect class="cls-4" x="1292.36" y="1045.84" width="5.85" height="9.95" rx="1.55"></rect><rect class="cls-4" x="1316.18" y="1045.84" width="5.85" height="9.95" rx="1.55"></rect><rect class="cls-15" x="1300.36" y="1045.84" width="13.19" height="9.95" rx="1.58"></rect><rect class="cls-4" x="1332.1" y="1045.84" width="5.85" height="9.95" rx="1.55"></rect><rect class="cls-4" x="1355.92" y="1045.84" width="5.85" height="9.95" rx="1.55"></rect><rect class="cls-15" x="1340.09" y="1045.84" width="13.19" height="9.95" rx="1.58"></rect><line class="cls-8" x1="1326.7" y1="1045.84" x2="1326.7" y2="1057.39"></line><path class="cls-16" d="M1382.32,1046.59v10.89h3.28v1.45h-7.9v-1.45h3.3v-10.89Z"></path><path class="cls-16" d="M1376.28,1046.59v12.34h-6.72v-1.45h5.4v-3.83h-4.67v-1.45H1375v-5.61Z"></path><rect class="cls-6" x="1177.56" y="464.11" width="92.65" height="8.8"></rect><rect class="cls-6" x="1177.56" y="493" width="92.65" height="8.8"></rect><path class="cls-17" d="M628,1289.18H600.83v-3.72h24v-13.85H628Z"></path><path class="cls-17" d="M628,1266.54H600.83v-3.72H628Z"></path><path class="cls-17" d="M628,1256.42H600.83v-3.72h24v-13.85H628Z"></path><path class="cls-17" d="M628,1229.41H616.49l-15.66,10.84v-4.53l8.19-5.54q2.29-1.54,4.6-2.86-2.14-1.27-4.81-3.07l-8-5.45v-4.33l15.66,11.22H628Z"></path><path class="cls-17" d="M617.34,1198h-3.19l0-11.91h10.09a21.11,21.11,0,0,1,3.18,5.66,17.25,17.25,0,0,1,1.06,6,16.48,16.48,0,0,1-1.71,7.53,11.57,11.57,0,0,1-5,5.11,15.2,15.2,0,0,1-7.25,1.73,16.27,16.27,0,0,1-7.4-1.72,11.18,11.18,0,0,1-5.11-4.94,15.94,15.94,0,0,1-1.67-7.42,15.15,15.15,0,0,1,1-5.52,9,9,0,0,1,2.66-3.86,11.69,11.69,0,0,1,4.45-2.13l.89,3.36a9.77,9.77,0,0,0-3.27,1.57,6.51,6.51,0,0,0-1.9,2.68,10.31,10.31,0,0,0-.71,3.88,11.76,11.76,0,0,0,.75,4.41,8.3,8.3,0,0,0,2,3,9.53,9.53,0,0,0,2.69,1.78,13.9,13.9,0,0,0,5.47,1.07,12.93,12.93,0,0,0,6.08-1.29,8.18,8.18,0,0,0,3.63-3.77,12,12,0,0,0,1.19-5.26,12.89,12.89,0,0,0-.9-4.72,12.45,12.45,0,0,0-1.92-3.49h-5.06Z"></path><path class="cls-17" d="M614.76,1181.7q-6.76,0-10.59-3.76a13,13,0,0,1-3.83-9.7,13.79,13.79,0,0,1,1.8-7,11.85,11.85,0,0,1,5-4.77,15.84,15.84,0,0,1,7.29-1.64,15.53,15.53,0,0,1,7.39,1.73,11.49,11.49,0,0,1,4.94,4.89,14.36,14.36,0,0,1,1.68,6.83,13.68,13.68,0,0,1-1.85,7.09,12,12,0,0,1-5.06,4.74A14.85,14.85,0,0,1,614.76,1181.7Zm.06-3.83a10.65,10.65,0,0,0,7.74-2.74,9.78,9.78,0,0,0,0-13.77q-2.85-2.71-8.1-2.71a13.42,13.42,0,0,0-5.79,1.16,8.69,8.69,0,0,0-3.84,3.39,9.43,9.43,0,0,0-1.36,5,9.69,9.69,0,0,0,2.62,6.8Q608.68,1177.87,614.82,1177.87Z"></path><rect class="cls-7" x="768.07" y="1115.45" width="291.11" height="156.74"></rect><rect class="cls-6" x="768.07" y="1115.45" width="291.11" height="156.74"></rect><rect class="cls-18" x="1173.49" y="1234.2" width="63.54" height="47.44" rx="1.26" transform="translate(2463.19 52.67) rotate(90)"></rect><rect class="cls-19" x="1172.41" y="1236.93" width="66.13" height="42.39" rx="2.22" transform="translate(2463.6 52.65) rotate(90)"></rect><rect class="cls-20" x="1172.41" y="1236.93" width="66.13" height="42.39" rx="2.22" transform="translate(2463.6 52.65) rotate(90)"></rect><circle class="cls-21" cx="1205.26" cy="1257.93" r="14.84"></circle><circle class="cls-22" cx="1205.26" cy="1257.93" r="14.84"></circle><path class="cls-23" d="M1210.09,1227h-10.68a1.58,1.58,0,0,0-1.58,1.58v.3a1.42,1.42,0,0,1-1.41,1.42h-1.55a1.42,1.42,0,0,1-1.41-1.42v-11.1a2.68,2.68,0,0,1,2.67-2.68h17.22a2.68,2.68,0,0,1,2.68,2.68v11.1a1.43,1.43,0,0,1-1.42,1.42h-1.54a1.42,1.42,0,0,1-1.41-1.42v-.3A1.57,1.57,0,0,0,1210.09,1227Z"></path><path class="cls-22" d="M1210.09,1227h-10.68a1.58,1.58,0,0,0-1.58,1.58v.3a1.42,1.42,0,0,1-1.41,1.42h-1.55a1.42,1.42,0,0,1-1.41-1.42v-11.1a2.68,2.68,0,0,1,2.67-2.68h17.22a2.68,2.68,0,0,1,2.68,2.68v11.1a1.43,1.43,0,0,1-1.42,1.42h-1.54a1.42,1.42,0,0,1-1.41-1.42v-.3A1.57,1.57,0,0,0,1210.09,1227Z"></path><path class="cls-23" d="M1199.39,1289.13h10.69a1.58,1.58,0,0,0,1.57-1.58v-.3a1.42,1.42,0,0,1,1.41-1.42h1.55a1.43,1.43,0,0,1,1.42,1.42v11.1a2.68,2.68,0,0,1-2.68,2.68h-17.22a2.68,2.68,0,0,1-2.67-2.68v-11.1a1.42,1.42,0,0,1,1.41-1.42h1.54a1.42,1.42,0,0,1,1.41,1.42v.3A1.58,1.58,0,0,0,1199.39,1289.13Z"></path><path class="cls-22" d="M1199.39,1289.13h10.69a1.58,1.58,0,0,0,1.57-1.58v-.3a1.42,1.42,0,0,1,1.41-1.42h1.55a1.43,1.43,0,0,1,1.42,1.42v11.1a2.68,2.68,0,0,1-2.68,2.68h-17.22a2.68,2.68,0,0,1-2.67-2.68v-11.1a1.42,1.42,0,0,1,1.41-1.42h1.54a1.42,1.42,0,0,1,1.41,1.42v.3A1.58,1.58,0,0,0,1199.39,1289.13Z"></path><polyline class="cls-8" points="1175.63 1263.41 1164.74 1263.41 1164.74 1236.81 1175.63 1236.81"></polyline><rect class="cls-10" x="1165.24" y="1246.67" width="9.71" height="6.77" transform="translate(-79.96 2420.15) rotate(-90)"></rect><path class="cls-4" d="M1169.2,1254.78h2.56a0,0,0,0,1,0,0v6.77a0,0,0,0,1,0,0h-2.56a.78.78,0,0,1-.78-.78v-5.21A.78.78,0,0,1,1169.2,1254.78Z" transform="translate(-88.07 2428.26) rotate(-90)"></path><path class="cls-4" d="M1169.2,1238.68h2.56a0,0,0,0,1,0,0v6.77a0,0,0,0,1,0,0h-2.56a.78.78,0,0,1-.78-.78v-5.21A.78.78,0,0,1,1169.2,1238.68Z" transform="translate(2412.15 71.97) rotate(90)"></path><path class="cls-16" d="M1247.31,1276.36H1235V1271a7.71,7.71,0,0,1,.38-2.65,3.33,3.33,0,0,1,1.15-1.56,2.77,2.77,0,0,1,1.63-.56,2.54,2.54,0,0,1,1.49.5,3.46,3.46,0,0,1,1.13,1.51,3.86,3.86,0,0,1,1.12-2,2.76,2.76,0,0,1,1.87-.7,3.11,3.11,0,0,1,1.61.43,3.19,3.19,0,0,1,1.15,1.06,4.52,4.52,0,0,1,.61,1.57,10.94,10.94,0,0,1,.21,2.32Zm-7.16-1.91v-3.11a8.36,8.36,0,0,0-.14-1.81,2.1,2.1,0,0,0-.62-1.1,1.64,1.64,0,0,0-1.08-.37,1.77,1.77,0,0,0-1.08.35,1.7,1.7,0,0,0-.64,1,9.79,9.79,0,0,0-.17,2.19v2.87Zm5.7,0v-3.58a9.3,9.3,0,0,0-.06-1.29,3.4,3.4,0,0,0-.33-1.1,1.95,1.95,0,0,0-1.73-1,1.83,1.83,0,0,0-1.2.42,2.16,2.16,0,0,0-.72,1.14,8.18,8.18,0,0,0-.2,2.11v3.32Z"></path><path class="cls-16" d="M1242.84,1263.76a4.28,4.28,0,0,1-3.68-1.61,5.33,5.33,0,0,1-1-3.28,5.1,5.1,0,0,1,1.21-3.52,4.27,4.27,0,0,1,3.34-1.36,5.25,5.25,0,0,1,2.72.6,4,4,0,0,1,1.53,1.76,5.74,5.74,0,0,1,.55,2.52,5.13,5.13,0,0,1-1.2,3.54A4.45,4.45,0,0,1,1242.84,1263.76Zm0-1.82a3.46,3.46,0,0,0,2.57-.87,3.26,3.26,0,0,0,0-4.39,3.55,3.55,0,0,0-2.62-.87,3.38,3.38,0,0,0-2.52.87,3.26,3.26,0,0,0,0,4.39A3.43,3.43,0,0,0,1242.84,1261.94Z"></path><path class="cls-16" d="M1242.84,1252.58a4.28,4.28,0,0,1-3.68-1.61,5.33,5.33,0,0,1-1-3.28,5.08,5.08,0,0,1,1.21-3.51,4.24,4.24,0,0,1,3.34-1.37,5.15,5.15,0,0,1,2.72.61,3.92,3.92,0,0,1,1.53,1.75,5.74,5.74,0,0,1,.55,2.52,5.13,5.13,0,0,1-1.2,3.54A4.42,4.42,0,0,1,1242.84,1252.58Zm0-1.82a3.46,3.46,0,0,0,2.57-.87,3.26,3.26,0,0,0,0-4.39,3.55,3.55,0,0,0-2.62-.87,3.35,3.35,0,0,0-2.52.88,3,3,0,0,0-.85,2.18,3,3,0,0,0,.85,2.2A3.43,3.43,0,0,0,1242.84,1250.76Z"></path><path class="cls-16" d="M1246,1236.88l1.34-.25a7.63,7.63,0,0,1,.14,1.34,3.53,3.53,0,0,1-.26,1.49,1.61,1.61,0,0,1-.69.74,4.54,4.54,0,0,1-1.79.22h-5.15v1.29h-1.18v-1.29h-2.21l-.91-1.76h3.12v-1.78h1.18v1.78h5.23a2.4,2.4,0,0,0,.84-.09.63.63,0,0,0,.29-.31,1.24,1.24,0,0,0,.11-.6A6.87,6.87,0,0,0,1246,1236.88Z"></path><path class="cls-17" d="M606.67,1148.27h-6.21v-2.75a3.62,3.62,0,0,1,.17-1.26,1.36,1.36,0,0,1,.59-.69,1.69,1.69,0,0,1,.94-.26,1.57,1.57,0,0,1,1.11.42,2.25,2.25,0,0,1,.58,1.33,2,2,0,0,1,.3-.5,4.14,4.14,0,0,1,.83-.68l1.69-1.08v1l-1.29.82c-.37.24-.66.44-.86.6a2,2,0,0,0-.41.41,1.27,1.27,0,0,0-.17.38,2.39,2.39,0,0,0,0,.46v1h2.76Zm-3.47-.82v-1.77a2.91,2.91,0,0,0-.11-.88,1,1,0,0,0-.38-.48,1,1,0,0,0-.55-.17.94.94,0,0,0-.73.32,1.5,1.5,0,0,0-.28,1v2Z"></path><path class="cls-17" d="M608.71,1146a5.27,5.27,0,1,1-5.27-5.27A5.28,5.28,0,0,1,608.71,1146Zm-9.82,0a4.55,4.55,0,1,0,4.55-4.55A4.55,4.55,0,0,0,598.89,1146Z"></path></g></svg>