<svg xmlns="http://www.w3.org/2000/svg" viewBox="652.28 526.81 612.92 910.22"><defs><style>.cls-1{fill:#c62129;}.cls-2{font-size:27.57px;}.cls-2,.cls-29,.cls-3,.cls-30,.cls-4{fill:#fff;}.cls-2,.cls-3,.cls-30,.cls-4{font-family:ArialMT, Arial;}.cls-3{font-size:23.68px;}.cls-4{font-size:13.83px;}.cls-10,.cls-11,.cls-13,.cls-14,.cls-15,.cls-17,.cls-18,.cls-23,.cls-24,.cls-25,.cls-26,.cls-28,.cls-5{fill:none;}.cls-5{stroke:#87171a;}.cls-10,.cls-11,.cls-13,.cls-14,.cls-15,.cls-17,.cls-18,.cls-23,.cls-24,.cls-25,.cls-26,.cls-5{stroke-miterlimit:10;}.cls-14,.cls-5{stroke-width:2.41px;}.cls-6{fill:#e8e6dd;}.cls-7{fill:#9c9d9c;}.cls-8{fill:#353535;}.cls-9{fill:#c3c2c4;}.cls-10,.cls-23,.cls-24{stroke:#e5e3e5;}.cls-10{stroke-width:0.9px;}.cls-11,.cls-13,.cls-17,.cls-25{stroke:#050606;}.cls-11{stroke-width:1.94px;}.cls-12{fill:#e5e3e5;}.cls-13,.cls-18{stroke-width:1.2px;}.cls-14{stroke:#c3c2c4;}.cls-15{stroke:#9c9d9c;stroke-width:8.43px;}.cls-16{fill:#916953;}.cls-17{stroke-width:1.94px;}.cls-18{stroke:#a5a4a4;}.cls-19{fill:#a5a4a4;}.cls-20{fill:#f7d891;}.cls-21{fill:#336598;}.cls-22{fill:#8a8d8e;}.cls-23{stroke-width:1.22px;}.cls-24{stroke-width:0.95px;}.cls-25{stroke-width:1.15px;}.cls-26{stroke:#e59e6e;stroke-width:3.61px;}.cls-27{fill:#231f20;}.cls-30{font-size:31.02px;}</style></defs><g id="Layer_7" data-name="Layer 7"><path class="cls-1" d="M1264,588.9v770.85a55,55,0,0,1-55,55H1043.9V1346.3a5.4,5.4,0,0,0-5.4-5.41H940.07a5.41,5.41,0,0,0-5.41,5.41v68.45H708.25a55,55,0,0,1-55-55V588.9a55,55,0,0,1,55-55H1209A55,55,0,0,1,1264,588.9Z"></path><text class="cls-2" transform="translate(746.92 667.86)">LoRa</text><text class="cls-3" transform="translate(928.15 578.12)">WI FI</text><text class="cls-4" transform="translate(756.82 1370.71) rotate(-90)">LED</text><text class="cls-4" transform="translate(1132.16 1406.67) rotate(-90)">RESET</text><path class="cls-5" d="M661.67,796.58H836.33a18.8,18.8,0,0,0,18.8-18.8V647"></path><path class="cls-5" d="M871.51,818.83V785.64a8.63,8.63,0,0,1,8.63-8.63h21.05"></path><polyline class="cls-5" points="1097.37 1008.1 1097.37 1114.25 1129.98 1146.85 1263.99 1146.85"></polyline><path class="cls-6" d="M1043.9,1436.07H934.66v-89.3a5.87,5.87,0,0,1,5.87-5.88H1038a5.88,5.88,0,0,1,5.88,5.88Z"></path><path class="cls-7" d="M949,1326.67h2.45a2.64,2.64,0,0,1,2.64,2.64v11.59a0,0,0,0,1,0,0H946.7a0,0,0,0,1,0,0V1329A2.3,2.3,0,0,1,949,1326.67Z"></path><path class="cls-7" d="M959.06,1326.67h2.45a2.64,2.64,0,0,1,2.64,2.64v11.59a0,0,0,0,1,0,0h-7.39a0,0,0,0,1,0,0V1329A2.3,2.3,0,0,1,959.06,1326.67Z"></path><path class="cls-7" d="M969.12,1326.67h2.45a2.64,2.64,0,0,1,2.64,2.64v11.59a0,0,0,0,1,0,0h-7.39a0,0,0,0,1,0,0V1329A2.3,2.3,0,0,1,969.12,1326.67Z"></path><path class="cls-7" d="M979.18,1326.67h2.45a2.64,2.64,0,0,1,2.64,2.64v11.59a0,0,0,0,1,0,0h-7.39a0,0,0,0,1,0,0V1329A2.3,2.3,0,0,1,979.18,1326.67Z"></path><path class="cls-7" d="M989.24,1326.67h2.45a2.64,2.64,0,0,1,2.64,2.64v11.59a0,0,0,0,1,0,0h-7.39a0,0,0,0,1,0,0V1329A2.3,2.3,0,0,1,989.24,1326.67Z"></path><path class="cls-7" d="M999.29,1326.67h2.45a2.64,2.64,0,0,1,2.64,2.64v11.59a0,0,0,0,1,0,0H997a0,0,0,0,1,0,0V1329A2.3,2.3,0,0,1,999.29,1326.67Z"></path><path class="cls-7" d="M1009.35,1326.67h2.45a2.64,2.64,0,0,1,2.64,2.64v11.59a0,0,0,0,1,0,0H1007a0,0,0,0,1,0,0V1329A2.3,2.3,0,0,1,1009.35,1326.67Z"></path><path class="cls-7" d="M1019.41,1326.67h2.45a2.64,2.64,0,0,1,2.64,2.64v11.59a0,0,0,0,1,0,0h-7.39a0,0,0,0,1,0,0V1329A2.3,2.3,0,0,1,1019.41,1326.67Z"></path><path class="cls-7" d="M1029.47,1326.67h2.45a2.64,2.64,0,0,1,2.64,2.64v11.59a0,0,0,0,1,0,0h-7.39a0,0,0,0,1,0,0V1329A2.3,2.3,0,0,1,1029.47,1326.67Z"></path><path class="cls-7" d="M801,1306.66h4.7A2.35,2.35,0,0,1,808,1309v17.66a0,0,0,0,1,0,0h-9.41a0,0,0,0,1,0,0V1309A2.35,2.35,0,0,1,801,1306.66Z"></path><path class="cls-7" d="M834.05,1281h1.67a2.35,2.35,0,0,1,2.35,2.35v43.3a0,0,0,0,1,0,0H831.7a0,0,0,0,1,0,0v-43.3A2.35,2.35,0,0,1,834.05,1281Z"></path><path class="cls-7" d="M889.06,1306.66h9.41a0,0,0,0,1,0,0v17.66a2.35,2.35,0,0,1-2.35,2.35h-4.7a2.35,2.35,0,0,1-2.35-2.35v-17.66A0,0,0,0,1,889.06,1306.66Z" transform="translate(1787.54 2633.32) rotate(-180)"></path><path class="cls-7" d="M859,1281h6.37a0,0,0,0,1,0,0v43.3a2.35,2.35,0,0,1-2.35,2.35h-1.67a2.35,2.35,0,0,1-2.35-2.35V1281a0,0,0,0,1,0,0Z" transform="translate(1724.41 2607.68) rotate(-180)"></path><rect class="cls-8" x="935.25" y="1151.69" width="12.1" height="10.25" transform="translate(1882.6 2313.64) rotate(-180)"></rect><rect class="cls-9" x="948.94" y="1151.69" width="5.73" height="10.25" rx="1.54" transform="translate(1903.61 2313.64) rotate(-180)"></rect><rect class="cls-9" x="927.68" y="1151.69" width="5.73" height="10.25" rx="1.54" transform="translate(1861.1 2313.64) rotate(-180)"></rect><rect class="cls-8" x="885.22" y="1151.69" width="12.1" height="10.25" transform="translate(1782.53 2313.64) rotate(-180)"></rect><rect class="cls-9" x="898.9" y="1151.69" width="5.73" height="10.25" rx="1.54" transform="translate(1803.53 2313.64) rotate(-180)"></rect><rect class="cls-9" x="877.64" y="1151.69" width="5.73" height="10.25" rx="1.54" transform="translate(1761.02 2313.64) rotate(-180)"></rect><path class="cls-10" d="M1019.59,584.23v85a3,3,0,0,1-3,3h-7.37a3,3,0,0,1-3-3v-41.3h-9a3,3,0,0,1-3-3v-7.37a3,3,0,0,1,3-3h9V594.62h-9a3,3,0,0,1-3-3v-7.37a3,3,0,0,1,3-3h19.41A3,3,0,0,1,1019.59,584.23Z"></path><path class="cls-11" d="M1264,588.9v770.85a55,55,0,0,1-55,55H1043.9V1346.3a5.4,5.4,0,0,0-5.4-5.41H940.07a5.41,5.41,0,0,0-5.41,5.41v68.45H708.25a55,55,0,0,1-55-55V588.9a55,55,0,0,1,55-55H1209A55,55,0,0,1,1264,588.9Z"></path><rect class="cls-9" x="1206.81" y="840.28" width="33.21" height="83.56"></rect><polygon class="cls-12" points="1216.59 846.67 1216.59 922.21 1257.76 922.21 1257.76 961.91 1155.86 961.91 1155.86 809.04 1257.76 809.04 1257.76 846.67 1216.59 846.67"></polygon><path class="cls-7" d="M1121.11,919.71h34.74a0,0,0,0,1,0,0v12.75a0,0,0,0,1,0,0h-34.74a4.12,4.12,0,0,1-4.12-4.12v-4.51A4.12,4.12,0,0,1,1121.11,919.71Z"></path><path class="cls-7" d="M1121.11,893.24h34.74a0,0,0,0,1,0,0V906a0,0,0,0,1,0,0h-34.74a4.12,4.12,0,0,1-4.12-4.12v-4.51A4.12,4.12,0,0,1,1121.11,893.24Z"></path><path class="cls-7" d="M1121.11,866.76h34.74a0,0,0,0,1,0,0v12.75a0,0,0,0,1,0,0h-34.74a4.12,4.12,0,0,1-4.12-4.12v-4.51A4.12,4.12,0,0,1,1121.11,866.76Z"></path><path class="cls-7" d="M1121.11,840.28h34.74a0,0,0,0,1,0,0V853a0,0,0,0,1,0,0h-34.74a4.12,4.12,0,0,1-4.12-4.12V844.4A4.12,4.12,0,0,1,1121.11,840.28Z"></path><path class="cls-7" d="M1155.86,809v12.75h-12.74a4.12,4.12,0,0,1-4.12-4.12v-4.51a4.11,4.11,0,0,1,4.12-4.12Z"></path><path class="cls-7" d="M1155.86,949.17v12.74h-12.74a4.11,4.11,0,0,1-4.12-4.12v-4.51a4.11,4.11,0,0,1,4.12-4.11Z"></path><polygon class="cls-13" points="1216.59 846.67 1216.59 922.21 1257.76 922.21 1257.76 961.91 1155.86 961.91 1155.86 809.04 1257.76 809.04 1257.76 846.67 1216.59 846.67"></polygon><line class="cls-13" x1="1240.29" y1="846.67" x2="1240.29" y2="922.21"></line><path class="cls-13" d="M1121.11,919.71h34.74a0,0,0,0,1,0,0v12.75a0,0,0,0,1,0,0h-34.74a4.12,4.12,0,0,1-4.12-4.12v-4.51A4.12,4.12,0,0,1,1121.11,919.71Z"></path><path class="cls-13" d="M1121.11,893.24h34.74a0,0,0,0,1,0,0V906a0,0,0,0,1,0,0h-34.74a4.12,4.12,0,0,1-4.12-4.12v-4.51A4.12,4.12,0,0,1,1121.11,893.24Z"></path><path class="cls-13" d="M1121.11,866.76h34.74a0,0,0,0,1,0,0v12.75a0,0,0,0,1,0,0h-34.74a4.12,4.12,0,0,1-4.12-4.12v-4.51A4.12,4.12,0,0,1,1121.11,866.76Z"></path><path class="cls-13" d="M1121.11,840.28h34.74a0,0,0,0,1,0,0V853a0,0,0,0,1,0,0h-34.74a4.12,4.12,0,0,1-4.12-4.12V844.4A4.12,4.12,0,0,1,1121.11,840.28Z"></path><path class="cls-13" d="M1155.86,809v12.75h-12.74a4.12,4.12,0,0,1-4.12-4.12v-4.51a4.11,4.11,0,0,1,4.12-4.12Z"></path><path class="cls-13" d="M1155.86,949.17v12.74h-12.74a4.11,4.11,0,0,1-4.12-4.12v-4.51a4.11,4.11,0,0,1,4.12-4.11Z"></path><path class="cls-14" d="M1169.59,813.78v20.71a5.79,5.79,0,0,0,5.79,5.79h79"></path><path class="cls-14" d="M1169.59,955.54V934.82a5.8,5.8,0,0,1,5.79-5.79h79"></path><rect class="cls-9" x="1206.81" y="1018.13" width="33.21" height="83.56"></rect><polygon class="cls-12" points="1216.59 1024.52 1216.59 1100.05 1257.76 1100.05 1257.76 1139.75 1155.86 1139.75 1155.86 986.89 1257.76 986.89 1257.76 1024.52 1216.59 1024.52"></polygon><path class="cls-7" d="M1121.11,1097.56h34.74a0,0,0,0,1,0,0v12.75a0,0,0,0,1,0,0h-34.74a4.12,4.12,0,0,1-4.12-4.12v-4.51A4.12,4.12,0,0,1,1121.11,1097.56Z"></path><path class="cls-7" d="M1121.11,1071.08h34.74a0,0,0,0,1,0,0v12.75a0,0,0,0,1,0,0h-34.74a4.12,4.12,0,0,1-4.12-4.12v-4.51A4.12,4.12,0,0,1,1121.11,1071.08Z"></path><path class="cls-7" d="M1121.11,1044.6h34.74a0,0,0,0,1,0,0v12.75a0,0,0,0,1,0,0h-34.74a4.12,4.12,0,0,1-4.12-4.12v-4.51A4.12,4.12,0,0,1,1121.11,1044.6Z"></path><path class="cls-7" d="M1121.11,1018.13h34.74a0,0,0,0,1,0,0v12.75a0,0,0,0,1,0,0h-34.74a4.12,4.12,0,0,1-4.12-4.12v-4.51A4.12,4.12,0,0,1,1121.11,1018.13Z"></path><path class="cls-7" d="M1155.86,986.89v12.74h-12.74a4.11,4.11,0,0,1-4.12-4.12V991a4.11,4.11,0,0,1,4.12-4.12Z"></path><path class="cls-7" d="M1155.86,1127v12.74h-12.74a4.11,4.11,0,0,1-4.12-4.12v-4.5a4.11,4.11,0,0,1,4.12-4.12Z"></path><polygon class="cls-13" points="1216.59 1024.52 1216.59 1100.05 1257.76 1100.05 1257.76 1139.75 1155.86 1139.75 1155.86 986.89 1257.76 986.89 1257.76 1024.52 1216.59 1024.52"></polygon><line class="cls-13" x1="1240.29" y1="1024.52" x2="1240.29" y2="1100.05"></line><path class="cls-13" d="M1121.11,1097.56h34.74a0,0,0,0,1,0,0v12.75a0,0,0,0,1,0,0h-34.74a4.12,4.12,0,0,1-4.12-4.12v-4.51A4.12,4.12,0,0,1,1121.11,1097.56Z"></path><path class="cls-13" d="M1121.11,1071.08h34.74a0,0,0,0,1,0,0v12.75a0,0,0,0,1,0,0h-34.74a4.12,4.12,0,0,1-4.12-4.12v-4.51A4.12,4.12,0,0,1,1121.11,1071.08Z"></path><path class="cls-13" d="M1121.11,1044.6h34.74a0,0,0,0,1,0,0v12.75a0,0,0,0,1,0,0h-34.74a4.12,4.12,0,0,1-4.12-4.12v-4.51A4.12,4.12,0,0,1,1121.11,1044.6Z"></path><path class="cls-13" d="M1121.11,1018.13h34.74a0,0,0,0,1,0,0v12.75a0,0,0,0,1,0,0h-34.74a4.12,4.12,0,0,1-4.12-4.12v-4.51A4.12,4.12,0,0,1,1121.11,1018.13Z"></path><path class="cls-13" d="M1155.86,986.89v12.74h-12.74a4.11,4.11,0,0,1-4.12-4.12V991a4.11,4.11,0,0,1,4.12-4.12Z"></path><path class="cls-13" d="M1155.86,1127v12.74h-12.74a4.11,4.11,0,0,1-4.12-4.12v-4.5a4.11,4.11,0,0,1,4.12-4.12Z"></path><path class="cls-14" d="M1169.59,991.62v20.72a5.8,5.8,0,0,0,5.79,5.79h79"></path><path class="cls-14" d="M1169.59,1133.38v-20.71a5.79,5.79,0,0,1,5.79-5.79h79"></path><rect class="cls-9" x="1206.81" y="1195.97" width="33.21" height="83.56"></rect><polygon class="cls-12" points="1216.59 1202.36 1216.59 1277.9 1257.76 1277.9 1257.76 1317.6 1155.86 1317.6 1155.86 1164.73 1257.76 1164.73 1257.76 1202.36 1216.59 1202.36"></polygon><path class="cls-7" d="M1121.11,1275.4h34.74a0,0,0,0,1,0,0v12.75a0,0,0,0,1,0,0h-34.74A4.12,4.12,0,0,1,1117,1284v-4.51A4.12,4.12,0,0,1,1121.11,1275.4Z"></path><path class="cls-7" d="M1121.11,1248.92h34.74a0,0,0,0,1,0,0v12.75a0,0,0,0,1,0,0h-34.74a4.12,4.12,0,0,1-4.12-4.12V1253A4.12,4.12,0,0,1,1121.11,1248.92Z"></path><path class="cls-7" d="M1121.11,1222.45h34.74a0,0,0,0,1,0,0v12.75a0,0,0,0,1,0,0h-34.74a4.12,4.12,0,0,1-4.12-4.12v-4.51A4.12,4.12,0,0,1,1121.11,1222.45Z"></path><path class="cls-7" d="M1121.11,1196h34.74a0,0,0,0,1,0,0v12.75a0,0,0,0,1,0,0h-34.74a4.12,4.12,0,0,1-4.12-4.12v-4.51A4.12,4.12,0,0,1,1121.11,1196Z"></path><path class="cls-7" d="M1155.86,1164.73v12.74h-12.74a4.11,4.11,0,0,1-4.12-4.11v-4.51a4.11,4.11,0,0,1,4.12-4.12Z"></path><path class="cls-7" d="M1155.86,1304.85v12.75h-12.74a4.11,4.11,0,0,1-4.12-4.12V1309a4.12,4.12,0,0,1,4.12-4.12Z"></path><polygon class="cls-13" points="1216.59 1202.36 1216.59 1277.9 1257.76 1277.9 1257.76 1317.6 1155.86 1317.6 1155.86 1164.73 1257.76 1164.73 1257.76 1202.36 1216.59 1202.36"></polygon><line class="cls-13" x1="1240.29" y1="1202.36" x2="1240.29" y2="1277.9"></line><path class="cls-13" d="M1121.11,1275.4h34.74a0,0,0,0,1,0,0v12.75a0,0,0,0,1,0,0h-34.74A4.12,4.12,0,0,1,1117,1284v-4.51A4.12,4.12,0,0,1,1121.11,1275.4Z"></path><path class="cls-13" d="M1121.11,1248.92h34.74a0,0,0,0,1,0,0v12.75a0,0,0,0,1,0,0h-34.74a4.12,4.12,0,0,1-4.12-4.12V1253A4.12,4.12,0,0,1,1121.11,1248.92Z"></path><path class="cls-13" d="M1121.11,1222.45h34.74a0,0,0,0,1,0,0v12.75a0,0,0,0,1,0,0h-34.74a4.12,4.12,0,0,1-4.12-4.12v-4.51A4.12,4.12,0,0,1,1121.11,1222.45Z"></path><path class="cls-13" d="M1121.11,1196h34.74a0,0,0,0,1,0,0v12.75a0,0,0,0,1,0,0h-34.74a4.12,4.12,0,0,1-4.12-4.12v-4.51A4.12,4.12,0,0,1,1121.11,1196Z"></path><path class="cls-13" d="M1155.86,1164.73v12.74h-12.74a4.11,4.11,0,0,1-4.12-4.11v-4.51a4.11,4.11,0,0,1,4.12-4.12Z"></path><path class="cls-13" d="M1155.86,1304.85v12.75h-12.74a4.11,4.11,0,0,1-4.12-4.12V1309a4.12,4.12,0,0,1,4.12-4.12Z"></path><path class="cls-14" d="M1169.59,1169.47v20.71a5.79,5.79,0,0,0,5.79,5.79h79"></path><path class="cls-14" d="M1169.59,1311.23v-20.72a5.79,5.79,0,0,1,5.79-5.79h79"></path><rect class="cls-9" x="679.41" y="840.28" width="33.21" height="83.56" transform="translate(1392.04 1764.13) rotate(-180)"></rect><polygon class="cls-12" points="702.84 846.67 702.84 922.21 661.67 922.21 661.67 961.91 763.58 961.91 763.58 809.04 661.67 809.04 661.67 846.67 702.84 846.67"></polygon><path class="cls-7" d="M767.7,919.71h34.74a0,0,0,0,1,0,0v12.75a0,0,0,0,1,0,0H767.7a4.12,4.12,0,0,1-4.12-4.12v-4.51a4.12,4.12,0,0,1,4.12-4.12Z" transform="translate(1566.02 1852.17) rotate(-180)"></path><path class="cls-7" d="M767.7,893.24h34.74a0,0,0,0,1,0,0V906a0,0,0,0,1,0,0H767.7a4.12,4.12,0,0,1-4.12-4.12v-4.51A4.12,4.12,0,0,1,767.7,893.24Z" transform="translate(1566.02 1799.22) rotate(-180)"></path><path class="cls-7" d="M767.7,866.76h34.74a0,0,0,0,1,0,0v12.75a0,0,0,0,1,0,0H767.7a4.12,4.12,0,0,1-4.12-4.12v-4.51A4.12,4.12,0,0,1,767.7,866.76Z" transform="translate(1566.02 1746.27) rotate(-180)"></path><path class="cls-7" d="M767.7,840.28h34.74a0,0,0,0,1,0,0V853a0,0,0,0,1,0,0H767.7a4.12,4.12,0,0,1-4.12-4.12V844.4A4.12,4.12,0,0,1,767.7,840.28Z" transform="translate(1566.02 1693.31) rotate(-180)"></path><path class="cls-7" d="M763.58,809v12.75h12.74a4.12,4.12,0,0,0,4.12-4.12v-4.51a4.11,4.11,0,0,0-4.12-4.12Z"></path><path class="cls-7" d="M763.58,949.17v12.74h12.74a4.11,4.11,0,0,0,4.12-4.12v-4.51a4.11,4.11,0,0,0-4.12-4.11Z"></path><polygon class="cls-13" points="702.84 846.67 702.84 922.21 661.67 922.21 661.67 961.91 763.58 961.91 763.58 809.04 661.67 809.04 661.67 846.67 702.84 846.67"></polygon><line class="cls-13" x1="679.14" y1="846.67" x2="679.14" y2="922.21"></line><path class="cls-13" d="M767.7,919.71h34.74a0,0,0,0,1,0,0v12.75a0,0,0,0,1,0,0H767.7a4.12,4.12,0,0,1-4.12-4.12v-4.51a4.12,4.12,0,0,1,4.12-4.12Z" transform="translate(1566.02 1852.17) rotate(-180)"></path><path class="cls-13" d="M767.7,893.24h34.74a0,0,0,0,1,0,0V906a0,0,0,0,1,0,0H767.7a4.12,4.12,0,0,1-4.12-4.12v-4.51A4.12,4.12,0,0,1,767.7,893.24Z" transform="translate(1566.02 1799.22) rotate(-180)"></path><path class="cls-13" d="M767.7,866.76h34.74a0,0,0,0,1,0,0v12.75a0,0,0,0,1,0,0H767.7a4.12,4.12,0,0,1-4.12-4.12v-4.51A4.12,4.12,0,0,1,767.7,866.76Z" transform="translate(1566.02 1746.27) rotate(-180)"></path><path class="cls-13" d="M767.7,840.28h34.74a0,0,0,0,1,0,0V853a0,0,0,0,1,0,0H767.7a4.12,4.12,0,0,1-4.12-4.12V844.4A4.12,4.12,0,0,1,767.7,840.28Z" transform="translate(1566.02 1693.31) rotate(-180)"></path><path class="cls-13" d="M763.58,809v12.75h12.74a4.12,4.12,0,0,0,4.12-4.12v-4.51a4.11,4.11,0,0,0-4.12-4.12Z"></path><path class="cls-13" d="M763.58,949.17v12.74h12.74a4.11,4.11,0,0,0,4.12-4.12v-4.51a4.11,4.11,0,0,0-4.12-4.11Z"></path><path class="cls-14" d="M749.84,813.78v20.71a5.79,5.79,0,0,1-5.79,5.79h-79"></path><path class="cls-14" d="M749.84,955.54V934.82a5.79,5.79,0,0,0-5.79-5.79h-79"></path><rect class="cls-9" x="679.41" y="1018.13" width="33.21" height="83.56" transform="translate(1392.04 2119.82) rotate(-180)"></rect><polygon class="cls-12" points="702.84 1024.52 702.84 1100.05 661.67 1100.05 661.67 1139.75 763.58 1139.75 763.58 986.89 661.67 986.89 661.67 1024.52 702.84 1024.52"></polygon><path class="cls-7" d="M767.7,1097.56h34.74a0,0,0,0,1,0,0v12.75a0,0,0,0,1,0,0H767.7a4.12,4.12,0,0,1-4.12-4.12v-4.51A4.12,4.12,0,0,1,767.7,1097.56Z" transform="translate(1566.02 2207.86) rotate(-180)"></path><path class="cls-7" d="M767.7,1071.08h34.74a0,0,0,0,1,0,0v12.75a0,0,0,0,1,0,0H767.7a4.12,4.12,0,0,1-4.12-4.12v-4.51A4.12,4.12,0,0,1,767.7,1071.08Z" transform="translate(1566.02 2154.91) rotate(-180)"></path><path class="cls-7" d="M767.7,1044.6h34.74a0,0,0,0,1,0,0v12.75a0,0,0,0,1,0,0H767.7a4.12,4.12,0,0,1-4.12-4.12v-4.51A4.12,4.12,0,0,1,767.7,1044.6Z" transform="translate(1566.02 2101.95) rotate(-180)"></path><path class="cls-7" d="M767.7,1018.13h34.74a0,0,0,0,1,0,0v12.75a0,0,0,0,1,0,0H767.7a4.12,4.12,0,0,1-4.12-4.12v-4.51a4.12,4.12,0,0,1,4.12-4.12Z" transform="translate(1566.02 2049) rotate(-180)"></path><path class="cls-7" d="M763.58,986.89v12.74h12.74a4.11,4.11,0,0,0,4.12-4.12V991a4.11,4.11,0,0,0-4.12-4.12Z"></path><path class="cls-7" d="M763.58,1127v12.74h12.74a4.11,4.11,0,0,0,4.12-4.12v-4.5a4.11,4.11,0,0,0-4.12-4.12Z"></path><polygon class="cls-13" points="702.84 1024.52 702.84 1100.05 661.67 1100.05 661.67 1139.75 763.58 1139.75 763.58 986.89 661.67 986.89 661.67 1024.52 702.84 1024.52"></polygon><line class="cls-13" x1="679.14" y1="1024.52" x2="679.14" y2="1100.05"></line><path class="cls-13" d="M767.7,1097.56h34.74a0,0,0,0,1,0,0v12.75a0,0,0,0,1,0,0H767.7a4.12,4.12,0,0,1-4.12-4.12v-4.51A4.12,4.12,0,0,1,767.7,1097.56Z" transform="translate(1566.02 2207.86) rotate(-180)"></path><path class="cls-13" d="M767.7,1071.08h34.74a0,0,0,0,1,0,0v12.75a0,0,0,0,1,0,0H767.7a4.12,4.12,0,0,1-4.12-4.12v-4.51A4.12,4.12,0,0,1,767.7,1071.08Z" transform="translate(1566.02 2154.91) rotate(-180)"></path><path class="cls-13" d="M767.7,1044.6h34.74a0,0,0,0,1,0,0v12.75a0,0,0,0,1,0,0H767.7a4.12,4.12,0,0,1-4.12-4.12v-4.51A4.12,4.12,0,0,1,767.7,1044.6Z" transform="translate(1566.02 2101.95) rotate(-180)"></path><path class="cls-13" d="M767.7,1018.13h34.74a0,0,0,0,1,0,0v12.75a0,0,0,0,1,0,0H767.7a4.12,4.12,0,0,1-4.12-4.12v-4.51a4.12,4.12,0,0,1,4.12-4.12Z" transform="translate(1566.02 2049) rotate(-180)"></path><path class="cls-13" d="M763.58,986.89v12.74h12.74a4.11,4.11,0,0,0,4.12-4.12V991a4.11,4.11,0,0,0-4.12-4.12Z"></path><path class="cls-13" d="M763.58,1127v12.74h12.74a4.11,4.11,0,0,0,4.12-4.12v-4.5a4.11,4.11,0,0,0-4.12-4.12Z"></path><path class="cls-14" d="M749.84,991.62v20.72a5.79,5.79,0,0,1-5.79,5.79h-79"></path><path class="cls-14" d="M749.84,1133.38v-20.71a5.79,5.79,0,0,0-5.79-5.79h-79"></path><rect class="cls-9" x="679.41" y="1195.97" width="33.21" height="83.56" transform="translate(1392.04 2475.5) rotate(-180)"></rect><polygon class="cls-12" points="702.84 1202.36 702.84 1277.9 661.67 1277.9 661.67 1317.6 763.58 1317.6 763.58 1164.73 661.67 1164.73 661.67 1202.36 702.84 1202.36"></polygon><path class="cls-7" d="M767.7,1275.4h34.74a0,0,0,0,1,0,0v12.75a0,0,0,0,1,0,0H767.7a4.12,4.12,0,0,1-4.12-4.12v-4.51A4.12,4.12,0,0,1,767.7,1275.4Z" transform="translate(1566.02 2563.55) rotate(-180)"></path><path class="cls-7" d="M767.7,1248.92h34.74a0,0,0,0,1,0,0v12.75a0,0,0,0,1,0,0H767.7a4.12,4.12,0,0,1-4.12-4.12V1253A4.12,4.12,0,0,1,767.7,1248.92Z" transform="translate(1566.02 2510.6) rotate(-180)"></path><path class="cls-7" d="M767.7,1222.45h34.74a0,0,0,0,1,0,0v12.75a0,0,0,0,1,0,0H767.7a4.12,4.12,0,0,1-4.12-4.12v-4.51A4.12,4.12,0,0,1,767.7,1222.45Z" transform="translate(1566.02 2457.64) rotate(-180)"></path><path class="cls-7" d="M767.7,1196h34.74a0,0,0,0,1,0,0v12.75a0,0,0,0,1,0,0H767.7a4.12,4.12,0,0,1-4.12-4.12v-4.51A4.12,4.12,0,0,1,767.7,1196Z" transform="translate(1566.02 2404.69) rotate(-180)"></path><path class="cls-7" d="M763.58,1164.73v12.74h12.74a4.11,4.11,0,0,0,4.12-4.11v-4.51a4.11,4.11,0,0,0-4.12-4.12Z"></path><path class="cls-7" d="M763.58,1304.85v12.75h12.74a4.11,4.11,0,0,0,4.12-4.12V1309a4.12,4.12,0,0,0-4.12-4.12Z"></path><polygon class="cls-13" points="702.84 1202.36 702.84 1277.9 661.67 1277.9 661.67 1317.6 763.58 1317.6 763.58 1164.73 661.67 1164.73 661.67 1202.36 702.84 1202.36"></polygon><line class="cls-13" x1="679.14" y1="1202.36" x2="679.14" y2="1277.9"></line><path class="cls-13" d="M767.7,1275.4h34.74a0,0,0,0,1,0,0v12.75a0,0,0,0,1,0,0H767.7a4.12,4.12,0,0,1-4.12-4.12v-4.51A4.12,4.12,0,0,1,767.7,1275.4Z" transform="translate(1566.02 2563.55) rotate(-180)"></path><path class="cls-13" d="M767.7,1248.92h34.74a0,0,0,0,1,0,0v12.75a0,0,0,0,1,0,0H767.7a4.12,4.12,0,0,1-4.12-4.12V1253A4.12,4.12,0,0,1,767.7,1248.92Z" transform="translate(1566.02 2510.6) rotate(-180)"></path><path class="cls-13" d="M767.7,1222.45h34.74a0,0,0,0,1,0,0v12.75a0,0,0,0,1,0,0H767.7a4.12,4.12,0,0,1-4.12-4.12v-4.51A4.12,4.12,0,0,1,767.7,1222.45Z" transform="translate(1566.02 2457.64) rotate(-180)"></path><path class="cls-13" d="M767.7,1196h34.74a0,0,0,0,1,0,0v12.75a0,0,0,0,1,0,0H767.7a4.12,4.12,0,0,1-4.12-4.12v-4.51A4.12,4.12,0,0,1,767.7,1196Z" transform="translate(1566.02 2404.69) rotate(-180)"></path><path class="cls-13" d="M763.58,1164.73v12.74h12.74a4.11,4.11,0,0,0,4.12-4.11v-4.51a4.11,4.11,0,0,0-4.12-4.12Z"></path><path class="cls-13" d="M763.58,1304.85v12.75h12.74a4.11,4.11,0,0,0,4.12-4.12V1309a4.12,4.12,0,0,0-4.12-4.12Z"></path><path class="cls-14" d="M749.84,1169.47v20.71a5.79,5.79,0,0,1-5.79,5.79h-79"></path><path class="cls-14" d="M749.84,1311.23v-20.72a5.79,5.79,0,0,0-5.79-5.79h-79"></path><path class="cls-7" d="M1078.46,1345.62h6.31a2.2,2.2,0,0,1,2.2,2.2v4.41a0,0,0,0,1,0,0h-10.71a0,0,0,0,1,0,0v-4.41A2.2,2.2,0,0,1,1078.46,1345.62Z"></path><path class="cls-7" d="M1102.89,1345.62h6.31a2.2,2.2,0,0,1,2.2,2.2v4.41a0,0,0,0,1,0,0h-10.71a0,0,0,0,1,0,0v-4.41A2.2,2.2,0,0,1,1102.89,1345.62Z"></path><path class="cls-7" d="M1102.89,1405.86h6.31a2.2,2.2,0,0,1,2.2,2.2v4.41a0,0,0,0,1,0,0h-10.71a0,0,0,0,1,0,0v-4.41A2.2,2.2,0,0,1,1102.89,1405.86Z" transform="translate(2212.09 2818.32) rotate(180)"></path><path class="cls-7" d="M1078.46,1405.86h6.31a2.2,2.2,0,0,1,2.2,2.2v4.41a0,0,0,0,1,0,0h-10.71a0,0,0,0,1,0,0v-4.41A2.2,2.2,0,0,1,1078.46,1405.86Z" transform="translate(2163.23 2818.32) rotate(180)"></path><rect class="cls-12" x="1073.79" y="1352.23" width="41.05" height="53.63" rx="2.54"></rect><rect class="cls-13" x="1073.79" y="1352.23" width="41.05" height="53.63" rx="2.54"></rect><rect class="cls-15" x="1081.81" y="1358.56" width="27.06" height="40" rx="13.53"></rect><rect class="cls-16" x="1081.81" y="1358.56" width="27.06" height="40" rx="13.53"></rect><path class="cls-7" d="M1141.88,1345.62h6.31a2.2,2.2,0,0,1,2.2,2.2v4.41a0,0,0,0,1,0,0h-10.71a0,0,0,0,1,0,0v-4.41A2.2,2.2,0,0,1,1141.88,1345.62Z"></path><path class="cls-7" d="M1166.31,1345.62h6.31a2.2,2.2,0,0,1,2.2,2.2v4.41a0,0,0,0,1,0,0h-10.71a0,0,0,0,1,0,0v-4.41A2.2,2.2,0,0,1,1166.31,1345.62Z"></path><path class="cls-7" d="M1166.31,1405.86h6.31a2.2,2.2,0,0,1,2.2,2.2v4.41a0,0,0,0,1,0,0h-10.71a0,0,0,0,1,0,0v-4.41A2.2,2.2,0,0,1,1166.31,1405.86Z" transform="translate(2338.93 2818.32) rotate(180)"></path><path class="cls-7" d="M1141.88,1405.86h6.31a2.2,2.2,0,0,1,2.2,2.2v4.41a0,0,0,0,1,0,0h-10.71a0,0,0,0,1,0,0v-4.41A2.2,2.2,0,0,1,1141.88,1405.86Z" transform="translate(2290.07 2818.32) rotate(180)"></path><rect class="cls-12" x="1137.21" y="1352.23" width="41.05" height="53.63" rx="2.54"></rect><rect class="cls-13" x="1137.21" y="1352.23" width="41.05" height="53.63" rx="2.54"></rect><rect class="cls-15" x="1145.23" y="1358.56" width="27.06" height="40" rx="13.53"></rect><rect class="cls-16" x="1145.23" y="1358.56" width="27.06" height="40" rx="13.53"></rect><rect class="cls-12" x="679.14" y="552.87" width="189.99" height="78.28"></rect><rect class="cls-17" x="679.14" y="552.87" width="189.99" height="78.28"></rect><rect class="cls-9" x="679.14" y="633.62" width="26.9" height="6.71" rx="1.83"></rect><rect class="cls-9" x="761.46" y="633.62" width="26.9" height="6.71" rx="1.83"></rect><rect class="cls-9" x="843.62" y="633.62" width="26.9" height="6.71" rx="1.83"></rect><rect class="cls-9" x="679.14" y="543.69" width="26.9" height="6.71" rx="1.83"></rect><rect class="cls-9" x="761.46" y="543.69" width="26.9" height="6.71" rx="1.83"></rect><rect class="cls-9" x="843.62" y="543.69" width="26.9" height="6.71" rx="1.83"></rect><rect class="cls-8" x="1110.81" y="752.1" width="36.61" height="36.61"></rect><path class="cls-9" d="M1115.84,748.75h2.77a0,0,0,0,1,0,0v3.14a0,0,0,0,1,0,0h-2.77a.8.8,0,0,1-.8-.8v-1.54A.8.8,0,0,1,1115.84,748.75Z" transform="translate(1867.14 -366.51) rotate(90)"></path><path class="cls-9" d="M1122,748.75h2.77a0,0,0,0,1,0,0v3.14a0,0,0,0,1,0,0H1122a.8.8,0,0,1-.8-.8v-1.54A.8.8,0,0,1,1122,748.75Z" transform="translate(1873.29 -372.66) rotate(90)"></path><path class="cls-9" d="M1128.14,748.75h2.77a0,0,0,0,1,0,0v3.14a0,0,0,0,1,0,0h-2.77a.8.8,0,0,1-.8-.8v-1.54A.8.8,0,0,1,1128.14,748.75Z" transform="translate(1879.44 -378.81) rotate(90)"></path><path class="cls-9" d="M1134.28,748.75h2.77a0,0,0,0,1,0,0v3.14a0,0,0,0,1,0,0h-2.77a.8.8,0,0,1-.8-.8v-1.54A.8.8,0,0,1,1134.28,748.75Z" transform="translate(1885.58 -384.95) rotate(90)"></path><path class="cls-9" d="M1140.43,748.75h2.77a0,0,0,0,1,0,0v3.14a0,0,0,0,1,0,0h-2.77a.8.8,0,0,1-.8-.8v-1.54A.8.8,0,0,1,1140.43,748.75Z" transform="translate(1891.73 -391.1) rotate(90)"></path><path class="cls-9" d="M1140.43,788.93h2.77a0,0,0,0,1,0,0v3.14a0,0,0,0,1,0,0h-2.77a.8.8,0,0,1-.8-.8v-1.54A.8.8,0,0,1,1140.43,788.93Z" transform="translate(350.92 1931.91) rotate(-90)"></path><path class="cls-9" d="M1134.28,788.93h2.77a0,0,0,0,1,0,0v3.14a0,0,0,0,1,0,0h-2.77a.8.8,0,0,1-.8-.8v-1.54a.8.8,0,0,1,.8-.8Z" transform="translate(344.77 1925.76) rotate(-90)"></path><path class="cls-9" d="M1128.14,788.93h2.77a0,0,0,0,1,0,0v3.14a0,0,0,0,1,0,0h-2.77a.8.8,0,0,1-.8-.8v-1.54a.8.8,0,0,1,.8-.8Z" transform="translate(338.62 1919.62) rotate(-90)"></path><path class="cls-9" d="M1122,788.93h2.77a0,0,0,0,1,0,0v3.14a0,0,0,0,1,0,0H1122a.8.8,0,0,1-.8-.8v-1.54A.8.8,0,0,1,1122,788.93Z" transform="translate(332.48 1913.47) rotate(-90)"></path><path class="cls-9" d="M1115.84,788.93h2.77a0,0,0,0,1,0,0v3.14a0,0,0,0,1,0,0h-2.77a.8.8,0,0,1-.8-.8v-1.54a.8.8,0,0,1,.8-.8Z" transform="translate(326.33 1907.32) rotate(-90)"></path><path class="cls-9" d="M1108,780.54h2.77a0,0,0,0,1,0,0v3.14a0,0,0,0,1,0,0H1108a.8.8,0,0,1-.8-.8v-1.54A.8.8,0,0,1,1108,780.54Z"></path><path class="cls-9" d="M1108,774.39h2.77a0,0,0,0,1,0,0v3.14a0,0,0,0,1,0,0H1108a.8.8,0,0,1-.8-.8v-1.54A.8.8,0,0,1,1108,774.39Z"></path><path class="cls-9" d="M1108,768.24h2.77a0,0,0,0,1,0,0v3.14a0,0,0,0,1,0,0H1108a.8.8,0,0,1-.8-.8V769A.8.8,0,0,1,1108,768.24Z"></path><path class="cls-9" d="M1108,762.1h2.77a0,0,0,0,1,0,0v3.14a0,0,0,0,1,0,0H1108a.8.8,0,0,1-.8-.8V762.9A.8.8,0,0,1,1108,762.1Z"></path><path class="cls-9" d="M1108,755.95h2.77a0,0,0,0,1,0,0v3.14a0,0,0,0,1,0,0H1108a.8.8,0,0,1-.8-.8v-1.54A.8.8,0,0,1,1108,755.95Z"></path><path class="cls-9" d="M1148.23,755.95H1151a0,0,0,0,1,0,0v3.14a0,0,0,0,1,0,0h-2.77a.8.8,0,0,1-.8-.8v-1.54A.8.8,0,0,1,1148.23,755.95Z" transform="translate(2298.42 1515.03) rotate(180)"></path><path class="cls-9" d="M1148.23,762.1H1151a0,0,0,0,1,0,0v3.14a0,0,0,0,1,0,0h-2.77a.8.8,0,0,1-.8-.8V762.9A.8.8,0,0,1,1148.23,762.1Z" transform="translate(2298.42 1527.33) rotate(180)"></path><path class="cls-9" d="M1148.23,768.24H1151a0,0,0,0,1,0,0v3.14a0,0,0,0,1,0,0h-2.77a.8.8,0,0,1-.8-.8V769A.8.8,0,0,1,1148.23,768.24Z" transform="translate(2298.42 1539.62) rotate(180)"></path><path class="cls-9" d="M1148.23,774.39H1151a0,0,0,0,1,0,0v3.14a0,0,0,0,1,0,0h-2.77a.8.8,0,0,1-.8-.8v-1.54A.8.8,0,0,1,1148.23,774.39Z" transform="translate(2298.42 1551.91) rotate(180)"></path><path class="cls-9" d="M1148.23,780.54H1151a0,0,0,0,1,0,0v3.14a0,0,0,0,1,0,0h-2.77a.8.8,0,0,1-.8-.8v-1.54A.8.8,0,0,1,1148.23,780.54Z" transform="translate(2298.42 1564.21) rotate(180)"></path><rect class="cls-8" x="864.52" y="1209.69" width="36.61" height="36.61"></rect><path class="cls-9" d="M869.55,1206.34h2.77a0,0,0,0,1,0,0v3.14a0,0,0,0,1,0,0h-2.77a.8.8,0,0,1-.8-.8v-1.54A.8.8,0,0,1,869.55,1206.34Z" transform="translate(2078.44 337.38) rotate(90)"></path><path class="cls-9" d="M875.69,1206.34h2.77a0,0,0,0,1,0,0v3.14a0,0,0,0,1,0,0h-2.77a.8.8,0,0,1-.8-.8v-1.54A.8.8,0,0,1,875.69,1206.34Z" transform="translate(2084.59 331.23) rotate(90)"></path><path class="cls-9" d="M881.84,1206.34h2.77a0,0,0,0,1,0,0v3.14a0,0,0,0,1,0,0h-2.77a.8.8,0,0,1-.8-.8v-1.54A.8.8,0,0,1,881.84,1206.34Z" transform="translate(2090.73 325.09) rotate(90)"></path><path class="cls-9" d="M888,1206.34h2.77a0,0,0,0,1,0,0v3.14a0,0,0,0,1,0,0H888a.8.8,0,0,1-.8-.8v-1.54A.8.8,0,0,1,888,1206.34Z" transform="translate(2096.88 318.94) rotate(90)"></path><path class="cls-9" d="M894.13,1206.34h2.77a0,0,0,0,1,0,0v3.14a0,0,0,0,1,0,0h-2.77a.8.8,0,0,1-.8-.8v-1.54A.8.8,0,0,1,894.13,1206.34Z" transform="translate(2103.03 312.79) rotate(90)"></path><path class="cls-9" d="M894.13,1246.52h2.77a0,0,0,0,1,0,0v3.14a0,0,0,0,1,0,0h-2.77a.8.8,0,0,1-.8-.8v-1.54A.8.8,0,0,1,894.13,1246.52Z" transform="translate(-352.97 2143.21) rotate(-90)"></path><path class="cls-9" d="M888,1246.52h2.77a0,0,0,0,1,0,0v3.14a0,0,0,0,1,0,0H888a.8.8,0,0,1-.8-.8v-1.54A.8.8,0,0,1,888,1246.52Z" transform="translate(-359.12 2137.06) rotate(-90)"></path><path class="cls-9" d="M881.84,1246.52h2.77a0,0,0,0,1,0,0v3.14a0,0,0,0,1,0,0h-2.77a.8.8,0,0,1-.8-.8v-1.54A.8.8,0,0,1,881.84,1246.52Z" transform="translate(-365.27 2130.91) rotate(-90)"></path><path class="cls-9" d="M875.69,1246.52h2.77a0,0,0,0,1,0,0v3.14a0,0,0,0,1,0,0h-2.77a.8.8,0,0,1-.8-.8v-1.54A.8.8,0,0,1,875.69,1246.52Z" transform="translate(-371.41 2124.77) rotate(-90)"></path><path class="cls-9" d="M869.55,1246.52h2.77a0,0,0,0,1,0,0v3.14a0,0,0,0,1,0,0h-2.77a.8.8,0,0,1-.8-.8v-1.54A.8.8,0,0,1,869.55,1246.52Z" transform="translate(-377.56 2118.62) rotate(-90)"></path><path class="cls-9" d="M861.75,1238.13h2.77a0,0,0,0,1,0,0v3.14a0,0,0,0,1,0,0h-2.77a.8.8,0,0,1-.8-.8v-1.54A.8.8,0,0,1,861.75,1238.13Z"></path><path class="cls-9" d="M861.75,1232h2.77a0,0,0,0,1,0,0v3.14a0,0,0,0,1,0,0h-2.77a.8.8,0,0,1-.8-.8v-1.54A.8.8,0,0,1,861.75,1232Z"></path><path class="cls-9" d="M861.75,1225.84h2.77a0,0,0,0,1,0,0V1229a0,0,0,0,1,0,0h-2.77a.8.8,0,0,1-.8-.8v-1.54A.8.8,0,0,1,861.75,1225.84Z"></path><path class="cls-9" d="M861.75,1219.69h2.77a0,0,0,0,1,0,0v3.14a0,0,0,0,1,0,0h-2.77a.8.8,0,0,1-.8-.8v-1.54A.8.8,0,0,1,861.75,1219.69Z"></path><path class="cls-9" d="M861.75,1213.54h2.77a0,0,0,0,1,0,0v3.14a0,0,0,0,1,0,0h-2.77a.8.8,0,0,1-.8-.8v-1.54A.8.8,0,0,1,861.75,1213.54Z"></path><path class="cls-9" d="M901.93,1213.54h2.77a0,0,0,0,1,0,0v3.14a0,0,0,0,1,0,0h-2.77a.8.8,0,0,1-.8-.8v-1.54A.8.8,0,0,1,901.93,1213.54Z" transform="translate(1805.83 2430.22) rotate(180)"></path><path class="cls-9" d="M901.93,1219.69h2.77a0,0,0,0,1,0,0v3.14a0,0,0,0,1,0,0h-2.77a.8.8,0,0,1-.8-.8v-1.54A.8.8,0,0,1,901.93,1219.69Z" transform="translate(1805.83 2442.52) rotate(180)"></path><path class="cls-9" d="M901.93,1225.84h2.77a0,0,0,0,1,0,0V1229a0,0,0,0,1,0,0h-2.77a.8.8,0,0,1-.8-.8v-1.54A.8.8,0,0,1,901.93,1225.84Z" transform="translate(1805.83 2454.81) rotate(180)"></path><path class="cls-9" d="M901.93,1232h2.77a0,0,0,0,1,0,0v3.14a0,0,0,0,1,0,0h-2.77a.8.8,0,0,1-.8-.8v-1.54A.8.8,0,0,1,901.93,1232Z" transform="translate(1805.83 2467.1) rotate(180)"></path><path class="cls-9" d="M901.93,1238.13h2.77a0,0,0,0,1,0,0v3.14a0,0,0,0,1,0,0h-2.77a.8.8,0,0,1-.8-.8v-1.54A.8.8,0,0,1,901.93,1238.13Z" transform="translate(1805.83 2479.4) rotate(180)"></path><rect class="cls-8" x="975.14" y="1228" width="26.92" height="27.8"></rect><path class="cls-9" d="M972.37,1252.67h2.77a0,0,0,0,1,0,0v3.14a0,0,0,0,1,0,0h-2.77a.8.8,0,0,1-.8-.8v-1.54A.8.8,0,0,1,972.37,1252.67Z"></path><path class="cls-9" d="M972.37,1246.52h2.77a0,0,0,0,1,0,0v3.14a0,0,0,0,1,0,0h-2.77a.8.8,0,0,1-.8-.8v-1.54A.8.8,0,0,1,972.37,1246.52Z"></path><path class="cls-9" d="M972.37,1240.37h2.77a0,0,0,0,1,0,0v3.14a0,0,0,0,1,0,0h-2.77a.8.8,0,0,1-.8-.8v-1.54A.8.8,0,0,1,972.37,1240.37Z"></path><path class="cls-9" d="M972.37,1234.23h2.77a0,0,0,0,1,0,0v3.14a0,0,0,0,1,0,0h-2.77a.8.8,0,0,1-.8-.8V1235A.8.8,0,0,1,972.37,1234.23Z"></path><path class="cls-9" d="M972.37,1228.08h2.77a0,0,0,0,1,0,0v3.14a0,0,0,0,1,0,0h-2.77a.8.8,0,0,1-.8-.8v-1.54A.8.8,0,0,1,972.37,1228.08Z"></path><path class="cls-9" d="M1002.86,1228.08h2.77a0,0,0,0,1,0,0v3.14a0,0,0,0,1,0,0h-2.77a.8.8,0,0,1-.8-.8v-1.54A.8.8,0,0,1,1002.86,1228.08Z" transform="translate(2007.68 2459.3) rotate(180)"></path><path class="cls-9" d="M1002.86,1234.23h2.77a0,0,0,0,1,0,0v3.14a0,0,0,0,1,0,0h-2.77a.8.8,0,0,1-.8-.8V1235A.8.8,0,0,1,1002.86,1234.23Z" transform="translate(2007.68 2471.59) rotate(180)"></path><path class="cls-9" d="M1002.86,1240.37h2.77a0,0,0,0,1,0,0v3.14a0,0,0,0,1,0,0h-2.77a.8.8,0,0,1-.8-.8v-1.54A.8.8,0,0,1,1002.86,1240.37Z" transform="translate(2007.68 2483.88) rotate(180)"></path><path class="cls-9" d="M1002.86,1246.52h2.77a0,0,0,0,1,0,0v3.14a0,0,0,0,1,0,0h-2.77a.8.8,0,0,1-.8-.8v-1.54A.8.8,0,0,1,1002.86,1246.52Z" transform="translate(2007.68 2496.18) rotate(180)"></path><path class="cls-9" d="M1002.86,1252.67h2.77a0,0,0,0,1,0,0v3.14a0,0,0,0,1,0,0h-2.77a.8.8,0,0,1-.8-.8v-1.54A.8.8,0,0,1,1002.86,1252.67Z" transform="translate(2007.68 2508.47) rotate(180)"></path><rect class="cls-8" x="1008.06" y="674.79" width="8.36" height="15.43" transform="translate(1694.75 -329.73) rotate(90)"></rect><path class="cls-9" d="M1005.11,675h2.77a0,0,0,0,1,0,0v3.14a0,0,0,0,1,0,0h-2.77a.8.8,0,0,1-.8-.8v-1.54A.8.8,0,0,1,1005.11,675Z" transform="translate(1682.64 -329.55) rotate(90)"></path><path class="cls-9" d="M1011.26,675H1014a0,0,0,0,1,0,0v3.14a0,0,0,0,1,0,0h-2.77a.8.8,0,0,1-.8-.8v-1.54A.8.8,0,0,1,1011.26,675Z" transform="translate(1688.79 -335.7) rotate(90)"></path><path class="cls-9" d="M1017.4,675h2.77a0,0,0,0,1,0,0v3.14a0,0,0,0,1,0,0h-2.77a.8.8,0,0,1-.8-.8v-1.54A.8.8,0,0,1,1017.4,675Z" transform="translate(1694.93 -341.84) rotate(90)"></path><path class="cls-9" d="M1017.4,686.9h2.77a0,0,0,0,1,0,0V690a0,0,0,0,1,0,0h-2.77a.8.8,0,0,1-.8-.8V687.7A.8.8,0,0,1,1017.4,686.9Z" transform="translate(329.92 1706.86) rotate(-90)"></path><path class="cls-9" d="M1011.26,686.9H1014a0,0,0,0,1,0,0V690a0,0,0,0,1,0,0h-2.77a.8.8,0,0,1-.8-.8V687.7A.8.8,0,0,1,1011.26,686.9Z" transform="translate(323.77 1700.71) rotate(-90)"></path><path class="cls-9" d="M1005.11,686.9h2.77a0,0,0,0,1,0,0V690a0,0,0,0,1,0,0h-2.77a.8.8,0,0,1-.8-.8V687.7A.8.8,0,0,1,1005.11,686.9Z" transform="translate(317.62 1694.57) rotate(-90)"></path><rect class="cls-8" x="1082.84" y="963.01" width="38.3" height="27.8" transform="translate(2078.91 -125.08) rotate(90)"></rect><path class="cls-9" d="M1088.68,954.41h2.77a0,0,0,0,1,0,0v3.14a0,0,0,0,1,0,0h-2.77a.8.8,0,0,1-.8-.8v-1.54A.8.8,0,0,1,1088.68,954.41Z" transform="translate(2045.64 -133.68) rotate(90)"></path><path class="cls-9" d="M1094.82,954.41h2.77a0,0,0,0,1,0,0v3.14a0,0,0,0,1,0,0h-2.77a.8.8,0,0,1-.8-.8v-1.54A.8.8,0,0,1,1094.82,954.41Z" transform="translate(2051.79 -139.83) rotate(90)"></path><path class="cls-9" d="M1101,954.41h2.77a0,0,0,0,1,0,0v3.14a0,0,0,0,1,0,0H1101a.8.8,0,0,1-.8-.8v-1.54A.8.8,0,0,1,1101,954.41Z" transform="translate(2057.93 -145.97) rotate(90)"></path><path class="cls-9" d="M1107.12,954.41h2.77a0,0,0,0,1,0,0v3.14a0,0,0,0,1,0,0h-2.77a.8.8,0,0,1-.8-.8v-1.54a.8.8,0,0,1,.8-.8Z" transform="translate(2064.08 -152.12) rotate(90)"></path><path class="cls-9" d="M1113.26,954.41H1116a0,0,0,0,1,0,0v3.14a0,0,0,0,1,0,0h-2.77a.8.8,0,0,1-.8-.8v-1.54A.8.8,0,0,1,1113.26,954.41Z" transform="translate(2070.23 -158.27) rotate(90)"></path><path class="cls-9" d="M1113.26,996.28H1116a0,0,0,0,1,0,0v3.14a0,0,0,0,1,0,0h-2.77a.8.8,0,0,1-.8-.8v-1.54a.8.8,0,0,1,.8-.8Z" transform="translate(116.4 2112.09) rotate(-90)"></path><path class="cls-9" d="M1107.12,996.28h2.77a0,0,0,0,1,0,0v3.14a0,0,0,0,1,0,0h-2.77a.8.8,0,0,1-.8-.8v-1.54a.8.8,0,0,1,.8-.8Z" transform="translate(110.25 2105.95) rotate(-90)"></path><path class="cls-9" d="M1101,996.28h2.77a0,0,0,0,1,0,0v3.14a0,0,0,0,1,0,0H1101a.8.8,0,0,1-.8-.8v-1.54A.8.8,0,0,1,1101,996.28Z" transform="translate(104.11 2099.8) rotate(-90)"></path><path class="cls-9" d="M1094.82,996.28h2.77a0,0,0,0,1,0,0v3.14a0,0,0,0,1,0,0h-2.77a.8.8,0,0,1-.8-.8v-1.54a.8.8,0,0,1,.8-.8Z" transform="translate(97.96 2093.65) rotate(-90)"></path><path class="cls-9" d="M1088.68,996.28h2.77a0,0,0,0,1,0,0v3.14a0,0,0,0,1,0,0h-2.77a.8.8,0,0,1-.8-.8v-1.54A.8.8,0,0,1,1088.68,996.28Z" transform="translate(91.81 2087.51) rotate(-90)"></path><circle class="cls-9" cx="1095.77" cy="760.28" r="7.21"></circle><circle class="cls-9" cx="1160.95" cy="772.44" r="7.21"></circle><circle class="cls-9" cx="1095.77" cy="786.26" r="7.21"></circle><rect class="cls-9" x="915.02" y="690.37" width="31.62" height="36.89" rx="4.85"></rect><rect class="cls-18" x="915.02" y="690.37" width="31.62" height="36.89" rx="4.85"></rect><rect class="cls-19" x="907.84" y="693.84" width="5.44" height="3.7" rx="1.85"></rect><rect class="cls-19" x="948.18" y="705.84" width="5.44" height="3.7" rx="1.85"></rect><rect class="cls-19" x="907.84" y="703.04" width="5.44" height="3.7" rx="1.85"></rect><rect class="cls-19" x="931.68" y="683.74" width="5.44" height="3.7" rx="1.85" transform="translate(1619.98 -248.81) rotate(90)"></rect><rect class="cls-19" x="922.47" y="683.74" width="5.44" height="3.7" rx="1.85" transform="translate(1610.78 -239.6) rotate(90)"></rect><rect class="cls-19" x="907.84" y="712.24" width="5.44" height="3.7" rx="1.85"></rect><rect class="cls-19" x="907.84" y="721.45" width="5.44" height="3.7" rx="1.85"></rect><circle class="cls-19" cx="930.83" cy="708.82" r="11.92"></circle><circle class="cls-20" cx="930.83" cy="708.82" r="3.57"></circle><rect class="cls-9" x="915.02" y="759.7" width="31.62" height="36.89" rx="4.85"></rect><rect class="cls-18" x="915.02" y="759.7" width="31.62" height="36.89" rx="4.85"></rect><rect class="cls-19" x="907.84" y="763.16" width="5.44" height="3.7" rx="1.85"></rect><rect class="cls-19" x="948.18" y="775.16" width="5.44" height="3.7" rx="1.85"></rect><rect class="cls-19" x="907.84" y="772.36" width="5.44" height="3.7" rx="1.85"></rect><rect class="cls-19" x="931.68" y="753.06" width="5.44" height="3.7" rx="1.85" transform="translate(1689.31 -179.48) rotate(90)"></rect><rect class="cls-19" x="922.47" y="753.06" width="5.44" height="3.7" rx="1.85" transform="translate(1680.1 -170.28) rotate(90)"></rect><rect class="cls-19" x="907.84" y="781.57" width="5.44" height="3.7" rx="1.85"></rect><rect class="cls-19" x="907.84" y="790.77" width="5.44" height="3.7" rx="1.85"></rect><circle class="cls-19" cx="930.83" cy="778.14" r="11.92"></circle><circle class="cls-20" cx="930.83" cy="778.14" r="3.57"></circle><rect class="cls-21" x="1238" y="654.8" width="18.15" height="34.48"></rect><path class="cls-9" d="M1240,648.27h14.24a2,2,0,0,1,2,2v2.57a0,0,0,0,1,0,0H1238a0,0,0,0,1,0,0v-2.57A2,2,0,0,1,1240,648.27Z"></path><path class="cls-9" d="M1240,690.17h14.24a2,2,0,0,1,2,2v2.57a0,0,0,0,1,0,0H1238a0,0,0,0,1,0,0v-2.57A2,2,0,0,1,1240,690.17Z" transform="translate(2494.14 1384.88) rotate(180)"></path><rect class="cls-21" x="948.99" y="529.81" width="18.15" height="34.48" transform="translate(1505.11 -411.02) rotate(90)"></rect><path class="cls-9" d="M972.45,544.78h14.24a2,2,0,0,1,2,2v2.57a0,0,0,0,1,0,0H970.49a0,0,0,0,1,0,0v-2.57A2,2,0,0,1,972.45,544.78Z" transform="translate(1526.61 -432.52) rotate(90)"></path><path class="cls-9" d="M930.55,544.78h14.24a2,2,0,0,1,2,2v2.57a0,0,0,0,1,0,0H928.59a0,0,0,0,1,0,0v-2.57A2,2,0,0,1,930.55,544.78Z" transform="translate(390.62 1484.71) rotate(-90)"></path><rect class="cls-22" x="1155.4" y="707.75" width="9.4" height="4.96" transform="translate(1870.33 -449.87) rotate(90)"></rect><path class="cls-9" d="M1159.52,701.26h1.6a0,0,0,0,1,0,0v5a0,0,0,0,1,0,0h-1.6a.44.44,0,0,1-.44-.44V701.7A.44.44,0,0,1,1159.52,701.26Z" transform="translate(1863.84 -456.36) rotate(90)"></path><path class="cls-9" d="M1159.52,714.1h1.6a0,0,0,0,1,0,0v5a0,0,0,0,1,0,0h-1.6a.44.44,0,0,1-.44-.44v-4.08A.44.44,0,0,1,1159.52,714.1Z" transform="translate(443.52 1876.68) rotate(-90)"></path><rect class="cls-22" x="1194.15" y="707.75" width="9.4" height="4.96" transform="translate(1909.09 -488.62) rotate(90)"></rect><path class="cls-9" d="M1198.27,701.26h1.6a0,0,0,0,1,0,0v5a0,0,0,0,1,0,0h-1.6a.44.44,0,0,1-.44-.44V701.7A.44.44,0,0,1,1198.27,701.26Z" transform="translate(1902.6 -495.12) rotate(90)"></path><path class="cls-9" d="M1198.27,714.1h1.6a0,0,0,0,1,0,0v5a0,0,0,0,1,0,0h-1.6a.44.44,0,0,1-.44-.44v-4.08A.44.44,0,0,1,1198.27,714.1Z" transform="translate(482.28 1915.43) rotate(-90)"></path><rect class="cls-10" x="1192.46" y="698.02" width="13.43" height="25.47" rx="3.03"></rect><rect class="cls-22" x="1089.22" y="935.82" width="9.4" height="4.96" transform="translate(2032.21 -155.62) rotate(90)"></rect><path class="cls-9" d="M1093.34,929.32h1.6a0,0,0,0,1,0,0v5a0,0,0,0,1,0,0h-1.6a.44.44,0,0,1-.44-.44v-4.08A.44.44,0,0,1,1093.34,929.32Z" transform="translate(2025.72 -162.11) rotate(90)"></path><path class="cls-9" d="M1093.34,942.16h1.6a0,0,0,0,1,0,0v5a0,0,0,0,1,0,0h-1.6a.44.44,0,0,1-.44-.44V942.6A.44.44,0,0,1,1093.34,942.16Z" transform="translate(149.28 2038.56) rotate(-90)"></path><rect class="cls-10" x="1087.52" y="926.09" width="13.43" height="25.47" rx="3.03"></rect><rect class="cls-22" x="1007.54" y="634.99" width="9.4" height="4.96" transform="translate(1649.71 -374.77) rotate(90)"></rect><path class="cls-9" d="M1011.66,628.5h1.6a0,0,0,0,1,0,0v5a0,0,0,0,1,0,0h-1.6a.44.44,0,0,1-.44-.44v-4.08A.44.44,0,0,1,1011.66,628.5Z" transform="translate(1643.22 -381.27) rotate(90)"></path><path class="cls-9" d="M1011.66,641.33h1.6a0,0,0,0,1,0,0v5a0,0,0,0,1,0,0h-1.6a.44.44,0,0,1-.44-.44v-4.08A.44.44,0,0,1,1011.66,641.33Z" transform="translate(368.43 1656.05) rotate(-90)"></path><rect class="cls-22" x="1007.54" y="601.22" width="9.4" height="4.96" transform="translate(1615.94 -408.55) rotate(90)"></rect><path class="cls-9" d="M1011.66,594.73h1.6a0,0,0,0,1,0,0v5a0,0,0,0,1,0,0h-1.6a.44.44,0,0,1-.44-.44v-4.08A.44.44,0,0,1,1011.66,594.73Z" transform="translate(1609.45 -415.04) rotate(90)"></path><path class="cls-9" d="M1011.66,607.56h1.6a0,0,0,0,1,0,0v5a0,0,0,0,1,0,0h-1.6a.44.44,0,0,1-.44-.44V608A.44.44,0,0,1,1011.66,607.56Z" transform="translate(402.2 1622.28) rotate(-90)"></path><rect class="cls-22" x="1001.05" y="618.72" width="9.4" height="4.96" transform="translate(2011.5 1242.39) rotate(180)"></rect><path class="cls-9" d="M1011.66,618.72h1.6a0,0,0,0,1,0,0v5a0,0,0,0,1,0,0h-1.6a.44.44,0,0,1-.44-.44v-4.08A.44.44,0,0,1,1011.66,618.72Z" transform="translate(2024.48 1242.39) rotate(180)"></path><path class="cls-9" d="M998.82,618.72h1.6a0,0,0,0,1,0,0v5a0,0,0,0,1,0,0h-1.6a.44.44,0,0,1-.44-.44v-4.08A.44.44,0,0,1,998.82,618.72Z"></path><rect class="cls-22" x="1110.24" y="821.66" width="9.4" height="4.96" transform="translate(1939.08 -290.8) rotate(90)"></rect><path class="cls-9" d="M1114.36,815.17h1.6a0,0,0,0,1,0,0v5a0,0,0,0,1,0,0h-1.6a.44.44,0,0,1-.44-.44v-4.08A.44.44,0,0,1,1114.36,815.17Z" transform="translate(1932.59 -297.29) rotate(90)"></path><path class="cls-9" d="M1114.36,828h1.6a0,0,0,0,1,0,0v5a0,0,0,0,1,0,0h-1.6a.44.44,0,0,1-.44-.44v-4.08A.44.44,0,0,1,1114.36,828Z" transform="translate(284.45 1945.43) rotate(-90)"></path><rect class="cls-10" x="1108.54" y="811.93" width="13.43" height="25.47" rx="3.03"></rect><rect class="cls-22" x="1013.58" y="834.6" width="9.4" height="4.96" transform="translate(2036.56 1674.16) rotate(180)"></rect><path class="cls-9" d="M1024.19,834.6h1.6a0,0,0,0,1,0,0v5a0,0,0,0,1,0,0h-1.6a.44.44,0,0,1-.44-.44V835A.44.44,0,0,1,1024.19,834.6Z" transform="translate(2049.54 1674.16) rotate(180)"></path><path class="cls-9" d="M1011.35,834.6h1.6a0,0,0,0,1,0,0v5a0,0,0,0,1,0,0h-1.6a.44.44,0,0,1-.44-.44V835A.44.44,0,0,1,1011.35,834.6Z"></path><rect class="cls-10" x="1011.04" y="824.67" width="13.43" height="25.47" rx="3.03" transform="translate(1855.15 -180.35) rotate(90)"></rect><rect class="cls-22" x="974.37" y="1209.13" width="15.12" height="7.97" transform="translate(1963.86 2426.22) rotate(180)"></rect><path class="cls-9" d="M991.43,1209.13H994a0,0,0,0,1,0,0v8a0,0,0,0,1,0,0h-2.58a.71.71,0,0,1-.71-.71v-6.56A.71.71,0,0,1,991.43,1209.13Z" transform="translate(1984.74 2426.22) rotate(180)"></path><path class="cls-9" d="M970.79,1209.13h2.58a0,0,0,0,1,0,0v8a0,0,0,0,1,0,0h-2.58a.71.71,0,0,1-.71-.71v-6.56A.71.71,0,0,1,970.79,1209.13Z"></path><rect class="cls-23" x="972.19" y="1196.38" width="18.1" height="34.32" rx="4.08" transform="translate(2194.79 232.3) rotate(90)"></rect><rect class="cls-22" x="974.37" y="1187.35" width="15.12" height="7.97" transform="translate(1963.86 2382.68) rotate(180)"></rect><path class="cls-9" d="M991.43,1187.35H994a0,0,0,0,1,0,0v8a0,0,0,0,1,0,0h-2.58a.71.71,0,0,1-.71-.71v-6.56A.71.71,0,0,1,991.43,1187.35Z" transform="translate(1984.74 2382.68) rotate(180)"></path><path class="cls-9" d="M970.79,1187.35h2.58a0,0,0,0,1,0,0v8a0,0,0,0,1,0,0h-2.58a.71.71,0,0,1-.71-.71v-6.56A.71.71,0,0,1,970.79,1187.35Z"></path><rect class="cls-23" x="972.19" y="1174.61" width="18.1" height="34.32" rx="4.08" transform="translate(2173.01 210.53) rotate(90)"></rect><rect class="cls-22" x="934.3" y="1135.34" width="15.12" height="7.97" transform="translate(1883.73 2278.65) rotate(180)"></rect><path class="cls-9" d="M951.37,1135.34h2.58a0,0,0,0,1,0,0v8a0,0,0,0,1,0,0h-2.58a.71.71,0,0,1-.71-.71V1136A.71.71,0,0,1,951.37,1135.34Z" transform="translate(1904.61 2278.65) rotate(180)"></path><path class="cls-9" d="M930.73,1135.34h2.58a0,0,0,0,1,0,0v8a0,0,0,0,1,0,0h-2.58a.71.71,0,0,1-.71-.71V1136A.71.71,0,0,1,930.73,1135.34Z"></path><rect class="cls-23" x="932.13" y="1122.59" width="18.1" height="34.32" rx="4.08" transform="translate(2080.93 198.58) rotate(90)"></rect><rect class="cls-22" x="968.27" y="1120.74" width="15.12" height="7.97" transform="translate(1951.65 2249.46) rotate(180)"></rect><path class="cls-9" d="M985.33,1120.74h2.58a0,0,0,0,1,0,0v8a0,0,0,0,1,0,0h-2.58a.71.71,0,0,1-.71-.71v-6.56A.71.71,0,0,1,985.33,1120.74Z" transform="translate(1972.53 2249.46) rotate(180)"></path><path class="cls-9" d="M964.69,1120.74h2.58a0,0,0,0,1,0,0v8a0,0,0,0,1,0,0h-2.58a.71.71,0,0,1-.71-.71v-6.56A.71.71,0,0,1,964.69,1120.74Z"></path><rect class="cls-23" x="966.09" y="1108" width="18.1" height="34.32" rx="4.08" transform="translate(2100.3 150.02) rotate(90)"></rect><rect class="cls-22" x="763.37" y="1388.74" width="15.12" height="7.97" transform="translate(-621.8 2163.66) rotate(-90)"></rect><path class="cls-9" d="M770,1399.18h2.58a0,0,0,0,1,0,0v8a0,0,0,0,1,0,0H770a.71.71,0,0,1-.71-.71v-6.56A.71.71,0,0,1,770,1399.18Z" transform="translate(-632.23 2174.1) rotate(-90)"></path><path class="cls-9" d="M770,1378.54h2.58a0,0,0,0,1,0,0v8a0,0,0,0,1,0,0H770a.71.71,0,0,1-.71-.71v-6.56A.71.71,0,0,1,770,1378.54Z" transform="translate(2153.46 611.59) rotate(90)"></path><rect class="cls-23" x="761.45" y="1374.88" width="18.1" height="34.32" rx="4.08" transform="translate(1541 2784.08) rotate(180)"></rect><rect class="cls-22" x="745.27" y="1388.74" width="15.12" height="7.97" transform="translate(-639.9 2145.56) rotate(-90)"></rect><path class="cls-9" d="M751.9,1399.18h2.58a0,0,0,0,1,0,0v8a0,0,0,0,1,0,0H751.9a.71.71,0,0,1-.71-.71v-6.56A.71.71,0,0,1,751.9,1399.18Z" transform="translate(-650.33 2156) rotate(-90)"></path><path class="cls-9" d="M751.9,1378.54h2.58a0,0,0,0,1,0,0v8a0,0,0,0,1,0,0H751.9a.71.71,0,0,1-.71-.71v-6.56A.71.71,0,0,1,751.9,1378.54Z" transform="translate(2135.36 629.69) rotate(90)"></path><rect class="cls-23" x="743.35" y="1374.88" width="18.1" height="34.32" rx="4.08" transform="translate(1504.81 2784.08) rotate(180)"></rect><rect class="cls-22" x="885.79" y="1135.34" width="15.12" height="7.97" transform="translate(1786.7 2278.65) rotate(180)"></rect><path class="cls-9" d="M902.85,1135.34h2.58a0,0,0,0,1,0,0v8a0,0,0,0,1,0,0h-2.58a.71.71,0,0,1-.71-.71V1136A.71.71,0,0,1,902.85,1135.34Z" transform="translate(1807.57 2278.65) rotate(180)"></path><path class="cls-9" d="M882.21,1135.34h2.58a0,0,0,0,1,0,0v8a0,0,0,0,1,0,0h-2.58a.71.71,0,0,1-.71-.71V1136A.71.71,0,0,1,882.21,1135.34Z"></path><rect class="cls-23" x="883.61" y="1122.59" width="18.1" height="34.32" rx="4.08" transform="translate(2032.41 247.09) rotate(90)"></rect><rect class="cls-22" x="1012.35" y="1209.13" width="15.12" height="7.97" transform="translate(2039.82 2426.22) rotate(180)"></rect><path class="cls-9" d="M1029.41,1209.13H1032a0,0,0,0,1,0,0v8a0,0,0,0,1,0,0h-2.58a.71.71,0,0,1-.71-.71v-6.56A.71.71,0,0,1,1029.41,1209.13Z" transform="translate(2060.69 2426.22) rotate(180)"></path><path class="cls-9" d="M1008.77,1209.13h2.58a0,0,0,0,1,0,0v8a0,0,0,0,1,0,0h-2.58a.71.71,0,0,1-.71-.71v-6.56A.71.71,0,0,1,1008.77,1209.13Z"></path><rect class="cls-23" x="1010.17" y="1196.38" width="18.1" height="34.32" rx="4.08" transform="translate(2232.76 194.32) rotate(90)"></rect><rect class="cls-22" x="1012.35" y="1187.35" width="15.12" height="7.97" transform="translate(2039.82 2382.68) rotate(180)"></rect><path class="cls-9" d="M1029.41,1187.35H1032a0,0,0,0,1,0,0v8a0,0,0,0,1,0,0h-2.58a.71.71,0,0,1-.71-.71v-6.56A.71.71,0,0,1,1029.41,1187.35Z" transform="translate(2060.69 2382.68) rotate(180)"></path><path class="cls-9" d="M1008.77,1187.35h2.58a0,0,0,0,1,0,0v8a0,0,0,0,1,0,0h-2.58a.71.71,0,0,1-.71-.71v-6.56A.71.71,0,0,1,1008.77,1187.35Z"></path><rect class="cls-23" x="1010.17" y="1174.61" width="18.1" height="34.32" rx="4.08" transform="translate(2210.99 172.55) rotate(90)"></rect><rect class="cls-10" x="1153.39" y="698.02" width="13.43" height="25.47" rx="3.03"></rect><rect class="cls-22" x="1109.79" y="737.79" width="9.4" height="4.96" transform="translate(2228.99 1480.54) rotate(180)"></rect><path class="cls-9" d="M1120.4,737.79h1.6a0,0,0,0,1,0,0v5a0,0,0,0,1,0,0h-1.6a.44.44,0,0,1-.44-.44v-4.08A.44.44,0,0,1,1120.4,737.79Z" transform="translate(2241.97 1480.54) rotate(180)"></path><path class="cls-9" d="M1107.57,737.79h1.6a0,0,0,0,1,0,0v5a0,0,0,0,1,0,0h-1.6a.44.44,0,0,1-.44-.44v-4.08A.44.44,0,0,1,1107.57,737.79Z"></path><rect class="cls-10" x="1107.26" y="727.53" width="13.43" height="25.47" rx="3.03" transform="translate(1854.24 -373.7) rotate(90)"></rect><rect class="cls-22" x="1162.64" y="742.02" width="9.4" height="4.96" transform="translate(2334.68 1489.01) rotate(180)"></rect><path class="cls-9" d="M1173.25,742h1.6a0,0,0,0,1,0,0v5a0,0,0,0,1,0,0h-1.6a.44.44,0,0,1-.44-.44v-4.08A.44.44,0,0,1,1173.25,742Z" transform="translate(2347.67 1489.01) rotate(180)"></path><path class="cls-9" d="M1160.41,742h1.6a0,0,0,0,1,0,0v5a0,0,0,0,1,0,0h-1.6a.44.44,0,0,1-.44-.44v-4.08A.44.44,0,0,1,1160.41,742Z"></path><rect class="cls-10" x="1160.1" y="731.77" width="13.43" height="25.47" rx="3.03" transform="translate(1911.32 -422.31) rotate(90)"></rect><rect class="cls-10" x="1153.39" y="787.45" width="13.43" height="25.47" transform="translate(1960.29 -359.92) rotate(90)"></rect><rect class="cls-21" x="1174.56" y="714.31" width="9.4" height="4.96"></rect><path class="cls-9" d="M1172.19,714.31h1.6a0,0,0,0,1,0,0v5a0,0,0,0,1,0,0h-1.6a.44.44,0,0,1-.44-.44v-4.08A.44.44,0,0,1,1172.19,714.31Z"></path><path class="cls-9" d="M1185,714.31h1.6a0,0,0,0,1,0,0v5a0,0,0,0,1,0,0H1185a.44.44,0,0,1-.44-.44v-4.08A.44.44,0,0,1,1185,714.31Z" transform="translate(2371.22 1433.58) rotate(180)"></path><rect class="cls-10" x="1172.92" y="704.06" width="13.43" height="25.47" rx="3.03" transform="translate(1896.43 -462.85) rotate(90)"></rect><rect class="cls-22" x="948.96" y="594.24" width="9.4" height="4.96" transform="translate(356.94 1550.37) rotate(-90)"></rect><path class="cls-9" d="M953.08,600.73h1.6a0,0,0,0,1,0,0v5a0,0,0,0,1,0,0h-1.6a.44.44,0,0,1-.44-.44v-4.08A.44.44,0,0,1,953.08,600.73Z" transform="translate(350.45 1556.86) rotate(-90)"></path><path class="cls-9" d="M953.08,587.89h1.6a0,0,0,0,1,0,0v5a0,0,0,0,1,0,0h-1.6a.44.44,0,0,1-.44-.44v-4.08A.44.44,0,0,1,953.08,587.89Z" transform="translate(1544.03 -363.29) rotate(90)"></path><rect class="cls-22" x="910.2" y="594.24" width="9.4" height="4.96" transform="translate(318.19 1511.62) rotate(-90)"></rect><path class="cls-9" d="M914.32,600.73h1.6a0,0,0,0,1,0,0v5a0,0,0,0,1,0,0h-1.6a.44.44,0,0,1-.44-.44v-4.08A.44.44,0,0,1,914.32,600.73Z" transform="translate(311.7 1518.11) rotate(-90)"></path><path class="cls-9" d="M914.32,587.89h1.6a0,0,0,0,1,0,0v5a0,0,0,0,1,0,0h-1.6a.44.44,0,0,1-.44-.44v-4.08A.44.44,0,0,1,914.32,587.89Z" transform="translate(1505.27 -324.53) rotate(90)"></path><rect class="cls-10" x="907.87" y="583.46" width="13.43" height="25.47" rx="3.03" transform="translate(1829.17 1192.38) rotate(180)"></rect><rect class="cls-10" x="946.94" y="583.46" width="13.43" height="25.47" rx="3.03" transform="translate(1907.32 1192.38) rotate(180)"></rect><rect class="cls-21" x="929.79" y="587.68" width="9.4" height="4.96" transform="translate(1868.99 1180.31) rotate(180)"></rect><path class="cls-9" d="M940.4,587.68H942a0,0,0,0,1,0,0v5a0,0,0,0,1,0,0h-1.6a.44.44,0,0,1-.44-.44v-4.08A.44.44,0,0,1,940.4,587.68Z" transform="translate(1881.97 1180.31) rotate(180)"></path><path class="cls-9" d="M927.57,587.68h1.6a0,0,0,0,1,0,0v5a0,0,0,0,1,0,0h-1.6a.44.44,0,0,1-.44-.44v-4.08A.44.44,0,0,1,927.57,587.68Z"></path><rect class="cls-10" x="927.41" y="577.42" width="13.43" height="25.47" rx="3.03" transform="translate(343.97 1524.28) rotate(-90)"></rect><rect class="cls-22" x="887.67" y="683.25" width="9.4" height="4.96" transform="translate(1784.75 1371.46) rotate(180)"></rect><path class="cls-9" d="M898.28,683.25h1.6a0,0,0,0,1,0,0v5a0,0,0,0,1,0,0h-1.6a.44.44,0,0,1-.44-.44v-4.08A.44.44,0,0,1,898.28,683.25Z" transform="translate(1797.73 1371.46) rotate(180)"></path><path class="cls-9" d="M885.45,683.25h1.6a0,0,0,0,1,0,0v5a0,0,0,0,1,0,0h-1.6a.44.44,0,0,1-.44-.44v-4.08A.44.44,0,0,1,885.45,683.25Z"></path><rect class="cls-10" x="885.13" y="673.31" width="13.43" height="25.47" rx="3.03" transform="translate(1577.9 -205.8) rotate(90)"></rect><rect class="cls-22" x="985.09" y="677.25" width="9.4" height="4.96" transform="translate(310.06 1669.52) rotate(-90)"></rect><path class="cls-9" d="M989.21,683.74h1.6a0,0,0,0,1,0,0v5a0,0,0,0,1,0,0h-1.6a.44.44,0,0,1-.44-.44v-4.08A.44.44,0,0,1,989.21,683.74Z" transform="translate(303.57 1676.01) rotate(-90)"></path><path class="cls-9" d="M989.21,670.91h1.6a0,0,0,0,1,0,0v5a0,0,0,0,1,0,0h-1.6a.44.44,0,0,1-.44-.44v-4.08A.44.44,0,0,1,989.21,670.91Z" transform="translate(1663.17 -316.4) rotate(90)"></path><rect class="cls-10" x="982.75" y="666.47" width="13.43" height="25.47" rx="3.03" transform="translate(1978.94 1358.41) rotate(180)"></rect><rect class="cls-22" x="1242.69" y="619.24" width="9.4" height="4.96" transform="translate(625.67 1869.11) rotate(-90)"></rect><path class="cls-9" d="M1246.81,625.73h1.6a0,0,0,0,1,0,0v5a0,0,0,0,1,0,0h-1.6a.44.44,0,0,1-.44-.44v-4.08A.44.44,0,0,1,1246.81,625.73Z" transform="translate(619.18 1875.6) rotate(-90)"></path><path class="cls-9" d="M1246.81,612.9h1.6a0,0,0,0,1,0,0v5a0,0,0,0,1,0,0h-1.6a.44.44,0,0,1-.44-.44v-4.08A.44.44,0,0,1,1246.81,612.9Z" transform="translate(1862.77 -632.01) rotate(90)"></path><rect class="cls-10" x="1240.35" y="608.46" width="13.43" height="25.47" rx="3.03" transform="translate(2494.14 1242.39) rotate(180)"></rect><rect class="cls-22" x="990.96" y="697.32" width="9.4" height="4.96"></rect><path class="cls-9" d="M988.58,697.32h1.6a0,0,0,0,1,0,0v5a0,0,0,0,1,0,0h-1.6a.44.44,0,0,1-.44-.44v-4.08A.44.44,0,0,1,988.58,697.32Z"></path><path class="cls-9" d="M1001.42,697.32h1.6a0,0,0,0,1,0,0v5a0,0,0,0,1,0,0h-1.6a.44.44,0,0,1-.44-.44v-4.08A.44.44,0,0,1,1001.42,697.32Z" transform="translate(2004.01 1399.59) rotate(180)"></path><rect class="cls-10" x="989.47" y="686.74" width="13.43" height="25.47" rx="3.03" transform="translate(296.71 1695.66) rotate(-90)"></rect><rect class="cls-22" x="1069.15" y="1260.74" width="21.28" height="14.46"></rect><path class="cls-9" d="M1063.92,1260.74h3.5a0,0,0,0,1,0,0v14.46a0,0,0,0,1,0,0h-3.5a1.13,1.13,0,0,1-1.13-1.13v-12.2A1.13,1.13,0,0,1,1063.92,1260.74Z"></path><path class="cls-9" d="M1093,1260.74h3.5a0,0,0,0,1,0,0v14.46a0,0,0,0,1,0,0H1093a1.13,1.13,0,0,1-1.13-1.13v-12.2A1.13,1.13,0,0,1,1093,1260.74Z" transform="translate(2188.29 2535.94) rotate(180)"></path><rect class="cls-10" x="1066.16" y="1246.5" width="24.34" height="42.95" rx="3.03" transform="translate(-189.65 2346.3) rotate(-90)"></rect><rect class="cls-22" x="924.02" y="1242.64" width="21.28" height="14.46"></rect><path class="cls-9" d="M918.79,1242.64h3.5a0,0,0,0,1,0,0v14.46a0,0,0,0,1,0,0h-3.5a1.13,1.13,0,0,1-1.13-1.13v-12.2A1.13,1.13,0,0,1,918.79,1242.64Z"></path><path class="cls-9" d="M947.83,1242.64h3.5a0,0,0,0,1,0,0v14.46a0,0,0,0,1,0,0h-3.5a1.13,1.13,0,0,1-1.13-1.13v-12.2A1.13,1.13,0,0,1,947.83,1242.64Z" transform="translate(1898.03 2499.75) rotate(180)"></path><rect class="cls-10" x="921.03" y="1228.4" width="24.34" height="42.95" rx="3.03" transform="translate(-316.68 2183.07) rotate(-90)"></rect><rect class="cls-8" x="925.96" y="1282.04" width="23.94" height="14.19"></rect><path class="cls-9" d="M920,1282h4a0,0,0,0,1,0,0v14.19a0,0,0,0,1,0,0h-4a1.19,1.19,0,0,1-1.19-1.19v-11.82A1.19,1.19,0,0,1,920,1282Z"></path><path class="cls-9" d="M952.67,1282h4a0,0,0,0,1,0,0v14.19a0,0,0,0,1,0,0h-4a1.19,1.19,0,0,1-1.19-1.19v-11.82A1.19,1.19,0,0,1,952.67,1282Z" transform="translate(1908.18 2578.28) rotate(180)"></path><rect class="cls-24" x="924.34" y="1264.98" width="23.88" height="48.33" rx="3.18" transform="translate(-352.85 2225.43) rotate(-90)"></rect><rect class="cls-22" x="924.02" y="1215.6" width="21.28" height="14.46"></rect><path class="cls-9" d="M918.79,1215.6h3.5a0,0,0,0,1,0,0v14.46a0,0,0,0,1,0,0h-3.5a1.13,1.13,0,0,1-1.13-1.13v-12.2A1.13,1.13,0,0,1,918.79,1215.6Z"></path><path class="cls-9" d="M947.83,1215.6h3.5a0,0,0,0,1,0,0v14.46a0,0,0,0,1,0,0h-3.5a1.13,1.13,0,0,1-1.13-1.13v-12.2A1.13,1.13,0,0,1,947.83,1215.6Z" transform="translate(1898.03 2445.65) rotate(180)"></path><rect class="cls-10" x="921.03" y="1201.35" width="24.34" height="42.95" rx="3.03" transform="translate(-289.63 2156.02) rotate(-90)"></rect><rect class="cls-22" x="924.02" y="1188.55" width="21.28" height="14.46"></rect><path class="cls-9" d="M918.79,1188.55h3.5a0,0,0,0,1,0,0V1203a0,0,0,0,1,0,0h-3.5a1.13,1.13,0,0,1-1.13-1.13v-12.2A1.13,1.13,0,0,1,918.79,1188.55Z"></path><path class="cls-9" d="M947.83,1188.55h3.5a0,0,0,0,1,0,0V1203a0,0,0,0,1,0,0h-3.5a1.13,1.13,0,0,1-1.13-1.13v-12.2A1.13,1.13,0,0,1,947.83,1188.55Z" transform="translate(1898.03 2391.56) rotate(180)"></path><rect class="cls-10" x="921.03" y="1174.31" width="24.34" height="42.95" rx="3.03" transform="translate(-262.58 2128.98) rotate(-90)"></rect><rect class="cls-22" x="834" y="1200.36" width="21.28" height="14.46" transform="translate(2052.22 362.95) rotate(90)"></rect><path class="cls-9" d="M843.45,1185.67h3.5a0,0,0,0,1,0,0v14.46a0,0,0,0,1,0,0h-3.5a1.13,1.13,0,0,1-1.13-1.13v-12.2A1.13,1.13,0,0,1,843.45,1185.67Z" transform="translate(2037.54 348.27) rotate(90)"></path><path class="cls-9" d="M843.45,1214.71h3.5a0,0,0,0,1,0,0v14.46a0,0,0,0,1,0,0h-3.5a1.13,1.13,0,0,1-1.13-1.13v-12.2A1.13,1.13,0,0,1,843.45,1214.71Z" transform="translate(-377.31 2066.58) rotate(-90)"></path><rect class="cls-10" x="832.47" y="1184.65" width="24.34" height="42.95" rx="3.03"></rect><rect class="cls-10" x="885.13" y="634.24" width="13.43" height="25.47" rx="3.03" transform="translate(1538.82 -244.88) rotate(90)"></rect><rect class="cls-21" x="881.11" y="663.66" width="9.4" height="4.96" transform="translate(1551.95 -219.68) rotate(90)"></rect><path class="cls-9" d="M885.23,657.17h1.6a0,0,0,0,1,0,0v5a0,0,0,0,1,0,0h-1.6a.44.44,0,0,1-.44-.44v-4.08A.44.44,0,0,1,885.23,657.17Z" transform="translate(1545.46 -226.17) rotate(90)"></path><path class="cls-9" d="M885.23,670h1.6a0,0,0,0,1,0,0v5a0,0,0,0,1,0,0h-1.6a.44.44,0,0,1-.44-.44v-4.08A.44.44,0,0,1,885.23,670Z" transform="translate(213.33 1558.3) rotate(-90)"></path><rect class="cls-10" x="879.1" y="653.78" width="13.43" height="25.47" rx="3.03" transform="translate(1771.63 1333.02) rotate(180)"></rect><path class="cls-10" d="M892.52,695.68V701h9a3,3,0,0,1,3,3v7.36a3,3,0,0,1-3,3H882.13a3.07,3.07,0,0,1-3-3V695.68"></path><rect class="cls-21" x="1008.18" y="656.66" width="9.4" height="4.96" transform="translate(1672.02 -353.74) rotate(90)"></rect><path class="cls-9" d="M1012.3,650.17h1.6a0,0,0,0,1,0,0v5a0,0,0,0,1,0,0h-1.6a.44.44,0,0,1-.44-.44v-4.08A.44.44,0,0,1,1012.3,650.17Z" transform="translate(1665.53 -360.23) rotate(90)"></path><path class="cls-9" d="M1012.3,663h1.6a0,0,0,0,1,0,0v5a0,0,0,0,1,0,0h-1.6a.44.44,0,0,1-.44-.44v-4.08A.44.44,0,0,1,1012.3,663Z" transform="translate(347.39 1678.37) rotate(-90)"></path><rect class="cls-9" x="1151.4" y="796.39" width="4.19" height="6.5" rx="1.15"></rect><rect class="cls-9" x="1163.04" y="796.39" width="4.19" height="6.5" rx="1.15"></rect><rect class="cls-10" x="1127.98" y="787.45" width="13.43" height="25.47" transform="translate(1934.88 -334.51) rotate(90)"></rect><rect class="cls-9" x="1125.99" y="796.39" width="4.19" height="6.5" rx="1.15"></rect><rect class="cls-9" x="1137.63" y="796.39" width="4.19" height="6.5" rx="1.15"></rect><rect class="cls-8" x="1037.83" y="789.14" width="25.19" height="12.9"></rect><rect class="cls-8" x="1083.18" y="815.34" width="18.4" height="17.32" rx="1.56"></rect><rect class="cls-22" x="1056.38" y="802.89" width="6.53" height="3.66"></rect><rect class="cls-22" x="1037.95" y="802.89" width="6.53" height="3.66"></rect><rect class="cls-22" x="1047.16" y="782.75" width="6.53" height="3.66"></rect><rect class="cls-8" x="1006.09" y="807.55" width="25.19" height="12.9"></rect><rect class="cls-22" x="1006.07" y="802.89" width="6.53" height="3.66"></rect><rect class="cls-22" x="1024.76" y="802.89" width="6.53" height="3.66"></rect><rect class="cls-22" x="1015.43" y="822.31" width="6.53" height="3.66"></rect><rect class="cls-8" x="1065.99" y="1184.45" width="25.19" height="12.9"></rect><rect class="cls-22" x="1065.97" y="1179.8" width="6.53" height="3.66"></rect><rect class="cls-22" x="1084.66" y="1179.8" width="6.53" height="3.66"></rect><rect class="cls-22" x="1075.33" y="1199.22" width="6.53" height="3.66"></rect><rect class="cls-8" x="1065.99" y="1230.48" width="25.19" height="12.9"></rect><rect class="cls-22" x="1065.97" y="1225.82" width="6.53" height="3.66"></rect><rect class="cls-22" x="1084.66" y="1225.82" width="6.53" height="3.66"></rect><rect class="cls-22" x="1075.33" y="1245.24" width="6.53" height="3.66"></rect><rect class="cls-8" x="1045.33" y="828.84" width="6.8" height="5.76"></rect><rect class="cls-9" x="1041.22" y="828.84" width="3.22" height="5.76" rx="0.87"></rect><rect class="cls-9" x="1053.16" y="828.84" width="3.22" height="5.76" rx="0.87"></rect><rect class="cls-8" x="1045.33" y="816.56" width="6.8" height="5.76"></rect><rect class="cls-9" x="1041.22" y="816.56" width="3.22" height="5.76" rx="0.87"></rect><rect class="cls-9" x="1053.16" y="816.56" width="3.22" height="5.76" rx="0.87"></rect><rect class="cls-8" x="913.68" y="824.79" width="6.8" height="5.76" transform="translate(-314.43 924.91) rotate(-46.58)"></rect><rect class="cls-9" x="911.41" y="829.07" width="3.22" height="5.76" rx="0.87" transform="translate(-318.81 923.31) rotate(-46.58)"></rect><rect class="cls-9" x="919.62" y="820.4" width="3.22" height="5.76" rx="0.87" transform="translate(-309.94 926.56) rotate(-46.58)"></rect><rect class="cls-8" x="1018.46" y="783.38" width="6.8" height="5.76"></rect><rect class="cls-9" x="1014.35" y="783.38" width="3.22" height="5.76" rx="0.87"></rect><rect class="cls-9" x="1026.29" y="783.38" width="3.22" height="5.76" rx="0.87"></rect><rect class="cls-10" x="1036.51" y="813.66" width="23.34" height="24.72"></rect><rect class="cls-10" x="1009.33" y="780.54" width="25.2" height="11.74"></rect><rect class="cls-22" x="1077.83" y="817.65" width="4.59" height="2.87" rx="0.41"></rect><rect class="cls-22" x="1077.83" y="827.62" width="4.59" height="2.87" rx="0.41"></rect><rect class="cls-22" x="1102.2" y="817.65" width="4.59" height="2.87" rx="0.41"></rect><rect class="cls-22" x="1102.2" y="827.62" width="4.59" height="2.87" rx="0.41"></rect><circle class="cls-9" cx="903.92" cy="823.28" r="2.73"></circle><rect class="cls-8" x="894.83" y="805.9" width="6.8" height="5.76"></rect><rect class="cls-9" x="890.72" y="805.9" width="3.22" height="5.76" rx="0.87"></rect><rect class="cls-9" x="902.66" y="805.9" width="3.22" height="5.76" rx="0.87"></rect><rect class="cls-10" x="886.24" y="802.89" width="22.66" height="11.82" rx="1.64"></rect><path class="cls-10" d="M896.35,824.69,911,838.25a2.8,2.8,0,0,0,3.95-.15l13.28-14.38a1.9,1.9,0,0,0-.12-2.7l-6.37-5.8a1.9,1.9,0,0,0-2.63.08l-5.44,5.52a2.12,2.12,0,0,1-3,0L905.58,816a1.93,1.93,0,0,0-2.65,0l-6.56,6A1.89,1.89,0,0,0,896.35,824.69Z"></path><rect class="cls-9" x="996.75" y="585.26" width="5.3" height="5.3" rx="0.91"></rect><rect class="cls-9" x="1008.57" y="585.26" width="5.3" height="5.3" rx="0.91"></rect><rect class="cls-9" x="883.29" y="644.32" width="5.3" height="5.3" rx="0.91"></rect><rect class="cls-9" x="895.11" y="644.32" width="5.3" height="5.3" rx="0.91"></rect><rect class="cls-9" x="895.11" y="705.04" width="5.3" height="5.3" rx="0.91"></rect><rect class="cls-8" x="1010.65" y="1168.2" width="6.8" height="5.76"></rect><rect class="cls-9" x="1006.54" y="1168.2" width="3.22" height="5.76" rx="0.87"></rect><rect class="cls-9" x="1018.48" y="1168.2" width="3.22" height="5.76" rx="0.87"></rect><rect class="cls-10" x="1002.06" y="1165.19" width="22.66" height="11.82" rx="1.64"></rect><rect class="cls-8" x="841.9" y="1234.46" width="6.8" height="5.76"></rect><rect class="cls-9" x="837.79" y="1234.46" width="3.22" height="5.76" rx="0.87"></rect><rect class="cls-9" x="849.73" y="1234.46" width="3.22" height="5.76" rx="0.87"></rect><rect class="cls-8" x="841.9" y="1244.71" width="6.8" height="5.76"></rect><rect class="cls-9" x="837.79" y="1244.71" width="3.22" height="5.76" rx="0.87"></rect><rect class="cls-9" x="849.73" y="1244.71" width="3.22" height="5.76" rx="0.87"></rect><rect class="cls-10" x="833.3" y="1231.45" width="22.66" height="21.4" rx="1.64"></rect><rect class="cls-8" x="1113.16" y="1155.41" width="6.8" height="5.76"></rect><rect class="cls-9" x="1109.05" y="1155.41" width="3.22" height="5.76" rx="0.87"></rect><rect class="cls-9" x="1120.99" y="1155.41" width="3.22" height="5.76" rx="0.87"></rect><rect class="cls-8" x="1113.16" y="1165.65" width="6.8" height="5.76"></rect><rect class="cls-9" x="1109.05" y="1165.65" width="3.22" height="5.76" rx="0.87"></rect><rect class="cls-9" x="1120.99" y="1165.65" width="3.22" height="5.76" rx="0.87"></rect><rect class="cls-10" x="1104.56" y="1152.4" width="22.66" height="21.4" rx="1.64"></rect><rect class="cls-8" x="1037.3" y="1157.8" width="6.8" height="5.76"></rect><rect class="cls-9" x="1033.18" y="1157.8" width="3.22" height="5.76" rx="0.87"></rect><rect class="cls-9" x="1045.13" y="1157.8" width="3.22" height="5.76" rx="0.87"></rect><rect class="cls-8" x="1074.45" y="1211.47" width="6.8" height="5.76"></rect><rect class="cls-9" x="1070.33" y="1211.47" width="3.22" height="5.76" rx="0.87"></rect><rect class="cls-9" x="1082.27" y="1211.47" width="3.22" height="5.76" rx="0.87"></rect><rect class="cls-10" x="1028.7" y="1154.79" width="22.66" height="11.82" rx="1.64"></rect><rect class="cls-8" x="1075.18" y="1147.41" width="6.8" height="5.76"></rect><rect class="cls-9" x="1071.07" y="1147.41" width="3.22" height="5.76" rx="0.87"></rect><rect class="cls-9" x="1083.01" y="1147.41" width="3.22" height="5.76" rx="0.87"></rect><rect class="cls-10" x="1066.58" y="1144.4" width="22.66" height="11.82" rx="1.64"></rect><rect class="cls-8" x="1008.97" y="1118.88" width="6.8" height="5.76" transform="translate(2134.13 109.39) rotate(90)"></rect><rect class="cls-9" x="1010.76" y="1112.98" width="3.22" height="5.76" rx="0.87" transform="translate(2128.23 103.49) rotate(90)"></rect><rect class="cls-9" x="1010.76" y="1124.92" width="3.22" height="5.76" rx="0.87" transform="translate(2140.17 115.43) rotate(90)"></rect><rect class="cls-10" x="1001.01" y="1115.19" width="22.66" height="11.82" rx="1.64" transform="translate(2133.45 108.75) rotate(90)"></rect><rect class="cls-8" x="810" y="1125.59" width="6.8" height="5.76" transform="translate(1941.86 315.07) rotate(90)"></rect><rect class="cls-9" x="811.78" y="1119.69" width="3.22" height="5.76" rx="0.87" transform="translate(1935.96 309.17) rotate(90)"></rect><rect class="cls-9" x="811.78" y="1131.63" width="3.22" height="5.76" rx="0.87" transform="translate(1947.9 321.11) rotate(90)"></rect><rect class="cls-10" x="802.04" y="1121.89" width="22.66" height="11.82" rx="1.64" transform="translate(1941.17 314.43) rotate(90)"></rect><rect class="cls-8" x="810" y="972.11" width="6.8" height="5.76" transform="translate(1788.38 161.6) rotate(90)"></rect><rect class="cls-9" x="811.78" y="966.21" width="3.22" height="5.76" rx="0.87" transform="translate(1782.48 155.7) rotate(90)"></rect><rect class="cls-9" x="811.78" y="978.15" width="3.22" height="5.76" rx="0.87" transform="translate(1794.43 167.64) rotate(90)"></rect><rect class="cls-10" x="802.04" y="968.42" width="22.66" height="11.82" rx="1.64" transform="translate(1787.7 160.96) rotate(90)"></rect><rect class="cls-8" x="965.5" y="1145.19" width="6.8" height="5.76" transform="translate(2116.96 179.17) rotate(90)"></rect><rect class="cls-9" x="967.28" y="1139.29" width="3.22" height="5.76" rx="0.87" transform="translate(2111.06 173.27) rotate(90)"></rect><rect class="cls-9" x="967.28" y="1151.23" width="3.22" height="5.76" rx="0.87" transform="translate(2123 185.21) rotate(90)"></rect><rect class="cls-10" x="957.54" y="1141.5" width="22.66" height="11.82" rx="1.64" transform="translate(2116.28 178.53) rotate(90)"></rect><rect class="cls-8" x="978.56" y="1145.19" width="6.8" height="5.76" transform="translate(2130.02 166.11) rotate(90)"></rect><rect class="cls-9" x="980.34" y="1139.29" width="3.22" height="5.76" rx="0.87" transform="translate(2124.12 160.21) rotate(90)"></rect><rect class="cls-9" x="980.34" y="1151.23" width="3.22" height="5.76" rx="0.87" transform="translate(2136.06 172.15) rotate(90)"></rect><rect class="cls-10" x="970.6" y="1141.5" width="22.66" height="11.82" rx="1.64" transform="translate(2129.34 165.47) rotate(90)"></rect><rect class="cls-8" x="782.97" y="1350.01" width="6.8" height="5.76" transform="translate(2139.26 566.51) rotate(90)"></rect><rect class="cls-9" x="784.76" y="1344.11" width="3.22" height="5.76" rx="0.87" transform="translate(2133.36 560.61) rotate(90)"></rect><rect class="cls-9" x="784.76" y="1356.05" width="3.22" height="5.76" rx="0.87" transform="translate(2145.3 572.56) rotate(90)"></rect><rect class="cls-10" x="775.02" y="1346.32" width="22.66" height="11.82" rx="1.64" transform="translate(2138.58 565.87) rotate(90)"></rect><rect class="cls-8" x="897.75" y="1187.82" width="6.8" height="5.76" transform="translate(2091.85 289.55) rotate(90)"></rect><rect class="cls-9" x="899.54" y="1181.92" width="3.22" height="5.76" rx="0.87" transform="translate(2085.95 283.65) rotate(90)"></rect><rect class="cls-9" x="899.54" y="1193.87" width="3.22" height="5.76" rx="0.87" transform="translate(2097.9 295.59) rotate(90)"></rect><rect class="cls-8" x="864.13" y="1187.82" width="6.8" height="5.76" transform="translate(2058.23 323.18) rotate(90)"></rect><rect class="cls-9" x="865.92" y="1181.92" width="3.22" height="5.76" rx="0.87" transform="translate(2052.33 317.28) rotate(90)"></rect><rect class="cls-9" x="865.92" y="1193.87" width="3.22" height="5.76" rx="0.87" transform="translate(2064.27 329.22) rotate(90)"></rect><rect class="cls-8" x="874.85" y="1187.82" width="6.8" height="5.76" transform="translate(2068.95 312.46) rotate(90)"></rect><rect class="cls-9" x="876.63" y="1181.92" width="3.22" height="5.76" rx="0.87" transform="translate(2063.05 306.56) rotate(90)"></rect><rect class="cls-9" x="876.63" y="1193.87" width="3.22" height="5.76" rx="0.87" transform="translate(2074.99 318.5) rotate(90)"></rect><rect class="cls-8" x="887.21" y="1187.82" width="6.8" height="5.76" transform="translate(2081.31 300.09) rotate(90)"></rect><rect class="cls-9" x="889" y="1181.92" width="3.22" height="5.76" rx="0.87" transform="translate(2075.41 294.19) rotate(90)"></rect><rect class="cls-9" x="889" y="1193.87" width="3.22" height="5.76" rx="0.87" transform="translate(2087.36 306.13) rotate(90)"></rect><path class="cls-10" d="M871.78,1201.37h-8.55a1.64,1.64,0,0,1-1.64-1.64v-19.38a1.64,1.64,0,0,1,1.64-1.64H905.4a1.63,1.63,0,0,1,1.64,1.64v19.38a1.63,1.63,0,0,1-1.64,1.64h-8.54"></path><rect class="cls-8" x="1075.18" y="1163.1" width="6.8" height="5.76"></rect><rect class="cls-9" x="1071.07" y="1163.1" width="3.22" height="5.76" rx="0.87"></rect><rect class="cls-9" x="1083.01" y="1163.1" width="3.22" height="5.76" rx="0.87"></rect><rect class="cls-10" x="1066.58" y="1160.09" width="22.66" height="11.82" rx="1.64"></rect><rect class="cls-8" x="995.2" y="1280.22" width="6.8" height="5.76" transform="translate(2281.7 284.5) rotate(90)"></rect><rect class="cls-9" x="996.99" y="1274.32" width="3.22" height="5.76" rx="0.87" transform="translate(2275.8 278.6) rotate(90)"></rect><rect class="cls-9" x="996.99" y="1286.26" width="3.22" height="5.76" rx="0.87" transform="translate(2287.74 290.54) rotate(90)"></rect><rect class="cls-10" x="987.24" y="1276.53" width="22.66" height="11.82" rx="1.64" transform="translate(2281.01 283.86) rotate(90)"></rect><rect class="cls-8" x="1010.68" y="1305.36" width="6.8" height="5.76" transform="translate(2322.31 294.16) rotate(90)"></rect><rect class="cls-9" x="1012.46" y="1299.46" width="3.22" height="5.76" rx="0.87" transform="translate(2316.41 288.26) rotate(90)"></rect><rect class="cls-9" x="1012.46" y="1311.4" width="3.22" height="5.76" rx="0.87" transform="translate(2328.35 300.2) rotate(90)"></rect><rect class="cls-10" x="1002.72" y="1301.66" width="22.66" height="11.82" rx="1.64" transform="translate(2321.62 293.52) rotate(90)"></rect><rect class="cls-8" x="1102.94" y="1333.14" width="6.8" height="5.76" transform="translate(2212.67 2672.05) rotate(-180)"></rect><rect class="cls-9" x="1110.63" y="1333.14" width="3.22" height="5.76" rx="0.87" transform="translate(2224.47 2672.05) rotate(-180)"></rect><rect class="cls-9" x="1098.68" y="1333.14" width="3.22" height="5.76" rx="0.87" transform="translate(2200.59 2672.05) rotate(-180)"></rect><rect class="cls-10" x="1095.67" y="1330.09" width="22.66" height="11.82" rx="1.64" transform="translate(2214 2672) rotate(-180)"></rect><rect class="cls-8" x="1143.37" y="1333.14" width="6.8" height="5.76" transform="translate(2293.53 2672.05) rotate(-180)"></rect><rect class="cls-9" x="1151.06" y="1333.14" width="3.22" height="5.76" rx="0.87" transform="translate(2305.33 2672.05) rotate(-180)"></rect><rect class="cls-9" x="1139.11" y="1333.14" width="3.22" height="5.76" rx="0.87" transform="translate(2281.45 2672.05) rotate(-180)"></rect><rect class="cls-10" x="1136.1" y="1330.09" width="22.66" height="11.82" rx="1.64" transform="translate(2294.85 2672) rotate(-180)"></rect><rect class="cls-8" x="1167.8" y="1333.14" width="6.8" height="5.76" transform="translate(2342.39 2672.05) rotate(-180)"></rect><rect class="cls-9" x="1175.48" y="1333.14" width="3.22" height="5.76" rx="0.87" transform="translate(2354.19 2672.05) rotate(-180)"></rect><rect class="cls-9" x="1163.54" y="1333.14" width="3.22" height="5.76" rx="0.87" transform="translate(2330.3 2672.05) rotate(-180)"></rect><rect class="cls-10" x="1160.52" y="1330.09" width="22.66" height="11.82" rx="1.64" transform="translate(2343.71 2672) rotate(-180)"></rect><rect class="cls-8" x="1077.56" y="1333.14" width="6.8" height="5.76" transform="translate(2161.91 2672.05) rotate(-180)"></rect><rect class="cls-9" x="1085.25" y="1333.14" width="3.22" height="5.76" rx="0.87" transform="translate(2173.71 2672.05) rotate(-180)"></rect><rect class="cls-9" x="1073.3" y="1333.14" width="3.22" height="5.76" rx="0.87" transform="translate(2149.83 2672.05) rotate(-180)"></rect><rect class="cls-10" x="1070.29" y="1330.09" width="22.66" height="11.82" rx="1.64" transform="translate(2163.23 2672) rotate(-180)"></rect><rect class="cls-8" x="995.2" y="1305.36" width="6.8" height="5.76" transform="translate(2306.83 309.64) rotate(90)"></rect><rect class="cls-9" x="996.99" y="1299.46" width="3.22" height="5.76" rx="0.87" transform="translate(2300.93 303.74) rotate(90)"></rect><rect class="cls-9" x="996.99" y="1311.4" width="3.22" height="5.76" rx="0.87" transform="translate(2312.87 315.68) rotate(90)"></rect><rect class="cls-8" x="983.74" y="1305.36" width="6.8" height="5.76" transform="translate(2295.38 321.09) rotate(90)"></rect><rect class="cls-9" x="985.53" y="1299.46" width="3.22" height="5.76" rx="0.87" transform="translate(2289.48 315.19) rotate(90)"></rect><rect class="cls-9" x="985.53" y="1311.4" width="3.22" height="5.76" rx="0.87" transform="translate(2301.42 327.14) rotate(90)"></rect><rect class="cls-8" x="968.35" y="1305.36" width="6.8" height="5.76" transform="translate(2279.99 336.48) rotate(90)"></rect><rect class="cls-9" x="970.14" y="1299.46" width="3.22" height="5.76" rx="0.87" transform="translate(2274.09 330.58) rotate(90)"></rect><rect class="cls-9" x="970.14" y="1311.4" width="3.22" height="5.76" rx="0.87" transform="translate(2286.03 342.53) rotate(90)"></rect><rect class="cls-10" x="960.4" y="1301.66" width="22.66" height="11.82" rx="1.64" transform="translate(2279.3 335.84) rotate(90)"></rect><rect class="cls-8" x="979.5" y="1280.22" width="6.8" height="5.76" transform="translate(2266 300.2) rotate(90)"></rect><rect class="cls-9" x="981.29" y="1274.32" width="3.22" height="5.76" rx="0.87" transform="translate(2260.1 294.3) rotate(90)"></rect><rect class="cls-9" x="981.29" y="1286.26" width="3.22" height="5.76" rx="0.87" transform="translate(2272.04 306.24) rotate(90)"></rect><rect class="cls-10" x="971.55" y="1276.53" width="22.66" height="11.82" rx="1.64" transform="translate(2265.32 299.56) rotate(90)"></rect><rect class="cls-22" x="937.52" y="1110.22" width="8.23" height="4.34" transform="translate(1883.27 2224.78) rotate(180)"></rect><path class="cls-9" d="M946.81,1110.22h1.4a0,0,0,0,1,0,0v4.34a0,0,0,0,1,0,0h-1.4a.39.39,0,0,1-.39-.39v-3.57A.39.39,0,0,1,946.81,1110.22Z" transform="translate(1894.64 2224.78) rotate(180)"></path><path class="cls-9" d="M935.57,1110.22H937a0,0,0,0,1,0,0v4.34a0,0,0,0,1,0,0h-1.4a.39.39,0,0,1-.39-.39v-3.57A.39.39,0,0,1,935.57,1110.22Z"></path><rect class="cls-10" x="935.3" y="1101.25" width="11.75" height="22.29" rx="2.65" transform="translate(2053.57 171.22) rotate(90)"></rect><rect class="cls-22" x="871.45" y="1259.87" width="8.23" height="4.34" transform="translate(1751.13 2524.08) rotate(180)"></rect><path class="cls-9" d="M880.74,1259.87h1.4a0,0,0,0,1,0,0v4.34a0,0,0,0,1,0,0h-1.4a.39.39,0,0,1-.39-.39v-3.57A.39.39,0,0,1,880.74,1259.87Z" transform="translate(1762.5 2524.08) rotate(180)"></path><path class="cls-9" d="M869.5,1259.87h1.4a0,0,0,0,1,0,0v4.34a0,0,0,0,1,0,0h-1.4a.39.39,0,0,1-.39-.39v-3.57A.39.39,0,0,1,869.5,1259.87Z"></path><rect class="cls-10" x="869.23" y="1250.9" width="11.75" height="22.29" rx="2.65" transform="translate(2137.15 386.93) rotate(90)"></rect><rect class="cls-22" x="937.52" y="1121.98" width="8.23" height="4.34" transform="translate(1883.27 2248.29) rotate(180)"></rect><path class="cls-9" d="M946.81,1122h1.4a0,0,0,0,1,0,0v4.34a0,0,0,0,1,0,0h-1.4a.39.39,0,0,1-.39-.39v-3.57A.39.39,0,0,1,946.81,1122Z" transform="translate(1894.64 2248.29) rotate(180)"></path><path class="cls-9" d="M935.57,1122H937a0,0,0,0,1,0,0v4.34a0,0,0,0,1,0,0h-1.4a.39.39,0,0,1-.39-.39v-3.57A.39.39,0,0,1,935.57,1122Z"></path><rect class="cls-10" x="935.3" y="1113" width="11.75" height="22.29" rx="2.65" transform="translate(2065.32 182.97) rotate(90)"></rect><rect class="cls-22" x="887.48" y="1110.22" width="8.23" height="4.34" transform="translate(1783.19 2224.78) rotate(180)"></rect><path class="cls-9" d="M896.77,1110.22h1.4a0,0,0,0,1,0,0v4.34a0,0,0,0,1,0,0h-1.4a.39.39,0,0,1-.39-.39v-3.57A.39.39,0,0,1,896.77,1110.22Z" transform="translate(1794.56 2224.78) rotate(180)"></path><path class="cls-9" d="M885.53,1110.22h1.4a0,0,0,0,1,0,0v4.34a0,0,0,0,1,0,0h-1.4a.39.39,0,0,1-.39-.39v-3.57A.39.39,0,0,1,885.53,1110.22Z"></path><rect class="cls-10" x="885.26" y="1101.25" width="11.75" height="22.29" rx="2.65" transform="translate(2003.53 221.25) rotate(90)"></rect><rect class="cls-22" x="887.48" y="1121.98" width="8.23" height="4.34" transform="translate(1783.19 2248.29) rotate(180)"></rect><path class="cls-9" d="M896.77,1122h1.4a0,0,0,0,1,0,0v4.34a0,0,0,0,1,0,0h-1.4a.39.39,0,0,1-.39-.39v-3.57A.39.39,0,0,1,896.77,1122Z" transform="translate(1794.56 2248.29) rotate(180)"></path><path class="cls-9" d="M885.53,1122h1.4a0,0,0,0,1,0,0v4.34a0,0,0,0,1,0,0h-1.4a.39.39,0,0,1-.39-.39v-3.57A.39.39,0,0,1,885.53,1122Z"></path><rect class="cls-10" x="885.26" y="1113" width="11.75" height="22.29" rx="2.65" transform="translate(2015.28 233.01) rotate(90)"></rect><rect class="cls-12" x="794.4" y="1326.67" width="106.72" height="88.09"></rect><rect class="cls-17" x="794.4" y="1326.67" width="106.72" height="88.09"></rect><rect class="cls-7" x="815.39" y="1326.67" width="6.88" height="56.08"></rect><rect class="cls-7" x="868.66" y="1326.67" width="6.87" height="56.08"></rect><rect class="cls-17" x="815.39" y="1326.67" width="6.88" height="56.08"></rect><rect class="cls-17" x="868.66" y="1326.67" width="6.87" height="56.08"></rect><ellipse class="cls-7" cx="966.41" cy="1370.55" rx="7.79" ry="4.59"></ellipse><ellipse class="cls-7" cx="1010.74" cy="1370.55" rx="7.79" ry="4.59"></ellipse><polyline class="cls-17" points="1043.9 1414.75 1043.9 1436.07 934.66 1436.07 934.66 1414.75"></polyline><rect class="cls-9" x="835.33" y="855.51" width="238.08" height="243.15"></rect><path class="cls-9" d="M830.17,850.24v253.7h248.41V850.24Zm243.24,248.42H835.33V855.51h238.08Z"></path><rect class="cls-25" x="835.33" y="855.51" width="238.08" height="243.15"></rect><rect class="cls-13" x="830.17" y="850.23" width="248.41" height="253.7"></rect><path class="cls-12" d="M1032.66,528.62h188.63a7.36,7.36,0,0,1,7.36,7.36V598a9.17,9.17,0,0,1-9.17,9.17H1036.81a9.17,9.17,0,0,1-9.17-9.17V533.64A5,5,0,0,1,1032.66,528.62Z"></path><path class="cls-26" d="M1032.66,528.62h188.63a7.36,7.36,0,0,1,7.36,7.36V598a9.17,9.17,0,0,1-9.17,9.17H1036.81a9.17,9.17,0,0,1-9.17-9.17V533.64A5,5,0,0,1,1032.66,528.62Z"></path><circle class="cls-9" cx="1113.6" cy="578.12" r="19.06"></circle><path class="cls-27" d="M859.69,912.55l4.33-.71a3.41,3.41,0,0,0,1.13,2,3.57,3.57,0,0,0,2.36.7,4,4,0,0,0,2.52-.66,1.48,1.48,0,0,0,.57-1.22,1.24,1.24,0,0,0-.31-.87,3.29,3.29,0,0,0-1.44-.61q-5.22-1.23-6.62-2.24a4.59,4.59,0,0,1-1.94-3.92,5,5,0,0,1,1.68-3.8q1.66-1.54,5.19-1.54a8.67,8.67,0,0,1,5,1.16,6,6,0,0,1,2.24,3.44l-4.07.81a2.7,2.7,0,0,0-1-1.56,3.46,3.46,0,0,0-2.08-.54,4.47,4.47,0,0,0-2.45.51,1.12,1.12,0,0,0-.49.93,1.06,1.06,0,0,0,.43.84,16,16,0,0,0,4,1.29,11.64,11.64,0,0,1,4.81,2,4.39,4.39,0,0,1,1.35,3.42,5.4,5.4,0,0,1-1.87,4.12,8,8,0,0,1-5.55,1.72,8.64,8.64,0,0,1-5.28-1.45A6.67,6.67,0,0,1,859.69,912.55Z"></path><path class="cls-27" d="M888.16,912l4.31.77a7.57,7.57,0,0,1-2.62,3.85,7.36,7.36,0,0,1-4.48,1.32,7.11,7.11,0,0,1-6.3-3,10.4,10.4,0,0,1-1.62-6,10,10,0,0,1,2.13-6.77,6.79,6.79,0,0,1,5.36-2.45,7,7,0,0,1,5.74,2.56q2.12,2.57,2,7.86H881.88a4.88,4.88,0,0,0,1,3.19,3.18,3.18,0,0,0,2.49,1.13,2.51,2.51,0,0,0,1.71-.59A3.62,3.62,0,0,0,888.16,912Zm.25-4.65a4.6,4.6,0,0,0-1-3,2.89,2.89,0,0,0-2.24-1,3,3,0,0,0-2.34,1.1,4.46,4.46,0,0,0-.9,3Z"></path><path class="cls-27" d="M906.17,912l4.3.77a7.51,7.51,0,0,1-2.62,3.85,7.34,7.34,0,0,1-4.48,1.32,7.11,7.11,0,0,1-6.3-3,10.4,10.4,0,0,1-1.61-6,10,10,0,0,1,2.12-6.77,6.79,6.79,0,0,1,5.36-2.45,7,7,0,0,1,5.75,2.56q2.1,2.57,2,7.86H899.88a4.83,4.83,0,0,0,1,3.19,3.15,3.15,0,0,0,2.49,1.13,2.5,2.5,0,0,0,1.7-.59A3.69,3.69,0,0,0,906.17,912Zm.24-4.65a4.6,4.6,0,0,0-1-3,2.89,2.89,0,0,0-2.24-1,3,3,0,0,0-2.34,1.1,4.46,4.46,0,0,0-.9,3Z"></path><path class="cls-27" d="M924.87,912l4.3.77a7.51,7.51,0,0,1-2.62,3.85,7.32,7.32,0,0,1-4.48,1.32,7.11,7.11,0,0,1-6.3-3,10.48,10.48,0,0,1-1.61-6,10,10,0,0,1,2.12-6.77,6.79,6.79,0,0,1,5.36-2.45,7,7,0,0,1,5.75,2.56q2.1,2.57,2,7.86H918.58a4.88,4.88,0,0,0,1,3.19,3.15,3.15,0,0,0,2.49,1.13,2.5,2.5,0,0,0,1.7-.59A3.69,3.69,0,0,0,924.87,912Zm.25-4.65a4.71,4.71,0,0,0-1-3,3,3,0,0,0-4.58.06,4.41,4.41,0,0,0-.91,3Z"></path><path class="cls-27" d="M948.79,917.51h-4V915a6.71,6.71,0,0,1-2.36,2.22,5.83,5.83,0,0,1-2.74.73,6.08,6.08,0,0,1-4.82-2.42,10.25,10.25,0,0,1-2-6.74q0-4.43,1.95-6.73a6.23,6.23,0,0,1,4.94-2.3,6,6,0,0,1,4.73,2.42v-8.65h4.32Zm-11.53-9.07a8.32,8.32,0,0,0,.73,4,3.23,3.23,0,0,0,2.92,1.8,3.12,3.12,0,0,0,2.53-1.35,6.52,6.52,0,0,0,1-4,7.15,7.15,0,0,0-1-4.32,3.14,3.14,0,0,0-2.6-1.32,3.19,3.19,0,0,0-2.57,1.3A6.19,6.19,0,0,0,937.26,908.44Z"></path><path class="cls-27" d="M964.18,912.55l4.33-.71a3.45,3.45,0,0,0,1.12,2,3.62,3.62,0,0,0,2.37.7,4,4,0,0,0,2.52-.66,1.48,1.48,0,0,0,.57-1.22,1.24,1.24,0,0,0-.31-.87,3.35,3.35,0,0,0-1.44-.61c-3.49-.82-5.69-1.57-6.63-2.24a4.58,4.58,0,0,1-1.93-3.92,5,5,0,0,1,1.67-3.8q1.68-1.54,5.2-1.54a8.67,8.67,0,0,1,5,1.16,6,6,0,0,1,2.24,3.44l-4.07.81a2.75,2.75,0,0,0-1-1.56,3.47,3.47,0,0,0-2.09-.54,4.43,4.43,0,0,0-2.44.51,1.1,1.1,0,0,0-.49.93,1,1,0,0,0,.43.84,15.89,15.89,0,0,0,4,1.29,11.63,11.63,0,0,1,4.82,2,4.39,4.39,0,0,1,1.35,3.42,5.4,5.4,0,0,1-1.87,4.12,8,8,0,0,1-5.55,1.72,8.64,8.64,0,0,1-5.28-1.45A6.67,6.67,0,0,1,964.18,912.55Z"></path><path class="cls-27" d="M988.78,900.11v3.67h-3v7a20.48,20.48,0,0,0,.08,2.49,1,1,0,0,0,.39.58,1.18,1.18,0,0,0,.73.23,5.43,5.43,0,0,0,1.74-.44l.37,3.57a8.1,8.1,0,0,1-3.42.69,5.13,5.13,0,0,1-2.11-.42,3.1,3.1,0,0,1-1.38-1.08,4.47,4.47,0,0,1-.61-1.8,23.91,23.91,0,0,1-.14-3.24v-7.59h-2v-3.67h2v-3.46l4.35-2.68v6.14Z"></path><path class="cls-27" d="M1002.56,917.51v-2.6a6.34,6.34,0,0,1-2.35,2.19,6.21,6.21,0,0,1-3.07.81,5.75,5.75,0,0,1-3-.77,4.46,4.46,0,0,1-1.9-2.17,10.19,10.19,0,0,1-.59-3.85v-11H996v8a24.93,24.93,0,0,0,.23,4.5,2.46,2.46,0,0,0,.88,1.31,2.56,2.56,0,0,0,1.6.48,3.29,3.29,0,0,0,2-.65,3.24,3.24,0,0,0,1.2-1.6,19.69,19.69,0,0,0,.32-4.7v-7.34h4.34v17.4Z"></path><path class="cls-27" d="M1026.09,917.51h-4V915a6.73,6.73,0,0,1-2.37,2.22,5.87,5.87,0,0,1-2.75.73,6.1,6.1,0,0,1-4.83-2.42,10.19,10.19,0,0,1-2-6.74c0-3,.66-5.19,2-6.73a6.25,6.25,0,0,1,5-2.3,6,6,0,0,1,4.75,2.42v-8.65h4.33Zm-11.56-9.07a8.46,8.46,0,0,0,.72,4,3.25,3.25,0,0,0,2.93,1.8,3.14,3.14,0,0,0,2.55-1.35,6.52,6.52,0,0,0,1-4,7.16,7.16,0,0,0-1-4.32,3.16,3.16,0,0,0-2.61-1.32,3.19,3.19,0,0,0-2.58,1.3A6.13,6.13,0,0,0,1014.53,908.44Z"></path><path class="cls-27" d="M1030.36,897.75v-4.26h4.34v4.26Zm0,19.76v-17.4h4.34v17.4Z"></path><path class="cls-27" d="M1038.13,908.57a9.87,9.87,0,0,1,1.07-4.44,7.55,7.55,0,0,1,3-3.28,8.56,8.56,0,0,1,4.36-1.13,7.93,7.93,0,0,1,6.09,2.56,10.09,10.09,0,0,1,0,13,7.86,7.86,0,0,1-6,2.6,9,9,0,0,1-4.3-1.09,7.15,7.15,0,0,1-3.1-3.17A11.06,11.06,0,0,1,1038.13,908.57Zm4.44.24a6,6,0,0,0,1.16,4,3.65,3.65,0,0,0,5.7,0,6.13,6.13,0,0,0,1.15-4,6,6,0,0,0-1.15-3.93,3.63,3.63,0,0,0-5.7,0A6,6,0,0,0,1042.57,908.81Z"></path><rect class="cls-28" x="860.16" y="890.56" width="203.31" height="31.33"></rect><path class="cls-27" d="M885.44,982.26V971.91h7v1.22h-5.61v3.21h4.85v1.22h-4.85v4.7Z"></path><path class="cls-27" d="M901.58,978.63,903,979a4.67,4.67,0,0,1-1.55,2.57,4.29,4.29,0,0,1-2.74.89,4.88,4.88,0,0,1-2.72-.69,4.19,4.19,0,0,1-1.59-2,6.92,6.92,0,0,1-.55-2.77,6.11,6.11,0,0,1,.62-2.82,4.26,4.26,0,0,1,1.76-1.83,5.08,5.08,0,0,1,2.51-.62,4.24,4.24,0,0,1,2.61.79,4.09,4.09,0,0,1,1.47,2.22l-1.35.32a3.19,3.19,0,0,0-1-1.65,2.81,2.81,0,0,0-1.72-.51,3.37,3.37,0,0,0-2,.57,3,3,0,0,0-1.12,1.53,6.15,6.15,0,0,0-.33,2,6.28,6.28,0,0,0,.39,2.31,2.87,2.87,0,0,0,1.19,1.47,3.4,3.4,0,0,0,1.76.48,3,3,0,0,0,2-.66A3.41,3.41,0,0,0,901.58,978.63Z"></path><path class="cls-27" d="M912,978.63l1.37.35a4.67,4.67,0,0,1-1.55,2.57,4.29,4.29,0,0,1-2.74.89,4.88,4.88,0,0,1-2.72-.69,4.19,4.19,0,0,1-1.59-2,6.92,6.92,0,0,1-.55-2.77,6.11,6.11,0,0,1,.62-2.82,4.24,4.24,0,0,1,1.75-1.83,5.1,5.1,0,0,1,2.51-.62,4.25,4.25,0,0,1,2.62.79,4.09,4.09,0,0,1,1.47,2.22l-1.35.32a3.25,3.25,0,0,0-1-1.65,2.81,2.81,0,0,0-1.72-.51,3.37,3.37,0,0,0-2,.57A3,3,0,0,0,906,975a6.15,6.15,0,0,0-.33,2,6.28,6.28,0,0,0,.39,2.31,2.87,2.87,0,0,0,1.19,1.47,3.4,3.4,0,0,0,1.76.48,3,3,0,0,0,2-.66A3.41,3.41,0,0,0,912,978.63Z"></path><path class="cls-27" d="M919.32,982.26V971.91h1.37v10.35Z"></path><path class="cls-27" d="M923.11,982.26V971.91h3.56a8.53,8.53,0,0,1,1.84.15,3.55,3.55,0,0,1,1.52.74,4.23,4.23,0,0,1,1.22,1.77,7.74,7.74,0,0,1,.13,4.55,4.92,4.92,0,0,1-.7,1.51,3.5,3.5,0,0,1-2.18,1.45,6.92,6.92,0,0,1-1.66.18Zm1.36-1.22h2.21a5.27,5.27,0,0,0,1.61-.19,2.33,2.33,0,0,0,.93-.54A3.38,3.38,0,0,0,930,979a6.43,6.43,0,0,0,.27-2,4.79,4.79,0,0,0-.54-2.5,2.59,2.59,0,0,0-1.29-1.16,5.1,5.1,0,0,0-1.77-.22h-2.18Z"></path><path class="cls-27" d="M943.72,981v1.22h-6.84a2.18,2.18,0,0,1,.15-.88,4.42,4.42,0,0,1,.84-1.38,13.07,13.07,0,0,1,1.66-1.57,14.36,14.36,0,0,0,2.28-2.19,2.66,2.66,0,0,0,.59-1.53,1.7,1.7,0,0,0-.54-1.27,2.19,2.19,0,0,0-2.87,0,2.07,2.07,0,0,0-.56,1.53l-1.31-.14a3.22,3.22,0,0,1,1-2.22,3.45,3.45,0,0,1,2.35-.77,3.3,3.3,0,0,1,2.36.83,2.7,2.7,0,0,1,.87,2,3.07,3.07,0,0,1-.26,1.22,4.79,4.79,0,0,1-.84,1.27,20.7,20.7,0,0,1-2,1.82c-.76.64-1.25,1.07-1.47,1.3a4.55,4.55,0,0,0-.53.69Z"></path><path class="cls-27" d="M949.16,982.26v-2.48h-4.49v-1.16l4.72-6.71h1v6.71h1.39v1.16h-1.39v2.48Zm0-3.64V974l-3.24,4.67Z"></path><path class="cls-27" d="M956.27,982.26v-9.13h-3.41v-1.22h8.2v1.22h-3.42v9.13Z"></path><path class="cls-27" d="M964.27,982.26l-2.74-10.35h1.4l1.58,6.79c.17.71.31,1.41.43,2.11.27-1.1.42-1.74.47-1.91l2-7H969l1.48,5.24a29.13,29.13,0,0,1,.81,3.66q.2-1,.51-2.25l1.63-6.65h1.37L972,982.26h-1.32l-2.18-7.88c-.18-.66-.29-1.07-.32-1.22-.11.48-.21.88-.3,1.22l-2.2,7.88Z"></path><path class="cls-27" d="M976.07,982.26V971.91h2.06l2.45,7.33c.22.68.39,1.19.49,1.53.12-.38.3-.93.55-1.66l2.48-7.2h1.84v10.35h-1.32V973.6l-3,8.66h-1.23l-3-8.81v8.81Z"></path><path class="cls-27" d="M992.42,982.26h-1.27v-8.1a6.44,6.44,0,0,1-1.2.88,9.61,9.61,0,0,1-1.34.66v-1.23a7.68,7.68,0,0,0,1.86-1.22,4.67,4.67,0,0,0,1.13-1.38h.82Z"></path><path class="cls-27" d="M999.39,982.26h-1.27v-8.1a6.21,6.21,0,0,1-1.21.88,8.64,8.64,0,0,1-1.34.66v-1.23a7.55,7.55,0,0,0,1.87-1.22,4.67,4.67,0,0,0,1.13-1.38h.82Z"></path><path class="cls-27" d="M1006.35,982.26h-1.27v-8.1a6.12,6.12,0,0,1-1.2.88,9.1,9.1,0,0,1-1.34.66v-1.23a7.68,7.68,0,0,0,1.86-1.22,4.52,4.52,0,0,0,1.13-1.38h.82Z"></path><path class="cls-27" d="M1009.61,977.16a9.58,9.58,0,0,1,.37-3,3.71,3.71,0,0,1,1.13-1.72,2.82,2.82,0,0,1,1.87-.61,3,3,0,0,1,1.46.34,2.8,2.8,0,0,1,1,1,5.45,5.45,0,0,1,.64,1.54,10.05,10.05,0,0,1,.23,2.45,9.53,9.53,0,0,1-.37,2.94,3.7,3.7,0,0,1-1.12,1.73,2.91,2.91,0,0,1-1.88.61,2.83,2.83,0,0,1-2.35-1.08A6.82,6.82,0,0,1,1009.61,977.16Zm1.3,0a6.44,6.44,0,0,0,.6,3.39,1.7,1.7,0,0,0,2.94,0,9.88,9.88,0,0,0,0-6.78,1.77,1.77,0,0,0-1.48-.84,1.63,1.63,0,0,0-1.4.74A6.55,6.55,0,0,0,1010.91,977.16Z"></path><rect class="cls-27" x="852.11" y="921.48" width="206.44" height="34.12" rx="7.43"></rect><path class="cls-29" d="M885.24,949.6,880.05,930h2.66l3,12.83c.33,1.34.6,2.68.83,4,.5-2.09.79-3.29.88-3.61L891.12,930h3.12l2.8,9.91a52.6,52.6,0,0,1,1.53,6.92c.25-1.23.57-2.65,1-4.25L902.61,930h2.6l-5.36,19.57h-2.5l-4.12-14.91c-.35-1.25-.55-2-.62-2.3-.2.9-.39,1.67-.57,2.3l-4.15,14.91Z"></path><path class="cls-29" d="M907.55,949.6V930h3.9l4.63,13.86c.43,1.29.74,2.25.93,2.89.23-.71.57-1.75,1-3.13L922.74,930h3.48V949.6h-2.49V933.22L918,949.6h-2.33l-5.66-16.66V949.6Z"></path><path class="cls-29" d="M938.48,949.6h-2.4V934.29a12.47,12.47,0,0,1-2.28,1.65,15.84,15.84,0,0,1-2.53,1.25v-2.33a14.6,14.6,0,0,0,3.53-2.29,9.09,9.09,0,0,0,2.13-2.62h1.55Z"></path><path class="cls-29" d="M951.65,949.6h-2.4V934.29a12.72,12.72,0,0,1-2.27,1.65,16.27,16.27,0,0,1-2.53,1.25v-2.33a14.54,14.54,0,0,0,3.52-2.29,9,9,0,0,0,2.14-2.62h1.54Z"></path><path class="cls-29" d="M964.83,949.6h-2.4V934.29a12.47,12.47,0,0,1-2.28,1.65,15.84,15.84,0,0,1-2.53,1.25v-2.33a14.41,14.41,0,0,0,3.53-2.29,9.09,9.09,0,0,0,2.13-2.62h1.55Z"></path><path class="cls-29" d="M971,940a17.81,17.81,0,0,1,.72-5.59,6.86,6.86,0,0,1,2.12-3.26,5.4,5.4,0,0,1,3.54-1.15,5.72,5.72,0,0,1,2.77.64,5.33,5.33,0,0,1,2,1.82,9.69,9.69,0,0,1,1.21,2.91,19,19,0,0,1,.45,4.63,18,18,0,0,1-.71,5.56,6.94,6.94,0,0,1-2.12,3.27,6,6,0,0,1-8-.87C971.63,946.28,971,943.62,971,940Zm2.47,0q0,4.81,1.13,6.41a3.22,3.22,0,0,0,5.57,0q1.13-1.61,1.13-6.41t-1.13-6.42a3.35,3.35,0,0,0-2.81-1.59,3.09,3.09,0,0,0-2.65,1.4C973.87,934.53,973.45,936.74,973.45,940Z"></path><path class="cls-29" d="M985.92,943.73v-2.42h7.38v2.42Z"></path><path class="cls-29" d="M994.12,949.6l7.51-19.57h2.79l8,19.57h-2.95l-2.28-5.93H999l-2.15,5.93Zm5.64-8h6.64l-2-5.41c-.62-1.65-1.08-3-1.38-4.06a24.2,24.2,0,0,1-1.06,3.73Z"></path><text class="cls-30" transform="translate(1078.74 642.83)">GNSS</text><text class="cls-30" transform="translate(1230.37 706.61) rotate(-90)">BLE</text></g></svg>