<?xml version="1.0" encoding="UTF-8"?>
<svg id="Layer_1" xmlns="http://www.w3.org/2000/svg" xmlns:xlink="http://www.w3.org/1999/xlink" version="1.1" viewBox="0 0 565.088312 565.088312">
  <!-- Generator: Adobe Illustrator 30.3.0, SVG Export Plug-In . SVG Version: 2.1.3 Build 182)  -->
  <defs>
    <style>
      .st0 {
        fill: none;
      }

      .st1 {
        fill: #47c66e;
      }

      .st2 {
        fill: #47a166;
      }

      .st3 {
        fill: #67ea94;
      }

      .st4 {
        fill: #2e2f3d;
      }

      .st5 {
        fill: #2d7d46;
      }

      .st6 {
        fill: #56d87e;
      }

      .st7 {
        fill: #398f53;
      }

      .st8 {
        fill: #2e2f3c;
      }

      .st9 {
        clip-path: url(#clippath);
      }

      .st10 {
        fill: #2c2d3c;
      }
    </style>
    <clipPath id="clippath">
      <rect class="st0" width="565.088312" height="565.088312" rx="126.7378" ry="126.7378"/>
    </clipPath>
  </defs>
  <rect class="st10" width="565.088312" height="565.088312" rx="126.7378" ry="126.7378"/>
  <g class="st9">
    <g>
      <g>
        <path class="st2" d="M259.337251,155.0996l-53.14091-118.318638-1.883111-4.176028-2.620263-5.895716c-.327845-.736652-.573229-1.473804-.982536-2.210456-16.949498-32.752536-54.860599-106.036437-75.658779-143.865576-7.123637-12.937392-22.844714-18.34134-36.436797-12.691508-23.499905,9.907322-58.872704,24.236557-77.050622,29.559044,0,0-45.607967,14.247273-79.261078,20.306413-.573229.081961-1.064497.245884-1.555765.409307-6.223062,1.719688-10.562513,6.550907-11.954356,12.364162l-3.193492,7.696866-40.940671,99.813375c-5.158564,12.528085-5.322487,26.529475-.655191,39.139521.081961.163423.081961.327345.163923.409307.327345.818614.654691,1.719688,1.064497,2.538302.409307.982536.900575,1.965072,1.391843,2.947608l90.233398,175.635577c4.012106,7.94225,10.807897,13.592083,18.504763,16.621652.245884.081961.491268.163923.737152.327845,1.22842.491268,2.620263.982536,4.094067,1.391843.573229.163923,1.309882.327345,2.047034.491268,5.731794.900575,11.790933.491268,17.604688-1.473804l95.064117-32.752536,136.578017-46.99981c3.766722-1.310381,7.123637-3.275454,9.989284-5.813755.491268-.409307,1.064497-.900575,1.555765-1.391843,0-.081961.081961-.081961.081961-.081961.327845-.327345.655191-.655191.900575-.982536,7.94275-8.597441,10.481052-21.534833,5.322487-32.997921Z"/>
        <g>
          <path class="st7" d="M254.014764,188.09752c4.339951-5.813755-.081462-17.522727-.081462-17.522727l-53.222872-121.920937c-.573229.654691-1.22842,1.309882-1.965572,1.883111-.081462.081961-.163423.163923-.245384.245384-.737152.655191-1.637727,1.22842-2.538302,1.719688-15.639616,8.843325-41.841245,22.190023-77.296006,35.700145-3.68476,1.392343-7.287559,2.702224-10.890358,3.930644-3.602799,1.22792-7.205598,2.45634-10.726436,3.520838-7.041675,2.210456-13.837967,4.176028-20.388374,5.813255-3.275454.819113-6.468446,1.555765-9.579977,2.292917-4.012106.900575-7.860789,1.719188-11.545549,2.45634-4.667296.900575-9.17067,1.719688-13.264737,2.374379-.327345.081961-.573229.081961-.900575.163923-5.240526.818614-9.989284,1.555765-14.247273,2.047034-3.848683.491268-7.696866.245884-11.299665-.736652-.491268-.081961-.982536-.245884-1.473804-.491768-.900575-.245384-1.719688-.491268-2.620263-.900575-.327345-.081961-.655191-.245384-.982536-.409307-1.064497-.491268-2.128995-1.064497-3.111531-1.719688-1.22842-.654691-2.374379-1.473804-3.438876-2.374379-1.064497-.900575-2.047034-1.80115-3.02957-2.865647-.901075-.901075-1.637727-1.883611-2.45684-2.866147l-24.482441,155.738471s-.081961.245384-.081961.818614c-.163423,1.473804-.327345,4.91318.901075,8.761363.57273,1.719688,1.391843,3.520838,2.538302,5.240526,0,0,0,.081961.081462.163923.573229.818614,1.22842,1.555765,2.047034,2.292418.409807.409307.901075.819113,1.392343,1.310381.491268.327345.900575.654691,1.391843.982536.818614.573229,1.801649,1.145959,2.865647,1.637227-7.696866-3.02957-14.492658-8.679402-18.504763-16.621652L-123.376058,83.125581c-.491268-.982536-.982536-1.965072-1.391843-2.947608-.409807-.818614-.737152-1.719688-1.064497-2.538302-.081961-.081961-.081961-.245884-.163923-.409307-5.158564-15.966961,1.637727-33.489688,1.637727-33.489688l41.268016-102.187754,1.310381-3.275454.409307-.081961c.245384,1.473804.818614,2.948108,1.555765,4.421912L-2.273734,91.886944c.901075,1.801649,1.965072,3.438876,3.357415,4.994642,6.223062,8.024711,16.376268,12.282201,26.774859,11.054281,3.521337-.409807,7.533443-.982536,11.790933-1.637727,20.14299-3.193492,47.818923-9.088709,77.623851-20.470335,34.635647-13.182776,60.182586-26.28409,75.494357-34.79957,2.620263-1.473804,4.831219-3.520838,6.468946-5.813755,2.45634-3.438876,3.766222-7.614905,3.684261-11.872894,0-2.210456-.409307-4.421413-1.22792-6.632369l2.620263,5.895716,1.883111,4.176028,53.14091,118.318638c5.158564,11.463088,2.620263,24.40048-5.322487,32.997921Z"/>
          <path class="st5" d="M254.014764,188.09752c-.245384.327345-.57273.655191-.900575.982536,0,0-.081961,0-.081961.081961-.491268.491268-1.064497.982536-1.555765,1.391843-2.865647,2.538302-6.222562,4.503374-9.989284,5.813755l-136.578017,46.99981-95.064117,32.752536c-5.813755,1.965072-11.872894,2.374379-17.604688,1.473804-.737152-.163923-1.473804-.327345-2.047034-.491268-1.473804-.409307-2.865647-.900575-4.094067-1.391843-.245884-.163923-.491268-.245884-.737152-.327845-1.063998-.491268-2.047034-1.063998-2.865647-1.637227-.491268-.327845-.900575-.655191-1.391843-.982536-.491268-.491268-.982536-.901075-1.392343-1.310381-.818614-.736652-1.473804-1.473804-2.047034-2.292418-.081462-.081961-.081462-.163923-.081462-.163923-1.146459-1.719688-1.965572-3.520838-2.538302-5.240526-1.22842-3.848183-1.064497-7.287559-.901075-8.761363,0-.573229.081961-.818614.081961-.818614L-1.291198,98.437352c.819113.982536,1.555765,1.965072,2.45684,2.866147.982536,1.064497,1.965072,1.965072,3.02957,2.865647,1.064497.900575,2.210456,1.719688,3.438876,2.374379.982536.655191,2.047034,1.22842,3.111531,1.719688.327345.163923.655191.327345.982536.409307.900575.409307,1.719688.655191,2.620263.900575.491268.245884.982536.409807,1.473804.491768,3.602799.982536,7.450982,1.22792,11.299665.736652,4.25799-.491268,9.006748-1.22842,14.247273-2.047034.327345-.081961.573229-.081961.900575-.163923,4.094067-.654691,8.597441-1.473804,13.264737-2.374379,3.68476-.737152,7.533443-1.555765,11.545549-2.45634,3.111531-.655191,6.304523-1.473804,9.579977-2.292917,6.550407-1.637227,13.346699-3.602799,20.388374-5.813255,3.520838-1.064497,7.123637-2.210956,10.726436-3.520838,3.602799-1.22842,7.205598-2.538302,10.890358-3.930644,35.454761-13.510121,61.65639-26.85682,77.296006-35.700145.900575-.491268,1.80115-1.064497,2.538302-1.719688.081961-.081462.163923-.163423.245384-.245384.737152-.573229,1.474304-1.22842,1.965572-1.883111l53.222872,121.920937s4.421413,11.708972.081462,17.522727Z"/>
          <path class="st2" d="M202.920887,33.341586c.081961,4.25799-1.22792,8.434018-3.684261,11.872894-1.637727,2.292917-3.848683,4.339951-6.468946,5.813755-15.311771,8.51548-40.858709,21.616794-75.494357,34.79957-29.804928,11.381626-57.480861,17.276843-77.623851,20.470335-4.25749.655191-8.269596,1.22792-11.790933,1.637727-10.39859,1.22792-20.551797-3.02957-26.774859-11.054281-1.392343-1.555765-2.45634-3.192992-3.357415-4.994642L-79.815124-57.382581c-.737152-1.473804-1.310381-2.948108-1.555765-4.421912l-.409307.081961-1.310381,3.275454-41.268016,102.187754s-6.796291,17.522727-1.637727,33.489688c-4.667296-12.610046-4.503374-26.611436.655191-39.139521l40.940671-99.813375,3.193492-7.696866c1.391843-5.813255,5.731294-10.644474,11.954356-12.364162.491268-.163423.982536-.327345,1.555765-.409307,33.653111-6.059139,79.261078-20.306413,79.261078-20.306413,18.177918-5.322487,53.550717-19.651722,77.050622-29.559044,13.592083-5.649833,29.31316-.245884,36.436797,12.691508,20.798181,37.82914,58.709281,111.11304,75.658779,143.865576.409307.736652.654691,1.473804.982536,2.210456.818614,2.210956,1.22792,4.421912,1.22792,6.632369Z"/>
        </g>
      </g>
      <g>
        <path class="st2" d="M568.435489,39.64632l-53.14091-118.318638-1.883111-4.176028-2.620263-5.895716c-.327845-.736652-.573229-1.473804-.982536-2.210456-16.949498-32.752536-54.860599-106.036437-75.658779-143.865576-7.123637-12.937392-22.844714-18.34134-36.436797-12.691508-23.499905,9.907322-58.872704,24.236557-77.050622,29.559044,0,0-45.607967,14.247273-79.261078,20.306413-.573229.081961-1.064497.245884-1.555765.409307-6.223062,1.719688-10.562513,6.550907-11.954356,12.364162l-3.193492,7.696866-40.940671,99.813375c-5.158564,12.528085-5.322487,26.529475-.655191,39.139521.081961.163423.081961.327345.163923.409307.327345.818614.654691,1.719688,1.064497,2.538302.409307.982536.900575,1.965072,1.391843,2.947608l90.233398,175.635577c4.012106,7.94225,10.807897,13.592083,18.504763,16.621652.245884.081961.491268.163923.737152.327845,1.22842.491268,2.620263.982536,4.094067,1.391843.573229.163923,1.309882.327345,2.047034.491268,5.731794.900575,11.790933.491268,17.604688-1.473804l95.064117-32.752536,136.578017-46.99981c3.766722-1.310381,7.123637-3.275454,9.989284-5.813755.491268-.409307,1.064497-.900575,1.555765-1.391843,0-.081961.081961-.081961.081961-.081961.327845-.327345.655191-.655191.900575-.982536,7.94275-8.597441,10.481052-21.534833,5.322487-32.997921Z"/>
        <g>
          <path class="st7" d="M563.113002,72.644241c4.339951-5.813755-.081462-17.522727-.081462-17.522727l-53.222872-121.920937c-.573229.654691-1.22842,1.309882-1.965572,1.883111-.081462.081961-.163423.163923-.245384.245384-.737152.655191-1.637727,1.22842-2.538302,1.719688-15.639616,8.843325-41.841245,22.190023-77.296006,35.700145-3.68476,1.392343-7.287559,2.702224-10.890358,3.930644-3.602799,1.22792-7.205598,2.45634-10.726436,3.520838-7.041675,2.210456-13.837967,4.176028-20.388374,5.813255-3.275454.819113-6.468446,1.555765-9.579977,2.292917-4.012106.900575-7.860789,1.719188-11.545549,2.45634-4.667296.900575-9.17067,1.719688-13.264737,2.374379-.327345.081961-.573229.081961-.900575.163923-5.240526.818614-9.989284,1.555765-14.247273,2.047034-3.848683.491268-7.696866.245884-11.299665-.736652-.491268-.081961-.982536-.245884-1.473804-.491768-.900575-.245384-1.719688-.491268-2.620263-.900575-.327345-.081961-.655191-.245384-.982536-.409307-1.064497-.491268-2.128995-1.064497-3.111531-1.719688-1.22842-.654691-2.374379-1.473804-3.438876-2.374379-1.064497-.900575-2.047034-1.80115-3.02957-2.865647-.901075-.901075-1.637727-1.883611-2.45684-2.866147l-24.482441,155.738471s-.081961.245384-.081961.818614c-.163423,1.473804-.327345,4.91318.901075,8.761363.57273,1.719688,1.391843,3.520838,2.538302,5.240526,0,0,0,.081961.081462.163923.573229.818614,1.22842,1.555765,2.047034,2.292418.409807.409307.901075.819113,1.392343,1.310381.491268.327345.900575.654691,1.391843.982536.818614.573229,1.801649,1.145959,2.865647,1.637227-7.696866-3.02957-14.492658-8.679402-18.504763-16.621652L185.722181-32.327698c-.491268-.982536-.982536-1.965072-1.391843-2.947608-.409807-.818614-.737152-1.719688-1.064497-2.538302-.081961-.081961-.081961-.245884-.163923-.409307-5.158564-15.966961,1.637727-33.489688,1.637727-33.489688l41.268016-102.187754,1.310381-3.275454.409307-.081961c.245384,1.473804.818614,2.948108,1.555765,4.421912L306.824504-23.566335c.901075,1.801649,1.965072,3.438876,3.357415,4.994642,6.223062,8.024711,16.376268,12.282201,26.774859,11.054281,3.521337-.409807,7.533443-.982536,11.790933-1.637727,20.14299-3.193492,47.818923-9.088709,77.623851-20.470335,34.635647-13.182776,60.182586-26.28409,75.494357-34.79957,2.620263-1.473804,4.831219-3.520838,6.468946-5.813755,2.45634-3.438876,3.766222-7.614905,3.684261-11.872894,0-2.210456-.409307-4.421413-1.22792-6.632369l2.620263,5.895716,1.883111,4.176028,53.14091,118.318638c5.158564,11.463088,2.620263,24.40048-5.322487,32.997921Z"/>
          <path class="st5" d="M563.113002,72.644241c-.245384.327345-.57273.655191-.900575.982536,0,0-.081961,0-.081961.081961-.491268.491268-1.064497.982536-1.555765,1.391843-2.865647,2.538302-6.222562,4.503374-9.989284,5.813755l-136.578017,46.99981-95.064117,32.752536c-5.813755,1.965072-11.872894,2.374379-17.604688,1.473804-.737152-.163923-1.473804-.327345-2.047034-.491268-1.473804-.409307-2.865647-.900575-4.094067-1.391843-.245884-.163923-.491268-.245884-.737152-.327845-1.063998-.491268-2.047034-1.063998-2.865647-1.637227-.491268-.327845-.900575-.655191-1.391843-.982536-.491268-.491268-.982536-.901075-1.392343-1.310381-.818614-.736652-1.473804-1.473804-2.047034-2.292418-.081462-.081961-.081462-.163923-.081462-.163923-1.146459-1.719688-1.965572-3.520838-2.538302-5.240526-1.22842-3.848183-1.064497-7.287559-.901075-8.761363,0-.573229.081961-.818614.081961-.818614l24.482441-155.738471c.819113.982536,1.555765,1.965072,2.45684,2.866147.982536,1.064497,1.965072,1.965072,3.02957,2.865647,1.064497.900575,2.210456,1.719688,3.438876,2.374379.982536.655191,2.047034,1.22842,3.111531,1.719688.327345.163923.655191.327345.982536.409307.900575.409307,1.719688.655191,2.620263.900575.491268.245884.982536.409807,1.473804.491768,3.602799.982536,7.450982,1.22792,11.299665.736652,4.25799-.491268,9.006748-1.22842,14.247273-2.047034.327345-.081961.573229-.081961.900575-.163923,4.094067-.654691,8.597441-1.473804,13.264737-2.374379,3.68476-.737152,7.533443-1.555765,11.545549-2.45634,3.111531-.655191,6.304523-1.473804,9.579977-2.292917,6.550407-1.637227,13.346699-3.602799,20.388374-5.813255,3.520838-1.064497,7.123637-2.210956,10.726436-3.520838,3.602799-1.22842,7.205598-2.538302,10.890358-3.930644,35.454761-13.510121,61.65639-26.85682,77.296006-35.700145.900575-.491268,1.80115-1.064497,2.538302-1.719688.081961-.081462.163923-.163423.245384-.245384.737152-.573229,1.474304-1.22842,1.965572-1.883111l53.222872,121.920937s4.421413,11.708972.081462,17.522727Z"/>
        </g>
      </g>
      <g>
        <path class="st2" d="M788.365039,257.698089l-53.14091-118.318638-1.883111-4.176028-2.620263-5.895716c-.327845-.736652-.573229-1.473804-.982536-2.210456-16.949498-32.752536-54.860599-106.036437-75.658779-143.865576-7.123637-12.937392-22.844714-18.34134-36.436797-12.691508-23.499905,9.907322-58.872704,24.236557-77.050622,29.559044,0,0-45.607967,14.247273-79.261078,20.306413-.573229.081961-1.064497.245884-1.555765.409307-6.223062,1.719688-10.562513,6.550907-11.954356,12.364162l-3.193492,7.696866-40.940671,99.813375c-5.158564,12.528085-5.322487,26.529475-.655191,39.139521.081961.163423.081961.327345.163923.409307.327345.818614.654691,1.719688,1.064497,2.538302.409307.982536.900575,1.965072,1.391843,2.947608l90.233398,175.635577c4.012106,7.94225,10.807897,13.592083,18.504763,16.621652.245884.081961.491268.163923.737152.327845,1.22842.491268,2.620263.982536,4.094067,1.391843.573229.163923,1.309882.327345,2.047034.491268,5.731794.900575,11.790933.491268,17.604688-1.473804l95.064117-32.752536,136.578017-46.99981c3.766722-1.310381,7.123637-3.275454,9.989284-5.813755.491268-.409307,1.064497-.900575,1.555765-1.391843,0-.081961.081961-.081961.081961-.081961.327845-.327345.655191-.655191.900575-.982536,7.94275-8.597441,10.481052-21.534833,5.322487-32.997921Z"/>
        <g>
          <path class="st7" d="M783.042552,290.69601c4.339951-5.813755-.081462-17.522727-.081462-17.522727l-53.222872-121.920937c-.573229.654691-1.22842,1.309882-1.965572,1.883111-.081462.081961-.163423.163923-.245384.245384-.737152.655191-1.637727,1.22842-2.538302,1.719688-15.639616,8.843325-41.841245,22.190023-77.296006,35.700145-3.68476,1.392343-7.287559,2.702224-10.890358,3.930644-3.602799,1.22792-7.205598,2.45634-10.726436,3.520838-7.041675,2.210456-13.837967,4.176028-20.388374,5.813255-3.275454.819113-6.468446,1.555765-9.579977,2.292917-4.012106.900575-7.860789,1.719188-11.545549,2.45634-4.667296.900575-9.17067,1.719688-13.264737,2.374379-.327345.081961-.573229.081961-.900575.163923-5.240526.818614-9.989284,1.555765-14.247273,2.047034-3.848683.491268-7.696866.245884-11.299665-.736652-.491268-.081961-.982536-.245884-1.473804-.491768-.900575-.245384-1.719688-.491268-2.620263-.900575-.327345-.081961-.655191-.245384-.982536-.409307-1.064497-.491268-2.128995-1.064497-3.111531-1.719688-1.22842-.654691-2.374379-1.473804-3.438876-2.374379s-2.047034-1.80115-3.02957-2.865647c-.901075-.901075-1.637727-1.883611-2.45684-2.866147l-24.482441,155.738471s-.081961.245384-.081961.818614c-.163423,1.473804-.327345,4.91318.901075,8.761363.57273,1.719688,1.391843,3.520838,2.538302,5.240526,0,0,0,.081961.081462.163923.573229.818614,1.22842,1.555765,2.047034,2.292418.409807.409307.901075.819113,1.392343,1.310381.491268.327345.900575.654691,1.391843.982536.818614.573229,1.801649,1.145959,2.865647,1.637227-7.696866-3.02957-14.492658-8.679402-18.504763-16.621652l-90.233398-175.635577c-.491268-.982536-.982536-1.965072-1.391843-2.947608-.409807-.818614-.737152-1.719688-1.064497-2.538302-.081961-.081961-.081961-.245884-.163923-.409307-5.158564-15.966961,1.637727-33.489688,1.637727-33.489688l41.268016-102.187754,1.310381-3.275454.409307-.081961c.245384,1.473804.818614,2.948108,1.555765,4.421912l77.54139,149.269525c.901075,1.801649,1.965072,3.438876,3.357415,4.994642,6.223062,8.024711,16.376268,12.282201,26.774859,11.054281,3.521337-.409807,7.533443-.982536,11.790933-1.637727,20.14299-3.193492,47.818923-9.088709,77.623851-20.470335,34.635647-13.182776,60.182586-26.28409,75.494357-34.79957,2.620263-1.473804,4.831219-3.520838,6.468946-5.813755,2.45634-3.438876,3.766222-7.614905,3.684261-11.872894,0-2.210456-.409307-4.421413-1.22792-6.632369l2.620263,5.895716,1.883111,4.176028,53.14091,118.318638c5.158564,11.463088,2.620263,24.40048-5.322487,32.997921Z"/>
          <path class="st5" d="M783.042552,290.69601c-.245384.327345-.57273.655191-.900575.982536,0,0-.081961,0-.081961.081961-.491268.491268-1.064497.982536-1.555765,1.391843-2.865647,2.538302-6.222562,4.503374-9.989284,5.813755l-136.578017,46.99981-95.064117,32.752536c-5.813755,1.965072-11.872894,2.374379-17.604688,1.473804-.737152-.163923-1.473804-.327345-2.047034-.491268-1.473804-.409307-2.865647-.900575-4.094067-1.391843-.245884-.163923-.491268-.245884-.737152-.327845-1.063998-.491268-2.047034-1.063998-2.865647-1.637227-.491268-.327845-.900575-.655191-1.391843-.982536-.491268-.491268-.982536-.901075-1.392343-1.310381-.818614-.736652-1.473804-1.473804-2.047034-2.292418-.081462-.081961-.081462-.163923-.081462-.163923-1.146459-1.719688-1.965572-3.520838-2.538302-5.240526-1.22842-3.848183-1.064497-7.287559-.901075-8.761363,0-.573229.081961-.818614.081961-.818614l24.482441-155.738471c.819113.982536,1.555765,1.965072,2.45684,2.866147.982536,1.064497,1.965072,1.965072,3.02957,2.865647s2.210456,1.719688,3.438876,2.374379c.982536.655191,2.047034,1.22842,3.111531,1.719688.327345.163923.655191.327345.982536.409307.900575.409307,1.719688.655191,2.620263.900575.491268.245884.982536.409807,1.473804.491768,3.602799.982536,7.450982,1.22792,11.299665.736652,4.25799-.491268,9.006748-1.22842,14.247273-2.047034.327345-.081961.573229-.081961.900575-.163923,4.094067-.654691,8.597441-1.473804,13.264737-2.374379,3.68476-.737152,7.533443-1.555765,11.545549-2.45634,3.111531-.655191,6.304523-1.473804,9.579977-2.292917,6.550407-1.637227,13.346699-3.602799,20.388374-5.813255,3.520838-1.064497,7.123637-2.210956,10.726436-3.520838,3.602799-1.22842,7.205598-2.538302,10.890358-3.930644,35.454761-13.510121,61.65639-26.85682,77.296006-35.700145.900575-.491268,1.80115-1.064497,2.538302-1.719688.081961-.081462.163923-.163423.245384-.245384.737152-.573229,1.474304-1.22842,1.965572-1.883111l53.222872,121.920937s4.421413,11.708972.081462,17.522727Z"/>
          <path class="st2" d="M731.948675,135.940075c.081961,4.25799-1.22792,8.434018-3.684261,11.872894-1.637727,2.292917-3.848683,4.339951-6.468946,5.813755-15.311771,8.51548-40.858709,21.616794-75.494357,34.79957-29.804928,11.381626-57.480861,17.276843-77.623851,20.470335-4.25749.655191-8.269596,1.22792-11.790933,1.637727-10.39859,1.22792-20.551797-3.02957-26.774859-11.054281-1.392343-1.555765-2.45634-3.192992-3.357415-4.994642l-77.54139-149.269525c-.737152-1.473804-1.310381-2.948108-1.555765-4.421912l-.409307.081961-1.310381,3.275454-41.268016,102.187754s-6.796291,17.522727-1.637727,33.489688c-4.667296-12.610046-4.503374-26.611436.655191-39.139521l40.940671-99.813375,3.193492-7.696866c1.391843-5.813255,5.731294-10.644474,11.954356-12.364162.491268-.163423.982536-.327345,1.555765-.409307C494.984054,14.346483,540.592021.09921,540.592021.09921c18.177918-5.322487,53.550717-19.651722,77.050622-29.559044,13.592083-5.649833,29.31316-.245884,36.436797,12.691508,20.798181,37.82914,58.709281,111.11304,75.658779,143.865576.409307.736652.654691,1.473804.982536,2.210456.818614,2.210956,1.22792,4.421912,1.22792,6.632369Z"/>
        </g>
      </g>
      <g>
        <path class="st2" d="M162.733879,474.909844l-53.14091-118.318638-1.883111-4.176028-2.620263-5.895716c-.327845-.736652-.573229-1.473804-.982536-2.210456-16.949498-32.752536-54.860599-106.036437-75.658779-143.865576-7.123637-12.937392-22.844714-18.34134-36.436797-12.691508-23.499905,9.907322-58.872704,24.236557-77.050622,29.559044,0,0-45.607967,14.247273-79.261078,20.306413-.573229.081961-1.064497.245884-1.555765.409307-6.223062,1.719688-10.562513,6.550907-11.954356,12.364162l-3.193492,7.696866-40.940671,99.813375c-5.158564,12.528085-5.322487,26.529475-.655191,39.139521.081961.163423.081961.327345.163923.409307.327345.818614.654691,1.719688,1.064497,2.538302.409307.982536.900575,1.965072,1.391843,2.947608l90.233398,175.635577c4.012106,7.94225,10.807897,13.592083,18.504763,16.621652.245884.081961.491268.163923.737152.327845,1.22842.491268,2.620263.982536,4.094067,1.391843.573229.163923,1.309882.327345,2.047034.491268,5.731794.900575,11.790933.491268,17.604688-1.473804l95.064117-32.752536,136.578017-46.99981c3.766722-1.310381,7.123637-3.275454,9.989284-5.813755.491268-.409307,1.064497-.900575,1.555765-1.391843,0-.081961.081961-.081961.081961-.081961.327845-.327345.655191-.655191.900575-.982536,7.94275-8.597441,10.481052-21.534833,5.322487-32.997921Z"/>
        <g>
          <path class="st7" d="M157.411392,507.907765c4.339951-5.813755-.081462-17.522727-.081462-17.522727l-53.222872-121.920937c-.573229.654691-1.22842,1.309882-1.965572,1.883111-.081462.081961-.163423.163923-.245384.245384-.737152.655191-1.637727,1.22842-2.538302,1.719688-15.639616,8.843325-41.841245,22.190023-77.296006,35.700145-3.68476,1.392343-7.287559,2.702224-10.890358,3.930644-3.602799,1.22792-7.205598,2.45634-10.726436,3.520838-7.041675,2.210456-13.837967,4.176028-20.388374,5.813255-3.275454.819113-6.468446,1.555765-9.579977,2.292917-4.012106.900575-7.860789,1.719188-11.545549,2.45634-4.667296.900575-9.17067,1.719688-13.264737,2.374379-.327345.081961-.573229.081961-.900575.163923-5.240526.818614-9.989284,1.555765-14.247273,2.047034-3.848683.491268-7.696866.245884-11.299665-.736652-.491268-.081961-.982536-.245884-1.473804-.491768-.900575-.245384-1.719688-.491268-2.620263-.900575-.327345-.081961-.655191-.245384-.982536-.409307-1.064497-.491268-2.128995-1.064497-3.111531-1.719688-1.22842-.654691-2.374379-1.473804-3.438876-2.374379-1.064497-.900575-2.047034-1.80115-3.02957-2.865647-.901075-.901075-1.637727-1.883611-2.45684-2.866147l-24.482441,155.738471s-.081961.245384-.081961.818614c-.163423,1.473804-.327345,4.91318.901075,8.761363.57273,1.719688,1.391843,3.520838,2.538302,5.240526,0,0,0,.081961.081462.163923.573229.818614,1.22842,1.555765,2.047034,2.292418.409807.409307.901075.819113,1.392343,1.310381.491268.327345.900575.654691,1.391843.982536.818614.573229,1.801649,1.145959,2.865647,1.637227-7.696866-3.02957-14.492658-8.679402-18.504763-16.621652l-90.233398-175.635577c-.491268-.982536-.982536-1.965072-1.391843-2.947608-.409807-.818614-.737152-1.719688-1.064497-2.538302-.081961-.081961-.081961-.245884-.163923-.409307-5.158564-15.966961,1.637727-33.489688,1.637727-33.489688l41.268016-102.187754,1.310381-3.275454.409307-.081961c.245384,1.473804.818614,2.948108,1.555765,4.421912l77.54139,149.269525c.901075,1.801649,1.965072,3.438876,3.357415,4.994642,6.223062,8.024711,16.376268,12.282201,26.774859,11.054281,3.521337-.409807,7.533443-.982536,11.790933-1.637727,20.14299-3.193492,47.818923-9.088709,77.623851-20.470335,34.635647-13.182776,60.182586-26.28409,75.494357-34.79957,2.620263-1.473804,4.831219-3.520838,6.468946-5.813755,2.45634-3.438876,3.766222-7.614905,3.684261-11.872894,0-2.210456-.409307-4.421413-1.22792-6.632369l2.620263,5.895716,1.883111,4.176028,53.14091,118.318638c5.158564,11.463088,2.620263,24.40048-5.322487,32.997921Z"/>
          <path class="st5" d="M157.411392,507.907765c-.245384.327345-.57273.655191-.900575.982536,0,0-.081961,0-.081961.081961-.491268.491268-1.064497.982536-1.555765,1.391843-2.865647,2.538302-6.222562,4.503374-9.989284,5.813755l-136.578017,46.99981-95.064117,32.752536c-5.813755,1.965072-11.872894,2.374379-17.604688,1.473804-.737152-.163923-1.473804-.327345-2.047034-.491268-1.473804-.409307-2.865647-.900575-4.094067-1.391843-.245884-.163923-.491268-.245884-.737152-.327845-1.063998-.491268-2.047034-1.063998-2.865647-1.637227-.491268-.327845-.900575-.655191-1.391843-.982536-.491268-.491268-.982536-.901075-1.392343-1.310381-.818614-.736652-1.473804-1.473804-2.047034-2.292418-.081462-.081961-.081462-.163923-.081462-.163923-1.146459-1.719688-1.965572-3.520838-2.538302-5.240526-1.22842-3.848183-1.064497-7.287559-.901075-8.761363,0-.573229.081961-.818614.081961-.818614l24.482441-155.738471c.819113.982536,1.555765,1.965072,2.45684,2.866147.982536,1.064497,1.965072,1.965072,3.02957,2.865647,1.064497.900575,2.210456,1.719688,3.438876,2.374379.982536.655191,2.047034,1.22842,3.111531,1.719688.327345.163923.655191.327345.982536.409307.900575.409307,1.719688.655191,2.620263.900575.491268.245884.982536.409807,1.473804.491768,3.602799.982536,7.450982,1.22792,11.299665.736652,4.25799-.491268,9.006748-1.22842,14.247273-2.047034.327345-.081961.573229-.081961.900575-.163923,4.094067-.654691,8.597441-1.473804,13.264737-2.374379,3.68476-.737152,7.533443-1.555765,11.545549-2.45634,3.111531-.655191,6.304523-1.473804,9.579977-2.292917,6.550407-1.637227,13.346699-3.602799,20.388374-5.813255,3.520838-1.064497,7.123637-2.210956,10.726436-3.520838,3.602799-1.22842,7.205598-2.538302,10.890358-3.930644,35.454761-13.510121,61.65639-26.85682,77.296006-35.700145.900575-.491268,1.80115-1.064497,2.538302-1.719688.081961-.081462.163923-.163423.245384-.245384.737152-.573229,1.474304-1.22842,1.965572-1.883111l53.222872,121.920937s4.421413,11.708972.081462,17.522727Z"/>
          <path class="st2" d="M106.317515,353.15183c.081961,4.25799-1.22792,8.434018-3.684261,11.872894-1.637727,2.292917-3.848683,4.339951-6.468946,5.813755-15.311771,8.51548-40.858709,21.616794-75.494357,34.79957-29.804928,11.381626-57.480861,17.276843-77.623851,20.470335-4.25749.655191-8.269596,1.22792-11.790933,1.637727-10.39859,1.22792-20.551797-3.02957-26.774859-11.054281-1.392343-1.555765-2.45634-3.192992-3.357415-4.994642l-77.54139-149.269525c-.737152-1.473804-1.310381-2.948108-1.555765-4.421912l-.409307.081961-1.310381,3.275454-41.268016,102.187754s-6.796291,17.522727-1.637727,33.489688c-4.667296-12.610046-4.503374-26.611436.655191-39.139521l40.940671-99.813375,3.193492-7.696866c1.391843-5.813255,5.731294-10.644474,11.954356-12.364162.491268-.163423.982536-.327345,1.555765-.409307,33.653111-6.059139,79.261078-20.306413,79.261078-20.306413,18.177918-5.322487,53.550717-19.651722,77.050622-29.559044,13.592083-5.649833,29.31316-.245884,36.436797,12.691508,20.798181,37.82914,58.709281,111.11304,75.658779,143.865576.409307.736652.654691,1.473804.982536,2.210456.818614,2.210956,1.22792,4.421912,1.22792,6.632369Z"/>
        </g>
      </g>
      <g>
        <g>
          <path class="st3" d="M476.577249,365.762856l-53.14091-118.318638-1.883111-4.176028-2.620263-5.895716c-.327845-.736652-.573229-1.473804-.982536-2.210456-16.949498-32.752536-54.860599-106.036437-75.658779-143.865576-7.123637-12.937392-22.844714-18.34134-36.436797-12.691508-23.499905,9.907322-58.872704,24.236557-77.050622,29.559044,0,0-45.607967,14.247273-79.261078,20.306413-.573229.081961-1.064497.245884-1.555765.409307-6.223062,1.719688-10.562513,6.550907-11.954356,12.364162l-3.193492,7.696866-40.940671,99.813375c-5.158564,12.528085-5.322487,26.529475-.655191,39.139521.081961.163423.081961.327345.163923.409307.327345.818614.654691,1.719688,1.064497,2.538302.409307.982536.900575,1.965072,1.391843,2.947608l90.233398,175.635577c4.012106,7.94225,10.807897,13.592083,18.504763,16.621652.245884.081961.491268.163923.737152.327845,1.22842.491268,2.620263.982536,4.094067,1.391843.573229.163923,1.309882.327345,2.047034.491268,5.731794.900575,11.790933.491268,17.604688-1.473804l95.064117-32.752536,136.578017-46.99981c3.766722-1.310381,7.123637-3.275454,9.989284-5.813755.491268-.409307,1.064497-.900575,1.555765-1.391843,0-.081961.081961-.081961.081961-.081961.327845-.327345.655191-.655191.900575-.982536,7.94275-8.597441,10.481052-21.534833,5.322487-32.997921Z"/>
          <g>
            <path class="st6" d="M471.254762,398.760777c4.339951-5.813755-.081462-17.522727-.081462-17.522727l-53.222872-121.920937c-.573229.654691-1.22842,1.309882-1.965572,1.883111-.081462.081961-.163423.163923-.245384.245384-.737152.655191-1.637727,1.22842-2.538302,1.719688-15.639616,8.843325-41.841245,22.190023-77.296006,35.700145-3.68476,1.392343-7.287559,2.702224-10.890358,3.930644-3.602799,1.22792-7.205598,2.45634-10.726436,3.520838-7.041675,2.210456-13.837967,4.176028-20.388374,5.813255-3.275454.819113-6.468446,1.555765-9.579977,2.292917-4.012106.900575-7.860789,1.719188-11.545549,2.45634-4.667296.900575-9.17067,1.719688-13.264737,2.374379-.327345.081961-.573229.081961-.900575.163923-5.240526.818614-9.989284,1.555765-14.247273,2.047034-3.848683.491268-7.696866.245884-11.299665-.736652-.491268-.081961-.982536-.245884-1.473804-.491768-.900575-.245384-1.719688-.491268-2.620263-.900575-.327345-.081961-.655191-.245384-.982536-.409307-1.064497-.491268-2.128995-1.064497-3.111531-1.719688-1.22842-.654691-2.374379-1.473804-3.438876-2.374379-1.064497-.900575-2.047034-1.80115-3.02957-2.865647-.901075-.901075-1.637727-1.883611-2.45684-2.866147l-24.482441,155.738471s-.081961.245384-.081961.818614c-.163423,1.473804-.327345,4.91318.901075,8.761363.57273,1.719688,1.391843,3.520838,2.538302,5.240526,0,0,0,.081961.081462.163923.573229.818614,1.22842,1.555765,2.047034,2.292418.409807.409307.901075.819113,1.392343,1.310381.491268.327345.900575.654691,1.391843.982536.818614.573229,1.801649,1.145959,2.865647,1.637227-7.696866-3.02957-14.492658-8.679402-18.504763-16.621652l-90.233398-175.635577c-.491268-.982536-.982536-1.965072-1.391843-2.947608-.409807-.818614-.737152-1.719688-1.064497-2.538302-.081961-.081961-.081961-.245884-.163923-.409307-5.158564-15.966961,1.637727-33.489688,1.637727-33.489688l41.268016-102.187754,1.310381-3.275454.409307-.081961c.245384,1.473804.818614,2.948108,1.555765,4.421912l77.54139,149.269525c.901075,1.801649,1.965072,3.438876,3.357415,4.994642,6.223062,8.024711,16.376268,12.282201,26.774859,11.054281,3.521337-.409807,7.533443-.982536,11.790933-1.637727,20.14299-3.193492,47.818923-9.088709,77.623851-20.470335,34.635647-13.182776,60.182586-26.28409,75.494357-34.79957,2.620263-1.473804,4.831219-3.520838,6.468946-5.813755,2.45634-3.438876,3.766222-7.614905,3.684261-11.872894,0-2.210456-.409307-4.421413-1.22792-6.632369l2.620263,5.895716,1.883111,4.176028,53.14091,118.318638c5.158564,11.463088,2.620263,24.40048-5.322487,32.997921Z"/>
            <path class="st1" d="M471.254762,398.760777c-.245384.327345-.57273.655191-.900575.982536,0,0-.081961,0-.081961.081961-.491268.491268-1.064497.982536-1.555765,1.391843-2.865647,2.538302-6.222562,4.503374-9.989284,5.813755l-136.578017,46.99981-95.064117,32.752536c-5.813755,1.965072-11.872894,2.374379-17.604688,1.473804-.737152-.163923-1.473804-.327345-2.047034-.491268-1.473804-.409307-2.865647-.900575-4.094067-1.391843-.245884-.163923-.491268-.245884-.737152-.327845-1.063998-.491268-2.047034-1.063998-2.865647-1.637227-.491268-.327845-.900575-.655191-1.391843-.982536-.491268-.491268-.982536-.901075-1.392343-1.310381-.818614-.736652-1.473804-1.473804-2.047034-2.292418-.081462-.081961-.081462-.163923-.081462-.163923-1.146459-1.719688-1.965572-3.520838-2.538302-5.240526-1.22842-3.848183-1.064497-7.287559-.901075-8.761363,0-.573229.081961-.818614.081961-.818614l24.482441-155.738471c.819113.982536,1.555765,1.965072,2.45684,2.866147.982536,1.064497,1.965072,1.965072,3.02957,2.865647,1.064497.900575,2.210456,1.719688,3.438876,2.374379.982536.655191,2.047034,1.22842,3.111531,1.719688.327345.163923.655191.327345.982536.409307.900575.409307,1.719688.655191,2.620263.900575.491268.245884.982536.409807,1.473804.491768,3.602799.982536,7.450982,1.22792,11.299665.736652,4.25799-.491268,9.006748-1.22842,14.247273-2.047034.327345-.081961.573229-.081961.900575-.163923,4.094067-.654691,8.597441-1.473804,13.264737-2.374379,3.68476-.737152,7.533443-1.555765,11.545549-2.45634,3.111531-.655191,6.304523-1.473804,9.579977-2.292917,6.550407-1.637227,13.346699-3.602799,20.388374-5.813255,3.520838-1.064497,7.123637-2.210956,10.726436-3.520838,3.602799-1.22842,7.205598-2.538302,10.890358-3.930644,35.454761-13.510121,61.65639-26.85682,77.296006-35.700145.900575-.491268,1.80115-1.064497,2.538302-1.719688.081961-.081462.163923-.163423.245384-.245384.737152-.573229,1.474304-1.22842,1.965572-1.883111l53.222872,121.920937s4.421413,11.708972.081462,17.522727Z"/>
            <path class="st3" d="M420.160885,244.004842c.081961,4.25799-1.22792,8.434018-3.684261,11.872894-1.637727,2.292917-3.848683,4.339951-6.468946,5.813755-15.311771,8.51548-40.858709,21.616794-75.494357,34.79957-29.804928,11.381626-57.480861,17.276843-77.623851,20.470335-4.25749.655191-8.269596,1.22792-11.790933,1.637727-10.39859,1.22792-20.551797-3.02957-26.774859-11.054281-1.392343-1.555765-2.45634-3.192992-3.357415-4.994642l-77.54139-149.269525c-.737152-1.473804-1.310381-2.948108-1.555765-4.421912l-.409307.081961-1.310381,3.275454-41.268016,102.187754s-6.796291,17.522727-1.637727,33.489688c-4.667296-12.610046-4.503374-26.611436.655191-39.139521l40.940671-99.813375,3.193492-7.696866c1.391843-5.813255,5.731294-10.644474,11.954356-12.364162.491268-.163423.982536-.327345,1.555765-.409307,33.653111-6.059139,79.261078-20.306413,79.261078-20.306413,18.177918-5.322487,53.550717-19.651722,77.050622-29.559044,13.592083-5.649833,29.31316-.245884,36.436797,12.691508,20.798181,37.82914,58.709281,111.11304,75.658779,143.865576.409307.736652.654691,1.473804.982536,2.210456.818614,2.210956,1.22792,4.421912,1.22792,6.632369Z"/>
          </g>
        </g>
        <g>
          <path class="st8" d="M293.667767,178.416902l-16.353862,66.949002c-1.616213,6.616409-11.412283,7.540632-16.458271,5.131075-4.28722-2.047231-7.096257-6.069238-5.897914-10.993805l19.433001-79.859575c1.969012-8.091619,11.842673-9.538583,18.296135-5.990568l82.015502,45.090877c3.904534,2.146654,5.353373,6.803245,4.337811,10.79089-3.233721,7.446046-11.758386,10.149578-18.547508,5.651438l-66.824894-36.769333Z"/>
          <path class="st4" d="M236.749006,257.657245c-1.34799,5.727825-8.079517,7.237302-12.297046,7.036101-3.806051-.181571-11.888162-4.254286-10.589957-9.664339l19.553033-81.483982c1.340405-5.585911,7.277204-7.89125,11.986552-7.610157,4.222276.252021,12.004614,3.946621,10.566665,10.056697l-19.219248,81.66568Z"/>
        </g>
      </g>
      <g>
        <path class="st2" d="M434.610213,678.411755l-53.14091-118.318638-1.883111-4.176028-2.620263-5.895716c-.327845-.736652-.573229-1.473804-.982536-2.210456-16.949498-32.752536-54.860599-106.036437-75.658779-143.865576-7.123637-12.937392-22.844714-18.34134-36.436797-12.691508-23.499905,9.907322-58.872704,24.236557-77.050622,29.559044,0,0-45.607967,14.247273-79.261078,20.306413-.573229.081961-1.064497.245884-1.555765.409307-6.223062,1.719688-10.562513,6.550907-11.954356,12.364162l-3.193492,7.696866-40.940671,99.813375c-5.158564,12.528085-5.322487,26.529475-.655191,39.139521.081961.163423.081961.327345.163923.409307.327345.818614.654691,1.719688,1.064497,2.538302.409307.982536.900575,1.965072,1.391843,2.947608l90.233398,175.635577c4.012106,7.94225,10.807897,13.592083,18.504763,16.621652.245884.081961.491268.163923.737152.327845,1.22842.491268,2.620263.982536,4.094067,1.391843.573229.163923,1.309882.327345,2.047034.491268,5.731794.900575,11.790933.491268,17.604688-1.473804l95.064117-32.752536,136.578017-46.99981c3.766722-1.310381,7.123637-3.275454,9.989284-5.813755.491268-.409307,1.064497-.900575,1.555765-1.391843,0-.081961.081961-.081961.081961-.081961.327845-.327345.655191-.655191.900575-.982536,7.94275-8.597441,10.481052-21.534833,5.322487-32.997921Z"/>
        <g>
          <path class="st7" d="M429.287726,711.409676c4.339951-5.813755-.081462-17.522727-.081462-17.522727l-53.222872-121.920937c-.573229.654691-1.22842,1.309882-1.965572,1.883111-.081462.081961-.163423.163923-.245384.245384-.737152.655191-1.637727,1.22842-2.538302,1.719688-15.639616,8.843325-41.841245,22.190023-77.296006,35.700145-3.68476,1.392343-7.287559,2.702224-10.890358,3.930644-3.602799,1.22792-7.205598,2.45634-10.726436,3.520838-7.041675,2.210456-13.837967,4.176028-20.388374,5.813255-3.275454.819113-6.468446,1.555765-9.579977,2.292917-4.012106.900575-7.860789,1.719188-11.545549,2.45634-4.667296.900575-9.17067,1.719688-13.264737,2.374379-.327345.081961-.573229.081961-.900575.163923-5.240526.818614-9.989284,1.555765-14.247273,2.047034-3.848683.491268-7.696866.245884-11.299665-.736652-.491268-.081961-.982536-.245884-1.473804-.491768-.900575-.245384-1.719688-.491268-2.620263-.900575-.327345-.081961-.655191-.245384-.982536-.409307-1.064497-.491268-2.128995-1.064497-3.111531-1.719688-1.22842-.654691-2.374379-1.473804-3.438876-2.374379-1.064497-.900575-2.047034-1.80115-3.02957-2.865647-.901075-.901075-1.637727-1.883611-2.45684-2.866147l-24.482441,155.738471s-.081961.245384-.081961.818614c-.163423,1.473804-.327345,4.91318.901075,8.761363.57273,1.719688,1.391843,3.520838,2.538302,5.240526,0,0,0,.081961.081462.163923.573229.818614,1.22842,1.555765,2.047034,2.292418.409807.409307.901075.819113,1.392343,1.310381.491268.327345.900575.654691,1.391843.982536.818614.573229,1.801649,1.145959,2.865647,1.637227-7.696866-3.02957-14.492658-8.679402-18.504763-16.621652l-90.233398-175.635577c-.491268-.982536-.982536-1.965072-1.391843-2.947608-.409807-.818614-.737152-1.719688-1.064497-2.538302-.081961-.081961-.081961-.245884-.163923-.409307-5.158564-15.966961,1.637727-33.489688,1.637727-33.489688l41.268016-102.187754,1.310381-3.275454.409307-.081961c.245384,1.473804.818614,2.948108,1.555765,4.421912l77.54139,149.269525c.901075,1.801649,1.965072,3.438876,3.357415,4.994642,6.223062,8.024711,16.376268,12.282201,26.774859,11.054281,3.521337-.409807,7.533443-.982536,11.790933-1.637727,20.14299-3.193492,47.818923-9.088709,77.623851-20.470335,34.635647-13.182776,60.182586-26.28409,75.494357-34.79957,2.620263-1.473804,4.831219-3.520838,6.468946-5.813755,2.45634-3.438876,3.766222-7.614905,3.684261-11.872894,0-2.210456-.409307-4.421413-1.22792-6.632369l2.620263,5.895716,1.883111,4.176028,53.14091,118.318638c5.158564,11.463088,2.620263,24.40048-5.322487,32.997921Z"/>
          <path class="st2" d="M378.193849,556.653741c.081961,4.25799-1.22792,8.434018-3.684261,11.872894-1.637727,2.292917-3.848683,4.339951-6.468946,5.813755-15.311771,8.51548-40.858709,21.616794-75.494357,34.79957-29.804928,11.381626-57.480861,17.276843-77.623851,20.470335-4.25749.655191-8.269596,1.22792-11.790933,1.637727-10.39859,1.22792-20.551797-3.02957-26.774859-11.054281-1.392343-1.555765-2.45634-3.192992-3.357415-4.994642l-77.54139-149.269525c-.737152-1.473804-1.310381-2.948108-1.555765-4.421912l-.409307.081961-1.310381,3.275454-41.268016,102.187754s-6.796291,17.522727-1.637727,33.489688c-4.667296-12.610046-4.503374-26.611436.655191-39.139521l40.940671-99.813375,3.193492-7.696866c1.391843-5.813255,5.731294-10.644474,11.954356-12.364162.491268-.163423.982536-.327345,1.555765-.409307,33.653111-6.059139,79.261078-20.306413,79.261078-20.306413,18.177918-5.322487,53.550717-19.651722,77.050622-29.559044,13.592083-5.649833,29.31316-.245884,36.436797,12.691508,20.798181,37.82914,58.709281,111.11304,75.658779,143.865576.409307.736652.654691,1.473804.982536,2.210456.818614,2.210956,1.22792,4.421912,1.22792,6.632369Z"/>
        </g>
      </g>
      <g>
        <path class="st2" d="M743.708452,562.351578l-53.14091-118.318638-1.883111-4.176028-2.620263-5.895716c-.327845-.736652-.573229-1.473804-.982536-2.210456-16.949498-32.752536-54.860599-106.036437-75.658779-143.865576-7.123637-12.937392-22.844714-18.34134-36.436797-12.691508-23.499905,9.907322-58.872704,24.236557-77.050622,29.559044,0,0-45.607967,14.247273-79.261078,20.306413-.573229.081961-1.064497.245884-1.555765.409307-6.223062,1.719688-10.562513,6.550907-11.954356,12.364162l-3.193492,7.696866-40.940671,99.813375c-5.158564,12.528085-5.322487,26.529475-.655191,39.139521.081961.163423.081961.327345.163923.409307.327345.818614.654691,1.719688,1.064497,2.538302.409307.982536.900575,1.965072,1.391843,2.947608l90.233398,175.635577c4.012106,7.94225,10.807897,13.592083,18.504763,16.621652.245884.081961.491268.163923.737152.327845,1.22842.491268,2.620263.982536,4.094067,1.391843.573229.163923,1.309882.327345,2.047034.491268,5.731794.900575,11.790933.491268,17.604688-1.473804l95.064117-32.752536,136.578017-46.99981c3.766722-1.310381,7.123637-3.275454,9.989284-5.813755.491268-.409307,1.064497-.900575,1.555765-1.391843,0-.081961.081961-.081961.081961-.081961.327845-.327345.655191-.655191.900575-.982536,7.94275-8.597441,10.481052-21.534833,5.322487-32.997921Z"/>
        <g>
          <path class="st7" d="M738.385965,595.349499c4.339951-5.813755-.081462-17.522727-.081462-17.522727l-53.222872-121.920937c-.573229.654691-1.22842,1.309882-1.965572,1.883111-.081462.081961-.163423.163923-.245384.245384-.737152.655191-1.637727,1.22842-2.538302,1.719688-15.639616,8.843325-41.841245,22.190023-77.296006,35.700145-3.68476,1.392343-7.287559,2.702224-10.890358,3.930644-3.602799,1.22792-7.205598,2.45634-10.726436,3.520838-7.041675,2.210456-13.837967,4.176028-20.388374,5.813255-3.275454.819113-6.468446,1.555765-9.579977,2.292917-4.012106.900575-7.860789,1.719188-11.545549,2.45634-4.667296.900575-9.17067,1.719688-13.264737,2.374379-.327345.081961-.573229.081961-.900575.163923-5.240526.818614-9.989284,1.555765-14.247273,2.047034-3.848683.491268-7.696866.245884-11.299665-.736652-.491268-.081961-.982536-.245884-1.473804-.491768-.900575-.245384-1.719688-.491268-2.620263-.900575-.327345-.081961-.655191-.245384-.982536-.409307-1.064497-.491268-2.128995-1.064497-3.111531-1.719688-1.22842-.654691-2.374379-1.473804-3.438876-2.374379-1.064497-.900575-2.047034-1.80115-3.02957-2.865647-.901075-.901075-1.637727-1.883611-2.45684-2.866147l-24.482441,155.738471s-.081961.245384-.081961.818614c-.163423,1.473804-.327345,4.91318.901075,8.761363.57273,1.719688,1.391843,3.520838,2.538302,5.240526,0,0,0,.081961.081462.163923.573229.818614,1.22842,1.555765,2.047034,2.292418.409807.409307.901075.819113,1.392343,1.310381.491268.327345.900575.654691,1.391843.982536.818614.573229,1.801649,1.145959,2.865647,1.637227-7.696866-3.02957-14.492658-8.679402-18.504763-16.621652l-90.233398-175.635577c-.491268-.982536-.982536-1.965072-1.391843-2.947608-.409807-.818614-.737152-1.719688-1.064497-2.538302-.081961-.081961-.081961-.245884-.163923-.409307-5.158564-15.966961,1.637727-33.489688,1.637727-33.489688l41.268016-102.187754,1.310381-3.275454.409307-.081961c.245384,1.473804.818614,2.948108,1.555765,4.421912l77.54139,149.269525c.901075,1.801649,1.965072,3.438876,3.357415,4.994642,6.223062,8.024711,16.376268,12.282201,26.774859,11.054281,3.521337-.409807,7.533443-.982536,11.790933-1.637727,20.14299-3.193492,47.818923-9.088709,77.623851-20.470335,34.635647-13.182776,60.182586-26.28409,75.494357-34.79957,2.620263-1.473804,4.831219-3.520838,6.468946-5.813755,2.45634-3.438876,3.766222-7.614905,3.684261-11.872894,0-2.210456-.409307-4.421413-1.22792-6.632369l2.620263,5.895716,1.883111,4.176028,53.14091,118.318638c5.158564,11.463088,2.620263,24.40048-5.322487,32.997921Z"/>
          <path class="st5" d="M738.385965,595.349499c-.245384.327345-.57273.655191-.900575.982536,0,0-.081961,0-.081961.081961-.491268.491268-1.064497.982536-1.555765,1.391843-2.865647,2.538302-6.222562,4.503374-9.989284,5.813755l-136.578017,46.99981-95.064117,32.752536c-5.813755,1.965072-11.872894,2.374379-17.604688,1.473804-.737152-.163923-1.473804-.327345-2.047034-.491268-1.473804-.409307-2.865647-.900575-4.094067-1.391843-.245884-.163923-.491268-.245884-.737152-.327845-1.063998-.491268-2.047034-1.063998-2.865647-1.637227-.491268-.327845-.900575-.655191-1.391843-.982536-.491268-.491268-.982536-.901075-1.392343-1.310381-.818614-.736652-1.473804-1.473804-2.047034-2.292418-.081462-.081961-.081462-.163923-.081462-.163923-1.146459-1.719688-1.965572-3.520838-2.538302-5.240526-1.22842-3.848183-1.064497-7.287559-.901075-8.761363,0-.573229.081961-.818614.081961-.818614l24.482441-155.738471c.819113.982536,1.555765,1.965072,2.45684,2.866147.982536,1.064497,1.965072,1.965072,3.02957,2.865647,1.064497.900575,2.210456,1.719688,3.438876,2.374379.982536.655191,2.047034,1.22842,3.111531,1.719688.327345.163923.655191.327345.982536.409307.900575.409307,1.719688.655191,2.620263.900575.491268.245884.982536.409807,1.473804.491768,3.602799.982536,7.450982,1.22792,11.299665.736652,4.25799-.491268,9.006748-1.22842,14.247273-2.047034.327345-.081961.573229-.081961.900575-.163923,4.094067-.654691,8.597441-1.473804,13.264737-2.374379,3.68476-.737152,7.533443-1.555765,11.545549-2.45634,3.111531-.655191,6.304523-1.473804,9.579977-2.292917,6.550407-1.637227,13.346699-3.602799,20.388374-5.813255,3.520838-1.064497,7.123637-2.210956,10.726436-3.520838,3.602799-1.22842,7.205598-2.538302,10.890358-3.930644,35.454761-13.510121,61.65639-26.85682,77.296006-35.700145.900575-.491268,1.80115-1.064497,2.538302-1.719688.081961-.081462.163923-.163423.245384-.245384.737152-.573229,1.474304-1.22842,1.965572-1.883111l53.222872,121.920937s4.421413,11.708972.081462,17.522727Z"/>
          <path class="st2" d="M687.292088,440.593564c.081961,4.25799-1.22792,8.434018-3.684261,11.872894-1.637727,2.292917-3.848683,4.339951-6.468946,5.813755-15.311771,8.51548-40.858709,21.616794-75.494357,34.79957-29.804928,11.381626-57.480861,17.276843-77.623851,20.470335-4.25749.655191-8.269596,1.22792-11.790933,1.637727-10.39859,1.22792-20.551797-3.02957-26.774859-11.054281-1.392343-1.555765-2.45634-3.192992-3.357415-4.994642l-77.54139-149.269525c-.737152-1.473804-1.310381-2.948108-1.555765-4.421912l-.409307.081961-1.310381,3.275454-41.268016,102.187754s-6.796291,17.522727-1.637727,33.489688c-4.667296-12.610046-4.503374-26.611436.655191-39.139521l40.940671-99.813375,3.193492-7.696866c1.391843-5.813255,5.731294-10.644474,11.954356-12.364162.491268-.163423.982536-.327345,1.555765-.409307,33.653111-6.059139,79.261078-20.306413,79.261078-20.306413,18.177918-5.322487,53.550717-19.651722,77.050622-29.559044,13.592083-5.649833,29.31316-.245884,36.436797,12.691508,20.798181,37.82914,58.709281,111.11304,75.658779,143.865576.409307.736652.654691,1.473804.982536,2.210456.818614,2.210956,1.22792,4.421912,1.22792,6.632369Z"/>
        </g>
      </g>
    </g>
  </g>
</svg>